<svg xmlns="http://www.w3.org/2000/svg" viewBox="0 0 574.81 80.15"><defs><style>.cls-1{fill:#005f9e}.cls-2{fill:#44aee3}</style></defs><g id="Layer_2" data-name="Layer 2"><g id="Layer_1-2" data-name="Layer 1"><path class="cls-1" d="M387.57 7.67l15.28 48.73-14.94 2.19-13.94-48.91 13.6-2.01z"/><path class="cls-2" d="M387.57 7.67h-13.13a1.54 1.54 0 0 0-1.36 1l-19.25 61.45a.73.73 0 0 0 .73 1h13.89a1.46 1.46 0 0 0 1.33-1L386.05 13z"/><path class="cls-1" d="M433.58 57.64l-3.79-12.11-11.86-37.86-11.88 8.06 16.53 54.38c.16.55.49 1 1.06 1z"/><path class="cls-2" d="M414.37 7.67h-9.58a1.51 1.51 0 0 0-1.35 1l-15.53 49.9h14.49a1.47 1.47 0 0 0 1.33-1l5.16-18.11L416.4 13l1.53-5.35zM478 71.11h-12.25c-1 0-1.39-.44-1.74-1.39l-3.65-12.26h-19.64l-3.65 12.26a1.89 1.89 0 0 1-2 1.39h-11.3a1.08 1.08 0 0 1-1-1.57l18.56-60.65a1.76 1.76 0 0 1 1.83-1.39h14.77A1.88 1.88 0 0 1 460 8.89l19 60.65a1.06 1.06 0 0 1-1 1.57zm-21.55-26.86l-.87-2.78a196 196 0 0 1-4.78-19.2h-.34a193.85 193.85 0 0 1-5 19.47l-.78 2.51zM526.58 28v4.52c0 12.52-7.73 20.42-21.72 20.42h-8.17v16.78a1.24 1.24 0 0 1-1.39 1.39h-11.91a1.28 1.28 0 0 1-1.39-1.39V8.89a1.37 1.37 0 0 1 1.39-1.39h21.38c14.08 0 21.81 8.43 21.81 20.5zm-29.89-7.38v19.2h7c6.09 0 8.17-2.78 8.17-8.25v-2.52c0-5.3-2.08-8.43-8.17-8.43zm77.51-.26c.35 1 0 1.65-1.3 2.08l-9.21 3.31a1.53 1.53 0 0 1-2.26-1c-1.65-3.74-4.44-5.39-8.95-5.39-4.78 0-7.91 2.17-7.91 5.48s2.52 4.78 14.16 8.77c11.21 3.83 16.08 9.48 16.08 18.77 0 11.13-9.56 19.73-23.46 19.73-12.69 0-20.51-5.39-23.29-15.64a1.51 1.51 0 0 1 1-2l9.91-3.22c1.3-.43 1.91-.08 2.17 1.13 1 4.7 4.26 6.78 10.08 6.78 5.3 0 8.78-2.35 8.78-5.82 0-3.22-2.17-4.61-11.3-7.73-13.73-4.78-18.85-10.26-18.85-20.43s9-18.77 22.33-18.77c11.16.04 18.98 4.91 22.02 13.95z"/></g><g id="Layer_2-2" data-name="Layer 2"><path class="cls-1" d="M120.21 26.92h14.26v6.72h.18c1.79-5.58 8.25-7.79 14-7.79v14.52a17.28 17.28 0 0 0-5.93-1.24c-4.84 0-6.36 1.24-8 3.45v28.78h-14.51zm32.26 0H167v44.44h-14.53zm19.44 0h14.54v5.93h.17a15.2 15.2 0 0 1 12.84-7c4.39 0 8.78 2.74 9 7h.18a15.17 15.17 0 0 1 12.83-7c5.82 0 10.13 3.11 10.13 9.47v36h-14.48V39.93c0-2.39-.81-4-3.5-4a4.59 4.59 0 0 0-3.76 1.85l-.86 1.08v32.5h-14.48V39.93c0-2.39-.81-4-3.5-4a4.62 4.62 0 0 0-3.77 1.85l-.8 1.06v32.5h-14.54zm64.62-18.6h14.54v21.16h.18a13.52 13.52 0 0 1 8.75-3.63c10.06 0 15.43 9.92 15.43 22.75 0 10.18-4.3 23.29-16.5 23.29-5.65 0-9.33-2.66-12.2-6.91l-2.7 6.38h-7.53zm14.54 48.78c-.27 3.72 2 5.76 4.75 5.76 4 0 4.57-4 4.57-12.22v-3.36c0-8.86 0-13.46-4.47-13.46a6.52 6.52 0 0 0-4 1.77l-.81.79zm28.18-48.78h14.53v63h-14.53zM312.09 51c0 3.91.8 10.54 6.55 10.54a7.67 7.67 0 0 0 7.36-6.13l9.77 3.53c-.62 2.05-5.1 12.14-18 12.14-13.91 0-20.18-11.06-20.18-23.36 0-12.58 6.64-23.2 20-23.2 14 0 18.83 11.86 18.83 23.45v3zm10.85-8.49c-.09-4.16-.44-9-5.47-9-4.12 0-5.38 4.79-5.38 9zM152.43 8.04H167v12.79h-14.57z"/><path class="cls-1" d="M81.53 8.08h45V20.3h-14.42v50.82H96V20.3H81.53zM52.3 55.55a10.14 10.14 0 0 1-.89 2.64 2 2 0 0 0-.22.84c-.62.6-1 1-1.18 1.07a27.07 27.07 0 0 1-10.07 5.53 27.5 27.5 0 0 1-8.71 1.19L25 70.14a32.19 32.19 0 0 0 16.21-.65A31.72 31.72 0 0 0 60.1 53.84a33.68 33.68 0 0 0 1.43-3.22zM30.48 12.18h1.91a15.71 15.71 0 0 0-2.11.66l5.56 3a15.86 15.86 0 0 1 11.69 4.86c-.67.06-1.37.16-2.09.27l9.42 5a2.84 2.84 0 0 0-.06-.31 4.22 4.22 0 0 1 1 .81l6.26 3.35c-.08-.24-.14-.47-.22-.7a1.76 1.76 0 0 0-.19-.39c-.06-.2-.12-.39-.19-.59a28.85 28.85 0 0 0-9.65-12.95 1.71 1.71 0 0 0-.41-.44 31.8 31.8 0 0 0-16.95-6.56h-.53a29.31 29.31 0 0 0-6.21.17l-.37.06c-.88.12-1.65.26-2.27.41s-1.09.26-1.58.39l5.79 3.1c.4-.07.8-.12 1.2-.14zM6.1 49.68a28.62 28.62 0 0 1-1.67-6 30.32 30.32 0 0 1-.32-5 17.89 17.89 0 0 1 .22-2.77 27.46 27.46 0 0 1 2-7.07v-8.11a30.36 30.36 0 0 0-2.78 4.4A31.44 31.44 0 0 0 .28 35.29 22 22 0 0 0 0 38.75a34.51 34.51 0 0 0 .35 5.44 31.72 31.72 0 0 0 2.32 7.89 33.85 33.85 0 0 0 2.88 5.13 2.36 2.36 0 0 0 .32.44l.43.57v-9c-.07.13-.14.3-.2.46z"/><path class="cls-1" d="M53.35 35A12.56 12.56 0 0 1 52 36.73a41.66 41.66 0 0 1 3.54 8.38 14.19 14.19 0 0 0 .9-1.29 16.27 16.27 0 0 0 1.27-14 2.53 2.53 0 0 1-.28-.51c-.15-.43-.34-.83-.52-1.25a2.19 2.19 0 0 1-.46-.64 3.54 3.54 0 0 0-.63-1l-.94-.5A12.32 12.32 0 0 1 53.35 35zM28.41 12.36a1.32 1.32 0 0 1-.28 0 21.27 21.27 0 0 0-3.93.92 27.37 27.37 0 0 1 3.26 1 14.22 14.22 0 0 1 2.82-1.47l-1-.53zm33.12 38.26l19.72-10.54-19.19-10.26a30.56 30.56 0 0 1-.53 20.8zM34.41 15.91a11.58 11.58 0 0 0-2.27.54 46.31 46.31 0 0 1 8 5.72 38.83 38.83 0 0 1 5.26-1.24l-9.6-5.13a11.47 11.47 0 0 0-1.39.11zm9.32 39.92c-10.95 1.51-22.56-3.56-29.31-11.95a22.66 22.66 0 0 0-4.94 8.75 7.22 7.22 0 0 0-.17 2.8c.44.6.92 1.21 1.49 1.87a27.62 27.62 0 0 0 13.27 8.44 28.7 28.7 0 0 0 7.16 1.08L52.3 55.55a13.76 13.76 0 0 0 .27-2.62 24.89 24.89 0 0 1-8.84 2.9zM15 37.25a65.6 65.6 0 0 1 8.46-6.85c-.2-.44-.39-.89-.56-1.35a12.61 12.61 0 0 1 1-11c.12-.19.26-.36.39-.55a15.2 15.2 0 0 0-6.29-.64 15.23 15.23 0 0 0-5.24 11.62 18.69 18.69 0 0 0 1.11 6.21A23.39 23.39 0 0 0 15 37.25zm11.76-9.54c.06.16.13.3.19.45a66.66 66.66 0 0 1 8.78-4.4A38.66 38.66 0 0 0 28.22 19a8.8 8.8 0 0 0-.87 1.14 8.66 8.66 0 0 0-.59 7.57zm16.03 9.35a11 11 0 0 0 3.82-1.23 50.77 50.77 0 0 0-7.44-9c-.49.17-1 .36-1.48.56a58.72 58.72 0 0 0-8.61 4.32 15.7 15.7 0 0 0 13.71 5.35zM15.52 12.51a31.86 31.86 0 0 1 8-3.32L6.3 0v20.73a31.58 31.58 0 0 1 9.22-8.22zm34.32 20.33a8.65 8.65 0 0 0 .6-7.58c-.09-.23-.19-.46-.29-.68a25.69 25.69 0 0 0-6.54.85A56.36 56.36 0 0 1 49.72 33z"/><path class="cls-1" d="M43.16 51.82a20.06 20.06 0 0 0 8.91-3.41 35.72 35.72 0 0 0-3.4-9.07 15.22 15.22 0 0 1-5.32 1.74 20 20 0 0 1-17.7-7.2 61.48 61.48 0 0 0-8.43 7c5.78 7.6 16.15 12.28 25.94 10.94zM12 40.37A24.85 24.85 0 0 1 10 36a21.32 21.32 0 0 1-.76-12.38 25.79 25.79 0 0 0-2 3.31c-.34.67-.63 1.3-.89 1.91v20.35A32.29 32.29 0 0 1 12 40.37zm45.87 8.32a17.2 17.2 0 0 1-1.34 1.36c.06.51.1 1 .13 1.5.42-.87.83-1.82 1.21-2.86zM7.65 59.91c-.5-.59-.93-1.14-1.35-1.69v21.93l18.7-10c-.68-.14-1.37-.31-2.07-.5a32 32 0 0 1-15.28-9.74zm55.73 6.99a5 5 0 1 1 5 4.86 4.94 4.94 0 0 1-5-4.86zm1 0a4.08 4.08 0 1 0 4.04-3.9 4 4 0 0 0-4.08 3.9zm6.59 2.73H70l-1.61-2.5h-1v2.5h-.83v-5.41H69a2.71 2.71 0 0 1 1.37.26 1.31 1.31 0 0 1 .63 1.16c0 1.07-.76 1.47-1.77 1.49zm-2.64-3.17c.79 0 1.87.14 1.87-.83 0-.7-.62-.79-1.33-.79h-1.49v1.62zm267.95.44a5 5 0 1 1 5 4.86 4.94 4.94 0 0 1-5-4.86zm1 0a4.08 4.08 0 1 0 4.04-3.9 4 4 0 0 0-4.08 3.9zm6.59 2.73h-1l-1.61-2.5h-1v2.5h-.83v-5.41h2.45a2.77 2.77 0 0 1 1.38.26 1.33 1.33 0 0 1 .62 1.16c0 1.07-.77 1.47-1.78 1.49zm-2.64-3.17c.79 0 1.87.14 1.87-.83 0-.7-.62-.79-1.32-.79h-1.46v1.62z"/></g></g></svg>