<svg xmlns="http://www.w3.org/2000/svg" width="24" height="24" viewBox="0 0 24 24">
  <path d="m7,11.53c0-.55.45-1,1-1h8c.55,0,1,.45,1,1s-.45,1-1,1h-8c-.55,0-1-.45-1-1Z"/>
  <path d="m7,14.53c0-.55.45-1,1-1h5.5c.55,0,1,.45,1,1s-.45,1-1,1h-5.5c-.55,0-1-.45-1-1Z"/>
  <path d="m17.25,8.03c-.14,0-.25.11-.25.25v1.5c0,.14.11.25.25.25h1.5c.14,0,.25-.11.25-.25v-1.5c0-.14-.11-.25-.25-.25h-1.5Z"/>
  <path d="m4,5.03c-1.1,0-2,.9-2,2v10c0,1.1.9,2,2,2h16c1.1,0,2-.9,2-2V7.03c0-1.1-.9-2-2-2H4Zm16,2H4v10h16V7.03Z" fill-rule="evenodd"/>
</svg>
