<svg xmlns="http://www.w3.org/2000/svg" width="24" height="24" viewBox="0 0 24 24">
  <path d="m15.47,7.28c.51.2,1.09-.05,1.3-.57.2-.51-.05-1.09-.57-1.3-2.22-.87-4.75-.34-6.43,1.34-1.69,1.69-2.21,4.21-1.34,6.43.15.39.53.64.93.64.12,0,.24-.02.36-.07.51-.2.77-.78.57-1.3-.58-1.48-.23-3.17.9-4.29,1.12-1.12,2.81-1.48,4.29-.9Zm4.43,14.31l-4.54-9.3c.4-.37.65-.89.65-1.47,0-1.1-.9-2-2-2s-2,.9-2,2c0,.58.25,1.1.65,1.47l-4.54,9.3c-.24.5-.04,1.1.46,1.34.14.07.29.1.44.1.37,0,.73-.21.9-.56l.77-1.58,5.78-1.78,1.64,3.35c.17.35.53.56.9.56.15,0,.3-.03.44-.1.5-.24.7-.84.46-1.34Zm-8.62-1.93l1.27-2.61,3.05,1.29-4.32,1.32Zm1.7-3.48l1.03-2.1,1.61,3.3-2.64-1.2Zm-4.63-10.84c1.89-1.89,4.59-2.71,7.22-2.19.54.11,1.07-.24,1.18-.79s-.25-1.07-.79-1.18c-3.29-.65-6.66.37-9.02,2.74-2.36,2.36-3.39,5.74-2.74,9.02.09.48.51.81.98.81.06,0,.13,0,.2-.02.54-.11.89-.63.79-1.18-.52-2.63.3-5.33,2.19-7.22Z"/>
</svg>
