<svg xmlns="http://www.w3.org/2000/svg" width="24" height="24" fill="currentColor" viewBox="0 0 24 24">
  <path d="m4.58,7.08h1.35v1.35c0,.32.26.58.58.58s.58-.26.58-.58v-1.35h1.35c.32,0,.58-.26.58-.58s-.26-.58-.58-.58h-1.35v-1.35c0-.32-.26-.58-.58-.58s-.58.26-.58.58v1.35h-1.35c-.32,0-.58.26-.58.58s.26.58.58.58Zm.42,12.84c.19,0,.38-.07.53-.22l3.02-3.02c.29-.29.29-.77,0-1.06-.29-.29-.77-.29-1.06,0l-3.02,3.02c-.29.29-.29.77,0,1.06.15.15.34.22.53.22Zm-3,.08c0,1.1.9,2,2,2h7v-9H2v7Zm1.5-5.5h6v6h-5.5c-.28,0-.5-.22-.5-.5v-5.5Zm9.5,7.5h7c1.1,0,2-.9,2-2v-7h-9v9Zm1.5-7.5h6v5.5c0,.28-.22.5-.5.5h-5.5v-6Zm5.15-9.98c-.25-.25-.66-.25-.91,0l-1.07,1.07-1.07-1.07c-.25-.25-.66-.25-.91,0s-.25.66,0,.91l1.07,1.07-1.07,1.07c-.25.25-.25.66,0,.91.13.13.29.19.46.19s.33-.06.46-.19l1.07-1.07,1.07,1.07c.13.13.29.19.46.19s.33-.06.46-.19c.25-.25.25-.66,0-.91l-1.07-1.07,1.07-1.07c.25-.25.25-.66,0-.91Zm.35-2.52h-7v9h9v-7c0-1.1-.9-2-2-2Zm.5,7.5h-6V3.5h5.5c.28,0,.5.22.5.5v5.5ZM2,4v7h9V2h-7c-1.1,0-2,.9-2,2Zm7.5,5.5H3.5v-5.5c0-.28.22-.5.5-.5h5.5v6Zm6.25,7.25h3.6c.41,0,.75-.34.75-.75s-.34-.75-.75-.75h-3.6c-.41,0-.75.34-.75.75s.34.75.75.75Zm3.6,1.5h-3.6c-.41,0-.75.34-.75.75s.34.75.75.75h3.6c.41,0,.75-.34.75-.75s-.34-.75-.75-.75Z"/>
</svg>
