<svg xmlns="http://www.w3.org/2000/svg" width="24" height="24" fill="currentColor" viewBox="0 0 24 24">
  <path d="m16,14.3c1.11,0,2-.9,2-2v-7.03c0-1.11-.9-2-2-2H4c-1.11,0-2,.9-2,2v7.07c0,1.09.88,1.97,1.97,1.97v.48s0,2.9,0,2.9h0s0,0,0,0c0,.41.33.73.73.73.2,0,.38-.08.51-.21h0s3.91-3.91,3.91-3.91h6.86Zm-10.03.33v-2.33h-.97c-.55,0-1-.45-1-1v-5.03c0-.55.45-1,1-1h9.99c.55,0,1,.45,1,1v5.03c0,.55-.45,1-1,1h-6.69l-2.33,2.33Z"/>
  <path d="m14,10.04c.69,0,1.25-.56,1.25-1.25s-.56-1.25-1.25-1.25-1.25.56-1.25,1.25.56,1.25,1.25,1.25Zm-3.84,0c.69,0,1.25-.56,1.25-1.25s-.56-1.25-1.25-1.25-1.25.56-1.25,1.25.56,1.25,1.25,1.25Zm-3.84-2.5c-.69,0-1.25.56-1.25,1.25s.56,1.25,1.25,1.25,1.25-.56,1.25-1.25-.56-1.25-1.25-1.25Zm13.77-.54h-.03v8.04c0,.55-.45,1-1,1h-9.08l-1.96,1.96h6.88l3.9,3.9h0c.13.13.31.21.51.21.4,0,.73-.33.73-.73,0,0,0,0,0,0h0v-3.37c1.09,0,1.96-.88,1.96-1.96v-7.12c0-1.06-.86-1.91-1.91-1.91Z"/>
</svg>
