<svg xmlns="http://www.w3.org/2000/svg" width="24" height="24" fill="currentColor" viewBox="0 0 24 24">
  <path d="M11.66,5.23l-.71,.71c-.39,.39-.39,1.03,0,1.42l.71,.7L3.94,15.77l-1.74,4.29c-.08,.19-.03,.4,.11,.54l1.03,1.03c.14,.14,.35,.19,.54,.11l4.29-1.74,7.71-7.71,.7,.71c.39,.39,1.03,.39,1.42,0l.71-.71c.39-.39,.39-1.02,0-1.41,0,0-.62-.69-.6-.71l2.83-2.83c1.17-1.17,1.17-3.07,0-4.24s-3.07-1.17-4.24,0l-2.83,2.83s-.81-.7-.81-.7c-.39-.39-1.02-.39-1.41,0Zm3.64,2.11l2.83-2.83c.39-.39,1.02-.39,1.41,0s.39,1.02,0,1.41l-2.83,2.83s-1.43-1.39-1.41-1.41ZM5.64,16.9l7.44-7.43,1.4,1.4-7.43,7.44-2.47,1.06,1.06-2.47Z"/>
</svg>
