<svg xmlns="http://www.w3.org/2000/svg" width="24" height="24" viewBox="0 0 24 24">
  <path d="m12,10c-.83,0-1.5.67-1.5,1.5s.67,1.5,1.5,1.5,1.5-.67,1.5-1.5-.67-1.5-1.5-1.5Zm-5,0c-.83,0-1.5.67-1.5,1.5s.67,1.5,1.5,1.5,1.5-.67,1.5-1.5-.67-1.5-1.5-1.5Zm10,0c-.83,0-1.5.67-1.5,1.5s.67,1.5,1.5,1.5,1.5-.67,1.5-1.5-.67-1.5-1.5-1.5Zm-5.02-7C6.47,3,2,6.91,2,11.74c0,2.2.93,4.21,2.46,5.74-.11.99-.33,1.96-.65,2.89h0c-.09.28-.19.55-.3.81-.1.23.09.49.34.45.29-.05.58-.1.86-.16h.02c2.28-.46,3.68-1.06,4.33-1.38.96.25,1.94.38,2.93.38,5.51,0,9.98-3.91,9.98-8.74S17.5,3,11.98,3Zm0,15.47c-.82,0-1.63-.11-2.41-.31l-.74-.2-.68.35c-.35.18-.97.45-1.91.73.09-.45.16-.9.21-1.35l.1-.95-.68-.68c-1.21-1.21-1.87-2.75-1.87-4.33,0-3.71,3.58-6.74,7.98-6.74s7.98,3.02,7.98,6.74-3.58,6.74-7.98,6.74Z"/>
</svg>
