<svg xmlns="http://www.w3.org/2000/svg" width="24" height="24" fill="currentColor" viewBox="0 0 24 24">
  <path d="m7.5,8c-.83,0-1.5.67-1.5,1.5s.67,1.5,1.5,1.5,1.5-.67,1.5-1.5-.67-1.5-1.5-1.5Zm12.51-5H4.01c-1.1,0-2,.9-2,2v8.98c0,1.1.9,2,2,2h1v4.02c0,.55.45,1,1,1h.09c.27,0,.52-.11.71-.29l4.73-4.73h8.48c1.1,0,2-.9,2-2V5c0-1.1-.9-2-2-2Zm0,9.98c0,.55-.45,1-1,1h-8.31l-3.69,3.69v-3.69h-2c-.55,0-1-.45-1-1v-6.98c0-.55.45-1,1-1h14c.55,0,1,.45,1,1v6.98Zm-8.01-4.98c-.83,0-1.5.67-1.5,1.5s.67,1.5,1.5,1.5,1.5-.67,1.5-1.5-.67-1.5-1.5-1.5Zm4.5,0c-.83,0-1.5.67-1.5,1.5s.67,1.5,1.5,1.5,1.5-.67,1.5-1.5-.67-1.5-1.5-1.5Z"/>
</svg>
