<svg xmlns="http://www.w3.org/2000/svg" width="24" height="24" fill="currentColor" viewBox="0 0 24 24">
  <path d="m12,20.41c-.73,0-1.43-.29-1.94-.81l-5.66-5.66c-.52-.52-.81-1.21-.81-1.94s.29-1.43.81-1.94l.89-.89c-.06-.05-.13-.11-.19-.17-.52-.52-.81-1.21-.81-1.94s.29-1.43.81-1.94c1.04-1.04,2.85-1.04,3.89,0,.06.06.12.12.17.19l.89-.89c1.04-1.04,2.85-1.04,3.89,0l2.53,2.53-1.26.33c-.36.09-.62.3-.79.63-.21.41-.18.93.08,1.29h0c.22.31.55.5.92.53.36.03.73-.1.99-.36.15-.15.26-.34.32-.56l.33-1.26,2.53,2.53c.52.52.81,1.21.81,1.94s-.29,1.43-.81,1.94l-5.66,5.66c-.52.52-1.21.81-1.94.81ZM7.05,5.8c-.33,0-.65.13-.88.37s-.37.55-.37.88.13.65.37.88c.15.15.34.26.56.32l1.26.33-2.53,2.53c-.24.24-.37.55-.37.88s.13.65.37.88l5.66,5.66c.47.47,1.3.47,1.77,0l5.66-5.66c.24-.24.37-.55.37-.88s-.13-.65-.37-.88l-.89-.89c-.05.06-.11.13-.17.19-.57.57-1.36.87-2.17.8-.81-.07-1.54-.49-2.02-1.15-.59-.83-.67-1.95-.19-2.86.17-.33.4-.61.68-.84l-.89-.89c-.47-.47-1.3-.47-1.77,0l-2.53,2.53-.33-1.26c-.06-.22-.17-.41-.32-.56-.24-.24-.55-.37-.88-.37Z"/>
</svg>
