<svg xmlns="http://www.w3.org/2000/svg" width="24" height="24" fill="currentColor" viewBox="0 0 24 24">
  <path d="m18.19,17.13l-2.35-2.35c.57-.78.91-1.74.91-2.78,0-2.62-2.13-4.75-4.75-4.75-1.04,0-1.99.35-2.78.91l-2.35-2.35c-.29-.29-.77-.29-1.06,0s-.29.77,0,1.06l2.35,2.35c-.57.78-.91,1.74-.91,2.78,0,2.62,2.13,4.75,4.75,4.75,1.04,0,1.99-.35,2.78-.91l2.35,2.35c.15.15.34.22.53.22s.38-.07.53-.22c.29-.29.29-.77,0-1.06Zm-6.19-8.38c1.79,0,3.25,1.46,3.25,3.25,0,.62-.19,1.2-.49,1.7l-4.46-4.46c.5-.31,1.07-.49,1.7-.49Zm-.83,6.38c-.39-.11-.76-.28-1.07-.51l1.73-1.73.79.79-1.45,1.45Zm-.05-2.95l-1.73,1.73c-.23-.32-.41-.68-.51-1.07l1.45-1.45.79.79Zm-1.5-1.5l-.81.81c.07-.43.22-.83.44-1.19l.37.37Zm2.89,4.52l.81-.81.37.37c-.36.22-.76.37-1.19.44Z"/>
</svg>
