<svg xmlns="http://www.w3.org/2000/svg" width="24" height="24" viewBox="0 0 24 24">
  <path d="m3.5,4v2h-.5c-.28,0-.5.22-.5.5s.22.5.5.5h.5v5h-.5c-.28,0-.5.22-.5.5s.22.5.5.5h.5v5h-.5c-.28,0-.5.22-.5.5s.22.5.5.5h.5v1c0,.74.4,1.39,1,1.73.29.17.64.27,1,.27V2c-.36,0-.71.1-1,.27-.6.35-1,.99-1,1.73Zm16-2H6.5v20h13c1.1,0,2-.9,2-2V4c0-1.1-.9-2-2-2Zm0,18h-11V4h11v16Zm-5.5-8.25c1.31,0,2.38-1.07,2.38-2.38s-1.07-2.38-2.38-2.38-2.38,1.07-2.38,2.38,1.07,2.38,2.38,2.38Zm0-3.75c.76,0,1.38.62,1.38,1.38s-.62,1.38-1.38,1.38-1.38-.62-1.38-1.38.62-1.38,1.38-1.38Zm-3.77,8.5h7.53c.45,0,.84-.3.96-.72.14-.46.28-1.01.28-1.28,0-.5-.22-.78-.99-1.14h0c-.77-.36-2.19-.87-4.01-.87-1.81,0-3.24.51-4.01.87s-.99.64-.99,1.14c0,.27.15.82.28,1.28.13.43.52.72.96.72Zm.18-2.23c.63-.29,1.93-.78,3.59-.78s2.82.42,3.59.77c.24.11.36.19.41.23-.01.14-.07.45-.23,1h0s-7.53,0-7.53,0c-.2-.71-.23-.94-.24-1,.05-.04.17-.12.41-.23Z"/>
</svg>
