<svg xmlns="http://www.w3.org/2000/svg" width="24" height="24" fill="currentColor" viewBox="0 0 24 24">
  <path d="m13.67,13h4.33c.55,0,1-.45,1-1s-.45-1-1-1h-4.33c-.55,0-1,.45-1,1s.45,1,1,1Zm0-4h4.33c.55,0,1-.45,1-1s-.45-1-1-1h-4.33c-.55,0-1,.45-1,1s.45,1,1,1Zm-2.67,1c0-1.4-.96-2.56-2.25-2.89v2.58l1.83,1.83c.26-.45.42-.96.42-1.52Zm-5,7h12c.55,0,1-.45,1-1s-.45-1-1-1H6c-.55,0-1,.45-1,1s.45,1,1,1Zm1.33-4.08c.81.19,1.57.02,2.19-.35l-2.27-2.27v-3.2c-1.43.37-2.45,1.75-2.22,3.34.17,1.2,1.12,2.2,2.3,2.47Zm12.67-8.92H4c-1.1,0-2,.9-2,2v12c0,1.1.9,2,2,2h16c1.1,0,2-.9,2-2V6c0-1.1-.9-2-2-2Zm0,14H4V6h16v12Z"/>
</svg>
