<svg xmlns="http://www.w3.org/2000/svg" width="24" height="24" fill="currentColor" viewBox="0 0 24 24">
  <path d="m14,9.5c-.28,0-.5.22-.5.5v8c0,.28.22.5.5.5s.5-.22.5-.5v-8c0-.28-.22-.5-.5-.5Zm-4,0c-.28,0-.5.22-.5.5v8c0,.28.22.5.5.5s.5-.22.5-.5v-8c0-.28-.22-.5-.5-.5Zm8-5.5h-2.09c-.27,0-.52-.11-.71-.29l-.41-.41c-.19-.19-.44-.29-.71-.29h-4.17c-.27,0-.52.11-.71.29l-.41.41c-.19.19-.44.29-.71.29h-2.09c-.55,0-1,.45-1,1s.45,1,1,1h12c.55,0,1-.45,1-1s-.45-1-1-1Zm-12,15c0,1.1.9,2,2,2h8c1.1,0,2-.9,2-2V7H6v12Zm2-10h8v10h-8v-10Z"/>
</svg>
