<svg xmlns="http://www.w3.org/2000/svg" width="24" height="24" fill="currentColor" viewBox="0 0 24 24">
  <path d="m8.96,15.27h-1.85l-.92,1.76-1-1.76h-2.05l1.92,3.16-2.06,3.5h1.9l1.11-2.03,1.18,2.03h2.01l-2.09-3.48,1.85-3.18Zm3.02,0h-1.8v6.66h4.6v-1.45h-2.8v-5.21Zm6.47,2.58c-.66-.16-1.18-.32-1.18-.76,0-.32.26-.49.77-.49.58,0,1.22.39,1.59.84l1.21-.99c-.53-.65-1.38-1.3-2.79-1.3-1.51,0-2.54.75-2.54,2.11,0,1.51,1.45,1.79,2.54,2.07.66.16,1.19.32,1.19.75s-.41.58-.96.58c-.69,0-1.35-.37-1.75-1.01l-1.33.83c.57.91,1.48,1.59,3,1.59,2.05,0,2.8-1.05,2.8-2.12,0-1.49-1.46-1.83-2.55-2.09Z"/>
  <path d="m19.71,7.64l-5.41-5.41c-.19-.19-.44-.29-.71-.29h-7.59c-1.1,0-2,.9-2,2v9c0,.55.45,1,1,1s1-.45,1-1V3.94h6v5c0,.55.45,1,1,1h5v3c0,.55.45,1,1,1s1-.45,1-1v-4.59c0-.27-.11-.52-.29-.71Zm-5.71.36v-3l3,3h-3Z"/>
</svg>
