<svg xmlns="http://www.w3.org/2000/svg" width="24" height="24" fill="currentColor" viewBox="0 0 24 24">
  <path d="m5,13.94c.55,0,1-.45,1-1V3.94h6v5c0,.55.45,1,1,1h5v3c0,.55.45,1,1,1s1-.45,1-1v-4.59c0-.27-.11-.52-.29-.71l-5.41-5.41c-.19-.19-.44-.29-.71-.29h-7.59c-1.1,0-2,.9-2,2v9c0,.55.45,1,1,1ZM14,5l3,3h-3v-3ZM4.8,15.27h-1.8v6.66h4.6v-1.45h-2.8v-5.21Zm6.34-.13c-1.61,0-3.28,1.02-3.28,3.46s1.67,3.46,3.28,3.46,3.27-1.02,3.27-3.46-1.67-3.46-3.27-3.46Zm0,5.47c-.95,0-1.48-.79-1.48-2.02s.53-1.97,1.48-1.97,1.47.75,1.47,1.97-.53,2.02-1.47,2.02Zm7.17-2.12v1.31h.97c-.19.49-.59.8-1.17.8-.48,0-1.4-.21-1.4-2.07,0-1.49.66-1.92,1.31-1.92.52,0,.91.29,1.17,1.14l1.65-.46c-.47-1.75-1.55-2.17-2.81-2.17-1.98,0-3.13,1.34-3.13,3.43s.86,3.48,2.98,3.48c1,0,1.58-.68,1.67-1.01h.02v.88h1.41v-3.43h-2.68Z"/>
</svg>
