<svg xmlns="http://www.w3.org/2000/svg" width="24" height="24" fill="currentColor" viewBox="0 0 24 24">
  <path d="m17.5,13c-2.76,0-5,2.24-5,5s2.24,5,5,5,5-2.24,5-5-2.24-5-5-5Zm2.25,5.75h-1.5v1.5c0,.41-.34.75-.75.75s-.75-.34-.75-.75v-1.5h-1.5c-.41,0-.75-.34-.75-.75s.34-.75.75-.75h1.5v-1.5c0-.41.34-.75.75-.75s.75.34.75.75v1.5h1.5c.41,0,.75.34.75.75s-.34.75-.75.75Zm-14.25,1.25V4h6v5c0,.55.45,1,1,1h5v1.5c.7,0,1.37.11,2,.32v-3.4c0-.27-.11-.52-.29-.71l-5.12-5.12c-.38-.38-.88-.59-1.41-.59h-7.17c-1.1,0-2,.9-2,2v16c0,1.1.9,2,2,2h6.88c-.46-.59-.83-1.27-1.07-2h-5.82ZM13.5,5l3,3h-3v-3Z"/>
</svg>
