<svg xmlns="http://www.w3.org/2000/svg" width="24" height="24" fill="currentColor" viewBox="0 0 24 24">
  <g/>
  <path d="m20,16.5h-.25v-6.5h-7v-2.5h2.25c.83,0,1.5-.67,1.5-1.5v-2c0-.83-.67-1.5-1.5-1.5h-6c-.83,0-1.5.67-1.5,1.5v2c0,.83.67,1.5,1.5,1.5h2.25v2.5h-7v6.5h-.25c-.83,0-1.5.67-1.5,1.5v2c0,.83.67,1.5,1.5,1.5h2c.83,0,1.5-.67,1.5-1.5v-2c0-.83-.67-1.5-1.5-1.5h-.25v-5h12.5v5h-.25c-.83,0-1.5.67-1.5,1.5v.25h-2.13c-.32-1.01-1.26-1.75-2.37-1.75-1.38,0-2.5,1.12-2.5,2.5s1.12,2.5,2.5,2.5c1.12,0,2.05-.74,2.37-1.75h2.13v.25c0,.83.67,1.5,1.5,1.5h2c.83,0,1.5-.67,1.5-1.5v-2c0-.83-.67-1.5-1.5-1.5ZM8.5,6v-2c0-.28.22-.5.5-.5h6c.28,0,.5.22.5.5v2c0,.28-.22.5-.5.5h-6c-.28,0-.5-.22-.5-.5Zm-2,12v2c0,.28-.22.5-.5.5h-2c-.28,0-.5-.22-.5-.5v-2c0-.28.22-.5.5-.5h2c.28,0,.5.22.5.5Zm5.5,2.5c-.83,0-1.5-.67-1.5-1.5s.67-1.5,1.5-1.5,1.5.67,1.5,1.5-.67,1.5-1.5,1.5Zm8.5-.5c0,.28-.22.5-.5.5h-2c-.28,0-.5-.22-.5-.5v-2c0-.28.22-.5.5-.5h2c.28,0,.5.22.5.5v2Z"/>
</svg>
