<svg xmlns="http://www.w3.org/2000/svg" width="24" height="24" fill="currentColor" viewBox="0 0 24 24">
  <path d="m7.21,11.5h7.95c.87-.92,2.08-1.5,3.44-1.5.21,0,.41.01.62.04.9.12,1.7.5,2.36,1.06-.19-.89-.97-1.6-1.95-1.6H7.21c-.97,0-1.8.7-1.97,1.65l-1.21,6.85h-.03V6h5l2,2h10c.55,0,1-.45,1-1s-.45-1-1-1h-9l-1.71-1.71c-.19-.19-.44-.29-.71-.29h-5.59c-1.1,0-2,.9-2,2v12.32c0,.93.75,1.68,1.68,1.68h8.52v-2h-6.14l1.15-6.5Zm14.97,4.31h-.82v-.92c0-1.4-.99-2.68-2.38-2.86-.13-.02-.25-.02-.37-.02-1.52,0-2.75,1.23-2.75,2.75v1.06h-.65c-.55,0-1,.45-1,1v5.37c0,.46.37.82.82.82h7.15c.46,0,.82-.37.82-.82v-5.54c0-.46-.37-.82-.82-.82Zm-3.57,4.45c-.61,0-1.1-.49-1.1-1.1s.49-1.1,1.1-1.1,1.1.49,1.1,1.1-.49,1.1-1.1,1.1Zm1.64-4.45h-3.3v-.96c0-.81.55-1.57,1.35-1.72.1-.02.2-.03.3-.03.91,0,1.65.74,1.65,1.65v1.06Z"/>
  <rect x="-21.96" y="-12.69" width="0" height="0" fill="none"/>
</svg>
