<svg xmlns="http://www.w3.org/2000/svg" width="24" height="24" fill="currentColor" viewBox="0 0 24 24">
  <path d="m6.06,18l1.15-6.5h8.21c.8-.32,1.67-.5,2.58-.5,1.31,0,2.53.37,3.58.99l.03-.15c.22-1.22-.73-2.35-1.97-2.35H7.21c-.97,0-1.8.7-1.97,1.65l-1.21,6.85h-.03V6h5l2,2h10c.55,0,1-.45,1-1s-.45-1-1-1h-9l-1.71-1.71c-.19-.19-.44-.29-.71-.29h-5.59c-1.1,0-2,.9-2,2v12.32c0,.93.75,1.68,1.68,1.68h7.62c-.19-.63-.29-1.3-.29-2h-4.94Zm11.94-5c-2.76,0-5,2.24-5,5s2.24,5,5,5,5-2.24,5-5-2.24-5-5-5Zm2.25,5.75h-1.5v1.5c0,.41-.34.75-.75.75s-.75-.34-.75-.75v-1.5h-1.5c-.41,0-.75-.34-.75-.75s.34-.75.75-.75h1.5v-1.5c0-.41.34-.75.75-.75s.75.34.75.75v1.5h1.5c.41,0,.75.34.75.75s-.34.75-.75.75Z"/>
</svg>
