<svg xmlns="http://www.w3.org/2000/svg" width="24" height="24" fill="currentColor" viewBox="0 0 24 24">
  <path d="m7.21,11.5h7.95c.87-.92,2.08-1.5,3.44-1.5.21,0,.41.01.62.04.9.12,1.7.5,2.36,1.06-.19-.89-.97-1.6-1.95-1.6H7.21c-.97,0-1.8.7-1.97,1.65l-1.21,6.85h-.03V6h5l2,2h10c.55,0,1-.45,1-1s-.45-1-1-1h-9l-1.71-1.71c-.19-.19-.44-.29-.71-.29h-5.59c-1.1,0-2,.9-2,2v12.32c0,.93.75,1.68,1.68,1.68h8.52v-2h-6.14l1.15-6.5Zm14.79,4.31h-.65v-.94c0-.67-.2-1.34-.62-1.85-.61-.74-1.41-1.01-2.13-1.01-1.26,0-2.32.85-2.64,2-.1.35.17.7.53.7.25,0,.46-.18.53-.42.2-.68.83-1.18,1.58-1.18.1,0,.2,0,.3.03.8.14,1.35.9,1.35,1.71v.97h-3.3s-1.1,0-1.1,0h0s-.65,0-.65,0c-.55,0-1,.45-1,1v5.19c0,.55.45,1,1,1h6.8c.55,0,1-.45,1-1v-5.19c0-.55-.45-1-1-1Zm-3.39,4.45c-.61,0-1.1-.49-1.1-1.1s.49-1.1,1.1-1.1,1.1.49,1.1,1.1-.49,1.1-1.1,1.1Z"/>
</svg>
