<svg xmlns="http://www.w3.org/2000/svg" width="24" height="24" fill="currentColor" viewBox="0 0 24 24">
  <path d="m11.39,5.05c-1.55.24-2.8,1.36-3.23,2.83-.16.56.24,1.12.82,1.12h.3c.39,0,.7-.28.82-.65.33-.95,1.36-1.58,2.47-1.27.7.2,1.26.81,1.39,1.53.13.7-.09,1.36-.55,1.8l-1.24,1.26c-.42.42-.75.94-.95,1.52-.14.41-.22.85-.22,1.31v.5h2c0-.46.05-.82.13-1.14.18-.72.54-1.18,1.04-1.69l.9-.92c1.02-1.02,1.37-2.77.19-4.4-.9-1.25-2.35-2.04-3.87-1.8Zm.61,11.95c-.55,0-1,.45-1,1s.45,1,1,1,1-.45,1-1-.45-1-1-1Zm0-15C6.48,2,2,6.48,2,12s4.48,10,10,10,10-4.48,10-10S17.52,2,12,2Zm0,18c-4.41,0-8-3.59-8-8S7.59,4,12,4s8,3.59,8,8-3.59,8-8,8Z"/>
</svg>
