<svg xmlns="http://www.w3.org/2000/svg" width="24" height="24" fill="currentColor" viewBox="0 0 24 24">
 <path fill="#252a2e" d="M11.95 5.75c-.17 0-.34.01-.51.04A3.692 3.692 0 0 0 8.47 8.4c-.09.31-.03.64.16.89s.47.39.78.39h.26c.43 0 .8-.29.94-.73a1.467 1.467 0 0 1 1.81-.93c.51.15.92.6 1.01 1.12.09.51-.05.99-.4 1.32l-1.07 1.09c-.39.39-.69.87-.87 1.4-.13.39-.2.8-.2 1.21v.68h2.22v-.25c0-.34.03-.63.1-.92.14-.55.41-.91.83-1.34l.77-.79c.91-.91 1.32-2.53.19-4.1-.76-1.05-1.9-1.68-3.06-1.68Zm.05 10a1.25 1.25 0 1 0 0 2.5 1.25 1.25 0 0 0 0-2.5ZM12 2C6.48 2 2 6.48 2 12s4.48 10 10 10 10-4.48 10-10S17.52 2 12 2Zm0 18c-4.41 0-8-3.59-8-8s3.59-8 8-8 8 3.59 8 8-3.59 8-8 8Z"/>
</svg>
