<svg xmlns="http://www.w3.org/2000/svg" width="24" height="24" fill="currentColor" viewBox="0 0 24 24">
  <path d="m17.41,15.41l-3.41-3.41,3.41-3.43c.37-.37.58-.88.58-1.41v-3.16c.01-1.1-.89-2-1.99-2h-8c-1.1,0-2,.9-2,2v3.16c0,.53.21,1.04.58,1.42l3.42,3.42-3.41,3.4c-.38.38-.59.89-.59,1.42v3.18c0,1.1.9,2,2,2h8c1.1,0,2-.9,2-2v-3.18c-.01-.53-.22-1.03-.59-1.41Zm-9.12-7.62c-.18-.18-.29-.44-.29-.7v-2.09c0-.55.45-1,1-1h6c.55,0,1,.45,1,1v2.09c0,.27-.11.52-.29.71l-3.71,3.7-3.71-3.71Zm1.21,7.21l2.5-2.5,2.5,2.5h-5Z"/>
</svg>
