<svg xmlns="http://www.w3.org/2000/svg" width="24" height="24" viewBox="0 0 24 24">
  <path d="m19,19c-1.65,0-3-1.35-3-3v-1h-2.68c-1.14,2.42-3.6,4-6.32,4-2.12,0-4.1-.95-5.44-2.6C.22,14.76-.29,12.6.16,10.49c.56-2.66,2.73-4.82,5.41-5.35,3.24-.64,6.38.96,7.75,3.86h7.68c1.65,0,3,1.35,3,3,0,1.3-.84,2.42-2,2.83v1.17c0,1.65-1.35,3-3,3Zm-7.06-6h6.06v3c0,.55.45,1,1,1s1-.45,1-1v-3h1c.55,0,1-.45,1-1s-.45-1-1-1h-9.06l-.24-.67c-.84-2.37-3.25-3.73-5.74-3.23-1.9.38-3.45,1.91-3.85,3.8-.32,1.52.04,3.06,1,4.24.96,1.18,2.37,1.86,3.89,1.86,2.11,0,4.01-1.34,4.71-3.33l.24-.67Zm-4.94,2c-1.65,0-3-1.35-3-3s1.35-3,3-3,3,1.35,3,3-1.35,3-3,3Zm0-4c-.55,0-1,.45-1,1s.45,1,1,1,1-.45,1-1-.45-1-1-1Z"/>
</svg>
