<svg xmlns="http://www.w3.org/2000/svg" width="24" height="24" fill="currentColor" viewBox="0 0 24 24">
  <path d="m20.46,11.14h0c.65.39.65,1.33,0,1.72l-7.43,4.43c-.63.38-1.42.38-2.05,0l-7.43-4.43c-.65-.39-.65-1.33,0-1.72h0c.28-.17.62-.17.9,0l6.53,3.89c.63.38,1.42.38,2.05,0l6.53-3.89c.28-.17.62-.17.9,0Zm-7.43,7.89c-.63.38-1.42.38-2.05,0l-6.53-3.89c-.28-.17-.62-.17-.9,0h0c-.65.39-.65,1.33,0,1.72l7.43,4.43c.63.38,1.42.38,2.05,0l7.43-4.43c.65-.39.65-1.33,0-1.72h0c-.28-.17-.62-.17-.9,0l-6.53,3.89Zm7.43-11.94l-7.43-4.43c-.63-.38-1.42-.38-2.05,0L3.54,7.09c-.33.2-.49.54-.49.88,0,.34.15.68.49.88l7.43,4.43c.63.38,1.42.38,2.05,0l7.43-4.43c.33-.2.49-.54.49-.88,0-.34-.15-.68-.49-.88Zm-9.48,3.94l-5.13-3.06,5.13-3.06c.63-.38,1.42-.38,2.05,0l5.13,3.06-5.13,3.06c-.63.38-1.42.38-2.05,0Z"/>
</svg>
