<svg xmlns="http://www.w3.org/2000/svg" width="24" height="24" fill="currentColor" viewBox="0 0 24 24">
  <path d="m4,10h-1.5c-.55,0-1,.45-1,1h0c0,.55.45,1,1,1h1.5c.55,0,1-.45,1-1h0c0-.55-.45-1-1-1Zm8-5.5h0c.55,0,1-.45,1-1v-1.5c0-.55-.45-1-1-1h0c-.55,0-1,.45-1,1v1.5c0,.55.45,1,1,1Zm-4.95,1.55c.39-.39.39-1.02,0-1.41l-1.06-1.06c-.39-.39-1.02-.39-1.41,0-.39.39-.39,1.02,0,1.41l1.06,1.06c.39.39,1.02.39,1.41,0Zm4.95.45c-3.5,0-6.34,2.85-6.34,6.34,0,1.69.68,3.3,1.86,4.48v.09c0,.67.25,1.28.66,1.74-.04.19-.07.38-.07.59v.62c0,1.45,1.18,2.62,2.62,2.62h2.5c1.45,0,2.62-1.18,2.62-2.62v-.62c0-.19-.02-.38-.06-.56.43-.47.69-1.09.69-1.77v-.09c1.18-1.18,1.86-2.79,1.86-4.48,0-3.5-2.85-6.34-6.34-6.34Zm1.86,13.88c0,.34-.28.62-.62.62h-2.5c-.34,0-.62-.28-.62-.62v-.62c0-.34.28-.62.62-.62h2.5c.34,0,.62.28.62.62v.62Zm.62-3.97v1.02c0,.34-.28.62-.62.62h-3.72c-.34,0-.62-.28-.62-.62v-1.02c-1.12-.79-1.86-2.09-1.86-3.56,0-2.4,1.95-4.34,4.34-4.34s4.34,1.95,4.34,4.34c0,1.47-.74,2.78-1.86,3.56Zm7.02-6.41h-1.5c-.55,0-1,.45-1,1h0c0,.55.45,1,1,1h1.5c.55,0,1-.45,1-1h0c0-.55-.45-1-1-1Zm-2.08-6.42c-.39-.39-1.02-.39-1.41,0l-1.06,1.06c-.39.39-.39,1.02,0,1.41.39.39,1.02.39,1.41,0l1.06-1.06c.39-.39.39-1.02,0-1.41Z"/>
</svg>
