<svg xmlns="http://www.w3.org/2000/svg" width="24" height="24" fill="currentColor" viewBox="0 0 24 24">
  <path d="m12,2.1c-4.14,0-7.5,3.36-7.5,7.5,0,2.08.86,4.04,2.35,5.45v.34c0,.81.35,1.54.9,2.05-.09.28-.15.58-.15.89v.79c0,1.54,1.25,2.79,2.79,2.79h3.16c1.54,0,2.79-1.25,2.79-2.79v-.79c0-.3-.05-.6-.14-.87.57-.51.93-1.25.93-2.08v-.34c1.49-1.41,2.35-3.38,2.35-5.45,0-4.14-3.36-7.5-7.5-7.5Zm2.35,17.03c0,.44-.35.79-.79.79h-3.16c-.44,0-.79-.35-.79-.79v-.79c0-.44.35-.79.79-.79h3.16c.44,0,.79.35.79.79v.79Zm.79-5.03v1.29c0,.44-.35.79-.79.79h-4.71c-.44,0-.79-.35-.79-.79v-1.29c-1.42-.99-2.35-2.64-2.35-4.51,0-3.04,2.46-5.5,5.5-5.5s5.5,2.46,5.5,5.5c0,1.87-.93,3.51-2.35,4.51Z"/>
</svg>
