<svg xmlns="http://www.w3.org/2000/svg" width="24" height="24" viewBox="0 0 24 24">
  <path d="m9.91,15.11l1.26-1.58-1.56-1.25-1.26,1.58c-.34.43-.27,1.06.16,1.41h0c.43.34,1.06.27,1.41-.16Zm.39,2.87c-1.19,1.49-3.49,1.59-4.8.06-.97-1.14-.91-2.85.03-4.02l1.83-2.29c.33-.41.26-1.01-.15-1.34h0c-.41-.33-1.01-.26-1.34.15l-1.77,2.21c-1.63,2.04-1.59,5.05.28,6.87,2.15,2.08,5.58,1.82,7.4-.46l1.9-2.38c.33-.41.26-1.01-.15-1.34h0c-.41-.33-1.01-.26-1.34.15l-1.9,2.38Zm9.45-13.04c-1.61-2.06-4.6-2.41-6.8-1l-2.39,1.52c-.44.28-.57.87-.29,1.31h0c.28.44.87.57,1.31.29l2.47-1.58c1.26-.81,2.97-.69,4,.39,1.39,1.46,1.05,3.74-.56,4.77l-2.57,1.64c-.44.28-.57.87-.29,1.31h0c.28.44.87.57,1.31.29l2.57-1.64c2.46-1.57,3.08-4.95,1.24-7.31Zm-4.77,3.63h0c-.3-.47-.92-.6-1.38-.3l-1.7,1.09,1.08,1.69,1.7-1.09c.47-.3.6-.92.3-1.38Z"/>
</svg>
