<svg xmlns="http://www.w3.org/2000/svg" width="24" height="24" fill="currentColor" viewBox="0 0 24 24">
  <path d="m21.66,11.25c-.63-1.9-2.38-3.21-4.38-3.27-2.58.03-4.65,2.14-4.62,4.72,0,.01,0,.02,0,.04-.01,2.07,1.31,3.91,3.27,4.56l.93,4.16c.07.2.25.3.42.3s.35-.1.42-.3l.93-4.16c2.5-.83,3.86-3.53,3.03-6.04Zm-2.46,1.84c-.17.69-.74,1.26-1.43,1.43-.17.04-.33.06-.49.06-1.25,0-2.24-1.17-1.92-2.47.17-.69.74-1.26,1.43-1.43.17-.04.33-.06.49-.06,1.25,0,2.24,1.17,1.92,2.47Zm-8.19,4.2s0,0,0,0l-2.08-.73V4.22l4.29,1.56v1.63c.55-.43,1.16-.77,1.83-1.02v-.63l3.41-1.25v1.62c.64.13,1.26.35,1.83.65v-3.57c0-.52-.42-.92-.91-.92-.1,0-.21.02-.32.06l-4.94,1.81-5.77-2.1c-.1-.04-.21-.06-.31-.06s-.2.02-.3.05l-5.13,1.79c-.37.13-.61.47-.61.86v14.44c0,.52.43.92.91.92.1,0,.21-.02.32-.06l4.84-1.79,5.75,2.03s0,0,.01,0l.85.3-.56-2.14-3.11-1.09Zm-3.91-.69l-3.28,1.21V5.35l3.28-1.14v12.4Z"/>
</svg>
