<svg xmlns="http://www.w3.org/2000/svg" width="24" height="24" fill="currentColor" viewBox="0 0 24 24">
  <path d="m21,2.32c-.11,0-.23.02-.35.06l-5.4,1.98-6.3-2.29c-.11-.04-.23-.06-.34-.06s-.22.02-.33.06l-5.6,1.95c-.4.14-.67.52-.67.94v15.78c0,.57.47,1,1,1,.11,0,.23-.02.35-.06l5.29-1.96,6.29,2.22c.11.04.22.06.33.06.11,0,.21-.02.31-.05l5.71-1.87c.41-.13.69-.52.69-.95l.03-15.81c0-.57-.47-1-1-1Zm-13.42,15.66l-3.58,1.33V5.67l3.58-1.25v13.56Zm6.69,1.61l-4.69-1.66V4.42l4.69,1.71v13.46Zm5.7-1.19l-3.7,1.21V6.11l3.72-1.36-.02,13.65Z"/>
</svg>
