<svg xmlns="http://www.w3.org/2000/svg" width="24" height="24" fill="currentColor" viewBox="0 0 24 24">
  <path d="m21.42,10.59h0s-4.67-4.67-4.67-4.67l2.16-2.16c.4-.4.4-1.05,0-1.45-.4-.4-1.05-.4-1.45,0l-2.16,2.16-1.82-1.82h0s-.02-.03-.04-.04c-1.32-1.32-4.6-.17-7.34,2.56-2.73,2.73-3.88,6.02-2.56,7.34.01.01.03.02.05.04h0s1.41,1.42,1.41,1.42v.04h.04l6.48,6.48h0c1.34,1.27,4.59.13,7.31-2.59s3.86-5.97,2.59-7.31Zm-3.97,5.93c-2.16,2.16-4.13,2.65-4.58,2.49l-5-5h11.49c-.4.74-1,1.6-1.91,2.51Zm-11.58-4.51l-.92-.92c-.13-.4.36-2.36,2.53-4.53,2.13-2.13,4.07-2.64,4.56-2.5l1.41,1.4.44.44-2.09,2.09c-.4.4-.4,1.05,0,1.45.2.2.46.3.73.3s.53-.1.73-.3l2.09-2.09,4.54,4.54.09.1s0,.02,0,.03H5.87Zm-4.37,6.1c0,1.29.97,2.34,2.15,2.34s2.15-1.05,2.15-2.34c0-1.56-2.15-4.1-2.15-4.1,0,0-2.15,2.54-2.15,4.1Z"/>
</svg>
