<svg xmlns="http://www.w3.org/2000/svg" width="24" height="24" fill="currentColor" viewBox="0 0 24 24">
  <path d="M12,14.75c-1.52,0-2.75-1.23-2.75-2.75s1.23-2.75,2.75-2.75,2.75,1.23,2.75,2.75-1.23,2.75-2.75,2.75Zm0-4c-.69,0-1.25,.56-1.25,1.25s.56,1.25,1.25,1.25,1.25-.56,1.25-1.25-.56-1.25-1.25-1.25Zm2.52-4.5h-5.03c-.39,0-.73-.23-.88-.59s-.07-.76,.21-1.04l2.52-2.52c.36-.36,.99-.36,1.34,0l2.52,2.52c.27,.27,.35,.68,.21,1.04s-.49,.59-.88,.59Zm-3.71-1.5h2.38l-1.19-1.19-1.19,1.19Zm4.58,13.84c.15,.36,.07,.76-.21,1.04l-2.52,2.52c-.36,.36-.99,.36-1.34,0l-2.52-2.52c-.27-.27-.35-.68-.21-1.04s.49-.59,.88-.59h5.03c.39,0,.73,.23,.88,.59Zm-3.4,2.1l1.19-1.19h-2.38l1.19,1.19ZM6,9.48v5.03c0,.39-.23,.73-.59,.88s-.76,.07-1.04-.21l-2.52-2.52c-.36-.36-.36-.99,0-1.34l2.52-2.52c.27-.27,.68-.35,1.04-.21s.59,.49,.59,.88Zm-1.5,3.71v-2.38s-1.19,1.19-1.19,1.19l1.19,1.19Zm14.09-4.58c.36-.15,.76-.07,1.04,.21l2.52,2.52c.36,.36,.36,.99,0,1.34l-2.52,2.52c-.27,.27-.68,.35-1.04,.21s-.59-.49-.59-.88v-5.03c0-.39,.23-.73,.59-.88Zm2.1,3.4l-1.19-1.19v2.38l1.19-1.19Z"/>
</svg>
