<svg xmlns="http://www.w3.org/2000/svg" width="24" height="24" viewBox="0 0 24 24">
  <path d="m15.48,21c-1.91,0-3.8-.78-5.17-2.3l-5.06-5.59c-2.4-2.65-2.42-6.67-.03-9.34.44-.49,1.07-.77,1.73-.78h0c.66,0,1.29.28,1.73.77l1.87,2.06c.57.63.82,1.46.68,2.3-.13.8-.59,1.49-1.28,1.92l3.91,4.25c.49-.62,1.21-1,2.01-1.05.84-.05,1.65.28,2.22.91l1.87,2.06c.44.49.66,1.14.59,1.8-.07.66-.41,1.25-.94,1.64-1.24.91-2.68,1.35-4.12,1.35ZM6.96,5c-.05.02-.16.01-.24.11-1.7,1.9-1.69,4.77.02,6.66l5.06,5.59c1.72,1.89,4.56,2.19,6.63.68.1-.08.13-.18.13-.23,0-.05,0-.16-.08-.25l-1.87-2.06c-.22-.24-.48-.26-.62-.25-.14,0-.4.06-.58.32-.33.47-.85.76-1.42.79-.58.03-1.12-.19-1.51-.62l-4.06-4.48c-.39-.43-.56-1-.46-1.56.09-.57.43-1.06.93-1.34.28-.16.36-.41.38-.55s.03-.4-.19-.64l-1.87-2.06c-.08-.09-.19-.11-.24-.11Z"/>
</svg>
