<svg xmlns="http://www.w3.org/2000/svg" width="24" height="24" fill="currentColor" viewBox="0 0 24 24">
  <path d="m20.52,18.08l-2.41-12.41c.54-.36.9-.97.9-1.67,0-1.1-.9-2-2-2-.74,0-1.38.4-1.72,1h-3.55c-.35-.6-.98-1-1.72-1-1.1,0-2,.9-2,2,0,.18.03.35.07.51l-3.56,3.56c-.16-.04-.33-.07-.51-.07-1.1,0-2,.9-2,2,0,.74.4,1.38,1,1.72v3.55c-.6.35-1,.98-1,1.72,0,1.1.9,2,2,2,.56,0,1.07-.23,1.43-.61l12.78,2.48c.33.66,1,1.12,1.79,1.12,1.1,0,2-.9,2-2,0-.93-.63-1.7-1.48-1.92Zm-3.52-15.08c.55,0,1,.45,1,1s-.45,1-1,1-1-.45-1-1,.45-1,1-1Zm-7,0c.55,0,1,.45,1,1s-.45,1-1,1-1-.45-1-1,.45-1,1-1Zm-6,6c.55,0,1,.45,1,1s-.45,1-1,1-1-.45-1-1,.45-1,1-1Zm0,9c-.55,0-1-.45-1-1s.45-1,1-1,1,.45,1,1-.45,1-1,1Zm14.35.87l-12.44-2.42c-.14-.5-.47-.92-.91-1.17v-3.55c.6-.35,1-.98,1-1.72,0-.18-.03-.35-.07-.51l3.56-3.56c.16.04.33.07.51.07.74,0,1.38-.4,1.72-1h3.55c.19.33.47.59.81.77l2.49,12.82c-.08.08-.16.18-.23.27Zm1.65,2.13c-.55,0-1-.45-1-1s.45-1,1-1,1,.45,1,1-.45,1-1,1Z"/>
</svg>
