<svg xmlns="http://www.w3.org/2000/svg" width="24" height="24" fill="currentColor" viewBox="0 0 24 24">
  <path d="m21.9,6.34l-4.24-4.24c-.78-.78-2.05-.78-2.83,0L2.1,14.83c-.78.78-.78,2.05,0,2.83l4.24,4.24c.78.78,2.05.78,2.83,0l12.73-12.73c.78-.78.78-2.05,0-2.83Zm-14.14,14.14l-4.24-4.24,1.77-1.77,2.47,2.47c.2.2.51.2.71,0s.2-.51,0-.71l-2.47-2.47,2.12-2.12,2.47,2.47c.2.2.51.2.71,0s.2-.51,0-.71l-2.47-2.47,2.12-2.12,2.47,2.47c.2.2.51.2.71,0s.2-.51,0-.71l-2.47-2.47,2.12-2.12,2.47,2.47c.2.2.51.2.71,0s.2-.51,0-.71l-2.47-2.47,1.77-1.77,4.24,4.24-12.73,12.73Z"/>
</svg>
