<svg xmlns="http://www.w3.org/2000/svg" width="24" height="24" viewBox="0 0 24 24">
  <path d="m15,6H6v2.42l1.26,1.3h7.74v-1.27s0,0,0,0v-2.44Zm-10,13V5h11.17l2.83,2.83v2.47c.72.22,1.4.55,2,.97v-3.44c0-.53-.21-1.04-.59-1.41l-2.83-2.83c-.38-.38-.88-.59-1.41-.59H5c-1.1,0-2,.9-2,2v14c0,1.1.9,2,2,2h6.26c-.42-.6-.75-1.28-.97-2h-5.29Zm11.23-6.94c-2.12.32-3.85,2.05-4.17,4.17-.52,3.4,2.36,6.28,5.76,5.76,2.12-.32,3.85-2.05,4.17-4.17.52-3.4-2.36-6.28-5.76-5.76Zm3.79,4.97c0,.07-.01.13-.04.19-.03.06-.06.12-.11.16,0,0,0,0,0,0l-2.24,2.22c-.2.19-.51.19-.71,0-.19-.2-.19-.51,0-.71l1.38-1.36h-3.78c-.28,0-.5-.22-.5-.5s.22-.5.5-.5h3.79l-1.39-1.38c-.1-.1-.15-.23-.15-.35s.05-.26.15-.35c.19-.2.51-.2.71,0l2.24,2.23s0,0,0,0c.05.05.08.1.11.16.03.06.04.13.04.19h0Z"/>
</svg>
