<svg xmlns="http://www.w3.org/2000/svg" width="24" height="24" fill="currentColor" viewBox="0 0 24 24">
  <path d="m5.51,10.67c-.14.1-.24.2-.26.27.14.41,2.48,1.6,6.75,1.6s6.53-1.14,6.75-1.62c-.03-.07-.12-.16-.25-.25-1.75.72-4.17,1.07-6.5,1.07s-4.74-.35-6.49-1.07Zm-.01,5.13c-.14.1-.24.2-.26.27.14.41,2.43,1.6,6.75,1.6h0c4.27.01,6.55-1.14,6.75-1.61-.03-.07-.12-.16-.25-.26-1.75.72-4.17,1.07-6.5,1.07s-4.74-.35-6.49-1.07Zm15.5-10.02c0-2.6-4.66-3.78-9-3.78S3,3.18,3,5.78v2.16c0,.56.23,1.05.61,1.49-.39.43-.61.92-.61,1.49v2.16c0,.56.23,1.05.61,1.49-.39.43-.61.92-.61,1.49v2.16c0,2.6,4.67,3.78,9,3.78s9-1.18,9-3.78v-2.16c0-.56-.23-1.05-.61-1.49.39-.43.61-.92.61-1.49v-2.16c0-.56-.23-1.05-.61-1.49.39-.43.61-.92.61-1.49v-2.16Zm-1.5,2.16c0,.12-.03.27-.22.48l-.89.98.87,1c.25.28.25.45.25.51v2.16c0,.12-.03.27-.22.48l-.89.98.87,1.01c.25.28.25.45.25.51v2.16c0,.95-2.85,2.28-7.5,2.28s-7.5-1.33-7.5-2.28v-2.16c0-.12.03-.27.22-.48l.89-.98-.87-1c-.25-.28-.25-.45-.25-.51v-2.16c0-.12.03-.27.22-.48l.89-.98-.87-1.01c-.25-.28-.25-.45-.25-.51v-2.16c0-.95,2.85-2.28,7.5-2.28s7.5,1.33,7.5,2.28v2.16Zm-7.5-3.78c-4.32,0-6.61,1.19-6.75,1.64.14.41,2.48,1.6,6.75,1.6s6.55-1.15,6.75-1.62c-.2-.46-2.49-1.62-6.75-1.62Z"/>
</svg>
