<svg xmlns="http://www.w3.org/2000/svg" width="24" height="24" fill="currentColor" viewBox="0 0 24 24">
  <path d="m18.17,2.29l-1.77,1.77c-.74.74-.91,1.83-.53,2.74l-.04-.04-7,7-1.41-1.41-3.54,3.54c-.57.57-.88,1.32-.88,2.12s.31,1.55.88,2.12h0c.57.57,1.32.88,2.12.88s1.55-.31,2.12-.88l3.54-3.54-1.41-1.41,7-7-.04-.04c.31.13.64.2.97.2.64,0,1.28-.24,1.77-.73l1.77-1.77-3.54-3.54ZM6.71,18.71c-.38.38-1.04.38-1.41,0h0c-.19-.19-.29-.44-.29-.71s.1-.52.29-.71l2.12-2.12,1.41,1.41-2.12,2.12Zm12.53-11.82c-.59.58-1.54.58-2.12,0-.58-.58-.58-1.54,0-2.12l1.06-1.06,2.12,2.12-1.06,1.06Z"/>
</svg>
