<svg xmlns="http://www.w3.org/2000/svg" width="24" height="24" fill="currentColor" viewBox="0 0 24 24">
  <path d="m7.56,15c-2.9,0-5.25-2.35-5.25-5.25s2.35-5.25,5.25-5.25c.31,0,.62.03.95.1,1.02-1.72,2.88-2.8,4.9-2.8,3.11,0,5.64,2.5,5.7,5.59,1.22.39,2.18,1.37,2.55,2.62h0c.29,1,.17,2.05-.33,2.97-.5.91-1.33,1.57-2.33,1.86-.33.1-.67.14-1.08.14H7.56Zm0-8.99c-2.07,0-3.75,1.68-3.75,3.75s1.68,3.75,3.75,3.75h10.36c.26-.02.47-.04.66-.1.62-.18,1.13-.59,1.43-1.15.31-.56.38-1.21.2-1.82h0c-.26-.91-1.04-1.58-1.98-1.71l-.71-.1.07-.72c.01-.14.02-.27.02-.41,0-2.32-1.88-4.2-4.2-4.2-1.65,0-3.15.97-3.83,2.48l-.27.61-.63-.2c-.42-.13-.77-.19-1.11-.19Zm2.79,11.33h-.59s.37-.37.37-.37c.04-.04.05-.11,0-.16-.04-.04-.11-.05-.16,0l-.53.52h0s-.29,0-.29,0v-.29s.01,0,.01,0l.53-.52s.05-.11,0-.16c-.04-.04-.11-.05-.16,0l-.37.37v-.59c0-.08-.06-.15-.14-.15-.08,0-.15.07-.15.15v.59s-.37-.37-.37-.37c-.04-.04-.11-.05-.16,0s-.05.11,0,.16l.52.53h0s0,.3,0,.3h-.29s0-.01,0-.01l-.52-.53s-.11-.05-.16,0-.05.11,0,.16l.37.37h-.59c-.08,0-.15.06-.15.14,0,.08.07.15.15.15h.59s-.37.37-.37.37c-.04.04-.05.11,0,.16.02.02.05.03.08.03.03,0,.06-.01.08-.03l.53-.52h0s.29,0,.29,0v.29s-.01,0-.01,0l-.53.52s-.05.11,0,.16c.02.02.05.03.08.03.03,0,.06-.01.08-.03l.37-.37v.59c0,.08.06.15.14.15.08,0,.15-.07.15-.15v-.59s.37.37.37.37c.02.02.05.03.08.03.03,0,.06-.01.08-.03.04-.04.05-.11,0-.16l-.52-.53h0s0-.3,0-.3h.29s0,.01,0,.01l.52.53s.05.03.08.03c.03,0,.06-.01.08-.03.04-.04.05-.11,0-.16l-.37-.37h.59c.08,0,.15-.06.15-.14,0-.08-.07-.15-.15-.15Zm6.89.98h-.99s.63-.62.63-.62c.07-.07.08-.19,0-.27-.07-.07-.19-.08-.27,0l-.88.86-.02.02h-.49s0-.49,0-.49l.02-.02.88-.86c.07-.07.08-.19,0-.27-.07-.07-.19-.08-.27,0l-.63.61v-.99c.01-.14-.1-.25-.24-.25-.14,0-.25.11-.25.25v.99s-.62-.63-.62-.63c-.07-.07-.19-.08-.27,0-.07.07-.08.19,0,.27l.86.88.02.02v.49s-.49,0-.49,0l-.02-.02-.86-.88c-.07-.07-.19-.08-.27,0-.07.07-.08.19,0,.27l.61.63h-.99c-.14-.01-.25.1-.25.24,0,.14.11.25.25.25h.99s-.63.62-.63.62c-.07.07-.08.19,0,.27.04.04.08.06.13.06s.1-.02.13-.05l.88-.86.02-.02h.49s0,.49,0,.49l-.02.02-.88.86c-.07.07-.08.19,0,.27.04.04.08.06.13.06s.1-.02.13-.05l.63-.61v.99c-.01.14.1.25.24.25.14,0,.25-.11.25-.25v-.99s.62.63.62.63c.04.04.08.06.13.06s.1-.02.13-.05c.07-.07.08-.19,0-.27l-.86-.88-.02-.02v-.49s.49,0,.49,0l.02.02.86.88s.08.06.13.06c.05,0,.1-.02.13-.05.07-.07.08-.19,0-.27l-.61-.63h.99c.14.01.25-.1.25-.24,0-.14-.11-.25-.25-.25Z"/>
</svg>
