<svg xmlns="http://www.w3.org/2000/svg" width="24" height="24" fill="currentColor" viewBox="0 0 24 24">
  <path d="m21.5,11.5h-2.29l1.15-1.15c.2-.2.2-.51,0-.71s-.51-.2-.71,0l-1.85,1.85h-2.84c-.08-.45-.25-.87-.51-1.23l2.01-2.01h2.62c.28,0,.5-.22.5-.5s-.22-.5-.5-.5h-1.62l1.62-1.62c.2-.2.2-.51,0-.71s-.51-.2-.71,0l-1.62,1.62v-1.62c0-.28-.22-.5-.5-.5s-.5.22-.5.5v2.62l-2.01,2.01c-.36-.26-.78-.43-1.23-.51v-2.84l1.85-1.85c.2-.2.2-.51,0-.71s-.51-.2-.71,0l-1.15,1.15v-2.29c0-.28-.22-.5-.5-.5s-.5.22-.5.5v2.29l-1.15-1.15c-.2-.2-.51-.2-.71,0s-.2.51,0,.71l1.85,1.85v2.84c-.45.08-.87.25-1.23.51l-2.01-2.01v-2.62c0-.28-.22-.5-.5-.5s-.5.22-.5.5v1.62l-1.62-1.62c-.2-.2-.51-.2-.71,0s-.2.51,0,.71l1.62,1.62h-1.62c-.28,0-.5.22-.5.5s.22.5.5.5h2.62l2.01,2.01c-.26.36-.43.78-.51,1.23h-2.84l-1.85-1.85c-.2-.2-.51-.2-.71,0s-.2.51,0,.71l1.15,1.15h-2.29c-.28,0-.5.22-.5.5s.22.5.5.5h2.29l-1.15,1.15c-.2.2-.2.51,0,.71.1.1.23.15.35.15s.26-.05.35-.15l1.85-1.85h2.84c.08.45.25.87.51,1.23l-2.01,2.01h-2.62c-.28,0-.5.22-.5.5s.22.5.5.5h1.62l-1.62,1.62c-.2.2-.2.51,0,.71.1.1.23.15.35.15s.26-.05.35-.15l1.62-1.62v1.62c0,.28.22.5.5.5s.5-.22.5-.5v-2.62l2.01-2.01c.36.26.78.43,1.23.51v2.84l-1.85,1.85c-.2.2-.2.51,0,.71.1.1.23.15.35.15s.26-.05.35-.15l1.15-1.15v2.29c0,.28.22.5.5.5s.5-.22.5-.5v-2.29l1.15,1.15c.1.1.23.15.35.15s.26-.05.35-.15c.2-.2.2-.51,0-.71l-1.85-1.85v-2.84c.45-.08.87-.25,1.23-.51l2.01,2.01v2.62c0,.28.22.5.5.5s.5-.22.5-.5v-1.62l1.62,1.62c.1.1.23.15.35.15s.26-.05.35-.15c.2-.2.2-.51,0-.71l-1.62-1.62h1.62c.28,0,.5-.22.5-.5s-.22-.5-.5-.5h-2.62l-2.01-2.01c.26-.36.43-.78.51-1.23h2.84l1.85,1.85c.1.1.23.15.35.15s.26-.05.35-.15c.2-.2.2-.51,0-.71l-1.15-1.15h2.29c.28,0,.5-.22.5-.5s-.22-.5-.5-.5Zm-9.5,1.5c-.55,0-1-.45-1-1s.45-1,1-1,1,.45,1,1-.45,1-1,1Z"/>
</svg>
