<svg xmlns="http://www.w3.org/2000/svg" width="24" height="24" fill="currentColor" viewBox="0 0 24 24">
  <path d="m5.03,7v14c0,.55.45,1,1,1h0c.55,0,1-.45,1-1V7h1.96c.42,0,.65-.48.39-.81l-2.96-3.7c-.2-.25-.58-.25-.78,0l-2.96,3.7c-.26.33-.03.81.39.81h1.96Zm8-.04h4c.55,0,1,.45,1,1h0c0,.55-.45,1-1,1h-4c-.55,0-1-.45-1-1h0c0-.55.45-1,1-1Zm-1,9.04h0c0-.55.45-1,1-1h8c.55,0,1,.45,1,1h0c0,.55-.45,1-1,1h-8c-.55,0-1-.45-1-1Zm1-5.04h6c.55,0,1,.45,1,1h0c0,.55-.45,1-1,1h-6c-.55,0-1-.45-1-1h0c0-.55.45-1,1-1Zm0-8h2c.55,0,1,.45,1,1h0c0,.55-.45,1-1,1h-2c-.55,0-1-.45-1-1h0c0-.55.45-1,1-1Z"/>
</svg>
