<svg xmlns="http://www.w3.org/2000/svg" width="24" height="24" fill="currentColor" viewBox="0 0 24 24">
  <path fill="#252a2e" d="m12 6.35 1.29 3.01.47 1.1 1.2.1 3.24.27-2.44 2.09-.93.79.28 1.19.74 3.14-2.83-1.69-1.02-.61-1.02.61-2.83 1.69.74-3.14.28-1.19-.93-.79-2.44-2.09 3.24-.27 1.2-.1.47-1.1L12 6.35M12 3c-.42 0-.83.22-1.03.67l-2.1 4.9-5.38.45c-.98.08-1.38 1.29-.64 1.93l4.09 3.5-1.23 5.2c-.17.74.42 1.35 1.09 1.35.19 0 .39-.05.57-.16l4.62-2.76 4.62 2.76c.19.11.38.16.57.16.67 0 1.26-.62 1.09-1.35l-1.23-5.2 4.09-3.5c.74-.64.35-1.85-.64-1.93l-5.38-.45-2.1-4.9c-.19-.45-.61-.67-1.03-.67Z"/>
</svg>
