<svg xmlns="http://www.w3.org/2000/svg" width="24" height="24" fill="currentColor" viewBox="0 0 24 24">
  <path d="m12,6.38l1.7,4.03,1.27.11c.48-.26,1.01-.43,1.57-.49.15-.02.31-.02.46-.02,1.17,0,2.22.46,3.02,1.19l.16-.14c.67-.58.31-1.67-.57-1.75l-4.82-.42-1.88-4.43c-.34-.81-1.49-.81-1.83,0l-1.88,4.44-4.81.41c-.88.07-1.23,1.17-.57,1.75l3.66,3.17-1.1,4.71c-.2.86.73,1.54,1.49,1.08l3.14-1.89v-1.86l-2.75,1.66,1-4.27-3.31-2.87,4.37-.38,1.69-4.02Zm7.5,9.09v-.85c0-1.27-.89-2.42-2.15-2.59-.23-.03-.47-.03-.72,0-1.25.18-2.13,1.35-2.13,2.62v.82h-.5c-.55,0-1,.45-1,1v4.54c0,.55.45,1,1,1h6c.55,0,1-.45,1-1v-4.54c0-.55-.45-1-1-1h-.5Zm-2.49,4.04c-.55,0-1-.45-1-1s.45-1,1-1,1,.45,1,1-.45,1-1,1Zm1.49-4.04h-3v-.96c0-.83.67-1.5,1.5-1.5s1.5.67,1.5,1.5v.96Z"/>
</svg>
