<svg xmlns="http://www.w3.org/2000/svg" width="24" height="24" fill="currentColor" viewBox="0 0 24 24">
  <path d="m5,12c0-.34.03-.67.08-1h-2.08c-.55,0-1,.45-1,1h0c0,.56.45,1,1,1h2.08c-.05-.33-.08-.66-.08-1Zm1.4,4.19l-1.48,1.48c-.39.39-.39,1.02,0,1.41h0c.39.39,1.02.39,1.41,0l1.48-1.48c-.54-.4-1.01-.88-1.41-1.41Zm1.41-9.79l-1.48-1.48c-.39-.39-1.02-.39-1.41,0h0c-.39.39-.39,1.02,0,1.41l1.48,1.48c.4-.54.88-1.01,1.41-1.41Zm5.19-1.32v-2.08c0-.55-.45-1-1-1h0c-.55,0-1,.45-1,1v2.08c.33-.05.66-.08,1-.08s.67.03,1,.08Zm4.6,2.73l1.48-1.48c.39-.39.39-1.02,0-1.41h0c-.39-.39-1.02-.39-1.41,0l-1.48,1.48c.54.4,1.01.88,1.41,1.41Zm1.32,3.19c.05.33.08.66.08,1s-.03.67-.08,1h2.08c.55,0,1-.45,1-1h0c0-.56-.45-1-1-1h-2.08Zm-2.73,6.6l1.48,1.48c.39.39,1.02.39,1.41,0h0c.39-.39.39-1.02,0-1.41l-1.48-1.48c-.4.54-.88,1.01-1.41,1.41Zm-5.19,1.32v2.08c0,.55.45,1,1,1h0c.55,0,1-.45,1-1v-2.08c-.33.05-.66.08-1,.08s-.67-.03-1-.08Zm1-2.17c-2.62,0-4.75-2.13-4.75-4.75s2.13-4.75,4.75-4.75,4.75,2.13,4.75,4.75-2.13,4.75-4.75,4.75Zm0-8c-1.79,0-3.25,1.46-3.25,3.25s1.46,3.25,3.25,3.25,3.25-1.46,3.25-3.25-1.46-3.25-3.25-3.25Z"/>
</svg>
