<svg xmlns="http://www.w3.org/2000/svg" width="24" height="24" viewBox="0 0 24 24">
  <path d="m22.31,16.64c-.45-1.67-1.79-3.01-3.46-3.46-3.79-1.02-7.19,2.39-6.18,6.18.45,1.67,1.79,3.01,3.46,3.46,3.79,1.02,7.19-2.39,6.18-6.18Zm-2.52,3.14c-.11.17-.34.23-.52.12l-2.04-1.26c-.15-.09-.24-.25-.24-.43v-2.34c0-.21.17-.38.38-.38s.38.17.38.38v2.22l1.92,1.16c.18.11.24.34.13.52Zm-14.29.22V4h6v5c0,.55.45,1,1,1h5v1.5c.7,0,1.37.11,2,.32v-3.4c0-.27-.11-.52-.29-.71l-5.12-5.12c-.38-.38-.88-.59-1.41-.59h-7.17c-1.1,0-2,.9-2,2v16c0,1.1.9,2,2,2h6.88c-.46-.59-.83-1.27-1.07-2h-5.82ZM13.5,5l3,3h-3v-3Z"/>
</svg>
