<svg xmlns="http://www.w3.org/2000/svg" width="24" height="24" fill="currentColor" viewBox="0 0 24 24">
  <path d="m20.57,7.42h0s-3.57,3.58-3.57,3.58v-2c0-1.1-.9-2-2-2h-5.46l1.5,1.5h3.96c.27,0,.5.23.5.5v3.96l1.5,1.5v-1.46l3.57,3.57c.16.16.43.05.43-.18V7.6c0-.22-.27-.33-.43-.18Zm-1.07,5.96l-1.38-1.38,1.38-1.38v2.76Zm-2.9,2.81s0,0,0,0l-1.12-1.12s0,0,0,0l-6.57-6.57h0l-1.5-1.5h0l-3.71-3.71c-.39-.39-1.02-.39-1.41,0s-.39,1.02,0,1.41l2.33,2.33c-.92.18-1.62.99-1.62,1.96v6c0,1.1.9,2,2,2h9.59l4.71,4.71c.2.2.45.29.71.29s.51-.1.71-.29c.39-.39.39-1.02,0-1.41l-4.11-4.11Zm-11.6-.69c-.27,0-.5-.23-.5-.5v-6c0-.27.23-.5.5-.5h1.09l7,7H5Z"/>
</svg>
