<svg xmlns="http://www.w3.org/2000/svg" width="24" height="24" fill="currentColor" viewBox="0 0 24 24">
  <path d="M4.46 4.04a.996.996 0 1 0-1.41 1.41l2.59 2.59a11.078 11.078 0 0 0-3.43 3.95c1.82 3.56 5.52 6 9.79 6 1.09 0 2.13-.17 3.12-.47l3.43 3.43c.2.2.45.29.71.29s.51-.1.71-.29a.996.996 0 0 0 0-1.41L4.46 4.04ZM12 16.99c-2.76 0-5-2.24-5-5 0-.75.19-1.46.49-2.09l1.56 1.56a2.996 2.996 0 0 0 3.49 3.49l1.56 1.56c-.64.3-1.34.49-2.09.49ZM9.89 7.46 8.87 6.44c.99-.29 2.04-.46 3.13-.46 4.27 0 7.97 2.44 9.79 6-.81 1.58-1.99 2.94-3.42 3.96l-1.85-1.85c.3-.64.48-1.35.48-2.11 0-2.76-2.24-5-5-5-.76 0-1.46.18-2.11.48Zm4.35 4.35a1.498 1.498 0 0 0-2.08-2.08l-.7-.7a2.996 2.996 0 0 1 3.48 3.48l-.7-.7Z"/>
</svg>
