<svg xmlns="http://www.w3.org/2000/svg" width="24" height="24" viewBox="0 0 24 24">
  <path id="d" d="m12,2C6.48,2,2,6.48,2,12s4.48,10,10,10,10-4.48,10-10c-.02-5.52-4.48-9.98-10-10Zm6.9,6h-2.9c-.32-1.25-.79-2.46-1.4-3.6,1.82.65,3.34,1.92,4.3,3.6Zm-6.9-4c.85,1.22,1.49,2.57,1.9,4h-3.8c.43-1.42,1.07-2.77,1.9-4Zm-7.7,10c-.4-1.3-.4-2.7,0-4h3.4c-.08.66-.12,1.33-.1,2,0,.7.1,1.3.1,2h-3.4Zm.8,2h3c.3,1.26.77,2.47,1.4,3.6-1.86-.61-3.43-1.9-4.4-3.6Zm2.9-8h-3c.98-1.66,2.5-2.93,4.3-3.6-.5,1.2-.9,2.4-1.3,3.6Zm4,12c-.85-1.22-1.49-2.57-1.9-4h3.8c-.43,1.42-1.07,2.77-1.9,4Zm2.3-6h-4.6c-.12-.66-.18-1.33-.2-2,.01-.67.08-1.34.2-2h4.7c.12.66.19,1.33.2,2-.05.67-.15,1.34-.3,2Zm.3,5.6c.63-1.13,1.1-2.34,1.4-3.6h2.9c-.98,1.65-2.5,2.92-4.3,3.6Zm1.8-5.6c.08-.66.12-1.33.1-2,0-.7-.1-1.3-.1-2h3.4c.4,1.3.4,2.7,0,4h-3.4Z"/>
</svg>
