<svg xmlns="http://www.w3.org/2000/svg" width="24" height="24" fill="currentColor" viewBox="0 0 24 24">
  <path d="m22.77,5.66c-.15-.39-.59-.58-.97-.43l-6.69,2.6-2.17,2.17H3.88c-.39,0-.63.42-.43.76l2.25,3.76c.18.3.51.49.86.49h1.37l-1.54,1.54c-.06.06-.1.13-.14.21-.3-.15-.64-.25-1.01-.25-1.24,0-2.25,1.01-2.25,2.25s1.01,2.25,2.25,2.25,2.25-1.01,2.25-2.25c0-.36-.1-.7-.25-1.01.07-.04.15-.08.21-.14l.11-.11,4.83,1.75c.19.07.39.1.59.1.36,0,.71-.11,1.01-.32.47-.33.75-.86.75-1.43v-4.47l.98-2.44c.13-.33-.11-.69-.46-.69h-.2l.89-.89,6.39-2.48c.39-.15.58-.58.43-.97ZM5.25,19.5c-.41,0-.75-.34-.75-.75s.34-.75.75-.75.75.34.75.75-.34.75-.75.75Zm8-1.91c0,.11-.07.18-.11.2-.04.03-.12.07-.23.03l-4.17-1.51,1.32-1.32h3.19v2.59Zm-5.25-8.59h-3v-1h3v1Zm4,0h-3v-1h3v1Zm-2-2h-3v-1h3v1Z"/>
</svg>
