<svg xmlns="http://www.w3.org/2000/svg" width="24" height="24" fill="currentColor" viewBox="0 0 24 24">
  <path d="m9.5,13h-5c-.83,0-1.5.67-1.5,1.5v5c0,.83.67,1.5,1.5,1.5h5c.83,0,1.5-.67,1.5-1.5v-5c0-.83-.67-1.5-1.5-1.5Zm.5,6.5c0,.28-.22.5-.5.5h-5c-.28,0-.5-.22-.5-.5v-5c0-.28.22-.5.5-.5h5c.28,0,.5.22.5.5v5Zm-.5-16.5h-5c-.83,0-1.5.67-1.5,1.5v5c0,.83.67,1.5,1.5,1.5h5c.83,0,1.5-.67,1.5-1.5v-5c0-.83-.67-1.5-1.5-1.5Zm.5,6.5c0,.28-.22.5-.5.5h-5c-.28,0-.5-.22-.5-.5v-5c0-.28.22-.5.5-.5h5c.28,0,.5.22.5.5v5Zm11.56-3.56l-3.54-3.54c-.58-.58-1.54-.58-2.12,0l-3.54,3.54c-.58.58-.58,1.54,0,2.12l3.54,3.54c.58.58,1.54.58,2.12,0l3.54-3.54c.58-.58.58-1.54,0-2.12Zm-.71,1.41l-3.54,3.54c-.2.2-.51.2-.71,0l-3.54-3.54c-.2-.2-.2-.51,0-.71l3.54-3.54c.2-.2.51-.2.71,0l3.54,3.54c.2.2.2.51,0,.71Zm-1.39,5.65h-5c-.83,0-1.5.67-1.5,1.5v5c0,.83.67,1.5,1.5,1.5h5c.83,0,1.5-.67,1.5-1.5v-5c0-.83-.67-1.5-1.5-1.5Zm.5,6.5c0,.28-.22.5-.5.5h-5c-.28,0-.5-.22-.5-.5v-5c0-.28.22-.5.5-.5h5c.28,0,.5.22.5.5v5Z"/>
</svg>
