<svg xmlns="http://www.w3.org/2000/svg" xmlns:xlink="http://www.w3.org/1999/xlink"><symbol class="mi-solid mi-add-circle" viewBox="0 0 24 24" id="add-circle"><path d="M12 2C6.48 2 2 6.48 2 12s4.48 10 10 10 10-4.48 10-10S17.52 2 12 2Zm4 11h-3v3c0 .55-.45 1-1 1s-1-.45-1-1v-3H8c-.55 0-1-.45-1-1s.45-1 1-1h3V8c0-.55.45-1 1-1s1 .45 1 1v3h3c.55 0 1 .45 1 1s-.45 1-1 1Z"/></symbol><symbol class="mi-solid mi-attach-file" viewBox="0 0 24 24" id="attach-file"><path d="M16.5 6.75v10.58c0 2.09-1.53 3.95-3.61 4.15A3.993 3.993 0 0 1 8.5 17.5V5.14c0-1.31.94-2.5 2.24-2.63A2.5 2.5 0 0 1 13.5 5v10.5c0 .55-.45 1-1 1s-1-.45-1-1V6.75c0-.41-.34-.75-.75-.75s-.75.34-.75.75v8.61c0 1.31.94 2.5 2.24 2.63A2.5 2.5 0 0 0 15 15.5V5.17c0-2.09-1.53-3.95-3.61-4.15A3.998 3.998 0 0 0 7 5v12.27c0 2.87 2.1 5.44 4.96 5.71 3.29.3 6.04-2.26 6.04-5.48V6.75c0-.41-.34-.75-.75-.75s-.75.34-.75.75Z"/></symbol><symbol class="mi-solid mi-cancel" viewBox="0 0 24 24" id="cancel"><path d="M12 2C6.47 2 2 6.47 2 12s4.47 10 10 10 10-4.47 10-10S17.53 2 12 2Zm4.3 14.3a.996.996 0 0 1-1.41 0L12 13.41 9.11 16.3a.996.996 0 1 1-1.41-1.41L10.59 12 7.7 9.11A.996.996 0 1 1 9.11 7.7L12 10.59l2.89-2.89a.996.996 0 1 1 1.41 1.41L13.41 12l2.89 2.89c.38.38.38 1.02 0 1.41Z"/></symbol><symbol class="mi-solid mi-check-circle" viewBox="0 0 24 24" id="check-circle"><path d="M12 2C6.48 2 2 6.48 2 12s4.48 10 10 10 10-4.48 10-10S17.52 2 12 2ZM9.29 16.29 5.7 12.7a.996.996 0 1 1 1.41-1.41L10 14.17l6.88-6.88a.996.996 0 1 1 1.41 1.41l-7.59 7.59a.996.996 0 0 1-1.41 0Z"/></symbol><symbol class="mi-solid mi-close" viewBox="0 0 24 24" id="close"><path d="M18.3 5.71a.996.996 0 0 0-1.41 0L12 10.59 7.11 5.7A.996.996 0 1 0 5.7 7.11L10.59 12 5.7 16.89a.996.996 0 1 0 1.41 1.41L12 13.41l4.89 4.89a.996.996 0 1 0 1.41-1.41L13.41 12l4.89-4.89c.38-.38.38-1.02 0-1.4Z"/></symbol><symbol class="mi-solid mi-credit-card" viewBox="0 0 24 24" id="credit-card"><path d="M20 4H4c-1.11 0-1.99.89-1.99 2v12c0 1.11.88 2 1.99 2h16c1.11 0 2-.89 2-2V6c0-1.11-.89-2-2-2Zm-1 14H5c-.55 0-1-.45-1-1v-5h16v5c0 .55-.45 1-1 1Zm1-10H4V6h16v2Z"/></symbol><symbol class="mi-solid mi-day-mostly-cloudy" viewBox="0 0 24 24" id="day-mostly-cloudy"><path d="M6.06 10.58c.31-.05.62-.08.94-.08.24 0 .48.02.73.05a6.996 6.996 0 0 1 5.39-3.02A3.973 3.973 0 0 0 10 6.01c-2.21 0-4 1.79-4 4 0 .2.03.39.06.58Zm4.74-6.11V2H9.2v2.46c.26-.04.53-.06.8-.06s.54.03.8.06Zm3.68 2.19 1.74-1.74-1.13-1.13-1.74 1.74c.43.32.81.7 1.13 1.13ZM4.4 10.01c0-.27.03-.54.06-.8H2v1.6h2.46c-.04-.26-.06-.53-.06-.8Zm2.25-4.48L4.91 3.79 3.78 4.92l1.74 1.74c.32-.43.7-.81 1.13-1.13Zm11.86 16.46c.32 0 .64-.03.97-.12a3.495 3.495 0 0 0-.5-6.82c.02-.18.03-.36.03-.54 0-3.04-2.46-5.5-5.5-5.5-2.23 0-4.15 1.34-5.02 3.25-.47-.15-.96-.25-1.48-.25-2.76 0-5 2.24-5 5s2.24 5 5 5"/></symbol><symbol class="mi-solid mi-done" viewBox="0 0 24 24" id="done"><path d="m9 16.2-3.5-3.5c-.39-.39-1.01-.39-1.4 0s-.39 1.01 0 1.4l4.19 4.19c.39.39 1.02.39 1.41 0L20.3 7.7c.39-.39.39-1.01 0-1.4s-1.01-.39-1.4 0L9 16.2Z"/></symbol><symbol class="mi-solid mi-download" viewBox="0 0 24 24" id="download"><path d="M16.59 9H15V4c0-.55-.45-1-1-1h-4c-.55 0-1 .45-1 1v5H7.41c-.89 0-1.34 1.08-.71 1.71l4.59 4.59c.39.39 1.02.39 1.41 0l4.59-4.59c.63-.63.19-1.71-.7-1.71ZM5 19c0 .55.45 1 1 1h12c.55 0 1-.45 1-1s-.45-1-1-1H6c-.55 0-1 .45-1 1Z"/></symbol><symbol class="mi-solid mi-edit" viewBox="0 0 24 24" id="edit"><path d="M3.1 17.15c-.1.1-.15.22-.15.36v3.04c0 .28.22.5.5.5h3.04c.13 0 .26-.05.35-.15L17.76 9.99l-3.75-3.75L3.1 17.15ZM20.66 5.68l-2.34-2.34a.996.996 0 0 0-1.41 0l-1.83 1.83 3.75 3.75 1.83-1.83a.996.996 0 0 0 0-1.41Z"/></symbol><symbol class="mi-solid mi-explore" viewBox="0 0 24 24" id="explore"><path d="M12 10.9c-.61 0-1.1.49-1.1 1.1s.49 1.1 1.1 1.1 1.1-.49 1.1-1.1-.49-1.1-1.1-1.1ZM12 2C6.48 2 2 6.48 2 12s4.48 10 10 10 10-4.48 10-10S17.52 2 12 2Zm2.19 12.19L6 18l3.81-8.19L18 6l-3.81 8.19Z"/></symbol><symbol class="mi-solid mi-fast-forward" viewBox="0 0 24 24" id="fast-forward"><path d="m5.12 16.89 5.77-4.07c.56-.4.56-1.24 0-1.63L5.12 7.11c-.67-.46-1.58 0-1.58.82v8.14c0 .81.91 1.28 1.58.82Zm7.43-8.96v8.14c0 .81.91 1.28 1.58.82l5.77-4.07c.56-.4.56-1.24 0-1.63l-5.77-4.07c-.67-.47-1.58 0-1.58.81Z"/></symbol><symbol class="mi-solid mi-fast-rewind" viewBox="0 0 24 24" id="fast-rewind"><path d="M11.45 16.07V7.93c0-.81-.91-1.28-1.58-.82L4.1 11.18c-.56.4-.56 1.24 0 1.63l5.77 4.07c.67.47 1.58 0 1.58-.81Zm1.66-3.25 5.77 4.07c.66.47 1.58-.01 1.58-.82V7.93c0-.81-.91-1.28-1.58-.82l-5.77 4.07a1 1 0 0 0 0 1.64Z"/></symbol><symbol class="mi-solid mi-filter-list" viewBox="0 0 24 24" id="filter-list"><path d="M11 18h2c.55 0 1-.45 1-1s-.45-1-1-1h-2c-.55 0-1 .45-1 1s.45 1 1 1ZM3 7c0 .55.45 1 1 1h16c.55 0 1-.45 1-1s-.45-1-1-1H4c-.55 0-1 .45-1 1Zm4 6h10c.55 0 1-.45 1-1s-.45-1-1-1H7c-.55 0-1 .45-1 1s.45 1 1 1Z"/></symbol><symbol class="mi-solid mi-hourglass-bottom" viewBox="0 0 24 24" id="hourglass-bottom"><path d="M16 22c1.1 0 2-.9 2-2v-3.18a2.07 2.07 0 0 0-.59-1.41L14 12l3.41-3.43c.37-.37.58-.88.58-1.41V4C18 2.9 17.1 2 16 2H8c-1.1 0-2 .9-2 2v3.16c0 .53.21 1.04.58 1.42L10 12l-3.41 3.4c-.38.38-.59.89-.59 1.42V20c0 1.1.9 2 2 2h8ZM8 7.09V5c0-.55.45-1 1-1h6c.55 0 1 .45 1 1v2.09c0 .27-.11.52-.29.71L12 11.5 8.29 7.79c-.18-.18-.29-.44-.29-.7Z"/></symbol><symbol class="mi-solid mi-pause-circle" viewBox="0 0 24 24" id="pause-circle"><path d="M12 2C6.48 2 2 6.48 2 12s4.48 10 10 10 10-4.48 10-10S17.52 2 12 2Zm-2 14c-.55 0-1-.45-1-1V9c0-.55.45-1 1-1s1 .45 1 1v6c0 .55-.45 1-1 1Zm4 0c-.55 0-1-.45-1-1V9c0-.55.45-1 1-1s1 .45 1 1v6c0 .55-.45 1-1 1Z"/></symbol><symbol class="mi-solid mi-percent" viewBox="0 0 24 24" id="percent"><path d="M7.5 4C5.57 4 4 5.57 4 7.5S5.57 11 7.5 11 11 9.43 11 7.5 9.43 4 7.5 4Zm0 5C6.67 9 6 8.33 6 7.5S6.67 6 7.5 6 9 6.67 9 7.5 8.33 9 7.5 9Zm9 4c-1.93 0-3.5 1.57-3.5 3.5s1.57 3.5 3.5 3.5 3.5-1.57 3.5-3.5-1.57-3.5-3.5-3.5Zm0 5c-.83 0-1.5-.67-1.5-1.5s.67-1.5 1.5-1.5 1.5.67 1.5 1.5-.67 1.5-1.5 1.5Zm2.79-13.29c.39.39.39 1.02 0 1.41L6.12 19.29a.996.996 0 1 1-1.41-1.41L17.88 4.71a.996.996 0 0 1 1.41 0Z"/></symbol><symbol class="mi-solid mi-play-circle" viewBox="0 0 24 24" id="play-circle"><path d="M12 2C6.48 2 2 6.48 2 12s4.48 10 10 10 10-4.48 10-10S17.52 2 12 2ZM9.5 14.67V9.33c0-.79.88-1.27 1.54-.84l4.15 2.67a1 1 0 0 1 0 1.68l-4.15 2.67c-.66.43-1.54-.05-1.54-.84Z"/></symbol><symbol class="mi-solid mi-remove-circle" viewBox="0 0 24 24" id="remove-circle"><path d="M12 2C6.48 2 2 6.48 2 12s4.48 10 10 10 10-4.48 10-10S17.52 2 12 2Zm4 11H8c-.55 0-1-.45-1-1s.45-1 1-1h8c.55 0 1 .45 1 1s-.45 1-1 1Z"/></symbol><symbol class="mi-solid mi-share" viewBox="0 0 24 24" id="share"><path d="M18 16.08c-.76 0-1.44.3-1.96.77L8.91 12.7c.05-.23.09-.46.09-.7s-.04-.47-.09-.7l7.05-4.11c.54.5 1.25.81 2.04.81 1.66 0 3-1.34 3-3s-1.34-3-3-3-3 1.34-3 3c0 .24.04.47.09.7L8.04 9.81C7.5 9.31 6.79 9 6 9c-1.66 0-3 1.34-3 3s1.34 3 3 3c.79 0 1.5-.31 2.04-.81l7.12 4.16c-.05.21-.08.43-.08.65 0 1.61 1.31 2.92 2.92 2.92s2.92-1.31 2.92-2.92-1.31-2.92-2.92-2.92Z"/></symbol><symbol class="mi-solid mi-stop-circle" viewBox="0 0 24 24" id="stop-circle"><path d="M12 2C6.48 2 2 6.48 2 12s4.48 10 10 10 10-4.48 10-10S17.52 2 12 2Zm3 14H9c-.55 0-1-.45-1-1V9c0-.55.45-1 1-1h6c.55 0 1 .45 1 1v6c0 .55-.45 1-1 1Z"/></symbol><symbol class="mi-solid mi-sync" viewBox="0 0 24 24" id="sync"><path d="M11.99 4V2.21c0-.45-.54-.67-.85-.35l-2.8 2.79c-.2.2-.2.51 0 .71l2.79 2.79c.32.31.86.09.86-.36V6c3.31 0 6 2.69 6 6 0 .79-.15 1.56-.44 2.25-.15.36-.04.77.23 1.04.51.51 1.37.33 1.64-.34.37-.91.57-1.91.57-2.95 0-4.42-3.58-8-8-8Zm0 14c-3.31 0-6-2.69-6-6 0-.79.15-1.56.44-2.25.15-.36.04-.77-.23-1.04-.51-.51-1.37-.33-1.64.34-.37.91-.57 1.91-.57 2.95 0 4.42 3.58 8 8 8v1.79c0 .45.54.67.85.35l2.79-2.79c.2-.2.2-.51 0-.71l-2.79-2.79a.5.5 0 0 0-.85.36V18Z"/></symbol><symbol class="mi-solid mi-toggle-off" viewBox="0 0 24 24" id="toggle-off"><path d="M7 7h10c2.76 0 5 2.24 5 5s-2.24 5-5 5H7c-2.76 0-5-2.24-5-5s2.24-5 5-5Zm0 8c1.66 0 3-1.34 3-3S8.66 9 7 9s-3 1.34-3 3 1.34 3 3 3Z"/></symbol><symbol class="mi-solid mi-toggle-on" viewBox="0 0 24 24" id="toggle-on"><path d="M17 7H7c-2.76 0-5 2.24-5 5s2.24 5 5 5h10c2.76 0 5-2.24 5-5s-2.24-5-5-5Zm0 8c-1.66 0-3-1.34-3-3s1.34-3 3-3 3 1.34 3 3-1.34 3-3 3Z"/></symbol><symbol class="mi-solid mi-tune" viewBox="0 0 24 24" id="tune"><path d="M3 18c0 .55.45 1 1 1h5v-2H4c-.55 0-1 .45-1 1ZM3 6c0 .55.45 1 1 1h9V5H4c-.55 0-1 .45-1 1Zm10 14v-1h7c.55 0 1-.45 1-1s-.45-1-1-1h-7v-1c0-.55-.45-1-1-1s-1 .45-1 1v4c0 .55.45 1 1 1s1-.45 1-1ZM7 10v1H4c-.55 0-1 .45-1 1s.45 1 1 1h3v1c0 .55.45 1 1 1s1-.45 1-1v-4c0-.55-.45-1-1-1s-1 .45-1 1Zm14 2c0-.55-.45-1-1-1h-9v2h9c.55 0 1-.45 1-1Zm-5-3c.55 0 1-.45 1-1V7h3c.55 0 1-.45 1-1s-.45-1-1-1h-3V4c0-.55-.45-1-1-1s-1 .45-1 1v4c0 .55.45 1 1 1Z"/></symbol><symbol class="mi-solid mi-zoom-in-map" viewBox="0 0 24 24" id="zoom-in-map"><path d="M3 8c0 .55.45 1 1 1h4c.55 0 1-.45 1-1V4c0-.55-.45-1-1-1s-1 .45-1 1v1.59L4.62 3.21a.996.996 0 1 0-1.41 1.41L5.59 7H4c-.55 0-1 .45-1 1Zm17-1h-1.59l2.38-2.38a.996.996 0 1 0-1.41-1.41L17 5.59V4c0-.55-.45-1-1-1s-1 .45-1 1v4c0 .55.45 1 1 1h4c.55 0 1-.45 1-1s-.45-1-1-1ZM4 17h1.59l-2.38 2.38a.996.996 0 1 0 1.41 1.41L7 18.41V20c0 .55.45 1 1 1s1-.45 1-1v-4c0-.55-.45-1-1-1H4c-.55 0-1 .45-1 1s.45 1 1 1Zm17-1c0-.55-.45-1-1-1h-4c-.55 0-1 .45-1 1v4c0 .55.45 1 1 1s1-.45 1-1v-1.59l2.38 2.38a.996.996 0 1 0 1.41-1.41L18.41 17H20c.55 0 1-.45 1-1Z"/></symbol><symbol class="mi-solid mi-zoom-out-map" viewBox="0 0 24 24" id="zoom-out-map"><path d="M15.85 3.85 17.3 5.3l-2.18 2.16c-.39.39-.39 1.03 0 1.42.39.39 1.03.39 1.42 0L18.7 6.7l1.45 1.45a.5.5 0 0 0 .85-.36V3.5c0-.28-.22-.5-.5-.5h-4.29a.5.5 0 0 0-.36.85Zm-12 4.3L5.3 6.7l2.16 2.18c.39.39 1.03.39 1.42 0 .39-.39.39-1.03 0-1.42L6.7 5.3l1.45-1.45A.5.5 0 0 0 7.79 3H3.5c-.28 0-.5.22-.5.5v4.29c0 .45.54.67.85.36Zm4.3 12L6.7 18.7l2.18-2.16c.39-.39.39-1.03 0-1.42-.39-.39-1.03-.39-1.42 0L5.3 17.3l-1.45-1.45a.5.5 0 0 0-.85.36v4.29c0 .28.22.5.5.5h4.29a.5.5 0 0 0 .36-.85Zm12-4.3L18.7 17.3l-2.16-2.18c-.39-.39-1.03-.39-1.42 0-.39.39-.39 1.03 0 1.42l2.18 2.16-1.45 1.45a.5.5 0 0 0 .36.85h4.29c.28 0 .5-.22.5-.5v-4.29a.5.5 0 0 0-.85-.36Z"/></symbol></svg>