<svg xmlns="http://www.w3.org/2000/svg" width="24" height="24" fill="currentColor" class="mi-solid mi-antenna" viewBox="0 0 24 24">
  <path d="M5.25 7.53c.66-1.96 2.45-3.34 4.57-3.54.55-.05.96-.54.91-1.09-.05-.55-.53-.95-1.09-.91-2.91.27-5.38 2.19-6.29 4.89-1.27 3.78 1.27 6.86 1.38 6.99.2.23.48.36.77.36.23 0 .46-.08.64-.23a1 1 0 0 0 .12-1.41c-.02-.02-1.93-2.34-1.02-5.07Zm4.04 5.16c.23 0 .45-.08.64-.23.42-.35.48-.98.13-1.41-.04-.04-.89-1.1-.47-2.33.3-.9 1.13-1.53 2.11-1.62.55-.05.96-.54.9-1.09a.993.993 0 0 0-1.09-.9c-1.77.16-3.27 1.33-3.82 2.98-.76 2.26.67 4.06.84 4.25.2.23.48.35.76.35Zm10.6 7.86-4.5-9c.37-.36.6-.87.6-1.43 0-1.1-.9-2-2-2s-2 .9-2 2c0 .56.23 1.07.6 1.43l-4.5 9a.993.993 0 0 0 .45 1.34c.49.25 1.09.05 1.34-.45l1.11-2.21 5.25-1.5 1.86 3.71a1.007 1.007 0 0 0 1.35.44c.49-.25.69-.85.45-1.34ZM14 13.23l1.27 2.53-2.11-.84.84-1.69Zm-2.39 4.78 1.1-2.2 2.75 1.1-3.85 1.1Z"/>
</svg>
