<svg xmlns="http://www.w3.org/2000/svg" width="24" height="24" fill="currentColor" viewBox="0 0 24 24">
  <path d="M5 8h2c.6 0 1-.4 1-1V5c0-.6-.4-1-1-1H5c-.6 0-1 .4-1 1v2c0 .6.4 1 1 1zm6 12h2c.6 0 1-.4 1-1v-2c0-.6-.4-1-1-1h-2c-.6 0-1 .4-1 1v2c0 .6.4 1 1 1zm-6 0h2c.6 0 1-.4 1-1v-2c0-.6-.4-1-1-1H5c-.6 0-1 .4-1 1v2c0 .6.4 1 1 1zm0-6h2c.6 0 1-.4 1-1v-2c0-.6-.4-1-1-1H5c-.6 0-1 .4-1 1v2c0 .6.4 1 1 1zm6 0h2c.6 0 1-.4 1-1v-2c0-.6-.4-1-1-1h-2c-.6 0-1 .4-1 1v2c0 .6.4 1 1 1zm5-9v2c0 .6.4 1 1 1h2c.6 0 1-.4 1-1V5c0-.6-.4-1-1-1h-2c-.6 0-1 .4-1 1zm-5 3h2c.6 0 1-.4 1-1V5c0-.6-.4-1-1-1h-2c-.6 0-1 .4-1 1v2c0 .6.4 1 1 1zm6 6h2c.6 0 1-.4 1-1v-2c0-.6-.4-1-1-1h-2c-.6 0-1 .4-1 1v2c0 .6.4 1 1 1zm0 6h2c.6 0 1-.4 1-1v-2c0-.6-.4-1-1-1h-2c-.6 0-1 .4-1 1v2c0 .6.4 1 1 1z"/>
</svg>
