<svg xmlns="http://www.w3.org/2000/svg" width="24" height="24" fill="currentColor" viewBox="0 0 24 24">
  <path d="M14.26 13.07c0 .83-.67 1.5-1.5 1.5h-1.52c-.83 0-1.5-.67-1.5-1.5V13H2v5c0 1.1.9 2 2 2h16c1.1 0 2-.9 2-2v-5h-7.74v.07Zm-1.5.5c.28 0 .5-.22.5-.5v-2.14c0-.28-.22-.5-.5-.5h-1.52c-.28 0-.5.22-.5.5v2.14c0 .28.22.5.5.5h1.52ZM20 7.28h-4.25V5.94c0-1.1-.9-2-2-2h-3.5c-1.1 0-2 .9-2 2v1.34H4c-1.1 0-2 .9-2 2V11h7.74v-.07c0-.83.67-1.5 1.5-1.5h1.52c.83 0 1.5.67 1.5 1.5V11H22V9.28c0-1.1-.9-2-2-2Zm-5.92 0H9.91v-.95c0-.55.45-1 1-1h2.17c.55 0 1 .45 1 1v.95Z"/>
</svg>
