<svg xmlns="http://www.w3.org/2000/svg" width="24" height="24" fill="currentColor" viewBox="0 0 24 24">
  <path d="M22.88 17.88c0 .21-.17.38-.38.38h-1.51c0 .08.01.17.01.25 0 .28-.03.55-.08.81.86.36 1.46 1.2 1.46 2.19v.12a.38.38 0 1 1-.76 0v-.12c0-.65-.38-1.2-.93-1.46-.45 1.08-1.37 1.85-2.44 1.95v-1.49c0-.14-.11-.25-.25-.25s-.25.11-.25.25V22c-1.08-.1-1.99-.87-2.44-1.95-.55.26-.93.82-.93 1.46v.12a.38.38 0 1 1-.76 0v-.12c0-.99.6-1.83 1.46-2.19-.05-.26-.08-.53-.08-.81 0-.08 0-.17.01-.25H13.5a.38.38 0 1 1 0-.76h1.63c.05-.21.12-.41.21-.61a2.364 2.364 0 0 1-1.71-2.27v-.12a.38.38 0 1 1 .76 0v.12c0 .8.58 1.47 1.35 1.6.22-.3.48-.55.78-.75.01-1.09.68-1.97 1.5-1.97s1.49.88 1.5 1.97c.29.2.56.45.78.75.77-.13 1.35-.79 1.35-1.6v-.12a.38.38 0 1 1 .76 0v.12c0 1.08-.72 1.98-1.71 2.27.09.19.16.39.21.61h1.63c.21 0 .38.17.38.38ZM11.01 18h-7V7h16v5c0 .55.45 1 1 1s1-.45 1-1V5c0-.55-.45-1-1-1H3c-.55 0-1 .45-1 1v14c0 .55.45 1 1 1h8c.55 0 1-.45 1-1s-.45-1-1-1Z"/>
</svg>