<svg xmlns="http://www.w3.org/2000/svg" width="24" height="24" fill="currentColor" viewBox="0 0 24 24">
  <path d="M21.75 11.75c0 .41-.34.75-.75.75h-3.02c.01.17.02.33.02.5 0 .56-.06 1.1-.17 1.62 1.71.72 2.92 2.41 2.92 4.38v.25c0 .41-.34.75-.75.75s-.75-.34-.75-.75V19c0-1.3-.76-2.41-1.86-2.93-.91 2.16-2.73 3.69-4.89 3.9V17c0-.28-.22-.5-.5-.5s-.5.22-.5.5v2.97c-2.15-.21-3.98-1.74-4.89-3.9-1.1.52-1.86 1.63-1.86 2.93v.25c0 .41-.34.75-.75.75s-.75-.34-.75-.75V19c0-1.97 1.2-3.66 2.92-4.38C6.06 14.1 6 13.56 6 13c0-.17.01-.33.02-.5H3c-.41 0-.75-.34-.75-.75S2.59 11 3 11h3.25c.11-.42.25-.83.42-1.21-1.97-.58-3.42-2.38-3.42-4.54V5c0-.41.34-.75.75-.75s.75.34.75.75v.25c0 1.61 1.17 2.93 2.7 3.19.44-.6.97-1.11 1.55-1.5C9.02 4.76 10.35 3 12 3s2.97 1.76 3 3.94c.59.4 1.11.91 1.55 1.5 1.53-.26 2.7-1.59 2.7-3.19V5c0-.41.34-.75.75-.75s.75.34.75.75v.25c0 2.16-1.45 3.96-3.42 4.54.17.38.31.79.42 1.21H21c.41 0 .75.34.75.75Z"/>
</svg>