<svg xmlns="http://www.w3.org/2000/svg" width="24" height="24" fill="currentColor" viewBox="0 0 24 24">
  <path d="m2,20c0,1.1.9,2,2,2h7.25v-9.25H2v7.25Zm2.37-1.26l3.54-3.54c.29-.29.77-.29,1.06,0s.29.77,0,1.06l-3.54,3.54c-.15.15-.34.22-.53.22s-.38-.07-.53-.22c-.29-.29-.29-.77,0-1.06ZM20,2h-7.25v9.25h9.25v-7.25c0-1.1-.9-2-2-2Zm-.03,5.74c.29.29.29.77,0,1.06-.15.15-.34.22-.53.22s-.38-.07-.53-.22l-1.24-1.24-1.24,1.24c-.15.15-.34.22-.53.22s-.38-.07-.53-.22c-.29-.29-.29-.77,0-1.06l1.24-1.24-1.24-1.24c-.29-.29-.29-.77,0-1.06s.77-.29,1.06,0l1.24,1.24,1.24-1.24c.29-.29.77-.29,1.06,0s.29.77,0,1.06l-1.24,1.24s1.24,1.24,1.24,1.24ZM2,4v7.25h9.25V2h-7.25c-1.1,0-2,.9-2,2Zm2,1.75h1.75v-1.75c0-.41.34-.75.75-.75s.75.34.75.75v1.75h1.75c.41,0,.75.34.75.75s-.34.75-.75.75h-1.75v1.75c0,.41-.34.75-.75.75s-.75-.34-.75-.75v-1.75h-1.75c-.41,0-.75-.34-.75-.75s.34-.75.75-.75Zm8.75,16.25h7.25c1.1,0,2-.9,2-2v-7.25h-9.25v9.25Zm2.25-6.75h5c.41,0,.75.34.75.75s-.34.75-.75.75h-5c-.41,0-.75-.34-.75-.75s.34-.75.75-.75Zm0,3h5c.41,0,.75.34.75.75s-.34.75-.75.75h-5c-.41,0-.75-.34-.75-.75s.34-.75.75-.75Z"/>
</svg>
