<svg xmlns="http://www.w3.org/2000/svg" width="24" height="24" fill="currentColor" viewBox="0 0 24 24">
  <path d="m18.06,2H5.94c-.52,0-.94.42-.94.94v18.13c0,.52.42.94.94.94h12.13c.52,0,.94-.42.94-.94V2.94c0-.52-.42-.94-.94-.94Zm-7.24,15.02l-2.82,2.82c-.12.12-.27.18-.42.18s-.31-.06-.42-.18c-.23-.23-.23-.61,0-.85l2.82-2.82c.23-.23.61-.23.85,0,.23.23.23.61,0,.85Zm.71-5.58c-.11.11-.27.18-.45.18h-1.47v1.47c0,.17-.07.33-.18.45s-.27.18-.45.18c-.35,0-.63-.28-.63-.63v-1.47h-1.47c-.35,0-.63-.28-.63-.63s.28-.63.63-.63h1.47v-1.47c0-.35.28-.63.63-.63s.63.28.63.63v1.47h1.47c.35,0,.63.28.63.63,0,.17-.07.33-.18.45Zm4.92,8.3h-3.59c-.3,0-.54-.28-.54-.62s.24-.62.54-.62h3.59c.3,0,.54.28.54.62s-.24.62-.54.62Zm0-2.5h-3.59c-.3,0-.54-.28-.54-.62s.24-.62.54-.62h3.59c.3,0,.54.28.54.62s-.24.62-.54.62Zm-3.65-7.14c-.25-.25-.25-.67,0-.92s.67-.25.92,0l1.07,1.07,1.07-1.07c.25-.25.67-.25.92,0s.25.67,0,.92l-1.07,1.07,1.07,1.07c.25.25.25.67,0,.92-.13.13-.29.19-.46.19s-.33-.06-.46-.19l-1.07-1.07-1.07,1.07c-.13.13-.29.19-.46.19s-.33-.06-.46-.19c-.25-.25-.25-.67,0-.92l1.07-1.07-1.07-1.07Zm4.19-4.02c0,.5-.41.91-.91.91H7.91c-.5,0-.91-.41-.91-.91v-1.17c0-.5.41-.91.91-.91h8.17c.5,0,.91.41.91.91v1.17Z"/>
</svg>
