<svg xmlns="http://www.w3.org/2000/svg" width="24" height="24" fill="currentColor" viewBox="0 0 24 24">
  <path d="M20 3h-2c0-.55-.45-1-1-1s-1 .45-1 1H8c0-.55-.45-1-1-1s-1 .45-1 1H4c-1.1 0-2 .9-2 2v15c0 1.1.9 2 2 2h16c1.1 0 2-.9 2-2V5c0-1.1-.9-2-2-2m-2 14a2.5 2.5 0 0 1-4.9.7 4.5 4.5 0 0 1-3.6 1.8 4.52 4.52 0 0 1-4.4-5.48c.36-1.7 1.76-3.09 3.48-3.44a4.5 4.5 0 0 1 4.65 1.91h3.26a2.5 2.5 0 0 1 1.5 4.5Zm2-9.71c0 .39-.32.71-.71.71H4.71C4.32 8 4 7.68 4 7.29V5.7c0-.39.32-.71.71-.71H6V6c0 .55.45 1 1 1s1-.45 1-1V5h8v1c0 .55.45 1 1 1s1-.45 1-1V5h1.29c.39-.01.71.31.71.7zM12.33 14a2.99 2.99 0 0 0-3.44-1.94c-1.14.23-2.08 1.14-2.32 2.29A3.005 3.005 0 0 0 9.5 18c1.27 0 2.4-.8 2.82-2h2.18v1c0 .55.45 1 1 1s1-.45 1-1v-1c.55 0 1-.45 1-1s-.45-1-1-1h-4.18Zm-2.82 2c-.55 0-1-.45-1-1s.45-1 1-1 1 .45 1 1-.45 1-1 1"/>
</svg>
