<svg xmlns="http://www.w3.org/2000/svg" width="24" height="24" fill="currentColor" viewBox="0 0 24 24">
  <path d="M11.5 18c0-3.58 2.92-6.5 6.5-6.5 1.51 0 2.9.52 4.01 1.39V4.03c0-.57-.46-1.03-1.03-1.03H18c0-.55-.45-1-1-1s-1 .45-1 1H8c0-.55-.45-1-1-1s-1 .45-1 1H3.03C2.46 3 2 3.46 2 4.03v16.95c0 .57.46 1.03 1.03 1.03h9.86A6.477 6.477 0 0 1 11.5 18ZM4 7.29V5.7c0-.39.32-.71.71-.71H6v1c0 .55.45 1 1 1s1-.45 1-1v-1h8v1c0 .55.45 1 1 1s1-.45 1-1v-1h1.29c.39 0 .71.32.71.71v1.59c0 .39-.32.71-.71.71H4.71C4.32 8 4 7.68 4 7.29ZM18 13c-2.76 0-5 2.24-5 5s2.24 5 5 5 5-2.24 5-5-2.24-5-5-5Zm2.5 5.75h-1.75v1.75c0 .41-.34.75-.75.75s-.75-.34-.75-.75v-1.75H15.5c-.41 0-.75-.34-.75-.75s.34-.75.75-.75h1.75V15.5c0-.41.34-.75.75-.75s.75.34.75.75v1.75h1.75c.41 0 .75.34.75.75s-.34.75-.75.75Z"/>
</svg>
