<svg xmlns="http://www.w3.org/2000/svg" width="24" height="24" fill="currentColor" viewBox="0 0 24 24">
  <path d="M20.97 3H18c0-.55-.45-1-1-1s-1 .45-1 1H8c0-.55-.45-1-1-1s-1 .45-1 1H3.03C2.46 3 2 3.46 2 4.03v16.95c0 .57.46 1.03 1.03 1.03h17.95c.57 0 1.03-.46 1.03-1.03V4.03c0-.57-.46-1.03-1.03-1.03ZM18 17.33c0 .37-.3.67-.67.67h-4.67a.67.67 0 0 1-.67-.67v-4.67c0-.37.3-.67.67-.67h4.67c.37 0 .67.3.67.67zm2-10.04c0 .39-.32.71-.71.71H4.71C4.32 8 4 7.68 4 7.29V5.7c0-.39.32-.71.71-.71H6v1c0 .55.45 1 1 1s1-.45 1-1v-1h8v1c0 .55.45 1 1 1s1-.45 1-1v-1h1.29c.39 0 .71.32.71.71z"/>
</svg>
