<svg xmlns="http://www.w3.org/2000/svg" width="24" height="24" fill="currentColor" viewBox="0 0 24 24">
  <path d="m13,15.5c0-1.38,1.12-2.5,2.5-2.5h6.51V4.03c0-.57-.46-1.03-1.03-1.03h-2.98c0-.55-.45-1-1-1s-1,.45-1,1h-8c0-.55-.45-1-1-1s-1,.45-1,1h-2.97c-.57,0-1.03.46-1.03,1.03v16.95c0,.57.46,1.03,1.03,1.03h9.97v-6.51ZM4,7.29v-1.59c0-.39.32-.71.71-.71h1.29v1c0,.55.45,1,1,1s1-.45,1-1v-1h8v1c0,.55.45,1,1,1s1-.45,1-1v-1h1.29c.39,0,.71.32.71.71v1.59c0,.39-.32.71-.71.71H4.71c-.39,0-.71-.32-.71-.71Zm18.5,7.71c.28,0,.5.22.5.5v7c0,.28-.22.5-.5.5h-7c-.28,0-.5-.22-.5-.5v-7c0-.28.22-.5.5-.5h2.5v2h2v-2h2.5Z"/>
</svg>
