<svg xmlns="http://www.w3.org/2000/svg" width="24" height="24" fill="currentColor" viewBox="0 0 24 24">
  <path d="M20.98 3H18c0-.55-.45-1-1-1s-1 .45-1 1H8c0-.55-.45-1-1-1s-1 .45-1 1H3.03C2.46 3 2 3.46 2 4.03v16.95c0 .57.46 1.03 1.03 1.03h17.95c.57 0 1.03-.46 1.03-1.03V4.03c0-.57-.46-1.03-1.03-1.03ZM15.5 15.75h-2.75v2.75c0 .41-.34.75-.75.75s-.75-.34-.75-.75v-2.75H8.5c-.41 0-.75-.34-.75-.75s.34-.75.75-.75h2.75V11.5c0-.41.34-.75.75-.75s.75.34.75.75v2.75h2.75c.41 0 .75.34.75.75s-.34.75-.75.75ZM20 7.29c0 .39-.32.71-.71.71H4.71C4.32 8 4 7.68 4 7.29V5.7c0-.39.32-.71.71-.71H6v1c0 .55.45 1 1 1s1-.45 1-1v-1h8v1c0 .55.45 1 1 1s1-.45 1-1v-1h1.29c.39 0 .71.32.71.71v1.59Z"/>
</svg>
