<svg xmlns="http://www.w3.org/2000/svg" width="24" height="24" fill="currentColor" viewBox="0 0 24 24">
  <path d="M20.98 3H18c0-.55-.45-1-1-1s-1 .45-1 1H8c0-.55-.45-1-1-1s-1 .45-1 1H3.03C2.46 3 2 3.46 2 4.03v16.95c0 .57.46 1.03 1.03 1.03h17.95c.57 0 1.03-.46 1.03-1.03V4.03c0-.57-.46-1.03-1.03-1.03M5.5 14c-.83 0-1.5-.67-1.5-1.5S4.67 11 5.5 11s1.5.67 1.5 1.5S6.33 14 5.5 14M20 13c0 .55-.45 1-1 1h-8c-.55 0-1-.45-1-1v-1c0-.55.45-1 1-1h8c.55 0 1 .45 1 1zm0-5.71c0 .39-.32.71-.71.71H4.71C4.32 8 4 7.68 4 7.29V5.7c0-.39.32-.71.71-.71H6v1c0 .55.45 1 1 1s1-.45 1-1v-1h8v1c0 .55.45 1 1 1s1-.45 1-1v-1h1.29c.39 0 .71.32.71.71z"/>
</svg>
