<svg xmlns="http://www.w3.org/2000/svg" width="24" height="24" fill="currentColor" viewBox="0 0 24 24">
  <path d="m14.12,15.47l-1.12,1.12v-4.59c0-.55-.45-1-1-1s-1,.45-1,1v4.59l-1.12-1.12c-.39-.39-1.03-.39-1.41,0s-.39,1.03,0,1.41l2.83,2.83c.39.39,1.03.39,1.41,0l2.83-2.83c.39-.39.39-1.03,0-1.41s-1.03-.39-1.41,0Zm1.55-9.47l-7.37.02c-2.73,0-5.02,2.07-5.3,4.79-.07.7.48,1.31,1.18,1.31h2.48c1.01,0,1.76-.95,1.54-1.93-.11-.49.26-.96.77-.96h6.04c.51-.02.88.45.77.94-.22.99.54,1.92,1.55,1.92h2.48c.7,0,1.25-.62,1.18-1.32-.29-2.72-2.59-4.77-5.32-4.76Z"/>
</svg>
