<svg xmlns="http://www.w3.org/2000/svg" width="24" height="24" fill="currentColor" viewBox="0 0 24 24">
  <path d="m12.02,9.5l2.98,2.98c-.01-1.64-1.34-2.97-2.98-2.98Zm8.98-2.5h-2.59l-2.71-2.71c-.09-.09-.2-.17-.33-.22-.12-.05-.25-.08-.38-.08h-6c-.13,0-.26.03-.38.08-.12.05-.23.12-.33.22l-.74.74,2.77,2.77c.52-.19,1.09-.3,1.68-.3,2.76,0,5,2.24,5,5,0,.59-.11,1.15-.3,1.68l5.22,5.22c.05-.12.08-.26.08-.4v-11c0-.55-.45-1-1-1ZM3.66,3.26c-.39-.35-.99-.34-1.36.03s-.39,1.02,0,1.41l2.29,2.29h-1.59c-.55,0-1,.45-1,1v11c0,.55.45,1,1,1h14.59l1.71,1.71c.2.2.45.29.71.29s.51-.1.71-.29c.38-.38.38-.97.03-1.36L3.66,3.26Zm8.34,14.24c-2.76,0-5-2.24-5-5,0-.89.25-1.71.66-2.43l1.5,1.5c-.1.29-.16.6-.16.92,0,1.65,1.35,3,3,3,.32,0,.63-.07.92-.16l1.5,1.5c-.72.41-1.54.66-2.43.66Z"/>
</svg>
