<svg xmlns="http://www.w3.org/2000/svg" width="24" height="24" fill="currentColor" viewBox="0 0 24 24">
  <path d="m19.98,7.25h-.03v8.03c0,.55-.45,1-1,1h-9.07l-1.95,1.95h6.87l3.89,3.89h0c.13.13.31.21.51.21.4,0,.73-.33.73-.73,0,0,0,0,0,0h0v-3.36h.05c1.05,0,1.91-.86,1.91-1.91v-7.16c0-1.05-.86-1.91-1.91-1.91Zm-3.97,7.05c1.06,0,1.92-.86,1.92-1.92v-7.19c0-1.06-.86-1.92-1.92-1.92H3.86c-1.06,0-1.92.86-1.92,1.92v7.19c0,1.06.86,1.92,1.92,1.92h.05v.48s0,2.9,0,2.9h0s0,0,0,0c0,.4.33.73.73.73.2,0,.38-.08.51-.21h0s3.91-3.91,3.91-3.91h6.94Zm-2.08-6.95c.79,0,1.44.64,1.44,1.44s-.64,1.44-1.44,1.44-1.44-.64-1.44-1.44.64-1.44,1.44-1.44Zm-7.67,2.88c-.79,0-1.44-.64-1.44-1.44s.64-1.44,1.44-1.44,1.44.64,1.44,1.44-.64,1.44-1.44,1.44Zm3.83-2.88c.79,0,1.44.64,1.44,1.44s-.64,1.44-1.44,1.44-1.44-.64-1.44-1.44.64-1.44,1.44-1.44Z"/>
</svg>
