<svg xmlns="http://www.w3.org/2000/svg" width="24" height="24" fill="currentColor" viewBox="0 0 24 24">
 <path d="M16 21c0 .052.002.105.005.158A9.909 9.909 0 0 1 12 22C6.5 22 2 17.5 2 12S6.5 2 12 2c5.186 0 9.483 4 9.957 9.069C21.12 10.412 20.088 10 18.96 10a4.34 4.34 0 0 0-.735.059 4.955 4.955 0 0 0-3.97 3.502l-.002.003a2.805 2.805 0 0 0 .457 2.48c.415.547 1.01.92 1.677 1.05l-.009.027-.004.011a5.073 5.073 0 0 0-.262 1.601v1.451a3 3 0 0 0-.112.815Zm-6.8-4.5 3.6-3.6c.3-.3.4-.6.4-1v-5c0-.6-.5-1.1-1.1-1.1-.6 0-1.1.5-1.1 1.1v4.7l-3.3 3.3c-.5.5-.5 1.1 0 1.6.4.4 1.1.4 1.5 0Z"/>
  <path d="M19.89 19.078v.2h-1.777v-.545a3.008 3.008 0 0 1 .112-.813l.006-.022a2.913 2.913 0 0 1 .738-1.255l.857-.872c.095-.09.17-.192.226-.305l.01-.02a1.217 1.217 0 0 0-.046-1.089l-.003-.004a1.178 1.178 0 0 0-1.153-.579l-.018.002-.016.003a1.167 1.167 0 0 0-.938.783.962.962 0 0 1-.018.052v.002c-.125.322-.408.53-.734.53h-.208a.774.774 0 0 1-.625-.312.805.805 0 0 1-.128-.712 3.098 3.098 0 0 1 .044-.139 2.955 2.955 0 0 1 2.334-1.951 2.652 2.652 0 0 1 1.275.117l.013.004c.6.21 1.15.63 1.562 1.2.254.352.41.708.489 1.053l.001.006c.198.884-.119 1.7-.642 2.224l-.616.632c-.189.193-.34.369-.456.563l-.008.014a1.84 1.84 0 0 0-.198.486l-.003.01a2.754 2.754 0 0 0-.065.392c-.01.11-.015.223-.015.345ZM19 22a1 1 0 1 0 0-2 1 1 0 0 0 0 2Z"/>
</svg>
