<svg xmlns="http://www.w3.org/2000/svg" width="24" height="24" fill="currentColor" viewBox="0 0 24 24">
 <path d="M12 2c5.5 0 10 4.5 10 10 0 .108-.002.216-.005.323A3.003 3.003 0 0 0 19 9.5c-1.655 0-3 1.345-3 3v5c0 .653.21 1.257.564 1.75a2.984 2.984 0 0 0-.56 1.908A9.908 9.908 0 0 1 12 22C6.5 22 2 17.5 2 12S6.5 2 12 2ZM7.7 16.5c.4.4 1.1.4 1.5 0l3.6-3.6c.3-.3.4-.6.4-1v-5c0-.6-.5-1.1-1.1-1.1-.6 0-1.1.5-1.1 1.1v4.7l-3.3 3.3c-.5.5-.5 1.1 0 1.6ZM18.206 20.393A.994.994 0 0 0 18 21c0 .55.45 1 1 1s1-.45 1-1a.994.994 0 0 0-.23-.635.999.999 0 0 0-1.564.029Z"/>
  <path d="M19 18.5a1 1 0 0 1-1-1v-5c0-.55.45-1 1-1s1 .45 1 1v5a1 1 0 0 1-1 1Z"/>
</svg>
