<svg xmlns="http://www.w3.org/2000/svg" width="24" height="24" fill="currentColor" viewBox="0 0 24 24">
<path d="m20.116 15.402.54-3.801a.347.347 0 0 0-.648-.216l-.077.135a1418.599 1418.599 0 0 1-1.71 3l-.009.016-.729 1.277-.076.134a347.404 347.404 0 0 0-.793 1.398c0 .002-.004.006-.008.012-.05.077-.298.456.2.456h2.099l-.54 3.801c-.036.216.132.396.348.396a.423.423 0 0 0 .048-.003.312.312 0 0 0 .252-.177c.138-.238.414-.721.83-1.45.59-1.034 1.462-2.563 2.623-4.582.132-.288 0-.396-.24-.396h-2.11Z"/>
  <path d="m16.404 21.202.198-1.397a2.295 2.295 0 0 1-1.432-.611c-.697-.662-.71-1.493-.642-1.918a2.506 2.506 0 0 1 .37-.961c.416-.737.946-1.666 1.583-2.78.524-.92 1.122-1.965 1.786-3.134a2.353 2.353 0 0 1 2.041-1.196c.927 0 1.683.513 2.07 1.237C21.624 5.675 17.47 2 12.5 2 7 2 2.5 6.5 2.5 12s4.5 10 10 10a9.908 9.908 0 0 0 3.904-.798ZM8.2 16.5c-.5-.5-.5-1.1 0-1.6l3.3-3.3V6.9c0-.6.5-1.1 1.1-1.1.6 0 1.1.5 1.1 1.1v5c0 .4-.1.7-.4 1l-3.6 3.6c-.4.4-1.1.4-1.5 0Z"/>
</svg>
