<svg xmlns="http://www.w3.org/2000/svg" width="24" height="24" fill="currentColor" viewBox="0 0 24 24">
  <path d="m21.87,13.53h-.01c-.4-1.37-1.56-2.31-2.89-2.49.02-.18.03-.36.03-.54,0-3.04-2.46-5.5-5.5-5.5-2.23,0-4.15,1.34-5.02,3.25-.47-.15-.96-.25-1.48-.25-2.76,0-5,2.24-5,5s2.24,5,5,5l11.51-.02c.32,0,.64-.03.97-.12,1.86-.54,2.93-2.48,2.39-4.33Zm-6.35-1.48h-1.96v3.64c0,.28-.22.5-.5.5h-2.11c-.27,0-.5-.22-.5-.5v-3.64h-1.97c-.23,0-.35-.28-.18-.44l3.35-3.35c.2-.2.51-.2.71,0l3.35,3.35c.16.16.05.44-.18.44Z"/>
</svg>
