<svg xmlns="http://www.w3.org/2000/svg" width="24" height="24" viewBox="0 0 24 24">
  <path d="M21.25 19.25h-7.4c-.2-.5-.61-.88-1.1-1.09v-3.17h5.75c.32-.01.65-.04.97-.13a3.486 3.486 0 0 0 2.39-4.33 3.5 3.5 0 0 0-2.89-2.49q.03-.27.03-.54C19 4.46 16.54 2 13.5 2c-2.17 0-4.13 1.27-5.02 3.25C8.01 5.1 7.52 5 7 5c-2.76 0-5 2.24-5 5s2.24 5 5 5h4.26v3.16c-.5.2-.9.59-1.1 1.09H2.75c-.41 0-.75.34-.75.75s.34.75.75.75h7.4c.3.73 1.01 1.25 1.85 1.25s1.55-.52 1.85-1.25h7.4c.41 0 .75-.34.75-.75s-.34-.75-.75-.75"/>
</svg>
