<svg xmlns="http://www.w3.org/2000/svg" width="24" height="24" fill="currentColor" viewBox="0 0 24 24">
  <path d="M17.12 8.12a.996.996 0 0 1 1.41 0l3.18 3.18c.39.39.39 1.02 0 1.41l-3.18 3.18c-.38.38-1.02.38-1.41-.01a.996.996 0 0 1 0-1.41S19.59 12 19.59 12l-2.47-2.47a.996.996 0 0 1 0-1.41Zm-10.24 0a.996.996 0 0 0-1.41 0L2.29 11.3a.996.996 0 0 0 0 1.41s3.18 3.18 3.18 3.18c.38.38 1.02.38 1.41-.01a.996.996 0 0 0 0-1.41S4.41 12 4.41 12l2.47-2.47a.996.996 0 0 0 0-1.41Zm3.07 10.64 5.92-12.69c.23-.5.02-1.1-.48-1.33-.5-.23-1.1-.02-1.33.48L8.14 17.91c-.23.5-.02 1.1.48 1.33.14.06.28.09.42.09.38 0 .74-.21.91-.58Z"/>
</svg>
