<svg xmlns="http://www.w3.org/2000/svg" width="24" height="24" fill="currentColor" viewBox="0 0 24 24">
  <path d="M9.75 9.5v1.75h1.75c.41 0 .75.34.75.75s-.34.75-.75.75H9.75v1.75c0 .41-.34.75-.75.75s-.75-.34-.75-.75v-1.75H6.5c-.41 0-.75-.34-.75-.75s.34-.75.75-.75h1.75V9.5c0-.41.34-.75.75-.75s.75.34.75.75ZM21 6v12c0 .55-.45 1-1 1H4c-.55 0-1-.45-1-1v-2c0-.55.45-1 1-1s1 .45 1 1v1h9V7H5v1c0 .55-.45 1-1 1s-1-.45-1-1V6c0-.55.45-1 1-1h16c.55 0 1 .45 1 1Zm-6 5.5h4V7h-4v4.5Zm4 5.5v-4.5h-4V17h4Z"/>
</svg>
