<svg xmlns="http://www.w3.org/2000/svg" width="24" height="24" fill="currentColor" viewBox="0 0 24 24">
  <path d="m20,3H4c-1.1,0-2,.9-2,2v9c0,1.1.9,2,2,2h.99v4h0s0,0,0,.01c0,.56.45,1.01,1.01,1.01.27,0,.52-.11.7-.29h0s4.72-4.72,4.72-4.72h.5s.09-.01.14-.01h7.92c1.1,0,2-.9,2-2V5c0-1.1-.9-2-2-2ZM7.5,11c-.83,0-1.5-.67-1.5-1.5s.67-1.5,1.5-1.5,1.5.67,1.5,1.5-.67,1.5-1.5,1.5Zm4.5,0c-.83,0-1.5-.67-1.5-1.5s.67-1.5,1.5-1.5,1.5.67,1.5,1.5-.67,1.5-1.5,1.5Zm4.5,0c-.83,0-1.5-.67-1.5-1.5s.67-1.5,1.5-1.5,1.5.67,1.5,1.5-.67,1.5-1.5,1.5Z"/>
</svg>
