<svg xmlns="http://www.w3.org/2000/svg" width="24" height="24" fill="currentColor" class="mi-solid mi-component" viewBox="0 0 24 24">
  <path d="M16.03 13.34c.12.72.67 1.34 1.37 1.56.6.19 1.15.08 1.6-.18V18c0 .55-.45 1-1 1h-3.28c.26-.45.37-1 .18-1.6a2.02 2.02 0 0 0-1.56-1.37A2 2 0 0 0 11 18c0 .37.11.7.28 1H8c-.55 0-1-.45-1-1v-3.28c-.45.26-1 .37-1.6.18a2.02 2.02 0 0 1-1.37-1.56A2 2 0 0 1 6 11c.37 0 .7.11 1 .28V8c0-.55.45-1 1-1h3.28c-.26-.45-.37-1-.18-1.6.22-.7.84-1.25 1.56-1.37A2 2 0 0 1 15 6c0 .37-.11.7-.28 1H18c.55 0 1 .45 1 1v3.28c-.3-.17-.63-.28-1-.28-1.22 0-2.18 1.09-1.97 2.34Z"/>
</svg>
