<svg xmlns="http://www.w3.org/2000/svg" width="24" height="24" fill="currentColor" class="mi-solid mi-contrast" viewBox="0 0 24 24">
<path fill="#252a2e" d="m20.71 19.29-4.18-4.18c.61-.89.97-1.96.97-3.12 0-3.04-2.46-5.5-5.5-5.5-1.16 0-2.23.36-3.12.97L4.71 3.29A.996.996 0 1 0 3.3 4.7l4.18 4.18c-.61.89-.97 1.96-.97 3.12 0 3.04 2.46 5.5 5.5 5.5 1.16 0 2.23-.36 3.12-.97l4.18 4.18c.2.2.45.29.71.29s.51-.1.71-.29a.996.996 0 0 0 0-1.41Zm-5.64-5.64-4.72-4.72c.49-.27 1.05-.43 1.65-.43 1.93 0 3.5 1.57 3.5 3.5 0 .6-.17 1.16-.43 1.65Z"/>
</svg>
