<svg xmlns="http://www.w3.org/2000/svg" width="24" height="24" fill="currentColor" class="mi-solid mi-contrast" viewBox="0 0 24 24">
  <path d="m18 16.94-2.16-2.16c.75-1.03 1.11-2.36.8-3.79a4.755 4.755 0 0 0-3.62-3.62c-1.43-.31-2.76.05-3.79.8L7.07 6.01a.754.754 0 0 0-1.06 0c-.29.29-.29.77 0 1.06l2.16 2.16a4.672 4.672 0 0 0-.8 3.79 4.755 4.755 0 0 0 3.62 3.62c1.43.31 2.76-.05 3.79-.8L16.94 18c.29.29.77.29 1.06 0 .29-.29.29-.77 0-1.06Zm-4.97-8.02a3.25 3.25 0 0 1 2.06 2.06c.33 1.01.14 1.97-.32 2.73l-4.46-4.46c.76-.47 1.71-.65 2.73-.32Z"/>
</svg>
