<svg xmlns="http://www.w3.org/2000/svg" width="24" height="24" fill="currentColor" viewBox="0 0 24 24">
  <path d="m3.5,4v2h-.5c-.28,0-.5.22-.5.5s.22.5.5.5h.5v5h-.5c-.28,0-.5.22-.5.5s.22.5.5.5h.5v5h-.5c-.28,0-.5.22-.5.5s.22.5.5.5h.5v1c0,1.1.9,2,2,2V2c-1.1,0-2,.9-2,2Zm16-2H6.5v20h13c1.1,0,2-.9,2-2V4c0-1.1-.9-2-2-2Zm-6.42,4.4c1.87-.36,3.49,1.26,3.13,3.13-.2,1.04-1.05,1.89-2.09,2.09-1.87.36-3.49-1.26-3.13-3.13.2-1.04,1.05-1.89,2.09-2.09Zm5.81,9.79c-.14.48-.58.81-1.08.81h-8.43c-.5,0-.94-.33-1.08-.82-.14-.51-.31-1.12-.31-1.42,0-.56.25-.87,1.11-1.27.86-.4,2.47-.97,4.49-.97,2.04,0,3.63.57,4.49.97h0c.86.4,1.11.71,1.11,1.27,0,.3-.16.92-.31,1.43Z"/>
</svg>
