<svg xmlns="http://www.w3.org/2000/svg" width="24" height="24" fill="currentColor" viewBox="0 0 24 24">
  <path d="M2 12a1 1 0 0 1 1-1c.552 0 1-.948 1-1.5V6a3 3 0 0 1 3-3h2.5a1 1 0 1 1 0 2H7a1 1 0 0 0-1 1v3.5A2.997 2.997 0 0 1 4.659 12 2.997 2.997 0 0 1 6 14.5V18a1 1 0 0 0 1 1h2.5a1 1 0 1 1 0 2H7a3 3 0 0 1-3-3v-3.5c0-.552-.448-1.5-1-1.5a1 1 0 0 1-1-1ZM18 9.5c0 1.043.533 1.963 1.341 2.5A2.997 2.997 0 0 0 18 14.5V18a1 1 0 0 1-1 1h-2.5a1 1 0 1 0 0 2H17a3 3 0 0 0 3-3v-3.5c0-.552.448-1.5 1-1.5a1 1 0 1 0 0-2c-.552 0-1-.948-1-1.5V6a3 3 0 0 0-3-3h-2.5a1 1 0 1 0 0 2H17a1 1 0 0 1 1 1v3.5Z"/>
</svg>
