<svg xmlns="http://www.w3.org/2000/svg" width="24" height="24" fill="currentColor" viewBox="0 0 24 24">
  <path id="n" d="m7.81,6.4l-1.47-1.47c-.39-.39-1.02-.39-1.41,0h0c-.39.39-.39,1.02,0,1.41l1.47,1.47c.4-.54.88-1.01,1.41-1.41Zm5.19-1.32v-2.08c0-.55-.45-1-1-1h0c-.55,0-1,.45-1,1v2.08c.33-.05.66-.08,1-.08s.67.03,1,.08Zm4.6,2.73l1.47-1.47c.39-.39.39-1.02,0-1.41h0c-.39-.39-1.02-.39-1.41,0l-1.47,1.47c.54.4,1.01.88,1.41,1.41Zm-11.2,8.37l-1.47,1.47c-.39.39-.39,1.02,0,1.41h0c.39.39,1.02.39,1.41,0l1.47-1.47c-.54-.4-1.01-.88-1.41-1.41Zm15.54-1.25c-.18-.63-.72-1.06-1.33-1.15.07-.69-.11-1.45-1.25-2.31-.37-.28-.82-.47-1.28-.47-1.03,0-1.92.62-2.31,1.5-.6-.19-1.27-.22-2.1.46-.52.43-.9,1.06-.9,1.74,0,1.27,1.04,2.29,2.31,2.29h5.31c.15,0,.3-.02.45-.06.86-.25,1.35-1.14,1.1-2Zm-16.94-2.93c0-.34.03-.67.08-1h-2.08c-.55,0-1,.45-1,1h0c0,.55.45,1,1,1h2.08c-.05-.33-.08-.66-.08-1Zm10.04-1.12c.4-.46.9-.81,1.45-1.05-.93-1.93-3.04-3.18-5.41-2.75-1.96.35-3.57,1.9-3.97,3.85-.67,3.25,1.81,6.1,4.95,6.07h0c-.49-.65-.79-1.44-.79-2.31,0-2.09,1.69-3.79,3.77-3.81Z"/>
</svg>
