<svg xmlns="http://www.w3.org/2000/svg" width="24" height="24" fill="currentColor" viewBox="0 0 24 24">
  <path id="m" d="m5,12c0-.34.03-.67.08-1h-2.08c-.55,0-1,.45-1,1s.45,1,1,1h2.08c-.05-.33-.08-.66-.08-1Zm1.4-4.19c.4-.54.88-1.01,1.41-1.41l-1.47-1.47c-.39-.39-1.02-.39-1.41,0s-.39,1.02,0,1.41l1.47,1.47Zm11.2,0l1.47-1.47c.39-.39.39-1.02,0-1.41s-1.02-.39-1.41,0l-1.47,1.47c.54.4,1.01.88,1.41,1.41Zm-11.2,8.37l-1.47,1.47c-.39.39-.39,1.02,0,1.41.2.2.45.29.71.29s.51-.1.71-.29l1.47-1.47c-.54-.4-1.01-.88-1.41-1.41Zm6.6-11.11v-2.08c0-.55-.45-1-1-1s-1,.45-1,1v2.08c.33-.05.66-.08,1-.08s.67.03,1,.08Zm8,5.92h-2.08c.05.33.08.66.08,1s-.03.67-.08,1h2.08c.55,0,1-.45,1-1s-.45-1-1-1Zm-3.4,5.19c-.4.54-.88,1.01-1.41,1.41l1.47,1.47c.2.2.45.29.71.29s.51-.1.71-.29c.39-.39.39-1.02,0-1.41l-1.47-1.47Zm-5.6-9.19c-2.76,0-5,2.24-5,5s2.24,5,5,5,5-2.24,5-5-2.24-5-5-5Zm-1,11.92v2.08c0,.55.45,1,1,1s1-.45,1-1v-2.08c-.33.05-.66.08-1,.08s-.67-.03-1-.08Z"/>
</svg>
