<svg xmlns="http://www.w3.org/2000/svg" width="24" height="24" fill="currentColor" class="mi-solid mi-day-mostly-cloudy" viewBox="0 0 24 24">
  <path d="M6.06 10.58c.31-.05.62-.08.94-.08.24 0 .48.02.73.05a6.996 6.996 0 0 1 5.39-3.02A3.973 3.973 0 0 0 10 6.01c-2.21 0-4 1.79-4 4 0 .2.03.39.06.58Zm4.74-6.11V2H9.2v2.46c.26-.04.53-.06.8-.06s.54.03.8.06Zm3.68 2.19 1.74-1.74-1.13-1.13-1.74 1.74c.43.32.81.7 1.13 1.13ZM4.4 10.01c0-.27.03-.54.06-.8H2v1.6h2.46c-.04-.26-.06-.53-.06-.8Zm2.25-4.48L4.91 3.79 3.78 4.92l1.74 1.74c.32-.43.7-.81 1.13-1.13Zm11.86 16.46c.32 0 .64-.03.97-.12a3.495 3.495 0 0 0-.5-6.82c.02-.18.03-.36.03-.54 0-3.04-2.46-5.5-5.5-5.5-2.23 0-4.15 1.34-5.02 3.25-.47-.15-.96-.25-1.48-.25-2.76 0-5 2.24-5 5s2.24 5 5 5"/>
</svg>
