<svg xmlns="http://www.w3.org/2000/svg" width="24" height="24" fill="currentColor" viewBox="0 0 24 24">
  <path d="M6.76 21.43c.39.39 1.02.39 1.41 0l.44-.44a.996.996 0 1 0-1.41-1.41l-.44.44a.996.996 0 0 0 0 1.41m-4-3c.39.39 1.02.39 1.41 0l.44-.44a.996.996 0 1 0-1.41-1.41l-.44.44a.996.996 0 0 0 0 1.41m8.44-1.85-.44.44a.996.996 0 1 0 1.41 1.41l.44-.44a.996.996 0 1 0-1.41-1.41m6.56 1.85c.39.39 1.02.39 1.41 0l.44-.44a.996.996 0 1 0-1.41-1.41l-.44.44a.996.996 0 0 0 0 1.41m-4 3c.39.39 1.02.39 1.41 0l.44-.44a.996.996 0 1 0-1.41-1.41l-.44.44a.996.996 0 0 0 0 1.41m8.15-10.9a3.5 3.5 0 0 0-2.89-2.49q.03-.27.03-.54c0-3.04-2.46-5.5-5.5-5.5-2.23 0-4.15 1.34-5.02 3.25C8.06 5.1 7.57 5 7.05 5c-2.76 0-5 2.24-5 5s2.24 5 5 5l11.51-.02c.32 0 .64-.03.97-.12a3.495 3.495 0 0 0 2.39-4.33Z"/>
</svg>
