<svg xmlns="http://www.w3.org/2000/svg" width="24" height="24" fill="currentColor" viewBox="0 0 24 24">
  <path d="M21.49 6.246c-.37-.42-.9-.68-1.49-.68H4c-.6 0-1.13.27-1.49.68l9.49 5.18 9.49-5.18ZM17.1 13.45a5.002 5.002 0 0 0 .41 9.983 5 5 0 1 0-.41-9.983Zm.401 7.984a.749.749 0 0 1-.748-.749v-1.503H15.25a.749.749 0 0 1 0-1.497h1.503v-1.503a.749.749 0 0 1 1.497 0v1.503h1.503a.749.749 0 1 1 0 1.497H18.25v1.503a.748.748 0 0 1-.748.749Z"/>
  <path d="M11.11 19.566H4c-.19 0-.36-.03-.53-.08l5.7-7.33 2.35 1.28c.15.08.31.12.48.12.17 0 .33-.04.48-.12l2.35-1.28.206.266a6.502 6.502 0 0 0-3.926 7.144ZM16.049 12.099l-.329-.423L22 8.246v5.486a6.515 6.515 0 0 0-5.951-1.633ZM2 8.246v9.32c0 .56.23 1.06.59 1.42l5.69-7.31L2 8.246Z"/>
</svg>
