<svg xmlns="http://www.w3.org/2000/svg" width="24" height="24" fill="currentColor" viewBox="0 0 24 24">
  <path d="m15.85,3.85l1.45,1.45-2.18,2.16c-.39.39-.39,1.03,0,1.42h0c.39.39,1.03.39,1.42,0l2.16-2.18,1.45,1.45c.31.31.85.09.85-.36V3.5c0-.28-.22-.5-.5-.5h-4.29c-.45,0-.67.54-.36.85ZM3.85,8.15l1.45-1.45,2.16,2.18c.39.39,1.03.39,1.42,0h0c.39-.39.39-1.03,0-1.42l-2.18-2.16,1.45-1.45c.31-.31.09-.85-.36-.85H3.5c-.28,0-.5.22-.5.5v4.29c0,.45.54.67.85.36Zm4.3,12l-1.45-1.45,2.18-2.16c.39-.39.39-1.03,0-1.42h0c-.39-.39-1.03-.39-1.42,0l-2.16,2.18-1.45-1.45c-.31-.31-.85-.09-.85.36v4.29c0,.28.22.5.5.5h4.29c.45,0,.67-.54.36-.85Zm12-4.3l-1.45,1.45-2.16-2.18c-.39-.39-1.03-.39-1.42,0h0c-.39.39-.39,1.03,0,1.42l2.18,2.16-1.45,1.45c-.31.31-.09.85.36.85h4.29c.28,0,.5-.22.5-.5v-4.29c0-.45-.54-.67-.85-.36Z"/>
</svg>
