<svg xmlns="http://www.w3.org/2000/svg" width="24" height="24" fill="currentColor" viewBox="0 0 24 24">
  <path d="M16.78 7.52a.504.504 0 0 0-.78.42v2.4l-4.22-2.82a.504.504 0 0 0-.78.42v2.4L6.78 7.52a.504.504 0 0 0-.78.42v3.07H5V3.5c0-.28-.22-.5-.5-.5h-2c-.28 0-.5.22-.5.5V20c0 .55.45 1 1 1h18c.55 0 1-.45 1-1v-9l-5.22-3.48ZM10 17.5c0 .28-.22.5-.5.5h-2c-.28 0-.5-.22-.5-.5v-2c0-.28.22-.5.5-.5h2c.28 0 .5.22.5.5v2Zm5 0c0 .28-.22.5-.5.5h-2c-.28 0-.5-.22-.5-.5v-2c0-.28.22-.5.5-.5h2c.28 0 .5.22.5.5v2Zm5 0c0 .28-.22.5-.5.5h-2c-.28 0-.5-.22-.5-.5v-2c0-.28.22-.5.5-.5h2c.28 0 .5.22.5.5v2Z"/>
</svg>
