<svg width="25" height="24" viewBox="0 0 25 24" fill="none" xmlns="http://www.w3.org/2000/svg">
<path d="M13.08 11.0299L8.5 6.80991C8.15 6.48991 7.67 6.40991 7.25 6.58991C6.8 6.78991 6.5 7.24991 6.5 7.77991V16.2099C6.5 16.7299 6.79 17.1999 7.25 17.3999C7.4 17.4699 7.56 17.4999 7.71 17.4999C7.99 17.4999 8.27 17.3899 8.5 17.1899L13.08 12.9699C13.34 12.7299 13.5 12.3699 13.5 11.9999C13.5 11.6299 13.35 11.2699 13.08 11.0299Z" fill="#252A2E"/>
<path d="M15.5 16V8C15.5 7.17 16.17 6.5 17 6.5C17.83 6.5 18.5 7.17 18.5 8L18.5 16C18.5 16.83 17.83 17.5 17 17.5C16.17 17.5 15.5 16.83 15.5 16Z" fill="#252A2E"/>
</svg>
