<svg xmlns="http://www.w3.org/2000/svg" width="24" height="24" fill="currentColor" viewBox="0 0 24 24">
  <path d="m20.84,17.93c-.15.04-.3.06-.45.06h-5.31c-1.27,0-2.3-1.02-2.31-2.29,0-.68.38-1.31.9-1.74.83-.68,1.5-.65,2.1-.46.39-.88,1.28-1.5,2.31-1.5.46,0,.91.19,1.28.47,1.14.86,1.32,1.62,1.25,2.31.61.09,1.15.52,1.33,1.15.25.86-.24,1.75-1.1,2Zm-2.84,1.56v.51H6V4h6v5c0,.55.45,1,1,1h5v.51s.05,0,.08,0c.65,0,1.32.22,1.92.6v-2.69c0-.27-.11-.52-.29-.71l-5.41-5.41c-.19-.19-.44-.29-.71-.29h-7.59c-1.1,0-2,.9-2,2v16c0,1.1.9,2,2,2h12c1.1,0,2-.9,2-2v-.51h-2Z"/>
</svg>
