<svg xmlns="http://www.w3.org/2000/svg" width="24" height="24" viewBox="0 0 24 24">
  <path d="M20 18.66V20c0 1.1-.9 2-2 2H6c-1.1 0-2-.9-2-2V4c0-1.1.9-2 2-2h7.59c.27 0 .52.1.71.29l5.41 5.41c.18.19.29.44.29.71v2.93l-.05-.05c-.33-.33-.77-.51-1.24-.51-.25 0-.49.06-.71.15V10h-5c-.55 0-1-.45-1-1V4H6v16h12v-.93c.22.1.46.15.71.15.47 0 .91-.18 1.24-.51l.05-.05Zm1.89-4.01L19.24 12c-.29-.29-.77-.29-1.06 0s-.29.77 0 1.06l1.19 1.19h-7.38c-.41 0-.75.34-.75.75s.34.75.75.75h7.38l-1.19 1.19c-.29.29-.29.77 0 1.06.29.29.77.29 1.06 0l2.65-2.65c.2-.2.2-.51 0-.71Z"/>
</svg>
