<svg xmlns="http://www.w3.org/2000/svg" width="24" height="24" fill="currentColor" viewBox="0 0 24 24">
  <path d="m5,14c.55,0,1-.45,1-1V4h6v5c0,.55.45,1,1,1h5v3c0,.55.45,1,1,1s1-.45,1-1v-4.59c0-.27-.11-.52-.29-.71l-5.41-5.41c-.19-.19-.44-.29-.71-.29h-7.59c-1.1,0-2,.9-2,2v9c0,.55.45,1,1,1Zm6.6,1.34h-2.19v6.66h2.19c1.95,0,3.66-.76,3.66-3.38s-1.68-3.29-3.66-3.29Zm.08,5.21h-.48s0-3.72,0-3.72h.48c1.42,0,1.81.62,1.78,1.94-.02.98-.8,1.77-1.78,1.77Zm-6.19-5.21h-2.49v6.66h1.78v-2.12h.71c1.31,0,2.88-.3,2.88-2.27s-1.46-2.27-2.88-2.27Zm.06,3.17h-.77v-1.71h.77c.84,0,1.06.35,1.06.86s-.22.85-1.06.85Zm15.44-1.67v-1.49h-4.6v6.66h1.8v-2.43h1.95v-1.4h-1.95v-1.33h2.8Z"/>
</svg>
