<svg xmlns="http://www.w3.org/2000/svg" width="24" height="24" fill="currentColor" viewBox="0 0 24 24">
  <path d="M24 16.6v-1.48h-4.03v6.82h1.82v-2.56h2.04V17.9h-2.04v-1.3h2.22Zm-4-8.25c0-.27-.11-.52-.29-.71L14.3 2.23a.99.99 0 0 0-.71-.29H6c-1.1 0-2 .9-2 2v9c0 .55.45 1 1 1s1-.45 1-1v-9h6v5c0 .55.45 1 1 1h5v3c0 .55.45 1 1 1s1-.45 1-1V8.35ZM9.71 19.96h-.04l-1.42-4.84H5.79v6.82h1.63v-2.96c0-.46-.03-1.11-.1-1.95h.04l1.4 4.91h1.75l1.38-4.91h.04c-.04.74-.06 1.21-.06 1.4V21.94h1.69v-6.82H11.1l-1.39 4.84Zm-5.66-1.59v-.05c.32-.08.58-.25.77-.52.2-.27.29-.6.29-.98 0-.58-.23-1.01-.67-1.29s-1.14-.41-2.07-.41H0v6.82h2.66c.8 0 1.44-.18 1.9-.53.46-.36.7-.84.7-1.46 0-.42-.09-.76-.28-1.02-.19-.26-.5-.45-.92-.56Zm-2.21-1.85h.52c.58 0 .87.19.87.57 0 .21-.07.38-.22.49-.14.11-.35.16-.61.16h-.55v-1.22Zm.65 4h-.65v-1.43h.61c.29 0 .52.06.67.18.15.12.23.3.23.52 0 .49-.29.73-.86.73Zm14.42-5.35h-2.36v6.82h1.84v-2.26h.52c.83 0 1.47-.21 1.92-.62s.67-1 .67-1.77c0-.69-.22-1.23-.65-1.61-.43-.38-1.08-.56-1.94-.56Zm.48 2.83c-.16.16-.38.23-.66.23h-.34v-1.57h.48c.51 0 .77.23.77.69 0 .27-.08.49-.25.64Z"/>
</svg>
