<svg xmlns="http://www.w3.org/2000/svg" width="24" height="24" fill="currentColor" viewBox="0 0 24 24">
  <path d="m9.36,17.51c0-1.6-1.04-2.17-2.75-2.17h-2.6v6.66h1.76v-2.31h.5l1.29,2.31h1.91l-1.41-2.55c.87-.3,1.31-.9,1.31-1.95Zm-2.82.81h-.77v-1.52h.77c.74,0,1.06.2,1.06.76s-.32.77-1.06.77Zm4.86,3.68h1.8v-2.43h1.95v-1.4h-1.95v-1.33h2.8v-1.5h-4.6v6.66Zm6.6,0h2v-6.66h-2v6.66Zm1.71-14.29l-5.41-5.41c-.19-.19-.44-.29-.71-.29h-7.59c-1.1,0-2,.9-2,2v9c0,.55.45,1,1,1s1-.45,1-1V4h6v5c0,.55.45,1,1,1h5v3c0,.55.45,1,1,1s1-.45,1-1v-4.59c0-.27-.11-.52-.29-.71Z"/>
</svg>
