<svg xmlns="http://www.w3.org/2000/svg" width="24" height="24" fill="currentColor" viewBox="0 0 24 24">
  <path d="M4.29 15.11H2.45v6.82h4.47v-1.49H4.29v-5.33ZM5 13.94c.55 0 1-.45 1-1v-9h6v5c0 .55.45 1 1 1h5v3c0 .55.45 1 1 1s1-.45 1-1V8.35c0-.27-.11-.52-.29-.71L14.3 2.23a.99.99 0 0 0-.71-.29H6c-1.1 0-2 .9-2 2v9c0 .55.45 1 1 1ZM11.32 15c-1.08 0-1.91.3-2.48.9-.57.6-.85 1.47-.85 2.6s.29 2.02.86 2.62c.57.6 1.39.9 2.46.9s1.91-.3 2.47-.9c.56-.6.84-1.47.84-2.62s-.28-2.02-.84-2.62c-.56-.59-1.38-.89-2.47-.89Zm1.03 5.01c-.23.32-.57.48-1.04.48-.92 0-1.38-.66-1.38-1.98s.46-2 1.39-2c.45 0 .8.16 1.02.49s.34.83.34 1.51-.11 1.18-.34 1.5Zm6.26-2.07v1.42h1.22v1.07c-.23.05-.48.08-.76.08-.5 0-.88-.17-1.15-.5-.27-.33-.4-.82-.4-1.46s.15-1.15.44-1.5.71-.52 1.25-.52c.59 0 1.13.12 1.62.36l.58-1.45c-.28-.12-.62-.23-1-.31a5.94 5.94 0 0 0-1.22-.12c-1.13 0-2.01.31-2.64.92-.63.61-.94 1.47-.94 2.57s.29 2 .86 2.61 1.39.91 2.44.91c.96 0 1.84-.14 2.64-.41v-3.68H18.6Z"/>
</svg>
