<svg xmlns="http://www.w3.org/2000/svg" width="24" height="24" fill="currentColor" viewBox="0 0 24 24">
  <path d="M9.83 16.63h1.67v5.32h1.84v-5.32H15v-1.51H9.83v1.51ZM5 13.94c.55 0 1-.45 1-1v-9h6v5c0 .55.45 1 1 1h5v3c0 .55.45 1 1 1s1-.45 1-1V8.35c0-.27-.11-.52-.29-.71L14.3 2.23a.99.99 0 0 0-.71-.29H6c-1.1 0-2 .9-2 2v9c0 .55.45 1 1 1Zm15.03 2.66v-1.48H16v6.82h1.82v-2.56h2.04V17.9h-2.04v-1.3h2.22Zm-10.96.54c0-1.34-.93-2.02-2.78-2.02H4.05v6.82h1.84v-2.48h.47l1.45 2.48H9.9l-1.99-2.97c.77-.43 1.16-1.04 1.16-1.83Zm-2.83.94H5.9v-1.56h.36c.63 0 .95.23.95.71 0 .57-.32.85-.97.85Z"/>
</svg>
