<svg xmlns="http://www.w3.org/2000/svg" width="24" height="24" fill="currentColor" viewBox="0 0 24 24">
  <path d="m21.04,20.4c-.33,0-.61,0-.85-.04.24-.48.38-1.05.38-1.75,0-2.44-1.67-3.46-3.27-3.46s-3.28,1.02-3.28,3.46,1.67,3.46,3.28,3.46c.56,0,1.13-.13,1.64-.4.33.17.73.28,1.18.28h1.37v-1.54h-.46Zm-3.73.22c-.95,0-1.48-.79-1.48-2.02s.53-1.97,1.48-1.97,1.47.75,1.47,1.97-.53,2.02-1.47,2.02Zm-8.31,1.32h1.8v-2.43h1.95v-1.4h-1.95v-1.33h2.8v-1.5h-4.6v6.66Zm-4.5-8c.55,0,1-.45,1-1V3.94h6v5c0,.55.45,1,1,1h5v3c0,.55.45,1,1,1s1-.45,1-1v-4.59c0-.27-.11-.52-.29-.71l-5.41-5.41c-.19-.19-.44-.29-.71-.29h-7.59c-1.1,0-2,.9-2,2v9c0,.55.45,1,1,1Zm3.36,3.51c0-1.6-1.04-2.17-2.75-2.17h-2.6v6.66h1.76v-2.31h.5l1.29,2.31h1.91l-1.41-2.55c.87-.3,1.31-.9,1.31-1.95Zm-2.82.81h-.77v-1.52h.77c.74,0,1.06.2,1.06.76s-.32.77-1.06.77Z"/>
</svg>
