<svg xmlns="http://www.w3.org/2000/svg" width="24" height="24" fill="currentColor" viewBox="0 0 24 24">
  <path d="m6,3.94h6v5c0,.55.45,1,1,1h5v3c0,.55.45,1,1,1h0c.55,0,1-.45,1-1v-4.59c0-.27-.11-.52-.29-.71l-5.41-5.41c-.19-.19-.44-.29-.71-.29h-7.59c-1.1,0-2,.9-2,2v9c0,.55.45,1,1,1h0c.55,0,1-.45,1-1V3.94Zm-1.2,16.55h2.8v1.45H3v-6.66h1.8v5.21Zm6.34-5.34c-1.61,0-3.28,1.02-3.28,3.46s1.67,3.46,3.28,3.46,3.27-1.02,3.27-3.46-1.67-3.46-3.27-3.46Zm0,5.47c-.95,0-1.48-.79-1.48-2.02s.53-1.97,1.48-1.97,1.47.75,1.47,1.97-.53,2.02-1.47,2.02Zm9.85-2.12v3.43h-1.41v-.88h-.02c-.09.32-.67,1.01-1.67,1.01-2.12,0-2.98-1.48-2.98-3.48s1.15-3.43,3.13-3.43c1.26,0,2.34.42,2.81,2.17l-1.65.46c-.26-.86-.65-1.14-1.17-1.14-.66,0-1.31.43-1.31,1.92,0,1.86.92,2.07,1.4,2.07.58,0,.98-.31,1.17-.8h-.97v-1.31h2.68Z"/>
</svg>
