<svg xmlns="http://www.w3.org/2000/svg" width="24" height="24" fill="currentColor" class="mi-solid mi-flowchart" viewBox="0 0 24 24">
  <path d="M21 18v2c0 .55-.45 1-1 1h-2c-.55 0-1-.45-1-1v-.25h-3.15a2.01 2.01 0 0 1-2.28 1.21 2.01 2.01 0 0 1-1.53-1.54c-.26-1.28.72-2.41 1.96-2.41.84 0 1.55.52 1.85 1.25H17v-.25c0-.55.45-1 1-1h.25v-5.5H5.75v5.5H6c.55 0 1 .45 1 1v2c0 .55-.45 1-1 1H4c-.55 0-1-.45-1-1v-2c0-.55.45-1 1-1h.25v-6c0-.55.45-1 1-1h6v-3H9c-.55 0-1-.45-1-1v-2c0-.55.45-1 1-1h6c.55 0 1 .45 1 1v2c0 .55-.45 1-1 1h-2.25v3h6c.55 0 1 .45 1 1v6H20c.55 0 1 .45 1 1Z"/>
</svg>