<svg xmlns="http://www.w3.org/2000/svg" width="24" height="24" fill="currentColor" viewBox="0 0 24 24">
  <path d="m14.45,14.46v-.15c-.02-.23,0-.47.07-.71.51-1.82,2.19-3.1,4.09-3.1h0c.14,0,.29,0,.43.02,1,.1,1.89.57,2.57,1.26h0c.21-1.19-.71-2.28-1.92-2.28H7.18c-.97,0-1.8.7-1.97,1.65l-1.21,6.85V6h5l2,2h10c.55,0,1-.45,1-1s-.45-1-1-1h-9l-1.71-1.71c-.19-.19-.44-.29-.71-.29h-5.59c-1.1,0-2,.9-2,2v12c0,1.1.9,2,2,2h8.7v-3.09c0-1.1.68-2.04,1.65-2.42l.1-.03Zm7.45,1.35h-.55v-.94c0-.67-.2-1.34-.62-1.85-.61-.74-1.41-1.01-2.13-1.01-1.26,0-2.32.85-2.64,2-.1.35.17.7.53.7.25,0,.46-.18.53-.42.2-.68.83-1.18,1.58-1.18.1,0,.2,0,.3.03.8.14,1.35.9,1.35,1.71v.97h-3.3s-1.1,0-1.1,0h0s-.55,0-.55,0c-.61,0-1.1.49-1.1,1.1v4.99c0,.61.49,1.1,1.1,1.1h6.6c.61,0,1.1-.49,1.1-1.1v-4.99c0-.61-.49-1.1-1.1-1.1Zm-3.29,4.45c-.61,0-1.1-.49-1.1-1.1s.49-1.1,1.1-1.1,1.1.49,1.1,1.1-.49,1.1-1.1,1.1Z"/>
</svg>
