<svg xmlns="http://www.w3.org/2000/svg" width="24" height="24" fill="currentColor" viewBox="0 0 24 24">
  <path d="M16.48 11.67c1.85-.42 3.59-.05 4.99.83l.12-.66c.22-1.22-.73-2.35-1.97-2.35H7.18c-.97 0-1.8.7-1.97 1.65L4 17.99V6h5l2 2h10c.55 0 1-.45 1-1s-.45-1-1-1h-9l-1.71-1.71A1 1 0 0 0 9.58 4H3.99c-1.1 0-2 .9-2 2v12c0 1.1.9 2 2 2h7.82a6.57 6.57 0 0 1-.05-3.86 6.48 6.48 0 0 1 4.71-4.47ZM18 13c-2.76 0-5 2.24-5 5s2.24 5 5 5 5-2.24 5-5-2.24-5-5-5m2.25 5.75h-1.5v1.5c0 .41-.34.75-.75.75s-.75-.34-.75-.75v-1.5h-1.5c-.41 0-.75-.34-.75-.75s.34-.75.75-.75h1.5v-1.5c0-.41.34-.75.75-.75s.75.34.75.75v1.5h1.5c.41 0 .75.34.75.75s-.34.75-.75.75"/>
</svg>
