<svg xmlns="http://www.w3.org/2000/svg" width="24" height="24" fill="currentColor" viewBox="0 0 24 24">
  <path d="m18.79,13.03c-3.4-.52-6.28,2.36-5.76,5.76.32,2.12,2.05,3.85,4.17,4.17,3.4.52,6.28-2.36,5.76-5.76-.32-2.12-2.05-3.85-4.17-4.17Zm1.78,5.07c-.2.19-.51.19-.71,0l-1.36-1.38v3.78c0,.28-.22.5-.5.5s-.5-.22-.5-.5v-3.79l-1.38,1.39c-.1.1-.23.15-.35.15s-.26-.05-.35-.15c-.2-.19-.2-.51,0-.71l2.23-2.24s0,0,0,0c.05-.05.1-.08.16-.11.06-.03.13-.04.19-.04h0c.07,0,.13.01.19.04.06.03.12.06.16.11,0,0,0,0,0,0l2.22,2.24c.19.2.19.51,0,.71Zm-8.81-1.96c.64-2.21,2.47-3.95,4.72-4.47,1.85-.42,3.59-.05,4.99.84l.12-.66c.22-1.22-.73-2.35-1.97-2.35H7.18c-.97,0-1.8.7-1.97,1.65l-1.21,6.85V6h5l2,2h10c.55,0,1-.45,1-1s-.45-1-1-1h-9l-1.71-1.71c-.19-.19-.44-.29-.71-.29h-5.59c-1.1,0-2,.9-2,2v12c0,1.1.9,2,2,2h7.82c-.38-1.17-.44-2.49-.05-3.86Z"/>
</svg>
