<svg xmlns="http://www.w3.org/2000/svg" width="24" height="24" fill="currentColor" viewBox="0 0 24 24">
  <path d="m15.59,11.74c.8-.8,1.87-1.24,3.01-1.24.14,0,.27,0,.41.02,1,.1,1.91.56,2.58,1.26h0c.21-1.19-.71-2.28-1.91-2.28H7.18c-.97,0-1.8.7-1.97,1.65l-1.21,6.85V6h5l2,2h10c.55,0,1-.45,1-1s-.45-1-1-1h-9l-1.71-1.71c-.19-.19-.44-.29-.71-.29h-5.59c-1.1,0-2,.9-2,2v12c0,1.1.9,2,2,2h8.7v-3.37c0-1.05.7-1.94,1.66-2.23.08-1,.51-1.94,1.23-2.66Zm6.58,4.06h-.82v-.93c0-1.4-.99-2.68-2.39-2.86-.12-.02-.25-.02-.37-.02-1.52,0-2.75,1.23-2.75,2.75v1.06h-.82c-.46,0-.82.37-.82.82v5.54c0,.46.37.82.82.82h7.15c.46,0,.82-.37.82-.82v-5.54c0-.46-.37-.82-.82-.82Zm-3.57,4.45c-.61,0-1.1-.49-1.1-1.1s.49-1.1,1.1-1.1,1.1.49,1.1,1.1-.49,1.1-1.1,1.1Zm1.64-4.45h-3.3v-.97c0-.81.55-1.57,1.35-1.72.1-.02.21-.03.31-.03.91,0,1.65.74,1.65,1.65v1.06Z"/>
</svg>
