<svg xmlns="http://www.w3.org/2000/svg" width="24" height="24" fill="currentColor" viewBox="0 0 24 24">
  <path d="m16.48,11.67c1.85-.42,3.59-.05,4.99.83l.12-.66c.22-1.22-.73-2.35-1.97-2.35H7.18c-.97,0-1.8.7-1.97,1.65l-1.21,6.85V6h5l2,2h10c.55,0,1-.45,1-1h0c0-.55-.45-1-1-1h-9l-1.71-1.71c-.19-.19-.44-.29-.71-.29h-5.59c-1.1,0-2,.9-2,2v12c0,1.1.9,2,2,2h7.82c-.38-1.17-.44-2.49-.05-3.86.64-2.21,2.47-3.95,4.71-4.47Zm1.52,1.33c-2.76,0-5,2.24-5,5s2.24,5,5,5,5-2.24,5-5-2.24-5-5-5Zm2.25,5.75h-1.5v1.5c0,.41-.34.75-.75.75h0c-.41,0-.75-.34-.75-.75v-1.5h-1.5c-.41,0-.75-.34-.75-.75h0c0-.41.34-.75.75-.75h1.5v-1.5c0-.41.34-.75.75-.75h0c.41,0,.75.34.75.75v1.5h1.5c.41,0,.75.34.75.75h0c0,.41-.34.75-.75.75Z"/>
</svg>
