<svg xmlns="http://www.w3.org/2000/svg" width="24" height="24" fill="currentColor" viewBox="0 0 24 24">
  <path d="M18.79 13.03a5.03 5.03 0 0 0-1.59 9.93 5.03 5.03 0 0 0 1.59-9.93m1.78 5.07c-.2.19-.51.19-.71 0l-1.36-1.38v3.78c0 .28-.22.5-.5.5s-.5-.22-.5-.5v-3.79l-1.38 1.39a.485.485 0 0 1-.7 0c-.2-.19-.2-.51 0-.71l2.23-2.24c.05-.05.1-.08.16-.11s.13-.04.19-.04c.07 0 .13.01.19.04s.12.06.16.11l2.22 2.24c.19.2.19.51 0 .71m-8.81-1.96a6.47 6.47 0 0 1 4.72-4.47c1.85-.42 3.59-.05 4.99.84l.12-.66c.22-1.22-.73-2.35-1.97-2.35H7.18c-.97 0-1.8.7-1.97 1.65L4 18V6h5l2 2h10c.55 0 1-.45 1-1s-.45-1-1-1h-9l-1.71-1.71A1 1 0 0 0 9.58 4H3.99c-1.1 0-2 .9-2 2v12c0 1.1.9 2 2 2h7.82a6.57 6.57 0 0 1-.05-3.86"/>
</svg>
