<svg xmlns="http://www.w3.org/2000/svg" width="24" height="24" fill="currentColor" viewBox="0 0 24 24">
  <path d="m14.44,17.76c-.63-.91-.89-2.09-.56-3.33.36-1.38,1.49-2.48,2.88-2.82,1.94-.47,3.7.5,4.51,2.04l.32-1.81c.22-1.22-.73-2.35-1.97-2.35H7.18c-.97,0-1.8.7-1.97,1.65l-1.21,6.85V6h5l2,2h10c.55,0,1-.45,1-1s-.45-1-1-1h-9l-1.71-1.71c-.19-.19-.44-.29-.71-.29h-5.59c-1.1,0-2,.9-2,2v12c0,1.1.9,2,2,2h7.14c.37-1.01,1.3-1.45,1.75-1.66.36-.17.89-.38,1.55-.57Zm.87-2.89c-.45,1.86,1.19,3.5,3.05,3.05.87-.21,1.59-.93,1.8-1.8.45-1.86-1.19-3.5-3.05-3.05-.87.21-1.59.93-1.8,1.8Zm6.65,4.82c-.81-.37-2.32-.91-4.22-.91s-3.41.54-4.22.91c-.81.37-1.04.67-1.04,1.19,0,.28.15.86.29,1.34.13.45.54.77,1.01.77h3.96s3.96,0,3.96,0c.47,0,.88-.31,1.01-.77.14-.48.29-1.06.29-1.34,0-.53-.23-.82-1.04-1.19Z"/>
</svg>
