<svg xmlns="http://www.w3.org/2000/svg" width="24" height="24" fill="currentColor" viewBox="0 0 24 24">
  <path d="M3 18c0-.889.386-1.687 1-2.236V4.125a1 1 0 0 1 1-1h5.236a1 1 0 0 1 1 1v8.784c.4.406.762.852 1.077 1.333H13.5a1 1 0 0 1 1 1v1.966A2.5 2.5 0 0 0 11.05 19H8.83A3.001 3.001 0 0 1 3 18Zm2.497-7.572c1.295.14 2.76.453 3.658.931.2.106.394.22.584.341V4.5H5.5l-.004 5.928ZM7.118 19a1.5 1.5 0 1 0-2.236-2 1.5 1.5 0 0 0 2.236 2ZM13.5 18a1.496 1.496 0 0 1 1.5 1.5 1.5 1.5 0 1 1-1.5-1.5ZM17.622 6.696a.811.811 0 1 0-1.622 0V20h5v-1.624h-3.378V6.696Z"/>
</svg>
