<svg xmlns="http://www.w3.org/2000/svg" width="24" height="24" fill="currentColor" class="mi-solid mi-full-screen" viewBox="0 0 24 24">
  <path d="M4 3h4c.55 0 1 .45 1 1s-.45 1-1 1H5v3c0 .55-.45 1-1 1s-1-.45-1-1V4c0-.55.45-1 1-1Zm11 1c0 .55.45 1 1 1h3v3c0 .55.45 1 1 1s1-.45 1-1V4c0-.55-.45-1-1-1h-4c-.55 0-1 .45-1 1ZM4 15c-.55 0-1 .45-1 1v4c0 .55.45 1 1 1h4c.55 0 1-.45 1-1s-.45-1-1-1H5v-3c0-.55-.45-1-1-1Zm15 1v3h-3c-.55 0-1 .45-1 1s.45 1 1 1h4c.55 0 1-.45 1-1v-4c0-.55-.45-1-1-1s-1 .45-1 1Z"/>
</svg>
