<svg xmlns="http://www.w3.org/2000/svg" width="24" height="24" fill="currentColor" viewBox="0 0 24 24">
 <path d="M1 4a3 3 0 0 1 3-3h16a3 3 0 0 1 3 3v16a3 3 0 0 1-3 3H4a3 3 0 0 1-3-3V4Zm3 15.944c.238.037.502.056.79.056 1.69 0 2.733-.961 3.132-2.883l1.67-7.848h2.931a1 1 0 0 1 .924.618l.759 1.837-3.722 4.453h2.72l2.05-2.658.972 2.658h2.534l-1.897-4.329 3.63-4.359H17.74l-1.896 2.596-.661-1.921a1 1 0 0 0-.945-.675H9.98l.094-.482c.062-.336.184-.608.365-.816a.904.904 0 0 1 .715-.31c.331 0 .676.08 1.033.24l.622-1.74C12.271 4.127 11.662 4 10.984 4c-.912 0-1.622.228-2.13.684-.502.45-.86 1.168-1.072 2.152l-.14.653-1.422.653-.233 1.127h1.267l-1.585 7.498c-.099.467-.267.803-.505 1.01-.239.208-.516.311-.832.311-.108 0-.219-.008-.332-.024v1.88Z"/>
</svg>
