<svg xmlns="http://www.w3.org/2000/svg" width="24" height="24" fill="currentColor" viewBox="0 0 24 24">
  <path d="m14,9.5c0-.83-.67-1.5-1.5-1.5h-4c-.83,0-1.5.67-1.5,1.5s.67,1.5,1.5,1.5h4c.83,0,1.5-.67,1.5-1.5Zm1.5,3.5h-4c-.83,0-1.5.67-1.5,1.5s.67,1.5,1.5,1.5h4c.83,0,1.5-.67,1.5-1.5s-.67-1.5-1.5-1.5Zm6.5-8v-2c0-.55-.45-1-1-1h-2c-.55,0-1,.45-1,1H6c0-.55-.45-1-1-1h-2c-.55,0-1,.45-1,1v2c0,.55.45,1,1,1v12c-.55,0-1,.45-1,1v2c0,.55.45,1,1,1h2c.55,0,1-.45,1-1h12c0,.55.45,1,1,1h2c.55,0,1-.45,1-1v-2c0-.55-.45-1-1-1V6c.55,0,1-.45,1-1Zm-3,13c-.55,0-1,.45-1,1H6c0-.55-.45-1-1-1V6c.55,0,1-.45,1-1h12c0,.55.45,1,1,1v12Z"/>
</svg>
