<svg xmlns="http://www.w3.org/2000/svg" width="24" height="24" fill="currentColor" viewBox="0 0 24 24">
  <path d="M3.5 9.3 20.5 9.3a.7.7 0 0 1 0 1.4H3.5a.7.7 0 0 1 0-1.4z"/>
  <path d="M4.3284441 9.8024836 5.5784441 5.5524836a.7.7 0 0 1 .3117298-.4029211l2.4993583-1.499615.5663279-.0690028L12 4.5176131l3.0441399-.9366594a.7.7 0 0 1 .5660071.0688003l2.4996782 1.4996088a.7.7 0 0 1 .3122719.4029211l1.25 4.25a.7.7 0 0 1-1.3428897.3954119l-1.1721105-3.9884289-1.9980325-1.1987106-2.9533419.9084912a.7.7 0 0 1-.4113251 0l-2.9533419-.9084912-1.9980325 1.1987106-1.1721105 3.9884289a.7.7 0 0 1-1.3428897-.3954119z"/>
  <path d="M8.25 11.9A3.35 3.35 0 1 1 8.25 18.6A3.35 3.35 0 1 1 8.25 11.9M8.25 13.3A1.95 1.95 0 1 0 8.25 17.2A1.95 1.95 0 1 0 8.25 13.3z"/>
  <path d="M15.75 11.9A3.35 3.35 0 1 1 15.75 18.6A3.35 3.35 0 1 1 15.75 11.9M15.75 13.3A1.95 1.95 0 1 0 15.75 17.2A1.95 1.95 0 1 0 15.75 13.3z"/>
  <path d="M10.9 14.55h2.2a.7.7 0 0 1 0 1.4h-2.2a.7.7 0 0 1 0-1.4z"/>
</svg>
