<svg xmlns="http://www.w3.org/2000/svg" width="24" height="24" fill="currentColor" viewBox="0 0 24 24">
  <path d="M3.5 9.3 20.5 9.3a.7.7 0 0 1 0 1.4H3.5a.7.7 0 0 1 0-1.4z"/>
  <path d="M4.3284441 9.8024836 5.5784441 5.5524836a.7.7 0 0 1 .3117298-.4029211l2.4993583-1.499615.5663279-.0690028L12 4.5176131l3.0441399-.9366594a.7.7 0 0 1 .5660071.0688003l2.4996782 1.4996088a.7.7 0 0 1 .3122719.4029211l1.25 4.25a.7.7 0 0 1-1.3428897.3954119l-1.1721105-3.9884289-1.9980325-1.1987106-2.9533419.9084912a.7.7 0 0 1-.4113251 0l-2.9533419-.9084912-1.9980325 1.1987106-1.1721105 3.9884289a.7.7 0 0 1-1.3428897-.3954119z"/>
  <path d="M8.2500184 18.6A3.3500697 3.3500697 0 0 0 11.6 15.2500185A3.3500698 3.3500698 0 0 0 8.2500184 11.9A3.350038 3.350038 0 0 0 4.8999999 15.24999A3.3500378 3.3500378 0 0 0 8.2496177 18.5999998zM8.2503566 17.2A1.9500697 1.9500697 0 0 1 10.2 15.2499816A1.9500698 1.9500698 0 0 1 8.2499815 13.3A1.950038 1.950038 0 0 1 6.2999999 15.2496847A1.9500378 1.9500378 0 0 1 8.25001 17.1999998z"/>
  <path d="M15.7500184 18.6A3.3500698 3.3500698 0 0 0 19.1 15.2500184A3.3500697 3.3500697 0 0 0 15.7500185 11.9A3.3500059 3.3500059 0 0 0 12.3999999 15.2499984A3.3500058 3.3500058 0 0 0 15.7494867 18.5999998zM15.7502536 17.1999999A1.9500698 1.9500698 0 0 1 17.7 15.2499815A1.9500697 1.9500697 0 0 1 15.7499816 13.3A1.9500059 1.9500059 0 0 1 13.7999999 15.2500016A1.9500058 1.9500058 0 0 1 15.7500016 17.1999999z"/>
  <path d="M10.9 14.55h2.2a.7.7 0 0 1 0 1.4h-2.2a.7.7 0 0 1 0-1.4z"/>
</svg>
