<svg xmlns="http://www.w3.org/2000/svg" width="24" height="24" fill="currentColor" viewBox="0 0 24 24">
  <path d="m20,9.29h-.27c-.24-4.06-3.61-7.29-7.73-7.29s-7.49,3.23-7.73,7.29h-.27c-1.1,0-2,.9-2,2v2.71c0,1.1.9,3.29,2,3.29h2c.55,0,1-.45,1-1v-6c0-.45-.31-.82-.73-.95.21-2.98,2.7-5.35,5.73-5.35s5.52,2.36,5.73,5.35c-.42.12-.73.49-.73.95v6c0,.39.23.72.56.88l-.86.99-1.42.59c-.24-.18-.55-.27-.86-.18l-1.69.47c-.53.15-.84.7-.7,1.23.15.53.7.84,1.23.7l1.69-.47c.4-.11.67-.45.72-.83l1.51-.62c.07-.03.14-.08.19-.13l1.41-1.62h1.22c1.1,0,2-2.19,2-3.29v-2.71c0-1.1-.9-2-2-2Z"/>
</svg>
