<svg xmlns="http://www.w3.org/2000/svg" width="24" height="24" fill="currentColor" viewBox="0 0 24 24">
  <path d="M13 14a1 1 0 0 1 1-1h6a1 1 0 0 1 1 1v6a1 1 0 0 1-1 1h-6a1 1 0 0 1-1-1v-6ZM6.126 3.573a1 1 0 0 1 1.748 0l3.3 5.941A1 1 0 0 1 10.3 11H3.7a1 1 0 0 1-.875-1.486l3.3-5.94ZM3 17a4 4 0 1 1 8 0 4 4 0 0 1-8 0ZM20.825 3.528c-.975-.805-2.326-.527-3.22.367L17 4.5l-.605-.605c-.894-.894-2.245-1.172-3.22-.367A2.421 2.421 0 0 0 13 7.112l3.26 3.577a1 1 0 0 0 1.479 0L21 7.111c1-1 .94-2.659-.175-3.583Z"/>
</svg>
