<svg xmlns="http://www.w3.org/2000/svg" width="24" height="24" fill="currentColor" viewBox="0 0 24 24">
  <path d="M3.485 2.068h-.002l-.776-.775a1 1 0 0 0-1.414 1.414l.775.776A1.985 1.985 0 0 0 2 4v16c0 1.1.9 2 2 2h16c.179 0 .352-.024.517-.068l.776.775a1 1 0 0 0 1.414-1.414l-.775-.776v-.002l-5.02-5.02.026.029-2.13-2.13h.003l-3.937-3.937v.003L8.99 7.576h.003L3.485 2.067Zm9.835 12.666 3.945 3.945L5.46 18.67c-.48 0-.73-.57-.41-.93l2.64-2.93c.22-.25.61-.25.83 0l2.36 2.63 2.44-2.706ZM22 17.755 6.246 2H20c1.1 0 2 .9 2 2v13.755Z"/>
</svg>
