<svg xmlns="http://www.w3.org/2000/svg" width="24" height="24" fill="currentColor" viewBox="0 0 24 24">
  <path d="m14.48 10.93.34-.34a.996.996 0 1 0-1.41-1.41l-.34.34zm-1.14-4.66a3.11 3.11 0 0 1 4.78.48c.84 1.24.58 2.93-.48 3.99l-1 1a.948.948 0 0 0 1.34 1.34l.93-.93c1.85-1.85 2.15-4.84.49-6.86-1.91-2.31-5.34-2.43-7.4-.37l-1.09 1.09a.948.948 0 0 0 1.34 1.34zm-3.81 6.78-.36.36a.996.996 0 1 0 1.41 1.41l.36-.36zm1.12 4.69C9.3 19.09 7 18.92 5.87 17.25c-.84-1.24-.58-2.93.48-3.99l1.02-1.02a.948.948 0 0 0-1.34-1.34l-.95.95c-1.85 1.85-2.15 4.84-.49 6.86 1.91 2.31 5.34 2.43 7.4.37l1.11-1.11a.948.948 0 0 0-1.34-1.34zM4.93 6.34l12.73 12.73a.996.996 0 1 0 1.41-1.41L6.34 4.93a.996.996 0 1 0-1.41 1.41"/>
</svg>
