<svg xmlns="http://www.w3.org/2000/svg" width="24" height="24" fill="currentColor" viewBox="0 0 24 24">
  <path d="M10.01 2C6.1 2.04 2.96 5.3 3 9.2a7.214 7.214 0 0 0 4.96 6.9l1.57 4.53c.16.45.79.45.95 0l1.57-4.53a7.24 7.24 0 0 0 4.59-9.15 7.211 7.211 0 0 0-4.449-4.54 7.254 7.254 0 0 0-2.18-.41ZM13 9.75h-2.25V12c0 .41-.34.75-.75.75s-.75-.34-.75-.75V9.75H7c-.41 0-.75-.34-.75-.75s.34-.75.75-.75h2.25V6c0-.41.34-.75.75-.75s.75.34.75.75v2.25H13c.41 0 .75.34.75.75s-.34.75-.75.75Z"/>
  <path d="m12.535 17.756.996 2.874c.16.45.79.45.95 0l1.57-4.53a7.24 7.24 0 0 0 4.59-9.15A7.224 7.224 0 0 0 14.01 2a7.083 7.083 0 0 0-.278.008 8.24 8.24 0 0 1-.893 14.867l-.305.881Z"/>
</svg>
