<svg xmlns="http://www.w3.org/2000/svg" width="24" height="24" fill="currentColor" viewBox="0 0 24 24">
  <path d="M3.84 14.28c-1.42.66-1.83 1.17-1.83 2.1 0 .5.27 1.52.51 2.37.23.79.95 1.33 1.78 1.33h6.8c-.21-.8-.02-1.67.52-2.31-.69-.81-.82-2-.27-2.94l.41-.69.39-.68c.16-.29.39-.51.64-.71-.49-.04-1-.07-1.53-.07-3.35 0-6 .94-7.42 1.6m7.42-2.99c2.42 0 4.39-1.97 4.39-4.39s-1.97-4.39-4.39-4.39S6.87 4.48 6.87 6.9s1.97 4.39 4.39 4.39m10.64 6.99c.02-.17.04-.35.04-.52s-.01-.34-.04-.51l.9-.72a.54.54 0 0 0 .13-.69l-.4-.69-.4-.69a.53.53 0 0 0-.66-.23l-1.06.42c-.27-.21-.57-.39-.89-.52l-.17-1.12a.55.55 0 0 0-.54-.46h-1.6c-.27 0-.49.19-.54.46l-.17 1.1c-.33.13-.63.31-.91.53l-1.04-.41a.53.53 0 0 0-.66.23l-.4.69-.4.69c-.13.23-.08.53.13.69l.87.7c-.02.17-.04.35-.04.53s.02.37.04.54l-.87.7a.54.54 0 0 0-.13.69l.4.69.4.69c.13.23.42.33.66.23l1.06-.41c.27.21.57.38.89.51l.17 1.12c.04.26.27.46.54.46h1.6c.27 0 .49-.19.54-.46l.17-1.14c.31-.13.61-.31.87-.51l1.08.42c.25.1.53 0 .66-.23l.4-.69.4-.69c.13-.23.08-.53-.13-.69l-.9-.72Zm-2.05-.14a1.88 1.88 0 0 1-1.48 1.48 1.89 1.89 0 0 1-2.22-2.22c.14-.74.74-1.34 1.48-1.48a1.89 1.89 0 0 1 2.22 2.22"/>
</svg>
