<svg xmlns="http://www.w3.org/2000/svg" width="24" height="24" fill="currentColor" viewBox="0 0 24 24">
  <path d="m10.4,11.48c2.2,0,3.99-1.79,3.99-3.99s-1.79-3.99-3.99-3.99-3.99,1.79-3.99,3.99,1.79,3.99,3.99,3.99Zm.21,1.27c-.07,0-.14,0-.21,0-3.05,0-5.44.86-6.74,1.45-1.3.6-1.66,1.07-1.66,1.91,0,.45.24,1.38.47,2.15.21.72.87,1.21,1.61,1.21h7.2c-.78-1.13-1.24-2.49-1.24-3.97,0-.98.21-1.9.57-2.75Zm10.19,3.27c.02-.16.04-.33.04-.5s-.01-.32-.03-.48l.86-.69c.2-.16.25-.44.12-.66l-.39-.66-.38-.66c-.13-.22-.4-.31-.63-.22l-1.01.4c-.26-.2-.54-.37-.85-.5l-.16-1.06c-.04-.25-.25-.44-.51-.44h-.76s-.76,0-.76,0c-.25,0-.47.18-.51.44l-.16,1.05c-.31.13-.6.3-.87.5l-.99-.39c-.24-.09-.51,0-.63.22l-.38.66-.39.66c-.13.22-.08.5.12.66l.83.67c-.02.16-.04.33-.04.5s.02.35.04.52l-.83.67c-.2.16-.25.44-.12.66l.39.66.38.66c.13.22.4.31.63.22l1.01-.39c.26.2.54.36.85.49l.16,1.07c.04.25.25.44.51.44h.76s.76,0,.76,0c.25,0,.47-.18.51-.44l.16-1.08c.3-.13.58-.29.83-.48l1.02.4c.24.09.51,0,.63-.22l.38-.66.39-.66c.13-.22.08-.5-.12-.66l-.86-.69Zm-1.95-.14c-.13.7-.71,1.28-1.41,1.41-1.26.24-2.35-.85-2.11-2.11.13-.7.71-1.28,1.41-1.41,1.26-.24,2.35.85,2.11,2.11Z"/>
</svg>
