<svg xmlns="http://www.w3.org/2000/svg" width="24" height="24" fill="currentColor" viewBox="0 0 24 24">
<path d="M3 9.2C2.96 5.3 6.1 2.04 10.01 2a7.254 7.254 0 0 1 2.181.41 7.211 7.211 0 0 1 4.45 4.54 7.24 7.24 0 0 1-4.59 9.15l-1.57 4.53c-.16.45-.79.45-.95 0L7.96 16.1A7.214 7.214 0 0 1 3 9.2Zm4.016.107A2.996 2.996 0 0 0 10 12a2.992 2.992 0 0 0 3-3 2.992 2.992 0 0 0-3-3 2.996 2.996 0 0 0-2.99 2.762"/>
  <path d="m13.53 20.63-.995-2.874.305-.88a8.24 8.24 0 0 0 .893-14.868c.092-.004.185-.007.278-.008 3.03.1 5.68 2.07 6.63 4.95a7.24 7.24 0 0 1-4.59 9.15l-1.57 4.53c-.16.45-.79.45-.95 0Z"/>
</svg>
