<svg xmlns="http://www.w3.org/2000/svg" width="24" height="24" fill="currentColor" viewBox="0 0 24 24">
  <path d="m13.69,2.14C6.85,1.02,1.02,6.85,2.14,13.69c.68,4.14,4.02,7.49,8.17,8.17,6.84,1.12,12.68-4.71,11.55-11.55-.68-4.14-4.02-7.49-8.17-8.17Zm3.31,14.86H7c-.55,0-1-.45-1-1h0c0-.55.45-1,1-1h10c.55,0,1,.45,1,1h0c0,.55-.45,1-1,1Zm0-4H7c-.55,0-1-.45-1-1h0c0-.55.45-1,1-1h10c.55,0,1,.45,1,1h0c0,.55-.45,1-1,1Zm0-4H7c-.55,0-1-.45-1-1h0c0-.55.45-1,1-1h10c.55,0,1,.45,1,1h0c0,.55-.45,1-1,1Z"/>
</svg>
