<svg xmlns="http://www.w3.org/2000/svg" width="24" height="24" fill="currentColor" viewBox="0 0 24 24">
  <path d="m21.86,17.53c-.4-1.37-1.56-2.31-2.89-2.49.02-.18.03-.36.03-.54,0-3.04-2.46-5.5-5.5-5.5-2.23,0-4.15,1.34-5.02,3.25-.47-.15-.96-.25-1.48-.25-2.76,0-5,2.24-5,5s2.24,5,5,5h0l11.51-.02c.32,0,.64-.03.97-.12,1.86-.54,2.93-2.48,2.39-4.33ZM7.55,8.7c-.9-.31-1.62-1.01-1.94-1.87-.38-1.04-.21-2.04.3-2.83.09-.14-.05-.32-.22-.27-1.85.6-3.06,2.51-2.37,4.57.36,1.07,1.27,1.92,2.41,2.25,1.79.52,3.48-.18,4.36-1.43.12-.17-.06-.39-.27-.33-.69.2-1.47.2-2.27-.08Z"/>
</svg>
