<svg xmlns="http://www.w3.org/2000/svg" width="24" height="24" fill="currentColor" viewBox="0 0 24 24">
  <path d="m19.86,16.08c0-.08.02-.16.02-.25.03-1.4-1.08-2.56-2.48-2.59-1.03-.02-1.93.57-2.35,1.45-.22-.07-.44-.12-.68-.13-1.27-.03-2.33.98-2.36,2.26-.03,1.27.98,2.33,2.26,2.36h0l5.31.11c.15,0,.3,0,.45-.05.86-.23,1.37-1.11,1.14-1.98-.17-.64-.7-1.08-1.31-1.18Zm-2.43-4.34c1.75.04,3.21,1.19,3.73,2.75.74-.87,1.04-2.07.7-3.24-.4-1.37-1.56-2.31-2.89-2.49.02-.18.03-.36.03-.54,0-3.04-2.46-5.5-5.5-5.5-2.23,0-4.15,1.34-5.02,3.25-.47-.15-.96-.25-1.48-.25-2.76,0-5,2.24-5,5s2.24,5,5,5h3.7c.5-1.56,1.94-2.68,3.65-2.66.77-.85,1.89-1.34,3.07-1.32Z"/>
</svg>
