<svg xmlns="http://www.w3.org/2000/svg" width="24" height="24" fill="currentColor" viewBox="0 0 24 24">
  <path d="m14.45,10.36c.2.2.45.29.71.29s.51-.1.71-.29l5.52-5.52c.39-.39.39-1.02,0-1.41s-1.02-.39-1.41,0l-5.52,5.52c-.39.39-.39,1.02,0,1.41Zm6.8.13l-.95-.95h0s-.75-.74-.75-.74l-2.65,2.65c-.49.49-1.13.73-1.77.73s-1.28-.24-1.77-.73c-.98-.98-.98-2.56,0-3.54l2.65-2.65-.08-.08s0,0,0,0l-.76-.76s0,0,0,0l-.75-.75s0,0,0,0l-.75-.75s0,0,0,0l-.27-.27h0s-.37-.37-.37-.37c-.26-.26-.61-.41-1-.49-.7-.22-1.56-.18-2.54.16-1.3.45-2.68,1.36-3.89,2.57-1.21,1.21-2.12,2.59-2.57,3.89-.32.92-.37,1.74-.19,2.41.41-1.12,1.78-2.72,3.69-4.17,2.69-2.04,5.41-3,6.06-2.14.66.86-1,3.22-3.69,5.27-2,1.52-4.02,2.44-5.19,2.45l7.88,7.88.31-.31h0s-.31.31-.31.31c.38.38.91.57,1.54.57,1.54,0,3.65-1.1,5.6-3.06,1.24-1.24,2.19-2.62,2.69-3.9.55-1.42.48-2.57-.2-3.25ZM1.71,18.97c0,1.51.97,2.75,2.15,2.75s2.15-1.24,2.15-2.75c0-1.83-2.15-4.81-2.15-4.81,0,0-2.15,2.98-2.15,4.81Z"/>
</svg>
