<svg xmlns="http://www.w3.org/2000/svg" width="24" height="24" fill="currentColor" viewBox="0 0 24 24">
  <path d="M11.93 2C6.41 2 1.92 6.46 1.92 11.98S6.38 21.99 11.9 22c.93 0 1.69-.74 1.7-1.67v-.03c.02-.41-.12-.8-.4-1.1-.23-.32-.37-.7-.4-1.1 0-.93.74-1.69 1.67-1.7h1.93c2.97 0 5.42-2.32 5.6-5.28.14-5.02-4.46-9.16-10.07-9.12M5.5 12c-.83 0-1.5-.67-1.5-1.5S4.67 9 5.5 9 7 9.67 7 10.5 6.33 12 5.5 12m4-5C8.67 7 8 6.33 8 5.5S8.67 4 9.5 4s1.5.67 1.5 1.5S10.33 7 9.5 7m5 0c-.83 0-1.5-.67-1.5-1.5S13.67 4 14.5 4s1.5.67 1.5 1.5S15.33 7 14.5 7m4 5c-.83 0-1.5-.67-1.5-1.5S17.67 9 18.5 9s1.5.67 1.5 1.5-.67 1.5-1.5 1.5"/>
</svg>
