<svg xmlns="http://www.w3.org/2000/svg" width="24" height="24" fill="currentColor" viewBox="0 0 24 24">
  <path d="m21.04,13.93c-.18-.63-.72-1.06-1.33-1.15,0-.08.01-.16.01-.25,0-1.4-1.14-2.54-2.54-2.54-1.03,0-1.92.62-2.31,1.5-.22-.07-.45-.12-.69-.12-1.27,0-2.31,1.03-2.31,2.31s1.03,2.31,2.31,2.31h5.31c.15,0,.3-.02.45-.06.86-.25,1.35-1.14,1.1-2Zm-9.46,3.54c-1.94-.67-3.48-2.17-4.15-4.02-.81-2.23-.45-4.38.64-6.06.2-.31-.1-.7-.46-.58-3.97,1.29-6.56,5.39-5.08,9.79.77,2.29,2.73,4.11,5.16,4.82,3.84,1.11,7.46-.39,9.34-3.07.26-.37-.13-.84-.58-.71-1.48.43-3.15.43-4.87-.17Z"/>
</svg>
