<svg xmlns="http://www.w3.org/2000/svg" width="24" height="24" fill="currentColor" viewBox="0 0 24 24">
  <path d="m3,17h18c.55,0,1,.45,1,1h0c0,.55-.45,1-1,1H3c-.55,0-1-.45-1-1h0c0-.55.45-1,1-1Zm-.5-4.43c.36.21.82.08,1.03-.28l.47-.82.48.83c.21.36.67.48,1.03.28h0c.36-.21.48-.66.28-1.02l-.49-.84h.95c.41,0,.75-.34.75-.75h0c0-.41-.34-.75-.75-.75h-.95l.47-.82c.21-.36.09-.82-.27-1.03h0c-.36-.2-.82-.08-1.03.28l-.47.82-.47-.82c-.21-.36-.67-.48-1.03-.28h0c-.36.21-.48.67-.27,1.03l.47.82h-.95c-.41,0-.75.34-.75.75h0c0,.41.34.75.75.75h.95l-.48.83c-.2.36-.08.82.28,1.02h0Zm8,0h0c.36.21.82.08,1.03-.28l.47-.82.48.83c.21.36.67.48,1.03.28h0c.36-.21.48-.66.28-1.02l-.48-.83h.95c.41,0,.75-.34.75-.75h0c0-.41-.34-.75-.75-.75h-.96l.47-.82c.21-.36.08-.82-.27-1.03h0c-.36-.21-.82-.08-1.02.27l-.48.82-.47-.82c-.21-.36-.67-.48-1.02-.27h0c-.36.21-.48.67-.27,1.03l.47.82h-.96c-.41,0-.75.33-.75.74h0c0,.41.34.75.75.75h.95l-.48.83c-.2.36-.08.82.28,1.02Zm12.5-2.6c0-.41-.34-.75-.75-.75h-.95l.47-.82c.21-.36.08-.82-.27-1.03h0c-.36-.21-.82-.08-1.02.27l-.48.83-.47-.82c-.21-.36-.67-.48-1.02-.27h0c-.36.21-.48.67-.27,1.03l.47.82h-.95c-.42,0-.76.33-.76.74h0c0,.41.34.75.75.75h.95l-.48.83c-.21.36-.08.82.28,1.02h0c.36.21.82.08,1.03-.28l.47-.82.48.83c.21.36.67.48,1.03.28h0c.36-.21.48-.66.28-1.02l-.48-.83h.95c.4,0,.74-.35.74-.76h0Z"/>
</svg>
