<svg xmlns="http://www.w3.org/2000/svg" width="24" height="24" fill="currentColor" viewBox="0 0 24 24">
  <path d="M16.61 13.08c1.68 0 3.04-1.36 3.04-3.04S18.29 7 16.61 7s-3.04 1.36-3.04 3.04 1.36 3.04 3.04 3.04Zm-8.16-1c1.95 0 3.54-1.59 3.54-3.54S10.4 5 8.45 5 4.91 6.59 4.91 8.54s1.59 3.54 3.54 3.54Zm13.28 3.07c-.99-.45-2.8-1.11-5.13-1.11-2.32 0-4.15.65-5.13 1.11-.99.45-1.27.81-1.27 1.45 0 .35.19 1.05.35 1.64.16.54.66.92 1.23.92h9.63c.57 0 1.07-.38 1.23-.92.17-.58.35-1.29.35-1.64 0-.64-.28-1-1.27-1.45Zm-11.15-1.79a14.495 14.495 0 0 0-8.11 1.13c-1.15.53-1.48.95-1.48 1.69 0 .4.22 1.22.41 1.91a1.5 1.5 0 0 0 1.43 1.07h5.94c-.05-.12-.1-.23-.14-.36-.32-1.12-.43-1.71-.43-2.2 0-2.1 1.62-2.9 2.37-3.24Z"/>
</svg>
