<svg xmlns="http://www.w3.org/2000/svg" width="24" height="24" fill="currentColor" viewBox="0 0 24 24">
  <path d="M14.5 11.94c2.23 0 4.04-1.81 4.04-4.04s-1.81-4.04-4.04-4.04-4.04 1.81-4.04 4.04 1.81 4.04 4.04 4.04ZM9 11c0-.55-.45-1-1-1H2c-.55 0-1 .45-1 1s.45 1 1 1h6c.55 0 1-.45 1-1Zm12.32 3.68c-1.31-.6-3.72-1.48-6.82-1.47-3.08 0-5.51.87-6.82 1.47-1.31.6-1.68 1.08-1.68 1.93 0 .46.25 1.39.47 2.18.21.72.88 1.22 1.63 1.22h12.8c.76 0 1.42-.5 1.63-1.22.23-.77.47-1.72.47-2.18 0-.85-.37-1.33-1.68-1.93Z"/>
</svg>
