<svg xmlns="http://www.w3.org/2000/svg" width="24" height="24" fill="currentColor" viewBox="0 0 24 24">
  <path d="m12.66,6.25c-.54-.15-1.08.17-1.22.71-.14.53.17,1.08.71,1.22,1.29.35,2.37,1.17,3.04,2.33.67,1.16.85,2.5.5,3.79-.14.53.17,1.08.71,1.22.09.02.17.03.26.03.44,0,.85-.29.97-.74.48-1.81.24-3.69-.7-5.31-.94-1.62-2.44-2.78-4.25-3.26Zm2.38,10.9c-.57-1.04-1.95-1.28-2.84-.5-.44.39-1.14.27-1.42-.25l-3.05-5.54c-.29-.52-.02-1.17.55-1.33,1.14-.33,1.67-1.63,1.1-2.67l-1.4-2.54c-.4-.72-1.33-.94-2.01-.47-2.62,1.82-3.45,5.34-1.91,8.14l3.8,6.9c1.54,2.8,4.95,3.99,7.89,2.75.76-.32,1.08-1.23.68-1.95l-1.4-2.54Zm4.59-9.06c-1.34-2.31-3.49-3.97-6.07-4.66-.54-.14-1.08.17-1.22.71-.14.53.17,1.08.71,1.22,2.06.55,3.79,1.88,4.86,3.73,1.07,1.85,1.35,4.01.8,6.07-.14.53.17,1.08.71,1.22.09.02.17.03.26.03.44,0,.85-.29.97-.74.69-2.58.34-5.27-1-7.59Z"/>
</svg>
