<svg xmlns="http://www.w3.org/2000/svg" width="24" height="24" fill="currentColor" viewBox="0 0 24 24">
  <path d="m18.99,10.95v-.23s-.02-.03-.02-.05c-.02-.05-.04-.09-.07-.14-.02-.04-.04-.08-.07-.11-.03-.04-.07-.07-.11-.1-.04-.03-.07-.06-.12-.08-.02,0-.03-.02-.05-.03L6.02,5.05h0c-.05-.02-.1-.02-.15-.03-.04,0-.08-.02-.13-.03h0s-.06,0-.09.02c-.06,0-.13.01-.19.04h0s-.02.01-.03.02c-.08.04-.15.08-.21.14h0c-.07.07-.12.15-.16.24h0s-.02.09-.03.14c0,.05-.03.09-.03.14h0c0,.05.02.1.03.14,0,.05,0,.09.03.14h0l5.16,12.53.03.06s.03.05.04.07c.04.05.08.1.13.14.02.01.03.03.05.04.07.05.15.09.23.11h.01c.05.01.11.02.16.02h.02c.09,0,.17-.02.25-.05h.02s.03-.03.05-.03c.06-.03.11-.06.16-.1.03-.02.05-.05.07-.07.03-.04.06-.09.09-.13.02-.03.03-.06.04-.1,0-.02.02-.04.02-.06l1.16-4.63,4.24,4.24c.14.14.33.22.52.22s.38-.07.52-.22c.29-.29.29-.75,0-1.04l-4.24-4.24,4.63-1.16h.01c.08-.02.16-.06.23-.11.02-.01.03-.03.05-.04.05-.04.09-.09.13-.14.02-.02.03-.05.04-.07.01-.02.03-.04.03-.06.01-.03,0-.05.02-.08.01-.05.02-.1.03-.15h.03Z"/>
</svg>
