<svg xmlns="http://www.w3.org/2000/svg" width="24" height="24" fill="currentColor" viewBox="0 0 24 24">
  <path d="m16.9,12.53s-.04-.08-.07-.11c-.03-.04-.07-.07-.11-.1-.04-.03-.07-.06-.12-.08-.02,0-.03-.02-.05-.03L4.02,7.05c-.05-.02-.1-.02-.15-.03-.04,0-.08-.02-.13-.03-.03,0-.06,0-.09.02-.06,0-.13.01-.19.04-.01,0-.02,0-.03.02-.08.04-.15.08-.21.14-.07.07-.12.15-.16.24-.02.04-.02.09-.03.14,0,.05-.03.09-.03.14s.02.1.03.14c0,.05,0,.09.03.14l5.16,12.53s.02.04.03.06c.01.03.03.05.04.07.04.05.08.1.13.14.02.01.03.03.05.04.07.05.15.09.23.11h.01s.11.02.16.02h.02c.09,0,.17-.02.25-.05h.02s.03-.03.05-.03c.06-.03.11-.06.16-.1.03-.02.05-.05.07-.07.03-.04.06-.09.09-.13.02-.03.03-.06.04-.1,0-.02.02-.04.02-.06l1.16-4.63,4.24,4.24c.14.14.33.22.52.22s.38-.07.52-.22c.29-.29.29-.75,0-1.04l-4.24-4.24,4.63-1.16h.01c.08-.02.16-.06.23-.11.02,0,.03-.03.05-.04.05-.04.09-.09.13-.14.02-.02.03-.05.04-.07.01-.02.03-.04.03-.06.01-.03,0-.05.02-.08.01-.05.02-.1.03-.15h.03v-.24s-.02-.03-.02-.05c-.02-.05-.04-.09-.07-.14Zm4.35-7.28h-6.5c-.41,0-.75.34-.75.75s.34.75.75.75h6.5c.41,0,.75-.34.75-.75s-.34-.75-.75-.75Z"/>
</svg>
