<svg xmlns="http://www.w3.org/2000/svg" width="24" height="24" fill="currentColor" viewBox="0 0 24 24">
  <path d="m21.99,17.4s-.02-.05-.04-.08c-.01-.02-.02-.05-.04-.06-.02-.02-.04-.04-.06-.06-.02-.02-.04-.03-.07-.05-.01,0-.02-.01-.03-.02l-7.16-2.95s-.06-.01-.09-.02c-.02,0-.05-.01-.07-.02-.02,0-.03,0-.05.01-.03,0-.07,0-.11.02,0,0-.01,0-.02.01-.05.02-.09.05-.12.08-.04.04-.07.09-.09.14-.01.02-.01.05-.02.08,0,.03-.02.05-.02.08s.01.06.02.08c0,.03,0,.05.02.08l2.95,7.16s.01.02.02.03c0,.02.02.03.02.04.02.03.05.06.07.08.01,0,.02.02.03.02.04.03.09.05.13.06h0s.06.01.09.01h.01c.05,0,.1-.01.14-.03h.01s.02-.02.03-.02c.03-.02.06-.03.09-.06.02-.01.03-.03.04-.04.02-.02.03-.05.05-.07.01-.02.02-.03.02-.06,0-.01.01-.02.01-.03l.66-3.22,3.24-.69h0s.09-.03.13-.06c.01,0,.02-.02.03-.02.03-.02.05-.05.07-.08.01-.01.02-.03.02-.04,0-.01.02-.02.02-.03,0-.02,0-.03.01-.05,0-.03.01-.06.02-.09h.02v-.14s-.01-.02-.01-.03Zm-9.99-.97v-3.55c.3-.17.55-.42.72-.72h3.55c.35.6.98,1,1.72,1,1.1,0,2-.9,2-2,0-.74-.4-1.38-1-1.72v-3.55c.6-.35,1-.98,1-1.72,0-1.1-.9-2-2-2-.68,0-1.27.34-1.63.85h-3.73c-.36-.51-.96-.85-1.63-.85s-1.27.34-1.63.85h-3.73c-.36-.51-.96-.85-1.63-.85-1.1,0-2,.9-2,2,0,.74.4,1.38,1,1.72v3.55c-.6.35-1,.98-1,1.72s.4,1.38,1,1.72v3.55c-.6.35-1,.98-1,1.72,0,1.1.9,2,2,2,.74,0,1.38-.4,1.72-1h3.55c.35.6.98,1,1.72,1,1.1,0,2-.9,2-2,0-.74-.4-1.38-1-1.72Zm-1-4.28c-.55,0-1-.45-1-1s.45-1,1-1,1,.45,1,1-.45,1-1,1Zm7,0c-.55,0-1-.45-1-1s.45-1,1-1,1,.45,1,1-.45,1-1,1Zm0-9c.55,0,1,.45,1,1s-.45,1-1,1-1-.45-1-1,.45-1,1-1Zm-7,0c.55,0,1,.45,1,1s-.45,1-1,1-1-.45-1-1,.45-1,1-1Zm-7,0c.55,0,1,.45,1,1s-.45,1-1,1-1-.45-1-1,.45-1,1-1Zm0,7c.55,0,1,.45,1,1s-.45,1-1,1-1-.45-1-1,.45-1,1-1Zm0,9c-.55,0-1-.45-1-1s.45-1,1-1,1,.45,1,1-.45,1-1,1Zm5.28-2h-3.55c-.17-.3-.42-.55-.72-.72v-3.55c.6-.35,1-.98,1-1.72s-.4-1.38-1-1.72v-3.55c.35-.2.63-.5.8-.87h3.39c.32.68,1,1.15,1.8,1.15s1.48-.47,1.8-1.15h3.39c.17.37.45.67.8.87v3.55c-.3.17-.55.42-.72.72h-3.55c-.35-.6-.98-1-1.72-1-1.1,0-2,.9-2,2,0,.74.4,1.38,1,1.72v3.55c-.3.17-.55.42-.72.72Zm1.72,2c-.55,0-1-.45-1-1s.45-1,1-1,1,.45,1,1-.45,1-1,1Z"/>
</svg>
