<svg xmlns="http://www.w3.org/2000/svg" width="24" height="24" fill="currentColor" viewBox="0 0 24 24">
  <path d="m22,12.01c0-.74-.4-1.38-1-1.72v-4.55c.6-.35,1-.98,1-1.72,0-1.1-.9-2-2-2-.74,0-1.38.4-1.72,1h-4.55c-.35-.6-.98-1-1.72-1-1.1,0-2,.9-2,2,0,.74.4,1.38,1,1.72v4.55c-.3.17-.55.42-.72.72h-4.55c-.35-.6-.98-1-1.72-1-1.1,0-2,.9-2,2,0,.74.4,1.38,1,1.72v4.55c-.6.35-1,.98-1,1.72,0,1.1.9,2,2,2s2-.9,2-2c0-.74-.4-1.38-1-1.72v-4.55c.3-.17.55-.42.72-.72h4.55c.35.6.98,1,1.72,1,1.1,0,2-.9,2-2,0-.74-.4-1.38-1-1.72v-4.55c.3-.17.55-.42.72-.72h4.55c.17.3.42.55.72.72v4.55c-.6.35-1,.98-1,1.72s.4,1.38,1,1.72v4.55c-.3.17-.55.42-.72.72h-4.55c-.35-.6-.98-1-1.72-1-1.1,0-2,.9-2,2s.9,2,2,2c.74,0,1.38-.4,1.72-1h4.55c.35.6.98,1,1.72,1,1.1,0,2-.9,2-2,0-.74-.4-1.38-1-1.72v-4.55c.6-.35,1-.98,1-1.72ZM4,21.01c-.55,0-1-.45-1-1s.45-1,1-1,1,.45,1,1-.45,1-1,1Zm0-8c-.55,0-1-.45-1-1s.45-1,1-1,1,.45,1,1-.45,1-1,1Zm8,0c-.55,0-1-.45-1-1s.45-1,1-1,1,.45,1,1-.45,1-1,1Zm0-8c-.55,0-1-.45-1-1s.45-1,1-1,1,.45,1,1-.45,1-1,1Zm8-2c.55,0,1,.45,1,1s-.45,1-1,1-1-.45-1-1,.45-1,1-1Zm0,18c-.55,0-1-.45-1-1s.45-1,1-1,1,.45,1,1-.45,1-1,1Zm0-8c-.55,0-1-.45-1-1s.45-1,1-1,1,.45,1,1-.45,1-1,1Z"/>
</svg>
