<svg xmlns="http://www.w3.org/2000/svg" width="24" height="24" fill="currentColor" viewBox="0 0 24 24">
<path d="M13 17.21v-2.87c.59-.26 1.06-.74 1.31-1.34h2.88c.37.91 1.27 1.55 2.31 1.55a2.5 2.5 0 0 0 2.5-2.5c0-1.02-.62-1.9-1.5-2.29V6.79C21.38 6.4 22 5.52 22 4.5A2.5 2.5 0 0 0 19.5 2c-1.02 0-1.9.62-2.29 1.5h-2.92C13.9 2.62 13.02 2 12 2s-1.9.62-2.29 1.5H6.79C6.4 2.62 5.52 2 4.5 2A2.5 2.5 0 0 0 2 4.5c0 1.02.62 1.9 1.5 2.29v2.97c-.88.39-1.5 1.27-1.5 2.29s.62 1.9 1.5 2.29v2.87C2.62 17.6 2 18.48 2 19.5A2.5 2.5 0 0 0 4.5 22c1.02 0 1.9-.62 2.29-1.5h2.93c.39.88 1.27 1.5 2.29 1.5a2.5 2.5 0 0 0 2.5-2.5c0-1.02-.62-1.9-1.5-2.29Zm-1-3.66c-.83 0-1.5-.67-1.5-1.5s.67-1.5 1.5-1.5 1.5.67 1.5 1.5-.67 1.5-1.5 1.5Zm9-1.5c0 .83-.67 1.5-1.5 1.5s-1.5-.67-1.5-1.5.67-1.5 1.5-1.5 1.5.67 1.5 1.5ZM19.5 3c.83 0 1.5.67 1.5 1.5S20.33 6 19.5 6 18 5.33 18 4.5 18.67 3 19.5 3ZM12 3c.83 0 1.5.67 1.5 1.5S12.83 6 12 6s-1.5-.67-1.5-1.5S11.17 3 12 3ZM3 4.5C3 3.67 3.67 3 4.5 3S6 3.67 6 4.5 5.33 6 4.5 6 3 5.33 3 4.5Zm0 7.55c0-.83.67-1.5 1.5-1.5s1.5.67 1.5 1.5-.67 1.5-1.5 1.5-1.5-.67-1.5-1.5ZM4.5 21c-.83 0-1.5-.67-1.5-1.5S3.67 18 4.5 18s1.5.67 1.5 1.5S5.33 21 4.5 21Zm5.21-2.5H6.78a2.5 2.5 0 0 0-1.29-1.29v-2.87c.88-.39 1.5-1.27 1.5-2.29s-.62-1.9-1.5-2.29V6.79A2.5 2.5 0 0 0 6.78 5.5H9.7c.39.88 1.27 1.5 2.29 1.5s1.9-.62 2.29-1.5h2.92a2.5 2.5 0 0 0 1.29 1.29v2.97c-.56.24-1 .69-1.26 1.24h-2.98c-.4-.85-1.26-1.45-2.26-1.45a2.5 2.5 0 0 0-2.5 2.5c0 1.02.62 1.9 1.5 2.29v2.87A2.5 2.5 0 0 0 9.7 18.5ZM12 21c-.83 0-1.5-.67-1.5-1.5S11.17 18 12 18s1.5.67 1.5 1.5S12.83 21 12 21Zm11-2.74s-.02-.05-.04-.08c-.01-.02-.02-.05-.04-.06l-.06-.06s-.04-.03-.07-.05c0 0-.02-.01-.03-.02l-7.16-2.95s-.06 0-.09-.02c-.02 0-.05-.01-.07-.02-.02 0-.03 0-.05.01-.03 0-.07 0-.11.02h-.02c-.04.02-.09.05-.12.08a.42.42 0 0 0-.09.14c-.01.02-.01.05-.02.08 0 .03-.02.05-.02.08s.01.06.02.08c0 .03 0 .05.02.08L18 22.73s.01.02.02.03c0 .02.02.03.02.04.02.03.05.06.07.08.01 0 .02.02.03.02.06.05.14.07.22.07h.01s.1 0 .14-.03h.01s.02-.02.03-.02c.03-.02.06-.03.09-.06.02-.01.03-.03.04-.04.02-.02.03-.05.05-.07.01-.02.02-.03.02-.06 0-.01.01-.02.01-.03l.66-3.22 3.24-.69s.09-.03.13-.06c.01 0 .02-.02.03-.02.03-.02.05-.05.07-.08.01 0 .02-.03.02-.04s.02-.02.02-.03c0-.02 0-.03.01-.05 0-.03.01-.06.02-.09h.02v-.17l.03.04Z"/>
</svg>
