<svg xmlns="http://www.w3.org/2000/svg" width="24" height="24" fill="currentColor" viewBox="0 0 24 24">
  <path d="M21.9 11.95c0-1.02-.62-1.9-1.5-2.29V6.79c.88-.39 1.5-1.27 1.5-2.29A2.5 2.5 0 0 0 19.4 2c-1.02 0-1.9.62-2.29 1.49h-2.88C13.84 2.61 12.97 2 11.94 2s-1.9.62-2.29 1.49H6.77A2.5 2.5 0 0 0 1.98 4.5c0 1.02.62 1.9 1.5 2.29v2.87c-.88.39-1.5 1.27-1.5 2.29s.62 1.9 1.5 2.29v2.97c-.88.39-1.5 1.27-1.5 2.29a2.5 2.5 0 0 0 2.5 2.5c1.02 0 1.9-.62 2.29-1.49h2.88c.39.88 1.26 1.49 2.29 1.49s1.9-.62 2.29-1.49h2.88a2.5 2.5 0 0 0 4.79-1.01c0-1.02-.62-1.9-1.5-2.29v-2.97c.88-.39 1.5-1.27 1.5-2.29ZM19.4 3c.83 0 1.5.67 1.5 1.5S20.23 6 19.4 6s-1.5-.67-1.5-1.5.67-1.5 1.5-1.5Zm-7.45 0c.83 0 1.5.67 1.5 1.5S12.78 6 11.95 6s-1.5-.67-1.5-1.5.67-1.5 1.5-1.5ZM3 4.5C3 3.67 3.67 3 4.5 3S6 3.67 6 4.5 5.33 6 4.5 6 3 5.33 3 4.5Zm0 7.45c0-.83.67-1.5 1.5-1.5s1.5.67 1.5 1.5-.67 1.5-1.5 1.5-1.5-.67-1.5-1.5ZM4.5 21c-.83 0-1.5-.67-1.5-1.5S3.67 18 4.5 18s1.5.67 1.5 1.5S5.33 21 4.5 21Zm7.45 0c-.83 0-1.5-.67-1.5-1.5s.67-1.5 1.5-1.5 1.5.67 1.5 1.5-.67 1.5-1.5 1.5Zm5.16-2.5h-2.88c-.39-.88-1.26-1.5-2.29-1.5s-1.9.62-2.29 1.5H6.77c-.25-.57-.71-1.03-1.29-1.28v-2.98c.88-.39 1.5-1.27 1.5-2.29s-.62-1.9-1.5-2.29V6.79c.57-.25 1.03-.71 1.29-1.28h2.88c.39.88 1.26 1.49 2.29 1.49s1.9-.62 2.29-1.49h2.88c.25.57.71 1.03 1.29 1.28v2.87c-.88.39-1.5 1.27-1.5 2.29s.62 1.9 1.5 2.29v2.98c-.57.25-1.03.71-1.29 1.28Zm3.79 1c0 .83-.67 1.5-1.5 1.5s-1.5-.67-1.5-1.5.67-1.5 1.5-1.5 1.5.67 1.5 1.5Zm-1.5-6.05c-.83 0-1.5-.67-1.5-1.5s.67-1.5 1.5-1.5 1.5.67 1.5 1.5-.67 1.5-1.5 1.5Z"/>
</svg>
