<svg xmlns="http://www.w3.org/2000/svg" width="24" height="24" fill="currentColor" viewBox="0 0 24 24">
  <path d="m20,3H4c-1.1,0-2,.9-2,2v9c0,1.1.9,2,2,2h.99v4h0s0,0,0,.01c0,.56.45,1.01,1.01,1.01.27,0,.52-.11.7-.29h0s4.72-4.72,4.72-4.72h.5s.09-.01.14-.01h7.92c1.1,0,2-.9,2-2V5c0-1.1-.9-2-2-2Zm-7.5,11.25c-.16.17-.39.25-.69.25s-.52-.08-.68-.25c-.16-.17-.24-.37-.24-.62,0-.26.08-.48.25-.64.17-.16.39-.24.67-.24s.51.08.68.25c.17.17.25.38.25.63s-.08.45-.24.62Zm1.32-4.99l-.83.81c-.2.22-.33.51-.4.87-.07.34-.36.6-.71.6h-.1c-.43,0-.78-.38-.72-.8.04-.24.09-.45.17-.63.15-.35.44-.74.88-1.17.44-.42.71-.73.83-.9.18-.27.27-.57.27-.89,0-.42-.1-.74-.31-.96-.21-.22-.51-.33-.92-.33s-.7.11-.93.32c-.12.11-.21.24-.26.38-.11.28-.35.5-.66.5h-.26c-.47,0-.81-.47-.65-.91.13-.38.35-.7.66-.97.53-.46,1.23-.69,2.11-.69s1.6.23,2.11.69c.5.46.76,1.1.76,1.92,0,.73-.34,1.45-1.02,2.16Z"/>
</svg>
