<svg xmlns="http://www.w3.org/2000/svg" width="24" height="24" fill="currentColor" viewBox="0 0 24 24">
  <path d="m18.12,16.19l-2.69,3.33c-.27.31-.23.79.08,1.06.14.12.31.18.49.18.21,0,.42-.09.57-.26l2.69-3.33c.27-.31.23-.79-.08-1.06-.31-.27-.79-.23-1.06.08Z"/>
  <path d="m13.62,16.19l-2.69,3.33c-.27.31-.23.79.08,1.06.14.12.31.18.49.18.21,0,.42-.09.57-.26l2.69-3.33c.27-.31.23-.79-.08-1.06-.31-.27-.79-.23-1.06.08Z"/>
  <path d="m9.12,16.19l-2.69,3.33c-.27.31-.23.79.08,1.06.14.12.31.18.49.18.21,0,.42-.09.57-.26l2.69-3.33c.27-.31.23-.79-.08-1.06-.31-.27-.79-.23-1.06.08Z"/>
  <path d="m4.62,16.19l-2.69,3.33c-.27.31-.23.79.08,1.06.14.12.31.18.49.18.21,0,.42-.09.57-.26l2.69-3.33c.27-.31.23-.79-.08-1.06-.31-.27-.79-.23-1.06.08Z"/>
  <path id="t" d="m22.26,10.53c-.4-1.37-1.56-2.31-2.89-2.49.02-.18.03-.36.03-.54,0-3.04-2.46-5.5-5.5-5.5-2.23,0-4.15,1.34-5.02,3.25-.47-.15-.96-.25-1.48-.25-2.76,0-5,2.24-5,5s2.24,5,5,5h0l11.51-.02c.32,0,.64-.03.97-.12,1.86-.54,2.93-2.48,2.39-4.33Z"/>
</svg>
