<svg xmlns="http://www.w3.org/2000/svg" width="24" height="24" fill="currentColor" viewBox="0 0 24 24">
  <path d="m18.12 16.19-2.69 3.33c-.27.31-.23.79.08 1.06.14.12.31.18.49.18.21 0 .42-.09.57-.26l2.69-3.33c.27-.31.23-.79-.08-1.06a.757.757 0 0 0-1.06.08M13.62 16.19l-2.69 3.33c-.27.31-.23.79.08 1.06.14.12.31.18.49.18.21 0 .42-.09.57-.26l2.69-3.33c.27-.31.23-.79-.08-1.06a.757.757 0 0 0-1.06.08M9.12 16.19l-2.69 3.33c-.27.31-.23.79.08 1.06.14.12.31.18.49.18.21 0 .42-.09.57-.26l2.69-3.33c.27-.31.23-.79-.08-1.06a.757.757 0 0 0-1.06.08M4.62 16.19l-2.69 3.33c-.27.31-.23.79.08 1.06.14.12.31.18.49.18.21 0 .42-.09.57-.26l2.69-3.33c.27-.31.23-.79-.08-1.06a.757.757 0 0 0-1.06.08M22.26 10.53a3.5 3.5 0 0 0-2.89-2.49q.03-.27.03-.54c0-3.04-2.46-5.5-5.5-5.5-2.23 0-4.15 1.34-5.02 3.25C8.41 5.1 7.92 5 7.4 5c-2.76 0-5 2.24-5 5s2.24 5 5 5l11.51-.02c.32 0 .64-.03.97-.12a3.495 3.495 0 0 0 2.39-4.33Z"/>
</svg>
