<svg xmlns="http://www.w3.org/2000/svg" height="24" width="24" viewBox="0 0 24 24" fill="currentColor">
  <path d="M6.39,6.56c.13-.71.77-1.23,1.52-1.23h8.36c.96,0,1.69.83,1.52,1.74l-1.88,10.37c-.13.71-.77,1.23-1.52,1.23H6.03c-.96,0-1.69-.83-1.52-1.74l1.88-10.37Z"/>
  <path d="M17.81,4.92c.41,0,.76.3.82.7l1.51,9.58c.16,1.01-.62,1.93-1.65,1.93h-2.12l-.12.61c-.16.78-.84,1.34-1.63,1.34H5.5c-1.05,0-1.84-.96-1.63-1.99l2.17-10.83c.16-.78.84-1.34,1.63-1.34h10.15ZM5.5,17.42h9.13l2.17-10.83H7.66l-2.17,10.83ZM16.72,15.46h1.78l-.79-4.98-1,4.98Z"/>
</svg>
