<svg xmlns="http://www.w3.org/2000/svg" width="24" height="24" fill="currentColor" viewBox="0 0 24 24">
  <path d="m21.9,6.34l-4.24-4.24c-.78-.78-2.05-.78-2.83,0L2.1,14.83c-.78.78-.78,2.05,0,2.83l4.24,4.24c.78.78,2.05.78,2.83,0l12.73-12.73c.78-.78.78-2.05,0-2.83Zm-14.14,10.61l-3.18-3.18.71-.71,3.18,3.18c.2.2.2.51,0,.71s-.51.2-.71,0Zm2.83-2.83l-3.18-3.18.71-.71,3.18,3.18c.2.2.2.51,0,.71s-.51.2-.71,0Zm2.83-2.83l-3.18-3.18.71-.71,3.18,3.18c.2.2.2.51,0,.71s-.51.2-.71,0Zm2.83-2.83l-3.18-3.18.71-.71,3.18,3.18c.2.2.2.51,0,.71s-.51.2-.71,0Z"/>
</svg>
