<svg xmlns="http://www.w3.org/2000/svg" width="24" height="24" fill="currentColor" viewBox="0 0 24 24">
  <path d="m16.75,2.76L2.57,16.94c-.39.39-.39,1.02,0,1.41l3.18,3.18c.39.39,1.02.39,1.41,0l14.18-14.18c.39-.39.39-1.02,0-1.41l-3.18-3.18c-.39-.39-1.02-.39-1.41,0ZM6.67,18.86c.2.2.2.51,0,.71s-.51.2-.71,0l-2.15-2.15c-.2-.2-.2-.51,0-.71s.51-.2.71,0l2.15,2.15Zm1.1-3.13c.2.2.2.51,0,.71s-.51.2-.71,0l-1.14-1.14c-.2-.2-.2-.51,0-.71s.51-.2.71,0l1.14,1.14Zm3.13-1.1c.2.2.2.51,0,.71s-.51.2-.71,0l-2.15-2.15c-.2-.2-.2-.51,0-.71s.51-.2.71,0l2.15,2.15Zm1.1-3.13c.2.2.2.51,0,.71s-.51.2-.71,0l-1.14-1.14c-.2-.2-.2-.51,0-.71s.51-.2.71,0l1.14,1.14Zm3.13-1.1c.2.2.2.51,0,.71s-.51.2-.71,0l-2.15-2.15c-.2-.2-.2-.51,0-.71s.51-.2.71,0l2.15,2.15Zm1.1-3.13c.2.2.2.51,0,.71s-.51.2-.71,0l-1.14-1.14c-.2-.2-.2-.51,0-.71s.51-.2.71,0l1.14,1.14Zm3.13-1.1c.2.2.2.51,0,.71s-.51.2-.71,0l-2.15-2.15c-.2-.2-.2-.51,0-.71s.51-.2.71,0l2.15,2.15Z"/>
</svg>
