<svg xmlns="http://www.w3.org/2000/svg" width="24" height="24" fill="currentColor" class="mi-solid mi-screenshot" viewBox="0 0 24 24">
  <path d="M10 9H9v3c0 .55-.45 1-1 1s-1-.45-1-1V8c0-.55.45-1 1-1h2c.55 0 1 .45 1 1s-.45 1-1 1Zm5 6h-1c-.55 0-1 .45-1 1s.45 1 1 1h2c.55 0 1-.45 1-1v-4c0-.55-.45-1-1-1s-1 .45-1 1v3ZM3 5h2V3H3v2Zm6-2H7v2h2V3Zm4 0h-2v2h2V3Zm2 2h2V3h-2v2Zm4-2v2h2V3h-2Zm0 6h2V7h-2v2Zm0 4h2v-2h-2v2Zm0 4h2v-2h-2v2Zm0 4h2v-2h-2v2Zm-4 0h2v-2h-2v2Zm-4 0h2v-2h-2v2Zm-4 0h2v-2H7v2Zm-4 0h2v-2H3v2Zm0-4h2v-2H3v2Zm0-4h2v-2H3v2Zm0-4h2V7H3v2Z"/>
</svg>