<svg xmlns="http://www.w3.org/2000/svg" width="24" height="24" fill="currentColor" viewBox="0 0 24 24">
  <path d="m19,2H5c-1.1,0-2,.9-2,2v2c0,1.1.9,2,2,2h14c1.1,0,2-.9,2-2v-2c0-1.1-.9-2-2-2ZM6,6c-.55,0-1-.45-1-1s.45-1,1-1,1,.45,1,1-.45,1-1,1Zm3,0c-.55,0-1-.45-1-1s.45-1,1-1,1,.45,1,1-.45,1-1,1Zm3,0c-.55,0-1-.45-1-1s.45-1,1-1,1,.45,1,1-.45,1-1,1Zm7,10H5c-1.1,0-2,.9-2,2v2c0,1.1.9,2,2,2h14c1.1,0,2-.9,2-2v-2c0-1.1-.9-2-2-2Zm-13,4c-.55,0-1-.45-1-1s.45-1,1-1,1,.45,1,1-.45,1-1,1Zm3,0c-.55,0-1-.45-1-1s.45-1,1-1,1,.45,1,1-.45,1-1,1Zm3,0c-.55,0-1-.45-1-1s.45-1,1-1,1,.45,1,1-.45,1-1,1Zm7-11H5c-1.1,0-2,.9-2,2v2c0,1.1.9,2,2,2h14c1.1,0,2-.9,2-2v-2c0-1.1-.9-2-2-2Zm-13,4c-.55,0-1-.45-1-1s.45-1,1-1,1,.45,1,1-.45,1-1,1Zm3,0c-.55,0-1-.45-1-1s.45-1,1-1,1,.45,1,1-.45,1-1,1Zm3,0c-.55,0-1-.45-1-1s.45-1,1-1,1,.45,1,1-.45,1-1,1Z"/>
</svg>
