<svg xmlns="http://www.w3.org/2000/svg" width="24" height="24" fill="currentColor" viewBox="0 0 24 24">
  <path d="m21,5.78c0-2.6-4.66-3.78-9-3.78S3,3.18,3,5.78v2.16c0,.56.23,1.05.61,1.49-.39.43-.61.92-.61,1.49v2.16c0,.56.23,1.05.61,1.49-.39.43-.61.92-.61,1.49v2.16c0,2.6,4.67,3.78,9,3.78s9-1.18,9-3.78v-2.16c0-.56-.23-1.05-.61-1.49.39-.43.61-.92.61-1.49v-2.16c0-.56-.23-1.05-.61-1.49.39-.43.61-.92.61-1.49v-2.16Zm-2.25,5.14c-.2.47-2.48,1.62-6.75,1.62s-6.61-1.19-6.75-1.6c.02-.07.12-.17.26-.27h0c1.75.72,4.16,1.07,6.49,1.07s4.75-.35,6.5-1.07h0c.13.1.22.19.25.26h0Zm-6.75-6.77c4.26,0,6.55,1.16,6.75,1.62-.2.47-2.48,1.62-6.75,1.62s-6.61-1.19-6.75-1.6c.14-.45,2.43-1.64,6.75-1.64Zm7.07,6.24h0Zm-14.13,0h0Zm-.52-.3h0Zm7.57,7.57c-4.32,0-6.61-1.19-6.75-1.6.02-.07.12-.17.26-.27h0c1.75.72,4.16,1.07,6.49,1.07s4.75-.35,6.5-1.07h0c.13.1.22.19.25.26-.2.47-2.48,1.62-6.75,1.62h0Zm7.06-2.15h0Z"/>
</svg>
