<svg xmlns="http://www.w3.org/2000/svg" width="24" height="24" fill="currentColor" viewBox="0 0 24 24">
  <path d="m11.78,12.01c0-.55-.45-1-1-1h-4.99v-1.8c0-.45-.54-.67-.85-.35l-2.79,2.79c-.2.2-.2.51,0,.71l2.79,2.79c.32.31.85.09.85-.35v-1.78h4.99c.55,0,1-.45,1-1Zm-.28,6.24h-2.75v-2.25c0-.41-.34-.75-.75-.75s-.75.34-.75.75v3c0,.41.34.75.75.75h3.5c.41,0,.75-.34.75-.75s-.34-.75-.75-.75Zm0-14h-3.5c-.41,0-.75.34-.75.75v3c0,.41.34.75.75.75s.75-.34.75-.75v-2.25h2.75c.41,0,.75-.34.75-.75s-.34-.75-.75-.75Zm9.87.7l-5.95-2.38c-.66-.26-1.37.22-1.37.93v17.15c0,.74.77,1.22,1.44.9l5.95-2.89c.34-.17.56-.52.56-.9V5.88c0-.41-.25-.78-.63-.93Z"/>
</svg>
