<svg xmlns="http://www.w3.org/2000/svg" width="24" height="24" fill="currentColor" viewBox="0 0 24 24">
  <path d="m21,11h-3.94l2.47-2.47c.29-.29.29-.77,0-1.06s-.77-.29-1.06,0l-3.47,3.47-.06.06h-1.94v-1.94l.06-.06,3.47-3.47c.29-.29.29-.77,0-1.06s-.77-.29-1.06,0l-2.47,2.47v-3.94c0-.55-.45-1-1-1s-1,.45-1,1v3.94l-2.47-2.47c-.29-.29-.77-.29-1.06,0s-.29.77,0,1.06l3.47,3.47.06.06v1.94h-1.94l-.06-.06-3.47-3.47c-.29-.29-.77-.29-1.06,0s-.29.77,0,1.06l2.47,2.47h-3.94c-.55,0-1,.45-1,1s.45,1,1,1h3.94l-2.47,2.47c-.29.29-.29.77,0,1.06.15.15.34.22.53.22s.38-.07.53-.22l3.47-3.47.06-.06h1.94v1.94l-.06.06-3.47,3.47c-.29.29-.29.77,0,1.06.15.15.34.22.53.22s.38-.07.53-.22l2.47-2.47v3.94c0,.55.45,1,1,1s1-.45,1-1v-3.94l2.47,2.47c.15.15.34.22.53.22s.38-.07.53-.22c.29-.29.29-.77,0-1.06l-3.47-3.47-.06-.06v-1.94h1.94l.06.06,3.47,3.47c.15.15.34.22.53.22s.38-.07.53-.22c.29-.29.29-.77,0-1.06l-2.47-2.47h3.94c.55,0,1-.45,1-1s-.45-1-1-1Z"/>
</svg>
