<svg xmlns="http://www.w3.org/2000/svg" width="24" height="24" fill="currentColor" viewBox="0 0 24 24">
  <path d="m22.26,10.62c-.38-1.37-1.54-2.32-2.86-2.52.02-.18.03-.36.03-.54.03-3.04-2.41-5.52-5.45-5.55-2.23-.02-4.17,1.29-5.05,3.2-.47-.15-.96-.26-1.48-.26-2.76-.03-5.02,2.19-5.05,4.95-.03,2.76,2.19,5.02,4.95,5.05h0l11.51.1c.32,0,.64-.02.97-.11,1.86-.52,2.95-2.45,2.43-4.31Zm-11.92,6.71h-.59s.37-.37.37-.37c.04-.04.05-.11,0-.16-.04-.04-.11-.05-.16,0l-.53.52h0s-.29,0-.29,0v-.29s.01,0,.01,0l.53-.52s.05-.11,0-.16c-.04-.04-.11-.05-.16,0l-.37.37v-.59c0-.08-.06-.15-.14-.15-.08,0-.15.07-.15.15v.59s-.37-.37-.37-.37c-.04-.04-.11-.05-.16,0s-.05.11,0,.16l.52.53h0s0,.3,0,.3h-.29s0-.01,0-.01l-.52-.53s-.11-.05-.16,0-.05.11,0,.16l.37.37h-.59c-.08,0-.15.06-.15.14,0,.08.07.15.15.15h.59s-.37.37-.37.37c-.04.04-.05.11,0,.16.02.02.05.03.08.03.03,0,.06-.01.08-.03l.53-.52h0s.29,0,.29,0v.29s-.01,0-.01,0l-.53.52s-.05.11,0,.16c.02.02.05.03.08.03.03,0,.06-.01.08-.03l.37-.37v.59c0,.08.06.15.14.15.08,0,.15-.07.15-.15v-.59s.37.37.37.37c.02.02.05.03.08.03.03,0,.06-.01.08-.03.04-.04.05-.11,0-.16l-.52-.53h0s0-.3,0-.3h.29s0,.01,0,.01l.52.53s.05.03.08.03c.03,0,.06-.01.08-.03.04-.04.05-.11,0-.16l-.37-.37h.59c.08,0,.15-.06.15-.14,0-.08-.07-.15-.15-.15Zm6.89.98h-.99s.63-.62.63-.62c.07-.07.08-.19,0-.27-.07-.07-.19-.08-.27,0l-.88.86-.02.02h-.49s0-.49,0-.49l.02-.02.88-.86c.07-.07.08-.19,0-.27-.07-.07-.19-.08-.27,0l-.63.61v-.99c.01-.14-.1-.25-.24-.25-.14,0-.25.11-.25.25v.99s-.62-.63-.62-.63c-.07-.07-.19-.08-.27,0-.07.07-.08.19,0,.27l.86.88.02.02v.49s-.49,0-.49,0l-.02-.02-.86-.88c-.07-.07-.19-.08-.27,0-.07.07-.08.19,0,.27l.61.63h-.99c-.14-.01-.25.1-.25.24,0,.14.11.25.25.25h.99s-.63.62-.63.62c-.07.07-.08.19,0,.27.04.04.08.06.13.06s.1-.02.13-.05l.88-.86.02-.02h.49s0,.49,0,.49l-.02.02-.88.86c-.07.07-.08.19,0,.27.04.04.08.06.13.06s.1-.02.13-.05l.63-.61v.99c-.01.14.1.25.24.25.14,0,.25-.11.25-.25v-.99s.62.63.62.63c.04.04.08.06.13.06s.1-.02.13-.05c.07-.07.08-.19,0-.27l-.86-.88-.02-.02v-.49s.49,0,.49,0l.02.02.86.88s.08.06.13.06c.05,0,.1-.02.13-.05.07-.07.08-.19,0-.27l-.61-.63h.99c.14.01.25-.1.25-.24,0-.14-.11-.25-.25-.25Z"/>
</svg>
