<svg xmlns="http://www.w3.org/2000/svg" width="24" height="24" fill="currentColor" viewBox="0 0 24 24">
  <path id="ad" d="m4.85,6.59s.06.04.09.04.06-.01.09-.04l.66-.66.66.66s.06.04.09.04.06-.01.09-.04c.05-.05.05-.13,0-.18l-.66-.66.66-.66s.05-.13,0-.18-.13-.05-.18,0l-.66.66-.66-.66s-.13-.05-.18,0-.05.13,0,.18l.66.66-.66.66s-.05.13,0,.18Zm-.32,8.32s-.13-.05-.18,0l-.66.66-.66-.66s-.13-.05-.18,0-.05.13,0,.18l.66.66-.66.66s-.05.13,0,.18c.02.02.06.04.09.04s.06-.01.09-.04l.66-.66.66.66s.06.04.09.04.06-.01.09-.04c.05-.05.05-.13,0-.18l-.66-.66.66-.66s.05-.13,0-.18Zm3.93-9.46h1.19l-.78.78s-.04.11,0,.15c.02.02.05.03.08.03s.06-.01.08-.03l.89-.89.05-.05h.57v.57l-.05.05-.89.89s-.04.11,0,.15c.02.02.05.03.08.03s.06-.01.08-.03l.78-.78v1.19c0,.06.05.11.11.11s.11-.05.11-.11v-1.19l.78.78s.05.03.08.03.06-.01.08-.03c.04-.04.04-.11,0-.15l-.89-.89-.05-.05v-.57h.57l.05.05.89.89s.05.03.08.03.06-.01.08-.03c.04-.04.04-.11,0-.15l-.78-.78h1.19c.06,0,.11-.05.11-.11s-.05-.11-.11-.11h-1.19l.78-.78s.04-.11,0-.15c-.04-.04-.11-.04-.15,0l-.89.89-.05.05h-.57v-.57l.05-.05.89-.89s.04-.11,0-.15c-.04-.04-.11-.04-.15,0l-.78.78v-1.19c0-.06-.05-.11-.11-.11s-.11.05-.11.11v1.19l-.78-.78s-.11-.04-.15,0c-.04.04-.04.11,0,.15l.89.89.05.05v.57h-.57l-.05-.05-.89-.89s-.11-.04-.15,0c-.04.04-.04.11,0,.15l.78.78h-1.19c-.06,0-.11.05-.11.11s.05.11.11.11Zm-.93,12.46s-.13-.05-.18,0l-.66.66-.66-.66s-.13-.05-.18,0-.05.13,0,.18l.66.66-.66.66s-.05.13,0,.18c.02.02.06.04.09.04s.06-.01.09-.04l.66-.66.66.66s.06.04.09.04.06-.01.09-.04c.05-.05.05-.13,0-.18l-.66-.66.66-.66s.05-.13,0-.18Zm14.06-3.26h-1.61l.8-.8c.14-.14.14-.36,0-.49s-.36-.14-.49,0l-1.3,1.3h-1.99c-.05-.32-.18-.61-.36-.86l1.41-1.41h1.84c.19,0,.35-.16.35-.35s-.16-.35-.35-.35h-1.14l1.13-1.13c.14-.14.14-.36,0-.49s-.36-.14-.49,0l-1.13,1.13v-1.14c0-.19-.16-.35-.35-.35s-.35.16-.35.35v1.84l-1.41,1.41c-.25-.18-.55-.3-.86-.36v-1.99l1.3-1.3c.14-.14.14-.36,0-.49s-.36-.14-.49,0l-.8.8v-1.61c0-.19-.16-.35-.35-.35s-.35.16-.35.35v1.61l-.8-.8c-.14-.14-.36-.14-.49,0s-.14.36,0,.49l1.3,1.3v1.99c-.32.05-.61.18-.86.36l-1.41-1.41v-1.84c0-.19-.16-.35-.35-.35s-.35.16-.35.35v1.14l-1.13-1.13c-.14-.14-.36-.14-.49,0s-.14.36,0,.49l1.13,1.13h-1.14c-.19,0-.35.16-.35.35s.16.35.35.35h1.84l1.41,1.41c-.18.25-.3.55-.36.86h-1.99l-1.3-1.3c-.14-.14-.36-.14-.49,0s-.14.36,0,.49l.8.8h-1.61c-.19,0-.35.16-.35.35s.16.35.35.35h1.61l-.8.8c-.14.14-.14.36,0,.49.07.07.16.1.25.1s.18-.03.25-.1l1.3-1.3h1.99c.05.32.18.61.36.86l-1.41,1.41h-1.84c-.19,0-.35.16-.35.35s.16.35.35.35h1.14l-1.13,1.13c-.14.14-.14.36,0,.49.07.07.16.1.25.1s.18-.03.25-.1l1.13-1.13v1.14c0,.19.16.35.35.35s.35-.16.35-.35v-1.84l1.41-1.41c.25.18.55.3.86.36v1.99l-1.3,1.3c-.14.14-.14.36,0,.49.07.07.16.1.25.1s.18-.03.25-.1l.8-.8v1.61c0,.19.16.35.35.35s.35-.16.35-.35v-1.61l.8.8c.07.07.16.1.25.1s.18-.03.25-.1c.14-.14.14-.36,0-.49l-1.3-1.3v-1.99c.32-.05.61-.18.86-.36l1.41,1.41v1.84c0,.19.16.35.35.35s.35-.16.35-.35v-1.14l1.13,1.13c.07.07.16.1.25.1s.18-.03.25-.1c.14-.14.14-.36,0-.49l-1.13-1.13h1.14c.19,0,.35-.16.35-.35s-.16-.35-.35-.35h-1.84l-1.41-1.41c.18-.25.3-.55.36-.86h1.99l1.3,1.3c.07.07.16.1.25.1s.18-.03.25-.1c.14-.14.14-.36,0-.49l-.8-.8h1.61c.19,0,.35-.16.35-.35s-.16-.35-.35-.35Zm-6.65,1.05c-.39,0-.7-.31-.7-.7s.31-.7.7-.7.7.31.7.7-.31.7-.7.7Zm-7.46-5.16h-1.37l.9-.9s.05-.13,0-.18-.13-.05-.18,0l-1.02,1.02-.05.05h-.66v-.66l.05-.05,1.02-1.02s.05-.13,0-.18-.13-.05-.18,0l-.9.9v-1.37c0-.07-.06-.12-.12-.12s-.12.06-.12.12v1.37l-.9-.9s-.13-.05-.18,0-.05.13,0,.18l1.02,1.02.05.05v.66h-.66l-.05-.05-1.02-1.02s-.13-.05-.18,0-.05.13,0,.18l.9.9h-1.37c-.07,0-.12.06-.12.12s.06.12.12.12h1.37l-.9.9s-.05.13,0,.18c.02.02.06.04.09.04s.06-.01.09-.04l1.02-1.02.05-.05h.66v.66l-.05.05-1.02,1.02s-.05.13,0,.18c.02.02.06.04.09.04s.06-.01.09-.04l.9-.9v1.37c0,.07.06.12.12.12s.12-.06.12-.12v-1.37l.9.9s.06.04.09.04.06-.01.09-.04c.05-.05.05-.13,0-.18l-1.02-1.02-.05-.05v-.66h.66l.05.05,1.02,1.02s.06.04.09.04.06-.01.09-.04c.05-.05.05-.13,0-.18l-.9-.9h1.37c.07,0,.12-.06.12-.12s-.06-.12-.12-.12Z"/>
</svg>
