<svg width="24" height="24" viewBox="0 0 24 24" fill="currentColor" xmlns="http://www.w3.org/2000/svg">
  <path d="M14.0417 10.0312C14.0417 11.125 14.9167 12 16.0105 12H17.2501C19.474 12 21.3334 13.8593 21.3334 16.0833C21.3334 16.8489 20.823 17.5052 20.1667 17.7604V19.5833C20.1667 20.5677 19.3647 21.3333 18.4167 21.3333H5.58341C4.59904 21.3333 3.83341 20.5677 3.83341 19.5833V17.7604C3.14071 17.5052 2.66675 16.8489 2.66675 16.0833C2.66675 13.8593 4.48966 12 6.75008 12H7.95321C9.04696 12 9.95841 11.125 9.95841 10.0312C9.95841 9.41142 9.59383 8.82808 9.22925 8.31767C8.75529 7.73433 8.50008 7.00517 8.50008 6.16663C8.50008 4.23433 10.0678 2.66663 12.0001 2.66663C13.9324 2.66663 15.5001 4.23433 15.5001 6.16663C15.5001 7.00517 15.2084 7.73433 14.7345 8.31767C14.3699 8.82808 14.0417 9.41142 14.0417 10.0312ZM17.8334 17.8333H6.16675V19H17.8334V17.8333Z"/>
</svg>
