<svg xmlns="http://www.w3.org/2000/svg" width="24" height="24" fill="currentColor" viewBox="0 0 24 24">
  <path d="m19.5,14.5c0-1.47-1.26-2.64-2.76-2.49-1.3.13-2.24,1.32-2.24,2.63v.82s-.5,0-.5,0c-.55,0-1,.45-1,1v4.54c0,.55.45,1,1,1h6c.55,0,1-.45,1-1v-4.54c0-.55-.45-1-1-1h-.5v-.96Zm-2.49,5c-.55,0-1-.45-1-1s.45-1,1-1,1,.45,1,1-.45,1-1,1Zm1.49-4.04h-3v-.96c0-.83.67-1.5,1.5-1.5s1.5.67,1.5,1.5v.96Zm-5.46-1.5c.26-1.95,1.94-3.46,3.96-3.46.97,0,1.85.35,2.54.93l.67-.58c.67-.58.31-1.68-.57-1.75l-4.83-.41-1.89-4.46c-.34-.81-1.5-.81-1.84,0l-1.89,4.46-4.83.41c-.88.07-1.24,1.17-.57,1.75l3.67,3.18-1.1,4.72c-.2.86.73,1.54,1.49,1.08l3.65-2.2v-2.92c0-.41.34-.75.75-.75h.79Z"/>
  <rect x=".08" y="-.12" width="0" height="0" fill="none"/>
</svg>
