<svg xmlns="http://www.w3.org/2000/svg" width="24" height="24" fill="currentColor" viewBox="0 0 24 24">
  <path fill="#252a2e" d="M17.51 9.82c.15-.02.31-.02.46-.02 1.2 0 2.28.47 3.09 1.23l.08-.07c.74-.64.35-1.85-.64-1.93l-5.38-.45-2.1-4.9c-.38-.89-1.67-.89-2.05 0l-2.1 4.9-5.38.45c-.98.08-1.38 1.29-.64 1.93l4.09 3.5-1.23 5.2c-.22.95.82 1.69 1.66 1.19l4.54-2.71v-1.81c0-1.15.64-2.15 1.59-2.66.35-2.02 1.98-3.64 4-3.84Zm3.5 5.49h-.51v-.97c0-1.49-1.28-2.67-2.8-2.52-1.32.13-2.27 1.34-2.27 2.67v.83h-.51c-.56 0-1.01.45-1.01 1.01v4.6c0 .56.45 1.01 1.01 1.01H21c.56 0 1.01-.45 1.01-1.01v-4.6c0-.56-.45-1.01-1.01-1.01Zm-3.03 4.1c-.56 0-1.01-.45-1.01-1.01s.45-1.01 1.01-1.01 1.01.45 1.01 1.01-.45 1.01-1.01 1.01Zm1.51-4.1h-3.04v-.97a1.52 1.52 0 1 1 3.04 0v.97Z"/>
</svg>
