<svg xmlns="http://www.w3.org/2000/svg" width="24" height="24" fill="currentColor" viewBox="0 0 24 24">
  <path d="m4.76,21.43h0c.39.39,1.02.39,1.41,0l.44-.44c.39-.39.39-1.02,0-1.41h0c-.39-.39-1.02-.39-1.41,0l-.44.44c-.39.39-.39,1.02,0,1.41Zm-2-3h0c.39.39,1.02.39,1.41,0l.44-.44c.39-.39.39-1.02,0-1.41h0c-.39-.39-1.02-.39-1.41,0l-.44.44c-.39.39-.39,1.02,0,1.41Zm15,0h0c.39.39,1.02.39,1.41,0l.44-.44c.39-.39.39-1.02,0-1.41h0c-.39-.39-1.02-.39-1.41,0l-.44.44c-.39.39-.39,1.02,0,1.41Zm-3,3h0c.39.39,1.02.39,1.41,0l.44-.44c.39-.39.39-1.02,0-1.41h0c-.39-.39-1.02-.39-1.41,0l-.44.44c-.39.39-.39,1.02,0,1.41Zm7.15-10.9c-.4-1.37-1.56-2.31-2.89-2.49.02-.18.03-.36.03-.54,0-3.04-2.46-5.5-5.5-5.5-2.23,0-4.15,1.34-5.02,3.25-.47-.15-.96-.25-1.48-.25-2.76,0-5,2.24-5,5s2.24,5,5,5h0l11.51-.02c.32,0,.64-.03.97-.12,1.86-.54,2.93-2.48,2.39-4.33Zm-15.15,7.9h0c.39.39,1.02.39,1.41,0l.44-.44c.39-.39.39-1.02,0-1.41h0c-.39-.39-1.02-.39-1.41,0l-.44.44c-.39.39-.39,1.02,0,1.41Zm8.22,0h-2.06l2.45-2.43h-3.31l-2.35,3.24h1.59l-2.4,3.23,6.08-4.04Z"/>
</svg>
