<svg xmlns="http://www.w3.org/2000/svg" width="24" height="24" fill="currentColor" viewBox="0 0 24 24">
  <path d="m5,20V4h6v5c0,.55.45,1,1,1h5v1.5c.7,0,1.37.11,2,.32v-3.4c0-.27-.11-.52-.29-.71l-5.41-5.41c-.19-.19-.44-.29-.71-.29H4c-.55,0-1,.45-1,1v18c0,.55.45,1,1,1h7.88c-.46-.59-.83-1.27-1.07-2h-5.82Zm12-7c-2.75,0-5,2.25-5,5s2.25,5,5,5,5-2.25,5-5-2.25-5-5-5Zm2.3,6.78c-.11.17-.34.23-.52.12l-2.04-1.26c-.15-.09-.24-.25-.24-.42v-2.34c0-.21.17-.38.38-.38s.38.17.38.38v2.22l1.92,1.16c.18.11.24.34.13.52Z"/>
</svg>
