<svg xmlns="http://www.w3.org/2000/svg" width="24" height="24" viewBox="0 0 24 24">
  <path d="m16,9c1.3,0,2.4-.84,2.82-2h1.17c.55,0,1-.45,1-1h0c0-.55-.45-1-1-1h-1.17c-.41-1.16-1.51-2-2.82-2s-2.4.84-2.82,2H4c-.55,0-1,.45-1,1h0c0,.55.45,1,1,1h9.18c.41,1.16,1.51,2,2.82,2Zm0-4c.55,0,1,.45,1,1s-.45,1-1,1-1-.45-1-1,.45-1,1-1Zm2.82,12c-.41-1.16-1.51-2-2.82-2s-2.4.84-2.82,2H4.01c-.55,0-1,.45-1,1h0c0,.55.45,1,1,1h9.17c.41,1.16,1.51,2,2.82,2s2.4-.84,2.82-2h1.18c.55,0,1-.45,1-1h0c0-.55-.45-1-1-1h-1.18Zm-2.82,2c-.55,0-1-.45-1-1s.45-1,1-1,1,.45,1,1-.45,1-1,1Zm-8-4c1.3,0,2.4-.84,2.82-2h9.17c.55,0,1-.45,1-1h0c0-.55-.45-1-1-1h-9.17c-.41-1.16-1.51-2-2.82-2s-2.4.84-2.82,2h-1.18c-.55,0-1,.45-1,1h0c0,.55.45,1,1,1h1.18c.41,1.16,1.51,2,2.82,2Zm0-4c.55,0,1,.45,1,1s-.45,1-1,1-1-.45-1-1,.45-1,1-1Z"/>
</svg>
