<svg xmlns="http://www.w3.org/2000/svg" width="24" height="24" fill="currentColor" viewBox="0 0 24 24">
  <path d="M6.621 3.707a1 1 0 1 0-1.414-1.414l-3 3a1 1 0 0 0 0 1.414l3 3a1 1 0 0 0 1.414-1.414L5.328 7h13.344l-1.293 1.293a1 1 0 0 0 1.414 1.414l3-3a1 1 0 0 0 0-1.414l-3-3a1 1 0 1 0-1.414 1.414L18.672 5H5.328l1.293-1.293Z"/>
  <path fill-rule="evenodd" d="M22 13.827v5.996a2.004 2.004 0 0 1-2.001 2.002H4A2.004 2.004 0 0 1 2 19.824v-5.997c0-1.103.898-2 2.001-2H20c1.103 0 2.001.897 2.001 2ZM5.502 12.83v3.67c0 .283.219.502.502.502.283 0 .502-.22.502-.502v-3.67H5.502Zm4.002 0v3.67c0 .283.22.502.502.502.283 0 .502-.22.502-.502v-3.67H9.504Zm4.002 0v3.67c0 .283.22.502.502.502.283 0 .502-.22.502-.502v-3.67h-1.004Zm4.002 0v3.67c0 .283.22.502.502.502.283 0 .502-.22.502-.502v-3.67h-1.004Z" clip-rule="evenodd"/>
</svg>
