<svg xmlns="http://www.w3.org/2000/svg" width="24" height="24" fill="currentColor" viewBox="0 0 24 24">
  <path d="m9.26,15h-1.94l-.96,1.84-1.05-1.84h-2.17l2.02,3.32-2.17,3.68h2l1.17-2.13,1.24,2.13h2.1l-2.19-3.66,1.94-3.34Zm-.77-7.08h.97v4.08c0,.55.45,1,1,1h3.08c.55,0,1-.45,1-1v-4.08h.97c.89,0,1.34-1.08.71-1.71l-3.51-3.51c-.39-.39-1.02-.39-1.41,0l-3.51,3.51c-.63.63-.18,1.71.71,1.71Zm9.93,9.82h0c-.67-.17-1.19-.33-1.19-.78,0-.32.26-.5.78-.5.59,0,1.23.39,1.61.85l1.22-1c-.54-.66-1.4-1.32-2.82-1.32-1.53,0-2.57.76-2.57,2.13,0,1.53,1.47,1.81,2.57,2.09.67.16,1.2.32,1.2.76s-.41.59-.97.59c-.7,0-1.37-.37-1.77-1.02l-1.35.84c.58.92,1.5,1.61,3.03,1.61,2.07,0,2.83-1.06,2.83-2.14,0-1.51-1.48-1.85-2.58-2.11Zm-6.54-2.74h-1.89v7h4.83v-1.52h-2.94v-5.48Z"/>
</svg>
