<svg xmlns="http://www.w3.org/2000/svg" width="24" height="24" fill="currentColor" viewBox="0 0 24 24">
  <path d="m14.22,9.75c-.26.26-.28.65-.09.96.23.38.36.82.36,1.3s-.13.92-.36,1.3c-.19.31-.17.7.09.96h0c.33.33.89.3,1.14-.09.4-.62.64-1.36.64-2.16s-.23-1.54-.64-2.16c-.25-.39-.81-.42-1.14-.09v-.02Zm-3.08-6.89l-4.15,4.15h-3c-1.1,0-2,.9-2,2v6c0,1.1.9,2,2,2h3l4.15,4.15c.32.32.85.09.85-.35V3.21c0-.45-.54-.67-.85-.35Zm8.48,2.68c-.29-.34-.8-.38-1.12-.06h0c-.27.27-.31.71-.06,1,1.28,1.49,2.05,3.42,2.05,5.53s-.77,4.04-2.05,5.53c-.25.29-.21.73.06,1,.32.32.83.28,1.12-.06,1.48-1.74,2.38-4,2.38-6.47s-.89-4.73-2.38-6.47Zm-2.13,2.14c-.28-.35-.81-.39-1.13-.07h0c-.26.26-.3.69-.07.98.75.94,1.2,2.13,1.2,3.42s-.45,2.48-1.2,3.42c-.23.29-.2.71.07.98.32.32.85.29,1.13-.07.94-1.19,1.5-2.7,1.5-4.33s-.56-3.14-1.5-4.33Z"/>
</svg>
