<svg xmlns="http://www.w3.org/2000/svg" width="24" height="24" fill="currentColor" viewBox="0 0 24 24">
  <path d="m10,13h-6c-.55,0-1,.45-1,1v6c0,.55.45,1,1,1h6c.55,0,1-.45,1-1v-6c0-.55-.45-1-1-1Zm0-10h-6c-.55,0-1,.45-1,1v6c0,.55.45,1,1,1h6c.55,0,1-.45,1-1v-6c0-.55-.45-1-1-1Zm11.61,3.64l-4.24-4.24c-.2-.2-.45-.29-.71-.29s-.51.1-.71.29l-4.25,4.24c-.39.39-.39,1.02,0,1.41l4.25,4.25c.2.2.45.29.71.29s.51-.1.7-.29l4.25-4.25c.39-.39.39-1.02,0-1.41Zm-4.95,4.95l-4.25-4.24,4.25-4.24s0,0,0,0h0s4.24,4.24,4.24,4.24l-4.25,4.25Zm3.34,1.41h-6c-.55,0-1,.45-1,1v6c0,.55.45,1,1,1h6c.55,0,1-.45,1-1v-6c0-.55-.45-1-1-1Z"/>
</svg>
