<svg xmlns="http://www.w3.org/2000/svg" width="24" height="24" fill="currentColor" viewBox="0 0 24 24">
  <path d="M21.92 10.53a3.5 3.5 0 0 0-2.89-2.49q.03-.27.03-.54c0-3.04-2.46-5.5-5.5-5.5-2.23 0-4.15 1.34-5.02 3.25C8.07 5.1 7.58 5 7.06 5c-2.76 0-5 2.24-5 5s2.24 5 5 5l11.51-.02c.32 0 .64-.03.97-.12a3.495 3.495 0 0 0 2.39-4.33Zm-17.37 6.7-.43-1.45-.43 1.45-1.45.43 1.45.43.43 1.45.43-1.45L6 17.66zm8 0-.43-1.45-.43 1.45-1.45.43 1.45.43.43 1.45.43-1.45 1.45-.43zm7 0-.43-1.45-.43 1.45-1.45.43 1.45.43.43 1.45.43-1.45 1.45-.43zm-9.88-.85-4.05 3.61.2 2.23 2.12-.69 1.73-5.14Zm7 0-4.05 3.61.2 2.23 2.12-.69 1.73-5.14Z"/>
</svg>
