<svg xmlns="http://www.w3.org/2000/svg" width="24" height="24" fill="currentColor" viewBox="0 0 24 24">
  <path d="m10,4h-2v1h2v-1Zm-6,5h-1v2h1v-2ZM14,4h-2v1h2v-1Zm4,3h1v-2c0-.55-.45-1-1-1h-2v1h2v2Zm2.34,12.11l-2.89-2.88h-.56l-.32-.32c1.75-2.02,1.75-5.03,0-7.05-2.19-2.53-6.23-2.52-8.38.31-1.3,1.7-1.45,3.92-.41,5.79,1.73,3.1,5.72,3.69,8.26,1.5l.33.32v.56l2.88,2.88c.3.3.79.3,1.1,0,.3-.3.3-.79,0-1.1Zm-7.81-2.88c-2.41,0-4.3-2.22-3.73-4.73.32-1.38,1.44-2.51,2.82-2.82,2.51-.57,4.73,1.32,4.73,3.73,0,2.11-1.71,3.83-3.83,3.83Zm-8.53-3.23h-1v2c0,.55.45,1,1,1h2v-1h-2v-2Zm10.31-.98h-1.34v-1.34c0-.28-.22-.5-.5-.5s-.5.22-.5.5v1.34h-1.34c-.28,0-.5.22-.5.5s.22.5.5.5h1.34v1.34c0,.28.22.5.5.5s.5-.22.5-.5v-1.34h1.34c.28,0,.5-.22.5-.5s-.22-.5-.5-.5ZM3,5v2h1v-2h2v-1h-2c-.55,0-1,.45-1,1Z"/>
</svg>
