<svg width="56" height="56" viewBox="0 0 56 56" fill="none" xmlns="http://www.w3.org/2000/svg">
<g clip-path="url(#clip0_4874_42160)">
<g filter="url(#filter0_d_4874_42160)">
<path fill-rule="evenodd" clip-rule="evenodd" d="M30.9524 29.9528C37.2666 29.309 42 26.6425 42 23.4509C42 19.7781 35.732 16.8008 28 16.8008C20.268 16.8008 14 19.7781 14 23.4509C14 26.6425 18.7334 29.309 25.0476 29.9528C25.19 37.4617 26.9667 43.4006 28 43.4006C29.0332 43.4006 30.8099 37.4617 30.9524 29.9528Z" fill="#FBAD26"/>
</g>
<mask id="path-2-outside-1_4874_42160" maskUnits="userSpaceOnUse" x="10.6658" y="2.66699" width="35" height="48" fill="black">
<rect fill="white" x="10.6658" y="2.66699" width="35" height="48"/>
<path fill-rule="evenodd" clip-rule="evenodd" d="M11.6667 21.467C11.5733 12.367 18.9 4.76033 28.0233 4.66699C35.0933 4.90033 41.2767 9.49699 43.4933 16.217C46.4333 25.0837 41.6267 34.627 32.7833 37.567L29.12 48.137C28.7467 49.187 27.2767 49.187 26.9033 48.137L23.24 37.567C16.2867 35.2803 11.62 28.7703 11.6667 21.467Z"/>
</mask>
<path fill-rule="evenodd" clip-rule="evenodd" d="M11.6667 21.467C11.5733 12.367 18.9 4.76033 28.0233 4.66699C35.0933 4.90033 41.2767 9.49699 43.4933 16.217C46.4333 25.0837 41.6267 34.627 32.7833 37.567L29.12 48.137C28.7467 49.187 27.2767 49.187 26.9033 48.137L23.24 37.567C16.2867 35.2803 11.62 28.7703 11.6667 21.467Z" fill="#FBAD26"/>
<path d="M28.0233 4.66699L28.0563 3.66754L28.0347 3.66682L28.0131 3.66704L28.0233 4.66699ZM11.6667 21.467L12.6666 21.4734L12.6667 21.4651L12.6666 21.4567L11.6667 21.467ZM43.4933 16.217L42.5436 16.5303L42.5441 16.5317L43.4933 16.217ZM32.7833 37.567L32.4678 36.6181L31.9999 36.7736L31.8385 37.2395L32.7833 37.567ZM29.12 48.137L30.0622 48.472L30.0648 48.4645L29.12 48.137ZM26.9033 48.137L25.9584 48.4645L25.9611 48.472L26.9033 48.137ZM23.24 37.567L24.1848 37.2395L24.0227 36.7717L23.5524 36.617L23.24 37.567ZM28.0131 3.66704C18.3285 3.76612 10.5678 11.834 10.6667 21.4772L12.6666 21.4567C12.5788 12.8999 19.4715 5.75453 28.0335 5.66694L28.0131 3.66704ZM44.443 15.9037C42.094 8.78253 35.5425 3.91461 28.0563 3.66754L27.9903 5.66645C34.6441 5.88604 40.4593 10.2114 42.5437 16.5302L44.443 15.9037ZM33.0988 38.5159C42.4648 35.4022 47.5566 25.294 44.4425 15.9023L42.5441 16.5317C45.31 24.8733 40.7885 33.8518 32.4678 36.6181L33.0988 38.5159ZM30.0648 48.4645L33.7282 37.8945L31.8385 37.2395L28.1751 47.8095L30.0648 48.4645ZM25.9611 48.472C26.6497 50.4087 29.3736 50.4087 30.0622 48.472L28.1778 47.802C28.1566 47.8616 28.1303 47.8846 28.1125 47.8965C28.0892 47.9121 28.0543 47.9245 28.0117 47.9245C27.969 47.9245 27.9341 47.9121 27.9108 47.8965C27.893 47.8846 27.8667 47.8616 27.8455 47.802L25.9611 48.472ZM22.2951 37.8945L25.9585 48.4645L27.8482 47.8095L24.1848 37.2395L22.2951 37.8945ZM10.6667 21.4606C10.6172 29.1974 15.561 36.0944 22.9276 38.5169L23.5524 36.617C17.0123 34.4663 12.6227 28.3432 12.6666 21.4734L10.6667 21.4606Z" fill="#E0E1E9" mask="url(#path-2-outside-1_4874_42160)"/>
<path d="M36.53 15.6593L27.97 12.8193L25.38 13.6993L33.56 16.7693L36.53 15.6593ZM18.98 16.5393L19 19.3293L19.02 22.3293L19.04 25.2393C19.04 25.6193 19.27 25.9693 19.62 26.1293L25.34 28.7393L26.11 29.0893C26.77 29.3893 27.51 28.9093 27.51 28.1893V19.6693L23.52 18.1993L18.98 16.5393ZM24.98 15.7093L23.51 15.1593L22.35 14.7293L19.54 15.6893L28.06 18.8293L30.67 17.8593L24.98 15.7093ZM36.96 16.5593L34.08 17.6293V20.9393L32.08 21.7093V18.3793L28.5 19.7093V28.1793C28.5 28.2693 28.51 28.3593 28.53 28.4393C28.57 28.5993 28.66 28.7493 28.77 28.8593C29.04 29.1493 29.49 29.2693 29.89 29.0893L36.39 26.1893C36.75 26.0293 36.98 25.6793 36.98 25.2793L36.96 16.5593Z" fill="white"/>
</g>
<defs>
<filter id="filter0_d_4874_42160" x="6" y="16.8008" width="44" height="42.5996" filterUnits="userSpaceOnUse" color-interpolation-filters="sRGB">
<feFlood flood-opacity="0" result="BackgroundImageFix"/>
<feColorMatrix in="SourceAlpha" type="matrix" values="0 0 0 0 0 0 0 0 0 0 0 0 0 0 0 0 0 0 127 0" result="hardAlpha"/>
<feOffset dy="8"/>
<feGaussianBlur stdDeviation="4"/>
<feComposite in2="hardAlpha" operator="out"/>
<feColorMatrix type="matrix" values="0 0 0 0 0 0 0 0 0 0 0 0 0 0 0 0 0 0 0.5 0"/>
<feBlend mode="normal" in2="BackgroundImageFix" result="effect1_dropShadow_4874_42160"/>
<feBlend mode="normal" in="SourceGraphic" in2="effect1_dropShadow_4874_42160" result="shape"/>
</filter>
<clipPath id="clip0_4874_42160">
<rect width="56" height="56" fill="white"/>
</clipPath>
</defs>
</svg>
