<svg width="56" height="56" viewBox="0 0 56 56" fill="none" xmlns="http://www.w3.org/2000/svg">
<g clip-path="url(#clip0_4867_31389)">
<g filter="url(#filter0_d_4867_31389)">
<path fill-rule="evenodd" clip-rule="evenodd" d="M30.9524 29.9528C37.2666 29.309 42 26.6425 42 23.4509C42 19.7781 35.732 16.8008 28 16.8008C20.268 16.8008 14 19.7781 14 23.4509C14 26.6425 18.7334 29.309 25.0476 29.9528C25.19 37.4617 26.9667 43.4006 28 43.4006C29.0332 43.4006 30.8099 37.4617 30.9524 29.9528Z" fill="#FBAD26"/>
</g>
<mask id="path-2-outside-1_4867_31389" maskUnits="userSpaceOnUse" x="10.666" y="2.66699" width="35" height="48" fill="black">
<rect fill="white" x="10.666" y="2.66699" width="35" height="48"/>
<path fill-rule="evenodd" clip-rule="evenodd" d="M11.6669 21.467C11.5736 12.367 18.9002 4.76033 28.0236 4.66699C35.0936 4.90033 41.2769 9.49699 43.4936 16.217C46.4336 25.0837 41.6269 34.627 32.7836 37.567L29.1202 48.137C28.7469 49.187 27.2769 49.187 26.9036 48.137L23.2402 37.567C16.2869 35.2803 11.6202 28.7703 11.6669 21.467Z"/>
</mask>
<path fill-rule="evenodd" clip-rule="evenodd" d="M11.6669 21.467C11.5736 12.367 18.9002 4.76033 28.0236 4.66699C35.0936 4.90033 41.2769 9.49699 43.4936 16.217C46.4336 25.0837 41.6269 34.627 32.7836 37.567L29.1202 48.137C28.7469 49.187 27.2769 49.187 26.9036 48.137L23.2402 37.567C16.2869 35.2803 11.6202 28.7703 11.6669 21.467Z" fill="#DF4EB2"/>
<path d="M28.0236 4.66699L28.0565 3.66754L28.0349 3.66682L28.0133 3.66704L28.0236 4.66699ZM11.6669 21.467L12.6669 21.4734L12.6669 21.4651L12.6668 21.4567L11.6669 21.467ZM43.4936 16.217L42.5439 16.5303L42.5444 16.5317L43.4936 16.217ZM32.7836 37.567L32.4681 36.6181L32.0002 36.7736L31.8387 37.2395L32.7836 37.567ZM29.1202 48.137L30.0625 48.472L30.0651 48.4645L29.1202 48.137ZM26.9036 48.137L25.9587 48.4645L25.9613 48.472L26.9036 48.137ZM23.2402 37.567L24.1851 37.2395L24.023 36.7717L23.5526 36.617L23.2402 37.567ZM28.0133 3.66704C18.3287 3.76612 10.568 11.834 10.667 21.4772L12.6668 21.4567C12.5791 12.8999 19.4717 5.75453 28.0338 5.66694L28.0133 3.66704ZM44.4432 15.9037C42.0942 8.78253 35.5428 3.91461 28.0565 3.66754L27.9906 5.66645C34.6443 5.88604 40.4596 10.2114 42.5439 16.5302L44.4432 15.9037ZM33.099 38.5159C42.465 35.4022 47.5568 25.294 44.4427 15.9023L42.5444 16.5317C45.3103 24.8733 40.7888 33.8518 32.4681 36.6181L33.099 38.5159ZM30.0651 48.4645L33.7284 37.8945L31.8387 37.2395L28.1754 47.8095L30.0651 48.4645ZM25.9613 48.472C26.6499 50.4087 29.3739 50.4087 30.0624 48.472L28.178 47.802C28.1568 47.8616 28.1305 47.8846 28.1127 47.8965C28.0895 47.9121 28.0545 47.9245 28.0119 47.9245C27.9693 47.9245 27.9343 47.9121 27.911 47.8965C27.8933 47.8846 27.867 47.8616 27.8458 47.802L25.9613 48.472ZM22.2954 37.8945L25.9587 48.4645L27.8484 47.8095L24.1851 37.2395L22.2954 37.8945ZM10.6669 21.4606C10.6175 29.1974 15.5612 36.0944 22.9278 38.5169L23.5526 36.617C17.0126 34.4663 12.623 28.3432 12.6669 21.4734L10.6669 21.4606Z" fill="#E0E1E9" mask="url(#path-2-outside-1_4867_31389)"/>
<circle cx="46" cy="10" r="6" fill="#171C1E"/>
<g clip-path="url(#clip1_4867_31389)">
<path d="M46.8332 10.3337H46.3332V10.8337V13.3337C46.3332 13.5159 46.182 13.667 45.9998 13.667C45.8176 13.667 45.6665 13.5159 45.6665 13.3337V10.8337V10.3337H45.1665H42.6665C42.4843 10.3337 42.3332 10.1825 42.3332 10.0003C42.3332 9.81814 42.4843 9.66699 42.6665 9.66699H45.1665H45.6665V9.16699V6.66699C45.6665 6.4848 45.8176 6.33366 45.9998 6.33366C46.182 6.33366 46.3332 6.4848 46.3332 6.66699V9.16699V9.66699H46.8332H49.3332C49.5154 9.66699 49.6665 9.81814 49.6665 10.0003C49.6665 10.1825 49.5154 10.3337 49.3332 10.3337H46.8332ZM45.9998 1.16699C41.1237 1.16699 37.1665 5.12418 37.1665 10.0003C37.1665 14.8765 41.1237 18.8337 45.9998 18.8337C50.876 18.8337 54.8332 14.8765 54.8332 10.0003C54.8332 5.12418 50.876 1.16699 45.9998 1.16699Z" fill="white" stroke="#171C1E"/>
</g>
<path fill-rule="evenodd" clip-rule="evenodd" d="M31.1108 17.9085C30.0154 16.817 30.0154 15.4526 30.9739 14.4975L33.3016 12.178C32.5713 11.9961 30.7822 11.7959 29.4677 12.4509C27.8247 13.2695 25.2231 15.0432 26.7293 19.8187C25.3144 20.9557 22.1835 23.4753 20.9785 24.4576C19.4724 25.6856 18.1032 27.5958 19.7462 29.2331C21.3893 30.8703 23.4431 29.3695 24.5385 28.0051C25.4148 26.9136 28.0072 23.73 29.1939 22.2746C34.059 23.9779 35.5148 21.529 36.3502 20.1236C36.3847 20.0655 36.4182 20.0092 36.4508 19.9551C37.0884 18.8962 37.0898 16.7715 36.8616 15.7254L34.5339 18.0449C33.4385 19.1364 32.2062 19 31.1108 17.9085ZM20.7047 28.2781C21.1584 28.7302 21.894 28.7302 22.3477 28.2781C22.8015 27.8259 22.8014 27.0929 22.3477 26.6408C21.894 26.1887 21.1584 26.1887 20.7047 26.6408C20.2509 27.0929 20.2509 27.8259 20.7047 28.2781ZM25.6341 19.5452L24.8126 20.0909L22.348 17.3621H20.9787L19.3357 14.3604L20.4311 13.2689L23.4434 14.9062V16.2706L25.2234 18.0443C25.2234 18.4809 25.4972 19.2268 25.6341 19.5452ZM28.5093 25.1396C29.2396 26.0492 30.8918 28.114 31.6586 29.0964C32.617 30.3243 34.397 30.1879 35.2186 29.3693C36.0401 28.5506 36.4509 26.504 35.2186 25.5489C34.2327 24.7848 33.3473 24.139 33.0278 23.9116C31.7955 24.0481 31.1109 23.9116 29.7417 23.6387L29.7417 23.6387L28.5093 25.1396Z" fill="white"/>
</g>
<defs>
<filter id="filter0_d_4867_31389" x="6" y="16.8008" width="44" height="42.5996" filterUnits="userSpaceOnUse" color-interpolation-filters="sRGB">
<feFlood flood-opacity="0" result="BackgroundImageFix"/>
<feColorMatrix in="SourceAlpha" type="matrix" values="0 0 0 0 0 0 0 0 0 0 0 0 0 0 0 0 0 0 127 0" result="hardAlpha"/>
<feOffset dy="8"/>
<feGaussianBlur stdDeviation="4"/>
<feComposite in2="hardAlpha" operator="out"/>
<feColorMatrix type="matrix" values="0 0 0 0 0 0 0 0 0 0 0 0 0 0 0 0 0 0 0.5 0"/>
<feBlend mode="normal" in2="BackgroundImageFix" result="effect1_dropShadow_4867_31389"/>
<feBlend mode="normal" in="SourceGraphic" in2="effect1_dropShadow_4867_31389" result="shape"/>
</filter>
<clipPath id="clip0_4867_31389">
<rect width="56" height="56" fill="white"/>
</clipPath>
<clipPath id="clip1_4867_31389">
<rect width="20" height="20" fill="white" transform="translate(36)"/>
</clipPath>
</defs>
</svg>
