<svg width="24" height="24" viewBox="0 0 24 24" fill="none" xmlns="http://www.w3.org/2000/svg">
<path fill-rule="evenodd" clip-rule="evenodd" d="M15.1108 8.90848C14.0154 7.81696 14.0154 6.45255 14.9739 5.49747L17.3016 3.17798C16.5713 2.99605 14.7822 2.79594 13.4677 3.45086C11.8247 4.2695 9.22313 6.04323 10.7293 10.8187C9.31442 11.9557 6.18345 14.4753 4.97853 15.4576C3.47238 16.6856 2.10315 18.5958 3.74622 20.2331C5.3893 21.8703 7.44314 20.3695 8.53852 19.0051C9.41482 17.9136 12.0072 14.73 13.1939 13.2746C18.059 14.9779 19.5148 12.529 20.3502 11.1236C20.3847 11.0655 20.4182 11.0092 20.4508 10.9551C21.0884 9.89616 21.0898 7.77148 20.8616 6.72543L18.5339 9.04492C17.4385 10.1364 16.2062 10 15.1108 8.90848ZM4.70466 19.2781C5.15838 19.7302 5.89401 19.7302 6.34773 19.2781C6.80145 18.8259 6.80145 18.0929 6.34773 17.6408C5.89401 17.1887 5.15838 17.1887 4.70466 17.6408C4.25093 18.0929 4.25093 18.8259 4.70466 19.2781ZM9.63412 10.5452L8.81258 11.0909L6.34797 8.36211H4.97875L3.33567 5.36042L4.43106 4.26889L7.44336 5.90618V7.27059L9.22335 9.04432C9.22335 9.48093 9.4972 10.2268 9.63412 10.5452ZM12.5093 16.1396C13.2396 17.0492 14.8918 19.114 15.6586 20.0964C16.617 21.3243 18.397 21.1879 19.2186 20.3693C20.0401 19.5506 20.4509 17.504 19.2186 16.5489C18.2327 15.7848 17.3473 15.139 17.0278 14.9116C15.7955 15.0481 15.1109 14.9116 13.7417 14.6387L13.7417 14.6387L12.5093 16.1396Z" fill="#171C1E"/>
</svg>
