<svg width="56" height="56" viewBox="0 0 56 56" fill="none" xmlns="http://www.w3.org/2000/svg">
<g clip-path="url(#clip0_4874_42092)">
<g filter="url(#filter0_d_4874_42092)">
<path fill-rule="evenodd" clip-rule="evenodd" d="M31.9517 37.4929C38.8771 35.6786 44 29.2063 44 21.5C44 12.3873 36.8366 5 28 5C19.1634 5 12 12.3873 12 21.5C12 29.2464 17.1764 35.746 24.1566 37.5209C25.8028 44.4969 27.2382 48.5 27.9999 48.5C28.7784 48.5 30.2603 44.8423 31.9517 37.4929Z" fill="#FBAD26"/>
</g>
<mask id="path-2-outside-1_4874_42092" maskUnits="userSpaceOnUse" x="10.6658" y="2.66699" width="35" height="48" fill="black">
<rect fill="white" x="10.6658" y="2.66699" width="35" height="48"/>
<path fill-rule="evenodd" clip-rule="evenodd" d="M11.6667 21.467C11.5733 12.367 18.9 4.76033 28.0233 4.66699C35.0933 4.90033 41.2767 9.49699 43.4933 16.217C46.4333 25.0837 41.6267 34.627 32.7833 37.567L29.12 48.137C28.7467 49.187 27.2767 49.187 26.9033 48.137L23.24 37.567C16.2867 35.2803 11.62 28.7703 11.6667 21.467Z"/>
</mask>
<path fill-rule="evenodd" clip-rule="evenodd" d="M11.6667 21.467C11.5733 12.367 18.9 4.76033 28.0233 4.66699C35.0933 4.90033 41.2767 9.49699 43.4933 16.217C46.4333 25.0837 41.6267 34.627 32.7833 37.567L29.12 48.137C28.7467 49.187 27.2767 49.187 26.9033 48.137L23.24 37.567C16.2867 35.2803 11.62 28.7703 11.6667 21.467Z" fill="#E49325"/>
<path d="M28.0233 4.66699L28.0563 3.66754L28.0347 3.66682L28.0131 3.66704L28.0233 4.66699ZM11.6667 21.467L12.6666 21.4734L12.6667 21.4651L12.6666 21.4567L11.6667 21.467ZM43.4933 16.217L42.5436 16.5303L42.5441 16.5317L43.4933 16.217ZM32.7833 37.567L32.4678 36.6181L31.9999 36.7736L31.8385 37.2395L32.7833 37.567ZM29.12 48.137L30.0622 48.472L30.0648 48.4645L29.12 48.137ZM26.9033 48.137L25.9584 48.4645L25.9611 48.472L26.9033 48.137ZM23.24 37.567L24.1848 37.2395L24.0227 36.7717L23.5524 36.617L23.24 37.567ZM28.0131 3.66704C18.3285 3.76612 10.5678 11.834 10.6667 21.4772L12.6666 21.4567C12.5788 12.8999 19.4715 5.75453 28.0335 5.66694L28.0131 3.66704ZM44.443 15.9037C42.094 8.78253 35.5425 3.91461 28.0563 3.66754L27.9903 5.66645C34.6441 5.88604 40.4593 10.2114 42.5437 16.5302L44.443 15.9037ZM33.0988 38.5159C42.4648 35.4022 47.5566 25.294 44.4425 15.9023L42.5441 16.5317C45.31 24.8733 40.7885 33.8518 32.4678 36.6181L33.0988 38.5159ZM30.0648 48.4645L33.7282 37.8945L31.8385 37.2395L28.1751 47.8095L30.0648 48.4645ZM25.9611 48.472C26.6497 50.4087 29.3736 50.4087 30.0622 48.472L28.1778 47.802C28.1566 47.8616 28.1303 47.8846 28.1125 47.8965C28.0892 47.9121 28.0543 47.9245 28.0117 47.9245C27.969 47.9245 27.9341 47.9121 27.9108 47.8965C27.893 47.8846 27.8667 47.8616 27.8455 47.802L25.9611 48.472ZM22.2951 37.8945L25.9585 48.4645L27.8482 47.8095L24.1848 37.2395L22.2951 37.8945ZM10.6667 21.4606C10.6172 29.1974 15.561 36.0944 22.9276 38.5169L23.5524 36.617C17.0123 34.4663 12.6227 28.3432 12.6666 21.4734L10.6667 21.4606Z" fill="#CBCDD6" mask="url(#path-2-outside-1_4874_42092)"/>
<g opacity="0.75">
<path d="M24 20H25V21H24V20ZM24 24H25V23H24V24ZM24 27H25V26H24V27ZM27 21H32V20H27V21ZM27 24H32V23H27V24ZM27 27H32V26H27V27ZM36 16V29C36 30.1 35.1 31 34 31H22C20.9 31 20 30.1 20 29V16C20 14.9 20.9 14 22 14H25C25 12.3 26.3 11 28 11C29.7 11 31 12.3 31 14H34C35.1 14 36 14.9 36 16ZM34 16H32V17H24V16H22V29H34V16Z" fill="white"/>
</g>
</g>
<defs>
<filter id="filter0_d_4874_42092" x="10" y="5" width="36" height="47.5" filterUnits="userSpaceOnUse" color-interpolation-filters="sRGB">
<feFlood flood-opacity="0" result="BackgroundImageFix"/>
<feColorMatrix in="SourceAlpha" type="matrix" values="0 0 0 0 0 0 0 0 0 0 0 0 0 0 0 0 0 0 127 0" result="hardAlpha"/>
<feOffset dy="2"/>
<feGaussianBlur stdDeviation="1"/>
<feComposite in2="hardAlpha" operator="out"/>
<feColorMatrix type="matrix" values="0 0 0 0 0 0 0 0 0 0 0 0 0 0 0 0 0 0 0.5 0"/>
<feBlend mode="normal" in2="BackgroundImageFix" result="effect1_dropShadow_4874_42092"/>
<feBlend mode="normal" in="SourceGraphic" in2="effect1_dropShadow_4874_42092" result="shape"/>
</filter>
<clipPath id="clip0_4874_42092">
<rect width="56" height="56" fill="white"/>
</clipPath>
</defs>
</svg>
