<svg width="56" height="56" viewBox="0 0 56 56" fill="none" xmlns="http://www.w3.org/2000/svg">
<g clip-path="url(#clip0_4863_31187)">
<g filter="url(#filter0_d_4863_31187)">
<path fill-rule="evenodd" clip-rule="evenodd" d="M31.9517 37.4929C38.8771 35.6786 44 29.2063 44 21.5C44 12.3873 36.8366 5 28 5C19.1634 5 12 12.3873 12 21.5C12 29.2464 17.1764 35.746 24.1566 37.5209C25.8028 44.4969 27.2382 48.5 27.9999 48.5C28.7784 48.5 30.2603 44.8423 31.9517 37.4929Z" fill="#FBAD26"/>
</g>
<mask id="path-2-outside-1_4863_31187" maskUnits="userSpaceOnUse" x="10.666" y="2.66699" width="35" height="48" fill="black">
<rect fill="white" x="10.666" y="2.66699" width="35" height="48"/>
<path fill-rule="evenodd" clip-rule="evenodd" d="M11.6669 21.467C11.5736 12.367 18.9002 4.76033 28.0236 4.66699C35.0936 4.90033 41.2769 9.49699 43.4936 16.217C46.4336 25.0837 41.6269 34.627 32.7836 37.567L29.1202 48.137C28.7469 49.187 27.2769 49.187 26.9036 48.137L23.2402 37.567C16.2869 35.2803 11.6202 28.7703 11.6669 21.467Z"/>
</mask>
<path fill-rule="evenodd" clip-rule="evenodd" d="M11.6669 21.467C11.5736 12.367 18.9002 4.76033 28.0236 4.66699C35.0936 4.90033 41.2769 9.49699 43.4936 16.217C46.4336 25.0837 41.6269 34.627 32.7836 37.567L29.1202 48.137C28.7469 49.187 27.2769 49.187 26.9036 48.137L23.2402 37.567C16.2869 35.2803 11.6202 28.7703 11.6669 21.467Z" fill="#C2429A"/>
<path d="M28.0236 4.66699L28.0565 3.66754L28.0349 3.66682L28.0133 3.66704L28.0236 4.66699ZM11.6669 21.467L12.6669 21.4734L12.6669 21.4651L12.6668 21.4567L11.6669 21.467ZM43.4936 16.217L42.5439 16.5303L42.5444 16.5317L43.4936 16.217ZM32.7836 37.567L32.4681 36.6181L32.0002 36.7736L31.8387 37.2395L32.7836 37.567ZM29.1202 48.137L30.0625 48.472L30.0651 48.4645L29.1202 48.137ZM26.9036 48.137L25.9587 48.4645L25.9613 48.472L26.9036 48.137ZM23.2402 37.567L24.1851 37.2395L24.023 36.7717L23.5526 36.617L23.2402 37.567ZM28.0133 3.66704C18.3287 3.76612 10.568 11.834 10.667 21.4772L12.6668 21.4567C12.5791 12.8999 19.4717 5.75453 28.0338 5.66694L28.0133 3.66704ZM44.4432 15.9037C42.0942 8.78253 35.5428 3.91461 28.0565 3.66754L27.9906 5.66645C34.6443 5.88604 40.4596 10.2114 42.5439 16.5302L44.4432 15.9037ZM33.099 38.5159C42.465 35.4022 47.5568 25.294 44.4427 15.9023L42.5444 16.5317C45.3103 24.8733 40.7888 33.8518 32.4681 36.6181L33.099 38.5159ZM30.0651 48.4645L33.7284 37.8945L31.8387 37.2395L28.1754 47.8095L30.0651 48.4645ZM25.9613 48.472C26.6499 50.4087 29.3739 50.4087 30.0624 48.472L28.178 47.802C28.1568 47.8616 28.1305 47.8846 28.1127 47.8965C28.0895 47.9121 28.0545 47.9245 28.0119 47.9245C27.9693 47.9245 27.9343 47.9121 27.911 47.8965C27.8933 47.8846 27.867 47.8616 27.8458 47.802L25.9613 48.472ZM22.2954 37.8945L25.9587 48.4645L27.8484 47.8095L24.1851 37.2395L22.2954 37.8945ZM10.6669 21.4606C10.6175 29.1974 15.5612 36.0944 22.9278 38.5169L23.5526 36.617C17.0126 34.4663 12.623 28.3432 12.6669 21.4734L10.6669 21.4606Z" fill="#CBCDD6" mask="url(#path-2-outside-1_4863_31187)"/>
<g opacity="0.75">
<path d="M35.125 14.25H33.625V13.5H29.125V14.25H27.625C27.2125 14.25 26.875 14.5875 26.875 15V27.75H26.125V20.25H22.5925C22.18 20.25 21.8425 20.5875 21.8425 21V21.75H20.875C20.4625 21.75 20.125 22.0875 20.125 22.5V28.5H30.625V25.875H32.125V28.5H35.875V15C35.875 14.5875 35.5375 14.25 35.125 14.25ZM22.75 27.375H21.25V25.875H22.75V27.375ZM22.75 25.125H21.25V23.625H22.75V25.125ZM25 27.375H23.5V25.875H25V27.375ZM25 25.125H23.5V23.625H25V25.125ZM25 22.875H23.5V21.375H25V22.875ZM29.875 23.625H28.375V22.125H29.875V23.625ZM29.875 21.375H28.375V19.875H29.875V21.375ZM29.875 19.125H28.375V17.625H29.875V19.125ZM29.875 16.875H28.375V15.375H29.875V16.875ZM32.125 23.625H30.625V22.125H32.125V23.625ZM32.125 21.375H30.625V19.875H32.125V21.375ZM32.125 19.125H30.625V17.625H32.125V19.125ZM32.125 16.875H30.625V15.375H32.125V16.875ZM34.375 23.625H32.875V22.125H34.375V23.625ZM34.375 21.375H32.875V19.875H34.375V21.375ZM34.375 19.125H32.875V17.625H34.375V19.125ZM34.375 16.875H32.875V15.375H34.375V16.875Z" fill="white"/>
</g>
</g>
<defs>
<filter id="filter0_d_4863_31187" x="10" y="5" width="36" height="47.5" filterUnits="userSpaceOnUse" color-interpolation-filters="sRGB">
<feFlood flood-opacity="0" result="BackgroundImageFix"/>
<feColorMatrix in="SourceAlpha" type="matrix" values="0 0 0 0 0 0 0 0 0 0 0 0 0 0 0 0 0 0 127 0" result="hardAlpha"/>
<feOffset dy="2"/>
<feGaussianBlur stdDeviation="1"/>
<feComposite in2="hardAlpha" operator="out"/>
<feColorMatrix type="matrix" values="0 0 0 0 0 0 0 0 0 0 0 0 0 0 0 0 0 0 0.5 0"/>
<feBlend mode="normal" in2="BackgroundImageFix" result="effect1_dropShadow_4863_31187"/>
<feBlend mode="normal" in="SourceGraphic" in2="effect1_dropShadow_4863_31187" result="shape"/>
</filter>
<clipPath id="clip0_4863_31187">
<rect width="56" height="56" fill="white"/>
</clipPath>
</defs>
</svg>
