<svg width="56" height="56" viewBox="0 0 56 56" fill="none" xmlns="http://www.w3.org/2000/svg">
<g clip-path="url(#clip0_4874_42231)">
<g filter="url(#filter0_d_4874_42231)">
<path fill-rule="evenodd" clip-rule="evenodd" d="M30.9524 29.9528C37.2666 29.309 42 26.6425 42 23.4509C42 19.7781 35.732 16.8008 28 16.8008C20.268 16.8008 14 19.7781 14 23.4509C14 26.6425 18.7334 29.309 25.0476 29.9528C25.19 37.4617 26.9667 43.4006 28 43.4006C29.0332 43.4006 30.8099 37.4617 30.9524 29.9528Z" fill="#FBAD26"/>
</g>
<mask id="path-2-outside-1_4874_42231" maskUnits="userSpaceOnUse" x="10.666" y="2.66699" width="35" height="48" fill="black">
<rect fill="white" x="10.666" y="2.66699" width="35" height="48"/>
<path fill-rule="evenodd" clip-rule="evenodd" d="M11.6669 21.467C11.5736 12.367 18.9002 4.76033 28.0236 4.66699C35.0936 4.90033 41.2769 9.49699 43.4936 16.217C46.4336 25.0837 41.6269 34.627 32.7836 37.567L29.1202 48.137C28.7469 49.187 27.2769 49.187 26.9036 48.137L23.2402 37.567C16.2869 35.2803 11.6202 28.7703 11.6669 21.467Z"/>
</mask>
<path fill-rule="evenodd" clip-rule="evenodd" d="M11.6669 21.467C11.5736 12.367 18.9002 4.76033 28.0236 4.66699C35.0936 4.90033 41.2769 9.49699 43.4936 16.217C46.4336 25.0837 41.6269 34.627 32.7836 37.567L29.1202 48.137C28.7469 49.187 27.2769 49.187 26.9036 48.137L23.2402 37.567C16.2869 35.2803 11.6202 28.7703 11.6669 21.467Z" fill="white"/>
<path d="M28.0236 4.66699L28.0565 3.66754L28.0349 3.66682L28.0133 3.66704L28.0236 4.66699ZM11.6669 21.467L12.6669 21.4734L12.6669 21.4651L12.6668 21.4567L11.6669 21.467ZM43.4936 16.217L42.5439 16.5303L42.5444 16.5317L43.4936 16.217ZM32.7836 37.567L32.4681 36.6181L32.0002 36.7736L31.8387 37.2395L32.7836 37.567ZM29.1202 48.137L30.0625 48.472L30.0651 48.4645L29.1202 48.137ZM26.9036 48.137L25.9587 48.4645L25.9613 48.472L26.9036 48.137ZM23.2402 37.567L24.1851 37.2395L24.023 36.7717L23.5526 36.617L23.2402 37.567ZM28.0133 3.66704C18.3287 3.76612 10.568 11.834 10.667 21.4772L12.6668 21.4567C12.5791 12.8999 19.4717 5.75453 28.0338 5.66694L28.0133 3.66704ZM44.4432 15.9037C42.0942 8.78253 35.5428 3.91461 28.0565 3.66754L27.9906 5.66645C34.6443 5.88604 40.4596 10.2114 42.5439 16.5302L44.4432 15.9037ZM33.099 38.5159C42.465 35.4022 47.5568 25.294 44.4427 15.9023L42.5444 16.5317C45.3103 24.8733 40.7888 33.8518 32.4681 36.6181L33.099 38.5159ZM30.0651 48.4645L33.7284 37.8945L31.8387 37.2395L28.1754 47.8095L30.0651 48.4645ZM25.9613 48.472C26.6499 50.4087 29.3739 50.4087 30.0624 48.472L28.178 47.802C28.1568 47.8616 28.1305 47.8846 28.1127 47.8965C28.0895 47.9121 28.0545 47.9245 28.0119 47.9245C27.9693 47.9245 27.9343 47.9121 27.911 47.8965C27.8933 47.8846 27.867 47.8616 27.8458 47.802L25.9613 48.472ZM22.2954 37.8945L25.9587 48.4645L27.8484 47.8095L24.1851 37.2395L22.2954 37.8945ZM10.6669 21.4606C10.6175 29.1974 15.5612 36.0944 22.9278 38.5169L23.5526 36.617C17.0126 34.4663 12.623 28.3432 12.6669 21.4734L10.6669 21.4606Z" fill="#90939F" mask="url(#path-2-outside-1_4874_42231)"/>
<path fill-rule="evenodd" clip-rule="evenodd" d="M19.1538 12C19.0689 12 19 12.1296 19 12.2895V22.7105C19 22.8704 19.0689 23 19.1538 23H36.8462C36.9311 23 37 22.8704 37 22.7105V12.2895C37 12.1296 36.9311 12 36.8462 12H19.1538ZM28.3333 27.9414C28.3333 27.5732 28.6318 27.2747 29 27.2747C29.3682 27.2747 29.6667 27.5732 29.6667 27.9414C29.6667 28.3096 29.3682 28.6081 29 28.6081C28.6318 28.6081 28.3333 28.3096 28.3333 27.9414ZM29 25.9414C27.8954 25.9414 27 26.8368 27 27.9414C27 29.046 27.8954 29.9414 29 29.9414C30.1046 29.9414 31 29.046 31 27.9414C31 26.8368 30.1046 25.9414 29 25.9414ZM34.3296 27.2747C33.9614 27.2747 33.6629 27.5732 33.6629 27.9414C33.6629 28.3096 33.9614 28.6081 34.3296 28.6081C34.6978 28.6081 34.9963 28.3096 34.9963 27.9414C34.9963 27.5732 34.6978 27.2747 34.3296 27.2747ZM32.3296 27.9414C32.3296 26.8368 33.225 25.9414 34.3296 25.9414C35.4342 25.9414 36.3296 26.8368 36.3296 27.9414C36.3296 29.046 35.4342 29.9414 34.3296 29.9414C33.225 29.9414 32.3296 29.046 32.3296 27.9414ZM22.5 29.1667V25H19V24H37V25V27H36.5976C36.5976 26.4 36.1146 25 34.1829 25C32.7909 25 32.1512 25.727 31.9024 26.3578V27H31.7683H31.4808H31.3659V26.4227C31.125 25.7781 30.4599 25 28.9512 25C26.9275 25 26.4216 26.4 26.4216 27H26V25H23.5V29.1667H24V30H22V29.1667H22.5Z" fill="#171C1E"/>
</g>
<defs>
<filter id="filter0_d_4874_42231" x="6" y="16.8008" width="44" height="42.5996" filterUnits="userSpaceOnUse" color-interpolation-filters="sRGB">
<feFlood flood-opacity="0" result="BackgroundImageFix"/>
<feColorMatrix in="SourceAlpha" type="matrix" values="0 0 0 0 0 0 0 0 0 0 0 0 0 0 0 0 0 0 127 0" result="hardAlpha"/>
<feOffset dy="8"/>
<feGaussianBlur stdDeviation="4"/>
<feComposite in2="hardAlpha" operator="out"/>
<feColorMatrix type="matrix" values="0 0 0 0 0 0 0 0 0 0 0 0 0 0 0 0 0 0 0.5 0"/>
<feBlend mode="normal" in2="BackgroundImageFix" result="effect1_dropShadow_4874_42231"/>
<feBlend mode="normal" in="SourceGraphic" in2="effect1_dropShadow_4874_42231" result="shape"/>
</filter>
<clipPath id="clip0_4874_42231">
<rect width="56" height="56" fill="white"/>
</clipPath>
</defs>
</svg>
