<svg width="24" height="24" viewBox="0 0 24 24" fill="none" xmlns="http://www.w3.org/2000/svg">
<path fill-rule="evenodd" clip-rule="evenodd" d="M3.16085 3.14393C3 3.29894 3 3.62086 3 4.28947V13.7105C3 13.8704 3.06888 14 3.15385 14H20.8462C20.9311 14 21 13.8704 21 13.7105V4.28947C21 3.62086 21 3.29894 20.8391 3.14393C20.6898 3 20.4017 3 19.8462 3H4.15385C3.59829 3 3.31022 3 3.16085 3.14393ZM12.3333 18.9414C12.3333 18.5732 12.6318 18.2747 13 18.2747C13.3682 18.2747 13.6667 18.5732 13.6667 18.9414C13.6667 19.3096 13.3682 19.6081 13 19.6081C12.6318 19.6081 12.3333 19.3096 12.3333 18.9414ZM13 16.9414C11.8954 16.9414 11 17.8368 11 18.9414C11 20.046 11.8954 20.9414 13 20.9414C14.1046 20.9414 15 20.046 15 18.9414C15 17.8368 14.1046 16.9414 13 16.9414ZM18.3296 18.2747C17.9614 18.2747 17.6629 18.5732 17.6629 18.9414C17.6629 19.3096 17.9614 19.6081 18.3296 19.6081C18.6978 19.6081 18.9963 19.3096 18.9963 18.9414C18.9963 18.5732 18.6978 18.2747 18.3296 18.2747ZM16.3296 18.9414C16.3296 17.8368 17.225 16.9414 18.3296 16.9414C19.4342 16.9414 20.3296 17.8368 20.3296 18.9414C20.3296 20.046 19.4342 20.9414 18.3296 20.9414C17.225 20.9414 16.3296 20.046 16.3296 18.9414ZM6.5 20.1667V16H3V15H21V16V18H20.5976C20.5976 17.4 20.1146 16 18.1829 16C16.7909 16 16.1512 16.727 15.9024 17.3578V18H15.7683H15.4808H15.3659V17.4227C15.125 16.7781 14.4599 16 12.9512 16C10.9275 16 10.4216 17.4 10.4216 18H10V16H7.5V20.1667H8V21H6V20.1667H6.5Z" fill="#171C1E"/>
</svg>
