<svg width="56" height="56" viewBox="0 0 56 56" fill="none" xmlns="http://www.w3.org/2000/svg">
<g clip-path="url(#clip0_4874_42233)">
<g filter="url(#filter0_d_4874_42233)">
<path fill-rule="evenodd" clip-rule="evenodd" d="M30.9524 29.9528C37.2666 29.309 42 26.6425 42 23.4509C42 19.7781 35.732 16.8008 28 16.8008C20.268 16.8008 14 19.7781 14 23.4509C14 26.6425 18.7334 29.309 25.0476 29.9528C25.19 37.4617 26.9667 43.4006 28 43.4006C29.0332 43.4006 30.8099 37.4617 30.9524 29.9528Z" fill="#FBAD26"/>
</g>
<mask id="path-2-outside-1_4874_42233" maskUnits="userSpaceOnUse" x="10.666" y="2.66699" width="35" height="48" fill="black">
<rect fill="white" x="10.666" y="2.66699" width="35" height="48"/>
<path fill-rule="evenodd" clip-rule="evenodd" d="M11.6669 21.467C11.5736 12.367 18.9002 4.76033 28.0236 4.66699C35.0936 4.90033 41.2769 9.49699 43.4936 16.217C46.4336 25.0837 41.6269 34.627 32.7836 37.567L29.1202 48.137C28.7469 49.187 27.2769 49.187 26.9036 48.137L23.2402 37.567C16.2869 35.2803 11.6202 28.7703 11.6669 21.467Z"/>
</mask>
<path fill-rule="evenodd" clip-rule="evenodd" d="M11.6669 21.467C11.5736 12.367 18.9002 4.76033 28.0236 4.66699C35.0936 4.90033 41.2769 9.49699 43.4936 16.217C46.4336 25.0837 41.6269 34.627 32.7836 37.567L29.1202 48.137C28.7469 49.187 27.2769 49.187 26.9036 48.137L23.2402 37.567C16.2869 35.2803 11.6202 28.7703 11.6669 21.467Z" fill="#171C1E"/>
<path d="M28.0236 4.66699L28.0565 3.66754L28.0349 3.66682L28.0133 3.66704L28.0236 4.66699ZM11.6669 21.467L12.6669 21.4734L12.6669 21.4651L12.6668 21.4567L11.6669 21.467ZM43.4936 16.217L42.5439 16.5303L42.5444 16.5317L43.4936 16.217ZM32.7836 37.567L32.4681 36.6181L32.0002 36.7736L31.8387 37.2395L32.7836 37.567ZM29.1202 48.137L30.0625 48.472L30.0651 48.4645L29.1202 48.137ZM26.9036 48.137L25.9587 48.4645L25.9613 48.472L26.9036 48.137ZM23.2402 37.567L24.1851 37.2395L24.023 36.7717L23.5526 36.617L23.2402 37.567ZM28.0133 3.66704C18.3287 3.76612 10.568 11.834 10.667 21.4772L12.6668 21.4567C12.5791 12.8999 19.4717 5.75453 28.0338 5.66694L28.0133 3.66704ZM44.4432 15.9037C42.0942 8.78253 35.5428 3.91461 28.0565 3.66754L27.9906 5.66645C34.6443 5.88604 40.4596 10.2114 42.5439 16.5302L44.4432 15.9037ZM33.099 38.5159C42.465 35.4022 47.5568 25.294 44.4427 15.9023L42.5444 16.5317C45.3103 24.8733 40.7888 33.8518 32.4681 36.6181L33.099 38.5159ZM30.0651 48.4645L33.7284 37.8945L31.8387 37.2395L28.1754 47.8095L30.0651 48.4645ZM25.9613 48.472C26.6499 50.4087 29.3739 50.4087 30.0624 48.472L28.178 47.802C28.1568 47.8616 28.1305 47.8846 28.1128 47.8965C28.0895 47.9121 28.0545 47.9245 28.0119 47.9245C27.9693 47.9245 27.9343 47.9121 27.911 47.8965C27.8933 47.8846 27.867 47.8616 27.8458 47.802L25.9613 48.472ZM22.2954 37.8945L25.9587 48.4645L27.8484 47.8095L24.1851 37.2395L22.2954 37.8945ZM10.6669 21.4606C10.6175 29.1974 15.5612 36.0944 22.9278 38.5169L23.5526 36.617C17.0126 34.4663 12.623 28.3432 12.6669 21.4734L10.6669 21.4606Z" fill="#CBCDD6" mask="url(#path-2-outside-1_4874_42233)"/>
<g opacity="0.75">
<path fill-rule="evenodd" clip-rule="evenodd" d="M27.9999 12.5H24.5C23 12.5 22.4999 14.3947 22.4999 15.3421V20.5526L24.4999 22.4474L24.9999 25.7632H27.9999V25.2895H26V24.3421H27.9999V23.3947H26V22.4474H27.9999V19.6053C26.3999 19.6053 23.9999 19.9211 22.9999 20.0789V17.2368C22.9999 16.7632 23.4999 16.7632 23.9999 16.7632H27.9999V12.5ZM24.4999 25.7632L21.5001 25.2895V25.2888C21.5001 24.1835 21.5001 22.4472 22 21.5L23.9999 22.9211L24.4999 25.7632ZM24.9999 26.2368L21.4999 25.7632C21.4009 28.2456 22.4999 29.0789 22.9999 29.0789H27.9999V26.2368H24.9999ZM22.7586 24.2945C23.4151 24.4042 23.9848 24.9803 23.898 25.4468L22.5849 25.2275H22.5849C22.22 25.1665 22.0579 25.1394 22.0008 25.0473C21.9552 24.9737 21.9767 24.8585 22.0152 24.6513C22.0537 24.4444 22.0752 24.3293 22.1443 24.2748C22.2312 24.2064 22.3932 24.2335 22.7586 24.2945ZM20 18.1842C20 17.2368 20.5 17.2368 21 17.2368C21.5 17.2368 21.5 17.7105 21.5 18.1842V19.1316C21.5 19.4474 21.5 19.7632 21.3519 19.9386L22 20.5526V21.0263L20.6583 20.073C20.295 20.0535 20 19.9691 20 19.6053V18.1842ZM21.5 28.1316C21.5 28.6053 22.5 29.5526 23 29.5526H24V30.0263C24 30.5 23.5 30.5 22.5 30.5C21.878 30.5 21.6429 30.5 21.554 30.386C21.5 30.3167 21.5 30.2054 21.5 30.0263V28.1316ZM28.0001 12.5H31.5C33 12.5 33.5001 14.3947 33.5001 15.3421V20.5526L31.5001 22.4474L31.0001 25.7632H28.0001V25.2895H30V24.3421H28.0001V23.3947H30V22.4474H28.0001V19.6053C29.6001 19.6053 32.0001 19.9211 33.0001 20.0789V17.2368C33.0001 16.7632 32.5001 16.7632 32.0001 16.7632H28.0001V12.5ZM31.5001 25.7632L34.4999 25.2895V25.2888C34.4999 24.1835 34.4999 22.4472 34 21.5L32.0001 22.9211L31.5001 25.7632ZM31.0001 26.2368L34.5001 25.7632C34.5991 28.2456 33.5001 29.0789 33.0001 29.0789H28.0001V26.2368H31.0001ZM33.2414 24.2945C32.5849 24.4042 32.0152 24.9803 32.102 25.4468L33.4151 25.2275H33.4151C33.78 25.1665 33.9421 25.1394 33.9992 25.0473C34.0448 24.9737 34.0233 24.8585 33.9848 24.6513L33.9848 24.6513C33.9463 24.4444 33.9248 24.3293 33.8557 24.2748C33.7688 24.2064 33.6068 24.2335 33.2414 24.2945ZM36 18.1842C36 17.2368 35.5 17.2368 35 17.2368C34.5 17.2368 34.5 17.7105 34.5 18.1842V19.1316C34.5 19.4474 34.5 19.7632 34.6481 19.9386L34 20.5526V21.0263L35.3417 20.073C35.705 20.0535 36 19.9691 36 19.6053V18.1842ZM34.5 28.1316C34.5 28.6053 33.5 29.5526 33 29.5526H32V30.0263C32 30.5 32.5 30.5 33.5 30.5C34.122 30.5 34.3571 30.5 34.446 30.386C34.5 30.3167 34.5 30.2054 34.5 30.0263V28.1316Z" fill="white"/>
</g>
</g>
<defs>
<filter id="filter0_d_4874_42233" x="6" y="16.8008" width="44" height="42.5996" filterUnits="userSpaceOnUse" color-interpolation-filters="sRGB">
<feFlood flood-opacity="0" result="BackgroundImageFix"/>
<feColorMatrix in="SourceAlpha" type="matrix" values="0 0 0 0 0 0 0 0 0 0 0 0 0 0 0 0 0 0 127 0" result="hardAlpha"/>
<feOffset dy="8"/>
<feGaussianBlur stdDeviation="4"/>
<feComposite in2="hardAlpha" operator="out"/>
<feColorMatrix type="matrix" values="0 0 0 0 0 0 0 0 0 0 0 0 0 0 0 0 0 0 0.5 0"/>
<feBlend mode="normal" in2="BackgroundImageFix" result="effect1_dropShadow_4874_42233"/>
<feBlend mode="normal" in="SourceGraphic" in2="effect1_dropShadow_4874_42233" result="shape"/>
</filter>
<clipPath id="clip0_4874_42233">
<rect width="56" height="56" fill="white"/>
</clipPath>
</defs>
</svg>
