<svg width="24" height="24" viewBox="0 0 24 24" fill="none" xmlns="http://www.w3.org/2000/svg">
<path fill-rule="evenodd" clip-rule="evenodd" d="M11.9999 3H8.5C7 3 6.49992 4.89474 6.49992 5.84211V11.0526L8.49992 12.9474L8.99992 16.2632H11.9999V15.7895H10V14.8421H11.9999V13.8947H10V12.9474H11.9999V10.1053C10.3999 10.1053 7.99992 10.4211 6.99992 10.5789V7.73684C6.99992 7.26316 7.49992 7.26316 7.99992 7.26316H11.9999V3ZM8.49992 16.2632L5.5001 15.7895V15.7888C5.5001 14.6835 5.5001 12.9472 6.00003 12L7.99992 13.4211L8.49992 16.2632ZM8.99992 16.7368L5.49992 16.2632C5.4009 18.7456 6.49992 19.5789 6.99992 19.5789H11.9999V16.7368H8.99992ZM6.75859 14.7945C7.41513 14.9042 7.98484 15.4803 7.89802 15.9468L6.58494 15.7275H6.58493C6.22001 15.6665 6.05793 15.6394 6.00084 15.5473C5.95523 15.4737 5.97666 15.3585 6.01523 15.1513C6.05373 14.9444 6.07516 14.8293 6.14435 14.7748C6.23117 14.7064 6.39321 14.7335 6.75859 14.7945ZM4 8.68421C4 7.73684 4.5 7.73684 5 7.73684C5.5 7.73684 5.5 8.21053 5.5 8.68421V9.63158C5.5 9.94737 5.5 10.2632 5.35185 10.4386L6 11.0526V11.5263L4.65835 10.573C4.29497 10.5535 4 10.4691 4 10.1053V8.68421ZM5.5 18.6316C5.5 19.1053 6.5 20.0526 7 20.0526H8V20.5263C8 21 7.5 21 6.5 21C5.87798 21 5.64287 21 5.554 20.886C5.5 20.8167 5.5 20.7054 5.5 20.5263V18.6316ZM12.0001 3H15.5C17 3 17.5001 4.89474 17.5001 5.84211V11.0526L15.5001 12.9474L15.0001 16.2632H12.0001V15.7895H14V14.8421H12.0001V13.8947H14V12.9474H12.0001V10.1053C13.6001 10.1053 16.0001 10.4211 17.0001 10.5789V7.73684C17.0001 7.26316 16.5001 7.26316 16.0001 7.26316H12.0001V3ZM15.5001 16.2632L18.4999 15.7895V15.7888C18.4999 14.6835 18.4999 12.9472 18 12L16.0001 13.4211L15.5001 16.2632ZM15.0001 16.7368L18.5001 16.2632C18.5991 18.7456 17.5001 19.5789 17.0001 19.5789H12.0001V16.7368H15.0001ZM17.2414 14.7945C16.5849 14.9042 16.0152 15.4803 16.102 15.9468L17.4151 15.7275H17.4151C17.78 15.6665 17.9421 15.6394 17.9992 15.5473C18.0448 15.4737 18.0233 15.3585 17.9848 15.1513L17.9848 15.1513C17.9463 14.9444 17.9248 14.8293 17.8557 14.7748C17.7688 14.7064 17.6068 14.7335 17.2414 14.7945ZM20 8.68421C20 7.73684 19.5 7.73684 19 7.73684C18.5 7.73684 18.5 8.21053 18.5 8.68421V9.63158C18.5 9.94737 18.5 10.2632 18.6481 10.4386L18 11.0526V11.5263L19.3417 10.573C19.705 10.5535 20 10.4691 20 10.1053V8.68421ZM18.5 18.6316C18.5 19.1053 17.5 20.0526 17 20.0526H16V20.5263C16 21 16.5 21 17.5 21C18.122 21 18.3571 21 18.446 20.886C18.5 20.8167 18.5 20.7054 18.5 20.5263V18.6316Z" fill="#171C1E"/>
</svg>
