<svg width="24" height="24" viewBox="0 0 24 24" fill="none" xmlns="http://www.w3.org/2000/svg">
<rect width="4.24961" height="7.97607" rx="1" transform="matrix(0.99991 0.0133989 -0.0227312 0.999742 3.18164 3.24316)" fill="#171C1E"/>
<rect x="9.34766" y="3" width="4.24988" height="8.42836" rx="1" fill="#171C1E"/>
<rect x="3.20801" y="12.8779" width="4.24988" height="7.97522" rx="1" fill="#171C1E"/>
<rect width="4.24961" height="7.97607" rx="1" transform="matrix(0.99991 -0.0133989 0.0227312 0.999742 15.3955 13.0264)" fill="#171C1E"/>
<path fill-rule="evenodd" clip-rule="evenodd" d="M8.22544 12.3343L8.22544 20.9443H8.72219L8.72219 12.3343H14.3643V20.9443H14.861V12.3343H20.5032V20.9443H20.9999V3H20.5032V11.8359H14.861V3H14.3643V11.8359H8.72219L8.72219 3H8.22544L8.22544 11.8359H3V12.3343H8.22544Z" fill="#171C1E"/>
</svg>
