<svg width="56" height="56" viewBox="0 0 56 56" fill="none" xmlns="http://www.w3.org/2000/svg">
<g clip-path="url(#clip0_4867_31395)">
<g filter="url(#filter0_d_4867_31395)">
<path fill-rule="evenodd" clip-rule="evenodd" d="M31.9517 37.4929C38.8771 35.6786 44 29.2063 44 21.5C44 12.3873 36.8366 5 28 5C19.1634 5 12 12.3873 12 21.5C12 29.2464 17.1764 35.746 24.1566 37.5209C25.8028 44.4969 27.2382 48.5 27.9999 48.5C28.7784 48.5 30.2603 44.8423 31.9517 37.4929Z" fill="#FBAD26"/>
</g>
<mask id="path-2-outside-1_4867_31395" maskUnits="userSpaceOnUse" x="10.666" y="2.66699" width="35" height="48" fill="black">
<rect fill="white" x="10.666" y="2.66699" width="35" height="48"/>
<path fill-rule="evenodd" clip-rule="evenodd" d="M11.6669 21.467C11.5736 12.367 18.9002 4.76033 28.0236 4.66699C35.0936 4.90033 41.2769 9.49699 43.4936 16.217C46.4336 25.0837 41.6269 34.627 32.7836 37.567L29.1202 48.137C28.7469 49.187 27.2769 49.187 26.9036 48.137L23.2402 37.567C16.2869 35.2803 11.6202 28.7703 11.6669 21.467Z"/>
</mask>
<path fill-rule="evenodd" clip-rule="evenodd" d="M11.6669 21.467C11.5736 12.367 18.9002 4.76033 28.0236 4.66699C35.0936 4.90033 41.2769 9.49699 43.4936 16.217C46.4336 25.0837 41.6269 34.627 32.7836 37.567L29.1202 48.137C28.7469 49.187 27.2769 49.187 26.9036 48.137L23.2402 37.567C16.2869 35.2803 11.6202 28.7703 11.6669 21.467Z" fill="#C2429A"/>
<path d="M28.0236 4.66699L28.0565 3.66754L28.0349 3.66682L28.0133 3.66704L28.0236 4.66699ZM11.6669 21.467L12.6669 21.4734L12.6669 21.4651L12.6668 21.4567L11.6669 21.467ZM43.4936 16.217L42.5439 16.5303L42.5444 16.5317L43.4936 16.217ZM32.7836 37.567L32.4681 36.6181L32.0002 36.7736L31.8387 37.2395L32.7836 37.567ZM29.1202 48.137L30.0625 48.472L30.0651 48.4645L29.1202 48.137ZM26.9036 48.137L25.9587 48.4645L25.9613 48.472L26.9036 48.137ZM23.2402 37.567L24.1851 37.2395L24.023 36.7717L23.5526 36.617L23.2402 37.567ZM28.0133 3.66704C18.3287 3.76612 10.568 11.834 10.667 21.4772L12.6668 21.4567C12.5791 12.8999 19.4717 5.75453 28.0338 5.66694L28.0133 3.66704ZM44.4432 15.9037C42.0942 8.78253 35.5428 3.91461 28.0565 3.66754L27.9906 5.66645C34.6443 5.88604 40.4596 10.2114 42.5439 16.5302L44.4432 15.9037ZM33.099 38.5159C42.465 35.4022 47.5568 25.294 44.4427 15.9023L42.5444 16.5317C45.3103 24.8733 40.7888 33.8518 32.4681 36.6181L33.099 38.5159ZM30.0651 48.4645L33.7284 37.8945L31.8387 37.2395L28.1754 47.8095L30.0651 48.4645ZM25.9613 48.472C26.6499 50.4087 29.3739 50.4087 30.0624 48.472L28.178 47.802C28.1568 47.8616 28.1305 47.8846 28.1128 47.8965C28.0895 47.9121 28.0545 47.9245 28.0119 47.9245C27.9693 47.9245 27.9343 47.9121 27.911 47.8965C27.8933 47.8846 27.867 47.8616 27.8458 47.802L25.9613 48.472ZM22.2954 37.8945L25.9587 48.4645L27.8484 47.8095L24.1851 37.2395L22.2954 37.8945ZM10.6669 21.4606C10.6175 29.1974 15.5612 36.0944 22.9278 38.5169L23.5526 36.617C17.0126 34.4663 12.623 28.3432 12.6669 21.4734L10.6669 21.4606Z" fill="#CBCDD6" mask="url(#path-2-outside-1_4867_31395)"/>
<circle cx="46" cy="10" r="6" fill="#171C1E"/>
<g clip-path="url(#clip1_4867_31395)">
<path d="M46.8332 10.3337H46.3332V10.8337V13.3337C46.3332 13.5159 46.182 13.667 45.9998 13.667C45.8176 13.667 45.6665 13.5159 45.6665 13.3337V10.8337V10.3337H45.1665H42.6665C42.4843 10.3337 42.3332 10.1825 42.3332 10.0003C42.3332 9.81814 42.4843 9.66699 42.6665 9.66699H45.1665H45.6665V9.16699V6.66699C45.6665 6.4848 45.8176 6.33366 45.9998 6.33366C46.182 6.33366 46.3332 6.4848 46.3332 6.66699V9.16699V9.66699H46.8332H49.3332C49.5154 9.66699 49.6665 9.81814 49.6665 10.0003C49.6665 10.1825 49.5154 10.3337 49.3332 10.3337H46.8332ZM45.9998 1.16699C41.1237 1.16699 37.1665 5.12418 37.1665 10.0003C37.1665 14.8765 41.1237 18.8337 45.9998 18.8337C50.876 18.8337 54.8332 14.8765 54.8332 10.0003C54.8332 5.12418 50.876 1.16699 45.9998 1.16699Z" fill="white" stroke="#171C1E"/>
</g>
<g opacity="0.75">
<rect width="4.24961" height="7.97607" rx="1" transform="matrix(0.99991 0.0133989 -0.0227312 0.999742 19.1812 12.2432)" fill="white"/>
<rect x="25.3472" y="12" width="4.24988" height="8.42836" rx="1" fill="white"/>
<rect x="19.2085" y="21.8779" width="4.24988" height="7.97522" rx="1" fill="white"/>
<rect width="4.24961" height="7.97607" rx="1" transform="matrix(0.99991 -0.0133989 0.0227312 0.999742 31.3955 22.0264)" fill="white"/>
<path fill-rule="evenodd" clip-rule="evenodd" d="M24.2254 21.3343L24.2254 29.9443H24.7222L24.7222 21.3343H30.3643V29.9443H30.861V21.3343H36.5032V29.9443H36.9999V12H36.5032V20.8359H30.861V12H30.3643V20.8359H24.7222L24.7222 12H24.2254L24.2254 20.8359H19V21.3343H24.2254Z" fill="white"/>
</g>
</g>
<defs>
<filter id="filter0_d_4867_31395" x="10" y="5" width="36" height="47.5" filterUnits="userSpaceOnUse" color-interpolation-filters="sRGB">
<feFlood flood-opacity="0" result="BackgroundImageFix"/>
<feColorMatrix in="SourceAlpha" type="matrix" values="0 0 0 0 0 0 0 0 0 0 0 0 0 0 0 0 0 0 127 0" result="hardAlpha"/>
<feOffset dy="2"/>
<feGaussianBlur stdDeviation="1"/>
<feComposite in2="hardAlpha" operator="out"/>
<feColorMatrix type="matrix" values="0 0 0 0 0 0 0 0 0 0 0 0 0 0 0 0 0 0 0.5 0"/>
<feBlend mode="normal" in2="BackgroundImageFix" result="effect1_dropShadow_4867_31395"/>
<feBlend mode="normal" in="SourceGraphic" in2="effect1_dropShadow_4867_31395" result="shape"/>
</filter>
<clipPath id="clip0_4867_31395">
<rect width="56" height="56" fill="white"/>
</clipPath>
<clipPath id="clip1_4867_31395">
<rect width="20" height="20" fill="white" transform="translate(36)"/>
</clipPath>
</defs>
</svg>
