<svg xmlns="http://www.w3.org/2000/svg" width="24" height="24" fill="currentColor" viewBox="0 0 24 24">
  <path d="m12,2C6.48,2,2,6.48,2,12s4.48,10,10,10,10-4.48,10-10S17.52,2,12,2Zm0,18c-4.41,0-8-3.59-8-8S7.59,4,12,4s8,3.59,8,8-3.59,8-8,8Zm4.3-12.29c-.39-.39-1.02-.39-1.41,0l-2.88,2.88-2.88-2.88c-.39-.39-1.02-.39-1.41,0s-.39,1.02,0,1.41l2.88,2.88-2.88,2.88c-.39.39-.39,1.02,0,1.41.2.2.45.29.71.29s.51-.1.71-.29l2.88-2.88,2.88,2.88c.2.2.45.29.71.29s.51-.1.71-.29c.39-.39.39-1.02,0-1.41l-2.88-2.88,2.88-2.88c.39-.39.39-1.02,0-1.41Z"/>
</svg>
