<svg xmlns="http://www.w3.org/2000/svg" width="24" height="24" viewBox="0 0 24 24">
  <path d="m12.35,9.07c-.2-.2-.51-.2-.71,0l-3.35,3.35c-.17.16-.05.44.18.44h1.97v2.64c0,.27.23.5.5.5h2.11c.28,0,.5-.23.5-.5v-2.64h1.96c.23,0,.34-.28.18-.44l-3.35-3.35Zm7.58,2.05c.04-.29.07-.57.07-.87,0-3.45-2.8-6.25-6.25-6.25-2.53,0-4.7,1.5-5.68,3.66-.42-.1-.86-.16-1.32-.16-3.18,0-5.75,2.57-5.75,5.75s2.57,5.75,5.75,5.75c.08,0,.17,0,.25,0h12c2.21,0,4-1.79,4-4,0-1.89-1.31-3.46-3.07-3.88Zm-.93,5.88H6.93s-.18,0-.18,0c-2.07,0-3.75-1.68-3.75-3.75s1.68-3.75,3.75-3.75c.28,0,.56.03.86.1l1.6.38.68-1.49c.69-1.51,2.21-2.49,3.86-2.49,2.34,0,4.25,1.91,4.25,4.25,0,.2-.02.4-.05.6l-.25,1.8,1.76.42c.9.22,1.53,1.01,1.53,1.93,0,1.1-.9,2-2,2Z"/>
</svg>
