<svg xmlns="http://www.w3.org/2000/svg" width="24" height="24" fill="currentColor" viewBox="0 0 24 24">
  <path d="m17.27,20H5.27V4h7l2.02,2.02,1.5-1.5-2.23-2.23c-.19-.19-.44-.29-.71-.29h-7.59c-1.1,0-2,.9-2,2v16c0,1.1.9,2,2,2h12c1.1,0,2-.9,2-2v-9.05l-2,2v7.05Zm3.32-13.2l-2.12-2.12c-.2-.2-.51-.2-.71,0l-1.35,1.35,2.83,2.83,1.35-1.35c.2-.2.2-.51,0-.71ZM6.77,15.88v2.12c0,.28.22.5.5.5h2.12c.13,0,.26-.05.35-.15l8.44-8.44-2.83-2.83L6.91,15.53c-.09.09-.15.22-.15.35Zm1.58.18l6.86-6.86c.2-.2.51-.2.71,0s.2.51,0,.71l-6.86,6.86c-.1.1-.23.15-.35.15s-.26-.05-.35-.15c-.2-.2-.2-.51,0-.71Z"/>
</svg>
