<svg xmlns="http://www.w3.org/2000/svg" width="24" height="24" fill="currentColor" viewBox="0 0 24 24">
  <path d="m11.88,15.15c-1.61,0-3.28,1.02-3.28,3.46s1.67,3.46,3.28,3.46,3.27-1.02,3.27-3.46-1.67-3.46-3.27-3.46Zm0,5.47c-.95,0-1.48-.79-1.48-2.02s.53-1.97,1.48-1.97,1.47.75,1.47,1.97-.53,2.02-1.47,2.02Zm-6.88-6.69c.55,0,1-.45,1-1V3.94h6v5c0,.55.45,1,1,1h5v3c0,.55.45,1,1,1s1-.45,1-1v-4.59c0-.27-.11-.52-.29-.71l-5.41-5.41c-.19-.19-.44-.29-.71-.29h-7.59c-1.1,0-2,.9-2,2v9c0,.55.45,1,1,1ZM14,5l3,3h-3v-3Zm6.3,14.35c-.21.83-.5,1.27-1.2,1.27-.89,0-1.33-.79-1.33-2.02s.42-1.97,1.31-1.97c.69,0,.95.5,1.13,1.14l1.7-.5c-.28-1.19-1-2.12-2.82-2.12-1.69,0-3.12,1.02-3.12,3.46s1.37,3.46,3.12,3.46,2.58-.98,2.91-2.33l-1.7-.38ZM4.19,15.27h-2.19v6.66h2.19c1.95,0,3.66-.76,3.66-3.38s-1.68-3.29-3.66-3.29Zm.08,5.21h-.48v-3.72h.48c1.42,0,1.81.62,1.78,1.94-.02.98-.8,1.77-1.78,1.77Z"/>
</svg>
