<svg xmlns="http://www.w3.org/2000/svg" width="24" height="24" viewBox="0 0 24 24">
  <path d="m20,9.29h-.28s0,0,0,0h0c-.24-4.06-3.61-7.29-7.73-7.29s-7.49,3.23-7.73,7.29h0,0s0,0,0,0h-.27c-1.1,0-2,.9-2,2v2.71c0,1.1.9,3.29,2,3.29h2c.55,0,1-.45,1-1v-6c0-.45-.31-.82-.72-.94v-.06c.24-2.96,2.71-5.29,5.72-5.29s5.48,2.34,5.72,5.29h0s0,.06,0,.06c-.41.12-.72.49-.72.94v6c0,.39.23.72.56.88l-.86.99-1.42.59c-.24-.18-.55-.27-.86-.18l-1.69.47c-.53.15-.84.7-.7,1.23.15.53.7.84,1.23.7l1.69-.47c.4-.11.67-.45.72-.83l1.51-.62c.07-.03.14-.08.19-.13l1.41-1.62h1.22c1.1,0,2-2.19,2-3.29v-2.71c0-1.1-.9-2-2-2Zm-15,6h-.55c-.21-.34-.45-.99-.45-1.29v-2.71h.27l.73.02v3.98Zm15-1.29c0,.31-.23.95-.45,1.29h-.55v-3.98l.78-.02h.22v2.71Z"/>
</svg>
