<svg xmlns="http://www.w3.org/2000/svg" width="24" height="24" fill="currentColor" viewBox="0 0 24 24">
  <path d="m3.32,17.09c-.09.09-.15.22-.15.35v3.04c0,.28.22.5.5.5h3.04c.13,0,.26-.05.35-.15l1.26-1.26-3.75-3.75-1.26,1.26Zm6.07,1.42l11.26-11.26c.24-.24.24-.63,0-.87l-.44-.44.35-.35c.33-.33.33-.88,0-1.21l-.79-.79c-.33-.33-.88-.33-1.21,0l-.35.35-.44-.44c-.24-.24-.63-.24-.87,0l-1.23,1.23-1.43-1.44c-.39-.39-1.02-.39-1.41,0l-4.61,4.61c-.29.29-.29.77,0,1.06s.77.29,1.06,0l4.26-4.26,1.08,1.08L5.64,14.76l3.75,3.75Zm7.44-11.77c.2-.2.51-.2.71,0s.2.51,0,.71l-8,8c-.2.2-.51.2-.71,0s-.2-.51,0-.71l8-8Z"/>
</svg>
