<svg xmlns="http://www.w3.org/2000/svg" width="24" height="24" fill="currentColor" viewBox="0 0 24 24">
  <path d="M22 19.28v-8.55c.6-.35 1-.98 1-1.72 0-1.1-.9-2-2-2-.74 0-1.38.4-1.72 1H16V4.73c.6-.35 1-.98 1-1.72 0-1.1-.9-2-2-2-.74 0-1.38.4-1.72 1H4.72c-.35-.6-.98-1-1.72-1-1.1 0-2 .9-2 2 0 .74.4 1.38 1 1.72v8.55c-.6.35-1 .98-1 1.72 0 1.1.9 2 2 2 .74 0 1.38-.4 1.72-1H8v3.28c-.6.35-1 .98-1 1.72 0 1.1.9 2 2 2 .74 0 1.38-.4 1.72-1h8.55c.35.6.98 1 1.72 1 1.1 0 2-.9 2-2 0-.74-.4-1.38-1-1.72ZM21 8c.55 0 1 .45 1 1s-.45 1-1 1-1-.45-1-1 .45-1 1-1Zm-6-6c.55 0 1 .45 1 1s-.45 1-1 1-1-.45-1-1 .45-1 1-1ZM3 2c.55 0 1 .45 1 1s-.45 1-1 1-1-.45-1-1 .45-1 1-1Zm0 14c-.55 0-1-.45-1-1s.45-1 1-1 1 .45 1 1-.45 1-1 1Zm6 6c-.55 0-1-.45-1-1s.45-1 1-1 1 .45 1 1-.45 1-1 1Zm10.28-2h-8.55c-.17-.3-.42-.55-.72-.72V14H4.73c-.17-.3-.42-.55-.72-.72V4.72c.3-.17.55-.42.72-.72h8.55c.17.3.42.55.72.72V10h5.28c.17.3.42.55.72.72v8.55c-.3.17-.55.42-.72.72ZM21 22c-.55 0-1-.45-1-1s.45-1 1-1 1 .45 1 1-.45 1-1 1Zm-7-8h-2v2h4v-4h-2v2Zm-2-6H8v4h2v-2h2V8Z"/>
</svg>
