<svg xmlns="http://www.w3.org/2000/svg" width="24" height="24" fill="currentColor" viewBox="0 0 24 24">
  <path d="m19.06,12l1.47-1.47c.29-.29.29-.77,0-1.06-.29-.29-.77-.29-1.06,0l-1.47,1.47-1.47-1.47c-.29-.29-.77-.29-1.06,0s-.29.77,0,1.06l1.47,1.47-1.47,1.47c-.29.29-.29.77,0,1.06.15.15.34.22.53.22s.38-.07.53-.22l1.47-1.47,1.47,1.47c.15.15.34.22.53.22s.38-.07.53-.22c.29-.29.29-.77,0-1.06l-1.47-1.47ZM11.15,2.86h0s-4.15,4.14-4.15,4.14h-3c-1.1,0-2,.9-2,2v6c0,1.1.9,2,2,2h3l4.15,4.15c.32.32.85.09.85-.35V3.21c0-.45-.54-.67-.85-.35Zm-1.15,14.31l-2.17-2.17h-3.83v-6h3.83l2.17-2.09v10.26Z"/>
</svg>
