<svg width="24" height="24" viewBox="0 0 24 24" fill="none" xmlns="http://www.w3.org/2000/svg">
<path fill-rule="evenodd" clip-rule="evenodd" d="M20.548 4.36942C21.6236 4.61973 22.5978 5.81898 22.7188 7.02409C22.7188 7.02409 23 9.22507 23 12.0005C23 14.7681 22.7188 16.9691 22.7188 16.9691C22.5978 18.1737 21.6236 19.3734 20.548 19.6237C20.548 19.6237 20.1563 19.7357 19.4733 19.8902C19.4653 19.9002 19.459 19.9111 19.4528 19.9218L19.4528 19.9218L19.4528 19.9219L19.4528 19.9219C19.4442 19.9368 19.4356 19.9515 19.4226 19.964C17.4354 21.9 14.8012 23 12 23C9.15961 23 6.49761 21.8624 4.50422 19.8814C3.83417 19.7293 3.45157 19.6198 3.45157 19.6198C2.37643 19.3695 1.40222 18.1698 1.28122 16.9647C1.28122 16.9647 1 14.7637 1 11.9966C1 9.22898 1.28122 7.028 1.28122 7.028C1.40222 5.82289 2.37643 4.62364 3.45157 4.37333C3.45157 4.37333 3.83465 4.26333 4.50517 4.11129C6.49904 2.13129 9.16248 1 12 1C14.7385 1 17.3187 2.05111 19.2916 3.91036C19.3475 3.96267 19.3839 4.02671 19.4197 4.09076C20.1343 4.25111 20.548 4.36942 20.548 4.36942ZM7.70235 20.4568C9.00896 21.152 10.4734 21.5333 12 21.5333C13.5276 21.5333 14.9958 21.1554 16.3043 20.4588C15.0393 20.6313 13.5711 20.7697 11.9986 20.7932C10.4299 20.7682 8.96496 20.6299 7.70235 20.4568ZM21.3337 15.3973C21.3041 15.7747 21.2725 16.1155 21.241 16.4137C21.2223 16.5892 21.2084 16.7085 21.2013 16.7662C21.14 17.3675 20.623 18.0016 20.2084 18.0984L20.1338 18.1175C20.1123 18.1238 20.0601 18.138 19.9798 18.1595C19.8397 18.1967 19.6742 18.2382 19.4848 18.2837C18.9372 18.4147 18.3135 18.5462 17.6263 18.6689C15.8098 18.994 13.8977 19.1999 11.9761 19.2287C10.0449 19.1974 8.08017 18.9794 6.22404 18.6386C5.57552 18.5193 4.98822 18.3937 4.47409 18.27C4.17183 18.1972 3.96522 18.1419 3.86622 18.1136L3.79161 18.0945C3.37696 17.9977 2.85996 17.3636 2.804 16.8053C2.79157 16.7046 2.7777 16.5848 2.75904 16.4098C2.72748 16.1116 2.69591 15.7708 2.66626 15.3934C2.58113 14.3124 2.53043 13.1626 2.53043 11.9966C2.53043 10.8306 2.58113 9.68071 2.66626 8.59978C2.69591 8.22236 2.72748 7.88111 2.75904 7.58338C2.7777 7.40787 2.79157 7.28809 2.79874 7.23089C2.85996 6.62907 3.37696 5.99498 3.79161 5.89867L3.86622 5.87911C3.96522 5.85076 4.17183 5.796 4.47409 5.72316C4.98822 5.59898 5.57552 5.47333 6.22404 5.35453C8.08017 5.01329 10.0449 4.79573 12.022 4.76444C13.8977 4.7928 15.8098 4.99862 17.6263 5.32373C18.3135 5.44693 18.9372 5.57844 19.4848 5.70947C19.6742 5.75444 19.8397 5.79649 19.9798 5.83364C20.0601 5.85467 20.1123 5.86884 20.1338 5.8752L20.2084 5.89476C20.623 5.99107 21.14 6.62516 21.196 7.18347L21.2013 7.22698C21.2084 7.28418 21.2223 7.40396 21.241 7.57947C21.2725 7.87769 21.3041 8.21893 21.3337 8.59636C21.4184 9.67876 21.4696 10.8311 21.4696 12.0005C21.4696 13.1665 21.4184 14.3164 21.3337 15.3973ZM14.2541 9.06735C14.3531 9.07664 14.4416 9.14166 14.4899 9.24237L17.2246 14.9208C17.2757 15.0274 17.2719 15.1403 17.2188 15.245C17.1657 15.3496 17.0567 15.417 16.963 15.417L7.03187 15.4224C6.91374 15.4224 6.80757 15.3374 6.76166 15.2107C6.71622 15.0846 6.74061 14.937 6.8224 14.8387L9.61113 11.1901C9.7087 11.0728 9.86222 11.0513 9.98083 11.1393L11.3783 12.7047C11.4639 12.801 11.5983 12.7966 11.6715 12.6871L13.9992 9.19886C14.0599 9.10891 14.1565 9.061 14.2541 9.06735ZM8.22523 10.0076C8.86562 9.84385 9.25493 9.17994 9.09423 8.52483C8.93401 7.87021 8.28549 7.47323 7.64462 7.63701C7.00423 7.8003 6.61493 8.46372 6.77514 9.11834C6.93536 9.77345 7.58484 10.1714 8.22523 10.0076ZM16.278 3.53049C14.9753 2.84164 13.5175 2.46667 12 2.46667C10.4791 2.46667 9.01804 2.8436 7.7143 3.5344C8.97452 3.36231 10.4347 3.22493 11.9986 3.2C13.5601 3.22347 15.0188 3.35938 16.278 3.53049Z" fill="#363545"/>
</svg>
