<svg width="24" height="24" viewBox="0 0 24 24" fill="none" xmlns="http://www.w3.org/2000/svg">
<path d="M14.49 9.24C14.44 9.14 14.35 9.07 14.25 9.06C14.15 9.06 14.06 9.1 14 9.19L11.67 12.68C11.6 12.79 11.46 12.79 11.38 12.7L9.98 11.13C9.86 11.04 9.71 11.06 9.61 11.18L6.82 14.83C6.74 14.93 6.71 15.08 6.76 15.2C6.81 15.33 6.91 15.41 7.03 15.41H16.96C17.05 15.41 17.16 15.34 17.22 15.23C17.27 15.13 17.28 15.01 17.22 14.91L14.49 9.23V9.24Z" fill="#363545"/>
<path d="M22.72 7.02C22.6 5.81 21.62 4.62 20.55 4.37C20.55 4.37 20.14 4.25 19.42 4.09C19.38 4.03 19.35 3.96 19.29 3.91C17.32 2.05 14.74 1 12 1C9.26 1 6.5 2.13 4.51 4.11C3.84 4.26 3.46 4.37 3.46 4.37C2.38 4.62 1.41 5.82 1.29 7.02C1.29 7.02 1.01 9.22 1.01 11.99C1.01 14.76 1.29 16.96 1.29 16.96C1.41 18.17 2.39 19.36 3.46 19.62C3.46 19.62 3.84 19.73 4.51 19.88C6.5 21.86 9.17 23 12.01 23C14.85 23 17.45 21.9 19.43 19.96C19.44 19.95 19.45 19.93 19.46 19.92C19.46 19.92 19.47 19.9 19.48 19.89C20.16 19.74 20.55 19.62 20.55 19.62C21.63 19.37 22.6 18.17 22.72 16.97C22.72 16.97 23 14.77 23 12C23 9.23 22.72 7.02 22.72 7.02ZM12 2.47C13.52 2.47 14.98 2.84 16.28 3.53C15.02 3.36 13.56 3.22 12 3.2C10.44 3.22 8.98 3.36 7.72 3.53C9.02 2.84 10.48 2.46 12.01 2.46L12 2.47ZM12 21.53C10.47 21.53 9.01 21.15 7.7 20.45C8.96 20.62 10.43 20.76 12 20.79C13.57 20.77 15.04 20.63 16.31 20.46C15 21.16 13.53 21.53 12.01 21.53H12ZM21.33 15.4C21.3 15.78 21.27 16.12 21.24 16.42C21.22 16.6 21.21 16.71 21.2 16.77C21.14 17.37 20.62 18.01 20.21 18.1L20.14 18.12C20.14 18.12 20.07 18.14 19.99 18.16C19.85 18.2 19.68 18.24 19.49 18.28C18.94 18.41 18.32 18.54 17.63 18.67C15.81 18.99 13.9 19.2 11.98 19.23C10.05 19.2 8.08 18.98 6.23 18.64C5.58 18.52 4.99 18.4 4.48 18.27C4.18 18.2 3.97 18.14 3.87 18.11L3.8 18.09C3.39 17.99 2.87 17.36 2.81 16.8C2.8 16.7 2.78 16.58 2.76 16.4C2.73 16.1 2.7 15.76 2.67 15.38C2.58 14.3 2.53 13.15 2.53 11.98C2.53 10.81 2.58 9.66 2.67 8.58C2.7 8.2 2.73 7.86 2.76 7.56C2.78 7.38 2.79 7.26 2.8 7.21C2.86 6.61 3.38 5.97 3.79 5.88L3.86 5.86C3.96 5.83 4.17 5.78 4.47 5.7C4.98 5.58 5.57 5.45 6.22 5.33C8.08 4.99 10.04 4.77 12.02 4.74C13.9 4.77 15.81 4.97 17.62 5.3C18.31 5.42 18.93 5.55 19.48 5.69C19.67 5.73 19.83 5.78 19.98 5.81C20.06 5.83 20.11 5.85 20.13 5.85L20.2 5.87C20.61 5.97 21.13 6.6 21.19 7.16V7.2C21.2 7.26 21.22 7.38 21.24 7.55C21.27 7.85 21.3 8.19 21.33 8.57C21.41 9.65 21.47 10.8 21.47 11.97C21.47 13.14 21.42 14.29 21.33 15.37V15.4Z" fill="#363545"/>
<path d="M8.23 10.01C8.87 9.85 9.26 9.18 9.1 8.53C8.94 7.88 8.29 7.48 7.65 7.64C7.01 7.8 6.62 8.47 6.78 9.12C6.94 9.78 7.59 10.17 8.23 10.01Z" fill="#363545"/>
</svg>
