<svg width="24" height="24" viewBox="0 0 24 24" fill="currentColor" xmlns="http://www.w3.org/2000/svg">
  <path id="Mask" fill-rule="evenodd" clip-rule="evenodd" d="M12 2L6.11429 4.34286V10.4286L1 12.4286V20.5429L6.88571 22.8857L12 20.8857L17.1143 22.9143L23 20.5714V12.4286L17.8857 10.4V4.34286L12 2ZM8.14286 4.71429L12 3.17143L15.8571 4.68571L12 6.37143L8.14286 4.71429ZM12.5429 7.31429L16.6 5.57143V10.7714L12.5429 12.5143V7.31429ZM7.4 10.7714V5.54286L11.4571 7.28571V12.4857L7.4 10.7714ZM13.3714 13.3143L17.2571 11.6571L21.1429 13.2L21.4 13.3143L17.4 15.0571L13.3714 13.3143ZM2.57143 13.3143L2.85714 13.2L6.77143 11.6571L10.6571 13.3143L6.6 15.0571L2.57143 13.3143ZM12.5429 19.3429V14.1143L16.8571 16V21.2L12.5429 19.3429ZM7.14286 15.9714L11.4571 14.1143V19.3429L7.14286 21.2V15.9714ZM17.9429 15.9714L21.9714 14.2286V19.4286L17.9429 21.1714V15.9714ZM2.02857 19.4571V14.2571L6.05714 16V21.2L2.02857 19.4571Z"/>
</svg>
