<svg width="24" height="24" viewBox="0 0 24 24" fill="currentColor" xmlns="http://www.w3.org/2000/svg">
  <path fill-rule="evenodd" clip-rule="evenodd" d="M16.9518 4.24847C16.6698 4.11862 16.1903 4.00494 15.5097 4.00408L15.4981 4C14.8133 4 14.3313 4.11405 14.0482 4.2444C14.0406 4.72098 14.0367 6.33809 14.4078 7.53157L14.1706 7.62933L14.1691 7.62545C14.1345 7.53789 13.6923 6.4172 13.4858 4.79837C13.4323 4.91242 13.4093 4.99796 13.4093 4.99796C11.5922 6.17108 11.4583 8.38697 11.4583 8.38697C11.4583 8.38697 11.1829 8.71283 11.1408 8.83503C11.0987 8.95723 11.0681 9.95112 11.0681 9.95112C11.0375 10.444 11.3397 10.5173 11.3397 10.5173H12.3076C12.4147 10.7821 12.6595 10.9246 12.7705 10.9246H15.5019V10.9328H18.2257V10.9287C18.3366 10.9287 18.5853 10.7862 18.6924 10.5214H19.6565C19.6565 10.5214 19.9587 10.444 19.9319 9.95519C19.9319 9.95519 19.9013 8.96538 19.8592 8.8391C19.8171 8.7169 19.5417 8.39104 19.5417 8.39104C19.5417 8.39104 19.4078 6.17923 17.5907 5.00204C17.5907 5.00204 17.5677 4.9165 17.5142 4.80244C17.3077 6.42127 16.8655 7.54196 16.8309 7.62952L16.8294 7.6334L16.5922 7.53564C16.9633 6.34216 16.9594 4.72098 16.9518 4.24847ZM15.1155 16.0978V16.1018H14.9204C13.8646 16.1711 12.8738 13.4012 12.4453 11.9919C12.407 11.8982 12.3841 11.8004 12.3841 11.8004L11.4315 11.8045C11.7031 12.7984 12.166 14.224 12.7934 15.3523L12.6863 15.4094C12.4599 15.528 12.1929 15.6394 11.9108 15.7572C11.8927 15.7648 11.8744 15.7724 11.8562 15.78C11.6362 15.8696 11.3803 15.953 11.1069 16.0421C9.7641 16.4797 8 17.0545 8 19.1731V20H15.4981V19.9959H23V19.1731C23 17.0559 21.2356 16.4804 19.8945 16.043C19.6203 15.9535 19.3639 15.8699 19.1438 15.78C18.8416 15.6578 18.5547 15.5397 18.3137 15.4094L18.1492 15.3198C18.7919 14.1955 19.3007 12.7862 19.5685 11.8004H18.6312C18.6312 11.8004 18.6006 11.8778 18.5509 12.0163C18.0574 13.5153 16.9403 16.167 16.0796 16.0978H15.1155Z"/>
  <path d="M6 11V8H4V11H1V13H4V16H6V13H9V11H6Z"/>
</svg>
