<svg xmlns="http://www.w3.org/2000/svg" width="16" height="12" viewBox="0 0 16 12" fill="currentColor">
  <path d="M8.26535 11.19C8.21547 9.41589 7.49567 7.72647 6.25073 6.46153L6.64766 6.11076C7.98462 7.46846 8.75659 9.2829 8.80766 11.1877L8.26535 11.19Z"/>
  <path d="M15.1862 11.5385H0.989287C0.834847 11.5363 0.696997 11.4411 0.640332 11.2974C0.583668 11.1537 0.619416 10.9901 0.730825 10.8831L11.8077 0.343844C11.9302 0.221791 12.1283 0.221791 12.2508 0.343844L12.4539 0.558459C12.576 0.680935 12.576 0.87906 12.4539 1.00154L2.34621 10.6154H15.1862C15.3595 10.6154 15.5001 10.7559 15.5001 10.9292V11.2246C15.5001 11.3979 15.3595 11.5385 15.1862 11.5385Z"/>
</svg>
