<svg xmlns="http://www.w3.org/2000/svg" width="18" height="18" viewBox="0 0 18 18" fill="currentColor">
  <path fill-rule="evenodd" clip-rule="evenodd" d="M5.82707 14.5227H12.1729C12.4257 15.2377 13.1075 15.75 13.9091 15.75C14.9258 15.75 15.75 14.9258 15.75 13.9091C15.75 13.1075 15.2377 12.4257 14.5227 12.1729V5.82707C15.2377 5.57435 15.75 4.89245 15.75 4.09091C15.75 3.0742 14.9258 2.25 13.9091 2.25C12.8924 2.25 12.0682 3.0742 12.0682 4.09091C12.0682 4.10255 12.0683 4.11417 12.0685 4.12576L5.50061 6.58873C5.16291 6.18708 4.65672 5.93182 4.09091 5.93182C3.0742 5.93182 2.25 6.75602 2.25 7.77273C2.25 8.57427 2.76227 9.25617 3.47727 9.50889V12.1729C2.76227 12.4257 2.25 13.1075 2.25 13.9091C2.25 14.9258 3.0742 15.75 4.09091 15.75C4.89245 15.75 5.57435 15.2377 5.82707 14.5227ZM13.2955 12.1729C12.7724 12.3578 12.3578 12.7724 12.1729 13.2955H5.82707C5.64219 12.7724 5.22762 12.3578 4.70455 12.1729V9.50889C5.41955 9.25617 5.93182 8.57427 5.93182 7.77273C5.93182 7.76108 5.93171 7.74946 5.93149 7.73787L12.4994 5.27491C12.7087 5.52382 12.9827 5.71651 13.2955 5.82707V12.1729Z"/>
</svg>