<svg width="24" height="24" viewBox="0 0 24 24" fill="currentColor" xmlns="http://www.w3.org/2000/svg">
  <path fill-rule="evenodd" clip-rule="evenodd"
    d="M18.7012 8.96094L19.3223 11H21.2793L18.2441 2.39844H16.0234L13 11H14.957L15.5781 8.96094H18.7012ZM17.2979 4.30273C17.3701 4.54492 17.6934 5.58983 18.2676 7.4375H16.0352C16.6445 5.46483 17.0137 4.22852 17.1426 3.72852C17.1738 3.86914 17.2256 4.06055 17.2979 4.30273Z" />
  <path
    d="M20.5 21.5664H13.5V20.3887L18.0101 14.5H13.6222V13H20.3778V14.1719L15.8741 20.0664H20.5V21.5664Z" />
  <path d="M8 2H6V16H3L7 22L11 16H8V2Z" />
</svg>
