<svg width="24" height="24" viewBox="0 0 24 24" fill="none" xmlns="http://www.w3.org/2000/svg">
<path fill-rule="evenodd" clip-rule="evenodd" d="M21 11.1818H19.3145C18.9382 7.77 16.23 5.06182 12.8182 4.68545V3H11.1818V4.68545C7.77 5.06182 5.06182 7.77 4.68545 11.1818H3V12.8182H4.68545C5.06182 16.23 7.77 18.9382 11.1818 19.3145V21H12.8182V19.3145C16.23 18.9382 18.9382 16.23 19.3145 12.8182H21V11.1818ZM17.7273 12C17.7273 15.1664 15.1664 17.7273 12 17.7273C8.83364 17.7273 6.27273 15.1664 6.27273 12C6.27273 8.83364 8.83364 6.27273 12 6.27273C15.1664 6.27273 17.7273 8.83364 17.7273 12ZM13.3712 15.2727L13.0542 14.051H10.9634L10.6376 15.2727H8.72727L10.8269 8.72727H13.1467L15.2727 15.2727H13.3712ZM12.416 11.5363L12.6933 12.6064H11.3243C11.5914 11.5838 11.7638 10.8987 11.8416 10.5509C11.9193 10.2031 11.9714 9.95343 11.9978 9.80183C12.0272 9.96532 12.088 10.2358 12.1805 10.6133C12.2729 10.9908 12.3514 11.2985 12.416 11.5363Z" fill="#252A2E"/>
</svg>
