<svg width="24" height="24" viewBox="0 0 24 24" fill="none" xmlns="http://www.w3.org/2000/svg">
<path d="M4 6C5.10457 6 6 5.10457 6 4C6 2.89543 5.10457 2 4 2C2.89543 2 2 2.89543 2 4C2 5.10457 2.89543 6 4 6Z" fill="#363545"/>
<path fill-rule="evenodd" clip-rule="evenodd" d="M16.314 5.55611L5.55611 16.314C5.07779 16.1118 4.55195 16 4 16C3.6547 16 3.31962 16.0438 3 16.126V7.87398C3.31962 7.95625 3.6547 8 4 8C4.65693 8 5.27688 7.84163 5.82374 7.561L5 8.38474V11.2132L11.2132 4.99999H8.38475L7.561 5.82374C7.84164 5.27688 8 4.65693 8 4C8 3.6547 7.95625 3.31961 7.87398 2.99999H16.126C16.0438 3.31961 16 3.6547 16 4C16 4.55195 16.1118 5.07779 16.314 5.55611ZM15.4559 4.99999H12.6274L5 12.6274V15.4559L15.4559 4.99999Z" fill="#363545"/>
<path d="M7.6809 18.4318L18.4318 7.6809C18.1117 7.54437 17.8131 7.36731 17.5423 7.15616L7.15616 17.5423C7.36731 17.8131 7.54437 18.1117 7.6809 18.4318Z" fill="#363545"/>
<path fill-rule="evenodd" clip-rule="evenodd" d="M20 8C20.3453 8 20.6804 7.95625 21 7.87398V16.126C20.6804 16.0438 20.3453 16 20 16C19.6547 16 19.3196 16.0438 19 16.126V15.598L18.1404 16.4576C17.4234 16.8348 16.8348 17.4234 16.4576 18.1404L15.5981 19H16.126C16.0438 19.3196 16 19.6547 16 20C16 20.3453 16.0438 20.6804 16.126 21H7.87398C7.95625 20.6804 8 20.3453 8 20C8 19.6547 7.95625 19.3196 7.87398 19H9.94119L19 9.94118V7.87398C19.3196 7.95625 19.6547 8 20 8ZM14.1838 19H11.3554L19 11.3554V14.1838L14.1838 19Z" fill="#363545"/>
<path d="M22 4C22 5.10457 21.1046 6 20 6C18.8954 6 18 5.10457 18 4C18 2.89543 18.8954 2 20 2C21.1046 2 22 2.89543 22 4Z" fill="#363545"/>
<path d="M4 22C5.10457 22 6 21.1046 6 20C6 18.8954 5.10457 18 4 18C2.89543 18 2 18.8954 2 20C2 21.1046 2.89543 22 4 22Z" fill="#363545"/>
<path d="M22 20C22 21.1046 21.1046 22 20 22C18.8954 22 18 21.1046 18 20C18 18.8954 18.8954 18 20 18C21.1046 18 22 18.8954 22 20Z" fill="#363545"/>
</svg>
