<svg width="24" height="24" viewBox="0 0 24 24" fill="none" xmlns="http://www.w3.org/2000/svg">
  <path fill-rule="evenodd" clip-rule="evenodd"
    d="M4.5 1.5C2.99442 1.5 1.74788 2.60908 1.53281 4.05481L1.5 19.5C1.5 21.1569 2.84314 22.5 4.5 22.5H19.5C21.1569 22.5 22.5 21.1569 22.5 19.5V4.5C22.5 2.84314 21.1569 1.5 19.5 1.5H4.5ZM18.1995 21L18.8191 20.428L19.3915 21H18.1995ZM17.7572 19.3669L16.5683 18.1788L13.512 21H15.988L17.7572 19.3669ZM3 4.74183L3.06336 4.68335L4.25229 5.87144L3 7.0274V4.74183ZM5.31418 6.93259L3 9.06876V11.3543L6.50311 8.12068L5.31418 6.93259ZM3 13.3957L7.565 9.18183L8.75393 10.3699L3 15.6812V13.3957ZM9.81582 11.4311L3 17.7226V19.5C3 19.6552 3.02368 19.8049 3.06761 19.9458L11.0048 12.6192L9.81582 11.4311ZM14.3175 15.9296L15.5064 17.1176L11.3005 21H8.82449L14.3175 15.9296ZM13.2556 14.8684L12.0666 13.6803L4.17532 20.9646C4.2799 20.9878 4.38855 21 4.5 21H6.61301L13.2556 14.8684ZM20.95 19.8849L4.11619 3.04976C4.23874 3.0173 4.36739 3 4.5 3H19.5C20.3271 3 21 3.6729 21 4.5V19.5C21 19.633 20.9826 19.762 20.95 19.8849Z" />
</svg>
