<svg width="24" height="24" viewBox="0 0 24 24" fill="currentColor" xmlns="http://www.w3.org/2000/svg">
  <path fill-rule="evenodd" clip-rule="evenodd"
    d="M19.5 22.5C21.0056 22.5 22.2521 21.3909 22.4672 19.9452L22.5 4.5C22.5 2.84314 21.1569 1.5 19.5 1.5H4.5C2.84314 1.5 1.5 2.84314 1.5 4.5V19.5C1.5 21.1569 2.84314 22.5 4.5 22.5H19.5ZM21 19.2582L20.9366 19.3167L19.7477 18.1286L21 16.9726V19.2582ZM18.6858 17.0674L21 14.9312V12.6457L17.4969 15.8793L18.6858 17.0674ZM21 10.6043L16.435 14.8182L15.2461 13.6301L21 8.31876V10.6043ZM14.1842 12.5689L21 6.2774V4.5C21 4.34485 20.9763 4.19512 20.9324 4.05425L12.9952 11.3808L14.1842 12.5689ZM7.43171 5.8212L6.24278 4.63311L8.01199 3H10.488L7.43171 5.8212ZM8.49361 6.88235L9.68253 8.07044L15.1755 3H12.6995L8.49361 6.88235ZM11.9334 10.3197L10.7444 9.13159L17.387 3H19.5C19.6115 3 19.7201 3.01222 19.8247 3.03538L11.9334 10.3197ZM19.8838 20.9502L3.05005 4.11509C3.0174 4.23797 3 4.36699 3 4.5V19.5C3 20.3271 3.6729 21 4.5 21H19.5C19.6326 21 19.7613 20.9827 19.8838 20.9502ZM5.80051 3L5.18089 3.57196L4.60853 3H5.80051Z" />
</svg>
