<svg width="24" height="24" viewBox="0 0 24 24" fill="none" xmlns="http://www.w3.org/2000/svg">
<path d="M5.34133 7.26902L5.33434 12.0245L4.98913 12.024L4.99612 7.26902H3.64145C2.91996 7.26902 2.25 6.60124 2.25 5.69062C2.25 4.78001 2.81689 4.11222 3.64145 4.11222H5.0329C5.65133 3.86939 6.52743 3.74798 7.40353 3.68727C7.35199 3.56585 7.35199 3.44444 7.35199 3.38373C7.35199 2.41241 9.4134 1.5625 11.9902 1.5625C14.5669 1.5625 16.6283 2.3517 16.6283 3.38373C16.6283 3.50515 16.5768 3.62656 16.5768 3.68727C17.4529 3.80868 18.2775 3.9301 18.9474 4.11222H20.0812C20.8027 4.11222 21.4727 4.84071 21.4211 5.69062C21.4211 6.60124 20.8542 7.26902 20.0297 7.26902H13.627L19.5978 22.9356L18.5596 23.4375L12.3832 7.26902H12.382V20.0359H11.24V7.26902H11.1972L5.16624 23.4375L4.07609 22.9356L10.0469 7.26902H5.34133Z" fill="#363545"/>
</svg>
