<svg xmlns="http://www.w3.org/2000/svg" width="24" height="24" viewBox="0 0 24 24" fill="currentColor">
  <path fill-rule="evenodd" clip-rule="evenodd" d="M13.2066 6.73517C13.8547 7.56614 14.6947 8.89534 15.1602 10.66C15.6402 12.4756 15.5765 13.9312 15.4302 14.8867C15.6374 14.8449 15.8102 14.8022 15.9447 14.7667C16.332 14.6631 16.6656 14.474 16.9347 14.2048C17.1829 13.9557 17.3683 13.6512 17.5047 13.3184C17.3092 12.0892 17.0156 10.8937 16.832 10.1982C16.6456 9.49084 16.3029 8.28438 15.8511 7.09611C15.6892 6.66971 15.5129 6.24513 15.3247 5.84692C14.9847 5.12686 14.6065 4.49408 14.2038 4.09042L14.0929 3.98223C13.8438 3.74493 13.5829 3.52855 13.3111 3.33399C13.2829 3.31308 13.2547 3.29308 13.2256 3.27308C10.4402 1.33656 6.57302 1.60931 4.09124 4.09133C1.60582 6.57606 1.33583 10.4509 3.28125 13.2384C3.3067 13.122 3.33398 13.0057 3.36489 12.8902C3.60488 11.9965 4.33305 10.9055 5.1585 9.88269C5.40122 8.56986 6.27484 7.31612 6.79484 6.79517C7.36301 6.22786 8.61935 5.35597 9.9257 5.13322C10.3711 5.05776 10.823 5.05776 11.2557 5.1705C11.6757 5.28051 12.0775 5.49871 12.4375 5.85783L12.4461 5.8666L12.4461 5.86662C12.4939 5.91532 12.5545 5.97699 12.6247 6.05239C12.7793 6.21785 12.982 6.44605 13.2066 6.73517ZM14.9084 15.397C13.8657 15.5425 12.293 15.6052 10.5331 15.1261C8.72035 14.6333 7.49219 13.8524 6.73765 13.2478C6.67038 13.4469 6.62038 13.6178 6.58402 13.7524C6.48039 14.1397 6.47766 14.5233 6.57584 14.8906C6.66766 15.2297 6.83856 15.5425 7.05856 15.828C8.22127 16.2725 9.40216 16.6171 10.0967 16.8062C10.8021 16.9981 12.0185 17.3044 13.273 17.5063C13.7239 17.5799 14.1794 17.6399 14.6184 17.6754C15.4121 17.7408 16.1484 17.7299 16.7002 17.5817C16.7502 17.569 16.8002 17.5545 16.8493 17.5399C17.1793 17.4445 17.4966 17.3263 17.8011 17.1881L17.8966 17.1444C20.9665 15.6998 22.6638 12.2141 21.7556 8.82379C20.8456 5.42898 17.6257 3.25699 14.2403 3.54883C14.3266 3.62883 14.4139 3.71066 14.4994 3.79521C15.1539 4.44981 15.7339 5.62626 16.2066 6.85272C17.222 7.71915 17.8711 9.1029 18.062 9.81386C18.2693 10.5894 18.3966 12.1131 17.9357 13.356C17.7784 13.7796 17.5529 14.1706 17.2384 14.4888C16.933 14.7979 16.5439 15.037 16.053 15.1688C15.9848 15.1879 15.8966 15.2097 15.7902 15.2343C15.5703 15.2861 15.2712 15.3461 14.9084 15.397ZM8.97762 8.88379C7.6831 10.1693 6.95129 11.5622 6.55584 12.5386C6.41857 12.8786 6.3213 13.1678 6.25493 13.3841C6.22403 13.4878 6.19948 13.5751 6.1813 13.6433C6.04948 14.1351 6.06221 14.5915 6.17675 15.0106C6.29493 15.4425 6.52039 15.8334 6.80947 16.1816C7.65582 17.2008 9.03853 17.8536 9.81397 18.0618C10.5249 18.2527 12.0476 18.3818 13.3048 17.9354C14.6039 18.1391 15.9121 18.2236 16.8066 17.9854C16.923 17.9545 17.0375 17.919 17.1502 17.8836C15.7093 20.962 12.2185 22.6649 8.8249 21.7557C5.43495 20.8475 3.26498 17.6345 3.5477 14.2533L3.55861 14.1487C3.59134 13.816 3.6477 13.4823 3.72952 13.1478C3.74133 13.0987 3.75406 13.0478 3.7677 12.9977C3.91497 12.4468 4.27405 11.8022 4.72768 11.1485C4.97859 10.7867 5.25768 10.4212 5.54676 10.0675C6.34948 9.0829 7.2231 8.18192 7.74219 7.66733C8.25218 7.16002 9.14126 6.30904 10.1076 5.52535C10.4649 5.47534 10.8212 5.48443 11.1603 5.57535C11.5276 5.67354 11.8585 5.8681 12.1421 6.15176C12.2403 6.24995 12.363 6.37905 12.503 6.53724C11.6021 6.88818 10.3103 7.56096 8.97762 8.88379Z"/>
</svg>