<svg width="24" height="24" viewBox="0 0 24 24" fill="none" xmlns="http://www.w3.org/2000/svg">
<path fill-rule="evenodd" clip-rule="evenodd" d="M1.99992 1.41429L1 2.41421L3.54701 4.96122C2.8417 5.80826 2.26387 6.76107 1.83748 7.79048C1.00491 9.80047 0.787075 12.0122 1.21151 14.146C1.63595 16.2798 2.6836 18.2398 4.22198 19.7782C5.76035 21.3166 7.72037 22.3642 9.85416 22.7886C11.9879 23.2131 14.1997 22.9952 16.2097 22.1627C17.2391 21.7363 18.1919 21.1585 19.0389 20.4531L21.5061 22.9203L22.9203 21.5061L22.5059 21.9203L1.99992 1.41429ZM4.96842 6.38263C4.0727 7.50386 3.45494 8.82719 3.17308 10.2442C2.82582 11.99 3.00405 13.7996 3.68524 15.4442C4.36642 17.0887 5.51998 18.4943 7.00002 19.4832C8.48006 20.4722 10.2201 21 12.0002 21C14.0513 21 16.0303 20.2998 17.6175 19.0318L16.1919 17.6062C15.7278 17.9532 15.22 18.243 14.6789 18.4672C13.3999 18.997 11.9924 19.1356 10.6345 18.8655C9.27665 18.5954 8.02937 17.9287 7.0504 16.9497C6.07144 15.9708 5.40475 14.7235 5.13465 13.3656C4.86456 12.0078 5.00318 10.6003 5.53299 9.32122C5.75711 8.78014 6.04698 8.27232 6.394 7.80821L4.96842 6.38263ZM7.82888 9.24309C7.47325 9.78119 7.22329 10.3857 7.09622 11.0245C6.9033 11.9945 7.00232 12.9998 7.38075 13.9134C7.75919 14.827 8.40005 15.6079 9.2223 16.1573C10.0445 16.7068 11.0112 17 12.0002 17C12.9878 17 13.9453 16.7078 14.7571 16.1713L13.2929 14.7072C13.2454 14.7299 13.1971 14.7514 13.1482 14.7716C12.6 14.9987 11.9968 15.0581 11.4149 14.9424C10.8329 14.8266 10.2984 14.5409 9.87883 14.1213C9.45927 13.7018 9.17355 13.1672 9.05779 12.5853C8.94204 12.0033 9.00145 11.4001 9.22851 10.8519C9.24876 10.8031 9.27027 10.7548 9.29299 10.7072L7.82888 9.24309Z" fill="#363545"/>
<path d="M21.2957 17.8816C22.4081 16.1235 23.0002 14.0842 23.0002 12C23.0002 9.08262 21.8412 6.28473 19.7783 4.22183C17.7154 2.15893 14.9175 1 12.0002 1C9.91596 1 7.87661 1.59207 6.11854 2.70448L7.57634 4.16228C8.40316 3.6956 9.30308 3.36016 10.2443 3.17293C11.9902 2.82567 13.7998 3.0039 15.4443 3.68508C17.0888 4.36627 18.4944 5.51983 19.4834 6.99987C20.4723 8.47991 21.0002 10.22 21.0002 12C21.0002 13.5638 20.5932 15.0856 19.8379 16.4238L21.2957 17.8816Z" fill="#363545"/>
<path d="M18.3532 14.9392C18.7776 14.0218 19.0002 13.0193 19.0002 12C19.0002 10.1435 18.2627 8.36301 16.9499 7.05025C15.6371 5.7375 13.8567 5 12.0002 5C10.9808 5 9.97832 5.22255 9.061 5.64693L10.6109 7.19687C10.747 7.15751 10.885 7.12386 11.0247 7.09607C11.9946 6.90315 12.9999 7.00216 13.9136 7.3806C14.8272 7.75904 15.6081 8.3999 16.1575 9.22215C16.7069 10.0444 17.0002 11.0111 17.0002 12C17.0002 12.4743 16.9328 12.9416 16.8033 13.3892L18.3532 14.9392Z" fill="#363545"/>
<path d="M14.9666 11.5525C14.8716 10.9225 14.5775 10.3347 14.1215 9.87868C13.6654 9.42263 13.0777 9.12858 12.4476 9.03354L14.9666 11.5525Z" fill="#363545"/>
</svg>
