<svg width="24" height="24" viewBox="0 0 24 24" fill="none" xmlns="http://www.w3.org/2000/svg">
<path fill-rule="evenodd" clip-rule="evenodd" d="M21.2403 6.25C21.6166 6.25 21.9359 6.58086 21.9359 6.9696C22.688 10.6642 22.688 14.475 21.9359 18.1697C21.9359 18.5584 21.6166 18.8893 21.2403 18.8893H2.75979C2.38354 18.8893 2.06372 18.5584 2.06372 18.1697C1.31209 14.475 1.31209 10.6642 2.06372 6.9696C2.06372 6.58086 2.38354 6.25 2.75979 6.25H21.2403ZM16.3149 17.7221C16.465 17.7221 16.5779 17.6055 16.5779 17.4305V7.70834C16.5779 7.55294 16.465 7.43627 16.3149 7.43627H3.39898C3.24848 7.43627 3.1356 7.55294 3.1356 7.70834V17.4501C3.1356 17.6055 3.24848 17.7221 3.39898 17.7221H16.3149ZM17.7057 11.3642L18.8529 12.5304L17.7057 13.7167C17.2547 12.9976 17.2547 12.0834 17.7057 11.3642ZM19.9996 12.5692L21.1463 13.7363C21.5978 13.0167 21.5978 12.103 21.1463 11.3834L19.9996 12.5692ZM19.4356 13.153L18.2885 14.3388C18.9846 14.8059 19.8679 14.8059 20.5635 14.3388L19.4356 13.153ZM20.5635 10.7613L19.4168 11.9471L18.2885 10.7613C18.9846 10.2946 19.8679 10.2946 20.5635 10.7613Z" fill="#363545"/>
</svg>
