<svg width="24" height="24" viewBox="0 0 24 24" fill="none" xmlns="http://www.w3.org/2000/svg">
<path fill-rule="evenodd" clip-rule="evenodd" d="M5.0002 3.99992C4.44791 3.99992 4.0002 4.44763 4.0002 4.99992V12.9999C4.0002 13.5522 4.44791 13.9999 5.0002 13.9999H8.0002V19.3333C8.0002 19.7014 8.29868 19.9999 8.66687 19.9999H19.3335C19.7017 19.9999 20.0002 19.7014 20.0002 19.3333V8.66659C20.0002 8.2984 19.7017 7.99992 19.3335 7.99992H14.0002V4.99992C14.0002 4.44763 13.5525 3.99992 13.0002 3.99992H5.0002ZM9.33353 13.9999H13.0002C13.5525 13.9999 14.0002 13.5522 14.0002 12.9999V9.33325H18.6669V18.6666H9.33353V13.9999Z" fill="#353A40"/>
</svg>
