<svg width="24" height="24" viewBox="0 0 24 24" fill="none" xmlns="http://www.w3.org/2000/svg">
  <path
    d="M15.3234 14.2167C15.0175 14.7515 14.843 15.3683 14.843 16.025C14.843 16.1034 14.8455 16.1812 14.8504 16.2583H12.8782V14.2167H15.3234ZM15.8695 13.4875H12.8782V13.0208H10.6096C10.2106 12.1874 9.56979 11.4873 8.77564 11.0072L9.93099 5.58333H10.0501C9.88565 5.58333 9.75237 5.45275 9.75237 5.29167C9.75237 5.13058 9.88565 5 10.0501 5H16.3018C16.4662 5 16.5995 5.13058 16.5995 5.29167C16.5995 5.45275 16.4662 5.58333 16.3018 5.58333H16.3911V9.16024L21.9283 10.075H22.5237V13.4875H21.3782C20.6886 12.7693 19.7097 12.3208 18.6238 12.3208C17.538 12.3208 16.559 12.7693 15.8695 13.4875ZM21.9242 14.2167H23V15.9375L22.4027 16.1431C22.404 16.1039 22.4046 16.0645 22.4046 16.025C22.4046 15.3683 22.2302 14.7515 21.9242 14.2167ZM2.73875 13.0208C3.44242 11.8349 4.75337 11.0375 6.2544 11.0375C7.75543 11.0375 9.06638 11.8349 9.77004 13.0208H2.73875ZM7.341 16.9875H9.78718C9.0878 18.1896 7.7677 19 6.2544 19C4.61098 19 3.19542 18.0442 2.55525 16.669L4.234 16.9875H7.341ZM12.2707 6.05H10.5301L9.51421 10.7422H11.7163L12.2707 6.05ZM12.958 6.05L12.4278 10.7431H15.6766V6.05H12.958ZM1 13.75H12.134V16.2583H4.3054L1 15.6312V13.75ZM18.6238 19C16.9468 19 15.5873 17.668 15.5873 16.025C15.5873 14.382 16.9468 13.05 18.6238 13.05C20.3008 13.05 21.6604 14.382 21.6604 16.025C21.6604 17.668 20.3008 19 18.6238 19Z" />
</svg>
