<svg width="24" height="24" viewBox="0 0 24 24" fill="currentColor" xmlns="http://www.w3.org/2000/svg">
  <path fill-rule="evenodd" clip-rule="evenodd" d="M21 19.5H19.5V5.25H16.5V3H11.25V7.125H7.875V9H5.25V19.5H3V21H21V19.5ZM18.375 19.5H16.5V16.5H13.5V19.5H12V6.375H18.375V19.5ZM11.25 19.5V10.125H6.375V19.5H11.25ZM12 5.25V4.125H15.375V5.25H12ZM12.75 9.75H17.25V10.5H12.75V9.75ZM17.25 7.5H12.75V8.25H17.25V7.5ZM7.5 12H10.5V12.75H7.5V12ZM10.5 14.25H7.5V15H10.5V14.25ZM7.5 16.5H10.5V17.25H7.5V16.5ZM17.25 12H12.75V12.75H17.25V12ZM12.75 14.25H17.25V15H12.75V14.25ZM15.75 19.5H14.25V17.25H15.75V19.5Z"/>
</svg>
