<svg width="24" height="24" viewBox="0 0 24 24" fill="currentColor"
  xmlns="http://www.w3.org/2000/svg">
  <!-- <rect width="24" height="24" fill="white" /> -->
  <path fill-rule="evenodd" clip-rule="evenodd"
    d="M16.9737 4L17.7305 4.76441L16.2017 6.27796L15.4449 5.51355L16.9737 4ZM15.4368 7.08223L14.68 6.31782L13.1512 7.83137L13.9079 8.59578L15.4368 7.08223ZM13.1435 9.35255L12.3868 8.58814L10.8579 10.1017L11.6147 10.8661L13.1435 9.35255ZM10.8643 11.6545L10.1075 10.89L8.57885 12.4033L9.33571 13.1678L10.8643 11.6545ZM8.5714 13.9245L7.81453 13.16L6.2859 14.6733L7.04277 15.4379L8.5714 13.9245ZM5.52863 15.4262L6.2855 16.1907L4.75687 17.7041L4 16.9396L5.52863 15.4262ZM8.48676 7.80953H12.0418L10.6808 9.16403H9.16401V10.6736L7.80951 12.0217V8.48678C7.80951 8.11274 8.11272 7.80953 8.48676 7.80953ZM9.16401 18.6455V14.5342L7.80951 15.8822V19.3228C7.80951 19.6968 8.11272 20 8.48676 20H19.3227C19.6968 20 20 19.6968 20 19.3228V8.48678C20 8.11274 19.6968 7.80953 19.3227 7.80953H15.9209L14.5599 9.16403H18.6455V18.6455H9.16401Z"
  />
</svg>
