<svg width="24" height="24" viewBox="0 0 24 24" fill="none" xmlns="http://www.w3.org/2000/svg">
<rect width="24" height="24" fill="white"/>
<path fill-rule="evenodd" clip-rule="evenodd" d="M12.0418 7.80953H8.48676C8.11272 7.80953 7.80951 8.11274 7.80951 8.48678V12.0217L9.16401 10.6736V9.16403H10.6808L12.0418 7.80953ZM9.16401 14.5342V18.6455H18.6455V9.16403H14.5599L15.9209 7.80953H19.3227C19.6968 7.80953 20 8.11274 20 8.48678V19.3228C20 19.6968 19.6968 20 19.3227 20H8.48676C8.11272 20 7.80951 19.6968 7.80951 19.3228V15.8822L9.16401 14.5342Z" fill="#353A40"/>
<path fill-rule="evenodd" clip-rule="evenodd" d="M17.7305 4.76441L16.9737 4L15.4449 5.51355L16.2017 6.27796L17.7305 4.76441ZM14.68 6.31782L15.4368 7.08223L13.9079 8.59578L13.1512 7.83137L14.68 6.31782ZM12.3868 8.58814L13.1435 9.35255L11.6147 10.8661L10.8579 10.1017L12.3868 8.58814ZM10.1075 10.89L10.8643 11.6545L9.33571 13.1678L8.57885 12.4033L10.1075 10.89ZM7.81453 13.16L8.5714 13.9245L7.04277 15.4379L6.2859 14.6733L7.81453 13.16ZM6.2855 16.1907L5.52863 15.4262L4 16.9396L4.75687 17.7041L6.2855 16.1907Z" fill="#353A40"/>
</svg>
