<svg width="24" height="24" viewBox="0 0 24 24" fill="currentColor" xmlns="http://www.w3.org/2000/svg">
  <path fill-rule="evenodd" clip-rule="evenodd"
    d="M18.7012 19.5625L19.3223 21.6016H21.2793L18.2441 13H16.0234L13 21.6016H14.957L15.5781 19.5625H18.7012ZM17.2979 14.9043C17.3701 15.1465 17.6934 16.1914 18.2676 18.0391H16.0352C16.6445 16.0664 17.0137 14.8301 17.1426 14.3301C17.1738 14.4707 17.2256 14.6621 17.2979 14.9043Z" />
  <path
    d="M20.5 10.5664H13.5V9.38867L18.0101 3.5H13.6222V2H20.3778V3.17188L15.8741 9.06641H20.5V10.5664Z" />
  <path d="M8 2H6V16H3L7 22L11 16H8V2Z" />
</svg>
