<svg width="24" height="24" viewBox="0 0 24 24" fill="none" xmlns="http://www.w3.org/2000/svg">
<path fill-rule="evenodd" clip-rule="evenodd" d="M7.84565 4.19953L17.087 8.53625L21.2413 6.58672L12 2.25L7.84565 4.19953ZM2.25 7.2233V17.4882L11.5761 21.8647V11.5998L2.25 7.2233ZM6.91304 4.63719L16.1543 8.97391L12 10.9234L2.7587 6.58672L6.91304 4.63719ZM12.4239 11.5998V21.8647L21.75 17.4882V7.2233L12.4239 11.5998ZM17.638 14.7827L17.6804 16.0559L19.7576 13.4698L17.5533 12.117L17.5957 13.3106L17.3837 13.3902C15.6033 13.9472 14.8402 15.4989 14.8402 17.3291C14.8402 17.4882 14.9674 17.6473 15.0946 17.6076L15.4337 17.4882C15.5609 17.4484 15.688 17.2097 15.688 17.0903C15.7728 16.1752 16.4087 15.1408 17.2565 14.9021L17.638 14.7827Z" fill="#363545"/>
</svg>
