<svg width="24" height="24" viewBox="0 0 24 24" fill="none" xmlns="http://www.w3.org/2000/svg">
<path fill-rule="evenodd" clip-rule="evenodd" d="M9.05183 1.73217C9.49573 1.51402 9.93963 1.56856 9.93963 1.56856H13.9348C14.1134 1.74414 14.7982 1.91972 15.4261 2.08074C15.7734 2.16979 16.1034 2.25438 16.3207 2.33206C16.9866 2.55021 17.375 3.31371 17.375 3.96814V9.09453C17.375 9.82204 16.835 10.3221 16.3017 10.8159C16.1953 10.9144 16.0893 11.0126 15.9878 11.1124C15.3774 11.7123 15.0445 12.2576 14.9335 13.2393C14.8226 14.2209 14.989 15.2571 15.4884 16.1842C15.6184 16.5163 15.8214 16.8963 16.0291 17.2849C16.2647 17.7259 16.5062 18.178 16.6537 18.5838C16.9311 19.3473 16.6537 22.0741 16.3207 22.7285C15.9323 23.383 14.1567 23.4375 14.1567 23.4375H9.10732C8.05305 23.4375 6.61037 22.7285 6.61037 21.9105C6.61037 21.7892 6.60464 21.6191 6.5978 21.4156C6.56772 20.5214 6.51591 18.9815 6.83232 18.093C7.05427 17.6021 7.66463 16.2933 7.77561 16.1842C7.94207 16.0751 8.38598 15.148 8.38598 13.8937C8.38598 12.6572 8.27813 12.4806 7.95614 11.9534L7.94207 11.9304C7.72315 11.5001 7.29694 11.1037 6.93605 10.7681C6.83958 10.6784 6.74778 10.593 6.66585 10.5125C6.27744 10.1307 6 9.31267 6 9.09453C6 8.87639 6 5.16794 6.05549 4.5135C6.06481 4.4036 6.07099 4.306 6.07668 4.21632C6.10486 3.77196 6.12072 3.52187 6.4439 2.93196C6.71693 2.43361 7.70279 2.15083 8.39934 1.95103C8.69373 1.86659 8.93644 1.79697 9.05183 1.73217ZM15.6549 9.2036V4.24082C15.6549 3.96814 15.3774 3.75 15.1555 3.75H8.38598C8.05305 3.75 7.88659 4.02268 7.88659 4.24082V9.25814C7.88659 9.58535 8.10854 9.74896 8.38598 9.74896H15.1555C15.4329 9.69443 15.6549 9.53082 15.6549 9.2036ZM8.88537 16.675C7.8311 18.202 7.8311 20.0017 7.8311 20.1108C7.8311 20.2009 7.84791 20.2744 7.86303 20.3405C7.87537 20.3945 7.88659 20.4435 7.88659 20.4926C7.99756 21.7469 8.05305 22.2377 9.38476 22.2922L13.8238 22.4013C15.5994 22.0741 15.6549 21.4197 15.7104 20.3835V20.0017C15.7659 18.911 15.322 17.9839 14.6561 16.7841C14.625 16.723 14.5896 16.6619 14.5534 16.5996C14.4606 16.4395 14.3631 16.2714 14.3232 16.0751C13.7391 15.0314 13.8664 12.5895 13.927 11.4252L13.9348 11.276V10.9488C13.9348 10.8397 13.8793 10.7306 13.8238 10.7306H9.60671C9.55122 10.7306 9.55122 10.7851 9.55122 10.7851C9.55122 10.8029 9.55269 10.8463 9.55491 10.9119C9.58 11.6524 9.70092 15.2222 8.88537 16.675ZM9.32927 22.5649L13.8238 22.674C15.8382 22.3529 15.8761 21.5594 15.9292 20.4478L15.9323 20.3835V20.0017C15.9878 18.8565 15.4884 17.8203 14.878 16.675C14.8451 16.513 14.7729 16.3894 14.6964 16.2586C14.6443 16.1693 14.5901 16.0767 14.5451 15.9661C13.9581 14.917 14.0896 12.5057 14.1499 11.4012L14.1567 11.276V10.9488C14.1567 10.7306 13.9902 10.5125 13.8238 10.5125H9.60671C9.44024 10.5125 9.27378 10.6761 9.27378 10.8397L9.27456 10.8676C9.28593 11.2399 9.40553 15.1572 8.60793 16.6205C7.55366 18.3111 7.55366 20.1108 7.55366 20.1653C7.60915 20.2744 7.60915 20.438 7.60915 20.5471L7.61129 20.5703C7.7209 21.756 7.78566 22.4566 9.32927 22.5649ZM12.9915 14.2754C12.9915 14.5481 12.7695 14.7663 12.4921 14.7663H10.8274C10.4945 14.7663 10.328 14.5481 10.328 14.2754V12.6394C10.328 12.3122 10.55 12.1485 10.8274 12.1485H12.4921C12.825 12.1485 12.9915 12.3667 12.9915 12.6394V14.2754Z" fill="#363545"/>
</svg>
