<svg width="24" height="24" viewBox="0 0 24 24" fill="currentColor" xmlns="http://www.w3.org/2000/svg">
  <path fill-rule="evenodd" clip-rule="evenodd" d="M5.66839 22V20.1142H4.23834C3.00518 20.1142 2 19.0568 2 17.7596V5.35456C2 4.05737 3.00518 3 4.23834 3H19.7617C20.9948 3 22 4.05737 22 5.35456V17.7596C22 19.0568 20.9948 20.1142 19.7617 20.1142H18.7254V22H5.66839ZM19.7617 17.9177C19.8446 17.9177 19.9119 17.8468 19.9119 17.7596V5.35456C19.9119 5.26736 19.8446 5.1965 19.7617 5.1965H4.23834C4.15544 5.1965 4.08808 5.26736 4.08808 5.35456V17.7596C4.08808 17.8468 4.15544 17.9177 4.23834 17.9177H19.7617ZM12.6891 17.9122L12.6943 17.8959L12.6943 17.9122L14.0415 13.6664H16.7617C16.9896 14.0152 17.3679 14.2441 17.8031 14.2441C18.5026 14.2441 19.0725 13.6446 19.0725 12.9088C19.0725 12.173 18.5026 11.5734 17.8031 11.5734C17.3938 11.5734 17.0363 11.7806 16.8031 12.0967H15.2539L14.0155 8.42857L12.6891 11.9005L10.9845 5.23465L9.27979 12.0967H4.92746V13.6664H10.6788L11.0052 12.5055L12.6891 17.9122Z"/>
</svg>
