<svg width="24" height="24" viewBox="0 0 24 24" fill="none" xmlns="http://www.w3.org/2000/svg">
<path fill-rule="evenodd" clip-rule="evenodd" d="M5.56452 2.69397V3.82543H7.04848C7.18797 3.38597 7.56436 3.07112 8.00679 3.07112H16.6706C17.2318 3.07112 17.6868 3.57769 17.6868 4.20259V12.8772H19.1129V2.69397C19.1129 2.06907 18.658 1.5625 18.0968 1.5625H6.58065C6.01945 1.5625 5.56452 2.06907 5.56452 2.69397ZM2.51613 12.1228C1.95494 12.1228 1.5 11.6163 1.5 10.9914V5.71121C1.5 5.08632 1.95494 4.57974 2.51613 4.57974H10.6452C11.2064 4.57974 11.6613 5.08632 11.6613 5.71121V10.9914C11.6613 11.6163 11.2064 12.1228 10.6452 12.1228C8.96245 12.1228 9.07354 16.9089 10.0827 17.6878C10.4234 17.9618 10.6452 18.4079 10.6452 18.9116V21.9289C10.6452 22.7621 10.0386 23.4375 9.29032 23.4375H3.87097C3.12271 23.4375 2.51613 22.7621 2.51613 21.9289V18.9116C2.51613 18.4396 2.71082 18.0182 3.01566 17.7416C3.03137 17.7231 3.05351 17.7042 3.08244 17.6847C3.11735 17.6568 3.1535 17.6308 3.19078 17.6066C4.31149 16.6626 4.17281 12.1228 2.51613 12.1228ZM3.19355 12.1228C4.57899 12.1228 4.69048 17.0136 3.74582 17.8306C3.71826 17.8489 3.69145 17.8685 3.66547 17.8892C3.64137 17.9054 3.62291 17.9212 3.60982 17.9366C3.35579 18.1671 3.19355 18.5183 3.19355 18.9116V21.426C3.19355 22.1203 3.69903 22.6832 4.32258 22.6832H8.83871C9.46226 22.6832 9.96774 22.1203 9.96774 21.426V18.9116C9.96774 18.4918 9.78296 18.1201 9.4855 17.8807C8.65806 17.2427 8.56548 12.1228 9.96774 12.1228H3.19355ZM10.8051 23.4375C11.0109 23.1815 11.1651 22.873 11.2495 22.5323H17.9109C18.0225 22.5323 18.1062 22.4418 18.1062 22.306V14.7629C18.1062 14.6422 18.0225 14.5517 17.9109 14.5517H10.0341C10.0555 14.1908 10.1028 13.882 10.166 13.6315H21.5654C21.8444 13.6315 22.0815 13.8879 22.0815 14.1897C22.6395 17.056 22.6395 20.0129 22.0815 22.8793C22.0815 23.181 21.8444 23.4375 21.5654 23.4375H10.8051ZM21.4957 17.6142C21.8305 18.1724 21.8305 18.8815 21.4957 19.4397L20.6448 18.5345L21.4957 17.6142ZM20.2124 18.0517L21.0633 17.1315C20.5472 16.7694 19.8916 16.7694 19.3755 17.1315L20.2124 18.0517ZM18.9431 19.4246C18.6083 18.8664 18.6083 18.1573 18.9431 17.5991L19.794 18.5043L18.9431 19.4246ZM20.2264 18.9871L19.3755 19.9073C19.8916 20.2694 20.5472 20.2694 21.0633 19.9073L20.2264 18.9871ZM4.15239 12.5C4.94364 14.0032 4.91252 17.2991 3.9536 18.1285L3.9191 18.1547C3.89983 18.1675 3.88106 18.1812 3.84063 18.212C3.84063 18.212 3.83516 18.2176 3.8238 18.229C3.64038 18.3954 3.53226 18.6433 3.53226 18.9116V21.426C3.53226 21.912 3.8861 22.306 4.32258 22.306H8.83871C9.27519 22.306 9.62903 21.912 9.62903 21.426V18.9116C9.62903 18.6251 9.5056 18.3623 9.30072 18.1975C8.76388 17.7831 8.49626 16.3047 8.55204 14.7475C8.58529 13.8194 8.7254 13.0343 8.98382 12.5H4.15239ZM5.56452 13.2543C5.37745 13.2543 5.22581 13.4232 5.22581 13.6315V15.1401C5.22581 15.3484 5.37745 15.5172 5.56452 15.5172H7.59677C7.78384 15.5172 7.93548 15.3484 7.93548 15.1401V13.6315C7.93548 13.4232 7.78384 13.2543 7.59677 13.2543H5.56452ZM2.51613 6.46552C2.51613 6.04892 2.81942 5.71121 3.19355 5.71121H9.96774C10.3419 5.71121 10.6452 6.04892 10.6452 6.46552V10.2371C10.6452 10.6537 10.3419 10.9914 9.96774 10.9914H3.19355C2.81942 10.9914 2.51613 10.6537 2.51613 10.2371V6.46552Z" fill="#363545"/>
</svg>
