<svg width="24" height="24" viewBox="0 0 24 24" fill="none" xmlns="http://www.w3.org/2000/svg">
<path fill-rule="evenodd" clip-rule="evenodd" d="M13.05 5.3H21.85V6.335L20.785 7.095L20.79 10.215L21.375 10.88V12.865L20.425 13.565C19.4149 13.3701 17.5018 13.0809 16.0077 13.0176L16.01 13.025L15.46 13.01H13.205C11.7432 13.0145 9.2065 13.475 8.06382 13.6825C7.9403 13.7049 7.8328 13.7244 7.745 13.74C7.16 13.84 6.62 14.095 6.2 14.465L5.985 14.155C5.985 14.155 6.23 11.345 6.25 11.11C6.275 10.875 6.34 10.65 6.475 10.585C6.61 10.52 8.235 9.94 8.235 9.94L12.315 9.16L12.92 6.35L12.715 6.015V5.635L13.05 5.3ZM15.455 13.74C16.55 13.745 18.43 13.945 20.66 14.42C21.61 14.625 22.58 15.255 22.58 16.305C22.58 17.315 21.835 18.14 20.925 18.14H7.745C6.83 18.14 6.09 17.315 6.09 16.305C6.09 15.175 7.05 14.605 7.875 14.46C7.99956 14.4377 8.15628 14.4082 8.33853 14.3739C9.50246 14.1549 11.7076 13.74 13.225 13.74H15.455ZM4.7 17.51V11.49L3.965 10.775H3.265C3.47 11.34 3.96 15.12 2.54 17.26L2.465 17.2L1.415 18.56L1.58 18.68L1.77 18.435L1.98 18.595L4.7 17.51Z" fill="#363545"/>
</svg>
