<svg width="24" height="24" viewBox="0 0 24 24" fill="none" xmlns="http://www.w3.org/2000/svg">
<path d="M14.4496 13.0126L16.3004 14.8315L22 11.8944L16.3004 8.95685L14.4496 10.779V13.0126Z" fill="#252A2E"/>
<path d="M10.9895 21.2502L12.0608 18.7168C13.6474 18.4472 15.0473 17.5918 16.0486 16.3714L15.1755 15.5133C14.1614 16.7948 12.6443 17.563 10.9807 17.563L10.405 17.5973V19.8692L10.9895 21.2502Z" fill="#252A2E"/>
<path d="M15.1858 8.26526L16.0642 7.40073C15.0615 6.16941 13.6556 5.30534 12.0602 5.03389L10.9889 2.50053L10.9801 2.52061V6.18766C12.6271 6.18766 14.1661 6.97873 15.1858 8.26526Z" fill="#252A2E"/>
<path d="M4.42917 12.9927C4.88719 15.9239 7.10682 18.2392 9.91746 18.7168L10.9805 21.2301V17.5631C7.97342 17.5631 5.52674 15.0115 5.52674 11.8755L5.48344 11.2769H3.30186L2 11.8755L4.42917 12.9927Z" fill="#252A2E"/>
<path d="M10.9805 6.18766L11.6533 6.16302V4.07174L10.9892 2.50053L9.91746 5.03389C7.10682 5.51155 4.88719 7.82684 4.42917 10.758L2 11.8753H5.52674C5.52674 8.73927 7.97342 6.18766 10.9805 6.18766Z" fill="#252A2E"/>
<path d="M8.91092 14.5367V9.21361H11.6533V7.60774L10.9805 7.48775C8.6572 7.48775 6.77353 9.45221 6.77353 11.8752C6.77353 14.2981 8.6572 16.2626 10.9805 16.2626L11.6533 16.133V14.5363H8.91092V14.5367Z" fill="#252A2E"/>
<path d="M14.9109 10.3231C14.3094 8.66707 12.7788 7.48775 10.98 7.48775V9.21361H12.9783V10.3245H10.2402V11.2565H12.742V12.33H14.9061L14.9109 10.3231Z" fill="#252A2E"/>
<path d="M10.2402 12.3305V13.3446H13.0496V14.5376H10.98V16.2635C12.7678 16.2635 14.2915 15.0983 14.9004 13.4578L14.9061 11.8756H12.742V12.3305H10.2402Z" fill="#252A2E"/>
</svg>
