<svg width="24" height="24" viewBox="0 0 24 24" fill="none" xmlns="http://www.w3.org/2000/svg">
<path d="M6.66771 8H5.33438V16H6.66771V8Z" fill="#252A2E"/>
<path d="M16 17.3336H8V18.6669H16V17.3336Z" fill="#252A2E"/>
<path d="M9.6653 12.2499V14.3332H11.7486L17.8931 8.18877L15.8097 6.10544L9.6653 12.2499ZM19.5042 6.57766C19.7209 6.36099 19.7209 6.01099 19.5042 5.79433L18.2042 4.49433C17.9875 4.27766 17.6375 4.27766 17.4209 4.49433L16.4042 5.51099L18.4875 7.59433L19.5042 6.57766Z" fill="#252A2E"/>
<path fill-rule="evenodd" clip-rule="evenodd" d="M4 4V8H8V4H4ZM6.85455 5.14545H5.14545V6.85455H6.85455V5.14545Z" fill="#252A2E"/>
<path fill-rule="evenodd" clip-rule="evenodd" d="M4 16V20H8V16H4ZM6.85455 17.1455H5.14545V18.8545H6.85455V17.1455Z" fill="#252A2E"/>
<path fill-rule="evenodd" clip-rule="evenodd" d="M16 16V20H20V16H16ZM18.8545 17.1455H17.1455V18.8545H18.8545V17.1455Z" fill="#252A2E"/>
</svg>
