<svg width="24" height="24" viewBox="0 0 24 24" fill="none" xmlns="http://www.w3.org/2000/svg">
<path fill-rule="evenodd" clip-rule="evenodd" d="M2.70711 1.70708C2.31658 1.31655 1.68342 1.31655 1.29289 1.70708C0.902369 2.0976 0.902369 2.73077 1.29289 3.12129L4.36497 6.19337C4.12095 6.58557 3.90363 7.0005 3.713 7.43817C3.23767 8.5295 3 9.70017 3 10.9502C3 12.9175 3.55833 14.6718 4.675 16.2132C5.79167 17.7545 7.23333 18.8335 9 19.4502V20.9502C9 21.2348 9.096 21.4725 9.288 21.6632C9.48 21.8538 9.71733 21.9495 10 21.9502C10.2827 21.9508 10.52 21.8552 10.712 21.6632C10.904 21.4712 11 21.2335 11 20.9502V19.9002C11.166 19.9175 11.3283 19.9302 11.487 19.9382C11.6457 19.9462 11.8083 19.9502 11.975 19.9502H12.5C12.6667 19.9502 12.8333 19.9335 13 19.9002V20.9502C13 21.2348 13.096 21.4725 13.288 21.6632C13.48 21.8538 13.7173 21.9495 14 21.9502C14.2827 21.9508 14.52 21.8552 14.712 21.6632C14.904 21.4712 15 21.2335 15 20.9502V19.4252C15.6234 19.1999 16.2071 18.918 16.7511 18.5795L21.0919 22.9203C21.4824 23.3108 22.1156 23.3108 22.5061 22.9203C22.8966 22.5298 22.8966 21.8966 22.5061 21.5061L2.70711 1.70708ZM13.2109 15.0393L10.4609 12.2893L10.45 12.3002C10.25 12.5002 10.15 12.7335 10.15 13.0002C10.15 13.2668 10.25 13.5002 10.45 13.7002L11 14.2502L10.5 14.7502C10.2833 14.9668 10.175 15.2168 10.175 15.5002C10.175 15.7835 10.2833 16.0335 10.5 16.2502C10.7167 16.4668 10.9667 16.5752 11.25 16.5752C11.5333 16.5752 11.7833 16.4668 12 16.2502L13.2109 15.0393Z" fill="#252A2E"/>
<path d="M21 10.9502C21 12.8449 20.4781 14.5348 19.4342 16.0199L12.4144 9.00017H15C15.2833 9.00017 15.521 8.9045 15.713 8.71317C15.905 8.52183 16.0007 8.28417 16 8.00017C15.9993 7.71617 15.9033 7.47883 15.712 7.28817C15.5207 7.0975 15.2833 7.0015 15 7.00017H10.4144L6.93096 3.51671C7.41276 3.18903 7.93144 2.90451 8.487 2.66317C9.57967 2.1885 10.7423 1.95083 11.975 1.95017C13.2077 1.9495 14.3743 2.18717 15.475 2.66317C16.5757 3.13917 17.534 3.78083 18.35 4.58817C19.166 5.3955 19.812 6.3455 20.288 7.43817C20.764 8.53083 21.0013 9.7015 21 10.9502Z" fill="#252A2E"/>
</svg>
