<svg width="24" height="24" viewBox="0 0 24 24" fill="none" xmlns="http://www.w3.org/2000/svg">
<path d="M19.5 17.2706C19.9463 17.2706 20.2686 16.9647 20.3182 16.4471L20.8017 10.5176C20.8017 10.5176 20.8141 10.4 20.8141 10.3529C20.8141 9.61177 20.2562 9 19.5 9C18.7438 9 18.186 9.6 18.186 10.3529V10.5176L18.6818 16.4471C18.7314 16.9647 19.0289 17.2706 19.5 17.2706ZM19.5 19.1765C18.6694 19.1765 18 19.8118 18 20.5765C18 21.3412 18.6694 22 19.5 22C20.3306 22 21 21.3647 21 20.5765C21 19.7882 20.3306 19.1765 19.5 19.1765Z" fill="#252A2E"/>
<path fill-rule="evenodd" clip-rule="evenodd" d="M9 19.4502V20.9502C9 21.2349 9.096 21.4725 9.288 21.6632C9.48 21.8539 9.71733 21.9495 10 21.9502C10.2827 21.9509 10.52 21.8552 10.712 21.6632C10.904 21.4712 11 21.2335 11 20.9502V19.9002C11.166 19.9175 11.3283 19.9302 11.487 19.9382C11.6457 19.9462 11.8083 19.9502 11.975 19.9502H12.5C12.6667 19.9502 12.8333 19.9335 13 19.9002V20.9502C13 21.2349 13.096 21.4725 13.288 21.6632C13.48 21.8539 13.7173 21.9495 14 21.9502C14.2827 21.9509 14.52 21.8552 14.712 21.6632C14.904 21.4712 15 21.2335 15 20.9502V19.4252C15.9175 19.0936 16.749 18.6395 17.4946 18.0627C17.1403 17.608 16.9848 17.0833 16.9398 16.6139L16.9388 16.6034L16.436 10.5907V10.3529C16.436 8.70414 17.7081 7.25 19.5 7.25C19.7599 7.25 20.0085 7.28071 20.2438 7.33815C19.7722 6.28744 19.141 5.37079 18.35 4.5882C17.534 3.78086 16.5757 3.1392 15.475 2.6632C14.3743 2.1872 13.2077 1.94953 11.975 1.9502C10.7423 1.95086 9.57967 2.18853 8.487 2.6632C7.39433 3.13786 6.44433 3.77953 5.637 4.5882C4.82967 5.39686 4.18833 6.34686 3.713 7.4382C3.23767 8.52953 3 9.7002 3 10.9502C3 12.9175 3.55833 14.6719 4.675 16.2132C5.79167 17.7545 7.23333 18.8335 9 19.4502ZM15 9.0002H9C8.718 9.00153 8.48067 8.90586 8.288 8.7132C8.09533 8.52053 7.99933 8.28286 8 8.0002C8.00067 7.71753 8.09667 7.4802 8.288 7.2882C8.47933 7.0962 8.71667 7.0002 9 7.0002H15C15.2833 7.00153 15.5207 7.09753 15.712 7.2882C15.9033 7.47886 15.9993 7.7162 16 8.0002C16.0007 8.2842 15.905 8.52186 15.713 8.7132C15.521 8.90453 15.2833 9.0002 15 9.0002ZM10.5 14.7502L11 14.2502L10.45 13.7002C10.25 13.5002 10.15 13.2669 10.15 13.0002C10.15 12.7335 10.25 12.5002 10.45 12.3002L12 10.7502C12.2167 10.5335 12.4667 10.4252 12.75 10.4252C13.0333 10.4252 13.2833 10.5335 13.5 10.7502C13.7167 10.9669 13.825 11.2169 13.825 11.5002C13.825 11.7835 13.7167 12.0335 13.5 12.2502L13 12.7502L13.55 13.3002C13.75 13.5002 13.85 13.7335 13.85 14.0002C13.85 14.2669 13.75 14.5002 13.55 14.7002L12 16.2502C11.7833 16.4669 11.5333 16.5752 11.25 16.5752C10.9667 16.5752 10.7167 16.4669 10.5 16.2502C10.2833 16.0335 10.175 15.7835 10.175 15.5002C10.175 15.2169 10.2833 14.9669 10.5 14.7502Z" fill="#252A2E"/>
</svg>
