<svg width="24" height="24" viewBox="0 0 24 24" fill="none" xmlns="http://www.w3.org/2000/svg">
<path d="M9 20.95V19.45C7.23333 18.8333 5.79167 17.7543 4.675 16.213C3.55833 14.6717 3 12.9173 3 10.95C3 9.70001 3.23767 8.52935 3.713 7.43801C4.18833 6.34668 4.82967 5.39668 5.637 4.58801C6.44433 3.77935 7.39433 3.13768 8.487 2.66301C9.57967 2.18835 10.7423 1.95068 11.975 1.95001C13.2077 1.94935 14.3743 2.18701 15.475 2.66301C16.5757 3.13901 17.534 3.78068 18.35 4.58801C19.166 5.39535 19.812 6.34535 20.288 7.43801C20.764 8.53068 21.0013 9.70135 21 10.95C21 12.9167 20.4377 14.6627 19.313 16.188C18.1883 17.7133 16.7507 18.7923 15 19.425V20.95C15 21.2333 14.904 21.471 14.712 21.663C14.52 21.855 14.2827 21.9507 14 21.95C13.7173 21.9493 13.48 21.8537 13.288 21.663C13.096 21.4723 13 21.2347 13 20.95V19.9C12.8333 19.9333 12.6667 19.95 12.5 19.95H11.975C11.8083 19.95 11.6457 19.946 11.487 19.938C11.3283 19.93 11.166 19.9173 11 19.9V20.95C11 21.2333 10.904 21.471 10.712 21.663C10.52 21.855 10.2827 21.9507 10 21.95C9.71733 21.9493 9.48 21.8537 9.288 21.663C9.096 21.4723 9 21.2347 9 20.95ZM9 9.00001H15C15.2833 9.00001 15.521 8.90435 15.713 8.71301C15.905 8.52168 16.0007 8.28401 16 8.00001C15.9993 7.71601 15.9033 7.47868 15.712 7.28801C15.5207 7.09735 15.2833 7.00135 15 7.00001H9C8.71667 7.00001 8.47933 7.09601 8.288 7.28801C8.09667 7.48001 8.00067 7.71735 8 8.00001C7.99933 8.28268 8.09533 8.52035 8.288 8.71301C8.48067 8.90568 8.718 9.00135 9 9.00001ZM11 14.25L10.5 14.75C10.2833 14.9667 10.175 15.2167 10.175 15.5C10.175 15.7833 10.2833 16.0333 10.5 16.25C10.7167 16.4667 10.9667 16.575 11.25 16.575C11.5333 16.575 11.7833 16.4667 12 16.25L13.55 14.7C13.75 14.5 13.85 14.2667 13.85 14C13.85 13.7333 13.75 13.5 13.55 13.3L13 12.75L13.5 12.25C13.7167 12.0333 13.825 11.7833 13.825 11.5C13.825 11.2167 13.7167 10.9667 13.5 10.75C13.2833 10.5333 13.0333 10.425 12.75 10.425C12.4667 10.425 12.2167 10.5333 12 10.75L10.45 12.3C10.25 12.5 10.15 12.7333 10.15 13C10.15 13.2667 10.25 13.5 10.45 13.7L11 14.25Z" fill="#252A2E"/>
</svg>
