<svg width="24" height="24" viewBox="0 0 24 24" fill="none" xmlns="http://www.w3.org/2000/svg">
<path d="M11.508 5.95134H11.0872C8.4373 6.34817 6.3475 8.43797 5.95067 11.0879H2.99945V12.9113H11.508V5.95134V5.95134Z" fill="#252A2E"/>
<path d="M12.9114 12.3333V7.49096C14.7205 7.85497 16.145 9.27945 16.509 11.0886L16.506 11.4042H18.0483V11.0886C17.6511 8.43823 15.5613 6.34843 12.9114 5.9516V3.00038H11.088V12.3333H12.9114Z" fill="#252A2E"/>
<path d="M11.0866 11.5444V16.5096C9.27751 16.1456 7.85303 14.7212 7.48902 12.912V12.5615L5.95007 12.5792V12.9125C6.34691 15.5624 8.43671 17.6522 11.0866 18.049V21.0002H12.91V11.5444H11.0866Z" fill="#252A2E"/>
<path d="M12.9117 18.0487H12.456V11.0883H20.9999V12.9117H18.0487C17.6514 15.562 15.5616 17.6518 12.9117 18.0487" fill="#252A2E"/>
</svg>
