<svg width="24" height="24" viewBox="0 0 24 24" fill="currentColor" xmlns="http://www.w3.org/2000/svg">
  <path fill-rule="evenodd" clip-rule="evenodd" d="M2.005 3.77L3.275 2.5L21.005 20.23L19.735 21.5L16.805 18.58L16.385 18.16C15.035 18.7 13.555 19 12.005 19C7.005 19 2.735 15.89 1.005 11.5C1.785 9.52 3.085 7.8 4.745 6.51L2.005 3.77ZM17.005 11.5C17.005 8.74 14.765 6.5 12.005 6.5C11.355 6.5 10.745 6.63 10.175 6.86L8.015 4.7C9.255 4.25 10.595 4 11.995 4C16.995 4 21.265 7.11 22.995 11.5C22.265 13.36 21.075 14.99 19.565 16.25L16.645 13.33C16.875 12.76 17.005 12.15 17.005 11.5ZM7.535 9.3L9.085 10.85C9.035 11.06 9.005 11.28 9.005 11.5C9.005 13.16 10.345 14.5 12.005 14.5C12.225 14.5 12.445 14.47 12.655 14.42L14.205 15.97C13.535 16.3 12.795 16.5 12.005 16.5C9.245 16.5 7.005 14.26 7.005 11.5C7.005 10.71 7.205 9.97 7.535 9.3ZM14.995 11.67L11.845 8.52L12.015 8.51C13.675 8.51 15.015 9.85 15.015 11.51L14.995 11.67Z"/>
</svg>
