<svg width="24" height="24" viewBox="0 0 24 24" fill="none" xmlns="http://www.w3.org/2000/svg">
  <path fill-rule="evenodd" clip-rule="evenodd"
    d="M22 8C22 6.9 21.1 6 20 6H12L10 4H4C2.9 4 2.01 4.9 2.01 6L2 18C2 19.1 2.9 20 4 20H20C21.1 20 22 19.1 22 18V8ZM14.2127 10L14.2263 10.0041C15.0268 10.005 15.5907 10.1198 15.9224 10.2509C15.9314 10.728 15.9359 12.3649 15.4995 13.5699L15.7784 13.6686L15.7802 13.6647C15.8208 13.5763 16.3409 12.4447 16.5838 10.8102C16.6468 10.9254 16.6738 11.0118 16.6738 11.0118C18.8109 12.2004 18.9684 14.4336 18.9684 14.4336C18.9684 14.4336 19.2923 14.7626 19.3418 14.886C19.3913 15.0135 19.4273 16.0129 19.4273 16.0129C19.4588 16.5065 19.1033 16.5846 19.1033 16.5846H17.9695C17.8436 16.8519 17.5511 16.9959 17.4206 16.9959V17H14.2172V16.9918H11.0047C10.8742 16.9918 10.5863 16.8478 10.4603 16.5805H9.32201C9.32201 16.5805 8.96657 16.5065 9.00256 16.0088C9.00256 16.0088 9.03855 15.0053 9.08805 14.8819C9.13754 14.7585 9.46148 14.4295 9.46148 14.4295C9.46148 14.4295 9.61896 12.1921 11.7561 11.0076C11.7561 11.0076 11.7831 10.9213 11.8461 10.8061C12.0889 12.4406 12.609 13.5722 12.6496 13.6606L12.6514 13.6645L12.9304 13.5658C12.494 12.3608 12.4985 10.728 12.5075 10.2468C12.8404 10.1152 13.4073 10 14.2127 10Z" />
</svg>
