<svg width="24" height="24" viewBox="0 0 24 24" fill="none" xmlns="http://www.w3.org/2000/svg">
<path fill-rule="evenodd" clip-rule="evenodd" d="M20 6H12L10 4H4C2.9 4 2 4.9 2 6V18C2 19.1 2.9 20 4 20H20C21.1 20 22 19.1 22 18V8C22 6.9 21.1 6 20 6ZM14.825 11C14.415 9.835 13.305 9 12 9C10.345 9 9 10.345 9 12C9 13.655 10.345 15 12 15C13.305 15 14.415 14.165 14.825 13H17V15H19V13H20V11H14.825ZM11 12C11 12.55 11.45 13 12 13C12.55 13 13 12.55 13 12C13 11.45 12.55 11 12 11C11.45 11 11 11.45 11 12Z" fill="#363545"/>
</svg>
