<svg width="24" height="24" viewBox="0 0 24 24" fill="none" xmlns="http://www.w3.org/2000/svg">
<path fill-rule="evenodd" clip-rule="evenodd" d="M19.1119 4.72727L20.0939 4.72727C20.3148 4.72727 20.4939 4.90636 20.4939 5.12727V6.22121C20.4939 6.44212 20.3148 6.62121 20.0939 6.62121H19.5849V10.4848C19.6685 10.4848 19.7364 10.5527 19.7364 10.6364V10.8636C19.7364 10.9473 19.6685 11.0151 19.5849 11.0151H19.4322L18.7603 14.9746C18.7109 15.266 18.4584 15.4792 18.1628 15.4792H14.3644L13.8084 17.5303L13.8273 17.5303V21.8485C13.8273 21.9322 13.7594 22 13.6757 22H10.4939C10.4102 22 10.3424 21.9322 10.3424 21.8485V17.5303L10.339 17.5303L9.74323 15.4792H6.00583C5.71024 15.4792 5.45777 15.266 5.40831 14.9746L4.7363 11.0151H4.50911C4.42543 11.0151 4.35759 10.9473 4.35759 10.8636V10.6364C4.35759 10.5527 4.42543 10.4848 4.50911 10.4848H4.58487V6.62121H3.99998C3.77906 6.62121 3.59998 6.44212 3.59998 6.22121V5.12727C3.59998 4.90636 3.77906 4.72727 3.99998 4.72727H5.0394L5.11157 4.28367C5.14673 4.06753 5.2737 3.87717 5.45976 3.76167C7.35165 2.58722 9.5598 2 12.0842 2C14.6047 2 16.8099 2.58539 18.6998 3.75618C18.891 3.87465 19.0197 4.07196 19.051 4.29472L19.1119 4.72727ZM10.791 11.1667H13.3029C13.9625 11.1667 14.5326 11.627 14.6715 12.2717L14.6881 12.3486C14.7838 12.7929 14.7838 13.2525 14.6881 13.6969L14.6715 13.7737C14.5326 14.4185 13.9625 14.8788 13.3029 14.8788H10.791C10.1315 14.8788 9.56142 14.4185 9.42247 13.7737L9.40591 13.6969C9.31015 13.2525 9.31015 12.7929 9.40591 12.3486L9.42247 12.2717C9.56142 11.627 10.1315 11.1667 10.791 11.1667ZM12.9727 18.1364H11.1969C10.976 18.1364 10.7969 18.3155 10.7969 18.5364V18.9485C10.7969 19.1694 10.976 19.3485 11.1969 19.3485H12.9727C13.1936 19.3485 13.3727 19.1694 13.3727 18.9485V18.5364C13.3727 18.3155 13.1936 18.1364 12.9727 18.1364Z" fill="#363545"/>
<path d="M16.2444 20.4971L16.1 15.4849H17.0091L16.8646 20.4971C16.8607 20.6655 16.723 20.8 16.5545 20.8C16.386 20.8 16.2484 20.6655 16.2444 20.4971Z" fill="#363545"/>
</svg>
