<svg width="24" height="24" viewBox="0 0 24 24" fill="none" xmlns="http://www.w3.org/2000/svg">
<path d="M7.48658 2.78552C7.33831 2.83875 7.20162 2.91991 7.08392 3.02462L6.52149 3.52496C6.33005 3.69527 6.21816 3.9376 6.2127 4.19377L6.19805 4.88014H17.8014L17.7867 4.19377C17.7813 3.9376 17.6694 3.69527 17.4779 3.52496L16.9155 3.02462C16.7978 2.91991 16.6611 2.83875 16.5128 2.78552C13.5952 1.73816 10.4042 1.73816 7.48658 2.78552Z" fill="#363545"/>
<path fill-rule="evenodd" clip-rule="evenodd" d="M6.33152 5.70723C6.2478 5.57353 6.20001 5.42091 6.19219 5.26409H11.0895L11.2862 5.70007H12.7157L12.9125 5.26409H17.8072C17.7994 5.42091 17.7516 5.57353 17.6679 5.70723L17.2757 6.33364L17.168 7.19344V7.29435C17.168 7.88927 16.7799 8.39941 16.2352 8.57401L16.288 9.15705C16.2981 9.26945 16.2096 9.36632 16.0968 9.36632H15.2967C15.1839 9.36632 15.0954 9.26945 15.1055 9.15705L15.1472 8.69653L13.0903 8.86084V10.1675H10.9096V8.86544L9.42193 8.74494L9.30417 13.0433C9.30088 13.1922 9.18516 13.3112 9.04353 13.3112C8.90191 13.3112 8.78619 13.1922 8.7829 13.0433L8.66345 8.6835L8.06674 8.63517C7.36893 8.57864 6.83142 7.99583 6.83142 7.29573V7.19344L6.72374 6.33364L6.33152 5.70723ZM10.5385 6.53195C10.4537 6.53195 10.3849 6.60071 10.3849 6.68553V7.88994C10.3849 7.97476 10.4537 8.04352 10.5385 8.04352H13.4615C13.5463 8.04352 13.6151 7.97476 13.6151 7.88994V6.68553C13.6151 6.60071 13.5463 6.53195 13.4615 6.53195H10.5385Z" fill="#363545"/>
<path d="M6.09599 4.98063C6.04297 4.98063 6 5.02361 6 5.07662C6 5.12963 6.04297 5.17261 6.09599 5.17261H11.1034L11.3181 5.62458H12.6819L12.8966 5.17261H17.9041C17.9571 5.17261 18.0001 5.12963 18.0001 5.07662C18.0001 5.02361 17.9571 4.98063 17.9041 4.98063H6.09599Z" fill="#363545"/>
<path d="M10.0918 10.4493H13.9081V11.4375L14.8587 15.1037L13.8055 15.3953L12.8882 11.8578H12.5452V15.5202H11.4548V11.8578H11.2317L10.3144 15.3953L9.26124 15.1037L10.1029 11.8578H10.0918V10.4493Z" fill="#363545"/>
<path d="M11.4548 16.9289H12.5451V20.873L12 21.9999L11.4548 20.873V16.9289Z" fill="#363545"/>
<path d="M12.5451 15.802H11.4548V16.6471H12.5451V15.802Z" fill="#363545"/>
<path d="M9.96163 16.7566L8.90843 16.4649L7.92072 20.2746L8.16512 21.509L8.97392 20.5663L9.96163 16.7566Z" fill="#363545"/>
<path d="M9.19061 15.3764L10.2438 15.6681L10.0322 16.4844L8.97898 16.1927L9.19061 15.3764Z" fill="#363545"/>
<path d="M15.2114 16.465L14.1582 16.7566L15.1459 20.5663L15.9547 21.509L16.1991 20.2747L15.2114 16.465Z" fill="#363545"/>
<path d="M13.8761 15.6681L14.9292 15.3765L15.1409 16.1927L14.0877 16.4844L13.8761 15.6681Z" fill="#363545"/>
</svg>
