<svg width="24" height="24" viewBox="0 0 24 24" fill="none" xmlns="http://www.w3.org/2000/svg">
<path d="M5.38242 4.31652C5.16127 4.39333 4.9566 4.5112 4.77917 4.66392L3.96206 5.36726C3.68091 5.60927 3.51569 5.95924 3.50751 6.33012L3.48627 7.29306H20.5133L20.492 6.33012C20.4839 5.95924 20.3186 5.60927 20.0375 5.36726L19.2204 4.66392C19.0429 4.5112 18.8383 4.39333 18.6171 4.31652C14.3311 2.82782 9.6684 2.82782 5.38242 4.31652Z" fill="#363545"/>
<path fill-rule="evenodd" clip-rule="evenodd" d="M3.68621 8.47302C3.5629 8.28248 3.4916 8.06366 3.47846 7.83827H10.6639L10.9526 8.45729H13.0503L13.339 7.83827H20.5211C20.5079 8.06366 20.4367 8.28248 20.3133 8.47302L19.7418 9.35615L19.5838 10.5769V10.7155C19.5838 11.5762 19.0118 12.3117 18.2157 12.546L18.2922 13.3644C18.3071 13.5243 18.1813 13.6624 18.0208 13.6624H16.8286C16.6681 13.6624 16.5423 13.5243 16.5572 13.3644L16.6183 12.7111L13.58 12.9459V20.7993H10.42V12.9525L8.21693 12.7798L8.04422 18.883C8.03939 19.0945 7.86966 19.2634 7.66194 19.2634C7.45423 19.2634 7.2845 19.0945 7.27967 18.883L7.10448 12.6926L6.17483 12.6198C5.18182 12.5419 4.41571 11.7134 4.41571 10.7174V10.5769L4.2577 9.35615L3.68621 8.47302ZM9.84806 9.63786C9.72762 9.63786 9.62998 9.7355 9.62998 9.85594V11.5662C9.62998 11.6866 9.72762 11.7843 9.84806 11.7843H14.1519C14.2724 11.7843 14.37 11.6866 14.37 11.5662V9.85594C14.37 9.7355 14.2724 9.63786 14.1519 9.63786H9.84806Z" fill="#363545"/>
<path d="M3.3363 7.4358C3.26102 7.4358 3.2 7.49682 3.2 7.5721C3.2 7.64738 3.26102 7.7084 3.3363 7.7084H10.6844L10.9993 8.35014H13.0007L13.3156 7.7084H20.6638C20.7391 7.7084 20.8001 7.64738 20.8001 7.5721C20.8001 7.49682 20.7391 7.4358 20.6638 7.4358H3.3363Z" fill="#363545"/>
</svg>
