<svg width="24" height="24" viewBox="0 0 24 24" fill="none" xmlns="http://www.w3.org/2000/svg">
<path d="M2.05203 2.81435L2.09474 2.55177C2.11555 2.42382 2.19071 2.31115 2.30084 2.24278C3.42071 1.54759 4.72778 1.2 6.22204 1.2C7.71398 1.2 9.0193 1.54651 10.138 2.23953C10.2512 2.30965 10.3274 2.42645 10.3459 2.5583L10.3819 2.81435H2.05203Z" fill="#363545"/>
<path fill-rule="evenodd" clip-rule="evenodd" d="M1.43677 2.81436H10.9632C11.094 2.81436 11.2 2.92036 11.2 3.05113V3.69866C11.2 3.82943 11.094 3.93543 10.9632 3.93543H10.6619V6.22241C10.7114 6.22241 10.7516 6.26256 10.7516 6.31209V6.44662C10.7516 6.49615 10.7114 6.53631 10.6619 6.53631H10.5716L10.1738 8.88001C10.1446 9.05251 9.99512 9.17873 9.82016 9.17873H7.5718L7.24264 10.3928L7.25382 10.3928V12.9489C7.25382 12.9984 7.21367 13.0385 7.16413 13.0385H5.28073C5.23119 13.0385 5.19104 12.9984 5.19104 12.9489V10.3928L5.18901 10.3928L4.83637 9.17873H2.6241C2.44913 9.17873 2.29969 9.05251 2.27041 8.88001L1.87263 6.53631H1.73815C1.68862 6.53631 1.64846 6.49615 1.64846 6.44662V6.31209C1.64846 6.26256 1.68862 6.22241 1.73815 6.22241H1.78299V3.93543H1.43677C1.30601 3.93543 1.2 3.82943 1.2 3.69866V3.05113C1.2 2.92036 1.30601 2.81436 1.43677 2.81436ZM6.94345 6.62601H5.45661C5.06621 6.62601 4.72875 6.89849 4.64651 7.28012L4.6367 7.32561C4.58002 7.58863 4.58002 7.8607 4.6367 8.12371L4.6465 8.1692C4.72875 8.55084 5.06621 8.82332 5.45661 8.82332H6.94345C7.33385 8.82332 7.67131 8.55084 7.75355 8.1692L7.76336 8.12371C7.82004 7.8607 7.82004 7.58863 7.76336 7.32561L7.75355 7.28012C7.67131 6.89849 7.33385 6.62601 6.94345 6.62601ZM5.69687 10.7515H6.74799C6.87876 10.7515 6.98476 10.8575 6.98476 10.9883V11.2323C6.98476 11.363 6.87876 11.469 6.74799 11.469H5.69687C5.5661 11.469 5.4601 11.363 5.4601 11.2323V10.9883C5.4601 10.8575 5.5661 10.7515 5.69687 10.7515Z" fill="#363545"/>
<path d="M9.13724 9.18207H8.59912L8.68464 12.1489C8.68696 12.2486 8.76845 12.3283 8.86818 12.3283C8.96791 12.3283 9.0494 12.2486 9.05172 12.1489L9.13724 9.18207Z" fill="#363545"/>
<path fill-rule="evenodd" clip-rule="evenodd" d="M15.04 12.64C15.04 12.2865 15.3266 12 15.68 12H17.6C17.9535 12 18.24 12.2865 18.24 12.64V17.76C18.24 18.1135 17.9535 18.4 17.6 18.4H15.68C15.3266 18.4 15.04 18.1135 15.04 17.76V12.64ZM17.92 15.2C17.92 15.9069 17.347 16.48 16.64 16.48C15.9331 16.48 15.36 15.9069 15.36 15.2C15.36 14.4931 15.9331 13.92 16.64 13.92C17.347 13.92 17.92 14.4931 17.92 15.2Z" fill="#363545"/>
<path fill-rule="evenodd" clip-rule="evenodd" d="M20.4697 7.35433C20.4755 7.26748 20.5476 7.2 20.6347 7.2C20.726 7.2 20.8 7.27402 20.8 7.36532V12.16C20.8 12.4251 20.5851 12.64 20.32 12.64L20.3143 12.6173L20.48 15.6849L20.1745 21.794C20.1663 21.9589 20.034 22.0905 19.869 22.0977L18.7871 22.1454C18.8445 22.0876 18.88 22.0079 18.88 21.9199V19.9999C18.88 19.8232 18.7367 19.6799 18.56 19.6799H14.72C14.5433 19.6799 14.4 19.8232 14.4 19.9999V21.9199C14.4 22.0079 14.4355 22.0876 14.4929 22.1454L13.411 22.0977C13.246 22.0905 13.1137 21.9589 13.1055 21.794L12.8 15.6849L13.1058 10.0237C13.114 9.87059 13.2297 9.74486 13.3816 9.72394L15.2424 9.46757C16.1698 9.33981 17.1102 9.33982 18.0376 9.46757L19.8984 9.72394C20.0503 9.74486 20.166 9.87059 20.1742 10.0237L20.2268 10.9974L20.4697 7.35433ZM18.56 12.1649V18.5649H14.72V12.1649L14.3536 11.5236C14.2317 11.3103 14.3857 11.0449 14.6314 11.0449H18.6486C18.8943 11.0449 19.0483 11.3103 18.9264 11.5236L18.56 12.1649Z" fill="#363545"/>
<path fill-rule="evenodd" clip-rule="evenodd" d="M15.04 20C14.8633 20 14.72 20.1433 14.72 20.32V21.92C14.72 22.0967 14.8633 22.24 15.04 22.24H18.24C18.4167 22.24 18.56 22.0967 18.56 21.92V20.32C18.56 20.1433 18.4167 20 18.24 20H15.04ZM17.28 20.32C17.1033 20.32 16.96 20.4633 16.96 20.64V20.96C16.96 21.1367 17.1033 21.28 17.28 21.28H17.92C18.0967 21.28 18.24 21.1367 18.24 20.96V20.64C18.24 20.4633 18.0967 20.32 17.92 20.32H17.28Z" fill="#363545"/>
<path d="M14.72 22.52L14.08 22.4L14.72 23.2H18.56L19.2 22.4L18.56 22.52H14.72Z" fill="#363545"/>
</svg>
