<svg width="24" height="24" viewBox="0 0 24 24" fill="none" xmlns="http://www.w3.org/2000/svg">
<path fill-rule="evenodd" clip-rule="evenodd" d="M19.1119 4.72727L20.0939 4.72727C20.3149 4.72727 20.4939 4.90636 20.4939 5.12727V6.22121C20.4939 6.44212 20.3149 6.62121 20.0939 6.62121H19.9849L18.7849 8.95303V10.4848C18.8686 10.4848 18.9364 10.5527 18.9364 10.6364V10.8636C18.9364 10.9473 18.8686 11.0151 18.7849 11.0151H18.6322L17.9603 14.9746C17.9109 15.266 17.6584 15.4792 17.3628 15.4792H14.3645L13.8084 17.5303L13.8273 17.5303V21.8485C13.8273 21.9322 13.7595 22 13.6758 22H10.494C10.4103 22 10.3424 21.9322 10.3424 21.8485V17.5303L10.339 17.5303L9.74326 15.4792H9.00891V14.6792H8.59277L8.47287 19.3036C8.46943 19.4684 8.34827 19.6 8.20001 19.6C8.05174 19.6 7.93059 19.4684 7.92714 19.3036L7.80725 14.6792H7.54021V15.4792H6.80586C6.51027 15.4792 6.2578 15.266 6.20834 14.9746L5.53633 11.0151H5.30914C5.22546 11.0151 5.15762 10.9473 5.15762 10.8636V10.6364C5.15762 10.5527 5.22546 10.4848 5.30914 10.4848H5.38489V8.95303L4.18489 6.62121H4.00001C3.77909 6.62121 3.60001 6.44212 3.60001 6.22121V5.12727C3.60001 4.90636 3.77909 4.72727 4.00001 4.72727H5.03944L5.1116 4.28367C5.14676 4.06753 5.27373 3.87717 5.45979 3.76167C7.35169 2.58722 9.55984 2 12.0842 2C14.6047 2 16.8099 2.58539 18.6998 3.75618C18.8911 3.87465 19.0198 4.07196 19.0511 4.29472L19.1119 4.72727ZM11.2 11.2H13.5889C14.0261 11.2 14.3824 11.5511 14.3888 11.9883L14.4 12.7517L14.3881 13.611C14.3821 14.0485 14.0257 14.4 13.5882 14.4H11.2C10.7582 14.4 10.4 14.0418 10.4 13.6V12C10.4 11.5582 10.7582 11.2 11.2 11.2ZM12.9727 18.1364H11.197C10.9761 18.1364 10.797 18.3155 10.797 18.5364V18.9485C10.797 19.1694 10.9761 19.3485 11.197 19.3485H12.9727C13.1937 19.3485 13.3727 19.1694 13.3727 18.9485V18.5364C13.3727 18.3155 13.1937 18.1364 12.9727 18.1364Z" fill="#363545"/>
</svg>
