<svg width="24" height="24" viewBox="0 0 24 24" fill="none" xmlns="http://www.w3.org/2000/svg">
<path d="M2.05203 2.81435L2.09475 2.55177C2.11556 2.42382 2.19072 2.31115 2.30085 2.24278C3.42072 1.54759 4.72778 1.2 6.22205 1.2C7.71398 1.2 9.0193 1.54651 10.138 2.23953C10.2512 2.30965 10.3274 2.42645 10.3459 2.5583L10.3819 2.81435H2.05203Z" fill="#363545"/>
<path fill-rule="evenodd" clip-rule="evenodd" d="M1.43677 2.81436H10.9632C11.094 2.81436 11.2 2.92037 11.2 3.05113V3.69866C11.2 3.82943 11.094 3.93544 10.9632 3.93544H10.6619V6.22241C10.7114 6.22241 10.7516 6.26256 10.7516 6.31209V6.44662C10.7516 6.49615 10.7114 6.53631 10.6619 6.53631H10.5715L10.1738 8.88001C10.1446 9.05251 9.99511 9.17873 9.82014 9.17873H7.57179L7.24263 10.3928L7.25381 10.3928V12.9489C7.25381 12.9984 7.21366 13.0385 7.16413 13.0385H5.28072C5.23119 13.0385 5.19103 12.9984 5.19103 12.9489V10.3928L5.189 10.3928L4.83636 9.17873H2.62409C2.44912 9.17873 2.29968 9.05251 2.2704 8.88001L1.87262 6.53631H1.73814C1.68861 6.53631 1.64845 6.49615 1.64845 6.44662V6.31209C1.64845 6.26256 1.68861 6.22241 1.73814 6.22241H1.78298V3.93544H1.43677C1.306 3.93544 1.2 3.82943 1.2 3.69866V3.05113C1.2 2.92037 1.306 2.81436 1.43677 2.81436ZM6.94344 6.62601H5.45659C5.0662 6.62601 4.72874 6.89849 4.64649 7.28012L4.63669 7.32561C4.58001 7.58863 4.58001 7.8607 4.63669 8.12372L4.64649 8.1692C4.72874 8.55084 5.0662 8.82332 5.4566 8.82332H6.94344C7.33384 8.82332 7.6713 8.55084 7.75354 8.1692L7.76335 8.12372C7.82003 7.8607 7.82003 7.58863 7.76335 7.32561L7.75354 7.28012C7.6713 6.89849 7.33384 6.62601 6.94344 6.62601ZM5.69686 10.7515H6.74798C6.87875 10.7515 6.98475 10.8575 6.98475 10.9883V11.2322C6.98475 11.363 6.87875 11.469 6.74798 11.469H5.69686C5.5661 11.469 5.46009 11.363 5.46009 11.2322V10.9883C5.46009 10.8575 5.5661 10.7515 5.69686 10.7515Z" fill="#363545"/>
<path d="M9.13722 9.18207H8.5991L8.68462 12.1489C8.68693 12.2486 8.76843 12.3283 8.86816 12.3283C8.96789 12.3283 9.04938 12.2486 9.0517 12.1489L9.13722 9.18207Z" fill="#363545"/>
<path d="M14.3101 13.2983L14.5054 12.8641L14.0306 11.9833C14.0132 11.9511 13.9857 11.9254 13.9523 11.9102L12.9549 11.4574C12.9149 11.4392 12.8837 11.4061 12.8679 11.3652L12.8113 11.219C12.7968 11.1814 12.7962 11.1399 12.8098 11.102L12.9982 10.5751C13.0131 10.5334 13.0439 10.4993 13.0839 10.4802L13.2181 10.4163C13.2554 10.3985 13.2979 10.3952 13.3375 10.4068L14.5808 10.7728C14.6111 10.7817 14.6383 10.7991 14.6593 10.8228L15.2568 11.5015C15.2908 11.5402 15.3514 11.5393 15.3843 11.4995L15.5665 11.2789C15.597 11.2421 15.6423 11.2207 15.6901 11.2207H15.6984C15.7294 11.2207 15.7596 11.2102 15.7838 11.1908C15.808 11.1714 15.8381 11.1608 15.8692 11.1608H15.9414C15.9647 11.1608 15.987 11.1705 16.0029 11.1876L16.3092 11.5179C16.3377 11.5487 16.3537 11.589 16.354 11.6309L16.3905 17.4373L16.6227 18.1325H18.9772L19.2095 17.4373L19.246 11.6309C19.2463 11.589 19.2622 11.5487 19.2907 11.5179L19.5971 11.1876C19.613 11.1705 19.6352 11.1608 19.6586 11.1608H19.7308C19.7619 11.1608 19.792 11.1714 19.8162 11.1908C19.8404 11.2102 19.8705 11.2207 19.9016 11.2207H19.9099C19.9577 11.2207 20.003 11.2421 20.0335 11.2789L20.2157 11.4995C20.2485 11.5393 20.3092 11.5402 20.3432 11.5015L20.9407 10.8228C20.9616 10.7991 20.9889 10.7817 21.0192 10.7728L22.2625 10.4068C22.3021 10.3952 22.3446 10.3985 22.3819 10.4163L22.5161 10.4802C22.5561 10.4993 22.5869 10.5334 22.6018 10.5751L22.7902 11.102C22.8038 11.1399 22.8032 11.1814 22.7887 11.219L22.7321 11.3652C22.7163 11.4061 22.6851 11.4392 22.6451 11.4574L21.6477 11.9102C21.6143 11.9254 21.5868 11.9511 21.5694 11.9833L21.0946 12.8641L21.2899 13.2983L21.29 20.4112L21.2301 21.164C21.2197 21.2947 21.1106 21.3955 20.9795 21.3955H20.2161V21.9438C20.2161 22.0364 20.1411 22.1114 20.0485 22.1114L19.7687 22.1114V22.6597C19.7687 22.7522 19.6937 22.8273 19.6011 22.8273H16.0885C15.9959 22.8273 15.9208 22.7522 15.9208 22.6597V22.1114L15.641 22.1114C15.5484 22.1114 15.4733 22.0364 15.4733 21.9438V21.3955H14.6206C14.4895 21.3955 14.3803 21.2947 14.3699 21.164L14.3101 20.4112L14.3101 19.0689L14.7429 18.8913H14.7421L14.3101 19.0689V13.2983Z" fill="#363545"/>
<path fill-rule="evenodd" clip-rule="evenodd" d="M17.7999 11.731L16.8063 11.91L16.5471 13.2075V15.8026L16.8063 17.1002L17.7999 17.2791L18.7935 17.1002L19.0527 15.8026V13.2075L18.7935 11.91L17.7999 11.731ZM18.7843 14.5946C18.7843 15.1382 18.3436 15.5789 17.8 15.5789C17.2563 15.5789 16.8156 15.1382 16.8156 14.5946C16.8156 14.0509 17.2563 13.6102 17.8 13.6102C18.3436 13.6102 18.7843 14.0509 18.7843 14.5946Z" fill="#363545"/>
</svg>
