<svg width="24" height="24" viewBox="0 0 24 24" fill="none" xmlns="http://www.w3.org/2000/svg">
  <path fill-rule="evenodd" clip-rule="evenodd"
    d="M7.68328 1.5L12.6651 6.48178L9.62854 9.51829L4.64676 4.53651L7.68328 1.5ZM9.15572 11.2361L14.9735 5.41835L18.6825 9.12891L12.8647 14.9467L9.61873 14.4821L9.15572 11.2361ZM3.86309 13.9602H5.293C5.293 16.8527 7.64728 19.207 10.5398 19.207V20.6385C6.85216 20.6385 3.86309 17.6478 3.86309 13.9602ZM8.15609 13.9602H6.72455C6.72455 16.0674 8.43259 17.7755 10.5398 17.7755V16.3455C9.22607 16.3455 8.15609 15.2756 8.15609 13.9602ZM1 13.9602H2.43155C2.43155 18.4315 6.07013 22.0685 10.5398 22.0685V23.5C5.27173 23.5 1 19.2283 1 13.9602ZM17.619 11.4374L14.5841 14.4723L19.4874 19.3771L22.5223 16.3406L17.619 11.4374Z" />
</svg>
