<svg width="24" height="24" viewBox="0 0 24 24" fill="none" xmlns="http://www.w3.org/2000/svg">
<path fill-rule="evenodd" clip-rule="evenodd" d="M8.70456 11.826L8.92 13.475H10.685V14.48H10.485C10.7892 15.3003 10.4023 15.646 9.88176 16.1111C9.72647 16.2499 9.55928 16.3992 9.395 16.575C9.255 16.905 8.89 17.16 8.69 17.245L8.58 16.995C8.755 16.89 8.99 16.54 8.99 15.975C8.99 15.41 8.75 15.06 8.58 14.955L8.73 14.72C9 14.835 9.425 15.205 9.5 15.75C9.815 15.395 9.53 14.485 8.895 14.485H5.29C5.215 14.12 5.06 13.78 4.855 13.48H7.98L7.76313 11.8285C6.61328 11.8313 5.09087 11.835 4.755 11.835C4.45 11.835 3.875 12.61 3.875 12.61C3.485 12.4 3.04 12.27 2.565 12.27C2.36 12.27 2.16 12.295 1.965 12.34V11.365C1.965 11.365 2.75 10.96 3.03 10.88C4.01 10.595 6.74 10.325 7.56 10.245L7.36 8.72L8.29 8.6L8.48984 10.1387L8.59447 10.1251L8.875 10.085L8.87546 10.0885C9.48448 10.0095 10.3994 9.89387 10.805 9.87C11.145 9.85 12.17 9.865 12.17 9.865V7.315H12V6.77H16.13V7.315H15.945V12.31C14.53 12.445 13.42 13.625 13.42 15.07C13.42 15.075 13.4213 15.0813 13.4225 15.0875C13.4238 15.0938 13.425 15.1 13.425 15.105C13.425 15.105 11.22 12.395 10.15 11.955C9.865 11.84 9.085 11.83 8.71 11.835L8.70879 11.826L8.70456 11.826ZM20.645 12.93C21.825 12.93 22.785 13.89 22.785 15.07C22.785 16.25 21.825 17.21 20.645 17.21C19.465 17.21 18.505 16.25 18.505 15.07C18.505 13.885 19.46 12.93 20.645 12.93ZM18.36 15.07C18.36 13.89 17.4 12.93 16.22 12.93C15.04 12.93 14.08 13.885 14.08 15.07C14.08 16.25 15.04 17.21 16.22 17.21C17.4 17.21 18.36 16.25 18.36 15.07ZM2.4 12.93C3.58 12.93 4.54 13.89 4.54 15.07C4.54 16.25 3.58 17.21 2.4 17.21C1.22 17.21 0.260002 16.25 0.260002 15.07C0.260002 13.885 1.22 12.93 2.4 12.93ZM23.74 10.165C23.74 10.165 20.78 9.605 19.785 9.5C18.99 9.415 16.595 9.35 16.595 9.35V12.305C17.345 12.41 17.995 12.81 18.435 13.38C18.945 12.71 19.745 12.275 20.645 12.275C21.92 12.275 22.99 13.14 23.32 14.315H23.74V10.165Z" fill="#363545"/>
</svg>
