<svg width="24" height="24" viewBox="0 0 24 24" fill="none" xmlns="http://www.w3.org/2000/svg">
<path d="M12.0247 5.21736C13.7133 5.21927 14.9028 5.47149 15.6024 5.75959C15.6214 6.80791 15.6309 10.4047 14.7103 13.0526L15.2987 13.2695C15.3462 13.1611 16.4756 10.6487 16.9976 6.98865C17.1305 7.24169 17.1874 7.43148 17.1874 7.43148C21.6956 10.0432 22.0278 14.9505 22.0278 14.9505C22.0278 14.9505 22.7111 15.6734 22.8155 15.9446C22.9199 16.2247 22.9958 18.4208 22.9958 18.4208C23.0623 19.5052 22.3125 19.6769 22.3125 19.6769H19.9208C19.655 20.2644 19.0381 20.5807 18.7629 20.5807V20.5897H12.0054V20.5716H5.22885C4.95362 20.5716 4.3462 20.2553 4.08045 19.6679H1.67925C1.67925 19.6679 0.929473 19.5052 1.0054 18.4117C1.0054 18.4117 1.08133 16.2066 1.18573 15.9355C1.29013 15.6644 1.97347 14.9414 1.97347 14.9414C1.97347 14.9414 2.30566 10.0252 6.81384 7.42244C6.81384 7.42244 6.87078 7.23266 7.00365 6.97961C7.52565 10.6397 8.65507 13.1521 8.70253 13.2605L9.29096 13.0436C8.37034 10.3957 8.37984 6.80791 8.39882 5.75055C9.10114 5.46136 10.297 5.20831 11.9959 5.20831L12.0247 5.21736Z" fill="#363545"/>
</svg>
