<svg width="24" height="24" viewBox="0 0 24 24" fill="none" xmlns="http://www.w3.org/2000/svg">
<path d="M19.255 14.5V14.915C19.255 14.915 21.115 15.19 21.79 15.285C22.605 15.4 23.285 15.96 23.285 16.78C23.285 17.605 22.61 18.275 21.79 18.275L10.485 18.27C9.66 18.27 8.99 17.595 8.99 16.775C8.99 15.95 9.675 15.415 10.485 15.28C11.05 15.19 12.98 14.915 12.98 14.915L12.9846 14.4999L11.13 14.47C10.695 14.47 10.39 14.11 10.34 13.68C10.24 12.83 10.35 11.305 10.575 10.34L10.2616 9.97125C10.1662 9.86229 10.082 9.76688 10.015 9.685C9.695 9.28 9.335 8.89 8.9 8.635C8.475 8.39 7.92 8.235 6.72 8.18C5.12584 8.10754 3.69037 8.05841 3.59504 8.05517L5.60848 15.2895L5.61 15.29L6.73 11C6.73 11 8.13 12.94 8.59 13.59C9.245 14.525 8.565 15.77 7.515 15.77L7.095 16.55C6.99 16.74 6.765 16.835 6.585 16.77L5.54 16.38L5.53359 16.3772C5.49061 16.3912 5.24216 16.458 5.11 16.18C4.835 15.6 0.670002 6.95 0.670002 6.95C0.615002 6.83 0.605002 6.7 0.660002 6.585L0.970002 5.965C1.14 5.68 1.515 5.68 1.73 5.795L2.89 6.455C2.89 6.455 3.20911 6.63948 3.25481 6.77443C3.38112 6.75958 5.97131 6.45643 8.2 6.315C8.855 6.275 9.12 6.335 9.39 6.425C9.635 6.505 10.02 6.765 10.415 7.175C10.689 7.45893 10.9828 7.77263 11.2767 8.09633C11.4511 7.71265 11.6313 7.345 12.05 7.345H14.885C15.07 7.345 15.235 7.48 15.28 7.74C15.37 8.3 15.7 9.965 15.7 9.965V9.96H17.85C17.865 9.915 17.885 9.87 17.905 9.815C17.985 9.59 18.06 9.54 18.17 9.54H21.66C21.8 9.54 21.875 9.63 21.945 9.82C21.965 9.87 21.985 9.915 22.005 9.965H22.07C22.905 9.965 23.375 10.445 23.375 11.22V13.38C23.375 14.14 23.015 14.5 22.165 14.5H19.255Z" fill="#363545"/>
</svg>
