<svg width="24" height="24" viewBox="0 0 24 24" fill="none" xmlns="http://www.w3.org/2000/svg">
<path d="M22.326 17.7497C22.4432 17.8669 22.4432 18.0568 22.326 18.174L20.0503 20.4497C19.8613 20.6387 19.5381 20.5048 19.5381 20.2376V18.7118L4.53815 18.7118L4.53815 17.2118L19.5381 17.2118V15.6861C19.5381 15.4188 19.8613 15.285 20.0503 15.474L22.326 17.7497Z" fill="#363545"/>
<path d="M1.75028 17.7497L4.02602 15.474C4.21501 15.285 4.53815 15.4188 4.53815 15.6861L4.53815 20.2376C4.53815 20.5048 4.21501 20.6387 4.02602 20.4497L1.75028 18.174C1.63313 18.0568 1.63313 17.8669 1.75028 17.7497Z" fill="#363545"/>
<path d="M17.3942 16.2118C18.7204 14.859 19.5382 13.0059 19.5382 10.9618C19.5382 6.81969 16.1803 3.46183 12.0382 3.46183C7.89602 3.46183 4.53815 6.81969 4.53815 10.9618C4.53815 13.0059 5.35589 14.859 6.68208 16.2118H9.13115C7.28658 15.1883 6.03815 13.2208 6.03815 10.9618C6.03815 7.64812 8.72444 4.96183 12.0382 4.96183C15.3519 4.96183 18.0382 7.64812 18.0382 10.9618C18.0382 13.2208 16.7897 15.1883 14.9452 16.2118H17.3942Z" fill="#363545"/>
<path d="M13.5382 10.9618C13.5382 11.7903 12.8666 12.4618 12.0382 12.4618C11.2097 12.4618 10.5382 11.7903 10.5382 10.9618C10.5382 10.1334 11.2097 9.46183 12.0382 9.46183C12.8666 9.46183 13.5382 10.1334 13.5382 10.9618Z" fill="#363545"/>
<path fill-rule="evenodd" clip-rule="evenodd" d="M16.5382 10.9618C16.5382 13.4471 14.5234 15.4618 12.0382 15.4618C9.55287 15.4618 7.53815 13.4471 7.53815 10.9618C7.53815 8.47655 9.55287 6.46183 12.0382 6.46183C14.5234 6.46183 16.5382 8.47655 16.5382 10.9618ZM15.0382 10.9618C15.0382 12.6187 13.695 13.9618 12.0382 13.9618C10.3813 13.9618 9.03815 12.6187 9.03815 10.9618C9.03815 9.30498 10.3813 7.96183 12.0382 7.96183C13.695 7.96183 15.0382 9.30497 15.0382 10.9618Z" fill="#363545"/>
</svg>
