<svg xmlns="http://www.w3.org/2000/svg" width="16" height="16" viewBox="0 0 16 16" fill="currentColor">
  <path d="M3.75074 11.2342L11.2218 3.72521C11.0796 3.43018 11 3.09939 11 2.75C11 1.50736 12.0074 0.5 13.25 0.5C14.4926 0.5 15.5 1.50736 15.5 2.75C15.5 3.99264 14.4926 5 13.25 5C12.9047 5 12.5775 4.9222 12.2851 4.78318L4.79533 12.3111C4.92673 12.5968 5 12.9149 5 13.25C5 14.4926 3.99264 15.5 2.75 15.5C1.50736 15.5 0.5 14.4926 0.5 13.25C0.5 12.0074 1.50736 11 2.75 11C3.1095 11 3.44931 11.0843 3.75074 11.2342Z"/>
</svg>