<svg width="24" height="24" viewBox="0 0 24 24" fill="none" xmlns="http://www.w3.org/2000/svg">
  <path fill-rule="evenodd" clip-rule="evenodd"
    d="M5.11 7.38L2 4.27L3.27 3L20 19.74L18.74 21L14.73 17H13V15.27L10.73 13H8V11H8.73L6.66 8.93C5.11 9.1 3.9 10.41 3.9 12C3.9 13.71 5.29 15.1 7 15.1H11V17H7C4.24 17 2 14.76 2 12C2 9.91 3.29 8.12 5.11 7.38ZM17 7H13V8.9H17C18.71 8.9 20.1 10.29 20.1 12C20.1 13.43 19.12 14.63 17.79 14.98L19.25 16.44C20.88 15.61 22 13.95 22 12C22 9.24 19.76 7 17 7ZM16 11H13.81L15.81 13H16V11Z" />
</svg>
