<svg width="24" height="24" viewBox="0 0 24 24" fill="none" xmlns="http://www.w3.org/2000/svg">
<path fill-rule="evenodd" clip-rule="evenodd" d="M17 8.5H18C19.1 8.5 20 9.4 20 10.5V20.5C20 21.6 19.1 22.5 18 22.5H6C4.9 22.5 4 21.6 4 20.5V10.5C4 9.4 4.9 8.5 6 8.5H7V6.5C7 3.74 9.24 1.5 12 1.5C14.76 1.5 17 3.74 17 6.5V8.5ZM14 15.5C14 16.6 13.1 17.5 12 17.5C10.9 17.5 10 16.6 10 15.5C10 14.4 10.9 13.5 12 13.5C13.1 13.5 14 14.4 14 15.5ZM8.9 6.5C8.9 4.79 10.29 3.4 12 3.4C13.71 3.4 15.1 4.79 15.1 6.5V8.5H8.9V6.5ZM6 20.5H18V10.5H6V20.5Z" fill="#363545"/>
</svg>
