<svg width="24" height="24" viewBox="0 0 24 24" fill="none" xmlns="http://www.w3.org/2000/svg">
  <path
    d="M3.07219 17.5783H2.18609C2.18609 17.5783 2.18609 14.6791 2.18609 14.472C2.18609 14.2649 2.30589 14.2649 2.35587 14.2649C2.4252 14.2649 2.86518 14.2649 2.86518 14.2649C2.56005 11.3816 2.00154 6.29577 2.00154 6.29577C1.99114 6.13195 2.03309 5.97891 2.13871 5.87497L2.72261 5.32124C3.02053 5.08025 3.42296 5.26496 3.60709 5.5019L3.74889 5.69389C4.34276 5.59802 5.16312 5.49275 6.19585 5.42342C6.86534 5.38017 7.13621 5.44504 7.41218 5.54236C7.6626 5.62886 8.05612 5.91 8.45985 6.35333C8.71935 6.63782 8.99626 6.94996 9.27451 7.27273L9.31384 7.13612L9.70993 7.60043C9.90797 7.13001 10.1117 6.67791 10.587 6.67791H13.7953C14.0047 6.67791 14.1914 6.84287 14.2423 7.16055C14.3135 7.63889 14.5175 8.77706 14.6337 9.41876H16.4603C16.4753 9.35927 16.4954 9.29978 16.5154 9.22707C16.5956 8.92963 16.6708 8.86354 16.7811 8.86354H20.2804C20.4208 8.86354 20.496 8.98251 20.5662 9.23368C20.5862 9.29978 20.6063 9.35927 20.6264 9.42536H20.6915C21.5287 9.42536 22 10.0599 22 11.0844V13.9398C22 14.9445 21.639 15.4204 20.7868 15.4204H17.9322V15.482C17.9322 15.482 19.8097 15.8347 20.491 15.9565C21.3136 16.1041 22 16.8223 22 17.8741C22 18.9323 21.3187 19.7916 20.491 19.7916L9.08006 19.7852C8.24733 19.7852 7.57105 18.9194 7.57105 17.8677C7.57105 16.8095 8.26247 16.1233 9.08006 15.9501C9.65035 15.8347 11.5984 15.482 11.5984 15.482L11.599 15.4195L9.54583 15.3837C9.05355 15.3837 8.70839 14.9439 8.6518 14.4185C8.53864 13.3799 8.66312 11.5165 8.91775 10.3374L8.53298 9.84867L8.57295 9.7098C8.36499 9.44544 8.1778 9.23129 8.05101 9.06736C7.72393 8.62944 7.35596 8.20773 6.91134 7.932C6.49578 7.67858 5.95863 7.51422 4.83908 7.44837L4.69272 8.99557L4.08098 14.2649H4.5681C4.5681 14.2649 4.73047 14.2649 4.73047 14.472C4.73047 14.6791 4.73047 17.5783 4.73047 17.5783H3.84437V19.0015L3.45828 19.5663L3.07219 19.0015V17.5783Z" />
</svg>
