<svg width="24" height="24" viewBox="0 0 24 24" fill="none" xmlns="http://www.w3.org/2000/svg">
  <path fill-rule="evenodd" clip-rule="evenodd"
    d="M4.19088 5.81699C4.0785 4.78823 4.00154 4.08746 4.00154 4.08746C3.99114 3.92364 4.03309 3.77059 4.13871 3.66665L4.72261 3.11293C5.02053 2.87194 5.42296 3.05665 5.60709 3.29358L5.74889 3.48557C6.34276 3.3897 7.16312 3.28443 8.19585 3.2151C8.86534 3.17185 9.13621 3.23673 9.41218 3.33405C9.6626 3.42055 10.0561 3.70168 10.4599 4.14501C10.7193 4.42951 10.9963 4.74165 11.2745 5.06442L11.3138 4.9278L11.7099 5.39211C11.908 4.92169 12.1117 4.4696 12.587 4.4696H15.7953C16.0047 4.4696 16.1914 4.63455 16.2423 4.95224C16.3135 5.43058 16.5175 6.56875 16.6337 7.21044H18.4603C18.4687 7.17723 18.4786 7.14401 18.4893 7.10849C18.4977 7.0804 18.5066 7.05087 18.5154 7.01876C18.5956 6.72132 18.6708 6.65522 18.7811 6.65522H22.2804C22.4208 6.65522 22.496 6.7742 22.5662 7.02537C22.5762 7.05842 22.5862 7.08981 22.5963 7.12121C22.6063 7.15261 22.6163 7.184 22.6264 7.21705H22.6915C23.5287 7.21705 24 7.85159 24 8.8761V11.7315C24 12.7362 23.639 13.2121 22.7868 13.2121H21.5V13.0428C21.5 11.5898 20.8274 10.4195 19.6879 9.99399C19.406 9.54947 18.9694 9.25939 18.2804 9.25939H14.7811C14.3946 9.25939 14.0825 9.35902 13.832 9.53373C13.7838 9.2533 13.7467 9.02825 13.7246 8.8795C13.5595 7.84907 12.8008 7.07377 11.7953 7.07377H10.2246C10.1591 6.99456 10.1005 6.92298 10.051 6.85904C9.72393 6.42112 9.35596 5.99942 8.91134 5.72369C8.49578 5.47027 7.95863 5.3059 6.83908 5.24006L6.75856 6.09126L6.64926 5.96315L6.53783 6.35025C6.31709 6.20443 6.09725 6.09119 5.88432 6.01763C5.37711 5.83875 4.9138 5.77702 4.19088 5.81699ZM21.5 13.5664C21.8881 13.6384 22.2589 13.7067 22.491 13.7482C23.3136 13.8957 24 14.614 24 15.6658C24 16.724 23.3187 17.5833 22.491 17.5833L21.1413 17.5826C21.3771 17.1156 21.5 16.5451 21.5 15.8982V13.5664ZM0.186094 19.5367H1.07219V20.9599L1.45828 21.5247L1.84437 20.9599V19.5367H2.73047V16.4304C2.73047 16.2923 2.67634 16.2233 2.5681 16.2233H2.08098L2.69272 10.9539L2.83908 9.40672C3.95863 9.47257 4.49578 9.63694 4.91134 9.89036C5.35596 10.1661 5.72393 10.5878 6.05101 11.0257C6.11124 11.1036 6.1851 11.1928 6.26834 11.2933C6.36033 11.4044 6.46378 11.5294 6.57295 11.6682L6.53298 11.807L6.91775 12.2958C6.66312 13.4749 6.53864 15.3382 6.6518 16.3768C6.70839 16.9022 7.05355 17.3421 7.54583 17.3421L9.59898 17.3779L9.59844 17.4403C9.59844 17.4403 7.65035 17.793 7.08006 17.9085C6.26247 18.0816 5.57105 18.7679 5.57105 19.826C5.57105 20.8778 6.24733 21.7436 7.08006 21.7436L18.491 21.75C19.3187 21.75 20 20.8906 20 19.8325C20 18.7807 19.3136 18.0624 18.491 17.9149C17.8097 17.793 15.9322 17.4403 15.9322 17.4403V17.3788H18.7868C19.639 17.3788 20 16.9029 20 15.8982V13.0428C20 12.0183 19.5287 11.3837 18.6915 11.3837H18.6264C18.6163 11.3507 18.6063 11.3193 18.5963 11.2879C18.5862 11.2565 18.5762 11.2251 18.5662 11.192C18.496 10.9409 18.4208 10.8219 18.2804 10.8219H14.7811C14.6708 10.8219 14.5956 10.888 14.5154 11.1854C14.5066 11.2175 14.4977 11.2471 14.4893 11.2752C14.4786 11.3107 14.4687 11.3439 14.4603 11.3771H12.6337C12.5175 10.7354 12.3135 9.59725 12.2423 9.11891C12.1914 8.80122 12.0047 8.63627 11.7953 8.63627H8.58698C8.11168 8.63627 7.90797 9.08836 7.70993 9.55878L7.31384 9.09447L7.27451 9.23109C6.99626 8.90831 6.71935 8.59617 6.45985 8.31168C6.05612 7.86835 5.6626 7.58722 5.41218 7.50071C5.13621 7.4034 4.86534 7.33852 4.19585 7.38177C3.16312 7.4511 2.34276 7.55637 1.74889 7.65224L1.60709 7.46025C1.42296 7.22332 1.02053 7.0386 0.722615 7.27959L0.138709 7.83332C0.0330869 7.93726 -0.00885929 8.09031 0.00153804 8.25413C0.00153804 8.25413 0.560055 13.3399 0.865184 16.2233H0.355866C0.305895 16.2233 0.186094 16.2233 0.186094 16.5019V19.5367Z" />
</svg>
