<svg width="24" height="24" viewBox="0 0 24 24" fill="none" xmlns="http://www.w3.org/2000/svg">
<path d="M3.07219 17.5783H2.18609C2.18609 17.5783 2.18609 14.6791 2.18609 14.472C2.18609 14.2649 2.30589 14.2649 2.35587 14.2649C2.4252 14.2649 2.86518 14.2649 2.86518 14.2649C2.56005 11.3816 2.00154 6.29579 2.00154 6.29579C1.99114 6.13197 2.03309 5.97892 2.13871 5.87498L2.72261 5.32125C3.02053 5.08026 3.42296 5.26498 3.60709 5.50191L3.74889 5.6939C4.34276 5.59803 5.16312 5.49276 6.19585 5.42343C6.86534 5.38018 7.13621 5.44506 7.41218 5.54237C7.6626 5.62888 8.05612 5.91001 8.45985 6.35334C8.71935 6.63783 8.99626 6.94998 9.27451 7.27275L9.31384 7.13613L9.70993 7.60044C9.90797 7.13002 10.1117 6.67793 10.587 6.67793H13.7953C14.0047 6.67793 14.1914 6.84288 14.2423 7.16057C14.3135 7.63891 14.5175 8.77707 14.6337 9.41877H16.4603C16.4753 9.35928 16.4954 9.2998 16.5154 9.22709C16.5956 8.92965 16.6708 8.86355 16.7811 8.86355H20.2804C20.4208 8.86355 20.496 8.98253 20.5662 9.2337C20.5862 9.2998 20.6063 9.35928 20.6264 9.42538H20.6915C21.5287 9.42538 22 10.0599 22 11.0844V13.9398C22 14.9445 21.639 15.4204 20.7868 15.4204H17.9322V15.482C17.9322 15.482 19.8097 15.8347 20.491 15.9566C21.3136 16.1041 22 16.8223 22 17.8741C22 18.9323 21.3187 19.7917 20.491 19.7917L9.08006 19.7852C8.24733 19.7852 7.57105 18.9195 7.57105 17.8677C7.57105 16.8095 8.26247 16.1233 9.08006 15.9501C9.65035 15.8347 11.5984 15.482 11.5984 15.482L11.599 15.4195L9.54583 15.3838C9.05355 15.3838 8.70839 14.9439 8.6518 14.4185C8.53864 13.3799 8.66312 11.5165 8.91775 10.3374L8.53298 9.84869L8.57295 9.70982C8.36499 9.44546 8.1778 9.23131 8.05101 9.06737C7.72393 8.62945 7.35596 8.20775 6.91134 7.93202C6.49578 7.6786 5.95863 7.51423 4.83908 7.44838L4.69272 8.99559L4.08098 14.2649H4.5681C4.5681 14.2649 4.73047 14.2649 4.73047 14.472C4.73047 14.6791 4.73047 17.5783 4.73047 17.5783H3.84437V19.0016L3.45828 19.5664L3.07219 19.0016V17.5783Z" fill="#363545"/>
</svg>
