<svg width="24" height="24" viewBox="0 0 24 24" fill="currentColor" xmlns="http://www.w3.org/2000/svg">
  <path fill-rule="evenodd" clip-rule="evenodd"
    d="M15.8571 2.25C18.2265 2.25 20.1429 4.26214 20.1429 6.75C20.1429 10.125 15.8571 15.1071 15.8571 15.1071C15.8571 15.1071 11.5714 10.125 11.5714 6.75C11.5714 4.26214 13.4878 2.25 15.8571 2.25ZM21 19.5843V10.2682C20.6938 10.9693 20.3156 11.6881 19.8782 12.4188V18.9626L15.8571 20.3922V17.7359L14.6173 16.2945V20.4339L9.3384 18.4871V5.24631L9.98168 5.48428C10.0553 5.1158 10.1603 4.75901 10.2939 4.41716L9 3.96429L3.36 5.86429C3.15 5.93429 3 6.11429 3 6.34429V21.4643C3 21.7443 3.22 21.9643 3.5 21.9643L3.66 21.9343L9 19.8643L15 21.9643L20.64 20.0643C20.85 19.9943 21 19.8143 21 19.5843ZM4.34896 6.86641L8.14286 5.59327V18.5935L4.34896 20.1372V6.86641ZM17.3878 6.75C17.3878 7.63714 16.702 8.35714 15.8571 8.35714C15.0122 8.35714 14.3265 7.63714 14.3265 6.75C14.3265 5.86286 15.0122 5.14286 15.8571 5.14286C16.702 5.14286 17.3878 5.86286 17.3878 6.75Z" />
</svg>
