<svg width="24" height="24" viewBox="0 0 24 24" fill="currentColor" xmlns="http://www.w3.org/2000/svg">
  <path fill-rule="evenodd" clip-rule="evenodd"
    d="M13.0714 18.0146C12.8668 18.1197 12.6369 18.1788 12.3928 18.1788H4.84013C4.30645 18.1788 3.82827 17.9342 3.49526 17.5517L3.49342 17.5492L3.49099 17.5517C3.18786 17.2092 3 16.7601 3 16.262C3 16.262 3.00854 12.8464 3.01281 12.8108C3.0555 10.4359 4.61385 8.44798 6.72296 7.84759L6.72543 7.85133C7.14738 7.73168 7.59483 7.6608 8.05503 7.6608C8.54602 7.6608 9.01565 7.7364 9.45968 7.86982L10.4331 7.29167L12.2775 8.66145L12.2811 8.6666L12.2861 8.67034L13.6053 10.596L12.9777 11.7479C13.0546 12.0948 13.0972 12.4506 13.1058 12.8197C13.1855 14.5873 13.7297 15.6774 13.8023 15.8228C13.8075 15.8333 13.8102 15.8389 13.8102 15.8395C13.9127 16.0529 13.9725 16.2931 13.9725 16.5466C13.9725 17.0847 13.7206 17.5561 13.3406 17.8541L13.0759 18.0231L13.0714 18.0146ZM12.8823 17.1666L12.8838 17.1648C13.0588 17.018 13.1698 16.7956 13.1698 16.5466C13.1698 16.1019 12.824 15.7416 12.3971 15.7416C12.2604 15.7416 12.1281 15.7816 12.0171 15.8484L11.9703 15.8655C11.7583 16.0077 11.6157 16.2546 11.6157 16.5377C11.6157 16.9824 11.9616 17.3427 12.3885 17.3427C12.5721 17.3427 12.7429 17.2715 12.8752 17.1559L12.8823 17.1666ZM10.7917 14.0027L10.7896 14.0079L10.7832 13.9983C10.3648 15.1457 9.29744 15.964 8.04649 15.964C7.22889 15.964 6.49199 15.6145 5.95864 15.0522L5.963 15.0478C5.44639 14.5008 5.12619 13.7448 5.12619 12.9176C5.12619 11.232 6.43691 9.86668 8.05503 9.86668C8.8833 9.86668 9.63046 10.2269 10.1641 10.8006L10.3435 11.0141L10.3446 11.013C10.7476 11.5346 10.9881 12.1991 10.9881 12.922C10.9839 13.3 10.9156 13.6647 10.7917 14.0027ZM17.8876 14.8966V14.8922H20.5389C20.7951 14.8922 21 15.1101 21 15.3725V17.7118C21 17.9786 20.7908 18.1921 20.5389 18.1921H20.1675V16.2397H19.7064V18.1921H18.814V17.2226H18.3572V18.1877H18.0455V18.1921H17.4521V16.2397H16.991V18.1921H16.1072V17.2226H15.6461V18.1921H14.3183C14.6727 17.7429 14.8861 17.1692 14.8861 16.5421C14.8861 16.1997 14.8178 15.8617 14.6855 15.537C14.6855 15.537 14.5207 15.1762 14.4181 14.8966H17.8876ZM14.4165 14.8922L14.4181 14.8966H14.4165V14.8922ZM6.31736 12.9176C6.31736 13.9172 7.09534 14.7276 8.05503 14.7276C9.01472 14.7276 9.79269 13.9172 9.79269 12.9176C9.79269 11.9179 9.01472 11.1075 8.05503 11.1075C7.09534 11.1075 6.31736 11.9179 6.31736 12.9176Z" />
</svg>
