<svg width="24" height="24" viewBox="0 0 24 24" fill="none" xmlns="http://www.w3.org/2000/svg">
<path fill-rule="evenodd" clip-rule="evenodd" d="M13.1904 17.8046C12.9631 17.9203 12.7077 17.9853 12.4364 17.9853H4.04459C3.45161 17.9853 2.9203 17.716 2.55028 17.295L2.54825 17.2923L2.54554 17.295C2.20873 16.918 2 16.4235 2 15.8752C2 15.8752 2.00949 12.1151 2.01423 12.0759C2.06167 9.46144 3.79317 7.27295 6.13662 6.612L6.13937 6.61612C6.6082 6.4844 7.10536 6.40636 7.6167 6.40636C8.16224 6.40636 8.68406 6.4896 9.17742 6.63647L10.259 6L12.3083 7.50796L12.3123 7.51363L12.3178 7.51775L13.7837 9.6377L13.0863 10.9058C13.1717 11.2876 13.2192 11.6793 13.2287 12.0857C13.3172 14.0316 13.9218 15.2317 14.0025 15.3917C14.0083 15.4032 14.0114 15.4094 14.0114 15.41C14.1252 15.645 14.1917 15.9094 14.1917 16.1885C14.1917 16.7809 13.9118 17.2999 13.4896 17.6279L13.1954 17.814L13.1904 17.8046ZM12.9804 16.871L12.982 16.869C13.1765 16.7075 13.2998 16.4627 13.2998 16.1885C13.2998 15.6989 12.9156 15.3023 12.4412 15.3023C12.2894 15.3023 12.1423 15.3464 12.019 15.4198L11.967 15.4387C11.7315 15.5952 11.5731 15.8671 11.5731 16.1787C11.5731 16.6683 11.9573 17.0649 12.4317 17.0649C12.6357 17.0649 12.8254 16.9865 12.9725 16.8592L12.9804 16.871ZM10.6575 13.388L10.6551 13.3937L10.648 13.3831C10.1831 14.6463 8.99715 15.5471 7.60721 15.5471C6.69877 15.5471 5.87999 15.1624 5.28738 14.5434L5.29222 14.5386C4.71822 13.9364 4.36243 13.104 4.36243 12.1934C4.36243 10.3378 5.81879 8.83476 7.6167 8.83476C8.537 8.83476 9.36717 9.23133 9.96015 9.86291L10.1594 10.0979L10.1606 10.0967C10.6084 10.671 10.8757 11.4025 10.8757 12.1983C10.871 12.6144 10.7951 13.0159 10.6575 13.388ZM18.5417 14.3721V14.3672H21.4877C21.7723 14.3672 22 14.6071 22 14.896V17.4712C22 17.765 21.7676 18 21.4877 18H21.075V15.8507H20.5626V18H19.5712V16.9327H19.0636V17.9951H18.7173V18H18.0579V15.8507H17.5455V18H16.5636V16.9327H16.0512V18H14.5759C14.9696 17.5055 15.2068 16.8739 15.2068 16.1836C15.2068 15.8066 15.1309 15.4345 14.9839 15.0771C14.9839 15.0771 14.8008 14.6799 14.6868 14.3721H18.5417ZM14.685 14.3672L14.6868 14.3721H14.685V14.3672ZM5.68596 12.1934C5.68596 13.2939 6.55038 14.186 7.6167 14.186C8.68302 14.186 9.54744 13.2939 9.54744 12.1934C9.54744 11.0929 8.68302 10.2007 7.6167 10.2007C6.55038 10.2007 5.68596 11.0929 5.68596 12.1934Z" fill="#363545"/>
</svg>
