<svg width="24" height="24" viewBox="0 0 24 24" fill="none" xmlns="http://www.w3.org/2000/svg">
<path d="M12.8109 9.55062L14.5085 7.69972L11.7672 2L9.0255 7.69972L10.7261 9.55062H12.8109Z" fill="#252A2E"/>
<path d="M20.5001 13.0107L18.1356 11.9393C17.884 10.3527 17.0856 8.95278 15.9466 7.95142L15.1456 8.8246C16.3417 9.83864 17.0588 11.3558 17.0588 13.0194L17.0907 13.5951H19.2112L20.5001 13.0107Z" fill="#252A2E"/>
<path d="M8.38043 8.81318L7.57354 7.93476C6.4243 8.93742 5.61783 10.3434 5.36448 11.9389L3 13.0102L3.01874 13.0185H6.44133C6.44133 11.3719 7.17967 9.83291 8.38043 8.81318Z" fill="#252A2E"/>
<path d="M12.7921 19.5707C15.5278 19.1127 17.6888 16.893 18.1346 14.0823L20.4803 13.0192H17.0577C17.0577 16.0263 14.6762 18.4731 11.7493 18.4731L11.1906 18.5164V20.698L11.7493 21.9999L12.7921 19.5707Z" fill="#252A2E"/>
<path d="M6.44133 13.0194L6.41834 12.3466H4.46646L3 13.0106L5.36448 14.082C5.81029 16.8927 7.97124 19.1124 10.707 19.5704L11.7498 22.0001V18.4733C8.82284 18.4733 6.44133 16.0265 6.44133 13.0194Z" fill="#252A2E"/>
<path d="M10.3014 9.08771C8.7557 9.68923 7.655 11.2203 7.655 13.0188H9.60177V10.3865H10.9341L12.2822 12.8442V9.09296L10.3014 9.08771Z" fill="#252A2E"/>
<path d="M12.6778 13.54V10.3867H13.8986V13.54H15.7508L15.8449 13.0189C15.8449 11.231 14.7574 9.70735 13.2263 9.0984L11.75 9.09271V11.8737L12.6638 13.5395H12.6778V13.54Z" fill="#252A2E"/>
<path d="M10.8362 12.3146H10.8221V15.5037H9.60177V12.3465H7.76698L7.655 13.0193C7.655 15.3427 9.4885 17.2264 11.7499 17.2264V13.9993L10.8362 12.3146Z" fill="#252A2E"/>
<path d="M15.8442 13.0195H13.8979V15.5039H12.5655L11.1906 12.9692V17.1225L11.7493 17.2266C14.0111 17.2266 15.8442 15.3429 15.8442 13.0195Z" fill="#252A2E"/>
</svg>
