<svg width="24" height="24" viewBox="0 0 24 24" fill="none" xmlns="http://www.w3.org/2000/svg">
<path fill-rule="evenodd" clip-rule="evenodd" d="M17.5 10.75V14.43L8.56 4.99C8.56 4.98 8.57 4.98 8.57 4.98C8.79 4.87 9.02 4.76 9.25 4.67C9.25575 4.66425 9.25819 4.66181 9.26113 4.66077C9.26331 4.66 9.26575 4.66 9.27 4.66H9.28C9.38 4.62 9.48 4.58 9.58 4.55C9.60949 4.54093 9.63949 4.53134 9.67 4.52159C9.77402 4.48835 9.88402 4.4532 10 4.43V3.75C10 2.92 10.67 2.25 11.5 2.25C12.33 2.25 13 2.92 13 3.75V4.43C15.86 5.11 17.5 7.67 17.5 10.75ZM19.5 18.44L4.77 3.24L3.5 4.51L6.3 7.31V7.32C5.78 8.31 5.5 9.48 5.5 10.74V15.74L3.5 17.74V18.74H17.23L19.23 20.74L20.5 19.47L19.5 18.44ZM11.5 21.75C12.61 21.75 13.5 20.86 13.5 19.75H9.5C9.5 20.86 10.39 21.75 11.5 21.75Z" fill="#363545"/>
</svg>
