<svg width="24" height="24" viewBox="0 0 24 24" fill="none" xmlns="http://www.w3.org/2000/svg">
<path d="M21 13.44C21 11.9058 19.8088 10.4524 17.7706 9.48344L16.9765 11.2598C18.3 11.8789 19.1206 12.6594 19.1206 13.44C19.1206 14.9203 16.0765 16.5621 12.0265 16.5621C7.97647 16.5621 4.93235 14.9203 4.93235 13.44C4.93235 11.9596 7.92353 10.3178 12 10.3178V13.1977L15.3088 9.34886L12 5.5V8.37992C6.89118 8.37992 3 10.56 3 13.44C3 16.3199 6.89118 18.5 12 18.5C17.1088 18.5 21 16.3468 21 13.44Z" fill="#363545"/>
</svg>
