<svg width="24" height="24" viewBox="0 0 24 24" fill="none" xmlns="http://www.w3.org/2000/svg">
<path fill-rule="evenodd" clip-rule="evenodd" d="M19.04 4.32C19.3935 4.32 19.68 4.60654 19.68 4.96V19.04C19.68 19.3935 19.3935 19.68 19.04 19.68H4.96C4.60654 19.68 4.32 19.3935 4.32 19.04V4.96C4.32 4.60654 4.60654 4.32 4.96 4.32H19.04ZM14.24 4.96H9.76V9.12H14.24V4.96ZM14.88 19.04H19.04V14.88H14.88V19.04ZM14.24 14.88V19.04H9.76V14.88H14.24ZM14.88 14.24H19.04V9.76H14.88V14.24ZM14.24 9.76V14.24H9.76V9.76H14.24ZM14.88 9.12H19.04V4.96H14.88V9.12ZM9.12 19.04V14.88H4.96V19.04H9.12ZM9.12 14.24V9.76H4.96V14.24H9.12ZM4.96 9.12H9.12V4.96H4.96V9.12Z" fill="#252A2E"/>
<path fill-rule="evenodd" clip-rule="evenodd" d="M9.76 4.96H14.24V9.12H9.76V4.96ZM10.08 8.8H13.92V5.28H10.08V8.8ZM19.04 4C19.5702 4 20 4.42981 20 4.96V19.04C20 19.5702 19.5702 20 19.04 20H4.96C4.42981 20 4 19.5702 4 19.04V4.96C4 4.42981 4.42981 4 4.96 4H19.04ZM19.04 19.04H14.88V14.88H19.04V19.04ZM18.72 15.2H15.2V18.72H18.72V15.2ZM13.92 18.72V15.2H10.08V18.72H13.92ZM19.04 14.24H14.88V9.76H19.04V14.24ZM18.72 10.08H15.2V13.92H18.72V10.08ZM13.92 13.92V10.08H10.08V13.92H13.92ZM19.04 9.12H14.88V4.96H19.04V9.12ZM18.72 5.28H15.2V8.8H18.72V5.28ZM9.12 14.88V19.04H4.96V14.88H9.12ZM5.28 15.2V18.72H8.8V15.2H5.28ZM9.12 9.76V14.24H4.96V9.76H9.12ZM5.28 10.08V13.92H8.8V10.08H5.28ZM9.12 9.12H4.96V4.96H9.12V9.12ZM8.8 5.28H5.28V8.8H8.8V5.28ZM19.68 4.96C19.68 4.60654 19.3935 4.32 19.04 4.32H4.96C4.60654 4.32 4.32 4.60654 4.32 4.96V19.04C4.32 19.3935 4.60654 19.68 4.96 19.68H19.04C19.3935 19.68 19.68 19.3935 19.68 19.04V4.96ZM14.24 14.88H9.76V19.04H14.24V14.88ZM14.24 9.76H9.76V14.24H14.24V9.76Z" fill="#252A2E"/>
</svg>
