<svg width="24" height="24" viewBox="0 0 24 24" fill="none" xmlns="http://www.w3.org/2000/svg">
<path d="M7.10902 3.7274L7.10896 3.72771L19.6653 20.75L19.6663 20.5L19.6661 20.75H19.6657C19.7554 20.7503 19.8434 20.7292 19.9232 20.6889C20.0029 20.6486 20.0718 20.5904 20.1254 20.5198C20.179 20.4493 20.2163 20.3678 20.2353 20.2817C20.2543 20.1959 20.2549 20.1067 20.2371 20.0206C20.237 20.0204 20.237 20.0202 20.2369 20.02L16.9168 3.73643L16.9167 3.73617C16.8898 3.60486 16.8209 3.48441 16.718 3.39632C16.6149 3.30796 16.484 3.2579 16.3468 3.25774L16.3467 3.25774L7.6803 3.25C7.68027 3.25 7.68024 3.25 7.68022 3.25C7.68019 3.25 7.68017 3.25 7.68015 3.25C7.54296 3.24983 7.4119 3.29959 7.30851 3.38775C7.20541 3.47566 7.1362 3.59606 7.10902 3.7274ZM15.0885 14.021L17.8217 14.0234L18.9468 19.5417L15.5362 19.5386L15.0885 14.021ZM10.0915 14.0165L13.9176 14.0199L14.3653 19.5376L9.63498 19.5334L10.0915 14.0165ZM6.18738 14.013L8.92061 14.0155L8.46445 19.5323L5.05386 19.5293L6.18738 14.013ZM14.6297 8.35737L16.6667 8.35919L17.5757 12.8152L14.9906 12.8129L14.6297 8.35737ZM10.5596 8.35373L13.4585 8.35633L13.8197 12.8118L10.1913 12.8086L10.5596 8.35373ZM7.35139 8.35087L9.38903 8.35269L9.02043 12.8075L6.43595 12.8052L7.35139 8.35087ZM14.3138 4.4636L15.8728 4.465L16.4207 7.1513L14.5318 7.14961L14.3138 4.4636ZM10.8817 4.46054L13.1426 4.46256L13.3606 7.14856L10.6597 7.14615L10.8817 4.46054ZM8.1518 4.45809L9.71049 4.45949L9.48882 7.1451L7.59996 7.14341L8.1518 4.45809Z" fill="#252A2E" stroke="#252A2E" stroke-width="0.5"/>
</svg>
