<svg width="24" height="24" viewBox="0 0 24 24" fill="none" xmlns="http://www.w3.org/2000/svg">
<path d="M9.25148 9.49425C9.06172 9.49425 8.90935 9.65081 8.91449 9.8405L9.0658 15.4192C9.07076 15.6017 9.22017 15.7471 9.40279 15.7471H14.5977C14.7804 15.7471 14.9298 15.6017 14.9347 15.4192L15.086 9.8405C15.0912 9.65081 14.9388 9.49425 14.749 9.49425H9.25148Z" fill="#363545"/>
<path fill-rule="evenodd" clip-rule="evenodd" d="M8.57426 2.74824C8.60685 2.57218 8.73824 2.43081 8.91146 2.38544L9.94425 2.11494L12 2L14.0557 2.11494L15.0885 2.38544C15.2617 2.43081 15.3931 2.57218 15.4257 2.74824L15.4888 3.089C15.5317 3.3209 15.4614 3.55936 15.2996 3.73087L15.049 3.99641V5.07328L14.7718 5.38793V6.73707L14.9722 6.88147C15.0204 6.9162 15.049 6.97199 15.049 7.0314V8.01149L15.5303 8.68023C15.5777 8.74599 15.6021 8.82548 15.5998 8.90648L15.3768 16.8749C15.3742 16.9666 15.3049 17.0425 15.2138 17.0532L14.8644 17.0946V17.5281C14.8644 17.6155 14.8031 17.691 14.7175 17.7089L14.7066 17.7112C14.2318 17.8107 13.7415 17.8107 13.2666 17.7112L13.2558 17.7089C13.1702 17.691 13.1089 17.6155 13.1089 17.5281V17.2904C13.0627 17.294 13.0166 17.2973 12.9704 17.3004V21.6304C12.9704 21.8345 12.8049 22 12.6008 22H11.2149C11.0108 22 10.8453 21.8345 10.8453 21.6304V17.2808C10.7157 17.2698 10.5862 17.2569 10.4569 17.2422L8.78703 17.0526C8.6956 17.0422 8.62574 16.9661 8.62317 16.8741L8.40017 8.90648C8.3979 8.82548 8.42232 8.74599 8.46965 8.68023L8.95103 8.01149V7.0314C8.95103 6.97199 8.97959 6.9162 9.02779 6.88147L9.22821 6.73707V5.38793L8.95103 5.07328V3.99641L8.70042 3.73087C8.53855 3.55936 8.46825 3.3209 8.51117 3.089L8.57426 2.74824ZM12.8779 5.81609C12.8779 6.29855 12.4849 6.68966 12.0002 6.68966C11.5154 6.68966 11.1224 6.29855 11.1224 5.81609C11.1224 5.33364 11.5154 4.94253 12.0002 4.94253C12.4849 4.94253 12.8779 5.33364 12.8779 5.81609ZM13.9404 6.68966C14.3231 6.68966 14.6333 6.29855 14.6333 5.81609C14.6333 5.33364 14.3231 4.94253 13.9404 4.94253C13.5577 4.94253 13.2474 5.33364 13.2474 5.81609C13.2474 6.29855 13.5577 6.68966 13.9404 6.68966ZM10.7529 5.81609C10.7529 6.29855 10.4426 6.68966 10.0599 6.68966C9.67723 6.68966 9.36699 6.29855 9.36699 5.81609C9.36699 5.33364 9.67723 4.94253 10.0599 4.94253C10.4426 4.94253 10.7529 5.33364 10.7529 5.81609ZM9.00761 9.21838C8.79957 9.21838 8.63253 9.39003 8.63817 9.59799L8.80289 15.6634C8.80832 15.8636 8.97212 16.023 9.17232 16.023H14.8281C15.0283 16.023 15.1921 15.8636 15.1975 15.6634L15.3622 9.59799C15.3679 9.39003 15.2008 9.21838 14.9928 9.21838H9.00761Z" fill="#363545"/>
</svg>
