<svg width="24" height="24" viewBox="0 0 24 24" fill="none" xmlns="http://www.w3.org/2000/svg">
<path d="M15.75 3.97297C15.75 3.43561 15.2759 3 14.6912 3H7.80882C7.22405 3 6.75 3.43561 6.75 3.97297V5.43243H15.75V3.97297Z" fill="#363545"/>
<path d="M6.75007 20.0379L15.75 14.9839V12.2432H6.75V20.027L6.75007 20.0379Z" fill="#363545"/>
<path d="M15.7392 20.027V16.1242L7.27884 20.8752C7.43225 20.9547 7.60937 21 7.79802 21H14.6804C15.2651 21 15.7392 20.5644 15.7392 20.027Z" fill="#363545"/>
<path d="M8.33767 10.2973V5.43243H7.27884V10.2973H8.33767Z" fill="#363545"/>
<path fill-rule="evenodd" clip-rule="evenodd" d="M11.2482 9.69598C10.2243 9.69598 9.39423 8.86592 9.39423 7.84198C9.39423 6.81805 10.2243 5.98799 11.2482 5.98799C12.2722 5.98799 13.1022 6.81805 13.1022 7.84198C13.1022 8.86592 12.2722 9.69598 11.2482 9.69598ZM12.0359 7.84199C12.0359 8.2794 11.6813 8.63399 11.2439 8.63399C10.8065 8.63399 10.4519 8.2794 10.4519 7.84199C10.4519 7.40458 10.8065 7.04999 11.2439 7.04999C11.6813 7.04999 12.0359 7.40458 12.0359 7.84199Z" fill="#363545"/>
<path d="M6.75 10.2973H15.75V11.2703H6.75V10.2973Z" fill="#363545"/>
<path d="M15.213 10.2973V5.43243H14.1541V10.2973H15.213Z" fill="#363545"/>
</svg>
