<svg width="24" height="24" viewBox="0 0 24 24" fill="none" xmlns="http://www.w3.org/2000/svg">
  <path fill-rule="evenodd" clip-rule="evenodd"
    d="M1.44 12C1.44 6.175 6.185 1.44 12.005 1.44C17.825 1.44 22.565 6.175 22.565 12H22.56C22.56 17.82 17.825 22.56 12 22.56C6.175 22.56 1.44 17.825 1.44 12ZM5.37778 17.1274C5.84998 16.1179 7.03694 15.7542 7.99246 15.4613C8.2433 15.3845 8.47818 15.3125 8.68 15.235C8.955 15.13 9.215 15.03 9.435 14.92L9.535 14.87C8.96 13.905 8.54 12.685 8.295 11.835L9.165 11.83C9.165 11.83 9.185 11.915 9.22 11.995C9.61 13.2 10.515 15.57 11.475 15.51H12.525C13.31 15.57 14.325 13.3 14.775 12.02C14.82 11.9 14.85 11.835 14.85 11.835H15.705C15.46 12.68 15 13.885 14.415 14.845L14.565 14.92C14.785 15.03 15.045 15.13 15.32 15.235C15.5188 15.3108 15.7503 15.3815 15.9978 15.4571C16.9535 15.7491 18.1479 16.114 18.6221 17.1276C19.7209 15.7106 20.375 13.9316 20.375 12C20.375 7.375 16.625 3.625 12 3.625C7.375 3.625 3.625 7.375 3.63 12H3.625C3.625 13.9316 4.27907 15.7105 5.37778 17.1274ZM13.315 5.37C13.0577 5.26115 12.629 5.16209 12.0145 5.16003L12 5.155C11.375 5.155 10.935 5.25 10.68 5.365C10.67 5.77 10.67 7.155 11.005 8.175L10.785 8.26C10.765 8.22 10.355 7.25 10.16 5.84C10.11 5.94 10.09 6.01 10.09 6.01C8.435 7.015 8.315 8.905 8.315 8.905C8.315 8.905 8.065 9.185 8.025 9.29C7.985 9.395 7.96 10.245 7.96 10.245C7.94 10.67 8.215 10.735 8.215 10.735H9.095C9.195 10.96 9.415 11.085 9.515 11.085H14.485C14.585 11.085 14.81 10.96 14.91 10.735H15.785C15.785 10.735 16.06 10.67 16.035 10.25C16.035 10.25 16.01 9.4 15.97 9.295C15.93 9.19 15.68 8.91 15.68 8.91C15.68 8.91 15.555 7.015 13.905 6.015C13.905 6.015 13.885 5.94 13.835 5.845C13.645 7.255 13.23 8.225 13.21 8.265L12.99 8.18C13.325 7.16 13.325 5.775 13.315 5.37Z" />
</svg>
