<svg width="24" height="24" viewBox="0 0 24 24" fill="currentColor" xmlns="http://www.w3.org/2000/svg">
  <path fill-rule="evenodd" clip-rule="evenodd" d="M1.99991 3.27024L3.26991 2.00024L21.9999 20.7302L20.7299 22.0002L16.9499 18.2202L15.5299 16.8002L14.1009 15.3702L13.2578 14.5272L7.75041 20.0346H4.00041V16.2846L9.50757 10.7775L6.21991 7.49024L1.99991 3.27024ZM21.71 6.07504C22.1 5.68504 22.1 5.05504 21.71 4.66504L19.37 2.32504C19.183 2.13704 18.93 2.03304 18.665 2.03304C18.4 2.03304 18.147 2.13704 17.96 2.32504L16.13 4.15504L19.88 7.90504L21.71 6.07504ZM18.8104 8.97464L15.7954 11.9896L12.0454 8.23964L15.0604 5.22464L18.8104 8.97464Z"/>
</svg>
