<svg width="24" height="24" viewBox="0 0 24 24" fill="none" xmlns="http://www.w3.org/2000/svg">
<path fill-rule="evenodd" clip-rule="evenodd" d="M21.5433 9.3654C21.6024 9.64876 21.5841 9.94273 21.4956 10.2086C21.7498 10.4898 21.9264 10.8734 21.9683 11.3245C22.0101 11.7734 22.0109 12.1554 21.9688 12.6047C21.8824 13.5279 21.1417 13.7102 21.0327 14.4628C20.875 15.5519 20.8873 16.8001 20.5105 17.8143C20.3454 18.2587 20.0846 18.6805 19.6846 19.0145C19.2812 19.3513 18.7736 19.5755 18.2812 19.643C14.372 20.1792 9.36891 20.0276 6.15219 19.7334C5.4976 19.6735 4.92366 19.4158 4.46114 18.9591C4.01224 18.5157 3.74578 17.9615 3.57936 17.4494C3.32914 16.6792 3.24139 15.7456 3.1815 15.1084C3.10424 14.2864 2.18851 13.6105 2.05833 12.7149C1.98269 12.1945 1.97868 11.7402 2.05764 11.2045C2.11695 10.8022 2.28137 10.4664 2.50647 10.2148C2.4162 9.94729 2.39711 9.65096 2.45665 9.3654C2.90234 7.22752 4.47608 5.88737 6.1646 5.11027C7.8871 4.31753 9.99764 3.97289 12.0488 4.00166C14.1012 4.03045 16.1976 4.43455 17.8968 5.2376C19.5417 6.01492 21.117 7.32035 21.5433 9.3654ZM20.358 9.69835C19.2134 4.20783 4.87739 3.77229 3.64194 9.69835H20.358ZM6.24797 18.3222C9.42609 18.6129 14.3406 18.758 18.1381 18.2372C19.7938 17.8817 19.8301 14.2282 19.8301 14.2282H4.16994C4.16994 14.2282 4.18351 18.1334 6.24797 18.3222ZM9.85453 17.1273C10.0304 17.327 10.2711 17.4501 10.5366 17.4501H13.4634C13.7245 17.4501 13.9616 17.331 14.1367 17.1372C14.3229 16.9309 14.439 16.64 14.439 16.3176C14.439 16.0652 14.3679 15.8321 14.2476 15.6438C14.0698 15.3655 13.7848 15.1851 13.4634 15.1851H10.5366C10.2152 15.1851 9.93011 15.3655 9.75236 15.6438C9.63209 15.8321 9.56095 16.0652 9.56095 16.3176C9.56095 16.6349 9.67339 16.9217 9.85453 17.1273ZM3.60792 11.1139C3.43819 11.1139 3.28831 11.2491 3.25968 11.4433C3.20494 11.8147 3.20694 12.1085 3.26085 12.4794C3.28932 12.6753 3.43983 12.8126 3.61095 12.8126H20.4011C20.5816 12.8126 20.7369 12.66 20.7564 12.4517C20.7888 12.1062 20.7884 11.8264 20.7559 11.4764C20.7364 11.2675 20.5808 11.1139 20.3998 11.1139H3.60792Z" fill="#252A2E"/>
</svg>
