<svg width="24" height="24" viewBox="0 0 24 24" fill="none" xmlns="http://www.w3.org/2000/svg">
<path d="M13.2453 13.0043C13.1698 13.6302 12.6792 14 12 14C11.283 14 10.8302 13.6302 10.7547 13.0043L10 5.83499V5.63585C10 4.72546 10.8491 4 12 4C13.1509 4 14 4.73969 14 5.63585C14 5.69275 13.9811 5.83499 13.9811 5.83499L13.2453 13.0043Z" fill="#252A2E"/>
<path d="M14 18C14 19.1046 13.1046 20 12 20C10.8954 20 10 19.1046 10 18C10 16.8954 10.8954 16 12 16C13.1046 16 14 16.8954 14 18Z" fill="#252A2E"/>
<path d="M14.7345 13.1839L14.7361 13.1707L14.8641 11.9234H21.5665C21.7726 11.9234 21.9498 12.11 21.9719 12.3638C22.009 12.7891 22.0095 13.129 21.9726 13.5489C21.9504 13.8019 21.7734 13.9873 21.5679 13.9873H14.5091C14.6247 13.7364 14.7005 13.4657 14.7345 13.1839Z" fill="#252A2E"/>
<path d="M9.26415 13.1726L9.13265 11.9234H2.44235C2.24905 11.9234 2.07835 12.0877 2.04575 12.3236C1.9834 12.7748 1.98568 13.1319 2.04708 13.5825C2.0795 13.8204 2.25092 13.9873 2.4458 13.9873H9.48704C9.37151 13.7316 9.29877 13.4598 9.2655 13.1839L9.26415 13.1726Z" fill="#252A2E"/>
<path d="M21.5189 10.2035H15.0406L15.4714 6.00658L15.4726 5.997C15.475 5.9781 15.4782 5.9515 15.4815 5.92158L15.482 5.91735C15.4859 5.88177 15.5 5.75551 15.5 5.63586C15.5 5.5624 15.4975 5.49006 15.4926 5.41885C18.5382 6.13408 21.0404 7.75514 21.5189 10.2035Z" fill="#252A2E"/>
<path d="M8.5 5.63586C8.5 5.53317 8.50478 5.43274 8.51409 5.33459C5.48781 5.98241 2.99383 7.57978 2.4811 10.2035H8.95159L8.5 5.91374V5.63586Z" fill="#252A2E"/>
<path d="M3.08243 15.7072H9.35546C8.82254 16.3214 8.5 17.123 8.5 18C8.5 19.2525 9.15785 20.3513 10.1469 20.9697C8.41861 20.9199 6.79677 20.8129 5.44908 20.6814C3.73058 20.5138 3.45438 18.4322 3.21723 16.6449C3.17385 16.318 3.13178 16.001 3.08243 15.7072Z" fill="#252A2E"/>
<path d="M18.9906 20.5781C17.3917 20.8121 15.6188 20.9354 13.8364 20.9801C14.8347 20.3637 15.5 19.2595 15.5 18C15.5 17.123 15.1775 16.3214 14.6445 15.7072H20.9176C20.8581 16.0311 20.812 16.4015 20.7636 16.7905C20.5664 18.3765 20.3308 20.2711 18.9906 20.5781Z" fill="#252A2E"/>
</svg>
