<svg width="24" height="24" viewBox="0 0 24 24" fill="none" xmlns="http://www.w3.org/2000/svg">
<path d="M13.2453 13.0043C13.1698 13.6302 12.6792 14 12 14C11.283 14 10.8302 13.6302 10.7547 13.0043L10 5.83499V5.63585C10 4.72546 10.8491 4 12 4C13.1509 4 14 4.73969 14 5.63585C14 5.69275 13.9811 5.83499 13.9811 5.83499L13.2453 13.0043Z" fill="#252A2E"/>
<path d="M14 18C14 19.1046 13.1046 20 12 20C10.8954 20 10 19.1046 10 18C10 16.8954 10.8954 16 12 16C13.1046 16 14 16.8954 14 18Z" fill="#252A2E"/>
<path d="M14.7345 13.1838L14.7361 13.1707L14.7728 12.8126H20.4011C20.5816 12.8126 20.7369 12.66 20.7564 12.4517C20.7888 12.1062 20.7884 11.8264 20.7559 11.4764C20.7364 11.2675 20.5808 11.1139 20.3998 11.1139H14.9472L15.0925 9.69835H20.358C19.9602 7.79006 17.9689 6.49241 15.4879 5.86025C15.4934 5.80335 15.5 5.71805 15.5 5.63585C15.5 5.15908 15.3951 4.72929 15.2119 4.3517C16.1662 4.55605 17.0777 4.85047 17.8968 5.2376C19.5417 6.01493 21.117 7.32035 21.5433 9.36541C21.6024 9.64876 21.5841 9.94273 21.4956 10.2086C21.7498 10.4898 21.9264 10.8734 21.9683 11.3245C22.0101 11.7734 22.0109 12.1554 21.9688 12.6047C21.9226 13.0982 21.6895 13.3799 21.4658 13.6503C21.271 13.8857 21.0834 14.1125 21.0327 14.4628C20.9838 14.8006 20.9512 15.1537 20.9184 15.5104C20.8452 16.3037 20.7705 17.1147 20.5105 17.8143C20.3454 18.2587 20.0846 18.6805 19.6846 19.0145C19.2812 19.3513 18.7736 19.5755 18.2812 19.643C17.2204 19.7885 16.079 19.8834 14.9146 19.9385C15.1983 19.5127 15.3912 19.0213 15.4657 18.4919C16.3909 18.4362 17.2922 18.3532 18.1381 18.2372C19.7938 17.8817 19.8301 14.2282 19.8301 14.2282H14.3821C14.5704 13.9131 14.6893 13.5584 14.7345 13.1838Z" fill="#252A2E"/>
<path d="M9.26415 13.1726L9.22625 12.8126H3.61095C3.43983 12.8126 3.28932 12.6753 3.26085 12.4794C3.20694 12.1085 3.20494 11.8147 3.25968 11.4433C3.28831 11.2491 3.43819 11.1139 3.60792 11.1139H9.04743L8.89841 9.69835H3.64195C4.06708 7.65909 6.04357 6.37314 8.5 5.78729V5.63585C8.5 5.12629 8.61778 4.67208 8.82163 4.27829C7.88071 4.46065 6.97926 4.73535 6.1646 5.11027C4.47608 5.88737 2.90234 7.22753 2.45665 9.3654C2.39711 9.65096 2.4162 9.94729 2.50647 10.2148C2.28137 10.4665 2.11695 10.8023 2.05764 11.2045C1.97868 11.7402 1.98269 12.1945 2.05833 12.7149C2.12328 13.1618 2.38377 13.5539 2.6381 13.9368C2.89354 14.3213 3.14279 14.6965 3.1815 15.1084C3.24139 15.7456 3.32914 16.6793 3.57936 17.4494C3.74578 17.9615 4.01224 18.5157 4.46114 18.9591C4.92366 19.4159 5.4976 19.6736 6.15219 19.7334C7.01734 19.8125 8.0117 19.8813 9.07925 19.9292C8.79777 19.5039 8.60669 19.0136 8.53341 18.4856C7.70926 18.4415 6.93772 18.3853 6.24797 18.3222C4.18351 18.1334 4.16994 14.2282 4.16994 14.2282H9.61159C9.42226 13.9056 9.30945 13.5483 9.2655 13.1838L9.26415 13.1726Z" fill="#252A2E"/>
</svg>
