<svg width="24" height="24" viewBox="0 0 24 24" fill="none" xmlns="http://www.w3.org/2000/svg">
<path fill-rule="evenodd" clip-rule="evenodd" d="M2.4811 9.20352H21.5189C20.2153 2.5326 3.88814 2.00343 2.4811 9.20352ZM13.0916 14.7072H3.08243C3.13178 15.0009 3.17385 15.318 3.21723 15.6449C3.45438 17.4322 3.73058 19.5137 5.44908 19.6814C7.69771 19.9008 10.7096 20.052 13.7055 19.9833C13.7074 19.9814 13.7093 19.9795 13.7112 19.9776L15.1791 18.5094L14.6209 17.951C14.4269 18.3528 14.0721 18.6218 13.6666 18.6218H10.3333C9.71966 18.6218 9.22219 18.0057 9.22219 17.2458C9.22219 16.4859 9.71966 15.8699 10.3333 15.8699H13.0567C13.0191 15.7019 13 15.5298 13 15.3568C13 15.1366 13.0309 14.918 13.0916 14.7072ZM18.0367 14.7072L18.5087 15.1793L18.9806 14.7072H18.0367ZM2.44235 10.9234C2.24905 10.9234 2.07835 11.0877 2.04575 11.3236C1.9834 11.7748 1.98568 12.1319 2.04708 12.5825C2.0795 12.8204 2.25092 12.9873 2.4458 12.9873H21.5679C21.7734 12.9873 21.9504 12.8019 21.9726 12.5489C22.0095 12.129 22.009 11.7891 21.9719 11.3638C21.9498 11.11 21.7726 10.9234 21.5665 10.9234H2.44235Z" fill="#252A2E"/>
<path d="M19.717 18.5094L22.2478 15.9782C22.5841 15.6418 22.5841 15.1002 22.2478 14.7696C22.1688 14.6896 22.0747 14.6261 21.971 14.5828C21.8673 14.5394 21.756 14.5171 21.6436 14.5171C21.5312 14.5171 21.4199 14.5394 21.3162 14.5828C21.2125 14.6261 21.1184 14.6896 21.0394 14.7696L18.5087 17.3008L15.9608 14.7525C15.8818 14.6725 15.7877 14.609 15.684 14.5657C15.5803 14.5223 15.469 14.5 15.3566 14.5C15.2442 14.5 15.1329 14.5223 15.0292 14.5657C14.9255 14.609 14.8314 14.6725 14.7524 14.7525C14.6725 14.8315 14.609 14.9256 14.5656 15.0293C14.5223 15.133 14.5 15.2443 14.5 15.3568C14.5 15.4692 14.5223 15.5805 14.5656 15.6842C14.609 15.788 14.6725 15.8821 14.7524 15.9611L17.3003 18.5094L14.7695 21.0406C14.6896 21.1196 14.6261 21.2137 14.5827 21.3174C14.5394 21.4211 14.5171 21.5324 14.5171 21.6449C14.5171 21.7573 14.5394 21.8686 14.5827 21.9723C14.6261 22.0761 14.6896 22.1702 14.7695 22.2492C14.9348 22.4145 15.1571 22.5 15.3737 22.5C15.5903 22.5 15.8126 22.4145 15.9779 22.2492L18.5087 19.718L21.0223 22.2321C21.1876 22.3974 21.4099 22.4829 21.6265 22.4829C21.8431 22.4829 22.0654 22.3974 22.2307 22.2321C22.567 21.8957 22.567 21.3541 22.2307 21.0235L19.717 18.5094Z" fill="#252A2E"/>
</svg>
