<svg width="24" height="24" viewBox="0 0 24 24" fill="none" xmlns="http://www.w3.org/2000/svg">
<path d="M2.4811 9.8783H21.5189C20.2153 3.62431 3.88814 3.12822 2.4811 9.8783Z" fill="#252A2E"/>
<path fill-rule="evenodd" clip-rule="evenodd" d="M20.9176 15.038H3.08243C3.4016 16.8188 3.41624 19.5154 5.44908 19.7013C9.06861 20.0324 14.6656 20.1978 18.9906 19.6045C20.6595 19.2461 20.6155 16.5798 20.9176 15.038ZM9.22219 17.418C9.22219 16.7055 9.71966 16.128 10.3333 16.128H13.6666C14.2803 16.128 14.7777 16.7055 14.7777 17.418C14.7777 18.1304 14.2803 18.7079 13.6666 18.7079H10.3333C9.71965 18.7079 9.22219 18.1304 9.22219 17.418Z" fill="#252A2E"/>
<path d="M2.04575 11.8659C2.07835 11.6447 2.24905 11.4907 2.44235 11.4907H21.5665C21.7726 11.4907 21.9498 11.6656 21.9719 11.9035C22.009 12.3023 22.0095 12.6209 21.9726 13.0146C21.9504 13.2518 21.7734 13.4256 21.5679 13.4256H2.4458C2.25092 13.4256 2.0795 13.2692 2.04708 13.0461C1.98568 12.6236 1.9834 12.2889 2.04575 11.8659Z" fill="#252A2E"/>
</svg>
