<svg width="24" height="24" viewBox="0 0 24 24" fill="none" xmlns="http://www.w3.org/2000/svg">
<path fill-rule="evenodd" clip-rule="evenodd" d="M4.92891 3.51469C4.53838 3.12417 3.90522 3.12417 3.51469 3.51469C3.12417 3.90522 3.12417 4.53838 3.5147 4.92891L4.61809 6.03231C3.58761 6.8225 2.76031 7.90878 2.45665 9.36537C2.39711 9.65093 2.4162 9.94726 2.50647 10.2147C2.28137 10.4664 2.11695 10.8022 2.05764 11.2045C1.97868 11.7401 1.98269 12.1945 2.05833 12.7149C2.12328 13.1617 2.38377 13.5539 2.6381 13.9367C2.89354 14.3213 3.14279 14.6965 3.1815 15.1084C3.24139 15.7456 3.32914 16.6792 3.57936 17.4493C3.74578 17.9615 4.01224 18.5157 4.46114 18.959C4.92366 19.4158 5.4976 19.6735 6.15219 19.7334C9.35627 20.0264 14.3327 20.1779 18.235 19.6493L19.071 20.4853C19.4616 20.8758 20.0947 20.8758 20.4853 20.4853C20.8758 20.0947 20.8758 19.4616 20.4853 19.071L4.92891 3.51469ZM16.9605 18.3747L14.2754 15.6896C14.3788 15.8693 14.439 16.0853 14.439 16.3176C14.439 16.64 14.3229 16.9309 14.1367 17.1371C13.9616 17.331 13.7245 17.45 13.4634 17.45H10.5366C10.2711 17.45 10.0304 17.327 9.85453 17.1273C9.67339 16.9217 9.56095 16.6349 9.56095 16.3176C9.56095 16.0652 9.63209 15.832 9.75236 15.6438C9.93011 15.3655 10.2152 15.1851 10.5366 15.1851H13.4634C13.6116 15.1851 13.7521 15.2235 13.8779 15.2921L12.814 14.2282H4.16994C4.16994 14.2282 4.18351 18.1334 6.24797 18.3222C9.10625 18.5836 13.369 18.7273 16.9605 18.3747ZM11.3984 12.8126L9.69968 11.1139H3.60792C3.43819 11.1139 3.28831 11.2491 3.25968 11.4433C3.20494 11.8146 3.20694 12.1085 3.26085 12.4794C3.28932 12.6752 3.43983 12.8126 3.61095 12.8126H11.3984ZM8.2841 9.69832L5.58559 6.9998C4.58481 7.67549 3.87676 8.572 3.64194 9.69832H8.2841Z" fill="#252A2E"/>
<path d="M12.0488 4.00163C10.8815 3.98526 9.69499 4.08982 8.57171 4.32907L9.79125 5.54861C14.2847 4.94286 19.6744 6.41891 20.358 9.69832H13.941L15.3565 11.1139H20.3998C20.5808 11.1139 20.7364 11.2674 20.7559 11.4763C20.7884 11.8264 20.7888 12.1062 20.7564 12.4517C20.7369 12.66 20.5816 12.8126 20.4011 12.8126H17.0552L18.4708 14.2282H19.8301C19.8301 14.2282 19.8246 14.7811 19.7204 15.4777L20.8045 16.5619C20.8534 16.2154 20.886 15.8611 20.9184 15.5104C20.9512 15.1537 20.9838 14.8006 21.0327 14.4628C21.0834 14.1124 21.271 13.8857 21.4658 13.6502C21.6895 13.3799 21.9226 13.0981 21.9688 12.6047C22.0109 12.1554 22.0101 11.7733 21.9683 11.3244C21.9264 10.8734 21.7498 10.4897 21.4956 10.2085C21.5841 9.9427 21.6024 9.64873 21.5433 9.36537C21.117 7.32032 19.5417 6.01489 17.8968 5.23757C16.1976 4.43453 14.1012 4.03042 12.0488 4.00163Z" fill="#252A2E"/>
</svg>
