<svg width="24" height="24" viewBox="0 0 24 24" fill="none" xmlns="http://www.w3.org/2000/svg">
<path fill-rule="evenodd" clip-rule="evenodd" d="M21.4956 10.2086C21.5841 9.94273 21.6024 9.64876 21.5433 9.3654C21.117 7.32035 19.5417 6.01492 17.8968 5.2376C16.1976 4.43455 14.1012 4.03045 12.0488 4.00166C9.99764 3.97289 7.8871 4.31753 6.1646 5.11027C4.47608 5.88737 2.90234 7.22752 2.45665 9.3654C2.39711 9.65096 2.4162 9.94729 2.50647 10.2148C2.28137 10.4664 2.11695 10.8022 2.05764 11.2045C1.97868 11.7402 1.98269 12.1945 2.05833 12.7149C2.12328 13.1618 2.38376 13.5539 2.6381 13.9368C2.89354 14.3213 3.14279 14.6965 3.1815 15.1084C3.24139 15.7456 3.32914 16.6792 3.57936 17.4494C3.74578 17.9615 4.01224 18.5157 4.46114 18.9591C4.92366 19.4158 5.4976 19.6735 6.15219 19.7334C8.19571 19.9203 10.9602 20.0496 13.7071 19.9816C13.7085 19.9803 13.7098 19.9789 13.7112 19.9776L15.1791 18.5094L15.178 18.5083C12.0297 18.6779 8.64499 18.5414 6.24797 18.3222C4.18351 18.1334 4.16994 14.2282 4.16994 14.2282H13.2888C13.3965 14.0314 13.5321 13.8508 13.6917 13.6919C13.9088 13.4737 14.1668 13.3003 14.4509 13.1816C14.7378 13.0617 15.0457 13 15.3566 13C15.6676 13 15.9754 13.0617 16.2624 13.1816C16.5475 13.3008 16.8063 13.475 17.024 13.6944L17.5578 14.2282H19.4595L19.9762 13.7115C20.1939 13.4921 20.4527 13.3179 20.7379 13.1987C21.0248 13.0788 21.3326 13.0171 21.6436 13.0171C21.7194 13.0171 21.7951 13.0208 21.8703 13.0281C21.9186 12.9049 21.9537 12.7661 21.9688 12.6047C22.0109 12.1554 22.0101 11.7734 21.9683 11.3245C21.9264 10.8734 21.7498 10.4898 21.4956 10.2086ZM13.0063 15.1851H10.5366C10.2152 15.1851 9.93011 15.3655 9.75236 15.6438C9.63209 15.8321 9.56095 16.0652 9.56095 16.3176C9.56095 16.6349 9.67339 16.9217 9.85453 17.1273C10.0304 17.327 10.2711 17.4501 10.5366 17.4501H13.4634C13.6454 17.4501 13.8157 17.3922 13.9615 17.2915L13.6941 17.0241C13.4748 16.8063 13.3007 16.5475 13.1815 16.2624C13.0617 15.9755 13 15.6677 13 15.3568C13 15.2994 13.0021 15.2422 13.0063 15.1851ZM20.358 9.69835C19.2134 4.20783 4.87739 3.77229 3.64195 9.69835H20.358ZM3.25968 11.4433C3.28831 11.2491 3.43819 11.1139 3.60792 11.1139H20.3998C20.5808 11.1139 20.7364 11.2675 20.7559 11.4764C20.7884 11.8264 20.7888 12.1062 20.7564 12.4517C20.7369 12.66 20.5816 12.8126 20.4011 12.8126H3.61095C3.43983 12.8126 3.28932 12.6753 3.26085 12.4794C3.20694 12.1085 3.20494 11.8147 3.25968 11.4433Z" fill="#252A2E"/>
<path d="M19.717 18.5094L22.2478 15.9782C22.5841 15.6418 22.5841 15.1002 22.2478 14.7696C22.1688 14.6896 22.0747 14.6261 21.971 14.5828C21.8673 14.5394 21.756 14.5171 21.6436 14.5171C21.5312 14.5171 21.4199 14.5394 21.3162 14.5828C21.2125 14.6261 21.1184 14.6896 21.0394 14.7696L18.5087 17.3008L15.9608 14.7525C15.8818 14.6725 15.7877 14.609 15.684 14.5657C15.5803 14.5223 15.469 14.5 15.3566 14.5C15.2442 14.5 15.1329 14.5223 15.0292 14.5657C14.9255 14.609 14.8314 14.6725 14.7524 14.7525C14.6725 14.8315 14.609 14.9256 14.5656 15.0293C14.5223 15.133 14.5 15.2443 14.5 15.3568C14.5 15.4692 14.5223 15.5805 14.5656 15.6842C14.609 15.788 14.6725 15.8821 14.7524 15.9611L17.3003 18.5094L14.7695 21.0406C14.6896 21.1196 14.6261 21.2137 14.5827 21.3174C14.5394 21.4211 14.5171 21.5324 14.5171 21.6449C14.5171 21.7573 14.5394 21.8686 14.5827 21.9723C14.6261 22.0761 14.6896 22.1702 14.7695 22.2492C14.9348 22.4145 15.1571 22.5 15.3737 22.5C15.5903 22.5 15.8126 22.4145 15.9779 22.2492L18.5087 19.718L21.0223 22.2321C21.1876 22.3974 21.4099 22.4829 21.6265 22.4829C21.8431 22.4829 22.0654 22.3974 22.2307 22.2321C22.567 21.8957 22.567 21.3541 22.2307 21.0235L19.717 18.5094Z" fill="#252A2E"/>
</svg>
