<svg width="24" height="24" viewBox="0 0 24 24" fill="none" xmlns="http://www.w3.org/2000/svg">
<path fill-rule="evenodd" clip-rule="evenodd" d="M4.92891 3.51469C4.53838 3.12417 3.90522 3.12417 3.51469 3.51469C3.12417 3.90522 3.12417 4.53838 3.5147 4.92891L4.58856 6.00277C3.50492 6.8143 2.74015 7.8779 2.4811 9.20349H7.78927L9.50919 10.9234H2.44235C2.24905 10.9234 2.07835 11.0876 2.04575 11.3236C1.9834 11.7748 1.98568 12.1318 2.04708 12.5824C2.0795 12.8204 2.25092 12.9873 2.4458 12.9873H11.5731L13.293 14.7072H3.08243C3.13178 15.0009 3.17385 15.318 3.21723 15.6449C3.45438 17.4322 3.73058 19.5137 5.44908 19.6814C8.86835 20.015 14.0524 20.1908 18.2616 19.6758L19.071 20.4853C19.4616 20.8758 20.0947 20.8758 20.4853 20.4853C20.8758 20.0947 20.8758 19.4616 20.4853 19.071L4.92891 3.51469ZM10.3333 15.8699C9.71966 15.8699 9.22219 16.4859 9.22219 17.2458C9.22219 18.0057 9.71966 18.6217 10.3333 18.6217H13.6666C14.2803 18.6217 14.7777 18.0057 14.7777 17.2458C14.7777 16.4859 14.2803 15.8699 13.6666 15.8699H10.3333Z" fill="#252A2E"/>
<path d="M21.5679 12.9873H17.2299L15.166 10.9234H21.5665C21.7726 10.9234 21.9498 11.1099 21.9719 11.3638C22.009 11.7891 22.0095 12.129 21.9726 12.5488C21.9504 12.8019 21.7734 12.9873 21.5679 12.9873Z" fill="#252A2E"/>
<path d="M20.9176 14.7072H18.9498L20.6801 16.4375C20.7103 16.2193 20.7373 16.0021 20.7636 15.7905C20.812 15.4015 20.8581 15.0311 20.9176 14.7072Z" fill="#252A2E"/>
<path d="M21.5189 9.20349H13.4461L8.56615 4.32352C13.8378 3.21621 20.693 4.97741 21.5189 9.20349Z" fill="#252A2E"/>
</svg>
