<svg width="24" height="24" viewBox="0 0 24 24" fill="none" xmlns="http://www.w3.org/2000/svg">
<path d="M8.45763 2C8.34062 2 8.24576 2.09485 8.24576 2.21186V6.72458H8.07627C8.03063 5.77989 7.95701 4.93149 7.8554 4.17938C7.76757 3.52926 7.61602 3.07771 7.40076 2.82473C7.34441 2.7585 7.26182 2.72034 7.17486 2.72034H6.57671C6.49997 2.72034 6.42621 2.75008 6.37094 2.80332L6.09084 3.07311C6.0328 3.12902 6 3.20614 6 3.28674V19.0231C6 19.0726 6.58285 20.6551 6.85685 21.3991L6.85734 21.4004C6.89325 21.498 6.92384 21.581 6.94708 21.6442C6.97671 21.7248 7.05171 21.7813 7.13741 21.7871L9.2839 21.9311L11.572 22L13.7966 21.9311L15.8848 21.787C15.9678 21.7812 16.0398 21.7274 16.0688 21.6494L16.948 19.2828C16.9656 19.2356 16.9746 19.1856 16.9746 19.1353V8.46245C16.9746 8.42063 16.9622 8.37973 16.939 8.34493L16.8897 8.27103C16.5238 7.72218 16.0948 7.21817 15.6114 6.76932L15.5067 6.67208C15.4696 6.6376 15.4213 6.61757 15.3707 6.61563L14.3796 6.57751C14.3583 6.57669 14.337 6.57909 14.3164 6.58464L13.828 6.71613C13.8095 6.72112 13.7966 6.73789 13.7966 6.75705V15.5381L13.5914 16.8629C13.5754 16.9662 13.4865 17.0424 13.382 17.0424H9.74089C9.63641 17.0424 9.54752 16.9662 9.53152 16.8629L9.32627 15.5381V7.52966L8.83898 7.16949V6.76695C8.83898 6.74355 8.82001 6.72458 8.79661 6.72458H8.66949V2.21186C8.66949 2.09485 8.57464 2 8.45763 2Z" fill="#363545"/>
<path fill-rule="evenodd" clip-rule="evenodd" d="M9.89831 8.15922C9.89831 7.82323 10.1707 7.55085 10.5067 7.55085H12.636C12.972 7.55085 13.2444 7.82323 13.2444 8.15922V16.0681C13.2444 16.4041 12.972 16.6764 12.636 16.6764H10.5067C10.1707 16.6764 9.89831 16.4041 9.89831 16.0681V8.15922ZM10.2025 9.68016C10.2025 9.34416 10.4749 9.07178 10.8109 9.07178H12.3318C12.6678 9.07178 12.9402 9.34416 12.9402 9.68016V12.4178C12.9402 12.7538 12.6678 13.0262 12.3318 13.0262H10.8109C10.4749 13.0262 10.2025 12.7538 10.2025 12.4178V9.68016ZM11.5713 15.4597C11.9073 15.4597 12.1797 15.2554 12.1797 15.0034C12.1797 14.7514 11.9073 14.5471 11.5713 14.5471C11.2354 14.5471 10.963 14.7514 10.963 15.0034C10.963 15.2554 11.2354 15.4597 11.5713 15.4597Z" fill="#363545"/>
</svg>
