<svg width="24" height="24" viewBox="0 0 24 24" fill="none" xmlns="http://www.w3.org/2000/svg">
<path fill-rule="evenodd" clip-rule="evenodd" d="M14.465 4.99966C18.504 5.9922 21.5 9.6376 21.5 13.9828C21.5 19.0914 17.3586 23.2328 12.25 23.2328C7.14137 23.2328 3 19.0914 3 13.9828C3 11.4087 4.05974 8.99853 5.89219 7.26405L8.9856 10.5322C8.04199 11.4254 7.5 12.658 7.5 13.9828C7.5 16.6061 9.62665 18.7328 12.25 18.7328C14.8734 18.7328 17 16.6061 17 13.9828C17 12.1593 15.9725 10.5759 14.465 9.77975V14.9887L6.88736 7.57764L14.465 0V4.99966ZM7.325 10.5478L5.915 9.12777C5.015 10.2878 4.455 11.6278 4.285 13.0178H6.305C6.445 12.1478 6.795 11.2978 7.325 10.5478ZM4.285 15.0178H6.305C6.445 15.8978 6.795 16.7378 7.315 17.4878L5.905 18.9078C5.005 17.7478 4.455 16.4078 4.285 15.0178ZM7.315 20.3378C8.475 21.2378 9.825 21.7778 11.215 21.9478V19.9178C10.345 19.7678 9.505 19.4278 8.755 18.8878L7.315 20.3378ZM13.215 3.01777V6.08777C17.165 6.57777 20.215 9.93777 20.215 14.0178C20.215 18.0978 17.165 21.4578 13.215 21.9478V19.9278C16.055 19.4478 18.215 16.9878 18.215 14.0178C18.215 11.0478 16.055 8.58777 13.215 8.10777V12.0178L8.665 7.56777L13.215 3.01777Z" fill="#363545"/>
</svg>
