<svg width="24" height="24" viewBox="0 0 24 24" fill="currentColor" xmlns="http://www.w3.org/2000/svg">
  <path fill-rule="evenodd" clip-rule="evenodd" d="M10.035 4.99966V0L17.6126 7.57764L10.035 14.9887V9.77975C8.52745 10.5759 7.5 12.1593 7.5 13.9828C7.5 16.6061 9.62665 18.7328 12.25 18.7328C14.8734 18.7328 17 16.6061 17 13.9828C17 12.658 16.458 11.4254 15.5144 10.5322L18.6078 7.26405C20.4403 8.99853 21.5 11.4087 21.5 13.9828C21.5 19.0914 17.3586 23.2328 12.25 23.2328C7.14137 23.2328 3 19.0914 3 13.9828C3 9.6376 5.99603 5.9922 10.035 4.99966ZM17.175 10.5478C17.705 11.2978 18.055 12.1478 18.195 13.0178H20.215C20.045 11.6278 19.485 10.2878 18.585 9.12777L17.175 10.5478ZM17.185 17.4878C17.705 16.7378 18.055 15.8978 18.195 15.0178H20.215C20.045 16.4078 19.495 17.7478 18.595 18.9078L17.185 17.4878ZM17.185 20.3378L15.745 18.8878C14.995 19.4278 14.155 19.7678 13.285 19.9178V21.9478C14.675 21.7778 16.025 21.2378 17.185 20.3378ZM4.285 14.0178C4.285 9.93777 7.335 6.57777 11.285 6.08777V3.01777L15.835 7.56777L11.285 12.0178V8.10777C8.445 8.58777 6.285 11.0478 6.285 14.0178C6.285 16.9878 8.445 19.4478 11.285 19.9278V21.9478C7.335 21.4578 4.285 18.0978 4.285 14.0178Z"/>
</svg>
