<svg width="24" height="24" viewBox="0 0 24 24" fill="currentColor" xmlns="http://www.w3.org/2000/svg">
  <path fill-rule="evenodd" clip-rule="evenodd"
    d="M12.965 2.535V5.605C16.915 6.095 19.965 9.455 19.965 13.535C19.965 17.615 16.915 20.975 12.965 21.465V19.445C15.805 18.965 17.965 16.505 17.965 13.535C17.965 10.565 15.805 8.105 12.965 7.625V11.535L8.415 7.085L12.965 2.535ZM5.665 8.645L7.075 10.065C6.545 10.815 6.195 11.665 6.055 12.535H4.035C4.205 11.145 4.765 9.805 5.665 8.645ZM4.035 14.535H6.055C6.195 15.415 6.545 16.255 7.065 17.005L5.655 18.425C4.755 17.265 4.205 15.925 4.035 14.535ZM7.065 19.855C8.225 20.755 9.575 21.295 10.965 21.465V19.435C10.095 19.285 9.255 18.945 8.505 18.405L7.065 19.855Z" />
</svg>
