<svg width="24" height="24" viewBox="0 0 24 24" fill="none" xmlns="http://www.w3.org/2000/svg">
<path fill-rule="evenodd" clip-rule="evenodd" d="M6.74466 5.96564L6.43022 6.66446V15.9514L7.12553 15.6656H7.12675L6.43022 15.9514L6.43023 18.1116L6.52661 19.3232C6.54334 19.5336 6.71895 19.6958 6.92999 19.6958H8.30237V20.5781C8.30237 20.7271 8.42315 20.8479 8.57214 20.8479L9.02254 20.8479V21.7302C9.02254 21.8792 9.14332 22 9.29231 22H14.9455C15.0944 22 15.2152 21.8792 15.2152 21.7302V20.8479L15.6654 20.8479C15.8144 20.8479 15.9352 20.7271 15.9352 20.5781V19.6958H17.1637C17.3747 19.6958 17.5503 19.5336 17.5671 19.3232L17.6635 18.1116L17.6634 6.66446L17.3489 5.96564L18.1132 4.54815C18.1412 4.49624 18.1854 4.45492 18.2391 4.43054L19.8443 3.70171C19.9086 3.67251 19.9589 3.61926 19.9844 3.55339L20.0754 3.31799C20.0988 3.2576 20.0997 3.19082 20.0779 3.12985L19.7746 2.28179C19.7506 2.21465 19.701 2.15975 19.6366 2.12908L19.4208 2.02623C19.3608 1.99764 19.2923 1.99221 19.2286 2.01098L17.2277 2.59998C17.1788 2.61436 17.135 2.64228 17.1014 2.68051L16.1398 3.77275C16.0849 3.83504 15.9874 3.8335 15.9346 3.76953L15.6413 3.41453C15.5923 3.35521 15.5194 3.32087 15.4424 3.32087H15.429C15.3791 3.32087 15.3306 3.30385 15.2916 3.27262C15.2526 3.24139 15.2042 3.22437 15.1542 3.22437H15.0379C15.0004 3.22437 14.9645 3.24001 14.939 3.26753L14.446 3.79917C14.4001 3.84862 14.3744 3.91347 14.374 3.98092L14.3152 13.3256L13.9414 14.4443H10.1522L9.77836 13.3256L9.71962 3.98092C9.7192 3.91347 9.69352 3.84862 9.64765 3.79917L9.15459 3.26753C9.12906 3.24001 9.09323 3.22437 9.05569 3.22437H8.93939C8.88943 3.22437 8.84097 3.24139 8.80199 3.27262C8.763 3.30385 8.71454 3.32087 8.66459 3.32087H8.65118C8.57424 3.32087 8.50131 3.35521 8.45231 3.41453L8.15905 3.76953C8.1062 3.8335 8.00866 3.83504 7.95382 3.77275L6.99222 2.68051C6.95857 2.64228 6.91478 2.61436 6.86592 2.59998L4.86504 2.01098C4.80128 1.99221 4.73284 1.99764 4.67283 2.02623L4.45697 2.12908C4.3926 2.15975 4.34299 2.21465 4.31898 2.28179L4.01575 3.12985C3.99395 3.19082 3.99481 3.2576 4.01816 3.31799L4.10921 3.55339C4.13469 3.61926 4.18498 3.67251 4.24928 3.70171L5.8545 4.43054C5.9082 4.45492 5.95243 4.49624 5.98042 4.54815L6.74466 5.96564Z" fill="#363545"/>
<path fill-rule="evenodd" clip-rule="evenodd" d="M10.4476 4.43007L12.0467 4.14204L13.6458 4.43007L14.0629 6.5183V10.6948L13.6458 12.783L12.0467 13.071L10.4476 12.783L10.0305 10.6948V6.5183L10.4476 4.43007ZM12.0468 10.3347C12.9217 10.3347 13.6309 9.62546 13.6309 8.75055C13.6309 7.87564 12.9217 7.16638 12.0468 7.16638C11.1718 7.16638 10.4626 7.87564 10.4626 8.75055C10.4626 9.62546 11.1718 10.3347 12.0468 10.3347Z" fill="#363545"/>
</svg>
