<svg width="24" height="24" viewBox="0 0 24 24" fill="none" xmlns="http://www.w3.org/2000/svg">
<path fill-rule="evenodd" clip-rule="evenodd" d="M3.84003 6.24C3.84003 5.88654 4.12657 5.6 4.48003 5.6H6.40003C6.75349 5.6 7.04003 5.88654 7.04003 6.24V11.36C7.04003 11.7135 6.75349 12 6.40003 12H4.48003C4.12657 12 3.84003 11.7135 3.84003 11.36V6.24ZM6.72003 8.8C6.72003 9.50693 6.14696 10.08 5.44003 10.08C4.73311 10.08 4.16003 9.50693 4.16003 8.8C4.16003 8.09308 4.73311 7.52 5.44003 7.52C6.14696 7.52 6.72003 8.09308 6.72003 8.8Z" fill="#363545"/>
<path fill-rule="evenodd" clip-rule="evenodd" d="M9.26971 0.954333C9.2755 0.867487 9.34763 0.800003 9.43467 0.800003C9.52598 0.800003 9.6 0.874023 9.6 0.96533V5.76C9.6 6.0251 9.3851 6.24 9.12 6.24L9.11433 6.21731L9.28001 9.28494L8.97455 15.394C8.96631 15.5589 8.83397 15.6905 8.66903 15.6978L7.5871 15.7454C7.64453 15.6876 7.68002 15.6079 7.68002 15.5199V13.5999C7.68002 13.4232 7.53675 13.2799 7.36002 13.2799H3.52002C3.34329 13.2799 3.20002 13.4232 3.20002 13.5999V15.5199C3.20002 15.6079 3.23551 15.6876 3.29294 15.7454L2.21098 15.6978C2.04604 15.6905 1.91371 15.5589 1.90546 15.394L1.60001 9.28494L1.90576 3.62369C1.91403 3.47059 2.02973 3.34487 2.18162 3.32394L4.04244 3.06758C4.96977 2.93982 5.91024 2.93982 6.83757 3.06758L8.69839 3.32394C8.85028 3.34487 8.96598 3.47059 8.97425 3.62369L9.02684 4.59743L9.26971 0.954333ZM7.35999 5.76488V12.1649H3.51999V5.76488L3.15357 5.12365C3.03166 4.91032 3.1857 4.64488 3.4314 4.64488H7.44857C7.69427 4.64488 7.84831 4.91031 7.72641 5.12364L7.35999 5.76488Z" fill="#363545"/>
<path d="M13.9101 13.2983L14.1054 12.8641L13.6306 11.9833C13.6132 11.9511 13.5857 11.9254 13.5523 11.9103L12.5549 11.4574C12.5149 11.4392 12.4837 11.4062 12.4679 11.3652L12.4113 11.219C12.3968 11.1814 12.3962 11.1399 12.4098 11.1021L12.5982 10.5751C12.6131 10.5334 12.644 10.4993 12.6839 10.4802L12.8181 10.4163C12.8554 10.3985 12.8979 10.3952 12.9375 10.4068L14.1808 10.7728C14.2111 10.7817 14.2384 10.7991 14.2593 10.8228L14.8568 11.5015C14.8908 11.5402 14.9515 11.5393 14.9843 11.4995L15.1665 11.2789C15.197 11.2421 15.2423 11.2207 15.2901 11.2207H15.2984C15.3295 11.2207 15.3596 11.2102 15.3838 11.1908C15.408 11.1714 15.4381 11.1608 15.4692 11.1608H15.5414C15.5648 11.1608 15.587 11.1705 15.6029 11.1876L15.9093 11.5179C15.9378 11.5487 15.9537 11.589 15.954 11.6309L15.9905 17.4373L16.2228 18.1325H18.5773L18.8095 17.4373L18.846 11.6309C18.8463 11.589 18.8623 11.5487 18.8908 11.5179L19.1971 11.1876C19.213 11.1705 19.2353 11.1608 19.2586 11.1608H19.3308C19.3619 11.1608 19.392 11.1714 19.4162 11.1908C19.4404 11.2102 19.4706 11.2207 19.5016 11.2207H19.5099C19.5577 11.2207 19.603 11.2421 19.6335 11.2789L19.8157 11.4995C19.8486 11.5393 19.9092 11.5402 19.9432 11.5015L20.5407 10.8228C20.5617 10.7991 20.5889 10.7817 20.6192 10.7728L21.8625 10.4068C21.9021 10.3952 21.9446 10.3985 21.9819 10.4163L22.1161 10.4802C22.1561 10.4993 22.1869 10.5334 22.2018 10.5751L22.3902 11.1021C22.4038 11.1399 22.4032 11.1814 22.3887 11.219L22.3321 11.3652C22.3163 11.4062 22.2851 11.4392 22.2451 11.4574L21.2477 11.9103C21.2143 11.9254 21.1868 11.9511 21.1694 11.9833L20.6946 12.8641L20.89 13.2983L20.89 20.4112L20.8301 21.164C20.8197 21.2947 20.7106 21.3955 20.5795 21.3955H19.8161V21.9438C19.8161 22.0364 19.7411 22.1114 19.6485 22.1114L19.3687 22.1114V22.6597C19.3687 22.7522 19.2937 22.8273 19.2011 22.8273H15.6885C15.5959 22.8273 15.5208 22.7522 15.5208 22.6597V22.1114L15.241 22.1114C15.1484 22.1114 15.0733 22.0364 15.0733 21.9438V21.3955H14.2206C14.0895 21.3955 13.9803 21.2947 13.97 21.164L13.9101 20.4112L13.9101 19.0689L14.3429 18.8913H14.3421L13.9101 19.0689V13.2983Z" fill="#363545"/>
<path fill-rule="evenodd" clip-rule="evenodd" d="M17.3999 11.731L16.4063 11.91L16.1471 13.2075V15.8026L16.4063 17.1002L17.3999 17.2791L18.3935 17.1002L18.6527 15.8026V13.2075L18.3935 11.91L17.3999 11.731ZM18.3843 14.5946C18.3843 15.1382 17.9436 15.5789 17.4 15.5789C16.8563 15.5789 16.4156 15.1382 16.4156 14.5946C16.4156 14.0509 16.8563 13.6102 17.4 13.6102C17.9436 13.6102 18.3843 14.0509 18.3843 14.5946Z" fill="#363545"/>
<path fill-rule="evenodd" clip-rule="evenodd" d="M3.83999 13.6C3.66326 13.6 3.51999 13.7433 3.51999 13.92V15.52C3.51999 15.6967 3.66326 15.84 3.83999 15.84H7.03999C7.21672 15.84 7.35999 15.6967 7.35999 15.52V13.92C7.35999 13.7433 7.21672 13.6 7.03999 13.6H3.83999ZM6.08 13.92C5.90327 13.92 5.76 14.0633 5.76 14.24V14.56C5.76 14.7367 5.90327 14.88 6.08 14.88H6.72C6.89673 14.88 7.04 14.7367 7.04 14.56V14.24C7.04 14.0633 6.89673 13.92 6.72 13.92H6.08Z" fill="#363545"/>
<path d="M3.51999 16.12L2.87999 16L3.51999 16.8H7.35999L7.99999 16L7.35999 16.12H3.51999Z" fill="#363545"/>
</svg>
