<svg width="24" height="24" viewBox="0 0 24 24" fill="none" xmlns="http://www.w3.org/2000/svg">
<path d="M16.7871 2.19291C16.7944 2.08435 16.8845 2 16.9933 2C17.1075 2 17.2 2.09252 17.2 2.20666V8.2C17.2 8.53137 16.9314 8.8 16.6 8.8L16.5929 8.77165L16.8 12.6062L16.656 15.4855L14.4 13.2295V8.20619L14.858 7.40465C15.0104 7.13799 14.8178 6.80619 14.5107 6.80619H9.48926C9.18213 6.80619 8.98958 7.13799 9.14196 7.40465L9.59998 8.20619V8.4295L7.537 6.36652L7.5822 5.52964C7.59254 5.33826 7.73716 5.18111 7.92703 5.15495L10.253 4.8345C11.4122 4.6748 12.5878 4.6748 13.747 4.8345L16.073 5.15495C16.2628 5.18111 16.4075 5.33826 16.4178 5.52964L16.4835 6.74675L16.7871 2.19291Z" fill="#363545"/>
<path fill-rule="evenodd" clip-rule="evenodd" d="M16.5088 18.4293L18.5765 20.497C18.7962 20.7167 19.1523 20.7167 19.372 20.497C19.5917 20.2773 19.5917 19.9212 19.372 19.7015L4.52275 4.85226C4.30308 4.63259 3.94692 4.63259 3.72725 4.85226C3.50758 5.07193 3.50758 5.42809 3.72725 5.64776L7.37862 9.29912L7.2 12.6062L7.58182 20.2426C7.59213 20.4487 7.75755 20.6131 7.96372 20.6222L9.31612 20.6818C9.24435 20.6095 9.20001 20.5099 9.20001 20.4V18C9.20001 17.7791 9.3791 17.6 9.60001 17.6H14.4C14.6209 17.6 14.8 17.7791 14.8 18V20.4C14.8 20.5099 14.7557 20.6095 14.6839 20.6818L16.0363 20.6222C16.2425 20.6131 16.4079 20.4487 16.4182 20.2426L16.5088 18.4293ZM14.2857 16.2062L13.8041 15.7246C13.6574 15.8933 13.4412 16 13.2 16H10.8C10.3582 16 10 15.6418 10 15.2V11.9205L9.59998 11.5205V16.2062H14.2857ZM11.6385 13.559C11.0452 13.4219 10.5781 12.9549 10.4411 12.3616L11.6385 13.559Z" fill="#363545"/>
<path d="M13.6 12C13.6 12.1321 13.584 12.2605 13.5538 12.3833L14 12.8295V8.80001C14 8.35818 13.6419 8.00001 13.2 8.00001H10.8C10.3582 8.00001 10 8.35818 10 8.80001V8.82954L11.6167 10.4462C11.7395 10.416 11.8679 10.4 12 10.4C12.8837 10.4 13.6 11.1163 13.6 12Z" fill="#363545"/>
<path fill-rule="evenodd" clip-rule="evenodd" d="M9.59999 18.4C9.59999 18.1791 9.77908 18 9.99999 18H14C14.2209 18 14.4 18.1791 14.4 18.4V20.4C14.4 20.6209 14.2209 20.8 14 20.8H9.99999C9.77908 20.8 9.59999 20.6209 9.59999 20.4V18.4ZM12.4 18.8C12.4 18.5791 12.5791 18.4 12.8 18.4H13.6C13.8209 18.4 14 18.5791 14 18.8V19.2C14 19.4209 13.8209 19.6 13.6 19.6H12.8C12.5791 19.6 12.4 19.4209 12.4 19.2V18.8Z" fill="#363545"/>
<path d="M9.59998 21.15L8.79998 21L9.59998 22H14.4L15.2 21L14.4 21.15H9.59998Z" fill="#363545"/>
</svg>
