<svg width="24" height="24" viewBox="0 0 24 24" fill="none" xmlns="http://www.w3.org/2000/svg">
<path fill-rule="evenodd" clip-rule="evenodd" d="M10.8 8.00001C10.3582 8.00001 10 8.35818 10 8.80001V15.2C10 15.6418 10.3582 16 10.8 16H13.2C13.6419 16 14 15.6418 14 15.2V8.80001C14 8.35818 13.6419 8.00001 13.2 8.00001H10.8ZM12 13.6C12.8837 13.6 13.6 12.8837 13.6 12C13.6 11.1163 12.8837 10.4 12 10.4C11.1164 10.4 10.4 11.1163 10.4 12C10.4 12.8837 11.1164 13.6 12 13.6Z" fill="#363545"/>
<path fill-rule="evenodd" clip-rule="evenodd" d="M16.7871 2.19291C16.7944 2.08435 16.8845 2 16.9933 2C17.1075 2 17.2 2.09252 17.2 2.20666V8.2C17.2 8.53137 16.9314 8.8 16.6 8.8L16.5929 8.77165L16.8 12.6062L16.4182 20.2426C16.4079 20.4487 16.2425 20.6131 16.0363 20.6222L14.6839 20.6818C14.7557 20.6095 14.8 20.5099 14.8 20.4V18C14.8 17.7791 14.6209 17.6 14.4 17.6H9.60002C9.37911 17.6 9.20002 17.7791 9.20002 18V20.4C9.20002 20.5099 9.24436 20.6095 9.31613 20.6818L7.96373 20.6222C7.75756 20.6131 7.59214 20.4487 7.58183 20.2426L7.20001 12.6062L7.58221 5.52964C7.59255 5.33826 7.73717 5.18111 7.92703 5.15495L10.2531 4.8345C11.4122 4.6748 12.5878 4.6748 13.747 4.8345L16.073 5.15495C16.2629 5.18111 16.4075 5.33826 16.4178 5.52964L16.4836 6.74675L16.7871 2.19291ZM14.4 8.20619V16.2062H9.59999V8.20619L9.14197 7.40465C8.98959 7.13799 9.18214 6.80619 9.48926 6.80619H14.5107C14.8178 6.80619 15.0104 7.13799 14.858 7.40465L14.4 8.20619Z" fill="#363545"/>
<path fill-rule="evenodd" clip-rule="evenodd" d="M10 18C9.77909 18 9.6 18.1791 9.6 18.4V20.4C9.6 20.6209 9.77909 20.8 10 20.8H14C14.2209 20.8 14.4 20.6209 14.4 20.4V18.4C14.4 18.1791 14.2209 18 14 18H10ZM12.8 18.4C12.5791 18.4 12.4 18.5791 12.4 18.8V19.2C12.4 19.4209 12.5791 19.6 12.8 19.6H13.6C13.8209 19.6 14 19.4209 14 19.2V18.8C14 18.5791 13.8209 18.4 13.6 18.4H12.8Z" fill="#363545"/>
<path d="M9.59999 21.15L8.79999 21L9.59999 22H14.4L15.2 21L14.4 21.15H9.59999Z" fill="#363545"/>
</svg>
