<svg width="24" height="24" viewBox="0 0 24 24" fill="none" xmlns="http://www.w3.org/2000/svg">
<path fill-rule="evenodd" clip-rule="evenodd" d="M11.0999 6.29993H7.49993V7.09113H11.0999V6.29993ZM16.0499 6.29993H11.9999V7.09113H16.0499V6.29993ZM5.69993 14.6076H4.79993V17.3768H7.04993V16.5856H5.69993V14.6076ZM6.59993 7.09113H5.69993V9.46475H4.79993V6.29993H6.59993V7.09113ZM4.79993 10.256H5.69993V13.8164H4.79993V10.256ZM11.9999 16.5857H7.94993V17.377H11.9999V16.5857ZM18.2999 9.86035H19.1999V13.4208H18.2999V9.86035ZM16.9499 7.09113V6.29993H19.1999V9.06915H18.2999V7.09113H16.9499ZM12.8999 16.5857H16.4999V17.377H12.8999V16.5857ZM18.2999 16.5856V15.5966V14.212H19.1999V15.5966V16.7834V17.3768H17.3999V16.5856H18.2999Z" fill="#252A2E"/>
</svg>
