<svg width="24" height="24" viewBox="0 0 24 24" fill="none" xmlns="http://www.w3.org/2000/svg">
<path fill-rule="evenodd" clip-rule="evenodd" d="M9.9518 1.24847C9.66978 1.11862 9.19034 1.00494 8.50969 1.00408L8.49809 1C7.81331 1 7.33129 1.11405 7.0482 1.2444C7.04055 1.72098 7.03673 3.33809 7.4078 4.53157L7.17062 4.62933L7.16909 4.62545C7.13454 4.53789 6.69231 3.4172 6.48585 1.79837C6.43229 1.91242 6.40933 1.99796 6.40933 1.99796C4.5922 3.17108 4.4583 5.38697 4.4583 5.38697C4.4583 5.38697 4.18286 5.71283 4.14078 5.83503C4.0987 5.95723 4.06809 6.95112 4.06809 6.95112C4.03749 7.44399 4.33971 7.51731 4.33971 7.51731H5.30757C5.41469 7.78208 5.65953 7.92464 5.77047 7.92464H8.50191V7.93279H11.2257V7.92872C11.3366 7.92872 11.5853 7.78615 11.6924 7.52138H12.6565C12.6565 7.52138 12.9587 7.44399 12.9319 6.95519C12.9319 6.95519 12.9013 5.96538 12.8592 5.8391C12.8171 5.7169 12.5417 5.39104 12.5417 5.39104C12.5417 5.39104 12.4078 3.17923 10.5907 2.00204C10.5907 2.00204 10.5677 1.9165 10.5142 1.80244C10.3077 3.42127 9.86546 4.54196 9.83091 4.62952L9.82938 4.6334L9.5922 4.53564C9.96327 3.34216 9.95945 1.72098 9.9518 1.24847ZM11.5509 9.01629C11.0574 10.5153 9.94032 13.167 9.07957 13.0978L8.11553 13.1018H7.92043C6.86458 13.1711 5.87376 10.4012 5.44529 8.99185C5.40704 8.89817 5.38409 8.80041 5.38409 8.80041L4.43152 8.80448C4.70314 9.79837 5.16603 11.224 5.79342 12.3523L5.6863 12.4094C5.45988 12.528 5.19293 12.6394 4.91084 12.7572C4.89267 12.7648 4.87444 12.7724 4.85616 12.78C4.63616 12.8696 4.38025 12.953 4.10689 13.0421C2.7641 13.4797 1 14.0545 1 16.1731V17L12.318 16.9959C12.318 16.9959 13 14.6509 15 13.998C14.3904 13.5244 13.5939 13.2672 12.9089 13.0461C12.6283 12.9555 12.3665 12.8709 12.1438 12.78C11.8416 12.6578 11.5547 12.5397 11.3137 12.4094L11.1492 12.3198C11.7919 11.1955 12.3007 9.78615 12.5685 8.80041H11.6312C11.6312 8.80041 11.6006 8.8778 11.5509 9.01629Z" fill="#363545"/>
<path fill-rule="evenodd" clip-rule="evenodd" d="M17.4807 16.0449C16.073 16.2923 15.0034 17.521 15.0034 18.9996C15.0034 19.3734 15.0717 19.7312 15.1966 20.0612L14.0372 20.1308L13.4371 21.0397C13.1584 20.4167 13.0034 19.7262 13.0034 18.9996C13.0034 16.4029 14.9828 14.2685 17.5151 14.0231L18.0034 14.9996L17.4807 16.0449ZM18.4842 16.0379L19.0034 14.9996L18.5164 14.0256C21.0368 14.2824 23.0034 16.4113 23.0034 18.9996C23.0034 20.2045 22.5772 21.3099 21.8673 22.1731L20.8318 21.828L20.4621 20.7189C20.8032 20.232 21.0034 19.6392 21.0034 18.9996C21.0034 17.5064 19.9125 16.268 18.4842 16.0379ZM20.1247 22.5351L19.7575 21.4335C19.2642 21.7897 18.6583 21.9996 18.0034 21.9996C17.0803 21.9996 16.2545 21.5826 15.7042 20.9268L14.5372 20.9969L13.9357 21.9078C14.8428 23.1743 16.3267 23.9996 18.0034 23.9996C19.1993 23.9996 20.2971 23.5797 21.1575 22.8794L20.1247 22.5351Z" fill="#363545"/>
</svg>
