<svg width="25" height="24" viewBox="0 0 25 24" fill="currentColor" xmlns="http://www.w3.org/2000/svg">
  <path id="Combined Shape" d="M12.125 2C17.6476 2.00025 22.125 6.47759 22.125 12C22.125 17.5224 17.6476 21.9997 12.125 22C6.60311 22 2.125 17.5226 2.125 12C2.125 6.47743 6.60311 2 12.125 2ZM12.125 3.88477C7.65113 3.88477 4.00977 7.5254 4.00977 12C4.00977 16.4746 7.65113 20.1152 12.125 20.1152C16.5996 20.115 20.2402 16.4744 20.2402 12C20.2402 7.52556 16.5996 3.88502 12.125 3.88477ZM12.125 9.17285C13.6864 9.17311 14.9521 10.4395 14.9521 12C14.952 13.5613 13.6863 14.8269 12.125 14.8271C10.5644 14.8271 9.29703 13.5615 9.29688 12C9.29688 10.4394 10.5643 9.17285 12.125 9.17285Z"/>
</svg>
