<svg width="24" height="24" viewBox="0 0 24 24" fill="none" xmlns="http://www.w3.org/2000/svg">
  <path fill-rule="evenodd" clip-rule="evenodd"
    d="M16.8557 15.3239C16.5657 15.3239 16.2945 15.4043 16.0633 15.5441L14.7867 14.6503C15.1258 14.1032 15.3216 13.458 15.3216 12.767C15.3216 11.1455 14.2434 9.77579 12.7648 9.33573V2.35308C16.0823 2.79512 19.1568 5.28651 19.1568 7.65341C19.1568 8.88885 19.5326 9.9949 20.3932 11.4293C21.1171 12.6357 21.2812 12.9168 21.3843 13.1374C21.4264 13.2276 21.444 13.2365 21.444 13.2365C21.444 13.2365 21.4377 13.2366 21.4269 13.2474C21.0812 13.5931 20.7087 13.8276 20.3205 13.957C20.1441 14.0158 19.9915 14.0455 19.9239 14.0455H19.1568V14.8125C19.1568 14.9608 19.1482 15.1929 19.1309 15.4518C19.097 15.9605 19.0368 16.4412 18.9508 16.8712C18.8044 17.6029 18.5907 18.1291 18.3588 18.361C18.1437 18.5761 17.8224 18.7575 17.4086 18.8954C17.0799 19.005 16.7093 19.0822 16.3164 19.1259C16.1177 19.148 15.9403 19.1591 15.833 19.1591H15.0659V23.25H16.6V20.6371C17.0569 20.5797 17.4913 20.4849 17.8937 20.3508C18.5298 20.1388 19.0492 19.8401 19.4435 19.4458C19.9242 18.9651 20.2467 18.2139 20.4551 17.172C20.5549 16.6732 20.6233 16.1285 20.6616 15.5539L20.6669 15.4715C21.2912 15.2968 21.9274 14.9165 22.5117 14.3322C23.0308 13.813 23.0736 13.1467 22.7094 12.3453C22.6034 12.1123 22.4679 11.8684 22.2469 11.5093C22.1733 11.3915 22.0655 11.2187 21.9567 11.0432C21.8398 10.8549 21.7529 10.7137 21.7087 10.64C20.9914 9.44455 20.6909 8.57739 20.6909 7.65341C20.6909 4.12804 16.245 0.75 11.742 0.75C6.9165 0.75 2.81627 3.88578 1.78872 8.50974C0.954719 12.2627 1.99507 16.3776 4.04057 18.4231C4.27243 18.6549 4.5073 19.3937 4.65551 20.4312C4.73216 20.9677 4.78559 21.5646 4.81565 22.1959C4.83096 22.5175 4.83863 23.25 4.83863 23.25H6.348C6.348 23.25 6.36793 22.5414 6.348 22.123C6.31568 21.4441 6.25801 20.801 6.17419 20.2142C5.97109 18.7925 5.64848 17.8614 5.12534 17.3383C3.45476 15.6677 2.56605 12.0836 3.28628 8.84253C4.08217 5.26101 7.06141 2.7381 10.7193 2.33937V9.33573C9.24071 9.77579 8.1625 11.1455 8.1625 12.767C8.1625 14.744 9.76511 16.3466 11.742 16.3466C12.658 16.3466 13.4936 16.0025 14.1267 15.4366L15.4124 16.3369C15.3536 16.4995 15.3216 16.675 15.3216 16.858C15.3216 17.7052 16.0084 18.392 16.8557 18.392C17.7029 18.392 18.3898 17.7052 18.3898 16.858C18.3898 16.0107 17.7029 15.3239 16.8557 15.3239ZM14.2989 12.767C14.2989 14.1791 13.1541 15.3239 11.742 15.3239C10.33 15.3239 9.18523 14.1791 9.18523 12.767C9.18523 11.355 10.33 10.2102 11.742 10.2102C13.1541 10.2102 14.2989 11.355 14.2989 12.767Z" />
</svg>
