<svg width="24" height="24" viewBox="0 0 24 24" fill="none" xmlns="http://www.w3.org/2000/svg">
<path d="M11.632 4.5855C11.632 4.38226 11.7968 4.2175 12 4.2175C12.2032 4.2175 12.368 4.38226 12.368 4.5855V4.59143H11.632V4.5855Z" fill="#363545"/>
<path d="M12.368 14.1327V14.1267H11.632V14.1327C11.632 14.3359 11.7968 14.5007 12 14.5007C12.2032 14.5007 12.368 14.3359 12.368 14.1327Z" fill="#363545"/>
<path fill-rule="evenodd" clip-rule="evenodd" d="M9.64663 4.59144C8.60908 4.59144 7.76798 5.43254 7.76798 6.47009V12.2481C7.76798 13.2856 8.60908 14.1267 9.64663 14.1267H14.3533C15.3909 14.1267 16.232 13.2856 16.232 12.2481V6.47009C16.232 5.43254 15.3909 4.59144 14.3533 4.59144H9.64663ZM12 9.63958C13.1178 9.63958 14.024 8.71879 14.024 7.58295C14.024 6.4471 13.1178 5.52632 12 5.52632C10.8822 5.52632 9.97599 6.4471 9.97599 7.58295C9.97599 8.71879 10.8822 9.63958 12 9.63958ZM14.76 10.294C14.76 10.5521 14.554 10.7614 14.3 10.7614C14.0459 10.7614 13.84 10.5521 13.84 10.294C13.84 10.0358 14.0459 9.82656 14.3 9.82656C14.554 9.82656 14.76 10.0358 14.76 10.294ZM9.88399 10.7614C10.2397 10.7614 10.528 10.4684 10.528 10.107C10.528 9.74561 10.2397 9.45263 9.88399 9.45263C9.52832 9.45263 9.23999 9.74561 9.23999 10.107C9.23999 10.4684 9.52832 10.7614 9.88399 10.7614ZM13.84 9.54614C13.84 9.70102 13.7164 9.82658 13.564 9.82658C13.4116 9.82658 13.288 9.70102 13.288 9.54614C13.288 9.39125 13.4116 9.26569 13.564 9.26569C13.7164 9.26569 13.84 9.39125 13.84 9.54614ZM11.2756 10.7614C10.9643 10.7614 10.712 11.0137 10.712 11.325V12.8153C10.712 13.1266 10.9643 13.3789 11.2756 13.3789H12.7244C13.0357 13.3789 13.288 13.1266 13.288 12.8153V11.325C13.288 11.0137 13.0357 10.7614 12.7244 10.7614H11.2756Z" fill="#363545"/>
<path fill-rule="evenodd" clip-rule="evenodd" d="M6.60912 1.60001C6.2226 1.60001 5.89912 1.89321 5.86127 2.27787L5.55998 5.3393H4.82399V20.2966H19.176V5.3393H18.44L18.1387 2.27787C18.1008 1.89321 17.7774 1.60001 17.3908 1.60001H6.60912ZM16.6 5.33933L16.3513 4.07601C16.282 3.7237 15.9731 3.46967 15.614 3.46967H8.38595C8.02688 3.46967 7.71798 3.7237 7.64864 4.07601L7.39999 5.3393V13.9362C7.39999 14.3512 7.73643 14.6876 8.15145 14.6876H15.8485C16.2635 14.6876 16.6 14.3512 16.6 13.9362L16.6 5.33933ZM15.68 15.9964V17.582H14.6286C14.4971 17.5813 14.1028 17.5822 13.9276 17.8464L13.2267 18.9032C13.1343 19.0422 13.0083 19.1754 12.8771 19.1748L11.1238 19.1677C10.993 19.1672 10.8653 19.0422 10.7733 18.9032L10.0724 17.8464C9.89714 17.5822 9.50215 17.582 9.37142 17.582H8.31999L8.31999 15.9964H15.68Z" fill="#363545"/>
<path d="M4.30291 5.3393H4.63999V20.2966H4.21689C4.04424 20.2966 3.87685 20.2372 3.74288 20.1283L3.07744 19.5873C2.9019 19.4446 2.79999 19.2304 2.79999 19.0042V6.84222C2.79999 6.01218 3.47287 5.3393 4.30291 5.3393Z" fill="#363545"/>
<path d="M19.36 5.3393V20.2966H19.7831C19.9557 20.2966 20.1231 20.2372 20.2571 20.1283L20.9225 19.5873C21.0981 19.4446 21.2 19.2304 21.2 19.0042V6.84222C21.2 6.29234 20.9047 5.81143 20.464 5.54943V1.74253C20.464 1.66382 20.4002 1.60001 20.3215 1.60001C20.2464 1.60001 20.1842 1.65827 20.1792 1.7332L19.9414 5.35906C19.8619 5.34606 19.7802 5.3393 19.6971 5.3393H19.36Z" fill="#363545"/>
<path d="M9.23999 20.6706L9.92999 22.4H14.07L14.76 20.6706H9.23999Z" fill="#363545"/>
</svg>
