<svg width="24" height="24" viewBox="0 0 24 24" fill="currentColor" xmlns="http://www.w3.org/2000/svg">
  <path fill-rule="evenodd" clip-rule="evenodd"
    d="M12 2C6.48 2 2 6.48 2 12C2 17.52 6.48 22 12 22C17.52 22 22 17.52 22 12C22 6.48 17.52 2 12 2ZM17.0909 8.90909L14.1818 11.8182H16.3636C16.3636 14.2255 14.4073 16.1818 12 16.1818C11.2655 16.1818 10.5673 16 9.96364 15.6727L8.90182 16.7345C9.79636 17.3018 10.8582 17.6364 12 17.6364C15.2145 17.6364 17.8182 15.0327 17.8182 11.8182H20L17.0909 8.90909ZM12 7.45455C9.59273 7.45455 7.63636 9.41091 7.63636 11.8182H9.81818L6.90909 14.7273L4 11.8182H6.18182C6.18182 8.60364 8.78545 6 12 6C13.1418 6 14.2036 6.33455 15.0982 6.90182L14.0364 7.96364C13.4327 7.63636 12.7345 7.45455 12 7.45455Z" />
</svg>
