<svg width="24" height="24" viewBox="0 0 24 24" fill="none" xmlns="http://www.w3.org/2000/svg">
<path fill-rule="evenodd" clip-rule="evenodd" d="M12 22C17.5228 22 22 17.5228 22 12C22 6.47715 17.5228 2 12 2C6.47715 2 2 6.47715 2 12C2 17.5228 6.47715 22 12 22ZM12 4.38986V5.7813C15.5913 5.7813 18.5 8.56417 18.5 12C18.5 12.8084 18.3375 13.5858 18.0369 14.2931C17.8175 14.814 17.1188 14.9539 16.7044 14.5574C16.485 14.3476 16.3956 14.0289 16.5175 13.749C16.7531 13.2126 16.875 12.6141 16.875 12C16.875 9.42701 14.6894 7.33597 12 7.33597V8.72741C12 9.07721 11.5613 9.24822 11.3013 9.00725L9.03438 6.83848C8.87188 6.68301 8.87188 6.44203 9.03438 6.28657L11.3094 4.11779C11.5613 3.86905 12 4.04006 12 4.38986ZM7.125 12C7.125 14.573 9.31063 16.664 12 16.664V15.2726C11.9995 15.1959 12.0228 15.1207 12.0669 15.0566C12.111 14.9925 12.174 14.9423 12.2478 14.9124C12.3217 14.8825 12.4031 14.8741 12.4819 14.8884C12.5607 14.9027 12.6333 14.939 12.6906 14.9928L14.9575 17.1615C15.12 17.317 15.12 17.558 14.9575 17.7134L12.6906 19.8822C12.4388 20.131 12 19.9599 12 19.6101V18.2187C8.40875 18.2187 5.5 15.4358 5.5 12C5.5 11.1916 5.6625 10.4142 5.96312 9.70685C6.1825 9.18604 6.88125 9.04612 7.29562 9.44256C7.515 9.65244 7.60437 9.97115 7.4825 10.251C7.24687 10.7874 7.125 11.3859 7.125 12Z" fill="#252A2E"/>
</svg>
