<svg width="24" height="24" viewBox="0 0 24 24" fill="none" xmlns="http://www.w3.org/2000/svg">
  <path fill-rule="evenodd" clip-rule="evenodd"
    d="M22.0759 10.6298C22.6591 11.213 23 12.0155 23 12.8571C23 13.707 22.6607 14.507 22.0759 15.0759L16.0896 21.0619C15.507 21.6607 14.707 22 13.8571 22C13.0156 22 12.2213 21.6673 11.6384 21.0844L3.92413 13.3702C3.33469 12.7807 3 11.9874 3 11.1429V5.14286C3 3.41102 4.41102 2 6.14286 2H12.1429C12.9844 2 13.7787 2.3327 14.3616 2.91556L22.0759 10.6298ZM21.0657 11.64L13.3514 3.92571C13.0429 3.61714 12.6143 3.42857 12.1429 3.42857H6.14286C5.2 3.42857 4.42857 4.2 4.42857 5.14286V11.1429C4.42857 11.6143 4.61714 12.0429 4.93429 12.36L12.6486 20.0743C12.9571 20.3829 13.3857 20.5714 13.8571 20.5714C14.3286 20.5714 14.7571 20.3829 15.0657 20.0657L21.0657 14.0657C21.3829 13.7571 21.5714 13.3286 21.5714 12.8571C21.5714 12.3857 21.3743 11.9486 21.0657 11.64ZM9 6.5C9 7.33 8.33 8 7.5 8C6.67 8 6 7.33 6 6.5C6 5.67 6.67 5 7.5 5C8.33 5 9 5.67 9 6.5Z" />
</svg>
