<svg width="24" height="24" viewBox="0 0 24 24" fill="currentColor" xmlns="http://www.w3.org/2000/svg">
  <path fill-rule="evenodd" clip-rule="evenodd"
    d="M6.00021 7V10H4.00021V7H1.00021V5H4.00021V2H6.00021V5H9.00021V7H6.00021ZM7.09111 15L11.0911 19L19.0911 11L17.6811 9.58L11.0911 16.17L8.50111 13.59L7.09111 15ZM14.0911 6C14.0911 5.45 13.6411 5 13.0911 5C12.5411 5 12.0911 5.45 12.0911 6C12.0911 6.55 12.5411 7 13.0911 7C13.6411 7 14.0911 6.55 14.0911 6ZM15.9111 5H20.0911C21.1911 5 22.0911 5.9 22.0911 7V21C22.0911 22.1 21.1911 23 20.0911 23H6.09111C4.99111 23 4.09111 22.1 4.09111 21V11H6.00011H7.00011V10V8H9.00011H10.0001V7V5H10.2711C10.6911 3.84 11.7911 3 13.0911 3C14.3911 3 15.4911 3.84 15.9111 5Z" />
</svg>
