<svg width="24" height="24" viewBox="0 0 24 24" fill="none" xmlns="http://www.w3.org/2000/svg">
<path fill-rule="evenodd" clip-rule="evenodd" d="M17.2317 3H16.334H7.16603H6.26829H6.18667C5.64802 3 5.20731 3.31154 5.20731 3.69231V7.15385V7.93523C4.83216 8.0237 4.5 8.34087 4.5 8.94703V19.6722C4.5 19.7011 4.83216 19.9226 5.20731 19.9952V20.6538C5.20731 20.6885 5.64802 21 6.18667 21H7.16603C7.22041 21 7.67437 20.9958 8.01481 20.989C8.07951 20.9962 8.14586 21 8.21342 21H15.6402C15.6897 21 15.7385 20.998 15.7865 20.9941C16.0485 20.9978 16.2948 21 16.334 21H17.3133C17.852 21 18.2927 20.6885 18.2927 20.6538V19.9973C18.6477 19.927 19 19.7014 19 19.6722V8.94703C19 8.33489 18.6477 8.01746 18.2927 7.93267V7.15385V3.69231C18.2927 3.31154 17.852 3 17.3133 3H17.2317ZM15.3546 16.7455V7.5C15.3546 7.11923 15.8443 6.11538 16.334 6.11538V4.73077V4.63636H7.16603V4.73077V6.11538C7.70468 6.11538 8.1454 7.11923 8.1454 7.5V16.1538V16.7468C8.16792 16.7459 8.1906 16.7455 8.21342 16.7455H15.3546ZM10.0322 5.94544C9.32365 5.94544 8.7439 6.45795 8.7439 7.08435V14.2974C8.7439 14.9238 9.32365 15.4364 10.0322 15.4364H13.4678C14.1763 15.4364 14.7561 14.9238 14.7561 14.2974V7.08435C14.7561 6.45795 14.1763 5.94544 13.4678 5.94544H10.0322ZM11.75 7.90911C10.6758 7.90911 9.80487 8.77998 9.80487 9.85411C9.80487 10.9282 10.6758 11.7991 11.75 11.7991C12.8242 11.7991 13.6951 10.9282 13.6951 9.85411C13.6951 8.77998 12.8242 7.90911 11.75 7.90911Z" fill="#363545"/>
</svg>
