<svg width="24" height="24" viewBox="0 0 24 24" fill="none" xmlns="http://www.w3.org/2000/svg">
<path d="M6.16725 3C5.83807 3 5.54572 3.11801 5.36956 3.29754L7.13971 4.94725V4.63636H16.243V6.11538C15.7568 6.11538 15.2705 7.11923 15.2705 7.5V12.5249L18.8903 15.8983V8.94703C18.8903 8.33489 18.5405 8.01747 18.1879 7.93268V3.69231C18.1879 3.31154 17.7503 3 17.2155 3H6.16725Z" fill="#363545"/>
<path fill-rule="evenodd" clip-rule="evenodd" d="M20.9698 19.8034L3.99497 3.98352L4.05533 3.92726L3 4.91078L5.19479 6.95624V7.93523C4.82228 8.02369 4.49246 8.34087 4.49246 8.94703V19.6722C4.49246 19.7011 4.82228 19.9226 5.19479 19.9952V20.6538C5.19479 20.6885 5.6324 21 6.16725 21H7.13971C7.1937 21 7.64446 20.9958 7.9825 20.989C8.04675 20.9962 8.11262 21 8.1797 21H15.5542C15.6033 21 15.6517 20.998 15.6994 20.9941C15.9595 20.9978 16.2041 21 16.243 21H17.2155C17.7503 21 18.1879 20.6885 18.1879 20.6538V19.9973C18.4865 19.9378 18.7832 19.7668 18.8669 19.6981L19.9749 20.7307L20.9698 19.8034ZM8.11217 9.67512L8.70645 10.229V14.2974C8.70645 14.9238 9.28211 15.4364 9.9857 15.4364H13.397C13.654 15.4364 13.8938 15.368 14.0948 15.2507L15.2705 16.3464V16.7455H8.1797C8.15705 16.7455 8.13453 16.7459 8.11217 16.7468V9.67512Z" fill="#363545"/>
<path d="M14.6763 11.971V7.08435C14.6763 6.45795 14.1006 5.94544 13.397 5.94544H9.9857C9.49932 5.94544 9.07407 6.19036 8.85787 6.54851L10.6332 8.20307C10.9372 8.01721 11.3007 7.90911 11.6914 7.90911C12.758 7.90911 13.6228 8.71506 13.6228 9.70911C13.6228 10.0732 13.5068 10.412 13.3074 10.6952L14.6763 11.971Z" fill="#363545"/>
</svg>
