<svg width="24" height="24" viewBox="0 0 24 24" fill="currentColor" xmlns="http://www.w3.org/2000/svg">
  <path fill-rule="evenodd" clip-rule="evenodd"
    d="M13.8583 2.81059C13.4973 2.64828 12.8836 2.50617 12.0124 2.5051L11.9975 2.5C11.121 2.5 10.504 2.64257 10.1417 2.8055C10.1319 3.40122 10.127 5.42261 10.602 6.91446L10.2984 7.03666C10.2984 7.03666 10.2973 7.0339 10.2964 7.03181C10.2522 6.92236 9.68616 5.52149 9.42188 3.49796C9.35332 3.64053 9.32394 3.74745 9.32394 3.74745C6.998 5.21385 6.82662 7.98371 6.82662 7.98371C6.82662 7.98371 6.47406 8.39104 6.42019 8.54379C6.36633 8.69654 6.32716 9.9389 6.32716 9.9389C6.28798 10.555 6.67482 10.6466 6.67482 10.6466H7.91369C8.0508 10.9776 8.36419 11.1558 8.50619 11.1558H12.0024V11.166H15.4889V11.1609C15.6309 11.1609 15.9492 10.9827 16.0863 10.6517H17.3203C17.3203 10.6517 17.7071 10.555 17.6728 9.94399C17.6728 9.94399 17.6337 8.70672 17.5798 8.54888C17.5259 8.39613 17.1734 7.9888 17.1734 7.9888C17.1734 7.9888 17.002 5.22403 14.676 3.75255C14.676 3.75255 14.6467 3.64562 14.5781 3.50305C14.3138 5.52654 13.7478 6.92739 13.7036 7.0369C13.7027 7.03899 13.7016 7.04175 13.7016 7.04175L13.398 6.91955C13.873 5.4277 13.8681 3.40122 13.8583 2.81059ZM11.5079 17.6222V17.6273H11.2581C9.90665 17.7138 8.6384 14.2515 8.08997 12.4898C8.041 12.3727 8.01162 12.2505 8.01162 12.2505L6.79234 12.2556C7.14001 13.498 7.73251 15.28 8.53557 16.6904L8.39846 16.7617C8.10863 16.91 7.76692 17.0493 7.40584 17.1965C7.3826 17.206 7.35927 17.2155 7.33588 17.2251C7.05427 17.337 6.72672 17.4412 6.37681 17.5526C4.65804 18.0996 2.39999 18.8181 2.39999 21.4664V22.5H11.9975V22.4949H21.6V21.4664C21.6 18.8199 19.3416 18.1005 17.6249 17.5537C17.274 17.4419 16.9458 17.3374 16.6641 17.2251C16.2773 17.0723 15.91 16.9246 15.6015 16.7617L15.391 16.6497C16.2136 15.2444 16.8649 13.4827 17.2076 12.2505H16.008C16.008 12.2505 15.9688 12.3473 15.9051 12.5204C15.2734 14.3941 13.8436 17.7088 12.7418 17.6222H11.5079Z" />
</svg>
