<svg width="24" height="24" viewBox="0 0 24 24" fill="none" xmlns="http://www.w3.org/2000/svg">
  <path fill-rule="evenodd" clip-rule="evenodd"
    d="M12.6286 3.46226C12.5318 2.51377 12.5359 1.65885 12.5417 1.3055C12.9041 1.14257 13.521 1 14.3976 1L14.4124 1.0051C15.2836 1.00617 15.8973 1.14828 16.2583 1.31059C16.2681 1.90122 16.273 3.9277 15.798 5.41955L16.1016 5.54175L16.1036 5.53691C16.1478 5.42751 16.7138 4.02663 16.9781 2.00305C17.0467 2.14562 17.0761 2.25255 17.0761 2.25255C19.402 3.72403 19.5734 6.4888 19.5734 6.4888C19.5734 6.4888 19.9259 6.89613 19.9798 7.04888C20.0337 7.20672 20.0728 8.44399 20.0728 8.44399C20.1071 9.05499 19.7203 9.15173 19.7203 9.15173H18.4863C18.3492 9.48269 18.0309 9.6609 17.8889 9.6609V9.66599H16.4097C16.3894 9.42553 16.3634 9.28537 16.3105 9.13021C16.2295 8.90045 16.1302 8.74518 15.9691 8.52956C15.9429 8.49468 15.9417 8.49311 15.9183 8.46269C15.8905 8.29109 15.8513 8.09434 15.7979 7.87696C15.6204 7.15425 15.3367 6.43132 14.9191 5.74964C14.4824 5.03682 13.9247 4.41451 13.2368 3.91361L12.6286 3.46226ZM11.9804 2.98131L11.3462 2.51066C11.4653 2.41918 11.5911 2.33119 11.7239 2.24745C11.7239 2.24745 11.7533 2.14053 11.8219 1.99796C11.8672 2.34521 11.9215 2.67411 11.9804 2.98131ZM16.6663 17.7263C18.5154 18.4159 19.7553 19.4098 20.2084 20.9949H24V19.9664C24 17.3199 21.7416 16.6005 20.0249 16.0537C19.674 15.9419 19.3458 15.8374 19.0641 15.7251C18.6773 15.5723 18.31 15.4246 18.0015 15.2617L17.791 15.1497C18.6136 13.7444 19.2649 11.9827 19.6077 10.7505H18.408C18.408 10.7505 18.3688 10.8473 18.3051 11.0204C17.6735 12.8941 16.2436 16.2088 15.1419 16.1222H15.0831C14.9522 16.437 14.8146 16.7477 14.6718 17.0492C14.8057 17.1026 14.9385 17.1502 15.1039 17.2056C15.2004 17.2379 15.3037 17.2715 15.4471 17.3173C15.4127 17.3063 15.7371 17.4097 15.8275 17.4388C16.1588 17.5454 16.4127 17.6317 16.6663 17.7263ZM8.85815 18.6273L9.10788 18.6222H10.3419C11.4436 18.7088 12.8735 15.3941 13.5051 13.5204C13.5688 13.3473 13.608 13.2505 13.608 13.2505H14.8077C14.4649 14.4827 13.8136 16.2444 12.991 17.6497L13.2015 17.7617C13.51 17.9246 13.8773 18.0723 14.2641 18.2251C14.5458 18.3374 14.874 18.4419 15.2249 18.5537C16.9416 19.1005 19.2 19.8199 19.2 22.4664V23.4949L0 23.5V22.4664C0 19.8181 2.25805 19.0996 3.97682 18.5526C4.32673 18.4412 4.65428 18.337 4.93588 18.2251L5.00593 18.1965C5.36698 18.0493 5.70866 17.91 5.99847 17.7617L6.13558 17.6904C5.33252 16.28 4.74002 14.498 4.39235 13.2556L5.61163 13.2505C5.61163 13.2505 5.64101 13.3727 5.68998 13.4898C6.23841 15.2515 7.50666 18.7139 8.85815 18.6273ZM11.4583 3.81059C11.0973 3.64828 10.4836 3.50617 9.61241 3.5051C8.72104 3.5 8.10406 3.64257 7.7417 3.8055C7.7319 4.40122 7.72701 6.42261 8.20199 7.91446L7.89839 8.03666C7.89839 8.03666 7.89728 8.0339 7.89644 8.03181C7.85221 7.92236 7.28616 6.52149 7.02188 4.49796C6.95333 4.64053 6.92395 4.74745 6.92395 4.74745C4.59801 6.21385 4.42663 8.98371 4.42663 8.98371C4.42663 8.98371 4.07406 9.39104 4.0202 9.54379C3.96634 9.69654 3.92716 10.9389 3.92716 10.9389C3.88799 11.555 4.27483 11.6466 4.27483 11.6466H5.5137C5.6508 11.9776 5.96419 12.1558 6.1062 12.1558H9.60245L13.0889 12.166C13.2309 12.1609 13.5492 11.9827 13.6863 11.6517H14.9203C14.9203 11.6517 15.3071 11.555 15.2728 10.944C15.2728 10.944 15.2337 9.70672 15.1798 9.54888C15.1259 9.39613 14.7734 8.9888 14.7734 8.9888C14.7734 8.9888 14.602 6.22403 12.2761 4.75255C12.2761 4.75255 12.2467 4.64562 12.1781 4.50305C11.9138 6.52654 11.3478 7.92739 11.3036 8.0369C11.3027 8.03899 11.3016 8.04175 11.3016 8.04175L10.998 7.91955C11.473 6.4277 11.4681 4.40122 11.4583 3.81059Z" />
</svg>
