<svg width="24" height="24" viewBox="0 0 24 24" fill="none" xmlns="http://www.w3.org/2000/svg">
<path d="M18.2121 1.71213C18.095 1.59497 17.905 1.59497 17.7879 1.71213L15.5121 3.98787C15.3231 4.17686 15.457 4.5 15.7243 4.5L17.25 4.5L17.25 19.5H15.7243C15.457 19.5 15.3231 19.8231 15.5121 20.0121L17.7879 22.2879C17.905 22.405 18.095 22.405 18.2121 22.2879L20.4879 20.0121C20.6769 19.8231 20.543 19.5 20.2757 19.5H18.75L18.75 4.5H20.2757C20.543 4.5 20.6769 4.17686 20.4879 3.98787L18.2121 1.71213Z" fill="#363545"/>
<path d="M11 4.5C13.0441 4.5 14.8972 5.31774 16.25 6.64393V9.09299C15.2265 7.24843 13.259 6 11 6C7.68629 6 5 8.68629 5 12C5 15.3137 7.68629 18 11 18C13.259 18 15.2265 16.7516 16.25 14.907V17.3561C14.8972 18.6823 13.0441 19.5 11 19.5C6.85786 19.5 3.5 16.1421 3.5 12C3.5 7.85786 6.85786 4.5 11 4.5Z" fill="#363545"/>
<path d="M12.5 12C12.5 12.8284 11.8284 13.5 11 13.5C10.1716 13.5 9.5 12.8284 9.5 12C9.5 11.1716 10.1716 10.5 11 10.5C11.8284 10.5 12.5 11.1716 12.5 12Z" fill="#363545"/>
<path fill-rule="evenodd" clip-rule="evenodd" d="M15.5 12C15.5 14.4853 13.4853 16.5 11 16.5C8.51472 16.5 6.5 14.4853 6.5 12C6.5 9.51472 8.51472 7.5 11 7.5C13.4853 7.5 15.5 9.51472 15.5 12ZM14 12C14 13.6569 12.6569 15 11 15C9.34315 15 8 13.6569 8 12C8 10.3431 9.34315 9 11 9C12.6569 9 14 10.3431 14 12Z" fill="#363545"/>
</svg>
