<svg width="24" height="24" viewBox="0 0 24 24" fill="none" xmlns="http://www.w3.org/2000/svg">
<path d="M3.75483 3.74792C4.01926 3.74792 4.27286 3.85297 4.45983 4.03995L19.9698 19.5399C20.0625 19.6325 20.1361 19.7423 20.1863 19.8633C20.2364 19.9843 20.2623 20.114 20.2623 20.2449C20.2623 20.3759 20.2364 20.5056 20.1863 20.6266C20.1361 20.7475 20.0625 20.8574 19.9698 20.9499C19.7698 21.1399 19.5198 21.2399 19.2598 21.2399C18.9998 21.2399 18.7498 21.1499 18.5498 20.9499L15.1198 17.5199L5.63983 8.03995L3.04983 5.44995C2.86286 5.26297 2.75781 5.00937 2.75781 4.74495C2.75781 4.48052 2.86286 4.22692 3.04983 4.03995C3.23681 3.85297 3.49041 3.74792 3.75483 3.74792Z" fill="#252A2E"/>
<path d="M8.86983 6.43995L9.88983 7.45995C10.5398 7.15995 11.2398 6.97995 11.9998 6.97995C14.7598 6.97995 16.9998 9.21994 16.9998 11.9799C16.9998 12.7399 16.8198 13.4499 16.5198 14.0899L18.3698 15.9399C19.7998 14.9199 20.9798 13.5599 21.7898 11.9799C19.9698 8.41995 16.2698 5.97995 11.9998 5.97995C10.9098 5.97995 9.85983 6.14995 8.86983 6.43995Z" fill="#252A2E"/>
<path d="M14.49 10.8282C14.5232 11.1746 14.4347 11.5217 14.2398 11.8099L14.9398 12.5099C15.0256 12.034 14.9949 11.5444 14.8504 11.083C14.7059 10.6215 14.4518 10.2019 14.1099 9.85993C13.7679 9.51799 13.3483 9.2639 12.8868 9.11937C12.4253 8.97483 11.9357 8.94415 11.4598 9.02995L12.1598 9.72995C12.4481 9.53506 12.7952 9.4466 13.1416 9.47977C13.488 9.51293 13.812 9.66565 14.0581 9.9117C14.3041 10.1578 14.4568 10.4818 14.49 10.8282Z" fill="#252A2E"/>
</svg>
