<svg width="24" height="24" viewBox="0 0 24 24" fill="none" xmlns="http://www.w3.org/2000/svg">
<path d="M6.6 11.0625H5.7V8.25H8.4V9.1875H6.6V11.0625ZM17.4 11.0625H18.3V8.25H15.6V9.1875H17.4V11.0625ZM8.4 16.6875V15.75H6.6V13.875H5.7V16.6875H8.4ZM18.3 16.6875V13.875H17.4V15.75H15.6V16.6875H18.3ZM21 5.4375V18.5625C21 19.0781 20.595 19.5 20.1 19.5H3.9C3.405 19.5 3 19.0781 3 18.5625V5.4375C3 4.92187 3.405 4.5 3.9 4.5H20.1C20.595 4.5 21 4.92187 21 5.4375ZM19.2 7.3125H4.8V17.625H19.2V7.3125Z" fill="#252A2E"/>
</svg>
