<svg width="24" height="24" viewBox="0 0 24 24" fill="none" xmlns="http://www.w3.org/2000/svg">
<path d="M5.80435 5.33333H12.413V7H5.80435V5.33333Z" fill="#363545"/>
<path d="M5.80435 8.66667H9.93478V10.3333H5.80435V8.66667Z" fill="#363545"/>
<path d="M19.0217 17H21.5V18.6667H19.0217V17Z" fill="#363545"/>
<path d="M19.0217 5.33333H21.5V7H19.0217V5.33333Z" fill="#363545"/>
<path d="M19.8478 7H21.5V17H19.8478V7Z" fill="#363545"/>
<path d="M15.7174 18.6667H19.0217V20.3333H15.7174V18.6667Z" fill="#363545"/>
<path d="M15.7174 3.66667H19.0217V5.33333H15.7174V3.66667Z" fill="#363545"/>
<path d="M17.3696 5.33333H19.0217V18.6667H17.3696V5.33333Z" fill="#363545"/>
<path d="M2.5 20.3333H15.7174V22H2.5V20.3333Z" fill="#363545"/>
<path d="M2.5 2H15.7174V3.66667H2.5V2Z" fill="#363545"/>
<path d="M14.0652 3.66667H15.7174V20.3333H14.0652V3.66667Z" fill="#363545"/>
<path d="M2.5 3.66667H4.15217V20.3333H2.5V3.66667Z" fill="#363545"/>
</svg>
