<svg width="24" height="24" viewBox="0 0 24 24" fill="none" xmlns="http://www.w3.org/2000/svg">
<path d="M4 4H12V6H4V4Z" fill="#363545"/>
<path d="M4 8H9V10H4V8Z" fill="#363545"/>
<path d="M20 18H23V20H20V18Z" fill="#363545"/>
<path d="M20 4H23V6H20V4Z" fill="#363545"/>
<path d="M21 6H23V18H21V6Z" fill="#363545"/>
<path d="M16 20H20V22H16V20Z" fill="#363545"/>
<path d="M16 2H20V4H16V2Z" fill="#363545"/>
<path d="M18 4H20V20H18V4Z" fill="#363545"/>
<path d="M0 22H16V24H0V22Z" fill="#363545"/>
<path d="M0 0H16V2H0V0Z" fill="#363545"/>
<path d="M14 2H16V22H14V2Z" fill="#363545"/>
<path d="M0 2H2V22H0V2Z" fill="#363545"/>
</svg>
