<svg width="24" height="24" viewBox="0 0 24 24" fill="none" xmlns="http://www.w3.org/2000/svg">
<path fill-rule="evenodd" clip-rule="evenodd" d="M9.37572 5.77272L9.7542 6.01879C9.89608 6.11103 9.98167 6.26876 9.98167 6.43798V7.21304H13.9694V6.37747C13.9694 6.24268 14.0239 6.11361 14.1204 6.0195L14.824 5.33334V2.25C14.824 2.11193 14.9359 2 15.074 2H16.0373C16.1591 2 16.2632 2.08781 16.2837 2.20788L16.7097 4.70043C16.7756 5.08605 17.0603 5.39782 17.4384 5.49837L18.4652 5.77147C19.3413 6.00448 19.9511 6.79768 19.9511 7.70427V18.9813C19.9511 19.4474 19.6291 19.8517 19.1748 19.9559L15.44 20.8129C15.2199 20.8634 14.9948 20.8889 14.769 20.8889H14.5383V21.9999H9.41118V20.8888H9.68747C9.49463 20.8869 9.30239 20.8664 9.11343 20.8276L7.6673 20.5307C7.58777 20.7402 7.38514 20.8891 7.14774 20.8891H6.98059C6.75047 20.8891 6.56393 21.0757 6.56393 21.3058V21.4376C6.56393 21.595 6.4364 21.7225 6.27908 21.7225C6.12177 21.7225 5.99424 21.595 5.99424 21.4376V20.488C5.99424 20.3827 6.01968 20.2858 6.06386 20.2015L4.79889 19.9418C4.33382 19.8463 4 19.437 4 18.9623V7.86785C4 6.88713 4.71112 6.05109 5.67914 5.89376L6.86026 5.70178C7.23155 5.64144 7.6071 5.61112 7.98326 5.61112H8.83065C9.02415 5.61112 9.21349 5.66726 9.37572 5.77272ZM9.98167 12.0556V11.4629H13.9694V12.0556C13.9694 12.3317 13.7456 12.5556 13.4694 12.5556H10.4817C10.2055 12.5556 9.98167 12.3317 9.98167 12.0556ZM8.40921 9.36105C8.40921 9.59117 8.21792 9.77772 7.98195 9.77772C7.74598 9.77772 7.55469 9.59117 7.55469 9.36105C7.55469 9.13094 7.74598 8.94439 7.98195 8.94439C8.21792 8.94439 8.40921 9.13094 8.40921 9.36105ZM9.919 20.6993V19.9438H10.6044L10.7983 19.7301C10.8931 19.6256 11.0276 19.566 11.1686 19.566H12.782C12.923 19.566 13.0575 19.6256 13.1523 19.7301L13.3462 19.9438H14.0316V20.6993H9.919ZM10.8341 21.7222C10.9914 21.7222 11.1189 21.5979 11.1189 21.4445C11.1189 21.291 10.9914 21.1667 10.8341 21.1667C10.6768 21.1667 10.5492 21.291 10.5492 21.4445C10.5492 21.5979 10.6768 21.7222 10.8341 21.7222ZM13.3989 21.4445C13.3989 21.5979 13.2714 21.7222 13.1141 21.7222C12.9568 21.7222 12.8293 21.5979 12.8293 21.4445C12.8293 21.291 12.9568 21.1667 13.1141 21.1667C13.2714 21.1667 13.3989 21.291 13.3989 21.4445ZM6.2759 7.58393C6.2759 7.722 6.38783 7.83393 6.5259 7.83393H7.73495C7.87302 7.83393 7.98495 7.722 7.98495 7.58393V7.2506C7.98495 7.11253 7.87302 7.0006 7.73495 7.0006H6.5259C6.38783 7.0006 6.2759 7.11253 6.2759 7.2506V7.58393Z" fill="#363545"/>
</svg>
