<svg width="24" height="24" viewBox="0 0 24 24" fill="none" xmlns="http://www.w3.org/2000/svg">
<path fill-rule="evenodd" clip-rule="evenodd" d="M2.4 2.16208C2.4 2.06328 2.44183 1.9687 2.51594 1.8999L2.72787 1.70314C2.79912 1.637 2.89449 1.60001 2.99377 1.60001H3.48042C3.60277 1.60001 3.71772 1.65612 3.78954 1.75089C3.97288 1.99283 4.10364 2.39272 4.18183 2.95052C4.24757 3.41962 4.2626 3.92919 4.27882 4.47922C4.28667 4.74546 4.29479 5.02118 4.30909 5.30638L4.85455 5.29163V5.25134L5.67273 5.2513V13.953L5.94546 14.4804H9.49091L10.0364 13.4256V5.12658H10.5113C10.5275 5.03396 10.5482 4.98766 10.5735 4.98766C10.6113 4.98766 11.4451 5.01879 11.5686 5.05637C11.6922 5.09395 11.8852 5.27852 12.2894 5.74089C12.5457 6.03413 12.7835 6.33706 13.0028 6.64966C13.0246 6.68074 13.0364 6.71781 13.0364 6.75581V8.67928H13.2136C13.2664 8.67928 13.3091 8.72519 13.3091 8.78182V9.63149C13.3091 9.68811 13.2664 9.73403 13.2136 9.73403H13.0364V16.7123C13.0364 16.7339 13.0325 16.7554 13.0251 16.7757L12.1736 19.1056C12.1471 19.1784 12.078 19.2267 12.0006 19.2267H11.9455L11.6675 21.1437C11.6582 21.2253 11.5931 21.2908 11.5085 21.304C10.2419 21.5014 8.96936 21.6 7.69091 21.6C6.41255 21.6 5.12831 21.5014 3.83811 21.3041C3.75199 21.2909 3.68615 21.2236 3.67813 21.1406L3.49217 19.2396H3.39227C3.31004 19.2396 3.23705 19.1892 3.21111 19.1146L2.43897 16.8917C2.41317 16.8174 2.4 16.7396 2.4 16.6613V2.16208ZM7.66363 20.7127C7.85945 20.7127 8.01818 20.5609 8.01818 20.3735C8.01818 20.1862 7.85945 20.0343 7.66363 20.0343C7.46781 20.0343 7.30909 20.1862 7.30909 20.3735C7.30909 20.5609 7.46781 20.7127 7.66363 20.7127ZM5.07273 20.3735C5.07273 20.5609 4.914 20.7127 4.71818 20.7127C4.52237 20.7127 4.36364 20.5609 4.36364 20.3735C4.36364 20.1862 4.52237 20.0343 4.71818 20.0343C4.914 20.0343 5.07273 20.1862 5.07273 20.3735ZM10.6636 20.7127C10.8595 20.7127 11.0182 20.5609 11.0182 20.3735C11.0182 20.1862 10.8595 20.0343 10.6636 20.0343C10.4678 20.0343 10.3091 20.1862 10.3091 20.3735C10.3091 20.5609 10.4678 20.7127 10.6636 20.7127ZM4.85454 18.4357V19.2268H10.5818V18.4357H9.76363C9.6619 18.4357 9.35454 18.4356 9.21818 18.3038L8.67272 17.7765C8.60118 17.7072 8.50181 17.6448 8.4 17.6445L7.03563 17.641C6.93354 17.6407 6.83554 17.7072 6.76363 17.7765L6.21818 18.3038C6.08181 18.4356 5.775 18.4361 5.67272 18.4357H4.85454Z" fill="#363545"/>
<path fill-rule="evenodd" clip-rule="evenodd" d="M7.15636 5.25134H6.37091C6.28654 5.25134 6.21818 5.333 6.21818 5.43372V13.8618C6.21818 13.9122 6.25236 13.953 6.29454 13.953H7.23272C7.27491 13.953 7.30909 13.9122 7.30909 13.8618V13.6894L8.4 13.485V13.7706C8.4 13.8714 8.47772 13.953 8.57354 13.953H9.31736C9.41318 13.953 9.49091 13.8714 9.49091 13.7706V5.43372C9.49091 5.333 9.41318 5.25134 9.31736 5.25134H8.57354C8.47772 5.25134 8.4 5.333 8.4 5.43372V5.71939L7.30909 5.51503V5.43372C7.30909 5.333 7.24072 5.25134 7.15636 5.25134ZM9.01845 9.98937C9.24072 9.94482 9.38827 9.73537 9.3479 9.52156C9.30754 9.30774 9.09472 9.17051 8.87245 9.21504C8.65018 9.25957 8.50263 9.46901 8.54299 9.68282C8.58336 9.89664 8.79618 10.0338 9.01845 9.98937ZM9.3479 6.621C9.38827 6.83481 9.24072 7.04424 9.01845 7.08877C8.79618 7.1333 8.58336 6.99607 8.54299 6.78225C8.50263 6.56844 8.65018 6.35902 8.87245 6.31448C9.09472 6.26995 9.30754 6.40719 9.3479 6.621ZM9.01845 12.8899C9.24072 12.8454 9.38827 12.6359 9.3479 12.4221C9.30754 12.2083 9.09472 12.0711 8.87245 12.1156C8.65018 12.1601 8.50263 12.3696 8.54299 12.5834C8.58336 12.7972 8.79618 12.9345 9.01845 12.8899Z" fill="#363545"/>
<path fill-rule="evenodd" clip-rule="evenodd" d="M16 14.4H19.6L21.6 16.4V21.6C21.6 22.0412 21.2412 22.4 20.8 22.4H16C15.5588 22.4 15.2 22.0412 15.2 21.6V15.2C15.2 14.7588 15.5588 14.4 16 14.4ZM16.4 17.6H17.2V16H16.4V17.6ZM17.6 17.6H18.4V16H17.6V17.6ZM18.8 17.6H19.6V16H18.8V17.6Z" fill="#363545"/>
</svg>
