<svg width="24" height="24" viewBox="0 0 24 24" fill="none" xmlns="http://www.w3.org/2000/svg">
<path fill-rule="evenodd" clip-rule="evenodd" d="M2.51594 1.8999C2.44183 1.9687 2.4 2.06328 2.4 2.16208V16.6613C2.4 16.7396 2.41316 16.8174 2.43897 16.8917L3.21111 19.1146C3.23705 19.1892 3.31004 19.2396 3.39227 19.2396H3.49216L3.67813 21.1406C3.68615 21.2236 3.75199 21.2909 3.83811 21.3041C5.12831 21.5014 6.41255 21.6 7.69091 21.6C8.96936 21.6 10.2419 21.5014 11.5085 21.304C11.5931 21.2908 11.6582 21.2253 11.6675 21.1437L11.9455 19.2267H12.0006C12.078 19.2267 12.1471 19.1784 12.1736 19.1056L13.0251 16.7757C13.0325 16.7554 13.0364 16.7339 13.0364 16.7123V9.73403H13.2136C13.2664 9.73403 13.3091 9.68812 13.3091 9.63149V8.78182C13.3091 8.72519 13.2664 8.67928 13.2136 8.67928H13.0364V6.75581C13.0364 6.71781 13.0246 6.68074 13.0028 6.64966C12.7835 6.33706 12.5457 6.03413 12.2894 5.74089C11.8852 5.27852 11.6922 5.09395 11.5686 5.05637C11.4451 5.01879 10.6113 4.98766 10.5735 4.98766C10.5482 4.98766 10.5275 5.03396 10.5113 5.12658H10.0364V13.4256L9.49091 14.4804H5.94545L5.67273 13.953V5.2513L4.85455 5.25134V5.29163L4.30909 5.30638C4.29479 5.02118 4.28666 4.74546 4.27882 4.47922C4.2626 3.92919 4.24757 3.41962 4.18183 2.95052C4.10364 2.39272 3.97288 1.99283 3.78954 1.75089C3.71772 1.65612 3.60277 1.60001 3.48042 1.60001H2.99376C2.89449 1.60001 2.79912 1.637 2.72787 1.70314L2.51594 1.8999ZM8.01818 20.3735C8.01818 20.5609 7.85945 20.7127 7.66363 20.7127C7.46781 20.7127 7.30909 20.5609 7.30909 20.3735C7.30909 20.1862 7.46781 20.0343 7.66363 20.0343C7.85945 20.0343 8.01818 20.1862 8.01818 20.3735ZM4.71818 20.7127C4.914 20.7127 5.07273 20.5609 5.07273 20.3735C5.07273 20.1862 4.914 20.0343 4.71818 20.0343C4.52237 20.0343 4.36363 20.1862 4.36363 20.3735C4.36363 20.5609 4.52237 20.7127 4.71818 20.7127ZM11.0182 20.3735C11.0182 20.5609 10.8595 20.7127 10.6636 20.7127C10.4678 20.7127 10.3091 20.5609 10.3091 20.3735C10.3091 20.1862 10.4678 20.0343 10.6636 20.0343C10.8595 20.0343 11.0182 20.1862 11.0182 20.3735ZM4.85454 19.2268V18.4357H5.67272C5.775 18.4361 6.08181 18.4356 6.21818 18.3038L6.76363 17.7765C6.83554 17.7072 6.93354 17.6407 7.03563 17.641L8.39999 17.6445C8.50181 17.6448 8.60118 17.7072 8.67272 17.7765L9.21818 18.3038C9.35454 18.4356 9.6619 18.4357 9.76363 18.4357H10.5818V19.2268H4.85454Z" fill="#363545"/>
<path fill-rule="evenodd" clip-rule="evenodd" d="M6.3709 5.25134H7.15636C7.24072 5.25134 7.30909 5.333 7.30909 5.43372V5.51503L8.4 5.71939V5.43372C8.4 5.333 8.47772 5.25134 8.57354 5.25134H9.31736C9.41318 5.25134 9.4909 5.333 9.4909 5.43372V13.7706C9.4909 13.8714 9.41318 13.953 9.31736 13.953H8.57354C8.47772 13.953 8.4 13.8714 8.4 13.7706V13.485L7.30909 13.6894V13.8618C7.30909 13.9122 7.2749 13.953 7.23272 13.953H6.29454C6.25236 13.953 6.21818 13.9122 6.21818 13.8618V5.43372C6.21818 5.333 6.28654 5.25134 6.3709 5.25134ZM9.3479 9.52156C9.38827 9.73537 9.24072 9.94482 9.01845 9.98937C8.79617 10.0338 8.58336 9.89664 8.54299 9.68282C8.50263 9.46901 8.65017 9.25957 8.87245 9.21504C9.09472 9.17052 9.30754 9.30774 9.3479 9.52156ZM9.01845 7.08877C9.24072 7.04424 9.38827 6.83482 9.3479 6.621C9.30754 6.40719 9.09472 6.26995 8.87245 6.31448C8.65017 6.35902 8.50263 6.56844 8.54299 6.78225C8.58336 6.99607 8.79617 7.1333 9.01845 7.08877ZM9.3479 12.4221C9.38827 12.6359 9.24072 12.8454 9.01845 12.8899C8.79617 12.9345 8.58336 12.7972 8.54299 12.5834C8.50263 12.3696 8.65017 12.1601 8.87245 12.1156C9.09472 12.0711 9.30754 12.2083 9.3479 12.4221Z" fill="#363545"/>
<path fill-rule="evenodd" clip-rule="evenodd" d="M21.4841 18.4C21.4841 18.5375 21.4755 18.6667 21.4584 18.7917L22.3193 19.45C22.4007 19.5083 22.4221 19.6125 22.3707 19.7042L21.5483 21.0875C21.4969 21.1792 21.3898 21.2125 21.2956 21.1792L20.2719 20.7792C20.062 20.9375 19.8307 21.0708 19.5779 21.1708L19.4237 22.2292C19.4109 22.3292 19.3252 22.4 19.2224 22.4H17.5776C17.4748 22.4 17.3934 22.3292 17.372 22.2292L17.2178 21.1708C16.9651 21.0708 16.738 20.9375 16.5239 20.7792L15.5001 21.1792C15.4059 21.2083 15.2988 21.1792 15.2474 21.0875L14.425 19.7042C14.402 19.6626 14.3946 19.6145 14.4039 19.5681C14.4133 19.5218 14.4389 19.48 14.4764 19.45L15.3459 18.7917C15.3245 18.6667 15.3159 18.5292 15.3159 18.4C15.3159 18.2708 15.3331 18.1333 15.3545 18.0083L14.485 17.35C14.3993 17.2917 14.3822 17.1833 14.4336 17.0958L15.2517 15.7125C15.3031 15.6208 15.4102 15.5875 15.5044 15.6208L16.5281 16.0208C16.738 15.8667 16.9693 15.7292 17.2221 15.6292L17.3763 14.5708C17.3934 14.4708 17.4748 14.4 17.5776 14.4H19.2224C19.272 14.3998 19.3201 14.417 19.3578 14.4483C19.3955 14.4797 19.4204 14.5231 19.428 14.5708L19.5822 15.6292C19.8349 15.7292 20.062 15.8625 20.2761 16.0208L21.2999 15.6208C21.3463 15.6046 21.3972 15.6049 21.4435 15.6217C21.4897 15.6385 21.5284 15.6707 21.5526 15.7125L22.375 17.0958C22.398 17.1374 22.4054 17.1855 22.3961 17.2319C22.3867 17.2782 22.3611 17.32 22.3236 17.35L21.4541 18.0083C21.4755 18.1333 21.4841 18.2667 21.4841 18.4ZM16.858 18.4C16.858 19.225 17.5519 19.9 18.4 19.9C19.2481 19.9 19.942 19.225 19.942 18.4C19.942 17.575 19.2481 16.9 18.4 16.9C17.5519 16.9 16.858 17.575 16.858 18.4Z" fill="#363545"/>
</svg>
