<svg width="24" height="24" viewBox="0 0 24 24" fill="none" xmlns="http://www.w3.org/2000/svg">
<path fill-rule="evenodd" clip-rule="evenodd" d="M6.39999 2.56207C6.39999 2.46327 6.44182 2.36869 6.51593 2.29989L6.72787 2.10314C6.79911 2.03699 6.89448 2 6.99376 2H7.48041C7.60277 2 7.71771 2.05611 7.78953 2.15088C7.97288 2.39283 8.10363 2.79271 8.18182 3.35051C8.24757 3.81961 8.26259 4.32918 8.27881 4.87922C8.28666 5.14545 8.29478 5.42117 8.30908 5.70637L8.85454 5.69163V5.65134L9.67272 5.65129V14.353L9.94545 14.8804H13.4909L14.0364 13.8256V5.52657H14.5113C14.5275 5.43395 14.5482 5.38765 14.5734 5.38765C14.6113 5.38765 15.4451 5.41878 15.5686 5.45636C15.6922 5.49395 15.8852 5.67852 16.2894 6.14088C16.5457 6.43413 16.7835 6.73705 17.0028 7.04965C17.0246 7.08074 17.0364 7.11781 17.0364 7.15581V9.07927H17.2136C17.2664 9.07927 17.3091 9.12518 17.3091 9.18182V10.0315C17.3091 10.0881 17.2664 10.134 17.2136 10.134H17.0364V17.1123C17.0364 17.1339 17.0325 17.1554 17.0251 17.1757L16.1736 19.5056C16.1471 19.5784 16.078 19.6267 16.0006 19.6267H15.9454L15.6675 21.5437C15.6582 21.6253 15.5931 21.6908 15.5084 21.704C14.2419 21.9014 12.9694 22 11.6909 22C10.4125 22 9.1283 21.9014 7.8381 21.7041C7.75198 21.6909 7.68614 21.6235 7.67812 21.5405L7.49216 19.6396H7.39227C7.31003 19.6396 7.23704 19.5892 7.2111 19.5145L6.43897 17.2917C6.41316 17.2174 6.39999 17.1396 6.39999 17.0613V2.56207ZM11.6636 21.1127C11.8594 21.1127 12.0182 20.9609 12.0182 20.7735C12.0182 20.5862 11.8594 20.4343 11.6636 20.4343C11.4678 20.4343 11.3091 20.5862 11.3091 20.7735C11.3091 20.9609 11.4678 21.1127 11.6636 21.1127ZM9.07272 20.7735C9.07272 20.9609 8.91399 21.1127 8.71817 21.1127C8.52237 21.1127 8.36363 20.9609 8.36363 20.7735C8.36363 20.5862 8.52237 20.4343 8.71817 20.4343C8.91399 20.4343 9.07272 20.5862 9.07272 20.7735ZM14.6636 21.1127C14.8595 21.1127 15.0182 20.9609 15.0182 20.7735C15.0182 20.5862 14.8595 20.4343 14.6636 20.4343C14.4678 20.4343 14.3091 20.5862 14.3091 20.7735C14.3091 20.9609 14.4678 21.1127 14.6636 21.1127ZM8.85453 18.8357V19.6268H14.5818V18.8357H13.7636C13.6619 18.8357 13.3545 18.8356 13.2182 18.7038L12.6727 18.1765C12.6012 18.1072 12.5018 18.0448 12.4 18.0445L11.0356 18.041C10.9335 18.0407 10.8355 18.1072 10.7636 18.1765L10.2182 18.7038C10.0818 18.8356 9.775 18.8361 9.67272 18.8357H8.85453Z" fill="#363545"/>
<path fill-rule="evenodd" clip-rule="evenodd" d="M11.1564 5.65134H10.3709C10.2865 5.65134 10.2182 5.73299 10.2182 5.83371V14.2618C10.2182 14.3122 10.2524 14.353 10.2945 14.353H11.2327C11.2749 14.353 11.3091 14.3122 11.3091 14.2618V14.0894L12.4 13.885V14.1706C12.4 14.2714 12.4777 14.353 12.5735 14.353H13.3174C13.4132 14.353 13.4909 14.2714 13.4909 14.1706V5.83371C13.4909 5.73299 13.4132 5.65134 13.3174 5.65134H12.5735C12.4777 5.65134 12.4 5.73299 12.4 5.83371V6.11938L11.3091 5.91503V5.83371C11.3091 5.73299 11.2407 5.65134 11.1564 5.65134ZM13.0184 10.3894C13.2407 10.3448 13.3883 10.1354 13.3479 9.92156C13.3075 9.70774 13.0947 9.57051 12.8724 9.61504C12.6502 9.65956 12.5026 9.869 12.543 10.0828C12.5833 10.2966 12.7962 10.4338 13.0184 10.3894ZM13.3479 7.02099C13.3883 7.23481 13.2407 7.44424 13.0184 7.48876C12.7962 7.53329 12.5833 7.39606 12.543 7.18225C12.5026 6.96844 12.6502 6.75901 12.8724 6.71447C13.0947 6.66995 13.3075 6.80718 13.3479 7.02099ZM13.0184 13.2899C13.2407 13.2454 13.3883 13.0359 13.3479 12.8221C13.3075 12.6083 13.0947 12.4711 12.8724 12.5156C12.6502 12.5601 12.5026 12.7695 12.543 12.9834C12.5833 13.1972 12.7962 13.3345 13.0184 13.2899Z" fill="#363545"/>
</svg>
