<svg width="24" height="24" viewBox="0 0 24 24" fill="none" xmlns="http://www.w3.org/2000/svg">
<path d="M12.0154 2.00889C13.675 2.01077 14.844 2.25865 15.5316 2.54179C15.5503 3.57208 15.5596 7.10704 14.6548 9.70942L15.2331 9.92258L15.2369 9.91412C15.3211 9.72319 16.3994 7.27954 16.9028 3.74972C17.0334 3.99841 17.0894 4.18493 17.0894 4.18493C21.52 6.75177 21.8465 11.5746 21.8465 11.5746C21.8465 11.5746 22.5181 12.2851 22.6207 12.5516C22.6961 12.7542 22.7565 13.9758 22.7831 14.6075C15.8234 12.7237 8.49162 12.6949 1.51716 14.5243L1.20002 14.6075C1.22642 13.9768 1.287 12.7398 1.36289 12.5427C1.4655 12.2763 2.13709 11.5657 2.13709 11.5657C2.13709 11.5657 2.46356 6.73401 6.8942 4.17605C6.8942 4.17605 6.95017 3.98953 7.08076 3.74084C7.58418 7.27066 8.66244 9.71431 8.74669 9.90524L8.75041 9.9137L9.32873 9.70054C8.42394 7.09816 8.43327 3.57208 8.45193 2.53291C9.14217 2.24869 10.3175 2 11.9871 2L12.0154 2.00889Z" fill="#363545"/>
<path d="M21.0029 16.5946C21.093 16.1441 21.093 15.6937 21.0029 15.3333C20.9128 15.0631 20.2822 14.8829 19.9219 14.7928C17.3993 14.0721 14.7867 13.982 12.1741 13.8919C9.65159 13.982 7.21916 14.0721 4.87681 14.6126C3.07501 14.973 2.98492 15.1532 3.07501 16.5045V16.5946C9.02096 15.0631 15.057 15.0631 21.0029 16.5946Z" fill="#363545"/>
<path d="M17.039 21.7297C19.111 21.3694 20.3723 20.2883 20.7327 18.5766C20.7327 18.1261 20.8228 17.4955 20.9128 17.2252C14.9669 15.6036 9.02096 15.6036 3.1651 17.2252C3.1651 17.5365 3.25113 17.8907 3.3043 18.1097C3.32808 18.2076 3.34528 18.2785 3.34528 18.3063C3.52546 19.027 3.79573 19.7477 4.24618 20.3784C5.32726 21.5496 7.03898 21.7297 8.75069 21.9099H9.29123C10.102 21.9099 10.8228 21.7297 11.3633 21.009C11.5435 20.7387 11.8138 20.6487 11.9939 20.6487C12.2642 20.6487 12.5345 20.8288 12.8047 21.0991C13.2552 21.6396 13.7957 22 14.5165 22H14.8768L17.039 21.7297Z" fill="#363545"/>
<path d="M2.52385 17.3794C2.41724 16.5601 2.2642 15.3839 2.2642 14.973C1.18312 15.4234 1.09303 16.1441 1.27321 17.4054C1.27321 17.3153 1.45339 18.036 1.3633 18.036C1.38065 18.0707 1.398 18.1088 1.41599 18.1482C1.49143 18.3136 1.57818 18.5038 1.72366 18.5766C1.94606 18.7248 2.16846 18.8121 2.49125 18.9388C2.56073 18.966 2.63486 18.9951 2.71465 19.027C2.71465 18.6667 2.71465 18.3964 2.62456 18.2162C2.62456 18.1535 2.58084 17.8174 2.52385 17.3794Z" fill="#363545"/>
<path d="M22.8948 16.955C22.9849 15.7838 22.7147 15.3333 21.8138 14.973C21.7237 15.6036 21.6336 16.2342 21.6336 16.5946C21.6336 16.7748 21.5435 17.9459 21.4534 18.036C21.4055 18.1796 21.3831 18.3485 21.3591 18.5294C21.3379 18.6891 21.3155 18.8581 21.2732 19.027L21.4534 19.1171C21.4972 19.1025 21.5435 19.0879 21.5909 19.0729C21.8359 18.9954 22.1133 18.9077 22.2642 18.7568C22.4444 18.6667 22.6246 18.3964 22.6246 18.2162C22.6246 18.2162 22.8047 17.3153 22.8948 16.955Z" fill="#363545"/>
</svg>
