<svg xmlns="http://www.w3.org/2000/svg" width="18" height="16" viewBox="0 0 18 16" fill="currentColor">
  <path fill-rule="evenodd" clip-rule="evenodd" d="M9.34468 8H7.40105L5.53428 5.16313L3.66752 8H1.84468L4.50756 4.13201L2.01488 0.5H3.89263L5.62213 3.19836L7.31869 0.5H9.15251L6.63238 4.21922L9.34468 8ZM13.0947 3.58824L14.8846 0.5H16.8447L13.9984 5.08105V8H12.1909V5.13235L9.34468 0.5H11.3165L13.0947 3.58824ZM18 12.4216L17.2286 11.8735L13.6286 9.68102V11.8735H4.37143V9.68102L0.771429 11.8735L0 12.4216L0.771429 12.9697L4.37143 15.0252V12.9697H13.6286V15.0252L17.2286 12.9697L18 12.4216Z"/>
</svg>