<svg width="24" height="24" viewBox="0 0 24 24" fill="currentColor" xmlns="http://www.w3.org/2000/svg">
  <path d="M14.5714 5.57143V3H21V9.42857H18.4286V5.57143H14.5714Z" />
  <path d="M5.57143 14.5714H3V21H9.42857V18.4286H5.57143V14.5714Z" />
  <path d="M18.4286 18.4286H14.5714V21H21V14.5714H18.4286V18.4286Z" />
  <path d="M3 9.42857H5.57143V5.57143H9.42857V3H3V9.42857Z" />
  <path
    d="M14.5714 12C14.5714 13.4202 13.4202 14.5714 12 14.5714C10.5798 14.5714 9.42857 13.4202 9.42857 12C9.42857 10.5798 10.5798 9.42857 12 9.42857C13.4202 9.42857 14.5714 10.5798 14.5714 12Z" />
</svg>
