<svg xmlns="http://www.w3.org/2000/svg" width="24" height="24" fill="currentColor" viewBox="0 0 24 24">
  <path fill-rule="evenodd" d="M5 5v14h14V5zM4 3a1 1 0 0 0-1 1v16a1 1 0 0 0 1 1h16a1 1 0 0 0 1-1V4a1 1 0 0 0-1-1z"/>
  <path d="M11.647 16.647a1 1 0 0 1-1 1H7.706a1 1 0 0 1-1-1v-2.941a1 1 0 0 1 1-1h2.941a1 1 0 0 1 1 1zm6 0a1 1 0 0 1-1 1h-2.941a1 1 0 0 1-1-1v-2.941a1 1 0 0 1 1-1h2.941a1 1 0 0 1 1 1zm-6-6a1 1 0 0 1-1 1H7.706a1 1 0 0 1-1-1V7.706a1 1 0 0 1 1-1h2.941a1 1 0 0 1 1 1zm5-3.941a1 1 0 0 1 1 1v2.941a1 1 0 0 1-1 1h-2.941a1 1 0 0 1-1-1V7.706a1 1 0 0 1 1-1z"/>
</svg>
