<svg xmlns="http://www.w3.org/2000/svg" width="24" height="24" fill="currentColor" viewBox="0 0 24 24">
  <path d="M6.419 3.395c-.412 0-.802.082-1.157.23a.698.698 0 1 1-.535-1.29A4.4 4.4 0 0 1 6.419 2h1.395a.698.698 0 1 1 0 1.395zM9.907 2.698c0-.386.312-.698.698-.698h2.79a.698.698 0 1 1 0 1.395h-2.79a.7.7 0 0 1-.698-.697M15.488 2.698c0-.386.313-.698.698-.698h1.395c.598 0 1.17.12 1.692.336a.698.698 0 0 1-.535 1.288 3 3 0 0 0-1.157-.229h-1.395a.7.7 0 0 1-.698-.697M3.247 4.35a.7.7 0 0 1 .377.912c-.147.355-.229.745-.229 1.157v1.395a.698.698 0 1 1-1.395 0V6.419c0-.598.12-1.17.336-1.692a.7.7 0 0 1 .911-.377M20.753 4.35a.7.7 0 0 1 .911.377c.217.522.336 1.094.336 1.692v1.395a.698.698 0 0 1-1.395 0V6.419c0-.412-.082-.802-.23-1.157a.7.7 0 0 1 .378-.912M2.698 9.907c.385 0 .697.312.697.698v2.79a.698.698 0 1 1-1.395 0v-2.79c0-.386.312-.698.698-.698M21.302 9.907c.386 0 .698.312.698.698v2.79a.698.698 0 1 1-1.395 0v-2.79c0-.386.312-.698.697-.698M2.698 15.488c.385 0 .697.313.697.698v1.395c0 .412.082.802.23 1.157a.698.698 0 0 1-1.29.535A4.4 4.4 0 0 1 2 17.581v-1.395c0-.385.312-.698.698-.698M21.302 15.488c.386 0 .698.313.698.698v1.395c0 .598-.12 1.17-.336 1.692a.698.698 0 1 1-1.289-.535c.148-.355.23-.745.23-1.157v-1.395c0-.385.312-.698.697-.698M4.35 20.753a.7.7 0 0 1 .912-.378c.355.148.745.23 1.157.23h1.395a.698.698 0 1 1 0 1.395H6.419c-.598 0-1.17-.12-1.692-.336a.7.7 0 0 1-.377-.911M19.65 20.753a.7.7 0 0 1-.377.911 4.4 4.4 0 0 1-1.692.336h-1.395a.698.698 0 0 1 0-1.395h1.395c.412 0 .802-.082 1.157-.23a.7.7 0 0 1 .912.378M9.907 21.302c0-.385.312-.697.698-.697h2.79a.698.698 0 1 1 0 1.395h-2.79a.7.7 0 0 1-.698-.698M19.935 5.108a.698.698 0 0 0-.986-.987l-.927.927a.698.698 0 0 0 .987.987zM17.155 7.888a.698.698 0 0 0-.987-.987l-1.853 1.854a.698.698 0 1 0 .987.986zM13.448 11.595a.698.698 0 1 0-.986-.987L12 11.07l-.462-.462a.698.698 0 1 0-.986.987l.461.461-.405.406a.698.698 0 1 0 .987.986l.405-.405.405.405a.698.698 0 0 0 .987-.986l-.405-.406zM9.741 15.302a.698.698 0 0 0-.986-.987L6.9 16.168a.698.698 0 0 0 .987.987zM6.035 19.009a.698.698 0 0 0-.987-.987l-.927.927a.698.698 0 0 0 .987.986zM18.892 19.935a.698.698 0 0 0 .987-.986l-.927-.927a.698.698 0 0 0-.987.987zM16.112 17.155a.698.698 0 0 0 .987-.987l-1.854-1.853a.698.698 0 1 0-.986.987zM8.698 9.741a.698.698 0 1 0 .987-.986L7.832 6.9a.698.698 0 0 0-.987.987zM4.992 6.035a.698.698 0 1 0 .986-.987l-.927-.927a.698.698 0 1 0-.986.987zM9.261 7.246c.277-.084.572-.13.879-.13h.697a.698.698 0 0 0 0-1.395h-.697q-.67.002-1.283.19a.698.698 0 1 0 .404 1.335M13.163 5.72a.698.698 0 0 0 0 1.396h.697c.307 0 .602.046.879.13a.698.698 0 0 0 .404-1.336 4.4 4.4 0 0 0-1.283-.19zM7.246 9.261a.698.698 0 1 0-1.336-.404c-.123.407-.19.837-.19 1.283v.697a.698.698 0 0 0 1.396 0v-.697c0-.307.046-.602.13-.879M18.09 8.857a.698.698 0 1 0-1.336.404q.128.417.13.879v.697a.698.698 0 0 0 1.395 0v-.697a4.4 4.4 0 0 0-.19-1.283M7.116 13.163a.698.698 0 0 0-1.395 0v.697q.002.67.19 1.283a.698.698 0 0 0 1.335-.404 3 3 0 0 1-.13-.879zM18.28 13.163a.698.698 0 0 0-1.396 0v.697q-.002.462-.13.879a.698.698 0 0 0 1.336.404c.123-.407.19-.838.19-1.283zM9.261 16.754a.698.698 0 1 0-.404 1.336c.407.123.837.19 1.283.19h.697a.698.698 0 0 0 0-1.396h-.697q-.462-.002-.879-.13M15.143 18.09a.698.698 0 0 0-.404-1.336q-.417.128-.879.13h-.697a.698.698 0 0 0 0 1.395h.697q.67-.002 1.283-.19"/>
</svg>
