<svg xmlns="http://www.w3.org/2000/svg" width="24" height="24" fill="currentColor" viewBox="0 0 24 24">
  <path d="M14.002 2c.25 0 .46.18.49.42l.38 2.65c.61.25 1.17.58 1.69.98l2.49-1c.22-.08.49 0 .61.22l2 3.46c.12.22.07.49-.12.64l-2.11 1.65c.04.32.07.64.07.98s-.03.66-.07.98l2.11 1.65c.19.15.24.42.12.64l-2 3.46c-.12.22-.38.31-.61.22l-2.49-1c-.52.39-1.08.73-1.69.98l-.38 2.65c-.03.24-.24.42-.49.42h-4c-.25 0-.46-.18-.49-.42l-.38-2.65c-.61-.25-1.17-.58-1.69-.98l-2.49 1c-.22.08-.49 0-.61-.22l-2-3.46a.504.504 0 0 1 .12-.64l2.11-1.65c-.04-.32-.07-.65-.07-.98s.03-.66.07-.98l-2.11-1.65a.493.493 0 0 1-.12-.64l2-3.46c.12-.22.38-.31.61-.22l2.49 1c.52-.39 1.08-.73 1.69-.98l.38-2.65c.03-.24.24-.42.49-.42zm-2 6.5c-1.93 0-3.5 1.57-3.5 3.5s1.57 3.5 3.5 3.5 3.5-1.57 3.5-3.5-1.57-3.5-3.5-3.5"/>
</svg>
