<svg xmlns="http://www.w3.org/2000/svg" width="24" height="24" fill="currentColor" viewBox="0 0 24 24">
  <path d="M15.162 16.256c-.06.267-.119.505-.238.712-.03.09-.059.148-.059.237-.178.178-.297.267-.326.297-.92.771-1.633 1.157-2.732 1.513-.416.118-1.247.356-2.345.326l-1.693.92a8.8 8.8 0 0 0 4.394-.178c1.247-.416 2.079-.86 3.088-1.72a8.7 8.7 0 0 0 2.019-2.552c.148-.267.267-.563.386-.89zM9.254 4.392h.504c-.207.06-.386.119-.564.178l1.515.8a4.26 4.26 0 0 1 3.176 1.335c-.178.03-.386.03-.564.06l2.553 1.364V8.04a.7.7 0 0 1 .268.237l1.692.92c-.03-.06-.03-.119-.06-.178 0-.03-.03-.06-.059-.119-.03-.059-.03-.118-.06-.148-.474-1.394-1.424-2.61-2.612-3.56a.23.23 0 0 0-.119-.118 8.65 8.65 0 0 0-4.572-1.81h-.148c-.564-.029-1.128-.029-1.693.06-.03 0-.059 0-.089.03a3.3 3.3 0 0 0-.623.118c-.149.03-.297.06-.416.12l1.574.86c.089-.06.178-.06.297-.06M2.663 14.655c-.238-.593-.416-1.335-.446-1.632-.089-.682-.089-.682-.089-1.364 0-.208.03-.534.06-.771.089-.534.178-1.127.534-1.928V6.735a7 7 0 0 0-.742 1.216c-.624 1.246-.772 2.136-.89 2.788-.06.297-.09.683-.09.95 0 .741 0 .741.09 1.483.058.444.296 1.453.623 2.165.267.563.504.979.771 1.394.03.06.06.089.09.119.03.059.089.089.118.148v-2.462c0 .03-.03.06-.03.119"/>
  <path d="M15.459 10.62c-.119.179-.238.327-.356.475.415.771.742 1.543.95 2.284.089-.118.178-.237.237-.356.683-1.097.802-2.461.356-3.826-.03-.03-.059-.089-.089-.148a1.1 1.1 0 0 0-.148-.327.6.6 0 0 1-.119-.177.7.7 0 0 0-.178-.267l-.267-.149c.178.89.06 1.75-.386 2.492M8.69 4.422H8.6c-.385.059-.712.148-1.068.267q.446.088.89.267a6 6 0 0 1 .772-.416l-.267-.148c-.06.03-.148.03-.237.03M17.656 14.892 23 12.015l-5.196-2.818c.743 2.284.416 4.271-.148 5.695M10.323 5.4c-.208.03-.416.09-.624.149.713.415 1.455.92 2.167 1.572.505-.149.98-.267 1.425-.327L10.68 5.4a.7.7 0 0 0-.357 0M12.846 16.345c-2.969.416-6.116-.979-7.927-3.262-.683.83-1.158 1.66-1.336 2.402-.06.297-.09.534-.06.771.12.178.238.326.416.505a7.33 7.33 0 0 0 3.593 2.313 6.8 6.8 0 0 0 1.93.297l5.7-3.085c.03-.237.06-.475.06-.712a8 8 0 0 1-2.376.771M5.067 11.244a18 18 0 0 1 2.287-1.869 2 2 0 0 1-.149-.356c-.386-1.068-.267-2.136.267-3.025.03-.06.06-.09.12-.149q-.936-.267-1.693-.178a4.1 4.1 0 0 0-.802.95 4.2 4.2 0 0 0-.623 2.224c0 .564.089 1.127.297 1.69.059.238.178.475.296.713M8.244 8.633c.03.03.03.09.06.12a26 26 0 0 1 2.375-1.217 12 12 0 0 0-2.02-1.305c-.088.089-.177.208-.237.297-.386.622-.445 1.364-.178 2.105M12.579 11.184c.386-.059.742-.178 1.04-.326a14.4 14.4 0 0 0-2.02-2.462c-.119.06-.267.09-.386.149-.801.326-1.573.711-2.345 1.186.89 1.038 2.345 1.661 3.71 1.453M5.216 4.48c.594-.325 1.158-.622 2.167-.919l-4.661-2.52v5.665C3.791 5.281 5.038 4.57 5.216 4.48M14.509 10.028c.356-.594.415-1.335.148-2.077l-.089-.178c-.505 0-1.098.06-1.781.238a15.5 15.5 0 0 1 1.662 2.076z"/>
  <path d="M12.698 15.218c.92-.118 1.751-.445 2.405-.92-.179-.8-.476-1.63-.92-2.49-.416.236-.921.414-1.426.474-1.781.237-3.681-.594-4.78-1.958-.831.593-1.633 1.246-2.286 1.898 1.544 2.106 4.335 3.382 7.007 2.996M4.266 12.104c-.208-.386-.416-.771-.564-1.187-.416-1.156-.475-2.313-.208-3.381a4 4 0 0 0-.534.92c-.09.177-.179.355-.238.533v5.577c.297-.83.831-1.661 1.544-2.462M16.748 14.388c-.143.118-.286.267-.428.385.035.149.035.267.035.415.143-.266.25-.533.393-.8M3.078 17.443c-.148-.149-.237-.327-.356-.475v5.992l5.047-2.73a4 4 0 0 1-.564-.148c-2.256-.622-3.652-2.046-4.127-2.64"/>
</svg>
