<svg xmlns="http://www.w3.org/2000/svg" width="24" height="24" fill="currentColor" viewBox="0 0 24 24">
  <path d="M11.98 15.73c-.67 0-1.21.54-1.21 1.19s.54 1.21 1.21 1.21 1.21-.54 1.21-1.21-.54-1.19-1.21-1.19Zm0-.71c.36 0 .62-.26.66-.7l.39-5.04s.01-.1.01-.14c0-.63-.45-1.15-1.06-1.15s-1.06.51-1.06 1.15v.14l.4 5.04c.04.44.28.7.66.7Zm9.82 2.8L13.83 4.05a2.112 2.112 0 0 0-3.66 0L2.2 17.82C1.38 19.23 2.4 21 4.03 21h15.94c1.63 0 2.65-1.77 1.83-3.18Zm-1.73 1.12c-.03.06-.07.06-.1.06H4.03s-.07 0-.1-.06-.01-.09 0-.12L11.9 5.05s.03-.06.1-.06.09.03.1.06l7.97 13.77s.03.06 0 .12Z"/>
</svg>
