<svg xmlns="http://www.w3.org/2000/svg" width="24" height="24" fill="currentColor" viewBox="0 0 24 24">
 <path d="M12.6 10h-1.21c-.55 0-1 .45-1 1v2c0 .55.45 1 1 1h1.21c.55 0 1-.45 1-1v-2c0-.55-.45-1-1-1Zm9.4 1.61V9.27c0-1.1-.9-2-2-2h-4.25V5.93c0-1.1-.9-2-2-2h-3.5c-1.1 0-2 .9-2 2v1.34H4c-1.1 0-2 .9-2 2v8.72c0 1.1.9 2 2 2h16c1.1 0 2-.9 2-2V11.6ZM9.92 6.32c0-.55.45-1 1-1h2.17c.55 0 1 .45 1 1v.95H9.92v-.95ZM20 11h-5.4v2H20v4.5c0 .28-.22.5-.5.5h-15c-.28 0-.5-.22-.5-.5V13h5.39v-2H4V9.78c0-.28.22-.5.5-.5h15c.28 0 .5.22.5.5V11Z"/>
</svg>
