<svg xmlns="http://www.w3.org/2000/svg" width="24" height="24" fill="currentColor" viewBox="0 0 24 24">
  <path d="M5 12c0-.34.03-.67.08-1H3c-.55 0-1 .45-1 1 0 .56.45 1 1 1h2.08c-.05-.33-.08-.66-.08-1m1.4 4.19-1.48 1.48a.996.996 0 1 0 1.41 1.41l1.48-1.48c-.54-.4-1.01-.88-1.41-1.41M7.81 6.4 6.33 4.92a.996.996 0 1 0-1.41 1.41L6.4 7.81c.4-.54.88-1.01 1.41-1.41M13 5.08V3c0-.55-.45-1-1-1s-1 .45-1 1v2.08c.33-.05.66-.08 1-.08s.67.03 1 .08m4.6 2.73 1.48-1.48a.996.996 0 1 0-1.41-1.41L16.19 6.4c.54.4 1.01.88 1.41 1.41M18.92 11c.05.33.08.66.08 1s-.03.67-.08 1H21c.55 0 1-.45 1-1 0-.56-.45-1-1-1zm-2.73 6.6 1.48 1.48a.996.996 0 1 0 1.41-1.41l-1.48-1.48c-.4.54-.88 1.01-1.41 1.41M11 18.92V21c0 .55.45 1 1 1s1-.45 1-1v-2.08c-.33.05-.66.08-1 .08s-.67-.03-1-.08m1-12.17a5.25 5.25 0 1 0 0 10.5 5.25 5.25 0 1 0 0-10.5m.75 5.75h2.95c-.05.35-.13.69-.27 1h-2.68zm0-1v-1h2.68c.14.31.22.65.27 1zm2.02-2h-2.02V8.33c.8.16 1.5.59 2.02 1.17M8.25 12c0-1.81 1.29-3.33 3-3.67v7.35c-1.71-.35-3-1.86-3-3.67Zm4.5 3.67V14.5h2.02c-.53.58-1.22 1.01-2.02 1.17"/>
</svg>
