<svg xmlns="http://www.w3.org/2000/svg" width="24" height="24" fill="currentColor" viewBox="0 0 24 24">
  <path d="M21 11h-3.51c-.11-.4-.25-.79-.41-1.16 2.1-.49 3.67-2.35 3.67-4.59V5c0-.41-.34-.75-.75-.75s-.75.34-.75.75v.25c0 1.71-1.32 3.09-3 3.22-.37-.48-.8-.89-1.27-1.23 0-.08.02-.16.02-.24 0-2.21-1.34-4-3-4S9 4.79 9 7c0 .08.01.16.02.24-.47.34-.9.75-1.27 1.23-1.67-.13-3-1.52-3-3.22V5c0-.41-.34-.75-.75-.75s-.75.34-.75.75v.25c0 2.25 1.57 4.11 3.67 4.59-.17.37-.31.75-.41 1.16H3c-.41 0-.75.34-.75.75s.34.75.75.75h3.27c-.01.17-.02.33-.02.5 0 .53.06 1.04.16 1.54-1.84.65-3.16 2.4-3.16 4.46v.25c0 .41.34.75.75.75s.75-.34.75-.75V19c0-1.39.88-2.55 2.1-3.01.94 2.23 2.89 3.76 5.15 3.76s4.21-1.54 5.15-3.76c1.22.46 2.1 1.63 2.1 3.01v.25c0 .41.34.75.75.75s.75-.34.75-.75V19c0-2.06-1.32-3.81-3.16-4.46.1-.5.16-1.01.16-1.54 0-.17-.01-.33-.02-.5H21c.41 0 .75-.34.75-.75S21.41 11 21 11Zm-8.5 7.19V16c0-.28-.22-.5-.5-.5s-.5.22-.5.5v2.19c-2.11-.31-3.75-2.5-3.75-5.19 0-2.9 1.91-5.25 4.25-5.25s4.25 2.35 4.25 5.25c0 2.68-1.64 4.88-3.75 5.19Z"/>
</svg>