<svg xmlns="http://www.w3.org/2000/svg" width="24" height="24" fill="currentColor" viewBox="0 0 24 24">
  <path d="M8 18H6v2h2v-2Zm5-8h2V8h-2v2Zm0 3h2v-2h-2v2Zm0 3h2v-2h-2v2Zm-5-4H6v2h2v-2Zm-5 5h2v-2H3v2Zm5-2H6v2h2v-2Zm-5 5h2v-2H3v2Zm16-7h2v-2h-2v2Zm-6-6h2V5h-2v2Zm6 0h2V5h-2v2Zm0 9h2v-2h-2v2Zm2.5-13H20V2h-6v1h-1.5c-.83 0-1.5.67-1.5 1.5V21h-1V10H5c-.55 0-1 .45-1 1v1.5H2c-.55 0-1 .45-1 1V22h22V4.5c0-.83-.67-1.5-1.5-1.5ZM9 21H2v-7.5h3V11h4v10Zm13 0h-4v-2.5h-2V21h-4V4.5c0-.28.22-.5.5-.5h9c.28 0 .5.22.5.5V21Zm-3-11h2V8h-2v2Zm-3 6h2v-2h-2v2Zm0-3h2v-2h-2v2Zm0-3h2V8h-2v2Zm0-3h2V5h-2v2Z"/>
</svg>
