<svg xmlns="http://www.w3.org/2000/svg" width="24" height="24" fill="currentColor" viewBox="0 0 24 24">
  <path d="M12 9c-.55 0-1 .45-1 1s.45 1 1 1 1-.45 1-1-.45-1-1-1m3.5 4c-.55 0-1 .45-1 1v4c0 .55.45 1 1 1s1-.45 1-1v-4c0-.55-.45-1-1-1M12 13c-.55 0-1 .45-1 1s.45 1 1 1 1-.45 1-1-.45-1-1-1m0 4c-.55 0-1 .45-1 1s.45 1 1 1 1-.45 1-1-.45-1-1-1m2.5-7c0 .55.45 1 1 1s1-.45 1-1-.45-1-1-1-1 .45-1 1M9 19c.55 0 1-.45 1-1s-.45-1-1-1-1 .45-1 1 .45 1 1 1m8-17H7c-1.1 0-2 .9-2 2v16c0 1.1.9 2 2 2h10c1.1 0 2-.9 2-2V4c0-1.1-.9-2-2-2m0 18H7V4h10zm-8-9c.55 0 1-.45 1-1s-.45-1-1-1-1 .45-1 1 .45 1 1 1m0-4h6c.55 0 1-.45 1-1s-.45-1-1-1H9c-.55 0-1 .45-1 1s.45 1 1 1m0 8c.55 0 1-.45 1-1s-.45-1-1-1-1 .45-1 1 .45 1 1 1"/>
</svg>
