<svg xmlns="http://www.w3.org/2000/svg" width="24" height="24" fill="currentColor" viewBox="0 0 24 24">
  <path d="M18 13c-2.76 0-5 2.24-5 5s2.24 5 5 5 5-2.24 5-5-2.24-5-5-5m2.5 5.75h-1.75v1.75c0 .41-.34.75-.75.75s-.75-.34-.75-.75v-1.75H15.5c-.41 0-.75-.34-.75-.75s.34-.75.75-.75h1.75V15.5c0-.41.34-.75.75-.75s.75.34.75.75v1.75h1.75c.41 0 .75.34.75.75s-.34.75-.75.75M10 20H4V9.97h16V11h1c.55 0 1-.45 1-1V5c0-1.1-.9-2-2-2h-2c0-.55-.45-1-1-1s-1 .45-1 1H8c0-.55-.45-1-1-1s-1 .45-1 1H4c-1.1 0-2 .9-2 2v15c0 1.1.9 2 2 2h6c.55 0 1-.45 1-1s-.45-1-1-1M4 5h2v1c0 .55.45 1 1 1s1-.45 1-1V5h8v1c0 .55.45 1 1 1s1-.45 1-1V5h2v2.97H4z"/>
</svg>
