<svg xmlns="http://www.w3.org/2000/svg" width="24" height="24" fill="currentColor" viewBox="0 0 24 24">
  <path d="M18.25 23c-2.62 0-4.75-2.13-4.75-4.75s2.13-4.75 4.75-4.75S23 15.63 23 18.25 20.87 23 18.25 23Zm0-8C16.46 15 15 16.46 15 18.25s1.46 3.25 3.25 3.25 3.25-1.46 3.25-3.25S20.04 15 18.25 15Zm1.85 5.1c.2-.2.2-.51 0-.71l-1.35-1.35V15.8c0-.28-.22-.5-.5-.5s-.5.22-.5.5v2.65l1.65 1.65a.485.485 0 0 0 .7 0ZM11 20H4V9.97h16V11c0 .55.45 1 1 1s1-.45 1-1V5c0-1.1-.9-2-2-2h-2c0-.55-.45-1-1-1s-1 .45-1 1H8c0-.55-.45-1-1-1s-1 .45-1 1H4c-1.1 0-2 .9-2 2v15c0 1.1.9 2 2 2h7c.55 0 1-.45 1-1s-.45-1-1-1ZM4 5h2v1c0 .55.45 1 1 1s1-.45 1-1V5h8v1c0 .55.45 1 1 1s1-.45 1-1V5h2v2.97H4V5Z"/>
</svg>
