<svg xmlns="http://www.w3.org/2000/svg" width="24" height="24" fill="currentColor" viewBox="0 0 24 24">
  <path d="M12.33 14a2.993 2.993 0 0 0-3.44-1.94c-1.14.23-2.08 1.14-2.32 2.29A3.005 3.005 0 0 0 9.5 18c1.27 0 2.4-.8 2.82-2h2.18v1c0 .55.45 1 1 1s1-.45 1-1v-1c.55 0 1-.45 1-1s-.45-1-1-1h-4.18Zm-2.82 2c-.55 0-1-.45-1-1s.45-1 1-1 1 .45 1 1-.45 1-1 1ZM20 3h-2c0-.55-.45-1-1-1s-1 .45-1 1H8c0-.55-.45-1-1-1s-1 .45-1 1H4c-1.1 0-2 .9-2 2v15c0 1.1.9 2 2 2h16c1.1 0 2-.9 2-2V5c0-1.1-.9-2-2-2Zm0 17H4V9.97h16V20Zm0-12.03H4V5h2v1c0 .55.45 1 1 1s1-.45 1-1V5h8v1c0 .55.45 1 1 1s1-.45 1-1V5h2v2.97Z"/>
</svg>
