<svg xmlns="http://www.w3.org/2000/svg" width="24" height="24" fill="currentColor" viewBox="0 0 24 24">
  <path d="M10.81 15.22a.984.984 0 0 0 0 1.4l2.09 2.09c.39.39 1.02.39 1.41 0l4.42-4.41a.984.984 0 0 0 0-1.4.984.984 0 0 0-1.4 0l-3.72 3.72-1.4-1.4a.984.984 0 0 0-1.4 0M13.5 11h-3v3h3zM9 16H6v3h3zM20 3h-2c0-.55-.45-1-1-1s-1 .45-1 1H8c0-.55-.45-1-1-1s-1 .45-1 1H4c-1.1 0-2 .9-2 2v15c0 1.1.9 2 2 2h16c1.1 0 2-.9 2-2V5c0-1.1-.9-2-2-2m0 17H4V9.97h16zm0-12.03H4V5h2v1c0 .55.45 1 1 1s1-.45 1-1V5h8v1c0 .55.45 1 1 1s1-.45 1-1V5h2zM9 11H6v3h3z"/>
</svg>
