<svg xmlns="http://www.w3.org/2000/svg" width="24" height="24" fill="currentColor" viewBox="0 0 24 24">
  <path d="M20 3h-2c0-.55-.45-1-1-1s-1 .45-1 1H8c0-.55-.45-1-1-1s-1 .45-1 1H4c-1.1 0-2 .9-2 2v15c0 1.1.9 2 2 2h16c1.1 0 2-.9 2-2V5c0-1.1-.9-2-2-2Zm0 17H4V9.97h16V20Zm0-12.03H4V5h2v1c0 .55.45 1 1 1s1-.45 1-1V5h8v1c0 .55.45 1 1 1s1-.45 1-1V5h2v2.97Zm-4.99 4.02c.29.29.29.77 0 1.06l-1.94 1.94 1.94 1.94c.29.29.29.77 0 1.06s-.77.29-1.06 0l-1.94-1.94-1.94 1.94c-.29.29-.77.29-1.06 0s-.29-.77 0-1.06l1.94-1.94-1.94-1.94c-.29-.29-.29-.77 0-1.06s.77-.29 1.06 0l1.94 1.94 1.94-1.94c.29-.29.77-.29 1.06 0Z"/>
</svg>