<svg xmlns="http://www.w3.org/2000/svg" width="24" height="24" viewBox="0 0 24 24">
  <path d="m21.75,14.5h-6c-.69,0-1.25.56-1.25,1.25v6c0,.69.56,1.25,1.25,1.25h6c.69,0,1.25-.56,1.25-1.25v-6c0-.69-.56-1.25-1.25-1.25Zm-.25,7h-5.5v-5.5h1.75v2h2v-2h1.75v5.5Zm-10.5-1.5h-7v-10.03h16v1.03c0,.55.45,1,1,1h0c.55,0,1-.45,1-1v-6c0-1.1-.9-2-2-2h-2c0-.55-.45-1-1-1s-1,.45-1,1h-8c0-.55-.45-1-1-1s-1,.45-1,1h-2c-1.1,0-2,.9-2,2v15c0,1.1.9,2,2,2h7c.55,0,1-.45,1-1h0c0-.55-.45-1-1-1ZM4,5h2v1c0,.55.45,1,1,1s1-.45,1-1v-1h8v1c0,.55.45,1,1,1s1-.45,1-1v-1h2v2.97H4v-2.97Z"/>
</svg>
