<svg xmlns="http://www.w3.org/2000/svg" width="24" height="24" fill="currentColor" viewBox="0 0 24 24">
  <path d="M21.75 14.5h-6c-.69 0-1.25.56-1.25 1.25v6c0 .69.56 1.25 1.25 1.25h6c.69 0 1.25-.56 1.25-1.25v-6c0-.69-.56-1.25-1.25-1.25Zm-.25 7H16V16h1.75v2h2v-2h1.75v5.5ZM11 20H4V9.97h16V11c0 .55.45 1 1 1s1-.45 1-1V5c0-1.1-.9-2-2-2h-2c0-.55-.45-1-1-1s-1 .45-1 1H8c0-.55-.45-1-1-1s-1 .45-1 1H4c-1.1 0-2 .9-2 2v15c0 1.1.9 2 2 2h7c.55 0 1-.45 1-1s-.45-1-1-1ZM4 5h2v1c0 .55.45 1 1 1s1-.45 1-1V5h8v1c0 .55.45 1 1 1s1-.45 1-1V5h2v2.97H4V5Zm5 10H6v-3h3v3Z"/>
</svg>
