<svg xmlns="http://www.w3.org/2000/svg" width="24" height="24" fill="currentColor" viewBox="0 0 24 24">
  <path d="M20.02 7H18.5l-2.41-2.41c-.38-.38-.88-.59-1.41-.59H9.34c-.53 0-1.04.21-1.41.59L5.52 7h-1.5c-1.1 0-2 .9-2 2v9c0 1.1.9 2 2 2h9.744A3 3 0 0 1 13 18H4V9h2.33l3-3h5.34l3 3H20v3.17c1.165.413 2 1.524 2 2.83h.02V9c0-1.1-.9-2-2-2"/>
  <path d="M22.02 17H20v-2a1 1 0 1 0-2 0v2h-2a1 1 0 1 0 0 2h2v2a1 1 0 1 0 2 0v-2h2a1 1 0 0 0 .02-2M12 9.5c-1.66 0-3 1.34-3 3s1.34 3 3 3 3-1.34 3-3-1.34-3-3-3"/>
</svg>
