<svg xmlns="http://www.w3.org/2000/svg" width="24" height="24" fill="currentColor" viewBox="0 0 24 24">
  <path d="M16.71 7.23a.996.996 0 0 0-1.41 0l-3.32 3.32-3.32-3.32a.996.996 0 1 0-1.41 1.41l3.32 3.32-3.32 3.32a.996.996 0 0 0 .71 1.7c.26 0 .51-.1.71-.29l3.32-3.32 3.32 3.32c.2.2.45.29.71.29s.51-.1.71-.29a.996.996 0 0 0 0-1.41l-3.32-3.32 3.32-3.32a.996.996 0 0 0 0-1.41ZM19 2H5C3.35 2 2 3.35 2 5v14c0 1.65 1.35 3 3 3h14c1.65 0 3-1.35 3-3V5c0-1.65-1.35-3-3-3Zm1 17c0 .55-.45 1-1 1H5c-.55 0-1-.45-1-1V5c0-.55.45-1 1-1h14c.55 0 1 .45 1 1v14Z"/>
</svg>
