<svg xmlns="http://www.w3.org/2000/svg" width="24" height="24" fill="currentColor" viewBox="0 0 24 24">
  <path d="M12 2C6.48 2 2 6.48 2 12s4.48 10 10 10 10-4.48 10-10S17.52 2 12 2m0 18c-4.41 0-8-3.59-8-8s3.59-8 8-8 8 3.59 8 8-3.59 8-8 8m4.3-12.29a.996.996 0 0 0-1.41 0l-2.88 2.88-2.88-2.88a.996.996 0 1 0-1.41 1.41L10.6 12l-2.88 2.88a.996.996 0 0 0 .71 1.7c.26 0 .51-.1.71-.29l2.88-2.88 2.88 2.88c.2.2.45.29.71.29s.51-.1.71-.29a.996.996 0 0 0 0-1.41L13.44 12l2.88-2.88a.996.996 0 0 0 0-1.41Z"/>
</svg>
