<svg xmlns="http://www.w3.org/2000/svg" width="24" height="24" fill="currentColor" viewBox="0 0 24 24">
  <path d="M2 12C2 6.5 6.5 2 12 2s10 4.5 10 10c0 .108-.002.216-.005.323a3.005 3.005 0 0 0-2.374-2.758C18.588 6.34 15.56 4 12 4c-4.41 0-8 3.59-8 8s3.59 8 8 8a7.951 7.951 0 0 0 4.276-1.242c.081.174.178.338.288.492a2.984 2.984 0 0 0-.56 1.908A9.908 9.908 0 0 1 12 22C6.5 22 2 17.5 2 12Z"/>
  <path d="M18 17.5a1 1 0 1 0 2 0v-5a1.004 1.004 0 0 0-1-1c-.55 0-1 .45-1 1v5ZM18.23 20.365a.999.999 0 0 1 1.564.029c.129.168.206.379.206.606 0 .55-.45 1-1 1s-1-.45-1-1a.994.994 0 0 1 .23-.635ZM9.2 16.5c-.4.4-1.1.4-1.5 0-.5-.5-.5-1.1 0-1.6l3.3-3.3V6.9c0-.6.5-1.1 1.1-1.1.6 0 1.1.5 1.1 1.1v5c0 .4-.1.7-.4 1l-3.6 3.6Z"/>
</svg>
