<svg xmlns="http://www.w3.org/2000/svg" width="24" height="24" fill="currentColor" viewBox="0 0 24 24">
  <path d="M12 2C6.5 2 2 6.5 2 12s4.5 10 10 10q.483 0 .954-.046l-1.472-1.483a3 3 0 0 1-.42-.526C7.092 19.48 4 16.093 4 12c0-4.41 3.59-8 8-8s8 3.59 8 8q0 .143-.005.284a3.07 3.07 0 0 1 2.004-.165L22 12c0-5.5-4.5-10-10-10"/>
  <path d="M7.7 16.5c.4.4 1.1.4 1.5 0l3.6-3.6c.3-.3.4-.6.4-1v-5c0-.6-.5-1.1-1.1-1.1S11 6.3 11 6.9v4.7l-3.3 3.3c-.5.5-.5 1.1 0 1.6m14.283-.768a1 1 0 0 0-1.418-1.41l-4.742 4.767-1.5-1.493a1 1 0 0 0-1.411 1.418l2.21 2.198a1 1 0 0 0 1.414-.004z"/>
</svg>
