<svg xmlns="http://www.w3.org/2000/svg" width="24" height="24" fill="currentColor" viewBox="0 0 24 24">
  <path d="M12 20.06c-4.11-.11-7.53-3.2-7.96-7.19-.46-4.31 2.79-8.34 7.09-8.82 3.99-.44 7.74 2.24 8.73 6.23a1 1 0 0 0 1.94-.48c-1.23-4.96-5.91-8.28-10.89-7.74-5.37.59-9.43 5.63-8.85 11.02.53 4.98 4.79 8.84 9.89 8.98h.03c.54 0 .98-.43 1-.97a1.01 1.01 0 0 0-.97-1.03Zm10.25-3.59h-.75v-.84c0-1.27-.9-2.43-2.16-2.6-.11-.01-.23-.02-.34-.02a2.5 2.5 0 0 0-2.5 2.5v.96h-.59c-.5 0-.91.41-.91.91v4.88c0 .41.34.75.75.75h6.5c.41 0 .75-.34.75-.75v-5.04c0-.41-.34-.75-.75-.75Zm-3.24 4.04c-.55 0-1-.45-1-1s.45-1 1-1 1 .45 1 1-.45 1-1 1Zm1.49-4.04h-3v-.88c0-.74.5-1.43 1.22-1.56.09-.02.19-.02.28-.02.83 0 1.5.67 1.5 1.5v.96ZM13 11.61v-4.7c0-.6-.5-1.1-1.1-1.1s-1.1.5-1.1 1.1v5c0 .4.1.7.4 1l1.62 1.62c.49.49 1.32.4 1.69-.18 0 0 0-.02.01-.02.27-.43.2-.99-.16-1.34L13 11.63Z"/>
</svg>
