<svg xmlns="http://www.w3.org/2000/svg" width="24" height="24" fill="currentColor" viewBox="0 0 24 24">
  <path d="m19.56,8.74l-1.45-1.45,2.21-2.2c.37-.37.37-.98,0-1.35l-.07-.07c-.37-.37-.98-.37-1.35,0l-2.2,2.21-1.45-1.45c-.31-.31-.85-.09-.85.35v4.29c0,.28.22.5.5.5h4.29c.45,0,.67-.54.35-.85Zm-10.82-4.29l-1.45,1.45-2.2-2.21c-.37-.37-.98-.37-1.35,0l-.07.07c-.37.37-.37.98,0,1.35l2.21,2.2-1.45,1.45c-.31.31-.09.85.35.85h4.29c.28,0,.5-.22.5-.5v-4.29c0-.45-.54-.67-.85-.35Zm-4.29,10.82l1.45,1.45-2.21,2.2c-.37.37-.37.98,0,1.35l.07.07c.37.37.98.37,1.35,0l2.2-2.21,1.45,1.45c.31.31.85.09.85-.35v-4.29c0-.28-.22-.5-.5-.5h-4.29c-.45,0-.67.54-.35.85Zm10.82,4.29l1.45-1.45,2.2,2.21c.37.37.98.37,1.35,0l.07-.07c.37-.37.37-.98,0-1.35l-2.21-2.2,1.45-1.45c.31-.31.09-.85-.35-.85h-4.29c-.28,0-.5.22-.5.5v4.29c0,.45.54.67.85.35Z"/>
</svg>
