<svg xmlns="http://www.w3.org/2000/svg" width="24" height="24" fill="currentColor" viewBox="0 0 24 24">
  <path d="m11.66 5.23-.71.71c-.39.39-.39 1.03 0 1.42l.71.7-7.72 7.71-1.74 4.29c-.08.19-.03.4.11.54l1.03 1.03c.14.14.35.19.54.11L8.17 20l7.71-7.71.7.71c.39.39 1.03.39 1.42 0l.71-.71a.996.996 0 0 0 0-1.41s-.62-.69-.6-.71l2.83-2.83c1.17-1.17 1.17-3.07 0-4.24a3 3 0 0 0-4.24 0l-2.83 2.83-.81-.7a.996.996 0 0 0-1.41 0Zm3.64 2.11 2.83-2.83a.996.996 0 1 1 1.41 1.41l-2.83 2.83s-1.43-1.39-1.41-1.41M5.64 16.9l7.44-7.43 1.4 1.4-7.43 7.44-2.47 1.06z"/>
</svg>
