<svg xmlns="http://www.w3.org/2000/svg" width="24" height="24" fill="currentColor" viewBox="0 0 24 24">
 <path d="M11 8a1 1 0 1 1 2 0v3h3a1 1 0 1 1 0 2h-3v3a1 1 0 1 1-2 0v-3H8a1 1 0 1 1 0-2h3V8Z"/>
  <path d="m4.06 19.56-.023.084a13.5 13.5 0 0 1-.227.726c-.035.11-.072.217-.11.323l-.008.022a9.391 9.391 0 0 1-.182.465c-.1.23.09.49.34.45.165-.028.33-.057.494-.087l.016-.003a25.003 25.003 0 0 0 1.258-.27c1.755-.423 2.883-.905 3.442-1.18.96.25 1.94.38 2.93.38 5.51 0 9.98-3.91 9.98-8.74S17.5 3 11.98 3C6.47 3 2 6.91 2 11.74c0 2.2.93 4.21 2.46 5.74a13.433 13.433 0 0 1-.4 2.08Zm5.504-1.405-.36-.094a1 1 0 0 0-.694.07l-.333.165c-.323.159-.96.44-1.936.735.088-.439.157-.883.207-1.33l.053-.478a1 1 0 0 0-.287-.817l-.34-.34C4.678 14.87 4 13.354 4 11.74 4 8.256 7.316 5 11.98 5c4.678 0 7.99 3.25 7.99 6.73 0 3.484-3.316 6.74-7.98 6.74a9.605 9.605 0 0 1-2.426-.315Z"/>
</svg>
