<svg xmlns="http://www.w3.org/2000/svg" width="24" height="24" fill="currentColor" viewBox="0 0 24 24">
 <path d="M20.518 16.273c.402-.578.73-1.2.972-1.857.312-.846.48-1.749.48-2.686C21.97 6.9 17.5 3 11.98 3c-.604 0-1.195.047-1.77.137-.779.122-1.527.323-2.233.594l1.587 1.587A9.381 9.381 0 0 1 12 5c4.418 0 8 3.016 8 6.736a5.876 5.876 0 0 1-.904 3.114l1.422 1.423ZM16.885 15.468l-.002.001L15.414 14h.003l-1-1h-.003l-2-2h.003l-1-1h-.003l-2-2h.003l-3.32-3.32h-.002L4.207 2.793a1 1 0 0 0-1.414 1.414L4.52 5.934a9.283 9.283 0 0 0-.102.101C2.911 7.565 2 9.56 2 11.74c0 2.2.93 4.21 2.46 5.74a13.433 13.433 0 0 1-.4 2.08l-.023.084a13.5 13.5 0 0 1-.227.726c-.035.11-.072.217-.11.323l-.008.022a9.391 9.391 0 0 1-.182.465c-.1.23.09.49.34.45.165-.028.33-.057.494-.087l.016-.003a25.003 25.003 0 0 0 1.258-.27c1.755-.423 2.883-.905 3.442-1.18.96.25 1.94.38 2.93.38 2.065 0 3.984-.55 5.576-1.49l2.227 2.227a1 1 0 0 0 1.414-1.414l-2.013-2.014h.001l-2.31-2.311ZM7.117 8.53A1 1 0 0 0 8 10h.586l1 .999H7a1 1 0 1 0 0 2h4.586l1 1H8a1 1 0 1 0 0 2h6.586l1.508 1.508a9.037 9.037 0 0 1-4.104.962 9.605 9.605 0 0 1-2.426-.315l-.36-.094a1 1 0 0 0-.694.07l-.333.165c-.323.159-.96.44-1.936.735.088-.439.157-.883.207-1.33l.053-.478a1 1 0 0 0-.287-.817l-.34-.34C4.678 14.87 4 13.354 4 11.74c0-1.636.694-3.171 1.923-4.381l.01-.01L7.118 8.53Z"/>
  <path d="M16 8h-3.754l1.995 2H16a1 1 0 1 0 0-2ZM15.239 11l1.972 1.978A1 1 0 0 0 17 11h-1.761Z"/>
  <path stroke-width="2" d="m16.885 16.882.896.896-.002.001-.005-.005-.05-.05-.84-.84v-.002Zm-.337 1.517.004-.002-.004.002Zm-11.602 2-.099.02c.054-.166.105-.334.153-.503v-.003l.024-.084v-.003c.09-.327.17-.658.236-.992l-.314 1.564ZM5.958 5.954 7.003 7H7l-.359-.359-.685-.685h.002Zm2.39 2.392.36.36L9 9H8l.347-.653Zm1.528-4.13-.002-.003a10.182 10.182 0 0 1 .002.002Zm5.728.432Z"/>
</svg>
