<svg xmlns="http://www.w3.org/2000/svg" width="24" height="24" fill="currentColor" viewBox="0 0 24 24">
  <path d="m6.76,21.43h0c.39.39,1.02.39,1.41,0l.44-.44c.39-.39.39-1.02,0-1.41h0c-.39-.39-1.02-.39-1.41,0l-.44.44c-.39.39-.39,1.02,0,1.41Zm-4-3h0c.39.39,1.02.39,1.41,0l.44-.44c.39-.39.39-1.02,0-1.41h0c-.39-.39-1.02-.39-1.41,0l-.44.44c-.39.39-.39,1.02,0,1.41Zm8.44-1.85l-.44.44c-.39.39-.39,1.02,0,1.41h0c.39.39,1.02.39,1.41,0l.44-.44c.39-.39.39-1.02,0-1.41h0c-.39-.39-1.02-.39-1.41,0Zm6.56,1.85h0c.39.39,1.02.39,1.41,0l.44-.44c.39-.39.39-1.02,0-1.41h0c-.39-.39-1.02-.39-1.41,0l-.44.44c-.39.39-.39,1.02,0,1.41Zm-4,3h0c.39.39,1.02.39,1.41,0l.44-.44c.39-.39.39-1.02,0-1.41h0c-.39-.39-1.02-.39-1.41,0l-.44.44c-.39.39-.39,1.02,0,1.41Zm-6.21-6.43c-2.9,0-5.25-2.35-5.25-5.25s2.35-5.25,5.25-5.25c.31,0,.62.03.95.1,1.02-1.72,2.88-2.8,4.9-2.8,3.11,0,5.64,2.5,5.7,5.59,1.22.39,2.18,1.37,2.55,2.62h0c.29,1,.17,2.05-.33,2.97-.5.91-1.33,1.57-2.33,1.86-.33.1-.67.14-1.08.14H7.56Zm0-8.99c-2.07,0-3.75,1.68-3.75,3.75s1.68,3.75,3.75,3.75h10.36c.26-.02.47-.04.66-.1.62-.18,1.13-.59,1.43-1.15.31-.56.38-1.21.2-1.82h0c-.26-.91-1.04-1.58-1.98-1.71l-.71-.1.07-.72c.01-.14.02-.27.02-.41,0-2.32-1.88-4.2-4.2-4.2-1.65,0-3.15.97-3.83,2.48l-.27.61-.63-.2c-.42-.13-.77-.19-1.11-.19Z"/>
</svg>
