<svg xmlns="http://www.w3.org/2000/svg" width="24" height="24" fill="currentColor" viewBox="0 0 24 24">
  <path d="M17.2 6.4h-3.6V2.8c0-.99-.81-1.8-1.8-1.8h-9C1.81 1 1 1.81 1 2.8v9c0 .99.81 1.8 1.8 1.8h3.6v3.6c0 .99.81 1.8 1.8 1.8h2.612l1.806-1.8H8.2v-5.4H2.8v-9h9v5.4h5.4v4.412l1.8-1.8V8.2c0-.99-.81-1.8-1.8-1.8ZM18.76 13.9l-6.67 6.65c-.06.06-.09.13-.09.22v1.86c0 .17.13.31.31.31h1.86c.08 0 .16-.03.21-.09l6.67-6.66-2.29-2.29ZM22.81 13.55l-1.43-1.43a.605.605 0 0 0-.86 0l-1.12 1.12 2.29 2.29 1.12-1.12a.607.607 0 0 0 0-.86Z"/>
</svg>
