<svg xmlns="http://www.w3.org/2000/svg" width="24" height="24" fill="currentColor" viewBox="0 0 24 24">
  <path d="M9 15.5v2c0 .28-.22.5-.5.5h-2c-.28 0-.5-.22-.5-.5v-2c0-.28.22-.5.5-.5h2c.28 0 .5.22.5.5M22 11v10c0 .55-.45 1-1 1H3c-.55 0-1-.45-1-1V3.5c0-.28.22-.5.5-.5h2c.28 0 .5.22.5.5V10h1V7.93c0-.4.45-.64.78-.42L11 10.33v-2.4c0-.4.45-.64.78-.42L16 10.33v-2.4c0-.4.45-.64.78-.42L22 10.99Zm-2 9v-8H4v8zm-6.5-5h-2c-.28 0-.5.22-.5.5v2c0 .28.22.5.5.5h2c.28 0 .5-.22.5-.5v-2c0-.28-.22-.5-.5-.5m5 0h-2c-.28 0-.5.22-.5.5v2c0 .28.22.5.5.5h2c.28 0 .5-.22.5-.5v-2c0-.28-.22-.5-.5-.5"/>
</svg>
