<svg xmlns="http://www.w3.org/2000/svg" width="24" height="24" viewBox="0 0 24 24">
  <path d="M12.89 15.35 10.24 18c-.29.29-.77.29-1.06 0a.754.754 0 0 1 0-1.06l1.19-1.19H3c-.41 0-.75-.34-.75-.75s.34-.75.75-.75h7.38l-1.19-1.19c-.29-.29-.29-.77 0-1.06s.77-.29 1.06 0l2.65 2.65c.2.2.2.51 0 .71ZM20 8.42v11.59c0 1.1-.9 2-2 2H6c-1.1 0-2-.9-2-2V18c0-.55.45-1 1-1s1 .45 1 1v2h12V10h-5c-.55 0-1-.45-1-1V4H6v8c0 .55-.45 1-1 1s-1-.45-1-1V4.01c0-1.1.9-2 2-2h7.59c.27 0 .52.1.71.29l5.41 5.41c.18.19.29.44.29.71M17 8l-3-3v3z"/>
</svg>
