<svg xmlns="http://www.w3.org/2000/svg" width="24" height="24" fill="currentColor" viewBox="0 0 24 24">
<path d="m21.68 13.56-3.78-1.7c-.26-.12-.57-.13-.84-.02l-3.74 1.46c-.23.09-.37.32-.34.56l.14 1.02c.39 2.87 1.81 5.5 4.01 7.4.1.09.22.13.35.13s.25-.04.35-.13c2.2-1.9 3.63-4.53 4.04-7.4l.11-.77a.517.517 0 0 0-.31-.55Zm-.85 1.17a10.97 10.97 0 0 1-3.34 6.43v-8.31l3.38 1.52-.05.37ZM4.49 19.99v-16h6v5c0 .55.45 1 1 1h5v.78h.03c.29-.13.61-.19.94-.19.36 0 .7.08 1.03.22V8.41c0-.27-.11-.52-.29-.71l-5.12-5.12c-.38-.38-.88-.59-1.41-.59H4.5c-1.1 0-2 .9-2 2v16c0 1.1.9 2 2 2h10.27c-.54-.63-1.01-1.29-1.42-2H4.49Zm8-15 3 3h-3v-3Z"/>
</svg>
