<svg xmlns="http://www.w3.org/2000/svg" width="24" height="24" fill="currentColor" viewBox="0 0 24 24">
  <path d="M19.71 7.71 14.3 2.3a.99.99 0 0 0-.71-.29H6c-1.1 0-2 .9-2 2v16c0 1.1.9 2 2 2h12c1.1 0 2-.9 2-2V8.42c0-.27-.11-.52-.29-.71ZM18 20H6V4h6v5c0 .55.45 1 1 1h5v10Zm-6.1-7.18.34-1.82h-1.25l-.34 1.82H9.31v1.21h1.11l-.14.78H9V16h1.05l-.34 1.83h1.25l.33-1.83h.78l-.34 1.83h1.25l.35-1.83h1.35v-1.19h-1.13l.14-.78h1.29v-1.21h-1.07l.34-1.82H13l-.34 1.82h-.77Zm.4 1.99h-.77l.14-.78h.77l-.14.78Z"/>
</svg>
