<svg xmlns="http://www.w3.org/2000/svg" width="24" height="24" fill="currentColor" viewBox="0 0 24 24">
  <path d="M5 13.94c.55 0 1-.45 1-1v-9h6v5c0 .55.45 1 1 1h5v3c0 .55.45 1 1 1s1-.45 1-1V8.35c0-.27-.11-.52-.29-.71L14.3 2.23a.99.99 0 0 0-.71-.29H6c-1.1 0-2 .9-2 2v9c0 .55.45 1 1 1Zm-.64 1.14H2v6.82h2.21c1.14 0 2.02-.31 2.64-.92.63-.62.94-1.49.94-2.63 0-1.06-.3-1.87-.89-2.43-.6-.56-1.44-.84-2.54-.84Zm1.13 4.83c-.26.33-.67.49-1.23.49h-.41v-3.82h.54c.5 0 .88.15 1.13.45.25.3.37.77.37 1.39 0 .67-.13 1.17-.39 1.49Zm14.52.58c-1 0-1.5-.66-1.5-1.97 0-.63.12-1.13.37-1.49.25-.36.59-.54 1.03-.54.29 0 .56.04.81.12s.5.18.76.3l.56-1.45c-.67-.32-1.38-.48-2.11-.48-.67 0-1.26.14-1.76.43s-.88.7-1.15 1.23c-.27.54-.4 1.16-.4 1.86 0 1.13.27 1.99.82 2.59.55.6 1.34.9 2.37.9.72 0 1.36-.13 1.93-.38v-1.56c-.29.12-.57.22-.85.3s-.58.13-.88.13Zm-7.68-5.51c-1.08 0-1.91.3-2.48.9-.57.6-.85 1.47-.85 2.6s.29 2.02.86 2.62c.57.6 1.39.9 2.46.9s1.91-.3 2.47-.9c.56-.6.84-1.47.84-2.62s-.28-2.02-.84-2.62c-.56-.59-1.38-.89-2.47-.89Zm1.03 5c-.23.32-.57.48-1.04.48-.92 0-1.38-.66-1.38-1.98s.46-2 1.39-2c.45 0 .8.16 1.02.49s.34.83.34 1.51-.11 1.18-.34 1.5Z"/>
</svg>
