<svg xmlns="http://www.w3.org/2000/svg" width="24" height="24" fill="currentColor" viewBox="0 0 24 24">
  <path d="m5,13.94c.55,0,1-.45,1-1V3.94h6v5c0,.55.45,1,1,1h5v3c0,.55.45,1,1,1s1-.45,1-1v-4.59c0-.27-.11-.52-.29-.71l-5.41-5.41c-.19-.19-.44-.29-.71-.29h-7.59c-1.1,0-2,.9-2,2v9c0,.55.45,1,1,1ZM14,5l3,3h-3v-3ZM2,16.83h1.92v5.17h1.8v-5.17h1.92v-1.49H2v1.49Zm17.12-1.49h-2.49v6.66h1.78v-2.12h.71c1.31,0,2.88-.3,2.88-2.27s-1.46-2.27-2.88-2.27Zm.06,3.17h-.77v-1.71h.77c.84,0,1.06.35,1.06.86s-.23.85-1.06.85Zm-7.18,1.35h-.02l-1.17-4.52h-2.39v6.66h1.6v-4.21h.02c.14.87.23,1.17.38,1.71l.68,2.5h1.58l.7-2.5c.14-.51.25-.94.36-1.62h.02v4.12h1.72v-6.66h-2.44l-1.05,4.52Z"/>
</svg>
