<svg xmlns="http://www.w3.org/2000/svg" width="24" height="24" fill="currentColor" viewBox="0 0 24 24">
  <path d="m7.14 15.18-1.43 2.09c-.28.4-.47.69-.57.87v-2.96H3.29V22h1.85v-2.28l.55-.33L7.04 22h2.08l-2.11-3.77 2.15-3.06H7.14ZM5 13.94c.55 0 1-.45 1-1v-9h6v5c0 .55.45 1 1 1h5v3c0 .55.45 1 1 1s1-.45 1-1V8.35c0-.27-.11-.52-.29-.71L14.3 2.23a.99.99 0 0 0-.71-.29H6c-1.1 0-2 .9-2 2v9c0 .55.45 1 1 1ZM9.86 22h4.05v-1.5H11.7v-1.29h2.04v-1.48H11.7v-1.07h2.21v-1.48H9.86V22Zm8.85-6.82-1.18 2.53-1.17-2.53h-2.01l2.25 4.21V22h1.86v-2.67l2.24-4.16h-2Z"/>
</svg>
