<svg xmlns="http://www.w3.org/2000/svg" width="24" height="24" fill="currentColor" viewBox="0 0 24 24">
  <path d="M2.68,2.67c.38-.38,1.02-.38,1.4,0l17.06,17.04c.38.4.38,1.02,0,1.42-.2.19-.46.29-.71.29s-.52-.09-.71-.29l-5.3-5.3-2.82-2.81h-4.61c-.56,0-.99-.46-.99-.99s.45-.99.99-.99h2.6l-3.01-3.01h-2.6c-.56,0-.99-.46-.99-.99s.45-.99.99-.99h.58l-1.9-1.9c-.38-.4-.38-1.02,0-1.4v-.04l.02-.02ZM13.01,16.01c.56,0,.99.46.99.99s-.46.99-.99.99h-2.01c-.56,0-.99-.46-.99-.99s.46-.99.99-.99h2.01ZM17.03,11.01c.56,0,.99.45.99.99s-.46.99-.99.99h-.19l-2.01-2.01h2.19v.02ZM20.04,5.99c.56,0,.99.46.99.99s-.46.99-.99.99h-8.21l-2.01-2.01h10.21v.02Z"/>
</svg>
