<svg xmlns="http://www.w3.org/2000/svg" height="24" width="24" viewBox="0 0 24 24" fill="currentColor">
  <path d="M4.32,4.33c.32-.32.85-.32,1.17,0l14.18,14.16c.32.33.32.85,0,1.18-.17.16-.38.24-.59.24s-.43-.07-.59-.24l-4.41-4.41-2.34-2.33h-3.83c-.46,0-.83-.38-.83-.83,0-.46.37-.83.83-.83h2.16l-2.5-2.5h-2.16c-.46,0-.83-.38-.83-.83,0-.46.37-.83.83-.83h.49l-1.58-1.58c-.32-.33-.32-.85,0-1.17ZM12.91,15.42c.46,0,.83.38.83.83,0,.46-.38.83-.83.83h-1.67c-.46,0-.83-.38-.83-.83,0-.46.38-.83.83-.83h1.67ZM16.25,11.26c.46,0,.83.37.83.83,0,.46-.38.83-.83.83h-.15l-1.67-1.67h1.81ZM18.75,7.09c.46,0,.83.38.83.83,0,.46-.38.83-.83.83h-6.82l-1.67-1.67h8.49Z"/>
</svg>
