<svg xmlns="http://www.w3.org/2000/svg" width="24" height="24" fill="currentColor" viewBox="0 0 24 24">
  <path d="m6.06 18 1.15-6.5h8.21c.8-.32 1.67-.5 2.58-.5 1.31 0 2.53.37 3.58.99l.03-.15c.22-1.22-.73-2.35-1.97-2.35H7.21c-.97 0-1.8.7-1.97 1.65l-1.21 6.85H4V6h5l2 2h10c.55 0 1-.45 1-1s-.45-1-1-1h-9l-1.71-1.71A1 1 0 0 0 9.58 4H3.99c-1.1 0-2 .9-2 2v12.32c0 .93.75 1.68 1.68 1.68h7.62c-.19-.63-.29-1.3-.29-2zm16.91-.8a5.03 5.03 0 1 0-5.76 5.76 5.03 5.03 0 0 0 5.76-5.76m-2.4.89c-.2.19-.51.19-.71 0l-1.36-1.38v3.78c0 .28-.22.5-.5.5s-.5-.22-.5-.5V16.7l-1.38 1.39a.485.485 0 0 1-.7 0c-.2-.19-.2-.51 0-.71l2.23-2.24c.05-.05.1-.08.16-.11s.13-.04.19-.04c.07 0 .13.01.19.04s.12.06.16.11l2.22 2.24c.19.2.19.51 0 .71"/>
</svg>
