<svg xmlns="http://www.w3.org/2000/svg" width="24" height="24" fill="currentColor" viewBox="0 0 24 24">
  <path d="m7.21,11.5h12.43l-.09.5,1.9.76.16-.91c.22-1.22-.73-2.35-1.97-2.35H7.21c-.97,0-1.8.7-1.97,1.65l-1.21,6.85h-.03V6h5l2,2h10c.55,0,1-.45,1-1s-.45-1-1-1h-9l-1.71-1.71c-.19-.19-.44-.29-.71-.29h-5.59c-1.1,0-2,.9-2,2v12.32c0,.93.75,1.68,1.68,1.68h7.82v-2h-5.44l1.15-6.5Z"/>
  <path d="m22.37,14.75l-4-1.6c-.12-.05-.25-.07-.37-.07s-.25.02-.37.07l-4,1.6c-.38.15-.63.52-.63.93v4.65c0,.41.25.78.63.93l4,1.6c.12.05.25.07.37.07s.25-.02.37-.07l4-1.6c.38-.15.63-.52.63-.93v-4.65c0-.41-.25-.78-.63-.93Zm-5.13,6.32l-2.74-1.09v-2.77l2.74,1.09v2.77Zm.76-4.07l-2.98-1.19,2.97-1.18,2.99,1.18-2.98,1.19Zm3.5,2.98l-2.74,1.09v-2.77l2.74-1.09v2.77Z"/>
</svg>
