<svg xmlns="http://www.w3.org/2000/svg" width="24" height="24" fill="currentColor" viewBox="0 0 24 24">
  <path d="M7.21 11.5h12.43l-.09.5 1.9.76.16-.91c.22-1.22-.73-2.35-1.97-2.35H7.21c-.97 0-1.8.7-1.97 1.65L4.03 18H4V6h5l2 2h10c.55 0 1-.45 1-1s-.45-1-1-1h-9l-1.71-1.71A1 1 0 0 0 9.58 4H3.99c-1.1 0-2 .9-2 2v12.32c0 .93.75 1.68 1.68 1.68h7.82v-2H6.05l1.15-6.5Z"/>
  <path d="m22.37 14.75-4-1.6c-.12-.05-.25-.07-.37-.07s-.25.02-.37.07l-4 1.6a1 1 0 0 0-.63.93v4.65a1 1 0 0 0 .63.93l4 1.6c.12.05.25.07.37.07s.25-.02.37-.07l4-1.6a1 1 0 0 0 .63-.93v-4.65a1 1 0 0 0-.63-.93m-5.13 6.32-2.74-1.09v-2.77l2.74 1.09zM18 17l-2.98-1.19 2.97-1.18 2.99 1.18zm3.5 2.98-2.74 1.09V18.3l2.74-1.09z"/>
</svg>
