<svg xmlns="http://www.w3.org/2000/svg" width="24" height="24" fill="currentColor" viewBox="0 0 24 24">
<path d="M11.236 12.91V4.124a1 1 0 0 0-1-1H5a1 1 0 0 0-1 1v11.639A3 3 0 1 0 8.83 19h2.22a2.508 2.508 0 0 1 2.45-2 2.512 2.512 0 0 1 1 .208v-1.966a1.002 1.002 0 0 0-.5-.867.995.995 0 0 0-.5-.133h-1.187a8.63 8.63 0 0 0-1.077-1.333Zm-3.497-2.076A14.537 14.537 0 0 0 6 10.49c-.17-.023-.337-.044-.503-.062L5.501 4.5H9.74v7.2a8.632 8.632 0 0 0-.584-.34c-.387-.207-.878-.382-1.416-.526ZM6 12.512c.944.149 1.773.377 2.215.612.153.082.302.17.448.262l.627.4.523.53c.308.311.586.654.828 1.023l.301.458A4.523 4.523 0 0 0 9.758 17h-.403A3.501 3.501 0 0 0 6 14.5v-1.988ZM6 16.5a1.5 1.5 0 1 1 .001 3 1.5 1.5 0 0 1-.001-3ZM16 20h5v-1.624h-3.378V6.696a.811.811 0 1 0-1.622 0V20Zm-3.272.786a1.493 1.493 0 0 0 1.272.129 1.504 1.504 0 0 0 1-1.415 1.496 1.496 0 0 0-1.5-1.5 1.5 1.5 0 0 0-.772 2.786Z"/>
</svg>
