<svg xmlns="http://www.w3.org/2000/svg" width="24" height="24" fill="currentColor" viewBox="0 0 24 24">
  <path d="M19.75 12.5h-6c-.69 0-1.25.56-1.25 1.25v6c0 .69.56 1.25 1.25 1.25h6c.69 0 1.25-.56 1.25-1.25v-6c0-.69-.56-1.25-1.25-1.25Zm-.25 7H14V14h2v2h2v-2h1.5v5.5Zm-9.25-7h-6c-.69 0-1.25.56-1.25 1.25v6c0 .69.56 1.25 1.25 1.25h6c.69 0 1.25-.56 1.25-1.25v-6c0-.69-.56-1.25-1.25-1.25Zm-.25 7H4.5V14H6v2h2v-2h2v5.5ZM9 12h6c.69 0 1.25-.56 1.25-1.25v-6c0-.69-.56-1.25-1.25-1.25H9c-.69 0-1.25.56-1.25 1.25v6c0 .69.56 1.25 1.25 1.25Zm.25-7H11v2h2V5h1.75v5.5h-5.5V5Z"/>
</svg>
