<svg xmlns="http://www.w3.org/2000/svg" width="24" height="24" fill="currentColor" viewBox="0 0 24 24">
  <path d="M15.95 7.2c.53 0 1.04.21 1.41.59.78.78.78 2.05 0 2.83l-1.12 1.12L12 15.98l-4.24-4.24-1.12-1.12c-.78-.78-.78-2.05 0-2.83a1.983 1.983 0 0 1 2.82 0l1.12 1.12 1.41 1.41 1.41-1.41 1.12-1.12c.38-.38.88-.59 1.41-.59m0-2c-1.02 0-2.05.39-2.83 1.17l-1.12 1.12-1.12-1.12c-.78-.78-1.8-1.17-2.83-1.17s-2.05.39-2.83 1.17a4.008 4.008 0 0 0 0 5.66l1.12 1.12 5.66 5.66 5.66-5.66 1.12-1.12a4.008 4.008 0 0 0 0-5.66c-.78-.78-1.8-1.17-2.83-1.17Z"/>
</svg>
