<svg xmlns="http://www.w3.org/2000/svg" width="24" height="24" fill="currentColor" viewBox="0 0 24 24">
  <path d="M17.176 11a.994.994 0 0 0 .563-.31L21 7.11c1-1 .94-2.659-.175-3.583-.975-.805-2.326-.527-3.22.367L17 4.5l-.605-.605c-.894-.894-2.245-1.172-3.22-.367A2.421 2.421 0 0 0 13 7.112l3.26 3.577a.995.995 0 0 0 .916.311ZM14 13a1 1 0 0 0-1 1v6a1 1 0 0 0 1 1h6a1 1 0 0 0 1-1v-6a1 1 0 0 0-1-1h-6Zm-6.998-2H10.3a1 1 0 0 0 .875-1.486l-3.3-5.94a1 1 0 0 0-1.75 0l-3.3 5.94A1 1 0 0 0 3.7 11h3.303ZM11 17a4 4 0 1 0-8 0 4 4 0 0 0 8 0Zm3.448-11.93a.122.122 0 0 1 .023-.016h.002c.001 0 .02-.005.063 0 .096.014.27.08.445.255L17 7.33l2.019-2.02c.175-.175.35-.24.445-.254.043-.006.063-.001.064 0 0-.001 0 0 0 0h.003l.02.014a.425.425 0 0 1 .035.628l-.033.033L17 8.53l-2.553-2.8-.033-.034a.421.421 0 0 1 .034-.627ZM15 15h4v4h-4v-4ZM7 6.118 8.6 9H5.4l1.6-2.882ZM5 17a2 2 0 1 1 4 0 2 2 0 0 1-4 0Z"/>
</svg>
