<svg xmlns="http://www.w3.org/2000/svg" width="24" height="24" fill="currentColor" viewBox="0 0 24 24">
  <path d="M9.22 10.9c.92 0 1.67-.75 1.67-1.67 0-.92-.75-1.67-1.67-1.67-.92 0-1.67.75-1.67 1.67 0 .92.75 1.67 1.67 1.67Z"/>
  <path d="M19.98 1.96H3.94c-1.1 0-2 .9-2 2V20c0 1.1.9 2 2 2h8.436a6.486 6.486 0 0 1-1.062-2H3.94V3.96h16.04v8.03a6.506 6.506 0 0 1 2 1.3V3.96c0-1.1-.9-2-2-2Z"/>
  <path d="M21.98 15.777a5.022 5.022 0 0 0-2-2.12A4.976 4.976 0 0 0 17.5 13a5 5 0 0 0-4.956 5.67l.001.005c.063.465.19.91.371 1.325a5.019 5.019 0 0 0 1.583 2c.836.628 1.875 1 3.001 1a4.98 4.98 0 0 0 3.133-1.103l.016-.013a5.02 5.02 0 0 0 1.34-1.68A4.98 4.98 0 0 0 22.5 18a4.98 4.98 0 0 0-.5-2.182l-.02-.04Zm-7.064 2.893a.748.748 0 0 1 .334-1.419h1.503v-1.503A.745.745 0 0 1 17.5 15c.414 0 .749.335.749.748v1.504h1.503A.747.747 0 0 1 20.5 18a.749.749 0 0 1-.748.748H18.25v1.503a.748.748 0 1 1-1.497 0v-1.503H15.25a.746.746 0 0 1-.334-.078ZM11.034 18.67a6.575 6.575 0 0 1 .008-1.41l-.162.18-2.36-2.63a.553.553 0 0 0-.83 0l-2.64 2.93c-.32.36-.07.93.41.93h5.574Z"/>
</svg>
