<svg xmlns="http://www.w3.org/2000/svg" width="24" height="24" fill="currentColor" viewBox="0 0 24 24">
<path d="m10.88 17.44 2.44-2.706 3.945 3.945L5.46 18.67c-.48 0-.73-.57-.41-.93l2.64-2.93c.22-.25.61-.25.83 0l2.36 2.63Z"/>
  <path d="M21.932 20.517v-.002l-5.02-5.02.026.029-2.13-2.13h.003l-3.937-3.937v.003L8.99 7.576h.003L3.485 2.067h-.002l-.776-.775a1 1 0 0 0-1.414 1.414l.775.776A1.985 1.985 0 0 0 2 4v16c0 1.1.9 2 2 2h16c.179 0 .352-.024.517-.068l.776.775a1 1 0 0 0 1.414-1.414l-.775-.776ZM4.732 6.144H4.73l10.794 10.794.001-.001L18.59 20H4V5.411l.733.733ZM22 17.755V4c0-1.1-.9-2-2-2H6.246l2 2H20v11.755l2 2Z"/>
</svg>
