<svg xmlns="http://www.w3.org/2000/svg" width="24" height="24" fill="currentColor" viewBox="0 0 24 24">
<path d="M4.5 3.5v16.01h5.81c.24.73.61 1.41 1.07 2H3.5c-.55 0-1-.45-1-1v-18c0-.55.45-1 1-1h8.59a.99.99 0 0 1 .71.29l5.41 5.41c.18.19.29.44.29.71v3.4a6.3 6.3 0 0 0-2-.32V9.5h-5c-.55 0-1-.45-1-1v-5h-6Z"/>
  <path d="M11.5 17.5c0-2.76 2.24-5 5-5s5 2.24 5 5-2.24 5-5 5-5-2.24-5-5Zm4.386 3.007h1.058V18.96h1.444V18.4h-1.444v-.616h1.444v-.562h-1.14l1.61-2.695h-1.196l-.8 1.647c-.121.262-.22.513-.31.74l-.077.198h-.019l-.09-.226c-.085-.219-.173-.441-.296-.694l-.773-1.665h-1.223l1.527 2.695h-1.15v.562h1.435v.616h-1.435v.561h1.435v1.546Z"/>
</svg>
