<svg xmlns="http://www.w3.org/2000/svg" width="24" height="24" fill="currentColor" viewBox="0 0 24 24">
  <path d="M7.56 15a5.25 5.25 0 1 1 0-10.5c.31 0 .62.03.95.1a5.71 5.71 0 0 1 4.9-2.8c3.11 0 5.64 2.5 5.7 5.59 1.22.39 2.18 1.37 2.55 2.62A3.9 3.9 0 0 1 19 14.84c-.33.1-.67.14-1.08.14H7.56Zm0-8.99c-2.07 0-3.75 1.68-3.75 3.75s1.68 3.75 3.75 3.75h10.36c.26-.02.47-.04.66-.1.62-.18 1.13-.59 1.43-1.15.31-.56.38-1.21.2-1.82a2.4 2.4 0 0 0-1.98-1.71l-.71-.1.07-.72c.01-.14.02-.27.02-.41a4.2 4.2 0 0 0-8.03-1.72l-.27.61-.63-.2C8.26 6.06 7.91 6 7.57 6Zm6.7 12.43h-2.04l2.42-2.4h-3.27l-2.32 3.2h1.58l-2.38 3.2z"/>
</svg>
