<svg xmlns="http://www.w3.org/2000/svg" width="24" height="24" viewBox="0 0 24 24">
  <path d="m5.88,17.25c-.84-1.24-.58-2.93.48-3.99l2.07-2.07c.37-.37.37-.97,0-1.34h0c-.37-.37-.97-.37-1.34,0l-2,2c-1.85,1.85-2.15,4.84-.49,6.86,1.91,2.31,5.34,2.43,7.4.37l2.16-2.16c.37-.37.37-.97,0-1.34h0c-.37-.37-.97-.37-1.34,0l-2.16,2.16c-1.35,1.35-3.65,1.19-4.78-.48Zm4.71-2.42l4.24-4.24c.39-.39.39-1.02,0-1.41h0c-.39-.39-1.02-.39-1.41,0l-4.24,4.24c-.39.39-.39,1.02,0,1.41h0c.39.39,1.02.39,1.41,0Zm1.26-9.75l-2,2c-.37.37-.37.97,0,1.34h0c.37.37.97.37,1.34,0l2.07-2.07c1.06-1.06,2.75-1.32,3.99-.48,1.67,1.13,1.83,3.43.48,4.78l-2.16,2.16c-.37.37-.37.97,0,1.34h0c.37.37.97.37,1.34,0l2.16-2.16c2.07-2.07,1.94-5.5-.37-7.4-2.01-1.66-5.01-1.36-6.86.49Z"/>
</svg>
