<svg xmlns="http://www.w3.org/2000/svg" width="24" height="24" viewBox="0 0 24 24">
  <path d="m14.48,10.93l.34-.34c.39-.39.39-1.02,0-1.41h0c-.39-.39-1.02-.39-1.41,0l-.34.34,1.41,1.41Zm-1.14-4.66c1.35-1.35,3.65-1.19,4.78.48.84,1.24.58,2.93-.48,3.99l-1,1c-.37.37-.37.97,0,1.34h0c.37.37.97.37,1.34,0l.93-.93c1.85-1.85,2.15-4.84.49-6.86-1.91-2.31-5.34-2.43-7.4-.37l-1.09,1.09c-.37.37-.37.97,0,1.34h0c.37.37.97.37,1.34,0l1.09-1.09Zm-3.81,6.78l-.36.36c-.39.39-.39,1.02,0,1.41h0c.39.39,1.02.39,1.41,0l.36-.36-1.41-1.41Zm1.12,4.68c-1.35,1.35-3.65,1.19-4.78-.48-.84-1.24-.58-2.93.48-3.99l1.02-1.02c.37-.37.37-.97,0-1.34h0c-.37-.37-.97-.37-1.34,0l-.95.95c-1.85,1.85-2.15,4.84-.49,6.86,1.91,2.31,5.34,2.43,7.4.37l1.11-1.11c.37-.37.37-.97,0-1.34h0c-.37-.37-.97-.37-1.34,0l-1.11,1.11ZM4.93,6.34l12.73,12.73c.39.39,1.02.39,1.41,0h0c.39-.39.39-1.02,0-1.41L6.34,4.93c-.39-.39-1.02-.39-1.41,0h0c-.39.39-.39,1.02,0,1.41Z"/>
</svg>
