<svg xmlns="http://www.w3.org/2000/svg" width="24" height="24" fill="currentColor" viewBox="0 0 24 24">
<path d="M3.5 5a1 1 0 0 1 1-1h3a1 1 0 0 1 1 1v2a1 1 0 0 1-1 1h-3a1 1 0 0 1-1-1V5ZM19 19h-8c-.55 0-1-.45-1-1s.45-1 1-1h8c.55 0 1 .45 1 1s-.45 1-1 1ZM19 13h-8c-.55 0-1-.45-1-1s.45-1 1-1h8c.55 0 1 .45 1 1s-.45 1-1 1ZM11 7c-.55 0-1-.45-1-1s.45-1 1-1h8c.55 0 1 .45 1 1s-.45 1-1 1h-8ZM6 20a2 2 0 1 0 0-4 2 2 0 0 0 0 4ZM6.437 10.287a.5.5 0 0 0-.874 0l-1.65 2.97A.5.5 0 0 0 4.35 14h3.3a.5.5 0 0 0 .437-.743l-1.65-2.97Z"/>
</svg>
