<svg xmlns="http://www.w3.org/2000/svg" width="24" height="24" fill="currentColor" viewBox="0 0 24 24">
  <path d="M3.5 5a1 1 0 0 1 1-1h3a1 1 0 0 1 1 1v2a1 1 0 0 1-1 1h-3a1 1 0 0 1-1-1zM19 19h-8c-.55 0-1-.45-1-1s.45-1 1-1h8c.55 0 1 .45 1 1s-.45 1-1 1m0-6h-8c-.55 0-1-.45-1-1s.45-1 1-1h8c.55 0 1 .45 1 1s-.45 1-1 1m-8-6c-.55 0-1-.45-1-1s.45-1 1-1h8c.55 0 1 .45 1 1s-.45 1-1 1zM6 20a2 2 0 1 0 0-4 2 2 0 0 0 0 4m.437-9.713a.5.5 0 0 0-.874 0l-1.65 2.97A.5.5 0 0 0 4.35 14h3.3a.5.5 0 0 0 .437-.743z"/>
</svg>
