<svg xmlns="http://www.w3.org/2000/svg" width="24" height="24" fill="currentColor" viewBox="0 0 24 24">
  <path d="m21,11h-1.07c-.46-3.62-3.31-6.47-6.93-6.93v-1.07c0-.55-.45-1-1-1h0c-.55,0-1,.45-1,1v1.07c-3.62.46-6.47,3.31-6.93,6.93h-1.07c-.55,0-1,.45-1,1h0c0,.55.45,1,1,1h1.07c.46,3.62,3.31,6.47,6.93,6.93v1.07c0,.55.45,1,1,1h0c.55,0,1-.45,1-1v-1.07c3.62-.46,6.47-3.31,6.93-6.93h1.07c.55,0,1-.45,1-1h0c0-.55-.45-1-1-1Zm-9,7c-3.74,0-6.67-3.41-5.87-7.29.47-2.27,2.31-4.1,4.57-4.57,3.88-.81,7.29,2.13,7.29,5.87,0,3.31-2.69,6-6,6Zm3-6c0,1.66-1.34,3-3,3s-3-1.34-3-3,1.34-3,3-3,3,1.34,3,3Z"/>
</svg>
