<svg xmlns="http://www.w3.org/2000/svg" width="24" height="24" viewBox="0 0 24 24">
  <path d="m18.99,12.97c.07-.51-.33-.97-.85-.97-.42,0-.77.3-.83.71-.37,2.61-2.72,4.39-5.25,4.39s-4.88-1.77-5.25-4.39c-.06-.41-.42-.71-.83-.71-.52,0-.92.46-.85.97.46,2.97,2.96,5.3,5.93,5.75v1.28h-2.06c-.55,0-1,.45-1,1s.45,1,1,1h6c.55,0,1-.45,1-1s-.45-1-1-1h-1.94v-1.28c2.96-.43,5.47-2.78,5.93-5.75Zm-6.93,2.03c1.66,0,2.99-1.34,2.99-3v-6c.01-1.66-1.33-3-2.99-3s-3,1.34-3,3v6c0,1.66,1.34,3,3,3Zm-1-9c0-.55.45-1,1-1s1,.45,1,1v6c-.01.56-.44,1-1,1s-1-.45-1-1v-6Z"/>
</svg>
