<svg xmlns="http://www.w3.org/2000/svg" width="24" height="24" fill="currentColor" viewBox="0 0 24 24">
<path d="m7.08 5.638-.021.007-2.856-2.856A1 1 0 1 0 2.79 4.203l2.16 2.16L3.67 6.8a1 1 0 0 0-.68.95l.05 8.64c0 .39.23.74.58.9l7.94 3.63c.26.12.56.12.82 0l4.925-2.201 2.485 2.485a1 1 0 0 0 1.414-1.414l-1.945-1.945.02-.008-1.105-1.104-.018.009-5.436-5.436v-.027L10.793 9.35l-.042-.015-1.906-1.905.042.015L7.08 5.638Zm4.13 6.986v.776l.01 5.74-1.2-.55-.52-.24-4.97-2.27-.02-2.57-.02-3V8.7L7.5 9.78l1.344.478 2.366 2.366Zm4.99 4.991-3.48 1.555v-5.036l3.48 3.481ZM13.498 9.228l-.213-.213-4.094-4.094.299-.101 2.48-.84 8.31 2.76c.4.14.68.52.68.95l.02 8.73c0 .088-.011.175-.033.258l-1.482-1.483-.005-.285V8.72l-2.29.81v2.74l-.455.175L15.17 10.9v-.67l-.495.176-1.177-1.178ZM11.97 5.57l-1.22.42 5.93 2.11 1.41-.5-6.12-2.03Z"/>
</svg>
