<svg xmlns="http://www.w3.org/2000/svg" width="24" height="24" fill="currentColor" viewBox="0 0 24 24">
  <path d="m10.61,16h-3.06c-2.9,0-5.25-2.35-5.25-5.25s2.35-5.25,5.25-5.25c.31,0,.62.03.95.1,1.02-1.72,2.88-2.8,4.9-2.8,3.11,0,5.64,2.5,5.7,5.59,1.22.39,2.18,1.37,2.55,2.62.29,1,.17,2.05-.33,2.97-.07.12-.15.22-.23.33-.19-.49-.47-.94-.84-1.33-.03-.03-.06-.05-.09-.08.17-.47.19-.98.05-1.47h0c-.26-.91-1.04-1.58-1.98-1.71l-.71-.1.07-.72c.01-.14.02-.27.02-.41,0-2.32-1.88-4.2-4.2-4.2-1.65,0-3.15.97-3.83,2.48l-.27.61-.63-.2c-.42-.13-.77-.19-1.11-.19-2.07,0-3.75,1.68-3.75,3.75s1.68,3.75,3.75,3.75h3.81c-.35.43-.62.94-.75,1.5Zm10.56,1.26c.23.86-.28,1.75-1.14,1.98-.15.04-.3.05-.45.05l-5.31-.11h0c-1.27-.03-2.28-1.08-2.26-2.36.03-1.27,1.08-2.29,2.36-2.26.24,0,.47.06.68.13.42-.87,1.32-1.47,2.35-1.45,1.4.03,2.51,1.19,2.48,2.59,0,.08,0,.17-.02.25.61.1,1.14.54,1.31,1.18Z"/>
</svg>
