<svg xmlns="http://www.w3.org/2000/svg" width="24" height="24" fill="currentColor" viewBox="0 0 24 24">
  <path d="M14.44 14.99h6.06c.28 0 .5-.22.5-.5v-3c0-.28-.22-.5-.5-.5h-6.06c-.28 0-.5.22-.5.5v3c0 .28.22.5.5.5m.5-2.99H20v2h-5.06zm-.41-1.97h2.93c.28 0 .5-.22.5-.5V7.5c0-.28-.22-.5-.5-.5h-2.93c-.28 0-.5.22-.5.5v2.03c0 .28.22.5.5.5m.5-2.03h1.93v1.03h-1.93zm-6.54 8.63c-.93 0-1.69.75-1.69 1.69s.75 1.69 1.69 1.69 1.69-.75 1.69-1.69-.75-1.69-1.69-1.69M21 15.95h-2.76c.75.4 1.29 1.13 1.41 2H21c.55 0 1-.45 1-1s-.45-1-1-1m-4 .68c-.93 0-1.69.75-1.69 1.69s.75 1.69 1.69 1.69 1.69-.75 1.69-1.69-.75-1.69-1.69-1.69m-11.03-.68V6.58c0-.55-.45-1-1-1H3c-.55 0-1 .45-1 1s.45 1 1 1h.97v9.37c0 .55.45 1 1 1h.87c.12-.87.66-1.6 1.41-2H5.98Zm1.53-.96h4.97c.28 0 .5-.22.5-.5V7.5c0-.28-.22-.5-.5-.5H7.5c-.28 0-.5.22-.5.5v6.99c0 .28.22.5.5.5M8 8h3.97v5.99H8zm1.73 7.95c.75.4 1.29 1.13 1.41 2h3.21c.12-.87.66-1.6 1.41-2z"/>
</svg>
