<svg xmlns="http://www.w3.org/2000/svg" width="24" height="24" viewBox="0 0 24 24">
  <path d="m20.01,15.73h.01c-1.54-.71-4.38-1.74-8.02-1.73-3.62,0-6.48,1.02-8.02,1.73-1.54.71-1.98,1.27-1.98,2.27,0,.54.29,1.64.55,2.56.25.85,1.03,1.44,1.92,1.44h15.05c.89,0,1.67-.59,1.92-1.44.27-.91.55-2.02.55-2.56,0-1-.44-1.56-1.98-2.27Zm-.49,4.26H4.47c-.4-1.42-.46-1.87-.47-2,.1-.08.33-.23.82-.45,1.25-.58,3.85-1.55,7.18-1.55s5.64.84,7.17,1.54h0c.48.22.71.37.81.45-.02.27-.13.89-.46,2h0Zm-7.52-7.48c2.62,0,4.75-2.13,4.75-4.75s-2.13-4.75-4.75-4.75-4.75,2.13-4.75,4.75,2.13,4.75,4.75,4.75Zm0-7.5c1.52,0,2.75,1.23,2.75,2.75s-1.23,2.75-2.75,2.75-2.75-1.23-2.75-2.75,1.23-2.75,2.75-2.75Z"/>
</svg>
