<svg xmlns="http://www.w3.org/2000/svg" width="24" height="24" fill="currentColor" viewBox="0 0 24 24">
 <path d="M10.17 10.75c2.44 0 4.42-1.98 4.42-4.42s-1.98-4.42-4.42-4.42-4.42 1.98-4.42 4.42 1.98 4.42 4.42 4.42Zm0-6.98c1.42 0 2.56 1.15 2.56 2.56s-1.15 2.56-2.56 2.56-2.56-1.15-2.56-2.56 1.15-2.56 2.56-2.56Zm7.61 12.13v-2.8c0-.36-.3-.65-.65-.65s-.65.3-.65.65v2.98c0 .24.06.42.24.59l2.14 2.14c.24.24.65.24.89 0 .3-.3.3-.65 0-.95l-1.96-1.96Zm-7.83-1.91h.01c.2-.65.5-1.26.86-1.83-.22 0-.42-.02-.65-.02-3.37 0-6.03.95-7.47 1.61-1.43.66-1.84 1.18-1.84 2.11 0 .5.27 1.53.51 2.38.23.79.96 1.34 1.79 1.34h7.28c-.3-.59-.53-1.21-.66-1.87H3.16c-.37-1.32-.43-1.74-.44-1.86.09-.07.31-.21.76-.42 1.14-.53 3.48-1.39 6.47-1.44Zm7.24-3.8c-3.29 0-5.95 2.66-5.95 5.95s2.66 5.95 5.95 5.95 5.95-2.66 5.95-5.95-2.66-5.95-5.95-5.95Zm0 10.4c-2.45 0-4.45-2-4.45-4.45s2-4.45 4.45-4.45 4.45 2 4.45 4.45-2 4.45-4.45 4.45Z"/>
</svg>
