<svg xmlns="http://www.w3.org/2000/svg" width="24" height="24" fill="currentColor" viewBox="0 0 24 24">
  <path d="m14.12,15.47l-1.12,1.12v-4.59c0-.55-.45-1-1-1s-1,.45-1,1v4.59l-1.12-1.12c-.39-.39-1.03-.39-1.41,0s-.39,1.03,0,1.41l2.83,2.83c.39.39,1.03.39,1.41,0l2.83-2.83c.39-.39.39-1.03,0-1.41s-1.03-.39-1.41,0Zm1.66-11.47h-7.54c-2.04-.02-3.9.86-5.18,2.27-.96,1.06-1.61,2.43-1.77,3.95-.07.66.14,1.31.58,1.8.44.49,1.07.77,1.73.77h2.78c.84,0,1.64-.37,2.16-1.03.5-.62.71-1.41.57-2.19l5.78-.03c-.15.79.05,1.6.56,2.24.53.66,1.31,1.04,2.16,1.04h2.78c.66,0,1.29-.27,1.73-.76,0,0,0,0,0,0,.44-.49.66-1.15.59-1.8-.37-3.56-3.35-6.25-6.93-6.26Zm4.86,6.72s-.12.11-.24.11h-2.78c-.32,0-.51-.19-.6-.29-.09-.11-.22-.34-.15-.65.13-.56,0-1.14-.37-1.59-.36-.45-.89-.71-1.47-.71h-6.05c-.57-.01-1.1.24-1.47.69-.36.45-.5,1.03-.37,1.59.07.31-.07.54-.15.65-.08.11-.28.29-.6.29h-2.78c-.13,0-.21-.07-.24-.11-.04-.04-.1-.13-.08-.25.27-2.54,2.4-4.45,4.96-4.45h7.54c2.55.02,4.68,1.93,4.94,4.48.01.13-.06.2-.08.25Z"/>
</svg>
