<svg xmlns="http://www.w3.org/2000/svg" width="24" height="24" fill="currentColor" viewBox="0 0 24 24">
  <path d="m16.64,14.15c-.57-.63-1.38-.96-2.22-.91-.8.05-1.52.43-2.01,1.05l-3.91-4.25c.69-.42,1.15-1.12,1.28-1.92.13-.83-.11-1.67-.68-2.3l-1.87-2.06c-.44-.49-1.07-.77-1.73-.77h0c-.66,0-1.29.28-1.73.78-2.39,2.67-2.38,6.68.03,9.34l5.06,5.59c1.37,1.52,3.26,2.3,5.17,2.3,1.43,0,2.88-.44,4.12-1.35.53-.39.88-.99.94-1.64.07-.66-.15-1.31-.59-1.8l-1.87-2.06Zm.33,3.89c-2.06,1.51-4.91,1.22-6.63-.68l-5.06-5.59c-1.72-1.89-1.72-4.76-.02-6.66.09-.1.19-.09.24-.11.05,0,.16.01.24.11l1.87,2.06c.22.24.21.5.19.64s-.1.39-.38.55c-.5.28-.84.77-.93,1.34-.09.57.08,1.14.46,1.56l4.06,4.48c.39.43.93.65,1.51.62.57-.03,1.09-.32,1.42-.79.19-.26.44-.32.58-.32.14-.01.4.01.62.25l1.87,2.06c.09.09.09.2.08.25,0,.05-.03.16-.13.23Zm1.3-12.3c-1.71-1.61-3.95-2.46-6.3-2.39-.49.01-.87.42-.85.91.01.49.42.87.91.85,1.88-.06,3.67.62,5.04,1.91,1.37,1.29,2.15,3.04,2.21,4.92.01.49.42.87.91.85.08,0,.16-.01.23-.04.37-.11.64-.46.63-.87-.07-2.35-1.05-4.53-2.76-6.15Zm-3.15,3.16c.86.81,1.35,1.9,1.38,3.07.01.49.42.87.91.85.08,0,.16-.01.23-.04.37-.11.64-.46.63-.87-.05-1.65-.74-3.17-1.93-4.3-1.2-1.13-2.77-1.72-4.41-1.68-.49.01-.87.42-.85.91.01.49.42.87.91.85,1.18-.03,2.29.39,3.15,1.2Z"/>
</svg>
