<svg xmlns="http://www.w3.org/2000/svg" width="24" height="24" fill="currentColor" viewBox="0 0 24 24">
   <path d="M4 8H2V4c0-1.1.9-2 2-2h4v2H4v4Zm0 8H2v4c0 1.1.9 2 2 2h4v-2H4v-4ZM20 2h-4v2h4v4h2V4c0-1.1-.9-2-2-2Zm0 18h-4v2h4c1.1 0 2-.9 2-2v-4h-2v4Zm-2-2.5v-2c0-.28-.22-.5-.5-.5H16v-1.5c0-.28-.22-.5-.5-.5h-2c-.28 0-.5.22-.5.5v2c0 .28.22.5.5.5H15v1.5c0 .28.22.5.5.5h2c.28 0 .5-.22.5-.5ZM11 7v3c0 .55-.45 1-1 1H7c-.55 0-1-.45-1-1V7c0-.55.45-1 1-1h3c.55 0 1 .45 1 1Zm-1 0H7v3h3V7Zm3 3V7c0-.55.45-1 1-1h3c.55 0 1 .45 1 1v3c0 .55-.45 1-1 1h-3c-.55 0-1-.45-1-1Zm1 0h3V7h-3v3Zm-3 4v3c0 .55-.45 1-1 1H7c-.55 0-1-.45-1-1v-3c0-.55.45-1 1-1h3c.55 0 1 .45 1 1Zm-1 0H7v3h3v-3Z"/>
</svg>
