<svg xmlns="http://www.w3.org/2000/svg" width="24" height="24" fill="currentColor" viewBox="0 0 24 24">
  <path d="M8.75 8.5c0-.41.34-.75.75-.75h1.75V6c0-.41.34-.75.75-.75s.75.34.75.75v1.75h1.75c.41 0 .75.34.75.75s-.34.75-.75.75h-1.75V11c0 .41-.34.75-.75.75s-.75-.34-.75-.75V9.25H9.5c-.41 0-.75-.34-.75-.75ZM21 6v12c0 .55-.45 1-1 1H4c-.55 0-1-.45-1-1V6c0-.55.45-1 1-1h2c.55 0 1 .45 1 1s-.45 1-1 1H5v6h14V7h-1c-.55 0-1-.45-1-1s.45-1 1-1h2c.55 0 1 .45 1 1ZM5 17h6.5v-3H5v3Zm14-3h-6.5v3H19v-3Z"/>
</svg>
