<svg xmlns="http://www.w3.org/2000/svg" width="24" height="24" fill="currentColor" viewBox="0 0 24 24">
  <path d="M3 6h10c.55 0 1-.45 1-1s-.45-1-1-1H3c-.55 0-1 .45-1 1s.45 1 1 1Zm0 4.97h10c.55 0 1-.45 1-1s-.45-1-1-1H3c-.55 0-1 .45-1 1s.45 1 1 1ZM11 14H3c-.55 0-1 .45-1 1s.45 1 1 1h8c.55 0 1-.45 1-1s-.45-1-1-1ZM20.535 18.192l-2.12-2.12 2.12-2.122a1.003 1.003 0 0 0 0-1.414 1.003 1.003 0 0 0-1.414 0L17 14.655l-2.121-2.12a1.003 1.003 0 0 0-1.415 0 1.003 1.003 0 0 0 0 1.414l2.122 2.121-2.122 2.121a1.003 1.003 0 0 0 0 1.415 1.003 1.003 0 0 0 1.415 0L17 17.485l2.121 2.122a1.003 1.003 0 0 0 1.415 0 1.003 1.003 0 0 0 0-1.415Z"/>
</svg>
