<svg xmlns="http://www.w3.org/2000/svg" width="24" height="24" fill="currentColor" viewBox="0 0 24 24">
  <path d="M10 15c0 .55-.45 1-1 1H4c-.55 0-1-.45-1-1V3c0-.55.45-1 1-1h16c.55 0 1 .45 1 1v6c0 .55-.45 1-1 1s-1-.45-1-1V4H5v10h4c.55 0 1 .45 1 1Zm6.5-8h-9c-.28 0-.5.22-.5.5s.22.5.5.5h9c.28 0 .5-.22.5-.5s-.22-.5-.5-.5ZM22 17c0 2.76-2.24 5-5 5s-5-2.24-5-5 2.24-5 5-5 5 2.24 5 5Zm-1.75 0c0-.41-.34-.75-.75-.75h-5c-.41 0-.75.34-.75.75s.34.75.75.75h5c.41 0 .75-.34.75-.75Zm-3.75-7h-9c-.28 0-.5.22-.5.5s.22.5.5.5h9c.28 0 .5-.22.5-.5s-.22-.5-.5-.5Z"/>
</svg>
