<svg xmlns="http://www.w3.org/2000/svg" width="24" height="24" fill="currentColor" viewBox="0 0 24 24">
  <path d="M21.9 6.34 17.66 2.1c-.78-.78-2.05-.78-2.83 0L2.1 14.83c-.78.78-.78 2.05 0 2.83l4.24 4.24c.78.78 2.05.78 2.83 0L21.9 9.17c.78-.78.78-2.05 0-2.83M7.76 20.48l-4.24-4.24 1.77-1.77 2.47 2.47c.2.2.51.2.71 0s.2-.51 0-.71L6 13.76l2.12-2.12 2.47 2.47c.2.2.51.2.71 0s.2-.51 0-.71l-2.47-2.47 2.12-2.12 2.47 2.47c.2.2.51.2.71 0s.2-.51 0-.71L11.66 8.1l2.12-2.12 2.47 2.47c.2.2.51.2.71 0s.2-.51 0-.71l-2.47-2.47 1.77-1.77 4.24 4.24L7.77 20.47Z"/>
</svg>
