<svg xmlns="http://www.w3.org/2000/svg" width="24" height="24" fill="currentColor" viewBox="0 0 24 24">
<path d="M20 9.03h-6c-.55 0-1 .45-1 1V11h-2v-.97c0-.55-.45-1-1-1H8V7h2c.55 0 1-.45 1-1V2c0-.55-.45-1-1-1H4c-.55 0-1 .45-1 1v4c0 .55.45 1 1 1h2v2.03H4c-.55 0-1 .45-1 1V14c0 .55.45 1 1 1h2v2H4c-.55 0-1 .45-1 1v4c0 .55.45 1 1 1h6c.55 0 1-.45 1-1v-4c0-.55-.45-1-1-1H8v-2h2c.55 0 1-.45 1-1v-1h2v1c0 .55.45 1 1 1h6c.55 0 1-.45 1-1v-3.97c0-.55-.45-1-1-1ZM4 6V2h6v4H4Zm6 12v4H4v-4h6Zm0-7v3H4v-3.97h6V11Zm10 3h-6v-3.97h6V14Z"/>
</svg>
