<svg xmlns="http://www.w3.org/2000/svg" width="24" height="24" fill="currentColor" viewBox="0 0 24 24">
  <path d="M19 16H5c-1.1 0-2 .9-2 2v2c0 1.1.9 2 2 2h14c1.1 0 2-.9 2-2v-2c0-1.1-.9-2-2-2m.5 4c0 .27-.23.5-.5.5H5c-.27 0-.5-.23-.5-.5v-2c0-.27.23-.5.5-.5h14c.27 0 .5.23.5.5zM13 18c-.55 0-1 .45-1 1s.45 1 1 1 1-.45 1-1-.45-1-1-1m-6-7c-.55 0-1 .45-1 1s.45 1 1 1 1-.45 1-1-.45-1-1-1m0 7c-.55 0-1 .45-1 1s.45 1 1 1 1-.45 1-1-.45-1-1-1m3 0c-.55 0-1 .45-1 1s.45 1 1 1 1-.45 1-1-.45-1-1-1m3-7c-.55 0-1 .45-1 1s.45 1 1 1 1-.45 1-1-.45-1-1-1m0-7c-.55 0-1 .45-1 1s.45 1 1 1 1-.45 1-1-.45-1-1-1m6-2H5c-1.1 0-2 .9-2 2v2c0 1.1.9 2 2 2h14c1.1 0 2-.9 2-2V4c0-1.1-.9-2-2-2m.5 4c0 .27-.23.5-.5.5H5c-.27 0-.5-.23-.5-.5V4c0-.27.23-.5.5-.5h14c.27 0 .5.23.5.5zM10 4c-.55 0-1 .45-1 1s.45 1 1 1 1-.45 1-1-.45-1-1-1M7 4c-.55 0-1 .45-1 1s.45 1 1 1 1-.45 1-1-.45-1-1-1m12 5H5c-1.1 0-2 .9-2 2v2c0 1.1.9 2 2 2h14c1.1 0 2-.9 2-2v-2c0-1.1-.9-2-2-2m.5 4c0 .27-.23.5-.5.5H5c-.27 0-.5-.23-.5-.5v-2c0-.27.23-.5.5-.5h14c.27 0 .5.23.5.5zM10 11c-.55 0-1 .45-1 1s.45 1 1 1 1-.45 1-1-.45-1-1-1"/>
</svg>
