<svg xmlns="http://www.w3.org/2000/svg" width="24" height="24" fill="currentColor" viewBox="0 0 24 24">
  <path d="m18.94 12.55 1.33-4c.18-.53.09-1.12-.24-1.58-.33-.46-.86-.73-1.42-.73H6.39l-.26-1.58c-.16-.97-.99-1.67-1.97-1.67H2.01c-.55 0-1 .45-1 1s.45 1 1 1h2.15l1.79 10.75c.12.73.74 1.25 1.48 1.25h10.58c.55 0 1-.45 1-1s-.45-1-1-1H7.85l-.21-1.25h9.64c.75 0 1.42-.48 1.66-1.2Zm-12.3-4.8h11.97c.11 0 .17.06.2.1.03.04.07.12.03.23l-1.33 4a.25.25 0 0 1-.24.17H7.39l-.75-4.5Zm1.86 9.5c-1.24 0-2.25 1.01-2.25 2.25s1.01 2.25 2.25 2.25 2.25-1.01 2.25-2.25-1.01-2.25-2.25-2.25Zm0 3c-.41 0-.75-.34-.75-.75s.34-.75.75-.75.75.34.75.75-.34.75-.75.75Zm8-3c-1.24 0-2.25 1.01-2.25 2.25s1.01 2.25 2.25 2.25 2.25-1.01 2.25-2.25-1.01-2.25-2.25-2.25Zm0 3c-.41 0-.75-.34-.75-.75s.34-.75.75-.75.75.34.75.75-.34.75-.75.75Z"/>
</svg>
