<svg xmlns="http://www.w3.org/2000/svg" width="24" height="24" fill="currentColor" viewBox="0 0 24 24">
  <path d="m11.5,18.25h-2.75v-2.25c0-.41-.34-.75-.75-.75s-.75.34-.75.75v3c0,.41.34.75.75.75h3.5c.41,0,.75-.34.75-.75s-.34-.75-.75-.75Zm.28-6.24c0-.55-.45-1-1-1h-4.99v-1.8c0-.45-.54-.67-.85-.35l-2.79,2.79c-.2.2-.2.51,0,.71l2.79,2.79c.32.31.85.09.85-.35v-1.78h4.99c.55,0,1-.45,1-1Zm9.59-7.06l-5.95-2.38c-.12-.05-.25-.07-.37-.07-.53,0-1,.43-1,1v17.15c0,.58.47,1,1,1,.14,0,.29-.03.44-.1l5.95-2.89c.34-.17.56-.52.56-.9V5.88c0-.41-.25-.78-.63-.93Zm-1.37,12.18l-3.95,1.92V4.98l3.95,1.58v10.57ZM11.5,4.25h-3.5c-.41,0-.75.34-.75.75v3c0,.41.34.75.75.75s.75-.34.75-.75v-2.25h2.75c.41,0,.75-.34.75-.75s-.34-.75-.75-.75Z"/>
</svg>
