<svg width="24" height="24" viewBox="0 0 24 24" fill="currentColor" xmlns="http://www.w3.org/2000/svg">
  <path d="M13.5678 6.93225C13.6772 6.7135 13.7501 6.45829 13.7501 6.16663C13.7501 5.21871 12.948 4.41663 12.0001 4.41663C11.0157 4.41663 10.2501 5.21871 10.2501 6.16663C10.2501 6.45829 10.2865 6.7135 10.3959 6.93225L10.4324 6.96871C10.6876 7.47913 11.1251 8.39058 11.1251 9.44788C11.1251 11.8541 9.19279 13.75 6.823 13.75H6.16675C5.18237 13.75 4.41675 14.552 4.41675 15.5V15.7916C4.41675 15.9739 4.52612 16.0833 4.70841 16.0833H19.2917C19.4376 16.0833 19.5834 15.9739 19.5834 15.7916V15.5C19.5834 14.552 18.7813 13.75 17.8334 13.75H17.1772C14.7709 13.75 12.8751 11.8541 12.8751 9.44788C12.8751 8.39058 13.3126 7.47913 13.5678 6.96871V6.93225ZM15.1355 7.69788C14.8803 8.24475 14.6251 8.82808 14.6251 9.44788C14.6251 10.8698 15.7553 12 17.1772 12H17.8334C19.7657 12 21.3334 13.5677 21.3334 15.5V15.7916C21.3334 16.9218 20.3855 17.8333 19.2917 17.8333H4.70841C3.57821 17.8333 2.66675 16.9218 2.66675 15.7916V15.5C2.66675 13.5677 4.23446 12 6.16675 12H6.823C8.20841 12 9.37508 10.8698 9.37508 9.44788C9.37508 8.82808 9.08341 8.24475 8.82821 7.69788C8.60946 7.22392 8.50008 6.7135 8.50008 6.16663C8.50008 4.23433 10.0678 2.66663 12.0001 2.66663C13.9324 2.66663 15.5001 4.23433 15.5001 6.16663C15.5001 6.7135 15.3542 7.22392 15.1355 7.69788ZM3.83341 20.1666C3.83341 19.5468 4.34383 19 5.00008 19H19.0001C19.6199 19 20.1667 19.5468 20.1667 20.1666C20.1667 20.8229 19.6199 21.3333 19.0001 21.3333H5.00008C4.34383 21.3333 3.83341 20.8229 3.83341 20.1666Z"/>
</svg>
