<svg xmlns="http://www.w3.org/2000/svg" width="24" height="24" fill="currentColor" viewBox="0 0 24 24">
  <path d="M21.01 15.3h-.51v-.97c0-1.49-1.28-2.67-2.8-2.52-1.32.13-2.27 1.34-2.27 2.67v.83h-.51c-.56 0-1.01.45-1.01 1.01v4.6c0 .56.45 1.01 1.01 1.01H21c.56 0 1.01-.45 1.01-1.01v-4.6c0-.56-.45-1.01-1.01-1.01Zm-3.03 4.1c-.56 0-1.01-.45-1.01-1.01s.45-1.01 1.01-1.01 1.01.45 1.01 1.01-.45 1.01-1.01 1.01Zm1.51-4.1h-3.04v-.97a1.52 1.52 0 1 1 3.04 0v.97Zm-4.06-4.7c.61-.43 1.32-.71 2.08-.79.16-.02.31-.02.46-.02 1.2 0 2.28.47 3.09 1.23l.08-.07c.74-.64.35-1.85-.64-1.93l-5.38-.45-2.1-4.9c-.19-.45-.61-.67-1.03-.67s-.83.22-1.03.67l-2.1 4.9-5.38.45c-.98.08-1.38 1.29-.64 1.93l4.09 3.5-1.23 5.2c-.17.74.42 1.35 1.09 1.35.19 0 .39-.05.57-.16l4.54-2.71v-1.81c0-.19.02-.37.06-.55l-3.83 2.28 1.02-4.33-3.37-2.88 4.43-.37.47-1.1 1.29-3.01 1.29 3.01.47 1.1 1.66.14Z"/>
</svg>
