<svg xmlns="http://www.w3.org/2000/svg" width="24" height="24" fill="currentColor" viewBox="0 0 24 24">
  <path d="M5 12c0-.34.03-.67.08-1H3c-.55 0-1 .45-1 1 0 .56.45 1 1 1h2.08c-.05-.33-.08-.66-.08-1m1.4 4.19-1.48 1.48a.996.996 0 1 0 1.41 1.41l1.48-1.48c-.54-.4-1.01-.88-1.41-1.41M7.81 6.4 6.33 4.92a.996.996 0 1 0-1.41 1.41L6.4 7.81c.4-.54.88-1.01 1.41-1.41M13 5.08V3c0-.55-.45-1-1-1s-1 .45-1 1v2.08c.33-.05.66-.08 1-.08s.67.03 1 .08m4.6 2.73 1.48-1.48a.996.996 0 1 0-1.41-1.41L16.19 6.4c.54.4 1.01.88 1.41 1.41M18.92 11c.05.33.08.66.08 1s-.03.67-.08 1H21c.55 0 1-.45 1-1 0-.56-.45-1-1-1zm-2.73 6.6 1.48 1.48a.996.996 0 1 0 1.41-1.41l-1.48-1.48c-.4.54-.88 1.01-1.41 1.41M11 18.92V21c0 .55.45 1 1 1s1-.45 1-1v-2.08c-.33.05-.66.08-1 .08s-.67-.03-1-.08m1-2.17c-2.62 0-4.75-2.13-4.75-4.75S9.38 7.25 12 7.25s4.75 2.13 4.75 4.75-2.13 4.75-4.75 4.75m0-8c-1.79 0-3.25 1.46-3.25 3.25s1.46 3.25 3.25 3.25 3.25-1.46 3.25-3.25S13.79 8.75 12 8.75"/>
</svg>
