<svg xmlns="http://www.w3.org/2000/svg" width="24" height="24" fill="currentColor" viewBox="0 0 24 24">
 <path d="M3.207 2.793a1 1 0 0 0-1.414 1.414l.856.857A1.003 1.003 0 0 0 2.001 6l.018 12a1 1 0 0 0 1 .999h13.04a1 1 0 0 0 .43-.097l2.304 2.304a1 1 0 0 0 1.414-1.414l-2.353-2.354.001-.001L5.417 5h-.003L3.207 2.793Zm.995 3.823L4.586 7h.003l10 10H5.016a1 1 0 0 1-1-.998l-.013-9.097c0-.128.08-.243.2-.289ZM8.245 5l10.913 10.912 2.508-2.936a1.5 1.5 0 0 0-.001-1.95l-4.866-5.677A1 1 0 0 0 16.04 5H8.245Zm2 2h4.875a1 1 0 0 1 .76.35l3.403 3.97a1 1 0 0 1-.03 1.336l-1.625 1.727L10.245 7Zm9.901 5.327Z"/>
</svg>
