<svg xmlns="http://www.w3.org/2000/svg" width="24" height="24" fill="currentColor" viewBox="0 0 24 24">
  <path d="M15 14.5h2v-2h-2v2Zm6-3.3h1V7.5c0-1.54-1.26-2.8-2.8-2.8H4.8C3.26 4.7 2 5.96 2 7.5v3.7h1c.44 0 .8.36.8.8s-.36.8-.8.8H2v3.7c0 1.54 1.26 2.8 2.8 2.8h14.4c1.54 0 2.8-1.26 2.8-2.8v-3.7h-1c-.44 0-.8-.36-.8-.8s.36-.8.8-.8Zm-1-1.81a2.8 2.8 0 0 0 0 5.22v1.89c0 .44-.36.8-.8.8H17v-1.8h-2v1.8H4.8c-.44 0-.8-.36-.8-.8v-1.88c1.05-.4 1.8-1.42 1.8-2.62S5.05 9.79 4 9.38V7.5c0-.44.36-.8.8-.8H15v1.8h2V6.7h2.2c.44 0 .8.36.8.8v1.89Zm-5 2.11h2v-2h-2v2Z"/>
</svg>
