<svg xmlns="http://www.w3.org/2000/svg" width="24" height="24" fill="currentColor" viewBox="0 0 24 24">
  <path d="M3 7h2v2a1 1 0 1 0 2 0V7h2a1 1 0 0 0 0-2H7V3a1 1 0 0 0-2 0v2H3a1 1 0 0 0 0 2Z"/>
  <path d="M11 6c0 .342-.034.677-.1 1h3.06v6.5H8.72c-.11-.12-.23-.23-.36-.34-.51-.41-1.15-.66-1.86-.66-1.04 0-1.96.54-2.5 1.35v-3.266A5.018 5.018 0 0 1 2 9v6.5h1.5c0 1.66 1.34 3 3 3s3-1.34 3-3h4.52c0 1.66 1.34 3 3 3s3-1.34 3-3H22v-4.03c0-.51-.39-.91-.88-.97h-.09L19.29 7h1.72l-.72-1.45A1 1 0 0 0 19.4 5h-8.5c.066.323.1.658.1 1ZM6.5 17c-.83 0-1.5-.67-1.5-1.5v-.03c0-.17.04-.33.09-.48 0-.02 0-.03.01-.05.06-.16.15-.3.26-.42.28-.32.67-.52 1.13-.52.17 0 .34.04.5.09.43.15.77.49.92.92 0 .015.005.024.012.036l.004.007.004.007c.04.14.07.28.07.44 0 .83-.67 1.5-1.5 1.5Zm10.52 0c-.83 0-1.5-.67-1.5-1.5s.67-1.5 1.5-1.5 1.5.67 1.5 1.5-.67 1.5-1.5 1.5Zm-1.06-6.5V7h1.65l1.74 3.5h-3.39Z"/>
</svg>
