<svg xmlns="http://www.w3.org/2000/svg" width="24" height="24" fill="currentColor" viewBox="0 0 24 24">
  <path d="m3,18c0,.55.45,1,1,1h5v-2h-5c-.55,0-1,.45-1,1Zm0-12c0,.55.45,1,1,1h9v-2H4c-.55,0-1,.45-1,1Zm10,14v-1h7c.55,0,1-.45,1-1s-.45-1-1-1h-7v-1c0-.55-.45-1-1-1s-1,.45-1,1v4c0,.55.45,1,1,1s1-.45,1-1Zm-6-10v1h-3c-.55,0-1,.45-1,1s.45,1,1,1h3v1c0,.55.45,1,1,1s1-.45,1-1v-4c0-.55-.45-1-1-1s-1,.45-1,1Zm14,2c0-.55-.45-1-1-1h-9v2h9c.55,0,1-.45,1-1Zm-5-3c.55,0,1-.45,1-1v-1h3c.55,0,1-.45,1-1s-.45-1-1-1h-3v-1c0-.55-.45-1-1-1s-1,.45-1,1v4c0,.55.45,1,1,1Z"/>
</svg>
