<svg xmlns="http://www.w3.org/2000/svg" width="24" height="24" fill="currentColor" viewBox="0 0 24 24">
  <path d="M20.57 6.67 17 10.25v-2c0-1.1-.9-2-2-2H5c-1.1 0-2 .9-2 2v7.5c0 1.1.9 2 2 2h10c1.1 0 2-.9 2-2v-2l3.57 3.57c.16.16.43.05.43-.18V6.85c0-.22-.27-.33-.43-.18m-5.07 9.08c0 .27-.23.5-.5.5H5c-.27 0-.5-.23-.5-.5v-7.5c0-.27.23-.5.5-.5h10c.27 0 .5.23.5.5zm4-1.62L17.37 12l2.13-2.13zM12 11.25h-1.25V10c0-.41-.34-.75-.75-.75s-.75.34-.75.75v1.25H8c-.41 0-.75.34-.75.75s.34.75.75.75h1.25V14c0 .41.34.75.75.75s.75-.34.75-.75v-1.25H12c.41 0 .75-.34.75-.75s-.34-.75-.75-.75"/>
</svg>
