<svg xmlns="http://www.w3.org/2000/svg" width="24" height="24" fill="currentColor" viewBox="0 0 24 24">
<path d="M9.5 19h-3c-.83 0-1.5-.67-1.5-1.5v-3c0-.83.67-1.5 1.5-1.5h3c.83 0 1.5.67 1.5 1.5v3c0 .83-.67 1.5-1.5 1.5Zm-3-5c-.28 0-.5.22-.5.5v3c0 .28.22.5.5.5h3c.28 0 .5-.22.5-.5v-3c0-.28-.22-.5-.5-.5h-3Zm11-3h-3c-.83 0-1.5-.67-1.5-1.5v-3c0-.83.67-1.5 1.5-1.5h3c.83 0 1.5.67 1.5 1.5v3c0 .83-.67 1.5-1.5 1.5Zm-3-5c-.28 0-.5.22-.5.5v3c0 .28.22.5.5.5h3c.28 0 .5-.22.5-.5v-3c0-.28-.22-.5-.5-.5h-3Zm3 13h-3c-.83 0-1.5-.67-1.5-1.5v-3c0-.83.67-1.5 1.5-1.5h3c.83 0 1.5.67 1.5 1.5v3c0 .83-.67 1.5-1.5 1.5Zm-3-5c-.28 0-.5.22-.5.5v3c0 .28.22.5.5.5h3c.28 0 .5-.22.5-.5v-3c0-.28-.22-.5-.5-.5h-3Zm-5-3h-3C5.67 11 5 10.33 5 9.5v-3C5 5.67 5.67 5 6.5 5h3c.83 0 1.5.67 1.5 1.5v3c0 .83-.67 1.5-1.5 1.5Zm-3-5c-.28 0-.5.22-.5.5v3c0 .28.22.5.5.5h3c.28 0 .5-.22.5-.5v-3c0-.28-.22-.5-.5-.5h-3Z"/>
</svg>