<svg xmlns="http://www.w3.org/2000/svg" width="24" height="24" fill="currentColor" viewBox="0 0 24 24">
  <path d="M14.6,10.5c0-.1-.6-1.1-1.8-1.4-.5-.1-.9-.1-1.2-.1h-.2s3.5,3.5,3.5,3.5c0-.2.2-1.1-.3-2h0ZM19.7,9.1c-.6-.6-2.4-2.2-5.1-2.9-1.6-.4-3-.3-3.7-.2-.6,0-1.2.2-1.6.3h-.4c0,0,1,1.1,1,1.1.4-.2,1.1-.5,2.1-.5,1.6,0,2.7.8,3,1,.3.2,1.5,1.2,1.9,3.1.3,1.5-.2,2.6-.4,3l1.8,1.9c.7-.5,1.5-1.2,2.3-2.2.5-.6.9-1.3,1.2-1.8-.5-1.1-1.3-2-2.1-2.9h0ZM4.5,4.1c-.2-.2-.4-.3-.7-.3s-.5.1-.7.3c-.2.2-.3.4-.3.7s.1.5.3.7l2.6,2.6c-.6.4-1.2.9-1.9,1.7-.7.8-1.2,1.6-1.5,2.3.4.8,1.2,2.1,2.6,3.4.9.7,2.6,2,5.1,2.4,2.3.5,4.2,0,5.2-.3l2.7,2.7c.2.2.5.3.7.3s.5,0,.7-.3c0,0,.2-.2.2-.3,0-.1,0-.3,0-.4s0-.3,0-.4c0-.1-.1-.2-.2-.3L4.5,4.1ZM12,17c-2.4,0-3.9-1.9-4-2-.2-.2-1.1-1.5-1-3.3,0-.7.2-1.2.4-1.5v-.3c.1,0,1.7,1.6,1.7,1.6h0c0,.2,0,.3,0,.4,0,0,0,.4,0,.7.2,1.2,1.2,1.9,1.2,1.9,1,.7,2.1.6,2.3.5l1.6,1.6c-.4.2-1.2.5-2.1.5h0Z"/>
</svg>
