<svg xmlns="http://www.w3.org/2000/svg" width="24" height="24" fill="currentColor" viewBox="0 0 24 24">
  <path d="M12.0351 6C7.76512 6 4.06512 8.44 2.24512 12C4.06512 15.56 7.76512 18 12.0351 18C16.3051 18 20.0051 15.56 21.8251 12C20.0051 8.44 16.3051 6 12.0351 6ZM12.0351 17C9.27512 17 7.03512 14.76 7.03512 12C7.03512 9.24 9.27512 7 12.0351 7C14.7951 7 17.0351 9.24 17.0351 12C17.0351 14.76 14.7951 17 12.0351 17ZM12.0351 9C10.3751 9 9.03512 10.34 9.03512 12C9.03512 13.66 10.3751 15 12.0351 15C13.6951 15 15.0351 13.66 15.0351 12C15.0351 10.34 13.6951 9 12.0351 9ZM13.0351 12.5C12.2051 12.5 11.5351 11.83 11.5351 11C11.5351 10.17 12.2051 9.5 13.0351 9.5C13.8651 9.5 14.5351 10.17 14.5351 11C14.5351 11.83 13.8651 12.5 13.0351 12.5Z"/>
</svg>