<svg xmlns="http://www.w3.org/2000/svg" width="24" height="24" fill="currentColor" viewBox="0 0 24 24">
  <path d="M9 13H5c-1.1 0-2 .9-2 2v4c0 1.1.9 2 2 2h4c1.1 0 2-.9 2-2v-4c0-1.1-.9-2-2-2m0 6H5v-4h4zM21.21 5.59l-2.83-2.83c-.78-.78-2.05-.78-2.83 0l-2.83 2.83c-.78.78-.78 2.05 0 2.83l2.83 2.83c.78.78 2.05.78 2.83 0l2.83-2.83c.78-.78.78-2.05 0-2.83m-4.24 4.24L14.14 7l2.83-2.83L19.8 7zm2 3.17h-4c-1.1 0-2 .9-2 2v4c0 1.1.9 2 2 2h4c1.1 0 2-.9 2-2v-4c0-1.1-.9-2-2-2m0 6h-4v-4h4zM9 3H5c-1.1 0-2 .9-2 2v4c0 1.1.9 2 2 2h4c1.1 0 2-.9 2-2V5c0-1.1-.9-2-2-2m0 6H5V5h4z"/>
</svg>
