<svg xmlns="http://www.w3.org/2000/svg" width="24" height="24" fill="currentColor" viewBox="0 0 24 24">
  <path d="m12.49,9.5h-1.99v-1.99c0-.28-.22-.5-.5-.5s-.5.22-.5.5v1.99h-1.99c-.28,0-.5.22-.5.5s.22.5.5.5h1.99v1.99c0,.28.22.5.5.5s.5-.22.5-.5v-1.99h1.99c.28,0,.5-.22.5-.5s-.22-.5-.5-.5Zm7.74,9.32l-3.88-3.88h0s0,0,0,0h0s0,0,0,0l-.66.05-.41-.41c2.44-2.81,2.28-7.1-.5-9.7-2.67-2.5-7.01-2.46-9.64.08-2.82,2.73-2.85,7.22-.08,9.98,2.61,2.61,6.77,2.72,9.52.34l.41.41-.05.65h0s3.89,3.89,3.89,3.89c.39.39,1.02.39,1.41,0,.39-.39.39-1.02,0-1.41Zm-6.69-5.29c-1.95,1.95-5.13,1.95-7.08,0-1.95-1.95-1.95-5.13,0-7.08,1.95-1.95,5.13-1.95,7.08,0,1.95,1.95,1.95,5.13,0,7.08Z"/>
</svg>
