<svg xmlns="http://www.w3.org/2000/svg" width="24" height="24" fill="currentColor" viewBox="0 0 24 24">
  <path d="m20.97,3h-2.97c0-.55-.45-1-1-1s-1,.45-1,1h-8c0-.55-.45-1-1-1s-1,.45-1,1h-2.97c-.57,0-1.03.46-1.03,1.03v16.95c0,.57.46,1.03,1.03,1.03h17.95c.57,0,1.03-.46,1.03-1.03V4.03c0-.57-.46-1.03-1.03-1.03Zm-2.97,14.33c0,.37-.3.67-.67.67h-4.67c-.37,0-.67-.3-.67-.67v-4.67c0-.37.3-.67.67-.67h4.67c.37,0,.67.3.67.67v4.67Zm2-10.04c0,.39-.32.71-.71.71H4.71c-.39,0-.71-.32-.71-.71v-1.59c0-.39.32-.71.71-.71h1.29v1c0,.55.45,1,1,1s1-.45,1-1v-1h8v1c0,.55.45,1,1,1s1-.45,1-1v-1h1.29c.39,0,.71.32.71.71v1.59Z"/>
</svg>
