<svg xmlns="http://www.w3.org/2000/svg" width="24" height="24" fill="currentColor" viewBox="0 0 24 24">
  <path d="m20.98,3h-2.98c0-.55-.45-1-1-1s-1,.45-1,1h-8c0-.55-.45-1-1-1s-1,.45-1,1h-2.97c-.57,0-1.03.46-1.03,1.03v16.95c0,.57.46,1.03,1.03,1.03h17.95c.57,0,1.03-.46,1.03-1.03V4.03c0-.57-.46-1.03-1.03-1.03Zm-11.98,16h-3v-3h3v3Zm0-5h-3v-3h3v3Zm10.71.3l-4.42,4.41c-.39.39-1.02.39-1.41,0l-2.09-2.09c-.39-.39-.39-1.01,0-1.4s1.01-.39,1.4,0l1.4,1.4,3.72-3.72c.39-.39,1.01-.39,1.4,0,.39.39.39,1.01,0,1.4Zm-9.21-.3v-3h3v3h-3Zm9.5-6.71c0,.39-.32.71-.71.71H4.71c-.39,0-.71-.32-.71-.71v-1.59c0-.39.32-.71.71-.71h1.29v1c0,.55.45,1,1,1s1-.45,1-1v-1h8v1c0,.55.45,1,1,1s1-.45,1-1v-1h1.29c.39,0,.71.32.71.71v1.59Z"/>
</svg>
