<svg xmlns="http://www.w3.org/2000/svg" width="24" height="24" fill="currentColor" viewBox="0 0 24 24">
  <path d="m19.93,11.12c.04-.29.07-.57.07-.87,0-3.45-2.8-6.25-6.25-6.25-2.53,0-4.7,1.5-5.68,3.66-.42-.1-.86-.16-1.32-.16-3.18,0-5.75,2.57-5.75,5.75s2.57,5.75,5.75,5.75c.08,0,.17,0,.25,0h12c2.21,0,4-1.79,4-4,0-1.89-1.31-3.46-3.07-3.88Zm-4.41,1.31h-1.96v4.57c0,.27-.22.5-.5.5h-2.11c-.27,0-.5-.23-.5-.5v-4.57h-1.97c-.23,0-.35-.28-.18-.44l3.35-3.35c.2-.2.51-.2.71,0l3.35,3.35c.16.16.05.44-.18.44Z"/>
</svg>
