<svg xmlns="http://www.w3.org/2000/svg" width="24" height="24" fill="currentColor" viewBox="0 0 24 24">
  <path d="m6.76,21.43h0c.39.39,1.02.39,1.41,0l.44-.44c.39-.39.39-1.02,0-1.41h0c-.39-.39-1.02-.39-1.41,0l-.44.44c-.39.39-.39,1.02,0,1.41Zm-4-3h0c.39.39,1.02.39,1.41,0l.44-.44c.39-.39.39-1.02,0-1.41h0c-.39-.39-1.02-.39-1.41,0l-.44.44c-.39.39-.39,1.02,0,1.41Zm8.44-1.85l-.44.44c-.39.39-.39,1.02,0,1.41h0c.39.39,1.02.39,1.41,0l.44-.44c.39-.39.39-1.02,0-1.41h0c-.39-.39-1.02-.39-1.41,0Zm6.56,1.85h0c.39.39,1.02.39,1.41,0l.44-.44c.39-.39.39-1.02,0-1.41h0c-.39-.39-1.02-.39-1.41,0l-.44.44c-.39.39-.39,1.02,0,1.41Zm-4,3h0c.39.39,1.02.39,1.41,0l.44-.44c.39-.39.39-1.02,0-1.41h0c-.39-.39-1.02-.39-1.41,0l-.44.44c-.39.39-.39,1.02,0,1.41Zm8.15-10.9c-.4-1.37-1.56-2.31-2.89-2.49.02-.18.03-.36.03-.54,0-3.04-2.46-5.5-5.5-5.5-2.23,0-4.15,1.34-5.02,3.25-.47-.15-.96-.25-1.48-.25-2.76,0-5,2.24-5,5s2.24,5,5,5h0l11.51-.02c.32,0,.64-.03.97-.12,1.86-.54,2.93-2.48,2.39-4.33Z"/>
</svg>
