<svg xmlns="http://www.w3.org/2000/svg" width="24" height="24" fill="currentColor" viewBox="0 0 24 24">
  <path d="m19.78,19.78H4.22V4.22h6.67c.61,0,1.11-.5,1.11-1.11h0c0-.61-.5-1.11-1.11-1.11H3c-.55,0-1,.45-1,1v18c0,.55.45,1,1,1h18c.55,0,1-.45,1-1v-7.89c0-.61-.5-1.11-1.11-1.11h0c-.61,0-1.11.5-1.11,1.11v6.67ZM14.22,3.11h0c0,.61.5,1.11,1.11,1.11h2.88l-10.14,10.14c-.43.43-.43,1.13,0,1.57h0c.43.43,1.13.43,1.57,0l10.14-10.14v2.88c0,.61.5,1.11,1.11,1.11h0c.61,0,1.11-.5,1.11-1.11V3c0-.55-.45-1-1-1h-5.67c-.61,0-1.11.5-1.11,1.11Z"/>
</svg>
