<svg xmlns="http://www.w3.org/2000/svg" width="24" height="24" fill="currentColor" viewBox="0 0 24 24">
  <path d="m13.75,19.94h-3.42c-.47,0-.85.38-.85.85v.85c0,.47.38.85.85.85h3.42c.47,0,.85-.38.85-.85v-.85c0-.47-.38-.85-.85-.85ZM7.05,6.05c.39-.39.39-1.02,0-1.41l-1.06-1.06c-.39-.39-1.02-.39-1.41,0-.39.39-.39,1.02,0,1.41l1.06,1.06c.39.39,1.02.39,1.41,0Zm4.95-1.55h0c.55,0,1-.45,1-1v-1.5c0-.55-.45-1-1-1h0c-.55,0-1,.45-1,1v1.5c0,.55.45,1,1,1Zm-8,5.5h-1.5c-.55,0-1,.45-1,1h0c0,.55.45,1,1,1h1.5c.55,0,1-.45,1-1h0c0-.55-.45-1-1-1Zm8.06-4.6c-3.28,0-5.94,2.66-5.94,5.94,0,2.02,1.01,3.8,2.54,4.87v1.39c0,.47.38.85.85.85h5.09c.47,0,.85-.38.85-.85v-1.39c1.54-1.07,2.54-2.85,2.54-4.87,0-3.28-2.66-5.94-5.94-5.94Zm9.44,4.6h-1.5c-.55,0-1,.45-1,1h0c0,.55.45,1,1,1h1.5c.55,0,1-.45,1-1h0c0-.55-.45-1-1-1Zm-2.08-6.42c-.39-.39-1.02-.39-1.41,0l-1.06,1.06c-.39.39-.39,1.02,0,1.41.39.39,1.02.39,1.41,0l1.06-1.06c.39-.39.39-1.02,0-1.41Z"/>
</svg>
