<svg xmlns="http://www.w3.org/2000/svg" width="24" height="24" fill="currentColor" viewBox="0 0 24 24">
  <path d="m6.9,8c-2.73.03-4.93,2.27-4.9,5,0,.01,0,.03,0,.04-.02,2.19,1.39,4.15,3.47,4.83l.96,3.71c.16.45.79.45.95,0l.96-3.71c2.66-.88,4.09-3.75,3.21-6.4-.67-2.01-2.52-3.4-4.64-3.47Zm.52,6.94c-1.56.38-2.94-1-2.56-2.56.18-.73.78-1.34,1.51-1.51,1.56-.38,2.94,1,2.56,2.56-.18.73-.78,1.34-1.51,1.51Z"/>
  <path d="m21.81,11.72c-.53-1.59-2-2.69-3.68-2.75-2.16.02-3.9,1.79-3.88,3.96,0,.01,0,.02,0,.03-.01,1.74,1.1,3.28,2.75,3.82l.76,2.94c.12.36.63.36.75,0l.76-2.94c2.1-.7,3.24-2.97,2.54-5.07Zm-2.06,1.55c-.14.58-.62,1.06-1.2,1.2-1.24.3-2.32-.79-2.03-2.03.14-.58.62-1.06,1.2-1.2,1.24-.3,2.32.79,2.03,2.03Z"/>
  <path d="m15.86,4.09c-.41-1.23-1.54-2.08-2.84-2.12-1.67.02-3.02,1.39-3,3.06,0,0,0,.02,0,.02,0,1.34.85,2.54,2.12,2.96l.59,2.27c.1.27.48.27.58,0l.59-2.27c1.63-.54,2.51-2.29,1.97-3.92Zm-1.59,1.2c-.11.45-.48.82-.93.93-.96.23-1.8-.61-1.57-1.57.11-.45.48-.82.93-.93.96-.23,1.8.61,1.57,1.57Z"/>
</svg>
