<svg xmlns="http://www.w3.org/2000/svg" width="24" height="24" fill="currentColor" viewBox="0 0 24 24">
  <path d="m21.63,11.41c-.63-1.9-2.38-3.21-4.38-3.27-2.58.03-4.65,2.14-4.62,4.72,0,.01,0,.02,0,.04-.01,2.07,1.31,3.91,3.27,4.56l.93,4.16c.07.2.25.3.42.3s.35-.1.42-.3l.93-4.16c2.5-.83,3.86-3.53,3.03-6.04Zm-2.46,1.84c-.17.69-.74,1.26-1.43,1.43-.17.04-.33.06-.49.06-1.25,0-2.24-1.17-1.92-2.47.17-.69.74-1.26,1.43-1.43.17-.04.33-.06.49-.06,1.25,0,2.24,1.17,1.92,2.47Zm-11.12,3.08v-1.38h0s0-11.13,0-11.13l5.44,1.98.63.23h.02s0,1.34,0,1.34c.93-.54,1.98-.86,3.08-.87h.03s.03,0,.03,0c1.09.04,2.11.36,3.01.89V3.13c0-.53-.42-.92-.91-.92-.1,0-.21.02-.32.06l-4.96,1.82-5.79-2.11c-.1-.04-.21-.06-.31-.06s-.2.02-.3.05l-5.15,1.79c-.37.13-.62.48-.62.87v14.5c0,.53.43.92.92.92.11,0,.21-.02.32-.06l4.79-1.77,7,2.62-.46-2.06-6.47-2.45Z"/>
</svg>
