<svg xmlns="http://www.w3.org/2000/svg" width="24" height="24" fill="currentColor" viewBox="0 0 24 24">
  <path d="m19.31,11.98c0-.32-.03-.63-.07-.94l1.67-1.34c.39-.31.49-.86.24-1.28l-.75-1.28-.74-1.29c-.25-.43-.77-.61-1.23-.43l-1.97.77c-.5-.39-1.06-.72-1.65-.97l-.32-2.07c-.07-.49-.5-.85-.99-.85h-1.49s-1.49,0-1.49,0c-.5,0-.92.36-.99.85l-.31,2.05c-.61.25-1.18.58-1.69.98l-1.93-.76c-.46-.18-.99,0-1.23.43l-.74,1.29-.75,1.28c-.25.43-.15.97.24,1.28l1.62,1.3c-.04.32-.07.65-.07.98s.03.68.08,1.01l-1.62,1.3c-.39.31-.49.86-.24,1.28l.75,1.28.74,1.29c.25.43.77.61,1.23.43l1.96-.77c.51.38,1.06.71,1.66.95l.32,2.09c.07.49.5.85.99.85h1.49s1.49,0,1.49,0c.5,0,.92-.36.99-.85l.32-2.11c.58-.24,1.12-.57,1.62-.94l2,.78c.46.18.99,0,1.23-.43l.74-1.29.75-1.28c.25-.43.15-.97-.24-1.28l-1.67-1.34c.04-.32.07-.64.07-.97Zm-6.62,3.46c-2.47.47-4.59-1.65-4.12-4.12.26-1.37,1.38-2.49,2.75-2.75,2.47-.47,4.59,1.65,4.12,4.12-.26,1.37-1.38,2.49-2.75,2.75Z"/>
</svg>
