<svg xmlns="http://www.w3.org/2000/svg" width="24" height="24" fill="currentColor" viewBox="0 0 24 24">
  <path d="m8,18.17h-2.75v-2.25c0-.41-.34-.75-.75-.75s-.75.34-.75.75v3c0,.41.34.75.75.75h3.5c.41,0,.75-.34.75-.75s-.34-.75-.75-.75Zm-3.5-9.5c.41,0,.75-.34.75-.75v-2.25h2.75c.41,0,.75-.34.75-.75s-.34-.75-.75-.75h-3.5c-.41,0-.75.34-.75.75v3c0,.41.34.75.75.75Zm4.34.1c-.32-.31-.85-.09-.85.35v1.78H3c-.55,0-1,.45-1,1s.45,1,1,1h4.99v1.8c0,.45.54.67.85.35l2.79-2.79c.2-.2.2-.51,0-.71l-2.79-2.79Zm12.53-3.9l-5.95-2.38c-.66-.26-1.37.22-1.37.93v17.15c0,.74.77,1.22,1.44.9l5.95-2.89c.34-.17.56-.52.56-.9V5.81c0-.41-.25-.78-.63-.93Z"/>
</svg>
