<svg xmlns="http://www.w3.org/2000/svg" width="24" height="24" fill="currentColor" viewBox="0 0 24 24">
  <path d="m7.5,20c-.28,0-.5.22-.5.5s.22.5.5.5.5-.22.5-.5-.22-.5-.5-.5Zm-.11-5h0l11.51-.02c.32,0,.64-.03.97-.12,1.86-.54,2.93-2.48,2.39-4.33-.4-1.37-1.56-2.31-2.89-2.49.02-.18.03-.36.03-.54,0-3.04-2.46-5.5-5.5-5.5-2.23,0-4.15,1.34-5.02,3.25-.47-.15-.96-.25-1.48-.25-2.76,0-5,2.24-5,5s2.24,5,5,5Zm2.11,3c-.28,0-.5.22-.5.5s.22.5.5.5.5-.22.5-.5-.22-.5-.5-.5Zm2,2c-.28,0-.5.22-.5.5s.22.5.5.5.5-.22.5-.5-.22-.5-.5-.5Zm10-3c-.28,0-.5.22-.5.5s.22.5.5.5.5-.22.5-.5-.22-.5-.5-.5Zm-9-1c-.28,0-.5.22-.5.5s.22.5.5.5.5-.22.5-.5-.22-.5-.5-.5Zm5.99,3.28h-1.18l.74-.74c.09-.09.09-.23,0-.32s-.23-.09-.32,0l-1.04,1.04-.02.02h-.58v-.58l.02-.02,1.04-1.04c.09-.09.09-.23,0-.32s-.23-.09-.32,0l-.74.74v-1.18c0-.17-.13-.3-.3-.3s-.3.13-.3.3v1.18l-.74-.74c-.09-.09-.23-.09-.32,0s-.09.23,0,.32l1.04,1.04.02.02v.58h-.58l-.02-.02-1.04-1.04c-.09-.09-.23-.09-.32,0s-.09.23,0,.32l.74.74h-1.18c-.17,0-.3.13-.3.3s.13.3.3.3h1.18l-.74.74c-.09.09-.09.23,0,.32.04.04.1.07.16.07s.12-.02.16-.07l1.04-1.04.02-.02h.58v.58l-.02.02-1.04,1.04c-.09.09-.09.23,0,.32.04.04.1.07.16.07s.12-.02.16-.07l.74-.74v1.18c0,.17.13.3.3.3s.3-.13.3-.3v-1.18l.74.74s.1.07.16.07.12-.02.16-.07c.09-.09.09-.23,0-.32l-1.04-1.04-.02-.02v-.58h.58l.02.02,1.04,1.04s.1.07.16.07.12-.02.16-.07c.09-.09.09-.23,0-.32l-.74-.74h1.18c.17,0,.3-.13.3-.3s-.13-.3-.3-.3Zm-11.89-1.99h-.75l.47-.47c.06-.06.06-.15,0-.2s-.15-.06-.2,0l-.66.66h-.01s-.37.01-.37.01v-.37h.01s.66-.67.66-.67c.06-.06.06-.15,0-.2s-.15-.06-.2,0l-.47.47v-.75c0-.1-.08-.19-.19-.19s-.19.08-.19.19v.75l-.47-.47c-.06-.06-.15-.06-.2,0s-.06.15,0,.2l.66.66h.01v.38h-.38s-.66-.67-.66-.67c-.06-.06-.15-.06-.2,0s-.06.15,0,.2l.47.47h-.75c-.1,0-.19.08-.19.19s.08.19.19.19h.75l-.47.47c-.06.06-.06.15,0,.2.03.03.06.04.1.04s.07-.01.1-.04l.66-.66h.01s.37-.01.37-.01v.37h-.01s-.66.67-.66.67c-.06.06-.06.15,0,.2.03.03.06.04.1.04s.07-.01.1-.04l.47-.47v.75c0,.1.08.19.19.19s.19-.08.19-.19v-.75l.47.47s.06.04.1.04.07-.01.1-.04c.06-.06.06-.15,0-.2l-.66-.66h-.01v-.38h.38s.66.67.66.67c.03.03.06.04.1.04s.07-.01.1-.04c.06-.06.06-.15,0-.2l-.47-.47h.75c.1,0,.19-.08.19-.19s-.08-.19-.19-.19Z"/>
</svg>
