<svg xmlns="http://www.w3.org/2000/svg" width="24" height="24" fill="currentColor" viewBox="0 0 24 24">
  <path d="m21.92,10.53c-.4-1.37-1.56-2.31-2.89-2.49.02-.18.03-.36.03-.54,0-3.04-2.46-5.5-5.5-5.5-2.23,0-4.15,1.34-5.02,3.25-.47-.15-.96-.25-1.48-.25-2.76,0-5,2.24-5,5s2.24,5,5,5h0l11.51-.02c.32,0,.64-.03.97-.12,1.86-.54,2.93-2.48,2.39-4.33Zm-17.37,6.7l-.43-1.45-.43,1.45-1.45.43,1.45.43.43,1.45.43-1.45,1.45-.43-1.45-.43Zm8,0l-.43-1.45-.43,1.45-1.45.43,1.45.43.43,1.45.43-1.45,1.45-.43-1.45-.43Zm7,0l-.43-1.45-.43,1.45-1.45.43,1.45.43.43,1.45.43-1.45,1.45-.43-1.45-.43Zm-9.88-.85l-4.05,3.61h0s0,0,0,0l.2,2.23,2.12-.69h0s0,0,0,0l1.73-5.14Zm7,0l-4.05,3.61h0s0,0,0,0l.2,2.23,2.12-.69h0s0,0,0,0l1.73-5.14Z"/>
</svg>
