<svg xmlns="http://www.w3.org/2000/svg" fill="currentColor" viewBox="0 0 24 24">
  <path d="M9.607 16.854A10.134 10.134 0 0 0 11 19.55l-1.239.972c-.138.109-.149.144-.25-.008-.064-.097-.125-.196-.186-.295q-.183-.297-.354-.6-.349-.622-.646-1.271c-.053-.116-.49-1.293-.529-1.29l-2.897.198-.1-1.808a15.024 15.024 0 0 0 2.394-.101q-.755-2.177-1.397-4.391A16.107 16.107 0 0 0 3.2 12.75l-1.201-1.302a29.461 29.461 0 0 1 3.196-2.202Q4.592 7.314 4.1 5.349l1.8-.4q.458 1.812 1.004 3.6a39.241 39.241 0 0 1 5.79-2.005L11.9 3.849l1.697-.5.7 2.596A23.263 23.263 0 0 0 17.4 4.65l.802 1.604-3.394 1.405.493 1.493-1.299 1.498-.806-2.498a33.647 33.647 0 0 0-5.79 2.004q.7 2.524 1.594 4.99a5.057 5.057 0 0 1 1.202-.196l.5 1.7a4.485 4.485 0 0 0-1.095.204ZM22 14h-4v-4h-2v4h-4v2h4v4h2v-4h4Z"/>
</svg>
