<svg xmlns="http://www.w3.org/2000/svg" width="24" height="24" fill="currentColor" viewBox="0 0 24 24">
  <path d="M10.4 5.85a7.6 7.6 0 1 0 7.6 7.6 7.597 7.597 0 0 0-7.6-7.6Zm0 13.6a5.91 5.91 0 0 1-5.9-5.9 5.977 5.977 0 0 1 5.9-5.9 5.977 5.977 0 0 1 5.9 5.9 5.977 5.977 0 0 1-5.9 5.9ZM7.1 2.95a1.2 1.2 0 1 1-1.2 1.2 1.2 1.2 0 0 1 1.2-1.2Zm12.1 3.7a1.2 1.2 0 1 1-1.2 1.2 1.2 1.2 0 0 1 1.2-1.2Zm1.6 3.9a1.2 1.2 0 1 1-1.2 1.2 1.2 1.2 0 0 1 1.2-1.2Zm-.4 4.3a1.2 1.2 0 1 1-1.2 1.2 1.2 1.2 0 0 1 1.2-1.2ZM3.2 5.35A1.2 1.2 0 1 1 2 6.55a1.2 1.2 0 0 1 1.2-1.2Zm8.607 4.423v1.19h-.14a2.455 2.455 0 0 0-1.577.51 2.072 2.072 0 0 0-.717 1.375 1.968 1.968 0 0 1 1.464-.59 1.854 1.854 0 0 1 1.51.68 2.726 2.726 0 0 1 .56 1.79 2.681 2.681 0 0 1-.307 1.284 2.205 2.205 0 0 1-.87.895 2.527 2.527 0 0 1-1.272.32 2.36 2.36 0 0 1-1.858-.8 3.105 3.105 0 0 1-.707-2.135v-.52a4.673 4.673 0 0 1 .447-2.092 3.281 3.281 0 0 1 1.285-1.405 3.765 3.765 0 0 1 1.942-.502Zm-1.41 3.65a1.156 1.156 0 0 0-.635.182 1.1 1.1 0 0 0-.42.481v.44a1.946 1.946 0 0 0 .285 1.13.92.92 0 0 0 .8.406.91.91 0 0 0 .753-.366 1.722 1.722 0 0 0-.003-1.91.946.946 0 0 0-.78-.363Z"/>
</svg>