<svg xmlns="http://www.w3.org/2000/svg" fill="currentColor" viewBox="0 0 24 24">
  <path d="M18 4a3.949 3.949 0 0 0-4 4 4 4 0 0 0 8 0 3.949 3.949 0 0 0-4-4Zm1.226 7-2.032-2.291A.89.89 0 0 1 17 8.164V5h1.065v3.055L20 10.236ZM4.309 10H8v5.779A2.974 2.974 0 0 0 3.184 17H2v-2.861l.05-.217 1.813-3.646A.498.498 0 0 1 4.309 10ZM8 18a2 2 0 1 1-2-2 2 2 0 0 1 2 2Zm12-4.334V17h-2.184a2.983 2.983 0 0 0-5.632 0H9V8h3a5.923 5.923 0 0 0 6 6 6.173 6.173 0 0 0 2-.334ZM17 18a2 2 0 1 1-2-2 2 2 0 0 1 2 2Z"/>
</svg>
