<svg xmlns="http://www.w3.org/2000/svg" fill="currentColor" viewBox="0 0 24 24">
  <path d="M3.81 16.5c-.1-.2-.2-.3-.2-.5l-1.4.5c.1.2.2.5.3.7a4.36 4.36 0 0 0 .9 1.1l1-1c-.2-.3-.4-.5-.6-.8Zm1.5-4.1-.7-1.2a5.06 5.06 0 0 0-1.7 1.4l1.1.9a2.972 2.972 0 0 1 1.3-1.1Zm-1.7 1.7c0-.1 0-.2.1-.2l-1.4-.6c-.1.2-.1.3-.2.5a10.869 10.869 0 0 0-.1 1.8l1.4-.2a6.882 6.882 0 0 1 .2-1.3Zm5.6-6 1.3.6a3.345 3.345 0 0 0 .2-2.4l-1.5.5a1.483 1.483 0 0 1 0 1.3Zm-.2-1.7 1.1-.9a3.387 3.387 0 0 0-1.8-1.2h-.2l-.3 1.4h.2a3.592 3.592 0 0 1 1 .7Zm-2.1 11.9.1 1.4a4.53 4.53 0 0 0 2.2-.8l-.9-1.2a2.986 2.986 0 0 1-1.4.6Zm2-9.6a7.297 7.297 0 0 1-1.3.9l.7 1.3a7.627 7.627 0 0 0 1.7-1.3v-.1l-1.1-.8Zm-1.9 1.2c-.3.2-.6.3-.9.5a3.552 3.552 0 0 1-.9.4l.7 1.3a5.938 5.938 0 0 1 .8-.4c.3-.2.6-.3.9-.5Zm-2.9 9a6.05 6.05 0 0 0 2.1.8l.2-1.4a4.714 4.714 0 0 1-1.5-.6Zm6-3.6.3 2.7 2.6-.3 7-8.5-2.9-2.4ZM21.71 6l-1.8-1.5a.77.77 0 0 0-1 .1L17.81 6l2.9 2.4 1.1-1.4a.668.668 0 0 0-.1-1Z"/>
</svg>
