<svg xmlns="http://www.w3.org/2000/svg" fill="currentColor" viewBox="0 0 24 24">
  <path d="M11.698 14.8a16.945 16.945 0 0 1-2.4.5c-.6-1.6-1.2-3.5-1.7-5.2a41.192 41.192 0 0 1 6-2.1c.2.7 1.2 3.6 1.4 4.4a21.412 21.412 0 0 0 1.3-1.9c-.2-.6-.8-2.4-1-3.1 1.499-.499 3.299-1.199 3.399-1.199l-.6-1.8s-1.9.7-3.3 1.2a27.449 27.449 0 0 1-.7-2.7l-1.8.5c.1.4.4 1.4.8 2.8-2.099.6-4.398 1.4-5.998 2-.4-1.5-.8-2.8-1.1-3.7l-1.8.4c.1.4.5 2 1.1 4.1 0 .1-.1.1-.2.2H5A15.997 15.997 0 0 0 2 11.3l1.2 1.4a18.16 18.16 0 0 1 2.7-1.9c.5 1.5.999 3.1 1.499 4.6-.7.1-1.3.1-2.1.2h-.4l.1 1.899h.4c.9-.1 1.8-.1 2.6-.2a16.423 16.423 0 0 0 1.9 3.8l1.4-1.2a11.822 11.822 0 0 1-1.4-2.8 12.857 12.857 0 0 0 1.899-.4 13.43 13.43 0 0 0-.1-1.9Zm1.4 3.499.5 2.2 2.1-.5 4.898-7.7-2.6-1.699ZM21.696 9.5l-1.6-1a.54.54 0 0 0-.8.2l-.8 1.2 2.6 1.7.8-1.3a.54.54 0 0 0-.2-.8Z"/>
</svg>
