<svg xmlns="http://www.w3.org/2000/svg" fill="currentColor" viewBox="0 0 24 24">
  <path d="m12.396 19.624-3.267-3.268-1.09 1.09 4.456 4.455L22 12.396l-1.09-1.09Zm6.227-13.912a1.998 1.998 0 0 1-3.99.157 4.945 4.945 0 0 1-2.465-1.782 2.21 2.21 0 0 0-1.69-1.071 4.52 4.52 0 0 0-3.251 1.422 1.97 1.97 0 0 1 .462 1.265 2.002 2.002 0 0 1-2.013 1.995 1.92 1.92 0 0 1-.462-.065c-.831 1.727.157 2.577 1.043 3.316.157.138.305.258.425.378a2.688 2.688 0 0 1 1.016 2.743 3.653 3.653 0 0 1-1.718 1.995c.01.092.028.184.028.277a2.004 2.004 0 1 1-1.995-2.013 1.981 1.981 0 0 1 1.616.84 2.632 2.632 0 0 0 1.155-1.348 1.85 1.85 0 0 0-.757-1.81c-.111-.102-.25-.213-.388-.333C4.706 10.893 3.173 9.6 4.355 7.2a1.997 1.997 0 0 1 1.32-3.509 2.061 2.061 0 0 1 .786.166 5.487 5.487 0 0 1 4.054-1.782 3.092 3.092 0 0 1 2.364 1.413 4.134 4.134 0 0 0 1.884 1.44 2.01 2.01 0 0 1 3.86.786Z"/>
</svg>
