<svg xmlns="http://www.w3.org/2000/svg" fill="currentColor" viewBox="0 0 24 24">
  <path d="M12 2a10 10 0 1 0 10 10A10.03 10.03 0 0 0 12 2Zm0 18.3a8.21 8.21 0 0 1-2.8-.5 3.07 3.07 0 0 0 .8-1.3c.1-.3-.2-1-.2-1.1a9.132 9.132 0 0 0-1-1.3c-.2-.1 0-.9 0-1.4s-1.1-.8-1.5-1c-.4-.3-.6.8-1 .6-.5-.2-.4-.9-.5-1.5 0-.4-1.1-.5-1.7-.6a7.99 7.99 0 0 1 5.5-7.6l-.1.1c-.5.4-1 0-.8 1.2.1 1.1-.1 1.7.8 1.8a5.354 5.354 0 0 0 1.8 0c.6 0 .6 1.5.7 1.6a5.08 5.08 0 0 0 3.1 2.8c.5.1-.5 1.1-1.2 1.4s-1.3.4-1.4 1.1 1 .3 1.3.4 1.5.6 1.9-.1c.5-.7 2.5-.4 2.3-1.2-.4-1.6 2.3-2.4 1.5-3.4a6.817 6.817 0 0 1-.2-1.8 7.786 7.786 0 0 1 .9 3.7 8.283 8.283 0 0 1-8.2 8.1Z"/>
</svg>
