<svg xmlns="http://www.w3.org/2000/svg" fill="currentColor" viewBox="0 0 24 24">
  <path d="M12 2a10 10 0 1 0 10 10A10.03 10.03 0 0 0 12 2Zm6.9 6H16a15.805 15.805 0 0 0-1.4-3.6A8.049 8.049 0 0 1 18.9 8ZM12 4a13.428 13.428 0 0 1 1.9 4h-3.8A14.703 14.703 0 0 1 12 4ZM4.3 14a6.817 6.817 0 0 1 0-4h3.4a13.402 13.402 0 0 0-.1 2c0 .7.1 1.3.1 2Zm.8 2h3a14.188 14.188 0 0 0 1.4 3.6A7.917 7.917 0 0 1 5.1 16ZM8 8H5a8.428 8.428 0 0 1 4.3-3.6C8.8 5.6 8.4 6.8 8 8Zm4 12a13.428 13.428 0 0 1-1.9-4h3.8a14.703 14.703 0 0 1-1.9 4Zm2.3-6H9.7a13.552 13.552 0 0 1-.2-2 12.31 12.31 0 0 1 .2-2h4.7a12.31 12.31 0 0 1 .2 2 13.804 13.804 0 0 1-.3 2Zm.3 5.6A14.188 14.188 0 0 0 16 16h2.9a8.505 8.505 0 0 1-4.3 3.6Zm1.8-5.6a13.402 13.402 0 0 0 .1-2c0-.7-.1-1.3-.1-2h3.4a6.817 6.817 0 0 1 0 4Z"/>
</svg>
