<svg xmlns="http://www.w3.org/2000/svg" width="24" height="24" fill="currentColor" viewBox="0 0 24 24">
  <path d="m12.006 22-.371-.2a22.898 22.898 0 0 1-7.185-5.444 10.746 10.746 0 0 1-2.295-4.945V11.4a10.986 10.986 0 0 1-.115-2.789V8.6a2.625 2.625 0 0 0 .023-.289l.011-.144c0-.023 0-.034.012-.045a13.071 13.071 0 0 1 .51-2.522c.046-.189.116-.4.162-.544s.15-.378.185-.478l.024-.022a8.706 8.706 0 0 1 1.008-1.923l.44-.61.638.433a5.937 5.937 0 0 0 6.536-.19L11.994 2l.417.244c2.469 1.467 4.416 1.523 6.502.19l.614-.39.429.578a17.9 17.9 0 0 1 1.367 2.845 10.005 10.005 0 0 1 .672 3.066v.034a16.42 16.42 0 0 1-.15 2.766 10.69 10.69 0 0 1-2.075 4.745l-.232.3h-.023a23.028 23.028 0 0 1-7.138 5.422l-.371.2ZM3.654 11.156c.521 2.7 1.912 5.666 8.355 9.188a20.137 20.137 0 0 0 6.513-5.11l.232-.3h.011a9.168 9.168 0 0 0 1.588-3.845v-.011a14.263 14.263 0 0 0 .128-2.434 8.45 8.45 0 0 0-.557-2.6l-.011-.022L19.9 6a25.815 25.815 0 0 0-.857-1.933 6.6 6.6 0 0 1-3.234.8 8.218 8.218 0 0 1-3.79-1.134A8.049 8.049 0 0 1 8.313 4.8a6.919 6.919 0 0 1-3.453-.744 8.44 8.44 0 0 0-.463 1.01c0 .012-.012.023-.024.045-.034.089-.127.311-.174.433v.012a4.106 4.106 0 0 0-.127.422l-.023.044a11.62 11.62 0 0 0-.452 2.29l-.012.144-.035.277a9.2 9.2 0 0 0 .105 2.423ZM12 4.566Zm0-.01ZM12 17h2V7h-1.897a3.811 3.811 0 0 1-.787.486c-.361.177-.8.387-1.316.619V9.63c.168-.089 1.652-.52 2-.63s.013 7.989 0 8Z"/>
</svg>