<svg xmlns="http://www.w3.org/2000/svg" width="24" height="24" fill="currentColor" viewBox="0 0 24 24">
  <path d="M6.02 9.86a4.02 4.02 0 1 0 0 8.04 4.02 4.02 0 0 0 0-8.04Zm0 6.05C4.91 15.91 4 15 4 13.89s.91-2.02 2.02-2.02 2.02.91 2.02 2.02-.91 2.02-2.02 2.02Zm9.52-9.94a4.02 4.02 0 1 0-8.04 0 4.02 4.02 0 0 0 8.04 0Zm-4.02 2.02c-1.11 0-2.02-.91-2.02-2.02s.91-2.02 2.02-2.02 2.02.91 2.02 2.02-.91 2.02-2.02 2.02Zm6.46 6.02a4.02 4.02 0 1 0 0 8.04 4.02 4.02 0 0 0 0-8.04Zm0 6.04c-1.11 0-2.02-.91-2.02-2.02s.91-2.02 2.02-2.02 2.02.91 2.02 2.02-.91 2.02-2.02 2.02Z"/>
</svg>
