<svg xmlns="http://www.w3.org/2000/svg" width="24" height="24" fill="currentColor" viewBox="0 0 24 24">
  <path d="M6.194 12.783a1.314 1.314 0 0 0 0 2.627 1.314 1.314 0 0 0 0-2.627Zm0 2.12a.818.818 0 0 1-.83-.783.83.83 0 0 1 1.66 0 .818.818 0 0 1-.83.783Zm15.714-1.981-.046-.139-.277-1.382a.496.496 0 0 0-.414-.369c-1.29-.23-2.581-.368-3.871-.507a11.92 11.92 0 0 0-1.705-1.705.85.85 0 0 0-.553-.23h-3.964a.254.254 0 0 0-.23.138l-.277 1.797h-8.11c-.092 0-.138.092-.138.185v2.396h-.185c-.092 0-.138.092-.138.184v.645c0 .093.046.185.138.185l2.489.322a.9.9 0 0 1-.046-.322c0-.922.322-1.66 1.613-1.66s1.612.738 1.612 1.66v.322h9.862a.9.9 0 0 1-.046-.322c0-.922.323-1.66 1.613-1.66a1.461 1.461 0 0 1 1.659 1.66c0 .092-.046.184-.046.322h1.014c.092 0 .138-.092.138-.184v-1.06a.655.655 0 0 0-.092-.276Zm-9.032-4.01h2.074a.494.494 0 0 1 .276.093 7.443 7.443 0 0 1 1.613 1.567h-3.963Zm1.382 2.397v.415h-.967v-.415Zm-1.705 0h.323v2.166h-.323Zm-1.428-2.304a.1.1 0 0 1 .092-.093h1.336v1.66H10.94c-.046 0-.092 0-.092-.093Zm5.852 5.115H8.36v-.369h8.617Zm2.258-1.337a1.314 1.314 0 0 0 0 2.627 1.314 1.314 0 0 0 0-2.627Zm0 2.12a.808.808 0 0 1-.783-.783.818.818 0 0 1 .783-.83.826.826 0 0 1 .83.83.818.818 0 0 1-.83.783Z"/>
</svg>