<svg xmlns="http://www.w3.org/2000/svg" fill="currentColor" viewBox="0 0 24 24">
  <path d="M21.823 10.658a3.374 3.374 0 0 0-.187-1.176 9.463 9.463 0 0 0-.42-1.188 10.047 10.047 0 0 0-1.277-2.168 10.217 10.217 0 0 0-3.922-3.1 10.061 10.061 0 0 0-10.506 1.7 9.285 9.285 0 0 0-.85.848 9.914 9.914 0 0 0-2.253 4.716 9.745 9.745 0 0 0 1.589 7.524 10.268 10.268 0 0 0 1.868 1.94 9.961 9.961 0 0 0 1.966 1.225 10.169 10.169 0 0 0 7.153.537 9.05 9.05 0 0 0 4.488-2.955 7.475 7.475 0 0 0 1.656-5.07 9.21 9.21 0 0 1-2.74 4.968 8.969 8.969 0 0 1-3.824 2.172 9.103 9.103 0 0 1-9.208-2.974 8.932 8.932 0 0 1-.925-9.61 8.768 8.768 0 0 1 8.54-4.459 8.626 8.626 0 0 1 7.11 6.123 6.878 6.878 0 0 0 .283 1.027 1.083 1.083 0 0 0 .489.543.659.659 0 0 0 .702-.063.818.818 0 0 0 .268-.56Z"/>
</svg>
