<svg xmlns="http://www.w3.org/2000/svg" fill="currentColor" viewBox="0 0 24 24">
  <path d="M9.606 16.842a11.618 11.618 0 0 0 1.345 2.649l-1.35 1.14a15.456 15.456 0 0 1-1.81-3.57l-2.873.216-.123-1.762 2.35-.175q-.751-2.153-1.421-4.332a17.508 17.508 0 0 0-2.547 1.766L2 11.458A21.564 21.564 0 0 1 5.2 9.27L4.124 5.411l1.707-.451 1.003 3.568a59.927 59.927 0 0 1 5.732-2.012l-.74-2.695 1.707-.452.712 2.573 3.126-1.163.401 1.238.104.322c.043.136.026.13-.105.178l-.606.226-2.422.903.539 1.788a6.124 6.124 0 0 0-1.564.907l-.666-2.155a44.272 44.272 0 0 0-5.712 2.023q.743 2.491 1.621 4.94l2.228-.424a5.768 5.768 0 0 0 .206 1.752Zm12.294-.007a.246.246 0 0 1 .063.324l-1.017 1.76a.251.251 0 0 1-.311.115l-1.266-.508a3.824 3.824 0 0 1-.858.496l-.19 1.347a.243.243 0 0 1-.249.217h-2.034a.259.259 0 0 1-.254-.217l-.191-1.347a3.725 3.725 0 0 1-.858-.496l-1.266.508a.259.259 0 0 1-.311-.114l-1.017-1.761a.263.263 0 0 1 .063-.324l1.075-.84a2.996 2.996 0 0 1 .006-.991l-1.074-.84a.246.246 0 0 1-.064-.324l1.017-1.761a.251.251 0 0 1 .312-.115l1.265.51a3.825 3.825 0 0 1 .858-.497l.191-1.348a.247.247 0 0 1 .248-.216h2.034a.254.254 0 0 1 .255.216l.19 1.348a3.725 3.725 0 0 1 .859.496l1.265-.508a.259.259 0 0 1 .312.114l1.017 1.761a.263.263 0 0 1-.064.324l-1.074.84a3.136 3.136 0 0 1 .038.495 4.15 4.15 0 0 1-.032.496Zm-2.752-1.336a1.907 1.907 0 1 0-1.907 1.908 1.913 1.913 0 0 0 1.907-1.908Z"/>
</svg>
