<svg xmlns="http://www.w3.org/2000/svg" width="24" height="24" fill="currentColor" viewBox="0 0 24 24">
  <path d="M20.88 16.29c.02-.17.04-.34.04-.51s-.01-.34-.04-.51l.9-.72a.54.54 0 0 0 .13-.69l-.4-.69-.4-.69a.53.53 0 0 0-.66-.23l-1.06.42c-.27-.21-.57-.39-.89-.52l-.17-1.12a.55.55 0 0 0-.54-.46h-1.6c-.27 0-.49.19-.54.46l-.17 1.1c-.33.13-.63.31-.91.53l-1.04-.41a.53.53 0 0 0-.66.23l-.4.69-.4.69c-.13.23-.08.53.13.69l.87.7c-.02.17-.04.35-.04.53s.02.37.04.54l-.87.7a.54.54 0 0 0-.13.69l.4.69.4.69c.13.23.42.33.66.23l1.06-.41c.27.21.57.38.89.51l.17 1.12c.04.26.27.46.54.46h1.6c.27 0 .49-.19.54-.46l.17-1.14c.31-.13.61-.31.87-.51l1.08.42c.25.1.53 0 .66-.23l.4-.69.4-.69c.13-.23.08-.53-.13-.69zm-2.05-.13a1.88 1.88 0 0 1-1.48 1.48 1.89 1.89 0 0 1-2.22-2.22c.14-.74.74-1.34 1.48-1.48a1.89 1.89 0 0 1 2.22 2.22M13.36 4.49A3.675 3.675 0 0 0 10.02 2 3.553 3.553 0 0 0 6.5 5.59v.03c0 1.58 1 2.98 2.5 3.47l.69 2.67c.11.33.57.33.68 0l.69-2.67c1.91-.64 2.94-2.7 2.3-4.6m-1.87 1.42c-.13.53-.56.96-1.09 1.09-1.13.27-2.11-.72-1.84-1.84.13-.53.56-.96 1.09-1.09 1.13-.27 2.11.72 1.84 1.84M8.86 14.5A3.67 3.67 0 0 0 5.52 12 3.553 3.553 0 0 0 2 15.59v.03c0 1.58 1 2.98 2.5 3.47l.69 2.67c.11.33.57.33.68 0l.69-2.67c1.91-.64 2.94-2.7 2.3-4.6Zm-1.87 1.42c-.13.53-.56.96-1.09 1.09-1.13.27-2.11-.72-1.84-1.84.13-.53.56-.96 1.09-1.09 1.13-.27 2.11.72 1.84 1.84"/>
</svg>
