<svg xmlns="http://www.w3.org/2000/svg" width="24" height="24" fill="currentColor" viewBox="0 0 24 24">
  <path d="M20.46 11.14c.65.39.65 1.33 0 1.72l-7.43 4.43c-.63.38-1.42.38-2.05 0l-7.43-4.43c-.65-.39-.65-1.33 0-1.72.28-.17.62-.17.9 0l6.53 3.89c.63.38 1.42.38 2.05 0l6.53-3.89c.28-.17.62-.17.9 0m-9.48-8.43L3.54 7.14c-.65.39-.65 1.33 0 1.72l7.43 4.43c.63.38 1.42.38 2.05 0l7.43-4.43c.65-.39.65-1.33 0-1.72l-7.43-4.43c-.63-.38-1.42-.38-2.05 0Zm2.05 16.32c-.63.38-1.42.38-2.05 0l-6.53-3.89a.86.86 0 0 0-.9 0c-.65.39-.65 1.33 0 1.72l7.43 4.43c.63.38 1.42.38 2.05 0l7.43-4.43c.65-.39.65-1.33 0-1.72a.86.86 0 0 0-.9 0z"/>
</svg>
