<svg xmlns="http://www.w3.org/2000/svg" width="24" height="24" fill="currentColor" viewBox="0 0 24 24">
<path fill="#252a2e" d="M6.9 8A4.955 4.955 0 0 0 2 13v.04a5.043 5.043 0 0 0 3.47 4.83l.96 3.71c.16.45.79.45.95 0l.96-3.71a5.06 5.06 0 0 0 3.21-6.4A5.074 5.074 0 0 0 6.91 8Zm.52 6.94c-1.56.38-2.94-1-2.56-2.56.18-.73.78-1.34 1.51-1.51 1.56-.38 2.94 1 2.56 2.56-.18.73-.78 1.34-1.51 1.51ZM21.81 11.72c-.53-1.59-2-2.69-3.68-2.75a3.92 3.92 0 0 0-3.88 3.96v.03A3.99 3.99 0 0 0 17 16.78l.76 2.94c.12.36.63.36.75 0l.76-2.94c2.1-.7 3.24-2.97 2.54-5.07Zm-2.06 1.55a1.66 1.66 0 0 1-1.2 1.2c-1.24.3-2.32-.79-2.03-2.03.14-.58.62-1.06 1.2-1.2 1.24-.3 2.32.79 2.03 2.03ZM15.86 4.09a3.096 3.096 0 0 0-2.84-2.12 3.034 3.034 0 0 0-3 3.06v.02c0 1.34.85 2.54 2.12 2.96l.59 2.27c.1.27.48.27.58 0l.59-2.27a3.097 3.097 0 0 0 1.97-3.92Zm-1.59 1.2a1.29 1.29 0 1 1-2.5-.64 1.29 1.29 0 1 1 2.5.64Z"/>
</svg>
