<svg xmlns="http://www.w3.org/2000/svg" fill="currentColor" viewBox="0 0 24 24">
  <path d="M17.55 10a3.614 3.614 0 0 0-.987 7.07L17.55 20l.986-2.93A3.634 3.634 0 0 0 17.55 10Zm-.05 5a1.5 1.5 0 1 1 1.5-1.5 1.532 1.532 0 0 1-1.5 1.5ZM6.55 12a3.614 3.614 0 0 0-.987 7.07L6.55 22l.986-2.93A3.634 3.634 0 0 0 6.55 12Zm-.05 5a1.5 1.5 0 0 1 0-3A1.465 1.465 0 0 1 8 15.5 1.532 1.532 0 0 1 6.5 17Zm4.05-15A3.579 3.579 0 0 0 7 5.636a3.562 3.562 0 0 0 2.563 3.435L10.55 12l.986-2.93A3.568 3.568 0 0 0 14 5.637 3.56 3.56 0 0 0 10.55 2Zm-.05 5A1.465 1.465 0 0 1 9 5.5a1.5 1.5 0 0 1 3 0A1.532 1.532 0 0 1 10.5 7Z"/>
</svg>
