<svg xmlns="http://www.w3.org/2000/svg" fill="currentColor" viewBox="0 0 24 24">
  <path d="M6.15 7.027a5.285 5.285 0 0 1 3.263 1.142A6.957 6.957 0 0 1 10.73 6.2a2.946 2.946 0 0 0 .082-.65 3.556 3.556 0 0 0-3.525-3.5 3.512 3.512 0 0 0-3.475 3.5 3.322 3.322 0 0 0 .562 1.807 5.247 5.247 0 0 1 1.777-.33Zm1.162-2.978a1.533 1.533 0 0 1 1.5 1.5 1.5 1.5 0 0 1-3 0 1.533 1.533 0 0 1 1.5-1.5Zm8.395 1a5.958 5.958 0 0 0-5.895 5.938 6.65 6.65 0 0 0 2.307 4.75c.598.593 1.11 1.187 1.453 1.526 1.11 1.273 2.135 4.75 2.135 4.75s1.025-3.477 2.136-4.75c.342-.424.854-.933 1.452-1.526a6.607 6.607 0 0 0 2.392-4.75 6.032 6.032 0 0 0-5.98-5.938Zm.043 8.482a2.54 2.54 0 0 1-2.545-2.544 2.545 2.545 0 0 1 5.09 0 2.54 2.54 0 0 1-2.545 2.544ZM9.06 9.173a4.267 4.267 0 0 0-2.91-1.146 4.385 4.385 0 0 0-4.338 4.37 4.894 4.894 0 0 0 1.698 3.495c.44.437.817.874 1.069 1.123a12.888 12.888 0 0 1 1.572 3.496 12.888 12.888 0 0 1 1.571-3.496c.252-.312.63-.686 1.07-1.123a6.417 6.417 0 0 0 1.098-1.325 6.634 6.634 0 0 1-1.077-3.58 6.944 6.944 0 0 1 .247-1.814Zm-2.878 5.096a1.87 1.87 0 0 1-1.873-1.873 1.914 1.914 0 0 1 1.873-1.872 1.914 1.914 0 0 1 1.873 1.872 1.87 1.87 0 0 1-1.873 1.873Z"/>
</svg>
