<svg xmlns="http://www.w3.org/2000/svg" fill="currentColor" viewBox="0 0 24 24">
  <path d="M4.469 16.868v-10.2h10.5V8.9l1.75-1.7V3.268h-2.625v.849a.864.864 0 0 1-.875.85h-7a.864.864 0 0 1-.876-.85v-.85H2.719v15.3h2.3l1.75-1.7ZM7.53 4.118h4.375a.432.432 0 0 0 .438-.425v-.425h-.875v-.85a.863.863 0 0 0-.875-.85h-1.75a.863.863 0 0 0-.875.85v.85h-.875v.425a.432.432 0 0 0 .437.425Zm5.36 6.8H6.219v1.7h4.922Zm.328-2.55h-7v1.7h7Zm-7 6.8h2.3L9.719 14v-.532h-3.5Zm14.844-5.055L19.17 8.22a.885.885 0 0 0-1.165 0l-1.456 1.456 3.058 3.058 1.456-1.456a.885.885 0 0 0 0-1.165ZM6.719 19.506v3.058h3.058l8.956-8.956-3.058-3.058Z"/>
</svg>
