<svg xmlns="http://www.w3.org/2000/svg" width="24" height="24" fill="currentColor" viewBox="0 0 24 24">
  <path d="M11.127 9.778Zm9.807.638a5.97 5.97 0 0 1-.56 3.528 7.051 7.051 0 0 1-3.065 3.192c.005.06.009.12.009.181a1.965 1.965 0 0 1-1.985 1.985 1.985 1.985 0 1 1 0-3.969 1.969 1.969 0 0 1 1.623.83 6.25 6.25 0 0 0 2.504-2.695 5.066 5.066 0 0 0 .439-2.82A1.991 1.991 0 0 1 18.7 7.137a7.91 7.91 0 0 0-1.185-1.406 4.394 4.394 0 0 0-1.634-1.046 2.034 2.034 0 0 1-1.898 1.324 1.976 1.976 0 0 1-1.83-1.239 8.865 8.865 0 0 0-2.495 1.16 9.909 9.909 0 0 0-2.192 2.038 2.063 2.063 0 0 1 .463 1.877.5.5 0 0 1 .332.677.573.573 0 0 1-.745.305c-.012-.005-.108-.069-.108-.068a1.978 1.978 0 0 1-1.401.568 2.084 2.084 0 0 1-.416-.043 14.027 14.027 0 0 0-.854 3.058 23.602 23.602 0 0 0-.225 2.553.559.559 0 0 1 .177-.018.59.59 0 0 1 .335.136.515.515 0 0 1 .144.263.567.567 0 0 1-.146.47.715.715 0 0 1-.307.129.706.706 0 0 1-.225 0v.18a1.984 1.984 0 0 1 1.517 1.922A2.032 2.032 0 0 1 3.984 22 2.025 2.025 0 0 1 2 19.976a1.989 1.989 0 0 1 1.419-1.9 27.465 27.465 0 0 1 .248-3.814 14.2 14.2 0 0 1 .977-3.452 1.956 1.956 0 0 1-.66-1.469 2.035 2.035 0 0 1 1.437-1.935.552.552 0 0 1-.008-.089.497.497 0 0 1 .99.04 1.946 1.946 0 0 1 .196.05 11.39 11.39 0 0 1 2.465-2.272 10.463 10.463 0 0 1 2.947-1.358A1.99 1.99 0 0 1 13.984 2a2.037 2.037 0 0 1 1.992 1.64 5.706 5.706 0 0 1 2.334 1.376A8.645 8.645 0 0 1 19.703 6.7a2.074 2.074 0 0 1 .273-.018A1.999 1.999 0 0 1 22 8.667a1.97 1.97 0 0 1-1.066 1.75Zm-5.6 7.378Zm-3.99-15.137a.5.5 0 1 0 .5.5.5.5 0 0 0-.5-.5ZM9.956 2.5a.5.5 0 1 0 .5.5.5.5 0 0 0-.5-.5Zm-1.329.105a.5.5 0 1 0 .5.5.5.5 0 0 0-.5-.5Zm-1.23.595a.5.5 0 1 0 .5.5.5.5 0 0 0-.5-.5Zm-.895 1.014a.5.5 0 1 0 .5.5.5.5 0 0 0-.5-.5Zm-.415 1.233a.5.5 0 1 0 .5.5.5.5 0 0 0-.5-.5Zm-.921 10.2a.5.5 0 1 0 .5.499.5.5 0 0 0-.5-.5Zm.612-1.159a.5.5 0 1 0 .5.5.5.5 0 0 0-.5-.5Zm.986-.952a.5.5 0 1 0 .5.5.5.5 0 0 0-.5-.5Zm1.206-.687a.5.5 0 1 0 .5.5.5.5 0 0 0-.5-.5Zm1.272-.174a.5.5 0 1 0 .5.5.5.5 0 0 0-.5-.5Zm1.31.04a.5.5 0 1 0 .5.5.5.5 0 0 0-.5-.5Zm1.349-.136a.5.5 0 1 0 .5.5.5.5 0 0 0-.5-.5Zm1.863 2.192a.5.5 0 1 0 .5.5.5.5 0 0 0-.5-.5Zm-.415-1.214a.5.5 0 1 0 .5.5.5.5 0 0 0-.5-.5Zm4.605-3.717a.5.5 0 1 0 .5.5.5.5 0 0 0-.5-.5Zm-1.167.823a.5.5 0 1 0 .5.5.5.5 0 0 0-.5-.5Zm-1.16.677a.5.5 0 1 0 .5.5.5.5 0 0 0-.5-.5Zm-1.167.47a.5.5 0 1 0 .5.5.5.5 0 0 0-.5-.5ZM13 9.802a.5.5 0 1 0 .5.5.5.5 0 0 0-.5-.5Zm0 1.262a.5.5 0 1 0 .5.5.5.5 0 0 0-.5-.5Zm.174-2.52a.5.5 0 1 0 .5.5.5.5 0 0 0-.5-.5Zm-.048 3.805a.5.5 0 1 0 .5.5.5.5 0 0 0-.5-.5Zm.28-5.177a.5.5 0 1 0 .5.5.5.5 0 0 0-.5-.5Zm.148-1.177a.5.5 0 1 0 .5.5.5.5 0 0 0-.5-.5Zm1.125.878a.5.5 0 1 0 .5.5.5.5 0 0 0-.5-.5Zm1.408.04a.5.5 0 1 0 .5.5.5.5 0 0 0-.5-.5Zm1.317.31a.5.5 0 1 0 .5.5.5.5 0 0 0-.5-.5Zm-5.106.62a.5.5 0 1 0 .5.5.5.5 0 0 0-.5-.5Zm-.837 1.093a.5.5 0 1 0 .5.5.5.5 0 0 0-.5-.5Zm-1.101.842a.5.5 0 1 0 .5.5.5.5 0 0 0-.5-.5Zm-1.277.349a.5.5 0 1 0 .5.5.5.5 0 0 0-.5-.5Z"/>
</svg>