<svg xmlns="http://www.w3.org/2000/svg" fill="currentColor" viewBox="0 0 24 24">
  <path d="m3 20.988.836-.282 6.39-5.816a19.675 19.675 0 0 0 3.265 2.57 2.34 2.34 0 0 0 1.36.477.44.44 0 0 0 .268-.093c.152-.137.094-.383.018-.573a9.084 9.084 0 0 0-1.564-2.556l5.067-5.027a8.675 8.675 0 0 0 1.68.838c.332.11.66.052.68-.36a1.163 1.163 0 0 0-.12-.498 8.614 8.614 0 0 0-1.276-1.994 21.69 21.69 0 0 0-3.793-3.76c-.449-.34-1.57-1.184-2.188-.829a.338.338 0 0 0-.137.268 1.516 1.516 0 0 0 .158.768 6.288 6.288 0 0 0 .743 1.258c.058.076-2.863 2.84-3.076 3.051-.66.655-1.364 1.295-1.989 1.977C8.528 9.91 7.76 9.39 6.93 8.947c-.246-.13-.583-.243-.773-.04a.496.496 0 0 0-.107.352 1.917 1.917 0 0 0 .272.837 17.505 17.505 0 0 0 2.826 3.625l-5.85 6.5Z"/>
</svg>
