<svg xmlns="http://www.w3.org/2000/svg" fill="currentColor" viewBox="0 0 24 24">
  <path d="M13 17h3v-3h2v3h3v2h-3v3h-2v-3h-3ZM3 19.44l.836-.274 6.39-5.639a19.598 19.598 0 0 0 3.265 2.492 2.388 2.388 0 0 0 1.36.463.449.449 0 0 0 .268-.09c.152-.134.094-.372.018-.556a8.763 8.763 0 0 0-1.564-2.478l5.067-4.874a8.786 8.786 0 0 0 1.68.813c.332.107.66.05.68-.349a1.1 1.1 0 0 0-.12-.483 8.324 8.324 0 0 0-1.276-1.933 21.38 21.38 0 0 0-3.793-3.645c-.449-.33-1.57-1.149-2.188-.804a.325.325 0 0 0-.137.26 1.432 1.432 0 0 0 .158.745 6.057 6.057 0 0 0 .743 1.219c.058.074-2.863 2.753-3.076 2.958-.66.635-1.364 1.255-1.989 1.917-.794-.484-1.562-.988-2.392-1.415-.246-.127-.583-.237-.773-.04a.471.471 0 0 0-.107.342 1.819 1.819 0 0 0 .272.81 17.054 17.054 0 0 0 2.826 3.515l-5.85 6.302Z"/>
</svg>
