<svg xmlns="http://www.w3.org/2000/svg" width="24" height="24" fill="currentColor" viewBox="0 0 24 24">
  <path d="M18.1 8.35a6.19 6.19 0 0 0-11.6-1.6 4.96 4.96 0 0 0 .5 9.9h.3v-1.7H7a3.3 3.3 0 0 1 0-6.6h.6a4.505 4.505 0 0 1 4.4-3.4 4.653 4.653 0 0 1 4.6 4.6v.4h1.3a2.476 2.476 0 0 1 2.5 2.5 2.562 2.562 0 0 1-2.6 2.5h-.7v1.7h.7a4.225 4.225 0 0 0 4.2-4.2 4.148 4.148 0 0 0-3.9-4.1ZM12 19.65a.945.945 0 0 0 1 1 1.002 1.002 0 0 0 1-1c0-.6-1-1.8-1-1.8s-1 1.2-1 1.8Zm1.8-2.5a1.1 1.1 0 0 0 2.2 0 5.611 5.611 0 0 0-1.1-2.1 5.611 5.611 0 0 0-1.1 2.1Zm-.2-2.3-2-.2.7-4.1-3.7 5.6 2 .2-.6 4.2Z"/>
</svg>