<svg xmlns="http://www.w3.org/2000/svg" width="24" height="24" fill="currentColor" viewBox="0 0 24 24">
  <path d="M6.79 11.67c-.12-.13-.27-.25-.43-.4-.91-.77-1.92-1.66-1.07-3.46.15.04.31.06.47.07a2.08 2.08 0 0 0 1.59-3.4 4.61 4.61 0 0 1 3.32-1.49c.85.05 1.22.5 1.73 1.12.62.87 1.51 1.52 2.52 1.86a2.088 2.088 0 0 0 2.14 1.92c1.16-.03 2.07-.99 2.04-2.15a2.092 2.092 0 0 0-2.15-2.04c-.84 0-1.59.51-1.9 1.28-.78-.3-1.45-.83-1.93-1.51a3.17 3.17 0 0 0-2.42-1.48c-1.58 0-3.09.68-4.15 1.86a1.99 1.99 0 0 0-.87-.17c-1.13.03-2.02.96-1.99 2.08 0 .61.25 1.18.71 1.58-1.21 2.51.36 3.86 1.31 4.68.14.12.28.24.4.35.59.43.89 1.16.77 1.89a2.77 2.77 0 0 1-1.18 1.41c-.37-.55-.99-.87-1.65-.88-1.11.03-2 .91-2.04 2.02-.04 1.16.86 2.13 2.02 2.17 1.14 0 2.06-.94 2.06-2.08 0-.1-.02-.19-.03-.29.82-.45 1.45-1.2 1.76-2.08.24-1.08-.17-2.19-1.04-2.87Zm14.01-1.08h-1.2c0-.33-.27-.6-.6-.6s-.6.27-.6.6h-4.8c0-.33-.27-.6-.6-.6s-.6.27-.6.6h-1.2c-.66 0-1.2.54-1.2 1.2v9c0 .66.54 1.2 1.2 1.2h9.6c.66 0 1.2-.54 1.2-1.2v-9c0-.66-.54-1.2-1.2-1.2Zm-6.6 9.6h-1.8v-1.8h1.8v1.8Zm0-3h-1.8v-1.8h1.8v1.8Zm2.7 3h-1.8v-1.8h1.8v1.8Zm0-3h-1.8v-1.8h1.8v1.8Zm2.7 3h-1.8v-1.8h1.8v1.8Zm0-3h-1.8v-1.8h1.8v1.8Zm1.2-4.03c0 .23-.19.43-.43.43h-8.75c-.23 0-.43-.19-.43-.43v-.95c0-.23.19-.43.43-.43h.77v.61c0 .33.27.6.6.6s.6-.27.6-.6v-.6h4.8v.6c0 .33.27.6.6.6s.6-.27.6-.6v-.6h.77c.23 0 .43.19.43.42v.95Z"/>
</svg>
