<svg xmlns="http://www.w3.org/2000/svg" fill="currentColor" viewBox="0 0 24 24">
  <path d="M20.655 10h-9.31A1.37 1.37 0 0 0 10 11.345v9.31A1.37 1.37 0 0 0 11.345 22h9.31A1.37 1.37 0 0 0 22 20.655v-9.31A1.37 1.37 0 0 0 20.655 10ZM20 20h-8v-8h8ZM6.788 11.675a2.844 2.844 0 0 1 1.04 2.866 3.796 3.796 0 0 1-1.757 2.085c.01.096.028.193.028.29A2.07 2.07 0 0 1 4.04 19a2.095 2.095 0 0 1 .019-4.188 2.014 2.014 0 0 1 1.653.878 2.736 2.736 0 0 0 1.18-1.41 1.954 1.954 0 0 0-.774-1.89c-.113-.107-.255-.223-.397-.348-.954-.82-2.521-2.172-1.313-4.68A2.1 2.1 0 0 1 3.7 5.778a2.038 2.038 0 0 1 2.862-1.911 5.555 5.555 0 0 1 4.146-1.863 3.154 3.154 0 0 1 2.418 1.477 4.241 4.241 0 0 0 1.926 1.505 2.05 2.05 0 0 1 1.899-1.283 2.095 2.095 0 1 1-2.031 2.268 5.068 5.068 0 0 1-2.522-1.863c-.51-.618-.878-1.071-1.728-1.12a4.574 4.574 0 0 0-3.324 1.487 2.085 2.085 0 0 1-1.587 3.406 1.926 1.926 0 0 1-.472-.067c-.85 1.805.16 2.692 1.067 3.464.16.145.312.27.434.396Z"/>
</svg>
