<svg xmlns="http://www.w3.org/2000/svg" fill="currentColor" viewBox="0 0 24 24">
  <path d="M20 18v2h-8v-2h-2v4h12v-4ZM6.354 11.28c-.907-.773-1.917-1.66-1.067-3.465a1.926 1.926 0 0 0 .472.067 2.085 2.085 0 0 0 1.587-3.406A4.574 4.574 0 0 1 10.67 2.99c.85.048 1.218.501 1.728 1.119a5.068 5.068 0 0 0 2.522 1.863 2.046 2.046 0 1 0 2.03-2.268 2.05 2.05 0 0 0-1.898 1.283 4.241 4.241 0 0 1-1.926-1.505 3.154 3.154 0 0 0-2.418-1.477 5.555 5.555 0 0 0-4.146 1.863A2.038 2.038 0 0 0 3.7 5.778a2.1 2.1 0 0 0 .708 1.583c-1.208 2.51.36 3.86 1.313 4.68.142.126.284.242.397.348a1.954 1.954 0 0 1 .774 1.892 2.736 2.736 0 0 1-1.18 1.409 2.014 2.014 0 0 0-1.653-.878A2.095 2.095 0 0 0 4.04 19a2.07 2.07 0 0 0 2.059-2.085c0-.096-.019-.193-.028-.29a3.796 3.796 0 0 0 1.756-2.084 2.844 2.844 0 0 0-1.039-2.866c-.122-.125-.273-.25-.434-.396Zm12.56 2.464L17 15.66V10h-2v5.659l-1.914-1.915-1.414 1.415 3.626 3.554a1.003 1.003 0 0 0 1.404 0l3.626-3.554Z"/>
</svg>
