<svg xmlns="http://www.w3.org/2000/svg" width="24" height="24" fill="currentColor" viewBox="0 0 24 24">
  <path d="M20.655 10h-9.31A1.37 1.37 0 0 0 10 11.345v9.31A1.37 1.37 0 0 0 11.345 22h9.31A1.37 1.37 0 0 0 22 20.655v-9.31A1.37 1.37 0 0 0 20.655 10M20 20h-8v-8h8ZM6.788 11.675a2.84 2.84 0 0 1 1.04 2.866 3.8 3.8 0 0 1-1.757 2.085c.01.096.028.193.028.29A2.07 2.07 0 0 1 4.04 19a2.095 2.095 0 0 1 .019-4.188 2.01 2.01 0 0 1 1.653.878 2.74 2.74 0 0 0 1.18-1.41 1.95 1.95 0 0 0-.774-1.89c-.113-.107-.255-.223-.397-.348-.954-.82-2.521-2.172-1.313-4.68A2.1 2.1 0 0 1 3.7 5.778a2.038 2.038 0 0 1 2.862-1.911 5.56 5.56 0 0 1 4.146-1.863 3.15 3.15 0 0 1 2.418 1.477 4.24 4.24 0 0 0 1.926 1.505 2.05 2.05 0 0 1 1.899-1.283 2.095 2.095 0 1 1-2.031 2.268 5.07 5.07 0 0 1-2.522-1.863c-.51-.618-.878-1.071-1.728-1.12a4.57 4.57 0 0 0-3.324 1.487 2.085 2.085 0 0 1-1.587 3.406 2 2 0 0 1-.472-.067c-.85 1.805.16 2.692 1.067 3.464.16.145.312.27.434.396Z"/>
</svg>
