<svg xmlns="http://www.w3.org/2000/svg" width="24" height="24" fill="currentColor" viewBox="0 0 24 24">
  <path d="M6.78 11.66c-.12-.12-.27-.24-.43-.39-.91-.77-1.92-1.66-1.07-3.46.15.04.31.06.47.07 1.15 0 2.07-.95 2.06-2.1 0-.48-.17-.94-.47-1.3a4.6 4.6 0 0 1 3.32-1.49c.85.05 1.22.5 1.73 1.12.62.87 1.51 1.52 2.52 1.86a2.09 2.09 0 0 0 2.14 1.92c1.16-.03 2.07-.99 2.04-2.15a2.09 2.09 0 0 0-2.14-2.04h-.01c-.84 0-1.59.51-1.9 1.28-.78-.3-1.45-.83-1.93-1.51-.53-.85-1.43-1.4-2.42-1.48-1.58 0-3.09.68-4.15 1.86a2 2 0 0 0-.87-.17c-1.13.03-2.02.96-1.99 2.08 0 .61.25 1.18.71 1.58-1.21 2.51.36 3.86 1.31 4.68.14.12.28.24.4.35.59.43.89 1.16.77 1.89a2.77 2.77 0 0 1-1.18 1.41c-.37-.55-.99-.87-1.65-.88-1.11.03-2 .91-2.04 2.02-.04 1.16.86 2.13 2.02 2.17 1.14 0 2.06-.94 2.06-2.08 0-.1-.02-.19-.03-.29.82-.45 1.45-1.2 1.76-2.08.24-1.08-.17-2.19-1.04-2.87Zm14.83.93-1.88-1.88c-.25-.25-.59-.39-.94-.39h-7.43c-.73 0-1.33.6-1.33 1.33v9.31c0 .73.6 1.33 1.33 1.33h9.31c.73 0 1.33-.6 1.33-1.33v-7.43c0-.35-.14-.69-.39-.94m-10.25.79v-1.73h6.65v2.66h-5.72l-.92-.92Zm6.62 5.96c-.16.79-.78 1.41-1.57 1.57a2 2 0 0 1-2.35-1.57 2 2 0 0 1 1.57-2.35 2 2 0 0 1 2.35 2.35"/>
</svg>
