<svg xmlns="http://www.w3.org/2000/svg" fill="currentColor" viewBox="0 0 24 24">
  <path d="M19.6 4.25a2.414 2.414 0 0 0-1.2 4.5l-1.8 5.5h-.2a2.433 2.433 0 0 0-2.4 2.4l-6 1.4a6.07 6.07 0 0 0 .7-1l-1-.5a3.417 3.417 0 0 1-1.3 1.4 2.558 2.558 0 0 0-1.9-1 2.54 2.54 0 0 0-2.5 2.5 2.433 2.433 0 0 0 2.4 2.4 2.348 2.348 0 0 0 2.4-2.3l7.4-1.8a2.332 2.332 0 0 0 2.1 1.3 2.433 2.433 0 0 0 2.4-2.4 2.745 2.745 0 0 0-1.1-2.1l1.9-5.5h.1a2.4 2.4 0 0 0 0-4.8ZM4.8 8.35a10.26 10.26 0 0 0-.4 1.4l1.1.2c.1-.3.2-.6.3-1a1.268 1.268 0 0 0 .6.1 2.425 2.425 0 0 0 1.9-3.9 4.125 4.125 0 0 1 1.3-1l-.6-1a6.529 6.529 0 0 0-1.6 1.3 2.958 2.958 0 0 0-1-.2A2.369 2.369 0 0 0 4 6.65a2.136 2.136 0 0 0 .8 1.7Zm-.4 2.8a4.012 4.012 0 0 0 1.4 2.2l.8-.8a3.807 3.807 0 0 1-1.1-1.6Zm3.1 2.1-.8.8.1.1a3.016 3.016 0 0 1 .9 1.5l1.1-.2a3.688 3.688 0 0 0-1.3-2.2Zm9-6.6.5-1a5.072 5.072 0 0 1-1.9-1.6l-.1-.2-.9.7.1.1a7.705 7.705 0 0 0 2.3 2ZM12 3.35h.2a1.69 1.69 0 0 1 1 .3l.6-1a4.424 4.424 0 0 0-1.5-.5 5.244 5.244 0 0 0-1.7.2l.3 1.1c.3 0 .7-.1 1.1-.1Z"/>
</svg>
