<svg xmlns="http://www.w3.org/2000/svg" fill="currentColor" viewBox="0 0 24 24">
  <path d="M11.749 16.372a7.81 7.81 0 0 1-.201-1.608v-.201a24.495 24.495 0 0 1-2.613.603c-.603-1.508-1.106-3.317-1.608-4.925a52.432 52.432 0 0 1 5.728-2.01c.201.704.402 1.407.704 2.211a5.097 5.097 0 0 1 1.608-.904 12.148 12.148 0 0 1-.503-1.81c1.407-.502 3.116-1.105 3.216-1.205l-.502-1.709s-1.81.603-3.116 1.206c-.301-1.005-.502-1.91-.703-2.613l-1.709.503c.1.301.402 1.306.704 2.713a52.437 52.437 0 0 0-5.729 2.01C6.322 7.025 6.02 5.72 5.72 4.915l-1.709.402c-.003 0 .484 1.786.515 1.892q.133.472.27.944l.317 1.082s-.551.353-.642.408q-.198.12-.394.245-.354.224-.7.46c-.343.234-.68.476-1.002.737-.073.06-.374.249-.374.362l1.206 1.307a17.884 17.884 0 0 1 2.513-1.81 72.088 72.088 0 0 0 1.407 4.322 12.813 12.813 0 0 1-2.01.1h-.402l.1 1.81h.402c.905-.1 1.709-.1 2.513-.201a16.964 16.964 0 0 0 1.809 3.618l1.306-1.106a11.689 11.689 0 0 1-1.407-2.613c.804-.2 1.608-.301 2.312-.502ZM17 10a5 5 0 1 0 5 5 5 5 0 0 0-5-5Zm3 6h-6v-2h6Z"/>
</svg>
