<svg xmlns="http://www.w3.org/2000/svg" fill="currentColor" viewBox="0 0 24 24">
  <path d="M4.9 11.05a.713.713 0 0 0-.6.3l-2.2 3.3c-.1.1-.1.2-.1.4v3h.8a2.917 2.917 0 0 1 2.9-2.5 2.845 2.845 0 0 1 2.3 1.1c.1.1.2.1.2-.1v-5.5Zm.8 5.3a2 2 0 1 1-2 2 1.944 1.944 0 0 1 2-2Zm9.5 0a2 2 0 1 1-2 2 2.006 2.006 0 0 1 2-2Zm1.8-1.8a5.952 5.952 0 0 1-5.9-5.3H9.3v8.7h3.1a2.917 2.917 0 0 1 2.9-2.5 2.996 2.996 0 0 1 2.9 2.5h1.6v-4a6.71 6.71 0 0 1-2.8.6Zm.25-10.9a4.754 4.754 0 1 0 4.754 4.754A4.768 4.768 0 0 0 17.25 3.65Zm.618 7.56h-1.284V7.357h1.284Zm0-4.517h-1.284V5.409h1.284Z"/>
</svg>
