<svg xmlns="http://www.w3.org/2000/svg" fill="currentColor" viewBox="0 0 24 24">
  <path d="M22 12a1.991 1.991 0 0 0-1-1.723V5.723A1.994 1.994 0 1 0 18.277 3h-4.554a1.984 1.984 0 0 0-3.446 0H5.723A1.994 1.994 0 1 0 3 5.723v4.554a1.984 1.984 0 0 0 0 3.446v4.554A1.994 1.994 0 1 0 5.723 21h4.554a1.984 1.984 0 0 0 3.446 0h4.554A1.994 1.994 0 1 0 21 18.277v-4.554A1.991 1.991 0 0 0 22 12Zm-3 1.723v4.554a1.995 1.995 0 0 0-.723.723h-4.554a1.984 1.984 0 0 0-3.446 0H5.723A1.996 1.996 0 0 0 5 18.277v-4.554a1.984 1.984 0 0 0 0-3.446V5.723A1.995 1.995 0 0 0 5.723 5h4.554a1.984 1.984 0 0 0 3.446 0h4.554a1.995 1.995 0 0 0 .723.723v4.554a1.984 1.984 0 0 0 0 3.446Z"/>
</svg>
