<svg xmlns="http://www.w3.org/2000/svg" width="24" height="24" fill="currentColor" viewBox="0 0 24 24">
  <path d="M8.555 18.159a1.649 1.649 0 0 1-.494 1.194 1.719 1.719 0 0 1-1.193.494 1.675 1.675 0 0 1-1.235-.494 1.69 1.69 0 0 1 0-2.388 1.676 1.676 0 0 1 1.235-.494 1.719 1.719 0 0 1 1.193.494 1.649 1.649 0 0 1 .494 1.194Zm5.362 2.414a1.297 1.297 0 0 1-.436 1.03 1.315 1.315 0 0 1-.99.397 1.344 1.344 0 0 1-1.03-.396 1.436 1.436 0 0 1 0-2.061 1.374 1.374 0 0 1 1.03-.436 1.35 1.35 0 0 1 .99.436 1.297 1.297 0 0 1 .436 1.03Zm-8.101-8.038a1.771 1.771 0 0 1-.545 1.342 1.878 1.878 0 0 1-1.342.587 1.901 1.901 0 0 1-1.384-.587 1.924 1.924 0 0 1 0-2.683 1.901 1.901 0 0 1 1.384-.587 1.878 1.878 0 0 1 1.342.587 1.771 1.771 0 0 1 .545 1.341Zm13.473 5.63a1.292 1.292 0 0 1-.375.862 1.164 1.164 0 0 1-.825.337 1.188 1.188 0 0 1-.863-.337 1.271 1.271 0 0 1 0-1.726 1.188 1.188 0 0 1 .863-.337 1.164 1.164 0 0 1 .825.337 1.292 1.292 0 0 1 .375.863ZM9.035 6.907a2.128 2.128 0 0 1-.65 1.56 2.244 2.244 0 0 1-1.516.607 2.27 2.27 0 0 1-1.56-.606 2.197 2.197 0 0 1 0-3.12 2.27 2.27 0 0 1 1.56-.607 2.244 2.244 0 0 1 1.516.606 2.128 2.128 0 0 1 .65 1.56Zm5.908-2.413a2.397 2.397 0 0 1-.726 1.77 2.231 2.231 0 0 1-1.724.725 2.262 2.262 0 0 1-1.769-.726 2.397 2.397 0 0 1-.726-1.769 2.397 2.397 0 0 1 .726-1.77A2.427 2.427 0 0 1 12.494 2a2.4 2.4 0 0 1 1.723.726 2.397 2.397 0 0 1 .726 1.77ZM22 12.485a.957.957 0 0 1-.29.704.878.878 0 0 1-.728.297.852.852 0 0 1-.691-.297.997.997 0 0 1 0-1.407.852.852 0 0 1 .69-.296.879.879 0 0 1 .728.296.957.957 0 0 1 .291.704Zm-3.176-5.579a.714.714 0 0 1-.189.503.67.67 0 0 1-.503.22.69.69 0 0 1-.535-.22.765.765 0 0 1 0-1.006.69.69 0 0 1 .535-.22.67.67 0 0 1 .503.22.714.714 0 0 1 .189.503Z"/>
</svg>