<svg xmlns="http://www.w3.org/2000/svg" width="24" height="24" fill="currentColor" viewBox="0 0 24 24">
  <path d="M11 12h4c.55 0 1 .45 1 1s-.45 1-1 1h-4c-.55 0-1-.45-1-1s.45-1 1-1Zm0 4h10c.55 0 1 .45 1 1s-.45 1-1 1H11c-.55 0-1-.45-1-1s.45-1 1-1Zm0 4h10c.55 0 1 .45 1 1s-.45 1-1 1H11c-.55 0-1-.45-1-1s.45-1 1-1Zm-4.21-8.32c.87.67 1.28 1.79 1.04 2.87a3.76 3.76 0 0 1-1.76 2.08c.01.1.03.19.03.29 0 1.14-.91 2.08-2.06 2.08a2.093 2.093 0 0 1-2.02-2.17c.04-1.11.93-1.99 2.04-2.02.66 0 1.28.33 1.65.88.54-.32.96-.82 1.18-1.41.12-.73-.18-1.46-.77-1.89-.11-.11-.26-.22-.4-.35-.95-.82-2.52-2.17-1.31-4.68-.45-.4-.71-.98-.71-1.58-.03-1.13.86-2.06 1.99-2.08.3 0 .6.05.87.17a5.556 5.556 0 0 1 4.15-1.86c.99.08 1.89.63 2.42 1.48.48.68 1.15 1.2 1.93 1.5.31-.77 1.06-1.28 1.9-1.28 1.16-.03 2.12.88 2.15 2.04.03 1.16-.88 2.12-2.04 2.15-1.11.03-2.05-.81-2.14-1.92a5.05 5.05 0 0 1-2.52-1.86c-.51-.62-.88-1.07-1.73-1.12-1.27.01-2.47.55-3.32 1.49a2.08 2.08 0 0 1-1.59 3.4c-.16 0-.32-.03-.47-.07-.85 1.8.16 2.69 1.07 3.46.16.15.31.27.43.4Z"/>
</svg>
