<svg xmlns="http://www.w3.org/2000/svg" width="24" height="24" fill="currentColor" viewBox="0 0 24 24">
  <path d="M19.644 14.144a.876.876 0 0 0-.86.773h-.754a.876.876 0 0 0-.86-.773.93.93 0 0 0 0 1.856.89.89 0 0 0 .86-.73h.775a.89.89 0 0 0 .86.73.91.91 0 0 0 .88-.928.927.927 0 0 0-.901-.928m-2.872.906.084.177a.12.12 0 0 0 .105.066h.419a.12.12 0 0 0 .105-.066h.21a.59.59 0 0 1-.546.42.62.62 0 0 1 0-1.238.59.59 0 0 1 .566.464h-.147a.16.16 0 0 0-.104-.044h-.587a.167.167 0 0 0-.105.22Zm2.872.619a.57.57 0 0 1-.545-.42h.21a.12.12 0 0 0 .104.066h.42a.12.12 0 0 0 .104-.066l.084-.177a.14.14 0 0 0-.104-.2h-.587a.16.16 0 0 0-.105.045h-.126a.59.59 0 0 1 .566-.464.6.6 0 0 1 .587.619.65.65 0 0 1-.608.597m-4.717-6.277H5.074v-.486a.147.147 0 0 1 .147-.155h1.195v-.243a.102.102 0 0 1 .104-.11h.462a.102.102 0 0 1 .104.11v.243H9.56v-.176a.102.102 0 0 1 .105-.11h.44a.102.102 0 0 1 .105.11v.176h2.495v-.243a.102.102 0 0 1 .105-.11h.46a.102.102 0 0 1 .106.11v.243h1.404a.147.147 0 0 1 .147.155Zm7.463 4.928v.575h-.629l-.063.177h-1.027a1.3 1.3 0 0 0-.105-.486h.839v-.133h-.901a1.2 1.2 0 0 0-.231-.243h1.635v.11Zm-16.457-.132h1.132a1 1 0 0 0-.188.22 1.2 1.2 0 0 0-.126.31h-.503a1.6 1.6 0 0 0-.126-.31 1 1 0 0 0-.189-.22m-2.515.376h.901a1.3 1.3 0 0 0-.105.486H3.145l-.063-.155H2.39v-.575h.545v-.132h1.678a1.2 1.2 0 0 0-.231.243h-.964Zm11.907-.023c0-.044 0-.066-.02-.088h.985a.9.9 0 0 1 .23-.265H8.365a1.2 1.2 0 0 1 .23.243h.965c0 .022-.02.066-.02.088v.045h-.902a1.3 1.3 0 0 1 .105.486h.796v.066a.295.295 0 0 0 .294.31h2.117a.295.295 0 0 0 .294-.31v-.044h.356v.044a.295.295 0 0 0 .293.31h2.118a.295.295 0 0 0 .293-.31v-.044h.818a1.3 1.3 0 0 1 .105-.486h-.902Zm-2.725 0v.045h-.315v-.045c0-.044 0-.066-.02-.088h.335Zm5.241-.353h1.132a1 1 0 0 0-.189.22 1.2 1.2 0 0 0-.125.31h-.503a1.6 1.6 0 0 0-.126-.31 1 1 0 0 0-.189-.22m4.067-.508h-.168v-1.768h-.88v-.818a.41.41 0 0 0-.23-.376l-.315-.132-.252-2.034.021-.375A.17.17 0 0 0 19.917 8h-2.914a.185.185 0 0 0-.168.177v.884a.07.07 0 0 1-.063.066h-1.698v.464H4.906v-.464h-.88v2.785h-.944v1.768h-.147v.265h18.973Zm-17.882 0H3.27v-1.592h.755Zm12.243 0-.965-1.017H4.864v-.265H15.43l1.195 1.282Zm1.698-3.25V8.553h1.866l.21 1.879Zm3.585 3.25h-.692v-1.592h.692Zm-13.816.464a.876.876 0 0 0-.86.773h-.754a.876.876 0 0 0-.86-.773.93.93 0 0 0 0 1.856.89.89 0 0 0 .86-.73h.776a.89.89 0 0 0 .86.73.91.91 0 0 0 .88-.928.94.94 0 0 0-.902-.928m-2.872.906.084.177a.12.12 0 0 0 .105.066h.42a.12.12 0 0 0 .104-.066h.21a.59.59 0 0 1-.546.42.62.62 0 0 1 0-1.238.59.59 0 0 1 .566.464h-.146a.16.16 0 0 0-.105-.044h-.587a.144.144 0 0 0-.105.22Zm2.872.619a.57.57 0 0 1-.545-.42h.21a.12.12 0 0 0 .105.066h.419a.12.12 0 0 0 .105-.066l.084-.177a.14.14 0 0 0-.105-.2h-.587a.16.16 0 0 0-.105.045H7.17a.59.59 0 0 1 .566-.464.6.6 0 0 1 .587.619.63.63 0 0 1-.587.597"/>
</svg>
