<svg xmlns="http://www.w3.org/2000/svg" fill="currentColor" viewBox="0 0 24 24">
  <path d="M16.9 9.05 12 16h3v5h4v-5h3Zm-6.2 7.265-.5-1.692a4.615 4.615 0 0 1-1.2.196q-.898-2.452-1.599-4.97a44.404 44.404 0 0 1 5.795-2.093L14 10.244l1.3-1.491-.495-1.486 3.396-1.398-.802-1.597a23.212 23.212 0 0 1-3.099 1.29 9.37 9.37 0 0 1-.283-1.044l-.297-1.092-.074-.274C13.615 3.04 13.634 3 13.524 3a2.392 2.392 0 0 0-.542.159l-1.084.317.795 2.582A39.107 39.107 0 0 0 6.9 8.054q-.545-1.78-1.004-3.584l-1.7.499q.492 1.953 1.094 3.877A24.133 24.133 0 0 0 2 11.045l1.197 1.29a16.257 16.257 0 0 1 2.598-1.787q.637 2.204 1.398 4.371a14.237 14.237 0 0 1-2.396.102l.2 1.892q1.451-.066 2.898-.196a17.02 17.02 0 0 0 1.803 3.58l1.4-1.194a10.517 10.517 0 0 1-1.396-2.685 3.355 3.355 0 0 0 .997-.103Z"/>
</svg>
