<svg xmlns="http://www.w3.org/2000/svg" width="24" height="24" fill="currentColor" viewBox="0 0 24 24">
<path d="M12.49 9.5H10.5V7.51c0-.28-.22-.5-.5-.5s-.5.22-.5.5V9.5H7.51c-.28 0-.5.22-.5.5s.22.5.5.5H9.5v1.99c0 .28.22.5.5.5s.5-.22.5-.5V10.5h1.99c.28 0 .5-.22.5-.5s-.22-.5-.5-.5Zm7.74 9.32-3.88-3.88-.66.05-.41-.41c2.44-2.81 2.28-7.1-.5-9.7-2.67-2.5-7.01-2.46-9.64.08a6.988 6.988 0 0 0-.08 9.98c2.61 2.61 6.77 2.72 9.52.34l.41.41-.05.65 3.89 3.89a.996.996 0 1 0 1.41-1.41Zm-6.69-5.29a5.016 5.016 0 0 1-7.08 0 5.016 5.016 0 0 1 0-7.08 5.016 5.016 0 0 1 7.08 0 5.016 5.016 0 0 1 0 7.08Z"/>
</svg>
